G04*
G04 #@! TF.GenerationSoftware,Altium Limited,Altium Designer,21.1.1 (26)*
G04*
G04 Layer_Color=2752767*
%FSLAX25Y25*%
%MOIN*%
G70*
G04*
G04 #@! TF.SameCoordinates,CE4E1A71-7A6C-4EB6-9CC6-588889D542DC*
G04*
G04*
G04 #@! TF.FilePolarity,Positive*
G04*
G01*
G75*
%ADD10C,0.00500*%
%ADD11C,0.00200*%
%ADD12C,0.00267*%
D10*
X-46841Y-140009D02*
G03*
X-69336Y-147567I-6245J-18668D01*
G01*
X-93133Y-133827D02*
G03*
X-97836Y-110567I-17747J8518D01*
G01*
X-93133Y-133827D02*
G03*
X-69336Y-147567I12423J-5962D01*
G01*
X-73819Y-139792D02*
G03*
X-73819Y-139792I-6890J0D01*
G01*
X162463Y-13738D02*
G03*
X162463Y13741I-1048J13740D01*
G01*
X-69336Y147571D02*
G03*
X-93133Y133831I-11375J-7777D01*
G01*
X144670Y29444D02*
G03*
X162463Y13741I19290J3926D01*
G01*
Y-13738D02*
G03*
X144670Y-29440I1497J-19628D01*
G01*
X-97836Y110571D02*
G03*
X-93133Y133831I-13045J14742D01*
G01*
X-69336Y147571D02*
G03*
X-46841Y140013I16250J11110D01*
G01*
X144670Y29444D02*
G03*
X-46841Y140013I-144672J-29442D01*
G01*
Y-140009D02*
G03*
X144670Y-29440I46839J140011D01*
G01*
X-97836Y110571D02*
G03*
X-97836Y-110567I97834J-110569D01*
G01*
X168307Y0D02*
G03*
X168307Y0I-6890J0D01*
G01*
X-73819Y139792D02*
G03*
X-73819Y139792I-6890J0D01*
G01*
X49211Y2D02*
G03*
X49211Y2I-49213J0D01*
G01*
D11*
X36781Y-41881D02*
Y-40281D01*
X38381D01*
Y-41881D01*
X36781D01*
X64619Y-69719D02*
Y-68119D01*
X66219D01*
Y-69719D01*
X64619D01*
X-111371Y82629D02*
Y84229D01*
X-109771D01*
Y82629D01*
X-111371D01*
X-104300Y89700D02*
Y91300D01*
X-102700D01*
Y89700D01*
X-104300D01*
X-97229Y96771D02*
Y98371D01*
X-95629D01*
Y96771D01*
X-97229D01*
X-29500Y-87800D02*
X-30300Y-86200D01*
X-28700D01*
X-29500Y-87800D01*
X-26000Y-78300D02*
X-26800Y-76700D01*
X-25200D01*
X-26000Y-78300D01*
X-20500Y-69300D02*
X-21300Y-67700D01*
X-19700D01*
X-20500Y-69300D01*
X-26000Y-83300D02*
X-26800Y-81700D01*
X-25200D01*
X-26000Y-83300D01*
X-12500Y-69300D02*
X-13300Y-67700D01*
X-11700D01*
X-12500Y-69300D01*
X-24000Y-57800D02*
X-24800Y-56200D01*
X-23200D01*
X-24000Y-57800D01*
X-32000Y-72800D02*
X-32800Y-71200D01*
X-31200D01*
X-32000Y-72800D01*
X-45500Y89700D02*
X-46300Y91300D01*
X-44700D01*
X-45500Y89700D01*
X-61000Y66700D02*
X-61800Y68300D01*
X-60200D01*
X-61000Y66700D01*
X-49500Y90700D02*
X-50300Y92300D01*
X-48700D01*
X-49500Y90700D01*
X62500Y-57800D02*
X61700Y-56200D01*
X63300D01*
X62500Y-57800D01*
X-29528Y46444D02*
X-30328Y48044D01*
X-28728D01*
X-29528Y46444D01*
X-68898Y62192D02*
X-69698Y63792D01*
X-68098D01*
X-68898Y62192D01*
X-76500Y62700D02*
X-77300Y64300D01*
X-75700D01*
X-76500Y62700D01*
X122047Y7074D02*
X121247Y8674D01*
X122847D01*
X122047Y7074D01*
X125984Y-800D02*
X125184Y800D01*
X126784D01*
X125984Y-800D01*
X122047Y-59855D02*
X121247Y-58255D01*
X122847D01*
X122047Y-59855D01*
X125984Y-63792D02*
X125184Y-62192D01*
X126784D01*
X125984Y-63792D01*
X114173Y-83477D02*
X113373Y-81877D01*
X114973D01*
X114173Y-83477D01*
X106299Y-95288D02*
X105499Y-93688D01*
X107099D01*
X106299Y-95288D01*
X114173Y-51981D02*
X113373Y-50381D01*
X114973D01*
X114173Y-51981D01*
X106299D02*
X105499Y-50381D01*
X107099D01*
X106299Y-51981D01*
X3937Y-59855D02*
X3137Y-58255D01*
X4737D01*
X3937Y-59855D01*
X-55118Y-75603D02*
X-55918Y-74003D01*
X-54318D01*
X-55118Y-75603D01*
Y-83477D02*
X-55918Y-81877D01*
X-54318D01*
X-55118Y-83477D01*
Y-91351D02*
X-55918Y-89751D01*
X-54318D01*
X-55118Y-91351D01*
Y-107099D02*
X-55918Y-105499D01*
X-54318D01*
X-55118Y-107099D01*
X-47244D02*
X-48044Y-105499D01*
X-46444D01*
X-47244Y-107099D01*
Y-99225D02*
X-48044Y-97625D01*
X-46444D01*
X-47244Y-99225D01*
X-55118D02*
X-55918Y-97625D01*
X-54318D01*
X-55118Y-99225D01*
X-59055Y-24422D02*
X-59855Y-22822D01*
X-58255D01*
X-59055Y-24422D01*
X-55118Y-40170D02*
X-55918Y-38570D01*
X-54318D01*
X-55118Y-40170D01*
X-51181Y-32296D02*
X-51981Y-30696D01*
X-50381D01*
X-51181Y-32296D01*
X-47244Y-40170D02*
X-48044Y-38570D01*
X-46444D01*
X-47244Y-40170D01*
X-46000Y-46800D02*
X-46800Y-45200D01*
X-45200D01*
X-46000Y-46800D01*
X126000Y14700D02*
X125200Y16300D01*
X126800D01*
X126000Y14700D01*
X112500Y14200D02*
X111700Y15800D01*
X113300D01*
X112500Y14200D01*
X106000Y11700D02*
X105200Y13300D01*
X106800D01*
X106000Y11700D01*
X43500Y33200D02*
X42700Y34800D01*
X44300D01*
X43500Y33200D01*
X51000Y21200D02*
X50200Y22800D01*
X51800D01*
X51000Y21200D01*
X500Y139700D02*
X-300Y141300D01*
X1300D01*
X500Y139700D01*
X39000Y135700D02*
X38200Y137300D01*
X39800D01*
X39000Y135700D01*
X-32000Y128200D02*
X-32800Y129800D01*
X-31200D01*
X-32000Y128200D01*
X-55500Y131200D02*
X-56300Y132800D01*
X-54700D01*
X-55500Y131200D01*
X-86000Y81700D02*
X-86800Y83300D01*
X-85200D01*
X-86000Y81700D01*
X-82000Y100200D02*
X-82800Y101800D01*
X-81200D01*
X-82000Y100200D01*
X-63000Y115200D02*
X-63800Y116800D01*
X-62200D01*
X-63000Y115200D01*
X-12000Y126200D02*
X-12800Y127800D01*
X-11200D01*
X-12000Y126200D01*
X25500Y118200D02*
X24700Y119800D01*
X26300D01*
X25500Y118200D01*
X23500Y95200D02*
X22700Y96800D01*
X24300D01*
X23500Y95200D01*
X10000Y63700D02*
X9200Y65300D01*
X10800D01*
X10000Y63700D01*
X25500Y51200D02*
X24700Y52800D01*
X26300D01*
X25500Y51200D01*
X102000Y56700D02*
X101200Y58300D01*
X102800D01*
X102000Y56700D01*
X85000Y89700D02*
X84200Y91300D01*
X85800D01*
X85000Y89700D01*
X-52000Y-15300D02*
X-52800Y-13700D01*
X-51200D01*
X-52000Y-15300D01*
X-55500Y-1300D02*
X-56300Y300D01*
X-54700D01*
X-55500Y-1300D01*
X-53500Y-8300D02*
X-54300Y-6700D01*
X-52700D01*
X-53500Y-8300D01*
X-143500Y-3300D02*
X-144300Y-1700D01*
X-142700D01*
X-143500Y-3300D01*
X-129500Y-38300D02*
X-130300Y-36700D01*
X-128700D01*
X-129500Y-38300D01*
X-129000Y-58800D02*
X-129800Y-57200D01*
X-128200D01*
X-129000Y-58800D01*
X-122000Y-66300D02*
X-122800Y-64700D01*
X-121200D01*
X-122000Y-66300D01*
X-103500Y-7300D02*
X-104300Y-5700D01*
X-102700D01*
X-103500Y-7300D01*
X-78000Y-59300D02*
X-78800Y-57700D01*
X-77200D01*
X-78000Y-59300D01*
Y-46550D02*
X-78800Y-44950D01*
X-77200D01*
X-78000Y-46550D01*
Y-33800D02*
X-78800Y-32200D01*
X-77200D01*
X-78000Y-33800D01*
Y-21050D02*
X-78800Y-19450D01*
X-77200D01*
X-78000Y-21050D01*
Y-8300D02*
X-78800Y-6700D01*
X-77200D01*
X-78000Y-8300D01*
X-103500Y-58800D02*
X-104300Y-57200D01*
X-102700D01*
X-103500Y-58800D01*
Y-20175D02*
X-104300Y-18575D01*
X-102700D01*
X-103500Y-20175D01*
Y-33050D02*
X-104300Y-31450D01*
X-102700D01*
X-103500Y-33050D01*
Y-45925D02*
X-104300Y-44325D01*
X-102700D01*
X-103500Y-45925D01*
X32072Y-94252D02*
X31272Y-92652D01*
X32872D01*
X32072Y-94252D01*
X32072Y-90611D02*
X31272Y-89011D01*
X32872D01*
X32072Y-90611D01*
X35517Y-94252D02*
X34717Y-92652D01*
X36317D01*
X35517Y-94252D01*
X35615Y-90611D02*
X34815Y-89011D01*
X36415D01*
X35615Y-90611D01*
X-11500Y94700D02*
X-12300Y96300D01*
X-10700D01*
X-11500Y94700D01*
X-29000Y121700D02*
X-29800Y123300D01*
X-28200D01*
X-29000Y121700D01*
X-37000Y112200D02*
X-37800Y113800D01*
X-36200D01*
X-37000Y112200D01*
X-33500Y116200D02*
X-34300Y117800D01*
X-32700D01*
X-33500Y116200D01*
X-29000Y91700D02*
X-29800Y93300D01*
X-28200D01*
X-29000Y91700D01*
X-36000Y80200D02*
X-36800Y81800D01*
X-35200D01*
X-36000Y80200D01*
X-11000Y62700D02*
X-11800Y64300D01*
X-10200D01*
X-11000Y62700D01*
X46000Y44700D02*
X45200Y46300D01*
X46800D01*
X46000Y44700D01*
X38000Y55200D02*
X37200Y56800D01*
X38800D01*
X38000Y55200D01*
X97000Y53200D02*
X96200Y54800D01*
X97800D01*
X97000Y53200D01*
X77000Y99700D02*
X76200Y101300D01*
X77800D01*
X77000Y99700D01*
X112000Y38700D02*
X111200Y40300D01*
X112800D01*
X112000Y38700D01*
X105000Y46200D02*
X104200Y47800D01*
X105800D01*
X105000Y46200D01*
X100000Y11700D02*
X99200Y13300D01*
X100800D01*
X100000Y11700D01*
X108500Y6200D02*
X107700Y7800D01*
X109300D01*
X108500Y6200D01*
X127500Y-17800D02*
X126700Y-16200D01*
X128300D01*
X127500Y-17800D01*
X120000Y-11800D02*
X119200Y-10200D01*
X120800D01*
X120000Y-11800D01*
X114500Y-2300D02*
X113700Y-700D01*
X115300D01*
X114500Y-2300D01*
X135500Y-38800D02*
X134700Y-37200D01*
X136300D01*
X135500Y-38800D01*
X130507Y-45800D02*
X129707Y-44200D01*
X131307D01*
X130507Y-45800D01*
X123753D02*
X122953Y-44200D01*
X124553D01*
X123753Y-45800D01*
X117000D02*
X116200Y-44200D01*
X117800D01*
X117000Y-45800D01*
X-67000Y51700D02*
X-67800Y53300D01*
X-66200D01*
X-67000Y51700D01*
Y34700D02*
X-67800Y36300D01*
X-66200D01*
X-67000Y34700D01*
X-84000Y40200D02*
X-84800Y41800D01*
X-83200D01*
X-84000Y40200D01*
X-84500Y46200D02*
X-85300Y47800D01*
X-83700D01*
X-84500Y46200D01*
X-91500Y45200D02*
X-92300Y46800D01*
X-90700D01*
X-91500Y45200D01*
X-95500Y26200D02*
X-96300Y27800D01*
X-94700D01*
X-95500Y26200D01*
X-84000Y30200D02*
X-84800Y31800D01*
X-83200D01*
X-84000Y30200D01*
X-78000D02*
X-78800Y31800D01*
X-77200D01*
X-78000Y30200D01*
X-53500Y11200D02*
X-54300Y12800D01*
X-52700D01*
X-53500Y11200D01*
X-79000Y1700D02*
X-79800Y3300D01*
X-78200D01*
X-79000Y1700D01*
X-75500D02*
X-76300Y3300D01*
X-74700D01*
X-75500Y1700D01*
X-13501Y-60299D02*
X-14301Y-58698D01*
X-12701D01*
X-13501Y-60299D01*
X-36500Y-108300D02*
X-37300Y-106700D01*
X-35700D01*
X-36500Y-108300D01*
X-104500Y1700D02*
X-105300Y3300D01*
X-103700D01*
X-104500Y1700D01*
X-101000D02*
X-101800Y3300D01*
X-100200D01*
X-101000Y1700D01*
X-48000Y23200D02*
X-48800Y24800D01*
X-47200D01*
X-48000Y23200D01*
X-27000Y67200D02*
X-27800Y68800D01*
X-26200D01*
X-27000Y67200D01*
X-31000D02*
X-31800Y68800D01*
X-30200D01*
X-31000Y67200D01*
X-41500Y72700D02*
X-42300Y74300D01*
X-40700D01*
X-41500Y72700D01*
X-90500Y34700D02*
X-91300Y36300D01*
X-89700D01*
X-90500Y34700D01*
X-84000Y15700D02*
X-84800Y17300D01*
X-83200D01*
X-84000Y15700D01*
X-78000D02*
X-78800Y17300D01*
X-77200D01*
X-78000Y15700D01*
X-106500Y62700D02*
X-107300Y64300D01*
X-105700D01*
X-106500Y62700D01*
X-101000D02*
X-101800Y64300D01*
X-100200D01*
X-101000Y62700D01*
X-84500D02*
X-85300Y64300D01*
X-83700D01*
X-84500Y62700D01*
X-73000Y58700D02*
X-73800Y60300D01*
X-72200D01*
X-73000Y58700D01*
X-102000Y15700D02*
X-102800Y17300D01*
X-101200D01*
X-102000Y15700D01*
X-106500D02*
X-107300Y17300D01*
X-105700D01*
X-106500Y15700D01*
X123500Y-38300D02*
X122700Y-36700D01*
X124300D01*
X123500Y-38300D01*
X11500Y-54800D02*
X10700Y-53200D01*
X12300D01*
X11500Y-54800D01*
X44262Y-60258D02*
X43462Y-58658D01*
X45062D01*
X44262Y-60258D01*
X16000Y-61300D02*
X15200Y-59700D01*
X16800D01*
X16000Y-61300D01*
X33000Y-60300D02*
X32200Y-58700D01*
X33800D01*
X33000Y-60300D01*
X-34967Y-60433D02*
X-35767Y-58833D01*
X-34167D01*
X-34967Y-60433D01*
X59000Y-67800D02*
X58200Y-66200D01*
X59800D01*
X59000Y-67800D01*
X32500Y-79800D02*
X31700Y-78200D01*
X33300D01*
X32500Y-79800D01*
X81500Y-49300D02*
X80700Y-47700D01*
X82300D01*
X81500Y-49300D01*
X-120000Y-48800D02*
X-120800Y-47200D01*
X-119200D01*
X-120000Y-48800D01*
X78500Y-61800D02*
X77700Y-60200D01*
X79300D01*
X78500Y-61800D01*
X94000Y-48800D02*
X93200Y-47200D01*
X94800D01*
X94000Y-48800D01*
X92000Y-82800D02*
X91200Y-81200D01*
X92800D01*
X92000Y-82800D01*
X72806Y-24597D02*
X72006Y-22997D01*
X73606D01*
X72806Y-24597D01*
X83500Y-70300D02*
X82700Y-68700D01*
X84300D01*
X83500Y-70300D01*
X70500Y-55300D02*
X69700Y-53700D01*
X71300D01*
X70500Y-55300D01*
X61500Y-46300D02*
X60700Y-44700D01*
X62300D01*
X61500Y-46300D01*
X35000Y-111800D02*
X34200Y-110200D01*
X35800D01*
X35000Y-111800D01*
X68000Y-103800D02*
X67200Y-102200D01*
X68800D01*
X68000Y-103800D01*
X54000Y-94300D02*
X53200Y-92700D01*
X54800D01*
X54000Y-94300D01*
X37815Y-68569D02*
X37015Y-66969D01*
X38615D01*
X37815Y-68569D01*
X9635Y-72229D02*
X8835Y-70629D01*
X10435D01*
X9635Y-72229D01*
X15500Y-72800D02*
X14700Y-71200D01*
X16300D01*
X15500Y-72800D01*
X25500Y-83800D02*
X24700Y-82200D01*
X26300D01*
X25500Y-83800D01*
X8699Y-100822D02*
X7899Y-99222D01*
X9499D01*
X8699Y-100822D01*
X0Y-95800D02*
X-800Y-94200D01*
X800D01*
X0Y-95800D01*
X9500Y-139800D02*
X8700Y-138200D01*
X10300D01*
X9500Y-139800D01*
X31000Y-140300D02*
X30200Y-138700D01*
X31800D01*
X31000Y-140300D01*
X-15500Y-118300D02*
X-16300Y-116700D01*
X-14700D01*
X-15500Y-118300D01*
X-22000D02*
X-22800Y-116700D01*
X-21200D01*
X-22000Y-118300D01*
Y-114800D02*
X-22800Y-113200D01*
X-21200D01*
X-22000Y-114800D01*
X-38000Y-136300D02*
X-38800Y-134700D01*
X-37200D01*
X-38000Y-136300D01*
X-20500Y-139300D02*
X-21300Y-137700D01*
X-19700D01*
X-20500Y-139300D01*
X-45500Y-137300D02*
X-46300Y-135700D01*
X-44700D01*
X-45500Y-137300D01*
Y-72800D02*
X-46300Y-71200D01*
X-44700D01*
X-45500Y-72800D01*
X-23000Y-96800D02*
X-23800Y-95200D01*
X-22200D01*
X-23000Y-96800D01*
X-38000Y-72800D02*
X-38800Y-71200D01*
X-37200D01*
X-38000Y-72800D01*
X-23000Y-100300D02*
X-23800Y-98700D01*
X-22200D01*
X-23000Y-100300D01*
X54000Y-12800D02*
X53200Y-11200D01*
X54800D01*
X54000Y-12800D01*
X-112206Y46494D02*
X-113006Y48094D01*
X-111406D01*
X-112206Y46494D01*
X-112000Y38867D02*
X-112800Y40467D01*
X-111200D01*
X-112000Y38867D01*
Y35533D02*
X-112800Y37133D01*
X-111200D01*
X-112000Y35533D01*
Y32200D02*
X-112800Y33800D01*
X-111200D01*
X-112000Y32200D01*
Y42200D02*
X-112800Y43800D01*
X-111200D01*
X-112000Y42200D01*
X-52500Y52200D02*
X-53300Y53800D01*
X-51700D01*
X-52500Y52200D01*
X-55000Y48200D02*
X-55800Y49800D01*
X-54200D01*
X-55000Y48200D01*
X-68500Y23200D02*
X-69300Y24800D01*
X-67700D01*
X-68500Y23200D01*
X-70500Y26700D02*
X-71300Y28300D01*
X-69700D01*
X-70500Y26700D01*
X-68726Y45405D02*
X-69526Y47005D01*
X-67926D01*
X-68726Y45405D01*
Y39380D02*
X-69526Y40980D01*
X-67926D01*
X-68726Y39380D01*
Y30200D02*
X-69526Y31800D01*
X-67926D01*
X-68726Y30200D01*
X108000Y-81300D02*
X107200Y-79700D01*
X108800D01*
X108000Y-81300D01*
X85500Y-49300D02*
X84700Y-47700D01*
X86300D01*
X85500Y-49300D01*
Y-52300D02*
X84700Y-50700D01*
X86300D01*
X85500Y-52300D01*
X81500Y-52800D02*
X80700Y-51200D01*
X82300D01*
X81500Y-52800D01*
Y-45800D02*
X80700Y-44200D01*
X82300D01*
X81500Y-45800D01*
X95500Y-79800D02*
X94700Y-78200D01*
X96300D01*
X95500Y-79800D01*
X-8586Y-122714D02*
X-9386Y-121114D01*
X-7786D01*
X-8586Y-122714D01*
X11500Y-114300D02*
X10700Y-112700D01*
X12300D01*
X11500Y-114300D01*
X56169Y121031D02*
X55369Y122632D01*
X56968D01*
X56169Y121031D01*
X63715Y120888D02*
X62915Y122488D01*
X64515D01*
X63715Y120888D01*
X-41275Y-121025D02*
X-42075Y-119425D01*
X-40475D01*
X-41275Y-121025D01*
X-34000Y-121800D02*
X-34800Y-120200D01*
X-33200D01*
X-34000Y-121800D01*
X-10000Y-114800D02*
X-10800Y-113200D01*
X-9200D01*
X-10000Y-114800D01*
X-15500Y-133300D02*
X-16300Y-131700D01*
X-14700D01*
X-15500Y-133300D01*
X20500Y-135800D02*
X19700Y-134200D01*
X21300D01*
X20500Y-135800D01*
X11500Y-119300D02*
X10700Y-117700D01*
X12300D01*
X11500Y-119300D01*
D12*
X-64200Y104500D02*
G03*
X-64200Y104500I-800J0D01*
G01*
X-54200D02*
G03*
X-54200Y104500I-800J0D01*
G01*
X50800Y-128500D02*
G03*
X50800Y-128500I-800J0D01*
G01*
X42140Y-133500D02*
G03*
X42140Y-133500I-800J0D01*
G01*
X-135200Y-18000D02*
G03*
X-135200Y-18000I-800J0D01*
G01*
Y-8000D02*
G03*
X-135200Y-8000I-800J0D01*
G01*
X-135200Y2000D02*
G03*
X-135200Y2000I-800J0D01*
G01*
X-135200Y12000D02*
G03*
X-135200Y12000I-800J0D01*
G01*
X-135200Y22000D02*
G03*
X-135200Y22000I-800J0D01*
G01*
X-135200Y32000D02*
G03*
X-135200Y32000I-800J0D01*
G01*
X-63700Y93000D02*
G03*
X-63700Y93000I-800J0D01*
G01*
X-63700Y83000D02*
G03*
X-63700Y83000I-800J0D01*
G01*
X-74200Y93000D02*
G03*
X-74200Y93000I-800J0D01*
G01*
X-74200Y83000D02*
G03*
X-74200Y83000I-800J0D01*
G01*
X24002Y81320D02*
G03*
X24002Y81320I-800J0D01*
G01*
X24002Y71320D02*
G03*
X24002Y71320I-800J0D01*
G01*
X64432Y16693D02*
G03*
X64432Y16693I-800J0D01*
G01*
X64432Y26693D02*
G03*
X64432Y26693I-800J0D01*
G01*
X71265Y91793D02*
G03*
X71265Y91793I-800J0D01*
G01*
X61265Y91793D02*
G03*
X61265Y91793I-800J0D01*
G01*
X40765D02*
G03*
X40765Y91793I-800J0D01*
G01*
X50765D02*
G03*
X50765Y91793I-800J0D01*
G01*
X40765Y103293D02*
G03*
X40765Y103293I-800J0D01*
G01*
X40765Y113293D02*
G03*
X40765Y113293I-800J0D01*
G01*
M02*
