G04*
G04 #@! TF.GenerationSoftware,Altium Limited,Altium Designer,21.1.1 (26)*
G04*
G04 Layer_Color=16711935*
%FSLAX25Y25*%
%MOIN*%
G70*
G04*
G04 #@! TF.SameCoordinates,76EDEEC6-FF17-4897-8BED-31D04ABFA7DC*
G04*
G04*
G04 #@! TF.FilePolarity,Negative*
G04*
G01*
G75*
%ADD61R,0.04737X0.03753*%
%ADD62R,0.03753X0.04737*%
%ADD64R,0.06509X0.04540*%
%ADD66R,0.04540X0.06509*%
%ADD69R,0.02762X0.04337*%
%ADD98C,0.06706*%
%ADD99O,0.07887X0.09068*%
%ADD100R,0.07887X0.09068*%
G04:AMPARAMS|DCode=101|XSize=78.87mil|YSize=90.68mil|CornerRadius=0mil|HoleSize=0mil|Usage=FLASHONLY|Rotation=30.000|XOffset=0mil|YOffset=0mil|HoleType=Round|Shape=Round|*
%AMOVALD101*
21,1,0.01181,0.07887,0.00000,0.00000,120.0*
1,1,0.07887,0.00295,-0.00511*
1,1,0.07887,-0.00295,0.00511*
%
%ADD101OVALD101*%

G04:AMPARAMS|DCode=102|XSize=78.87mil|YSize=90.68mil|CornerRadius=0mil|HoleSize=0mil|Usage=FLASHONLY|Rotation=30.000|XOffset=0mil|YOffset=0mil|HoleType=Round|Shape=Rectangle|*
%AMROTATEDRECTD102*
4,1,4,-0.01148,-0.05898,-0.05682,0.01955,0.01148,0.05898,0.05682,-0.01955,-0.01148,-0.05898,0.0*
%
%ADD102ROTATEDRECTD102*%

%ADD103R,0.09068X0.07887*%
%ADD104O,0.09068X0.07887*%
%ADD105P,0.09483X4X270.0*%
%ADD106C,0.03162*%
%ADD131R,0.03347X0.02362*%
%ADD132R,0.03347X0.01575*%
%ADD134O,0.03556X0.07887*%
D61*
X-78107Y26920D02*
D03*
X-78107Y21015D02*
D03*
X-84107Y20967D02*
D03*
X-84107Y26873D02*
D03*
X-106107Y20967D02*
D03*
X-106107Y26873D02*
D03*
X-100107Y26873D02*
D03*
X-100107Y20967D02*
D03*
X-105607Y52968D02*
D03*
X-105607Y58873D02*
D03*
X-99607Y52968D02*
D03*
X-99607Y58873D02*
D03*
X-84607Y59373D02*
D03*
X-84607Y53468D02*
D03*
X-78607Y59373D02*
D03*
Y53468D02*
D03*
X-29500Y-94547D02*
D03*
X-29500Y-100453D02*
D03*
X-32303Y57521D02*
D03*
Y51615D02*
D03*
D62*
X-72654Y47420D02*
D03*
X-78559Y47420D02*
D03*
X-72654Y41420D02*
D03*
X-78559Y41420D02*
D03*
X-78559Y35420D02*
D03*
X-72654Y35420D02*
D03*
X-106059Y47420D02*
D03*
X-100154Y47420D02*
D03*
X-44953Y-78000D02*
D03*
X-39047D02*
D03*
D64*
X-113107Y28259D02*
D03*
X-113107Y20582D02*
D03*
X-91607Y58759D02*
D03*
X-91607Y51082D02*
D03*
X-37000Y-101839D02*
D03*
Y-94161D02*
D03*
D66*
X-45339Y-85000D02*
D03*
X-37661D02*
D03*
D69*
X63705Y106380D02*
D03*
X59965Y106380D02*
D03*
X56225Y106380D02*
D03*
X56225Y117207D02*
D03*
X59965Y117207D02*
D03*
X63705Y117207D02*
D03*
D98*
X37581Y-41081D02*
D03*
X65419Y-68919D02*
D03*
X-110571Y83429D02*
D03*
X-103500Y90500D02*
D03*
D99*
X-65000Y104500D02*
D03*
X70465Y91793D02*
D03*
X49965Y91793D02*
D03*
D100*
X-55000Y104500D02*
D03*
X60465Y91793D02*
D03*
X39965D02*
D03*
D101*
X50000Y-128500D02*
D03*
D102*
X41340Y-133500D02*
D03*
D103*
X-136000Y-18000D02*
D03*
X-64500Y83000D02*
D03*
X-75000Y83000D02*
D03*
X23202Y71320D02*
D03*
X63632Y26693D02*
D03*
X39965Y103293D02*
D03*
D104*
X-136000Y-8000D02*
D03*
X-136000Y2000D02*
D03*
X-136000Y12000D02*
D03*
X-136000Y22000D02*
D03*
X-136000Y32000D02*
D03*
X-64500Y93000D02*
D03*
X-75000Y93000D02*
D03*
X23202Y81320D02*
D03*
X63632Y16693D02*
D03*
X39965Y113293D02*
D03*
D105*
X-96429Y97571D02*
D03*
D106*
X32072Y-93452D02*
D03*
X32072Y-89811D02*
D03*
X35517Y-93452D02*
D03*
X35615Y-89811D02*
D03*
D131*
X-99752Y31882D02*
D03*
X-99752Y42118D02*
D03*
X-106248Y42118D02*
D03*
X-106248Y31882D02*
D03*
D132*
X-99752Y35425D02*
D03*
X-99752Y38575D02*
D03*
X-106248Y38575D02*
D03*
X-106248Y35425D02*
D03*
D134*
X-38803Y41332D02*
D03*
X-43803Y41332D02*
D03*
X-48803Y41332D02*
D03*
X-53803Y41332D02*
D03*
X-38803Y61804D02*
D03*
X-43803Y61804D02*
D03*
X-48803Y61804D02*
D03*
X-53803Y61804D02*
D03*
M02*
