G04*
G04 #@! TF.GenerationSoftware,Altium Limited,Altium Designer,21.1.1 (26)*
G04*
G04 Layer_Color=32896*
%FSLAX25Y25*%
%MOIN*%
G70*
G04*
G04 #@! TF.SameCoordinates,76EDEEC6-FF17-4897-8BED-31D04ABFA7DC*
G04*
G04*
G04 #@! TF.FilePolarity,Positive*
G04*
G01*
G75*
%ADD10C,0.00787*%
%ADD12C,0.01575*%
%ADD13C,0.01181*%
%ADD15C,0.00591*%
%ADD17C,0.00600*%
%ADD18C,0.00800*%
%ADD19C,0.00500*%
D10*
X66359Y108793D02*
G03*
X66359Y108793I-394J0D01*
G01*
X66067Y113762D02*
X66067Y110293D01*
X53862Y109923D02*
X53863Y113762D01*
X-21577Y-93278D02*
X27419Y-44282D01*
X40782Y-30919D01*
X-21577Y-93278D02*
X13222Y-128077D01*
X40782Y-30919D02*
X75581Y-65718D01*
X62218Y-79081D02*
X75581Y-65718D01*
X13222Y-128077D02*
X62218Y-79081D01*
X27419Y-44282D02*
X62218Y-79081D01*
D12*
X-38822Y48812D02*
G03*
X-38822Y48812I-787J0D01*
G01*
D13*
X-34885Y40052D02*
G03*
X-34885Y40052I-591J0D01*
G01*
D15*
X-80807Y44720D02*
X-76617Y44720D01*
X-80807Y44720D02*
X-80807Y50120D01*
X-76707Y50120D01*
X-74596Y50120D02*
X-70407Y50120D01*
X-70407Y44720D02*
X-70407Y50120D01*
X-74507Y44720D02*
X-70407Y44720D01*
X-80807Y44120D02*
X-76707Y44120D01*
X-80807Y38720D02*
X-80807Y44120D01*
X-80807Y38720D02*
X-76617Y38720D01*
X-74507Y38720D02*
X-70407Y38720D01*
X-70407Y44120D02*
X-70407Y38720D01*
X-74596Y44120D02*
X-70407Y44120D01*
X-74507Y32720D02*
X-70407Y32720D01*
X-70407Y38120D01*
X-74596Y38120D02*
X-70407Y38120D01*
X-80807D02*
X-76707Y38120D01*
X-80807Y32720D02*
X-80807Y38120D01*
X-80807Y32720D02*
X-76617Y32720D01*
X-80807Y29168D02*
X-80807Y24978D01*
X-80807Y29168D02*
X-75407Y29168D01*
X-75407Y25068D02*
X-75407Y29168D01*
X-75407Y22957D02*
X-75407Y18767D01*
X-80807Y18768D02*
X-75407Y18767D01*
X-80807Y18768D02*
X-80807Y22867D01*
X-86807Y18720D02*
X-86807Y22820D01*
X-86807Y18720D02*
X-81407Y18720D01*
X-81407Y22910D02*
X-81407Y18720D01*
X-81407Y25020D02*
X-81407Y29120D01*
X-86807Y29120D02*
X-81407Y29120D01*
X-86807Y24930D02*
X-86807Y29120D01*
X-108807Y18720D02*
X-108807Y22820D01*
X-108807Y18720D02*
X-103407Y18720D01*
X-103407Y22910D02*
X-103407Y18720D01*
X-103407Y25020D02*
X-103407Y29120D01*
X-108807Y29120D02*
X-103407Y29120D01*
X-108807Y29120D02*
X-108807Y24930D01*
X-102807Y24930D02*
Y29120D01*
X-97407D01*
X-97407Y25020D01*
X-97407Y22910D02*
X-97407Y18720D01*
X-102807Y18720D02*
X-97407Y18720D01*
X-102807Y22820D02*
X-102807Y18720D01*
X-108400Y30200D02*
X-97500D01*
X-97500Y43800D01*
X-108400Y43800D02*
X-108400Y30200D01*
X-108400Y43800D02*
X-97500Y43800D01*
X-108307Y50120D02*
X-104207Y50120D01*
X-108307Y44720D02*
X-108307Y50120D01*
X-108307Y44720D02*
X-104117D01*
X-102007Y44720D02*
X-97907Y44720D01*
X-97907Y50120D02*
X-97907Y44720D01*
X-102096Y50120D02*
X-97907Y50120D01*
X-102907Y50720D02*
X-102907Y54910D01*
X-108307Y50720D02*
X-102907Y50720D01*
X-108307Y50720D02*
Y54820D01*
X-108307Y61120D02*
X-108307Y56931D01*
X-108307Y61120D02*
X-102907Y61120D01*
X-102907Y57020D01*
X-96907Y50720D02*
X-96907Y54910D01*
X-102307Y50720D02*
X-96907Y50720D01*
X-102307Y50720D02*
X-102307Y54820D01*
X-102307Y61120D02*
X-102307Y56931D01*
X-102307Y61120D02*
X-96907Y61120D01*
X-96907Y57020D02*
X-96907Y61120D01*
X-81907Y57520D02*
Y61620D01*
X-87307Y61620D02*
X-81907Y61620D01*
X-87307Y57430D02*
Y61620D01*
Y55320D02*
X-87307Y51220D01*
X-81907Y51220D01*
X-81907Y55410D02*
X-81907Y51220D01*
X-75907Y57520D02*
Y61620D01*
X-81307Y61620D02*
X-75907Y61620D01*
X-81307Y61620D02*
X-81307Y57431D01*
X-81307Y51220D02*
X-81307Y55320D01*
X-81307Y51220D02*
X-75907Y51220D01*
Y55410D01*
X-47200Y-80700D02*
Y-75300D01*
Y-80700D02*
X-43010Y-80700D01*
X-47200Y-75300D02*
X-43100Y-75300D01*
X-40900Y-80700D02*
X-36800D01*
X-36800Y-75300D01*
X-40990Y-75300D02*
X-36800Y-75300D01*
X-32200Y-92300D02*
X-32200Y-96490D01*
X-32200Y-92300D02*
X-26800D01*
X-26800Y-96400D02*
X-26800Y-92300D01*
X-26800Y-98510D02*
X-26800Y-102700D01*
X-32200Y-102700D02*
X-26800Y-102700D01*
X-32200Y-102700D02*
Y-98600D01*
X-29603Y55668D02*
Y59768D01*
X-35003Y59768D02*
X-29603Y59768D01*
X-35003Y59768D02*
X-35003Y55578D01*
X-35003Y49368D02*
X-35003Y53468D01*
X-35003Y49368D02*
X-29603Y49368D01*
X-29603Y53558D02*
X-29603Y49368D01*
D17*
X-116707Y30920D02*
X-109507Y30920D01*
X-116707Y17920D02*
X-116707Y30920D01*
X-116707Y17920D02*
X-109507D01*
X-109507Y30920D01*
X-95207Y61420D02*
X-88007Y61420D01*
X-95207Y48420D02*
Y61420D01*
Y48420D02*
X-88007Y48420D01*
X-88007Y61420D01*
X-48000Y-81400D02*
X-48000Y-88600D01*
X-35000Y-88600D01*
X-48000Y-81400D02*
X-35000Y-81400D01*
X-35000Y-88600D01*
X-33400Y-104500D02*
X-33400Y-91500D01*
X-40600Y-104500D02*
X-33400Y-104500D01*
X-40600Y-104500D02*
X-40600Y-91500D01*
X-33400Y-91500D01*
D18*
X-55751Y46056D02*
X-36854Y46056D01*
X-55751Y57080D02*
X-36854Y57080D01*
X-36854Y46056D01*
X-55751Y57080D02*
X-55751Y46056D01*
D19*
X-32000Y41501D02*
X-34500D01*
X-34999Y42001D01*
Y43000D01*
X-34500Y43500D01*
X-32000D01*
X-34500Y44500D02*
X-34999Y45000D01*
Y45999D01*
X-34500Y46499D01*
X-32500D01*
X-32000Y45999D01*
Y45000D01*
X-32500Y44500D01*
X-33000D01*
X-33500Y45000D01*
Y46499D01*
X-60501Y33500D02*
Y36500D01*
X-62001D01*
X-62501Y36000D01*
Y35000D01*
X-62001Y34500D01*
X-60501D01*
X-61501D02*
X-62501Y33500D01*
X-65500D02*
X-63500D01*
X-65500Y35500D01*
Y36000D01*
X-65000Y36500D01*
X-64000D01*
X-63500Y36000D01*
X-66499Y34000D02*
X-66999Y33500D01*
X-67999D01*
X-68499Y34000D01*
Y36000D01*
X-67999Y36500D01*
X-66999D01*
X-66499Y36000D01*
Y35500D01*
X-66999Y35000D01*
X-68499D01*
X-60501Y46000D02*
Y49000D01*
X-62001D01*
X-62501Y48500D01*
Y47500D01*
X-62001Y47000D01*
X-60501D01*
X-61501D02*
X-62501Y46000D01*
X-65500D02*
X-63500D01*
X-65500Y48000D01*
Y48500D01*
X-65000Y49000D01*
X-64000D01*
X-63500Y48500D01*
X-66499D02*
X-66999Y49000D01*
X-67999D01*
X-68499Y48500D01*
Y48000D01*
X-67999Y47500D01*
X-68499Y47000D01*
Y46500D01*
X-67999Y46000D01*
X-66999D01*
X-66499Y46500D01*
Y47000D01*
X-66999Y47500D01*
X-66499Y48000D01*
Y48500D01*
X-66999Y47500D02*
X-67999D01*
X-95999Y33501D02*
X-93001D01*
Y35001D01*
X-93500Y35501D01*
X-94500D01*
X-95000Y35001D01*
Y33501D01*
Y34501D02*
X-95999Y35501D01*
Y38500D02*
Y36500D01*
X-94000Y38500D01*
X-93500D01*
X-93001Y38000D01*
Y37000D01*
X-93500Y36500D01*
X-93001Y39499D02*
Y41499D01*
X-93500D01*
X-95500Y39499D01*
X-95999D01*
X-60501Y40001D02*
Y43000D01*
X-62001D01*
X-62501Y42500D01*
Y41500D01*
X-62001Y41000D01*
X-60501D01*
X-61501D02*
X-62501Y40001D01*
X-65500D02*
X-63500D01*
X-65500Y42000D01*
Y42500D01*
X-65000Y43000D01*
X-64000D01*
X-63500Y42500D01*
X-68499Y43000D02*
X-67499Y42500D01*
X-66499Y41500D01*
Y40500D01*
X-66999Y40001D01*
X-67999D01*
X-68499Y40500D01*
Y41000D01*
X-67999Y41500D01*
X-66499D01*
X68500Y111000D02*
X70500D01*
X70999Y110500D01*
Y109501D01*
X70500Y109001D01*
X68500D01*
X68001Y109501D01*
Y110500D01*
X69000Y110000D02*
X68001Y111000D01*
Y110500D02*
X68500Y111000D01*
X68001Y112000D02*
Y112999D01*
Y112499D01*
X70999D01*
X70500Y112000D01*
X63121Y-46207D02*
X63828Y-46207D01*
X64534Y-46914D01*
Y-47621D01*
X63121Y-49034D01*
X62414D01*
X61707Y-48327D01*
X61707Y-47621D01*
X61353Y-43733D02*
X61707Y-44793D01*
X61707Y-46207D01*
X61000Y-46914D01*
X60293D01*
X59586Y-46207D01*
X59586Y-45500D01*
X59940Y-45147D01*
X60647Y-45147D01*
X61707Y-46207D01*
X60293Y-43379D02*
Y-42673D01*
X59586Y-41966D01*
X58879D01*
X57466Y-43379D01*
X57466Y-44086D01*
X58173Y-44793D01*
X58879D01*
X60293Y-43379D01*
X-35001Y-106500D02*
X-34501Y-106000D01*
X-33501D01*
X-33001Y-106500D01*
Y-108500D01*
X-33501Y-109000D01*
X-34501D01*
X-35001Y-108500D01*
X-38000Y-106000D02*
X-36000D01*
Y-107500D01*
X-37000Y-107000D01*
X-37500D01*
X-38000Y-107500D01*
Y-108500D01*
X-37500Y-109000D01*
X-36500D01*
X-36000Y-108500D01*
X-40999Y-106000D02*
X-39999Y-106500D01*
X-38999Y-107500D01*
Y-108500D01*
X-39499Y-109000D01*
X-40499D01*
X-40999Y-108500D01*
Y-108000D01*
X-40499Y-107500D01*
X-38999D01*
X-25001Y-106500D02*
X-24501Y-106000D01*
X-23501D01*
X-23001Y-106500D01*
Y-108500D01*
X-23501Y-109000D01*
X-24501D01*
X-25001Y-108500D01*
X-28000Y-106000D02*
X-26000D01*
Y-107500D01*
X-27000Y-107000D01*
X-27500D01*
X-28000Y-107500D01*
Y-108500D01*
X-27500Y-109000D01*
X-26500D01*
X-26000Y-108500D01*
X-30499Y-109000D02*
Y-106000D01*
X-28999Y-107500D01*
X-30999D01*
X-51501Y-77000D02*
X-51001Y-76500D01*
X-50001D01*
X-49501Y-77000D01*
Y-79000D01*
X-50001Y-79500D01*
X-51001D01*
X-51501Y-79000D01*
X-54000Y-79500D02*
Y-76500D01*
X-52500Y-78000D01*
X-54500D01*
X-55499Y-76500D02*
X-57499D01*
Y-77000D01*
X-55499Y-79000D01*
Y-79500D01*
X-51501Y-84500D02*
X-51001Y-84000D01*
X-50001D01*
X-49501Y-84500D01*
Y-86500D01*
X-50001Y-86999D01*
X-51001D01*
X-51501Y-86500D01*
X-54000Y-86999D02*
Y-84000D01*
X-52500Y-85500D01*
X-54500D01*
X-57499Y-84000D02*
X-56499Y-84500D01*
X-55499Y-85500D01*
Y-86500D01*
X-55999Y-86999D01*
X-56999D01*
X-57499Y-86500D01*
Y-86000D01*
X-56999Y-85500D01*
X-55499D01*
X-25500Y52501D02*
X-25001Y52001D01*
Y51001D01*
X-25500Y50501D01*
X-27500D01*
X-27999Y51001D01*
Y52001D01*
X-27500Y52501D01*
X-25500Y53500D02*
X-25001Y54000D01*
Y55000D01*
X-25500Y55500D01*
X-26000D01*
X-26500Y55000D01*
Y54500D01*
Y55000D01*
X-27000Y55500D01*
X-27500D01*
X-27999Y55000D01*
Y54000D01*
X-27500Y53500D01*
X-25500Y56499D02*
X-25001Y56999D01*
Y57999D01*
X-25500Y58499D01*
X-26000D01*
X-26500Y57999D01*
X-27000Y58499D01*
X-27500D01*
X-27999Y57999D01*
Y56999D01*
X-27500Y56499D01*
X-27000D01*
X-26500Y56999D01*
X-26000Y56499D01*
X-25500D01*
X-26500Y56999D02*
Y57999D01*
X-99000Y65001D02*
X-98501Y64501D01*
Y63501D01*
X-99000Y63001D01*
X-101000D01*
X-101499Y63501D01*
Y64501D01*
X-101000Y65001D01*
X-99000Y66000D02*
X-98501Y66500D01*
Y67500D01*
X-99000Y68000D01*
X-99500D01*
X-100000Y67500D01*
Y67000D01*
Y67500D01*
X-100500Y68000D01*
X-101000D01*
X-101499Y67500D01*
Y66500D01*
X-101000Y66000D01*
X-98501Y68999D02*
Y70999D01*
X-99000D01*
X-101000Y68999D01*
X-101499D01*
X-83500Y65001D02*
X-83000Y64501D01*
Y63501D01*
X-83500Y63001D01*
X-85500D01*
X-86000Y63501D01*
Y64501D01*
X-85500Y65001D01*
X-83500Y66000D02*
X-83000Y66500D01*
Y67500D01*
X-83500Y68000D01*
X-84000D01*
X-84500Y67500D01*
Y67000D01*
Y67500D01*
X-85000Y68000D01*
X-85500D01*
X-86000Y67500D01*
Y66500D01*
X-85500Y66000D01*
X-83000Y70999D02*
X-83500Y69999D01*
X-84500Y68999D01*
X-85500D01*
X-86000Y69499D01*
Y70499D01*
X-85500Y70999D01*
X-85000D01*
X-84500Y70499D01*
Y68999D01*
X-99500Y10501D02*
X-99001Y10001D01*
Y9001D01*
X-99500Y8501D01*
X-101500D01*
X-101999Y9001D01*
Y10001D01*
X-101500Y10501D01*
X-99500Y11500D02*
X-99001Y12000D01*
Y13000D01*
X-99500Y13500D01*
X-100000D01*
X-100500Y13000D01*
Y12500D01*
Y13000D01*
X-101000Y13500D01*
X-101500D01*
X-101999Y13000D01*
Y12000D01*
X-101500Y11500D01*
X-99001Y16499D02*
Y14499D01*
X-100500D01*
X-100000Y15499D01*
Y15999D01*
X-100500Y16499D01*
X-101500D01*
X-101999Y15999D01*
Y14999D01*
X-101500Y14499D01*
X-83000Y11001D02*
X-82500Y10501D01*
Y9501D01*
X-83000Y9001D01*
X-85000D01*
X-85500Y9501D01*
Y10501D01*
X-85000Y11001D01*
X-83000Y12000D02*
X-82500Y12500D01*
Y13500D01*
X-83000Y14000D01*
X-83500D01*
X-84000Y13500D01*
Y13000D01*
Y13500D01*
X-84500Y14000D01*
X-85000D01*
X-85500Y13500D01*
Y12500D01*
X-85000Y12000D01*
X-85500Y16499D02*
X-82500D01*
X-84000Y14999D01*
Y16999D01*
X-91000Y65001D02*
X-90500Y64501D01*
Y63501D01*
X-91000Y63001D01*
X-93000D01*
X-93499Y63501D01*
Y64501D01*
X-93000Y65001D01*
X-91000Y66000D02*
X-90500Y66500D01*
Y67500D01*
X-91000Y68000D01*
X-91500D01*
X-92000Y67500D01*
Y67000D01*
Y67500D01*
X-92500Y68000D01*
X-93000D01*
X-93499Y67500D01*
Y66500D01*
X-93000Y66000D01*
X-91000Y68999D02*
X-90500Y69499D01*
Y70499D01*
X-91000Y70999D01*
X-91500D01*
X-92000Y70499D01*
Y69999D01*
Y70499D01*
X-92500Y70999D01*
X-93000D01*
X-93499Y70499D01*
Y69499D01*
X-93000Y68999D01*
X-78000Y65000D02*
X-77500Y64501D01*
Y63501D01*
X-78000Y63001D01*
X-80000D01*
X-80500Y63501D01*
Y64501D01*
X-80000Y65000D01*
X-78000Y66000D02*
X-77500Y66500D01*
Y67500D01*
X-78000Y68000D01*
X-78500D01*
X-79000Y67500D01*
Y67000D01*
Y67500D01*
X-79500Y68000D01*
X-80000D01*
X-80500Y67500D01*
Y66500D01*
X-80000Y66000D01*
X-80500Y68999D02*
Y69999D01*
Y69499D01*
X-77500D01*
X-78000Y68999D01*
X-105000Y65001D02*
X-104500Y64501D01*
Y63501D01*
X-105000Y63001D01*
X-107000D01*
X-107500Y63501D01*
Y64501D01*
X-107000Y65001D01*
X-105000Y66000D02*
X-104500Y66500D01*
Y67500D01*
X-105000Y68000D01*
X-105500D01*
X-106000Y67500D01*
Y67000D01*
Y67500D01*
X-106500Y68000D01*
X-107000D01*
X-107500Y67500D01*
Y66500D01*
X-107000Y66000D01*
X-105000Y68999D02*
X-104500Y69499D01*
Y70499D01*
X-105000Y70999D01*
X-107000D01*
X-107500Y70499D01*
Y69499D01*
X-107000Y68999D01*
X-105000D01*
X-111501Y48500D02*
X-111001Y49000D01*
X-110001D01*
X-109501Y48500D01*
Y46500D01*
X-110001Y46000D01*
X-111001D01*
X-111501Y46500D01*
X-114500Y46000D02*
X-112500D01*
X-114500Y48000D01*
Y48500D01*
X-114000Y49000D01*
X-113000D01*
X-112500Y48500D01*
X-115499Y46500D02*
X-115999Y46000D01*
X-116999D01*
X-117499Y46500D01*
Y48500D01*
X-116999Y49000D01*
X-115999D01*
X-115499Y48500D01*
Y48000D01*
X-115999Y47500D01*
X-117499D01*
X-76500Y11001D02*
X-76000Y10501D01*
Y9501D01*
X-76500Y9001D01*
X-78500D01*
X-79000Y9501D01*
Y10501D01*
X-78500Y11001D01*
X-79000Y14000D02*
Y12000D01*
X-77000Y14000D01*
X-76500D01*
X-76000Y13500D01*
Y12500D01*
X-76500Y12000D01*
Y14999D02*
X-76000Y15499D01*
Y16499D01*
X-76500Y16999D01*
X-77000D01*
X-77500Y16499D01*
X-78000Y16999D01*
X-78500D01*
X-79000Y16499D01*
Y15499D01*
X-78500Y14999D01*
X-78000D01*
X-77500Y15499D01*
X-77000Y14999D01*
X-76500D01*
X-77500Y15499D02*
Y16499D01*
X-105500Y10501D02*
X-105000Y10001D01*
Y9001D01*
X-105500Y8501D01*
X-107500D01*
X-108000Y9001D01*
Y10001D01*
X-107500Y10501D01*
X-108000Y13500D02*
Y11500D01*
X-106000Y13500D01*
X-105500D01*
X-105000Y13000D01*
Y12000D01*
X-105500Y11500D01*
X-105000Y14499D02*
Y16499D01*
X-105500D01*
X-107500Y14499D01*
X-108000D01*
X-112000Y10501D02*
X-111501Y10001D01*
Y9001D01*
X-112000Y8501D01*
X-114000D01*
X-114499Y9001D01*
Y10001D01*
X-114000Y10501D01*
X-114499Y13500D02*
Y11500D01*
X-112500Y13500D01*
X-112000D01*
X-111501Y13000D01*
Y12000D01*
X-112000Y11500D01*
X-111501Y16499D02*
X-112000Y15499D01*
X-113000Y14499D01*
X-114000D01*
X-114499Y14999D01*
Y15999D01*
X-114000Y16499D01*
X-113500D01*
X-113000Y15999D01*
Y14499D01*
M02*
