M48
;Layer_Color=9474304
;FILE_FORMAT=2:5
INCH,LZ
;TYPE=PLATED
T1F00S00C0.01181
T2F00S00C0.03937
T3F00S00C0.05118
%
T01
X0068Y-0103
X0092Y-0082
X00955Y-0079
X0108Y-00805
X0114173Y-0082677
X0106299Y-0094488
Y-0051181
X0114173
X0117Y-0045
X0123753
X0130507
X01355Y-0038
X01235Y-00375
X0122047Y-0059055
X0125984Y-0062992
X0094Y-0048
X00855Y-00485
Y-00515
X00815Y-0052
Y-00485
Y-0045
X00785Y-0061
X00835Y-00695
X00705Y-00545
X0072806Y-0023797
X012Y-0011
X01275Y-0017
X0125984Y0
X01145Y-00015
X01085Y0007
X0054Y-0012
X00615Y-00455
X00625Y-0057
X0059Y-0067
X0037815Y-0067769
X0033Y-00595
X0044262Y-0059458
X0016Y-00605
X00115Y-0054
X0003937Y-0059055
X-0013501Y-0059499
X-00125Y-00685
X-00205
X-0026Y-00775
Y-00825
X-00295Y-0087
X-0023Y-0096
Y-00995
X-0022Y-0114
Y-01175
X-00155
X-001Y-0114
X-0008586Y-0121914
X-00155Y-01325
X-00205Y-01385
X-0038Y-01355
X-00455Y-01365
X-0041275Y-0120225
X-0034Y-0121
X-00365Y-01075
X-0047244Y-0106299
Y-0098425
X-0055118
Y-0106299
Y-0090551
Y-0082677
Y-0074803
X-00455Y-0072
X-0038
X-0032
X-0034967Y-0059633
X-0024Y-0057
X-0046Y-0046
X-0047244Y-003937
X-0055118
X-0051181Y-0031496
X-0059055Y-0023622
X-0052Y-00145
X-00535Y-00075
X-00555Y-00005
X-00755Y00025
X-0079
X-0078Y-00075
Y-002025
Y-0033
Y-004575
Y-00585
X0009635Y-0071429
X00155Y-0072
X00255Y-0083
X00325Y-0079
X0032072Y-0089811
X0035615Y-0089811
X0035517Y-0093452
X0032072Y-0093452
X0035Y-0111
X00115Y-01135
Y-01185
X0008699Y-0100022
X0Y-0095
X00095Y-0139
X00205Y-0135
X0031Y-01395
X0054Y-00935
X-01035Y-0058
Y-0045125
Y-003225
Y-0019375
Y-00065
X-01045Y00025
X-0101
X-01435Y-00025
X-01295Y-00375
X-012Y-0048
X-0129Y-0058
X-0122Y-00655
X-01065Y00165
X-0102
X-00955Y0027
X-0112Y0033
Y0036333
Y0039667
Y0043
X-0112206Y0047294
X-01065Y00635
X-0101
X-00845
X-00765
X-0073Y00595
X-0068898Y0062992
X-0067Y00525
X-0068726Y0046205
Y004018
X-0067Y00355
X-0068726Y0031
X-00705Y00275
X-00685Y0024
X-0078Y0031
X-0084
Y0041
X-00845Y0047
X-00915Y0046
X-00905Y00355
X-0084Y00165
X-0078
X-00535Y0012
X-0048Y0024
X-0055Y0049
X-00525Y0053
X-0061Y00675
X-00415Y00735
X-0036Y0081
X-0031Y0068
X-0027
X-0011Y00635
X001Y00645
X00255Y0052
X0038Y0056
X0046Y00455
X00435Y0034
X0051Y0022
X00235Y0096
X00255Y0119
X0039Y01365
X0056169Y0121832
X0063715Y0121688
X-0012Y0127
X-0029Y01225
X-0032Y0129
X-00335Y0117
X-0037Y0113
X-0029Y00925
X-00455Y00905
X-00495Y00915
X-0063Y0116
X-00555Y0132
X-0082Y0101
X-0086Y00825
X-00115Y00955
X00005Y01405
X-0029528Y0047244
X0097Y0054
X0102Y00575
X0105Y0047
X0112Y00395
X01125Y0015
X0106Y00125
X01
X0122047Y0007874
X0126Y00155
X0085Y00905
X0077Y01005
T02
X0065419Y-0068919
X0037581Y-0041081
X-0096429Y0097571
X-01035Y00905
X-0110571Y0083429
T03
X004134Y-01335
X005Y-01285
X-0136Y-0018
Y-0008
X-0136Y0002
X-0136Y0012
X-0136Y0022
X-0136Y0032
X-0075Y0083
X-0075Y0093
X-00645Y0093
X-00645Y0083
X-0065Y01045
X-0055
X0039965Y0103293
X0039965Y0113293
X0039965Y0091793
X0049965
X0060465
X0023202Y008132
X0023202Y007132
X0063632Y0026693
X0063632Y0016693
X0070465Y0091793
M30
