M48
;Layer_Color=9474304
;FILE_FORMAT=2:5
INCH,LZ
;TYPE=PLATED
T1F00S00C0.00787
T2F00S00C0.01496
%
T01
X-0059854Y-0071279
X-005198
X-0044106
X-0036232
X-0028358
X-0020484
X-001261
X-0008673Y-0063405
X-0016547
X-0024421
X-0032295
X-0040169
X-0048043
X-0055917
X-0063791
X-0059854Y-0055531
X-005198
X-0044106
X-0036232
X-0028358
X-0020484
X-001261
X-0004736
X0007075Y-0063405
X0014949
X0022823
X0030697
X0038571
X0046445
X0054319
X0062193
X0070067
X0074004Y-0055531
X006613
X0058256
X0050382
X0042508
X0034634
X002676
X0018886
Y-0071279
X002676
X0034634
X0042508
X0050382
X0058256
X0046445Y-0079153
X0038571
X0030697
X0022823
X0014949
X0007075
X0011012Y-0071279
Y-0087027
X0018886
X002676
X0034634
X0003138
X-0004736
X-001261
X-0020484
X-0028358
X-0036232
X-0032295Y-0079153
X-0024421
X-0016547
X-0008673
Y-0094902
X0007075
X-0040169Y-0079153
X-0048043
X-0067728Y-0055531
X-0075602
X-0071665Y0054705
X-0063791
X-0055917
X-0048043
X-0040169
X-0032295
X-0024421
X-0016547
X-001261Y0062579
X-0020484
X-0028358
X-0036232
X-0044106
X-005198
X-0059854
X-0067728
X-0063791Y0070453
X-0055917
X-0048043
X-0040169
X-0032295
X-0024421
X-0016547
X-001261Y0078327
X-0004736
X-0000799Y0086201
X0007075
X0014949
X0022823
X0030697
X0038571
X0042508Y0078327
X0050382
X0054319Y0070453
X0062193
X006613Y0062579
X0058256
X0050382
X0042508
X0034634
X002676
X0018886
X0011012
X0014949Y0070453
X0022823
X0030697
X0038571
X0046445
Y0054705
X0054319
X0062193
X0070067
X0038571
X0030697
X0022823
X0014949
X0007075
X0011012Y0078327
X0018886
X002676
X0034634
X-0008673Y0086201
X-0016547
X-0024421
X-0032295
X-0040169
X-0036232Y0078327
X-0028358
X-0020484
X-0044106
X-005198
X0077941Y0054705
T02
X-0070866Y0003937
X-0062992Y0003937
X-0055118Y0003937
X-0047244Y0003937
X-003937Y0003937
X-0031496Y0003937
X-0023622Y0003937
X-0015748Y0003937
X-0007874Y0003937
X-0Y0003937
X0Y-0003937
X0007874Y-0003937
X0015748Y-0003937
X0023622Y-0003937
X0031496Y-0003937
X003937Y-0003937
X0047244Y-0003937
X0055118Y-0003937
X0062992Y-0003937
X0070866Y-0003937
Y-0023622
X0062992Y-0023622
X0055118Y-0023622
X0047244Y-0023622
X003937Y-0023622
X0031496Y-0023622
X0023622Y-0023622
X0015748Y-0023622
X0007874Y-0023622
X-0007874Y0023622
X-0015748Y0023622
X-0023622Y0023622
X-0031496Y0023622
X-003937Y0023622
X-0047244Y0023622
X-0055118Y0023622
X-0062992Y0023622
X-0070866Y0023622
M30
