M48
;Layer_Color=9474304
;FILE_FORMAT=2:5
INCH,LZ
;TYPE=PLATED
T1F00S00C0.00787
%
T01
X-005198Y-007128
X-0040169
X-0028358
X-0016547
X-0010642Y-0059469
X-0022453
X-0034264
X-0046075
X-0057886
X-0034264Y-0083091
X-0022453
X-0010642
X0001169
X001298
X0024791
X0036602
X0042508Y-007128
X0054319
X0060224Y-0059469
X0048413
X0043307Y-0059055
X0036602Y-0059469
X0024791
X001298
X0018886Y-007128
X0030697
X0002362Y-0043307
X-0002362Y-0043701
X-0002756Y-003622
X0002756Y-002874
X-0002756Y-0020472
X-0002756Y-0011024
X0005512Y-0016535
X0015354Y-0011024
X0025984Y-0016142
X0037008Y-0011024
X0052362Y-0011024
X0047244Y-0016535
X0062598Y-0016535
X0067323Y-0011024
X0068504Y-0004331
X0073622Y0001969
X0058661Y0003937
X0034252Y0003543
X0003937Y000315
X-0035039
X-0061417Y0002756
X-0073622Y000315
X0073622Y-0016535
X0070472Y0009055
X0073228Y0022835
X0068504Y0030709
X0073622Y0041339
X0068504Y0047638
X0055512Y004252
X0050394Y002874
X0056693Y0022835
X0036614
X0025984Y002874
X0022835Y0042126
X0008661Y0048425
X-0009449Y0042126
Y0022835
X-0002362Y0028346
X-0019291Y002874
X-0025591Y0022441
X-0034646Y002874
X-0038189Y0042126
X-0053937Y0048031
X-0065748Y004252
X-0071653Y0047638
X-0070866Y002874
X-0073622Y0022047
X-0067323Y0022441
X-0067716Y0011417
X-0051181Y0008661
X-0046063Y0022441
X-0056299Y0028346
X-0022835Y0048425
X-0012205Y0009055
X0023228Y0008661
X0011811Y0022441
X0048031Y0009055
X0038976Y0048031
M30
