G04*
G04 #@! TF.GenerationSoftware,Altium Limited,Altium Designer,21.1.1 (26)*
G04*
G04 Layer_Color=65535*
%FSLAX25Y25*%
%MOIN*%
G70*
G04*
G04 #@! TF.SameCoordinates,A007A2E6-7F3F-4EDA-8956-8A6C2462A32F*
G04*
G04*
G04 #@! TF.FilePolarity,Positive*
G04*
G01*
G75*
%ADD10C,0.00591*%
%ADD11C,0.01000*%
D10*
X-2700Y-61302D02*
X-2700Y-57113D01*
X-2700Y-61302D02*
X2700Y-61302D01*
Y-57202D01*
Y-55092D02*
X2700Y-50902D01*
X-2700Y-50902D02*
X2700Y-50902D01*
X-2700Y-55002D02*
X-2700Y-50902D01*
X10853Y-61755D02*
X15043Y-61755D01*
X15043Y-56355D02*
X15043Y-61755D01*
X10943Y-56355D02*
X15043D01*
X4642Y-56355D02*
X8832Y-56355D01*
X4642Y-56355D02*
X4642Y-61755D01*
X8743Y-61755D01*
X-8832Y56355D02*
X-4642Y56355D01*
X-4642Y61755D02*
X-4642Y56355D01*
X-8743Y61755D02*
X-4642D01*
X-15043Y61755D02*
X-10853Y61755D01*
X-15043Y61755D02*
X-15043Y56355D01*
X-10943Y56355D01*
X10853Y-55850D02*
X15043Y-55850D01*
X15043Y-50450D02*
X15043Y-55850D01*
X10943Y-50450D02*
X15043D01*
X4642Y-50450D02*
X8832Y-50450D01*
X4642Y-50450D02*
X4642Y-55850D01*
X8743Y-55850D01*
X-15043Y55850D02*
X-10853D01*
X-15043Y50450D02*
Y55850D01*
Y50450D02*
X-10943D01*
X-8832D02*
X-4642Y50450D01*
X-4642Y55850D02*
X-4642Y50450D01*
X-8743Y55850D02*
X-4642D01*
X-2700Y50902D02*
X-2700Y55092D01*
X-2700Y50902D02*
X2700Y50902D01*
Y55002D01*
Y57113D02*
X2700Y61302D01*
X-2700Y61302D02*
X2700Y61302D01*
X-2700Y57202D02*
X-2700Y61302D01*
D11*
X4800Y-64266D02*
X5800Y-65466D01*
X-5800Y65466D02*
X-4800Y64266D01*
X-8858Y-54103D02*
X-9858Y-53103D01*
X-11857D01*
X-12857Y-54103D01*
Y-58102D01*
X-11857Y-59101D01*
X-9858D01*
X-8858Y-58102D01*
X-6859Y-59101D02*
X-4860D01*
X-5859D01*
Y-53103D01*
X-6859Y-54103D01*
X-1Y-82102D02*
X-2001D01*
X-1001D01*
Y-87100D01*
X-2001Y-88100D01*
X-3000D01*
X-4000Y-87100D01*
X1998Y-88100D02*
X3997D01*
X2998D01*
Y-82102D01*
X1998Y-83102D01*
X21638Y-59024D02*
X20639Y-58025D01*
X18639D01*
X17639Y-59024D01*
Y-63023D01*
X18639Y-64023D01*
X20639D01*
X21638Y-63023D01*
X27636Y-64023D02*
X23638D01*
X27636Y-60024D01*
Y-59024D01*
X26636Y-58025D01*
X24637D01*
X23638Y-59024D01*
X-23638Y63023D02*
X-24637Y64023D01*
X-26636D01*
X-27636Y63023D01*
Y59024D01*
X-26636Y58025D01*
X-24637D01*
X-23638Y59024D01*
X-18639Y58025D02*
Y64023D01*
X-21638Y61024D01*
X-17639D01*
X17655Y-47198D02*
Y-53196D01*
X21654D01*
X23653D02*
X25652D01*
X24653D01*
Y-47198D01*
X23653Y-48197D01*
X-27636Y54180D02*
Y48182D01*
X-23638D01*
X-17639D02*
X-21638D01*
X-17639Y52181D01*
Y53180D01*
X-18639Y54180D01*
X-20638D01*
X-21638Y53180D01*
X10811Y58102D02*
X9812Y59101D01*
X7812D01*
X6813Y58102D01*
Y54103D01*
X7812Y53103D01*
X9812D01*
X10811Y54103D01*
X12811Y58102D02*
X13810Y59101D01*
X15810D01*
X16809Y58102D01*
Y57102D01*
X15810Y56102D01*
X14810D01*
X15810D01*
X16809Y55103D01*
Y54103D01*
X15810Y53103D01*
X13810D01*
X12811Y54103D01*
X-3301Y88098D02*
X-5301D01*
X-4301D01*
Y83100D01*
X-5301Y82100D01*
X-6300D01*
X-7300Y83100D01*
X2697Y82100D02*
X-1302D01*
X2697Y86099D01*
Y87098D01*
X1697Y88098D01*
X-302D01*
X-1302Y87098D01*
M02*
