G04*
G04 #@! TF.GenerationSoftware,Altium Limited,Altium Designer,21.1.1 (26)*
G04*
G04 Layer_Color=128*
%FSLAX25Y25*%
%MOIN*%
G70*
G04*
G04 #@! TF.SameCoordinates,7A05D8F9-2D1E-47E3-85F5-EF5A82BF1A89*
G04*
G04*
G04 #@! TF.FilePolarity,Positive*
G04*
G01*
G75*
%ADD10C,0.00500*%
%ADD11C,0.00200*%
D10*
X118110Y-1D02*
G03*
X118110Y-1I-118110J0D01*
G01*
X115157D02*
G03*
X115157Y-1I-4921J0D01*
G01*
X4921Y110235D02*
G03*
X4921Y110235I-4921J0D01*
G01*
X-105315Y-1D02*
G03*
X-105315Y-1I-4921J0D01*
G01*
X4921Y-110237D02*
G03*
X4921Y-110237I-4921J0D01*
G01*
D11*
X77548Y54705D02*
X78335D01*
X77941Y54311D02*
Y55099D01*
X69674Y54705D02*
X70461D01*
X70067Y54311D02*
Y55099D01*
X61800Y70453D02*
X62587D01*
X62193Y70059D02*
Y70847D01*
X65737Y62579D02*
X66524D01*
X66130Y62185D02*
Y62973D01*
X61800Y54705D02*
X62587D01*
X62193Y54311D02*
Y55099D01*
X53925Y70453D02*
X54713D01*
X54319Y70059D02*
Y70847D01*
X57863Y62579D02*
X58650D01*
X58256Y62185D02*
Y62973D01*
X53925Y54705D02*
X54713D01*
X54319Y54311D02*
Y55099D01*
X49988Y78327D02*
X50776D01*
X50382Y77933D02*
Y78721D01*
X46051Y70453D02*
X46839D01*
X46445Y70059D02*
Y70847D01*
X49988Y62579D02*
X50776D01*
X50382Y62185D02*
Y62973D01*
X46051Y54705D02*
X46839D01*
X46445Y54311D02*
Y55099D01*
X38177Y86201D02*
X38965D01*
X38571Y85807D02*
Y86595D01*
X42114Y78327D02*
X42902D01*
X42508Y77933D02*
Y78721D01*
X38177Y70453D02*
X38965D01*
X38571Y70059D02*
Y70847D01*
X42114Y62579D02*
X42902D01*
X42508Y62185D02*
Y62973D01*
X38177Y54705D02*
X38965D01*
X38571Y54311D02*
Y55099D01*
X30303Y86201D02*
X31091D01*
X30697Y85807D02*
Y86595D01*
X34240Y78327D02*
X35028D01*
X34634Y77933D02*
Y78721D01*
X30303Y70453D02*
X31091D01*
X30697Y70059D02*
Y70847D01*
X34240Y62579D02*
X35028D01*
X34634Y62185D02*
Y62973D01*
X30303Y54705D02*
X31091D01*
X30697Y54311D02*
Y55099D01*
X22429Y86201D02*
X23217D01*
X22823Y85807D02*
Y86595D01*
X26366Y78327D02*
X27154D01*
X26760Y77933D02*
Y78721D01*
X22429Y70453D02*
X23217D01*
X22823Y70059D02*
Y70847D01*
X26366Y62579D02*
X27154D01*
X26760Y62185D02*
Y62973D01*
X22429Y54705D02*
X23217D01*
X22823Y54311D02*
Y55099D01*
X14555Y86201D02*
X15343D01*
X14949Y85807D02*
Y86595D01*
X18492Y78327D02*
X19280D01*
X18886Y77933D02*
Y78721D01*
X14555Y70453D02*
X15343D01*
X14949Y70059D02*
Y70847D01*
X18492Y62579D02*
X19280D01*
X18886Y62185D02*
Y62973D01*
X14555Y54705D02*
X15343D01*
X14949Y54311D02*
Y55099D01*
X6681Y86201D02*
X7469D01*
X7075Y85807D02*
Y86595D01*
X10618Y78327D02*
X11406D01*
X11012Y77933D02*
Y78721D01*
X10618Y62579D02*
X11406D01*
X11012Y62185D02*
Y62973D01*
X6681Y54705D02*
X7469D01*
X7075Y54311D02*
Y55099D01*
X-1193Y86201D02*
X-405D01*
X-799Y85807D02*
Y86595D01*
X-9067Y86201D02*
X-8279D01*
X-8673Y85807D02*
Y86595D01*
X-5130Y78327D02*
X-4342D01*
X-4736Y77933D02*
Y78721D01*
X-16941Y86201D02*
X-16153D01*
X-16547Y85807D02*
Y86595D01*
X-13004Y78327D02*
X-12216D01*
X-12610Y77933D02*
Y78721D01*
X-16941Y70453D02*
X-16153D01*
X-16547Y70059D02*
Y70847D01*
X-13004Y62579D02*
X-12216D01*
X-12610Y62185D02*
Y62973D01*
X-16941Y54705D02*
X-16153D01*
X-16547Y54311D02*
Y55099D01*
X-24815Y86201D02*
X-24027D01*
X-24421Y85807D02*
Y86595D01*
X-20878Y78327D02*
X-20090D01*
X-20484Y77933D02*
Y78721D01*
X-24815Y70453D02*
X-24027D01*
X-24421Y70059D02*
Y70847D01*
X-20878Y62579D02*
X-20090D01*
X-20484Y62185D02*
Y62973D01*
X-24815Y54705D02*
X-24027D01*
X-24421Y54311D02*
Y55099D01*
X-32689Y86201D02*
X-31901D01*
X-32295Y85807D02*
Y86595D01*
X-28752Y78327D02*
X-27964D01*
X-28358Y77933D02*
Y78721D01*
X-32689Y70453D02*
X-31901D01*
X-32295Y70059D02*
Y70847D01*
X-28752Y62579D02*
X-27964D01*
X-28358Y62185D02*
Y62973D01*
X-32689Y54705D02*
X-31901D01*
X-32295Y54311D02*
Y55099D01*
X-40563Y86201D02*
X-39775D01*
X-40169Y85807D02*
Y86595D01*
X-36626Y78327D02*
X-35838D01*
X-36232Y77933D02*
Y78721D01*
X-40563Y70453D02*
X-39775D01*
X-40169Y70059D02*
Y70847D01*
X-36626Y62579D02*
X-35838D01*
X-36232Y62185D02*
Y62973D01*
X-40563Y54705D02*
X-39775D01*
X-40169Y54311D02*
Y55099D01*
X-44500Y78327D02*
X-43712D01*
X-44106Y77933D02*
Y78721D01*
X-48437Y70453D02*
X-47649D01*
X-48043Y70059D02*
Y70847D01*
X-44500Y62579D02*
X-43712D01*
X-44106Y62185D02*
Y62973D01*
X-48437Y54705D02*
X-47649D01*
X-48043Y54311D02*
Y55099D01*
X-52374Y78327D02*
X-51586D01*
X-51980Y77933D02*
Y78721D01*
X-56311Y70453D02*
X-55523D01*
X-55917Y70059D02*
Y70847D01*
X-52374Y62579D02*
X-51586D01*
X-51980Y62185D02*
Y62973D01*
X-56311Y54705D02*
X-55523D01*
X-55917Y54311D02*
Y55099D01*
X-64185Y70453D02*
X-63398D01*
X-63791Y70059D02*
Y70847D01*
X-60248Y62579D02*
X-59461D01*
X-59854Y62185D02*
Y62973D01*
X-64185Y54705D02*
X-63398D01*
X-63791Y54311D02*
Y55099D01*
X-68122Y62579D02*
X-67335D01*
X-67728Y62185D02*
Y62973D01*
X-72059Y54705D02*
X-71272D01*
X-71665Y54311D02*
Y55099D01*
X73611Y-55531D02*
X74398D01*
X74004Y-55925D02*
Y-55138D01*
X69674Y-63405D02*
X70461D01*
X70067Y-63799D02*
Y-63012D01*
X65737Y-55531D02*
X66524D01*
X66130Y-55925D02*
Y-55138D01*
X61800Y-63405D02*
X62587D01*
X62193Y-63799D02*
Y-63012D01*
X57863Y-55531D02*
X58650D01*
X58256Y-55925D02*
Y-55138D01*
X53925Y-63405D02*
X54713D01*
X54319Y-63799D02*
Y-63012D01*
X57863Y-71279D02*
X58650D01*
X58256Y-71673D02*
Y-70886D01*
X49988Y-55531D02*
X50776D01*
X50382Y-55925D02*
Y-55138D01*
X46051Y-63405D02*
X46839D01*
X46445Y-63799D02*
Y-63012D01*
X49988Y-71279D02*
X50776D01*
X50382Y-71673D02*
Y-70886D01*
X46051Y-79153D02*
X46839D01*
X46445Y-79547D02*
Y-78760D01*
X42114Y-55531D02*
X42902D01*
X42508Y-55925D02*
Y-55138D01*
X38177Y-63405D02*
X38965D01*
X38571Y-63799D02*
Y-63012D01*
X42114Y-71279D02*
X42902D01*
X42508Y-71673D02*
Y-70886D01*
X38177Y-79153D02*
X38965D01*
X38571Y-79547D02*
Y-78760D01*
X34240Y-55531D02*
X35028D01*
X34634Y-55925D02*
Y-55138D01*
X30303Y-63405D02*
X31091D01*
X30697Y-63799D02*
Y-63012D01*
X34240Y-71279D02*
X35028D01*
X34634Y-71673D02*
Y-70886D01*
X30303Y-79153D02*
X31091D01*
X30697Y-79547D02*
Y-78760D01*
X34240Y-87027D02*
X35028D01*
X34634Y-87421D02*
Y-86634D01*
X26366Y-55531D02*
X27154D01*
X26760Y-55925D02*
Y-55138D01*
X22429Y-63405D02*
X23217D01*
X22823Y-63799D02*
Y-63012D01*
X26366Y-71279D02*
X27154D01*
X26760Y-71673D02*
Y-70886D01*
X22429Y-79153D02*
X23217D01*
X22823Y-79547D02*
Y-78760D01*
X26366Y-87027D02*
X27154D01*
X26760Y-87421D02*
Y-86634D01*
X18492Y-55531D02*
X19280D01*
X18886Y-55925D02*
Y-55138D01*
X14555Y-63405D02*
X15343D01*
X14949Y-63799D02*
Y-63012D01*
X18492Y-71279D02*
X19280D01*
X18886Y-71673D02*
Y-70886D01*
X14555Y-79153D02*
X15343D01*
X14949Y-79547D02*
Y-78760D01*
X18492Y-87027D02*
X19280D01*
X18886Y-87421D02*
Y-86634D01*
X6681Y-63405D02*
X7469D01*
X7075Y-63799D02*
Y-63012D01*
X10618Y-71279D02*
X11406D01*
X11012Y-71673D02*
Y-70886D01*
X6681Y-79153D02*
X7469D01*
X7075Y-79547D02*
Y-78760D01*
X10618Y-87027D02*
X11406D01*
X11012Y-87421D02*
Y-86634D01*
X6681Y-94902D02*
X7469D01*
X7075Y-95295D02*
Y-94508D01*
X2744Y-87027D02*
X3532D01*
X3138Y-87421D02*
Y-86634D01*
X-5130Y-55531D02*
X-4342D01*
X-4736Y-55925D02*
Y-55138D01*
X-9067Y-63405D02*
X-8279D01*
X-8673Y-63799D02*
Y-63012D01*
X-9067Y-79153D02*
X-8279D01*
X-8673Y-79547D02*
Y-78760D01*
X-5130Y-87027D02*
X-4342D01*
X-4736Y-87421D02*
Y-86634D01*
X-9067Y-94902D02*
X-8279D01*
X-8673Y-95295D02*
Y-94508D01*
X-13004Y-55531D02*
X-12216D01*
X-12610Y-55925D02*
Y-55138D01*
X-16941Y-63405D02*
X-16153D01*
X-16547Y-63799D02*
Y-63012D01*
X-13004Y-71279D02*
X-12216D01*
X-12610Y-71673D02*
Y-70886D01*
X-16941Y-79153D02*
X-16153D01*
X-16547Y-79547D02*
Y-78760D01*
X-13004Y-87027D02*
X-12216D01*
X-12610Y-87421D02*
Y-86634D01*
X-20878Y-55531D02*
X-20090D01*
X-20484Y-55925D02*
Y-55138D01*
X-24815Y-63405D02*
X-24027D01*
X-24421Y-63799D02*
Y-63012D01*
X-20878Y-71279D02*
X-20090D01*
X-20484Y-71673D02*
Y-70886D01*
X-24815Y-79153D02*
X-24027D01*
X-24421Y-79547D02*
Y-78760D01*
X-20878Y-87027D02*
X-20090D01*
X-20484Y-87421D02*
Y-86634D01*
X-28752Y-55531D02*
X-27964D01*
X-28358Y-55925D02*
Y-55138D01*
X-32689Y-63405D02*
X-31901D01*
X-32295Y-63799D02*
Y-63012D01*
X-28752Y-71279D02*
X-27964D01*
X-28358Y-71673D02*
Y-70886D01*
X-32689Y-79153D02*
X-31901D01*
X-32295Y-79547D02*
Y-78760D01*
X-28752Y-87027D02*
X-27964D01*
X-28358Y-87421D02*
Y-86634D01*
X-36626Y-55531D02*
X-35838D01*
X-36232Y-55925D02*
Y-55138D01*
X-40563Y-63405D02*
X-39775D01*
X-40169Y-63799D02*
Y-63012D01*
X-36626Y-71279D02*
X-35838D01*
X-36232Y-71673D02*
Y-70886D01*
X-40563Y-79153D02*
X-39775D01*
X-40169Y-79547D02*
Y-78760D01*
X-36626Y-87027D02*
X-35838D01*
X-36232Y-87421D02*
Y-86634D01*
X-44500Y-55531D02*
X-43712D01*
X-44106Y-55925D02*
Y-55138D01*
X-48437Y-63405D02*
X-47649D01*
X-48043Y-63799D02*
Y-63012D01*
X-44500Y-71279D02*
X-43712D01*
X-44106Y-71673D02*
Y-70886D01*
X-48437Y-79153D02*
X-47649D01*
X-48043Y-79547D02*
Y-78760D01*
X-52374Y-55531D02*
X-51586D01*
X-51980Y-55925D02*
Y-55138D01*
X-56311Y-63405D02*
X-55523D01*
X-55917Y-63799D02*
Y-63012D01*
X-52374Y-71279D02*
X-51586D01*
X-51980Y-71673D02*
Y-70886D01*
X-60248Y-55531D02*
X-59461D01*
X-59854Y-55925D02*
Y-55138D01*
X-64185Y-63405D02*
X-63398D01*
X-63791Y-63799D02*
Y-63012D01*
X-60248Y-71279D02*
X-59461D01*
X-59854Y-71673D02*
Y-70886D01*
X-68122Y-55531D02*
X-67335D01*
X-67728Y-55925D02*
Y-55138D01*
X-75996Y-55531D02*
X-75208D01*
X-75602Y-55925D02*
Y-55138D01*
X7126Y-23622D02*
X8622D01*
X7874Y-24370D02*
Y-22874D01*
X7126Y-3937D02*
X8622D01*
X7874Y-4685D02*
Y-3189D01*
X-748Y-3937D02*
X748D01*
X0Y-4685D02*
Y-3189D01*
X15000Y-23622D02*
X16496D01*
X15748Y-24370D02*
Y-22874D01*
X15000Y-3937D02*
X16496D01*
X15748Y-4685D02*
Y-3189D01*
X22874Y-23622D02*
X24370D01*
X23622Y-24370D02*
Y-22874D01*
X22874Y-3937D02*
X24370D01*
X23622Y-4685D02*
Y-3189D01*
X30748Y-23622D02*
X32244D01*
X31496Y-24370D02*
Y-22874D01*
X30748Y-3937D02*
X32244D01*
X31496Y-4685D02*
Y-3189D01*
X38622Y-23622D02*
X40118D01*
X39370Y-24370D02*
Y-22874D01*
X38622Y-3937D02*
X40118D01*
X39370Y-4685D02*
Y-3189D01*
X46496Y-23622D02*
X47992D01*
X47244Y-24370D02*
Y-22874D01*
X46496Y-3937D02*
X47992D01*
X47244Y-4685D02*
Y-3189D01*
X54370Y-23622D02*
X55866D01*
X55118Y-24370D02*
Y-22874D01*
X54370Y-3937D02*
X55866D01*
X55118Y-4685D02*
Y-3189D01*
X62244Y-23622D02*
X63740D01*
X62992Y-24370D02*
Y-22874D01*
X62244Y-3937D02*
X63740D01*
X62992Y-4685D02*
Y-3189D01*
X70118Y-23622D02*
X71614D01*
X70866Y-24370D02*
Y-22874D01*
X70118Y-3937D02*
X71614D01*
X70866Y-4685D02*
Y-3189D01*
X-8622Y23622D02*
X-7126D01*
X-7874Y22874D02*
Y24370D01*
X-8622Y3937D02*
X-7126D01*
X-7874Y3189D02*
Y4685D01*
X-748Y3937D02*
X748D01*
X-0Y3189D02*
Y4685D01*
X-16496Y23622D02*
X-15000D01*
X-15748Y22874D02*
Y24370D01*
X-16496Y3937D02*
X-15000D01*
X-15748Y3189D02*
Y4685D01*
X-24370Y23622D02*
X-22874D01*
X-23622Y22874D02*
Y24370D01*
X-24370Y3937D02*
X-22874D01*
X-23622Y3189D02*
Y4685D01*
X-32244Y23622D02*
X-30748D01*
X-31496Y22874D02*
Y24370D01*
X-32244Y3937D02*
X-30748D01*
X-31496Y3189D02*
Y4685D01*
X-40118Y23622D02*
X-38622D01*
X-39370Y22874D02*
Y24370D01*
X-40118Y3937D02*
X-38622D01*
X-39370Y3189D02*
Y4685D01*
X-47992Y23622D02*
X-46496D01*
X-47244Y22874D02*
Y24370D01*
X-47992Y3937D02*
X-46496D01*
X-47244Y3189D02*
Y4685D01*
X-55866Y23622D02*
X-54370D01*
X-55118Y22874D02*
Y24370D01*
X-55866Y3937D02*
X-54370D01*
X-55118Y3189D02*
Y4685D01*
X-63740Y23622D02*
X-62244D01*
X-62992Y22874D02*
Y24370D01*
X-63740Y3937D02*
X-62244D01*
X-62992Y3189D02*
Y4685D01*
X-71614Y23622D02*
X-70118D01*
X-70866Y22874D02*
Y24370D01*
X-71614Y3937D02*
X-70118D01*
X-70866Y3189D02*
Y4685D01*
M02*
