G04*
G04 #@! TF.GenerationSoftware,Altium Limited,Altium Designer,21.1.1 (26)*
G04*
G04 Layer_Physical_Order=1*
G04 Layer_Color=255*
%FSLAX25Y25*%
%MOIN*%
G70*
G04*
G04 #@! TF.SameCoordinates,A007A2E6-7F3F-4EDA-8956-8A6C2462A32F*
G04*
G04*
G04 #@! TF.FilePolarity,Positive*
G04*
G01*
G75*
%ADD12R,0.02953X0.03937*%
%ADD13R,0.04134X0.08661*%
%ADD14R,0.03937X0.03937*%
%ADD15R,0.03937X0.02953*%
%ADD21O,0.03937X0.47244*%
%ADD22O,0.03937X0.23622*%
%ADD23C,0.03937*%
%ADD24R,0.09843X0.03937*%
%ADD25R,0.03937X0.07874*%
%ADD26R,0.03937X0.06890*%
%ADD27C,0.01772*%
G36*
X-2994Y-47244D02*
X-2988Y-47290D01*
Y-51181D01*
Y-54650D01*
X-2988Y-55118D01*
X-2968Y-55626D01*
X-2968Y-56579D01*
X-2968Y-56579D01*
Y-56988D01*
X-2988Y-57087D01*
Y-62992D01*
X-3937D01*
Y-68898D01*
X3937D01*
Y-62992D01*
X3937D01*
X4022Y-62043D01*
X7874D01*
X7972Y-62024D01*
X9366D01*
Y-61024D01*
X11811D01*
Y-51181D01*
X11811Y-51181D01*
X9366D01*
Y-50181D01*
X7973D01*
X7874Y-50161D01*
X2988D01*
Y-48226D01*
X3953Y-47244D01*
X105105D01*
X105640Y-48070D01*
X104608Y-50377D01*
X101619Y-56163D01*
X98310Y-61773D01*
X94691Y-67188D01*
X90775Y-72392D01*
X86573Y-77368D01*
X82099Y-82100D01*
X77367Y-86574D01*
X72391Y-90776D01*
X67187Y-94692D01*
X61772Y-98311D01*
X56163Y-101619D01*
X50376Y-104609D01*
X44432Y-107269D01*
X38347Y-109591D01*
X32142Y-111569D01*
X25836Y-113196D01*
X19448Y-114466D01*
X15046Y-115088D01*
X14263Y-114204D01*
X14658Y-112558D01*
X14841Y-110236D01*
X14658Y-107915D01*
X14115Y-105650D01*
X13223Y-103498D01*
X12007Y-101513D01*
X10494Y-99742D01*
X8723Y-98230D01*
X6738Y-97013D01*
X4586Y-96122D01*
X2322Y-95578D01*
X0Y-95395D01*
X-2322Y-95578D01*
X-4586Y-96122D01*
X-6738Y-97013D01*
X-8723Y-98230D01*
X-10494Y-99742D01*
X-12007Y-101513D01*
X-13223Y-103498D01*
X-14115Y-105650D01*
X-14658Y-107915D01*
X-14841Y-110236D01*
X-14658Y-112558D01*
X-14263Y-114204D01*
X-15046Y-115088D01*
X-19448Y-114466D01*
X-25836Y-113196D01*
X-32142Y-111569D01*
X-38347Y-109591D01*
X-44432Y-107269D01*
X-50376Y-104609D01*
X-56163Y-101619D01*
X-61772Y-98311D01*
X-67187Y-94692D01*
X-72391Y-90776D01*
X-77367Y-86574D01*
X-82099Y-82100D01*
X-86573Y-77368D01*
X-90775Y-72392D01*
X-94691Y-67188D01*
X-98310Y-61773D01*
X-101619Y-56163D01*
X-104608Y-50377D01*
X-105640Y-48070D01*
X-105105Y-47244D01*
X-2994D01*
D02*
G37*
G36*
X19448Y114465D02*
X25836Y113194D01*
X32142Y111567D01*
X38347Y109590D01*
X44432Y107267D01*
X50376Y104607D01*
X56163Y101618D01*
X61772Y98309D01*
X67187Y94691D01*
X72391Y90775D01*
X77367Y86573D01*
X82099Y82099D01*
X86573Y77366D01*
X90775Y72390D01*
X94691Y67186D01*
X98310Y61771D01*
X101619Y56162D01*
X104608Y50376D01*
X105640Y48070D01*
X105104Y47244D01*
X2994D01*
Y47244D01*
X2988Y47290D01*
Y53150D01*
X2988Y53150D01*
Y54650D01*
X2988Y55118D01*
X2968Y55626D01*
X2968Y56579D01*
X2968Y56579D01*
Y56988D01*
X2988Y57087D01*
Y58071D01*
X2988Y58071D01*
Y62992D01*
X3937D01*
X3937Y68898D01*
X-3937D01*
X-3937Y63028D01*
X-4022Y62043D01*
X-7874D01*
X-7972Y62024D01*
X-9366D01*
Y61024D01*
X-11811D01*
X-11811Y51181D01*
X-11811Y51181D01*
X-9366Y51181D01*
Y50181D01*
X-7973D01*
X-7874Y50161D01*
X-2988D01*
Y47290D01*
X-2994Y47244D01*
Y47244D01*
X-105104D01*
X-105640Y48070D01*
X-104608Y50376D01*
X-101619Y56162D01*
X-98310Y61771D01*
X-94691Y67186D01*
X-90775Y72390D01*
X-86573Y77366D01*
X-82099Y82099D01*
X-77367Y86573D01*
X-72391Y90775D01*
X-67187Y94691D01*
X-61772Y98309D01*
X-56163Y101618D01*
X-50376Y104607D01*
X-44432Y107267D01*
X-38347Y109590D01*
X-32142Y111567D01*
X-25836Y113194D01*
X-19448Y114465D01*
X-15047Y115086D01*
X-14263Y114203D01*
X-14658Y112558D01*
X-14841Y110236D01*
X-14658Y107915D01*
X-14115Y105650D01*
X-13223Y103498D01*
X-12007Y101513D01*
X-10494Y99742D01*
X-8723Y98230D01*
X-6738Y97013D01*
X-4586Y96122D01*
X-2322Y95578D01*
X0Y95395D01*
X2322Y95578D01*
X4586Y96122D01*
X6738Y97013D01*
X8723Y98230D01*
X10494Y99742D01*
X12007Y101513D01*
X13223Y103498D01*
X14115Y105650D01*
X14658Y107915D01*
X14841Y110236D01*
X14658Y112558D01*
X14263Y114203D01*
X15047Y115086D01*
X19448Y114465D01*
D02*
G37*
D12*
X12795Y-59055D02*
D03*
Y-53150D02*
D03*
X-12795Y53150D02*
D03*
Y59055D02*
D03*
X6890Y-59055D02*
D03*
X-6890Y59055D02*
D03*
X6890Y-53150D02*
D03*
X-6890Y53150D02*
D03*
D13*
X-5807Y-70866D02*
D03*
X5807Y-70866D02*
D03*
X-5807Y70866D02*
D03*
X5807Y70866D02*
D03*
D14*
X0Y-76772D02*
D03*
X0Y76772D02*
D03*
X-0Y-64961D02*
D03*
X0Y64961D02*
D03*
D15*
X0Y-59055D02*
D03*
Y-53150D02*
D03*
Y53150D02*
D03*
Y59055D02*
D03*
D21*
X0Y-25591D02*
D03*
Y25591D02*
D03*
D22*
X7874Y-13780D02*
D03*
X15748Y-13780D02*
D03*
X23622Y-13780D02*
D03*
X31496Y-13780D02*
D03*
X39370Y-13780D02*
D03*
X47244Y-13780D02*
D03*
X55118Y-13780D02*
D03*
X62992Y-13780D02*
D03*
X70866Y-13780D02*
D03*
X-7874Y13780D02*
D03*
X-15748Y13779D02*
D03*
X-23622Y13780D02*
D03*
X-31496Y13780D02*
D03*
X-39370Y13780D02*
D03*
X-47244Y13780D02*
D03*
X-55118Y13780D02*
D03*
X-62992Y13780D02*
D03*
X-70866Y13780D02*
D03*
D23*
X0Y47244D02*
D03*
X-0Y-47244D02*
D03*
X7874Y-23622D02*
D03*
X7874Y-3937D02*
D03*
X0Y-3937D02*
D03*
X15748Y-23622D02*
D03*
X15748Y-3937D02*
D03*
X23622Y-23622D02*
D03*
X23622Y-3937D02*
D03*
X31496Y-23622D02*
D03*
X31496Y-3937D02*
D03*
X39370Y-23622D02*
D03*
X39370Y-3937D02*
D03*
X47244Y-23622D02*
D03*
X47244Y-3937D02*
D03*
X55118Y-23622D02*
D03*
X55118Y-3937D02*
D03*
X62992Y-23622D02*
D03*
X62992Y-3937D02*
D03*
X70866Y-23622D02*
D03*
Y-3937D02*
D03*
X-7874Y23622D02*
D03*
X-7874Y3937D02*
D03*
X-0Y3937D02*
D03*
X-15748Y23622D02*
D03*
X-15748Y3937D02*
D03*
X-23622Y23622D02*
D03*
X-23622Y3937D02*
D03*
X-31496Y23622D02*
D03*
X-31496Y3937D02*
D03*
X-39370Y23622D02*
D03*
X-39370Y3937D02*
D03*
X-47244Y23622D02*
D03*
X-47244Y3937D02*
D03*
X-55118Y23622D02*
D03*
X-55118Y3937D02*
D03*
X-62992Y23622D02*
D03*
X-62992Y3937D02*
D03*
X-70866Y23622D02*
D03*
X-70866Y3937D02*
D03*
D24*
X-2953Y59055D02*
D03*
Y53150D02*
D03*
X2953Y-53150D02*
D03*
Y-59055D02*
D03*
D25*
X0Y62008D02*
D03*
Y-62008D02*
D03*
D26*
X0Y49705D02*
D03*
X0Y-49705D02*
D03*
D27*
X77941Y54705D02*
D03*
X70067D02*
D03*
X62193Y70453D02*
D03*
X66130Y62579D02*
D03*
X62193Y54705D02*
D03*
X54319Y70453D02*
D03*
X58256Y62579D02*
D03*
X54319Y54705D02*
D03*
X50382Y78327D02*
D03*
X46445Y70453D02*
D03*
X50382Y62579D02*
D03*
X46445Y54705D02*
D03*
X38571Y86201D02*
D03*
X42508Y78327D02*
D03*
X38571Y70453D02*
D03*
X42508Y62579D02*
D03*
X38571Y54705D02*
D03*
X30697Y86201D02*
D03*
X34634Y78327D02*
D03*
X30697Y70453D02*
D03*
X34634Y62579D02*
D03*
X30697Y54705D02*
D03*
X22823Y86201D02*
D03*
X26760Y78327D02*
D03*
X22823Y70453D02*
D03*
X26760Y62579D02*
D03*
X22823Y54705D02*
D03*
X14949Y86201D02*
D03*
X18886Y78327D02*
D03*
X14949Y70453D02*
D03*
X18886Y62579D02*
D03*
X14949Y54705D02*
D03*
X7075Y86201D02*
D03*
X11012Y78327D02*
D03*
Y62579D02*
D03*
X7075Y54705D02*
D03*
X-799Y86201D02*
D03*
X-8673D02*
D03*
X-4736Y78327D02*
D03*
X-16547Y86201D02*
D03*
X-12610Y78327D02*
D03*
X-16547Y70453D02*
D03*
X-12610Y62579D02*
D03*
X-16547Y54705D02*
D03*
X-24421Y86201D02*
D03*
X-20484Y78327D02*
D03*
X-24421Y70453D02*
D03*
X-20484Y62579D02*
D03*
X-24421Y54705D02*
D03*
X-32295Y86201D02*
D03*
X-28358Y78327D02*
D03*
X-32295Y70453D02*
D03*
X-28358Y62579D02*
D03*
X-32295Y54705D02*
D03*
X-40169Y86201D02*
D03*
X-36232Y78327D02*
D03*
X-40169Y70453D02*
D03*
X-36232Y62579D02*
D03*
X-40169Y54705D02*
D03*
X-44106Y78327D02*
D03*
X-48043Y70453D02*
D03*
X-44106Y62579D02*
D03*
X-48043Y54705D02*
D03*
X-51980Y78327D02*
D03*
X-55917Y70453D02*
D03*
X-51980Y62579D02*
D03*
X-55917Y54705D02*
D03*
X-63791Y70453D02*
D03*
X-59854Y62579D02*
D03*
X-63791Y54705D02*
D03*
X-67728Y62579D02*
D03*
X-71665Y54705D02*
D03*
X74004Y-55531D02*
D03*
X70067Y-63405D02*
D03*
X66130Y-55531D02*
D03*
X62193Y-63405D02*
D03*
X58256Y-55531D02*
D03*
X54319Y-63405D02*
D03*
X58256Y-71279D02*
D03*
X50382Y-55531D02*
D03*
X46445Y-63405D02*
D03*
X50382Y-71279D02*
D03*
X46445Y-79153D02*
D03*
X42508Y-55531D02*
D03*
X38571Y-63405D02*
D03*
X42508Y-71279D02*
D03*
X38571Y-79153D02*
D03*
X34634Y-55531D02*
D03*
X30697Y-63405D02*
D03*
X34634Y-71279D02*
D03*
X30697Y-79153D02*
D03*
X34634Y-87027D02*
D03*
X26760Y-55531D02*
D03*
X22823Y-63405D02*
D03*
X26760Y-71279D02*
D03*
X22823Y-79153D02*
D03*
X26760Y-87027D02*
D03*
X18886Y-55531D02*
D03*
X14949Y-63405D02*
D03*
X18886Y-71279D02*
D03*
X14949Y-79153D02*
D03*
X18886Y-87027D02*
D03*
X7075Y-63405D02*
D03*
X11012Y-71279D02*
D03*
X7075Y-79153D02*
D03*
X11012Y-87027D02*
D03*
X7075Y-94902D02*
D03*
X3138Y-87027D02*
D03*
X-4736Y-55531D02*
D03*
X-8673Y-63405D02*
D03*
Y-79153D02*
D03*
X-4736Y-87027D02*
D03*
X-8673Y-94902D02*
D03*
X-12610Y-55531D02*
D03*
X-16547Y-63405D02*
D03*
X-12610Y-71279D02*
D03*
X-16547Y-79153D02*
D03*
X-12610Y-87027D02*
D03*
X-20484Y-55531D02*
D03*
X-24421Y-63405D02*
D03*
X-20484Y-71279D02*
D03*
X-24421Y-79153D02*
D03*
X-20484Y-87027D02*
D03*
X-28358Y-55531D02*
D03*
X-32295Y-63405D02*
D03*
X-28358Y-71279D02*
D03*
X-32295Y-79153D02*
D03*
X-28358Y-87027D02*
D03*
X-36232Y-55531D02*
D03*
X-40169Y-63405D02*
D03*
X-36232Y-71279D02*
D03*
X-40169Y-79153D02*
D03*
X-36232Y-87027D02*
D03*
X-44106Y-55531D02*
D03*
X-48043Y-63405D02*
D03*
X-44106Y-71279D02*
D03*
X-48043Y-79153D02*
D03*
X-51980Y-55531D02*
D03*
X-55917Y-63405D02*
D03*
X-51980Y-71279D02*
D03*
X-59854Y-55531D02*
D03*
X-63791Y-63405D02*
D03*
X-59854Y-71279D02*
D03*
X-67728Y-55531D02*
D03*
X-75602D02*
D03*
M02*
