G04*
G04 #@! TF.GenerationSoftware,Altium Limited,Altium Designer,21.1.1 (26)*
G04*
G04 Layer_Physical_Order=2*
G04 Layer_Color=16711680*
%FSLAX25Y25*%
%MOIN*%
G70*
G04*
G04 #@! TF.SameCoordinates,A007A2E6-7F3F-4EDA-8956-8A6C2462A32F*
G04*
G04*
G04 #@! TF.FilePolarity,Positive*
G04*
G01*
G75*
%ADD23C,0.03937*%
%ADD27C,0.01772*%
%ADD28O,0.03937X0.15748*%
G04:AMPARAMS|DCode=29|XSize=39.37mil|YSize=95.05mil|CornerRadius=0mil|HoleSize=0mil|Usage=FLASHONLY|Rotation=225.000|XOffset=0mil|YOffset=0mil|HoleType=Round|Shape=Round|*
%AMOVALD29*
21,1,0.05568,0.03937,0.00000,0.00000,315.0*
1,1,0.03937,-0.01968,0.01968*
1,1,0.03937,0.01968,-0.01968*
%
%ADD29OVALD29*%

G36*
X83026Y-47244D02*
X83522Y-48094D01*
X82514Y-49882D01*
X79352Y-54773D01*
X75900Y-59464D01*
X72171Y-63938D01*
X68179Y-68179D01*
X63938Y-72172D01*
X59464Y-75900D01*
X54772Y-79352D01*
X49881Y-82515D01*
X44808Y-85376D01*
X39572Y-87925D01*
X34191Y-90154D01*
X28685Y-92054D01*
X23075Y-93618D01*
X17380Y-94841D01*
X11622Y-95717D01*
X5822Y-96244D01*
X4946Y-96271D01*
X4586Y-96122D01*
X2322Y-95578D01*
X0Y-95395D01*
X-2322Y-95578D01*
X-4586Y-96122D01*
X-4946Y-96271D01*
X-5822Y-96244D01*
X-11622Y-95717D01*
X-17380Y-94841D01*
X-23075Y-93618D01*
X-28685Y-92054D01*
X-34191Y-90154D01*
X-39572Y-87925D01*
X-44808Y-85376D01*
X-49881Y-82515D01*
X-54772Y-79352D01*
X-59464Y-75900D01*
X-63938Y-72172D01*
X-68179Y-68179D01*
X-72171Y-63938D01*
X-75899Y-59464D01*
X-79351Y-54773D01*
X-82514Y-49882D01*
X-83522Y-48094D01*
X-83026Y-47244D01*
X83026Y-47244D01*
D02*
G37*
G36*
X5822Y96242D02*
X11622Y95715D01*
X17380Y94839D01*
X23075Y93617D01*
X28685Y92053D01*
X34191Y90153D01*
X39572Y87924D01*
X44808Y85374D01*
X49881Y82513D01*
X54772Y79351D01*
X59464Y75899D01*
X63938Y72170D01*
X68179Y68178D01*
X72171Y63937D01*
X75900Y59463D01*
X79352Y54772D01*
X82514Y49880D01*
X83521Y48094D01*
X83025Y47244D01*
X-83025D01*
X-83521Y48094D01*
X-82514Y49880D01*
X-79351Y54772D01*
X-75899Y59463D01*
X-72171Y63937D01*
X-68179Y68178D01*
X-63938Y72170D01*
X-59464Y75899D01*
X-54772Y79351D01*
X-49881Y82513D01*
X-44808Y85374D01*
X-39572Y87924D01*
X-34191Y90153D01*
X-28685Y92053D01*
X-23075Y93617D01*
X-17380Y94839D01*
X-11622Y95715D01*
X-5822Y96242D01*
X-4942Y96269D01*
X-4586Y96122D01*
X-2322Y95578D01*
X0Y95395D01*
X2322Y95578D01*
X4586Y96122D01*
X4942Y96269D01*
X5822Y96242D01*
D02*
G37*
D23*
X7874Y-23622D02*
D03*
X7874Y-3937D02*
D03*
X0Y-3937D02*
D03*
X15748Y-23622D02*
D03*
X15748Y-3937D02*
D03*
X23622Y-23622D02*
D03*
X23622Y-3937D02*
D03*
X31496Y-23622D02*
D03*
X31496Y-3937D02*
D03*
X39370Y-23622D02*
D03*
X39370Y-3937D02*
D03*
X47244Y-23622D02*
D03*
X47244Y-3937D02*
D03*
X55118Y-23622D02*
D03*
X55118Y-3937D02*
D03*
X62992Y-23622D02*
D03*
X62992Y-3937D02*
D03*
X70866Y-23622D02*
D03*
Y-3937D02*
D03*
X-7874Y23622D02*
D03*
X-7874Y3937D02*
D03*
X-0Y3937D02*
D03*
X-15748Y23622D02*
D03*
X-15748Y3937D02*
D03*
X-23622Y23622D02*
D03*
X-23622Y3937D02*
D03*
X-31496Y23622D02*
D03*
X-31496Y3937D02*
D03*
X-39370Y23622D02*
D03*
X-39370Y3937D02*
D03*
X-47244Y23622D02*
D03*
X-47244Y3937D02*
D03*
X-55118Y23622D02*
D03*
X-55118Y3937D02*
D03*
X-62992Y23622D02*
D03*
X-62992Y3937D02*
D03*
X-70866Y23622D02*
D03*
X-70866Y3937D02*
D03*
D27*
X77941Y54705D02*
D03*
X70067D02*
D03*
X62193Y70453D02*
D03*
X66130Y62579D02*
D03*
X62193Y54705D02*
D03*
X54319Y70453D02*
D03*
X58256Y62579D02*
D03*
X54319Y54705D02*
D03*
X50382Y78327D02*
D03*
X46445Y70453D02*
D03*
X50382Y62579D02*
D03*
X46445Y54705D02*
D03*
X38571Y86201D02*
D03*
X42508Y78327D02*
D03*
X38571Y70453D02*
D03*
X42508Y62579D02*
D03*
X38571Y54705D02*
D03*
X30697Y86201D02*
D03*
X34634Y78327D02*
D03*
X30697Y70453D02*
D03*
X34634Y62579D02*
D03*
X30697Y54705D02*
D03*
X22823Y86201D02*
D03*
X26760Y78327D02*
D03*
X22823Y70453D02*
D03*
X26760Y62579D02*
D03*
X22823Y54705D02*
D03*
X14949Y86201D02*
D03*
X18886Y78327D02*
D03*
X14949Y70453D02*
D03*
X18886Y62579D02*
D03*
X14949Y54705D02*
D03*
X7075Y86201D02*
D03*
X11012Y78327D02*
D03*
Y62579D02*
D03*
X7075Y54705D02*
D03*
X-799Y86201D02*
D03*
X-8673D02*
D03*
X-4736Y78327D02*
D03*
X-16547Y86201D02*
D03*
X-12610Y78327D02*
D03*
X-16547Y70453D02*
D03*
X-12610Y62579D02*
D03*
X-16547Y54705D02*
D03*
X-24421Y86201D02*
D03*
X-20484Y78327D02*
D03*
X-24421Y70453D02*
D03*
X-20484Y62579D02*
D03*
X-24421Y54705D02*
D03*
X-32295Y86201D02*
D03*
X-28358Y78327D02*
D03*
X-32295Y70453D02*
D03*
X-28358Y62579D02*
D03*
X-32295Y54705D02*
D03*
X-40169Y86201D02*
D03*
X-36232Y78327D02*
D03*
X-40169Y70453D02*
D03*
X-36232Y62579D02*
D03*
X-40169Y54705D02*
D03*
X-44106Y78327D02*
D03*
X-48043Y70453D02*
D03*
X-44106Y62579D02*
D03*
X-48043Y54705D02*
D03*
X-51980Y78327D02*
D03*
X-55917Y70453D02*
D03*
X-51980Y62579D02*
D03*
X-55917Y54705D02*
D03*
X-63791Y70453D02*
D03*
X-59854Y62579D02*
D03*
X-63791Y54705D02*
D03*
X-67728Y62579D02*
D03*
X-71665Y54705D02*
D03*
X74004Y-55531D02*
D03*
X70067Y-63405D02*
D03*
X66130Y-55531D02*
D03*
X62193Y-63405D02*
D03*
X58256Y-55531D02*
D03*
X54319Y-63405D02*
D03*
X58256Y-71279D02*
D03*
X50382Y-55531D02*
D03*
X46445Y-63405D02*
D03*
X50382Y-71279D02*
D03*
X46445Y-79153D02*
D03*
X42508Y-55531D02*
D03*
X38571Y-63405D02*
D03*
X42508Y-71279D02*
D03*
X38571Y-79153D02*
D03*
X34634Y-55531D02*
D03*
X30697Y-63405D02*
D03*
X34634Y-71279D02*
D03*
X30697Y-79153D02*
D03*
X34634Y-87027D02*
D03*
X26760Y-55531D02*
D03*
X22823Y-63405D02*
D03*
X26760Y-71279D02*
D03*
X22823Y-79153D02*
D03*
X26760Y-87027D02*
D03*
X18886Y-55531D02*
D03*
X14949Y-63405D02*
D03*
X18886Y-71279D02*
D03*
X14949Y-79153D02*
D03*
X18886Y-87027D02*
D03*
X7075Y-63405D02*
D03*
X11012Y-71279D02*
D03*
X7075Y-79153D02*
D03*
X11012Y-87027D02*
D03*
X7075Y-94902D02*
D03*
X3138Y-87027D02*
D03*
X-4736Y-55531D02*
D03*
X-8673Y-63405D02*
D03*
Y-79153D02*
D03*
X-4736Y-87027D02*
D03*
X-8673Y-94902D02*
D03*
X-12610Y-55531D02*
D03*
X-16547Y-63405D02*
D03*
X-12610Y-71279D02*
D03*
X-16547Y-79153D02*
D03*
X-12610Y-87027D02*
D03*
X-20484Y-55531D02*
D03*
X-24421Y-63405D02*
D03*
X-20484Y-71279D02*
D03*
X-24421Y-79153D02*
D03*
X-20484Y-87027D02*
D03*
X-28358Y-55531D02*
D03*
X-32295Y-63405D02*
D03*
X-28358Y-71279D02*
D03*
X-32295Y-79153D02*
D03*
X-28358Y-87027D02*
D03*
X-36232Y-55531D02*
D03*
X-40169Y-63405D02*
D03*
X-36232Y-71279D02*
D03*
X-40169Y-79153D02*
D03*
X-36232Y-87027D02*
D03*
X-44106Y-55531D02*
D03*
X-48043Y-63405D02*
D03*
X-44106Y-71279D02*
D03*
X-48043Y-79153D02*
D03*
X-51980Y-55531D02*
D03*
X-55917Y-63405D02*
D03*
X-51980Y-71279D02*
D03*
X-59854Y-55531D02*
D03*
X-63791Y-63405D02*
D03*
X-59854Y-71279D02*
D03*
X-67728Y-55531D02*
D03*
X-75602D02*
D03*
D28*
X3937Y-13780D02*
D03*
X11811Y-13780D02*
D03*
X19685Y-13780D02*
D03*
X27559Y-13780D02*
D03*
X35433Y-13780D02*
D03*
X43307Y-13780D02*
D03*
X51181Y-13780D02*
D03*
X59055Y-13780D02*
D03*
X66929Y-13780D02*
D03*
X-3937Y13780D02*
D03*
X-11811Y13780D02*
D03*
X-19685Y13780D02*
D03*
X-27559Y13780D02*
D03*
X-35433Y13780D02*
D03*
X-43307Y13780D02*
D03*
X-51181Y13780D02*
D03*
X-59055Y13780D02*
D03*
X-66929Y13780D02*
D03*
D29*
X5906Y-21654D02*
D03*
X1969Y-5906D02*
D03*
X13780Y-21654D02*
D03*
X9843Y-5906D02*
D03*
X21654Y-21654D02*
D03*
X17717Y-5906D02*
D03*
X29528Y-21654D02*
D03*
X25591Y-5906D02*
D03*
X37402Y-21654D02*
D03*
X33465Y-5906D02*
D03*
X45276Y-21654D02*
D03*
X41339Y-5906D02*
D03*
X53150Y-21654D02*
D03*
X49213Y-5905D02*
D03*
X61024Y-21654D02*
D03*
X57087Y-5906D02*
D03*
X68898Y-21654D02*
D03*
X64961Y-5906D02*
D03*
X-5906Y21654D02*
D03*
X-1968Y5906D02*
D03*
X-13780Y21654D02*
D03*
X-9842Y5906D02*
D03*
X-21654Y21654D02*
D03*
X-17717Y5906D02*
D03*
X-29528Y21654D02*
D03*
X-25591Y5906D02*
D03*
X-37402Y21654D02*
D03*
X-33465Y5906D02*
D03*
X-45276Y21654D02*
D03*
X-41339Y5906D02*
D03*
X-53150Y21654D02*
D03*
X-49213Y5906D02*
D03*
X-61024Y21654D02*
D03*
X-57087Y5906D02*
D03*
X-68898Y21654D02*
D03*
X-64961Y5906D02*
D03*
M02*
