G04*
G04 #@! TF.GenerationSoftware,Altium Limited,Altium Designer,21.1.1 (26)*
G04*
G04 Layer_Color=2752767*
%FSLAX25Y25*%
%MOIN*%
G70*
G04*
G04 #@! TF.SameCoordinates,00041135-13D7-4506-9701-D3451D8B9A42*
G04*
G04*
G04 #@! TF.FilePolarity,Positive*
G04*
G01*
G75*
%ADD10C,0.00500*%
%ADD11C,0.00200*%
%ADD12C,0.00267*%
D10*
X-52165Y-102287D02*
G03*
X-52165Y-102287I-6890J0D01*
G01*
Y102287D02*
G03*
X-52165Y102287I-6890J0D01*
G01*
X125000Y0D02*
G03*
X125000Y0I-6890J0D01*
G01*
X147638D02*
G03*
X147638Y0I-147638J0D01*
G01*
D11*
X48883Y35255D02*
Y36855D01*
X50483D01*
Y35255D01*
X48883D01*
X-8101Y68155D02*
Y69755D01*
X-6501D01*
Y68155D01*
X-8101D01*
X0Y-800D02*
X-800Y800D01*
X800D01*
X0Y-800D01*
X-17048Y9042D02*
X-16648Y9443D01*
X-16248D01*
X-16648Y9843D01*
X-16248Y10243D01*
X-16648D01*
X-17048Y10643D01*
X-17448Y10243D01*
X-17848D01*
X-17448Y9843D01*
X-17848Y9443D01*
X-17448D01*
X-17048Y9042D01*
X17048Y-10643D02*
X17448Y-10243D01*
X17848D01*
X17448Y-9843D01*
X17848Y-9443D01*
X17448D01*
X17048Y-9042D01*
X16648Y-9443D01*
X16248D01*
X16648Y-9843D01*
X16248Y-10243D01*
X16648D01*
X17048Y-10643D01*
X35040Y98701D02*
Y100301D01*
X36640D01*
Y98701D01*
X35040D01*
X52360Y88699D02*
Y90299D01*
X53960D01*
Y88699D01*
X52360D01*
X103200Y-55640D02*
X103600Y-54840D01*
X103200Y-54040D01*
X104000Y-54440D01*
X104800Y-54040D01*
X104400Y-54840D01*
X104800Y-55640D01*
X104000Y-55240D01*
X103200Y-55640D01*
X98200Y-64300D02*
X98600Y-63500D01*
X98200Y-62700D01*
X99000Y-63100D01*
X99800Y-62700D01*
X99400Y-63500D01*
X99800Y-64300D01*
X99000Y-63900D01*
X98200Y-64300D01*
X93200Y-72960D02*
X93600Y-72160D01*
X93200Y-71360D01*
X94000Y-71760D01*
X94800Y-71360D01*
X94400Y-72160D01*
X94800Y-72960D01*
X94000Y-72560D01*
X93200Y-72960D01*
X67600Y105100D02*
Y104700D01*
X68400D01*
Y105100D01*
X68800D01*
Y105900D01*
X68400D01*
Y106300D01*
X67600D01*
Y105900D01*
X67200D01*
Y105100D01*
X67600D01*
X76260Y100100D02*
Y99700D01*
X77060D01*
Y100100D01*
X77460D01*
Y100900D01*
X77060D01*
Y101300D01*
X76260D01*
Y100900D01*
X75860D01*
Y100100D01*
X76260D01*
X42600Y119100D02*
Y118700D01*
X43400D01*
Y119100D01*
X43800D01*
Y119900D01*
X43400D01*
Y120300D01*
X42600D01*
Y119900D01*
X42200D01*
Y119100D01*
X42600D01*
X33940Y124100D02*
Y123700D01*
X34740D01*
Y124100D01*
X35140D01*
Y124900D01*
X34740D01*
Y125300D01*
X33940D01*
Y124900D01*
X33540D01*
Y124100D01*
X33940D01*
X104600Y62100D02*
Y61700D01*
X105400D01*
Y62100D01*
X105800D01*
Y62900D01*
X105400D01*
Y63300D01*
X104600D01*
Y62900D01*
X104200D01*
Y62100D01*
X104600D01*
X99600Y53440D02*
Y53040D01*
X100400D01*
Y53440D01*
X100800D01*
Y54240D01*
X100400D01*
Y54640D01*
X99600D01*
Y54240D01*
X99200D01*
Y53440D01*
X99600D01*
X-91400Y-86900D02*
Y-87300D01*
X-90600D01*
Y-86900D01*
X-90200D01*
Y-86100D01*
X-90600D01*
Y-85700D01*
X-91400D01*
Y-86100D01*
X-91800D01*
Y-86900D01*
X-91400D01*
X-81400Y-86900D02*
Y-87300D01*
X-80600D01*
Y-86900D01*
X-80200D01*
Y-86100D01*
X-80600D01*
Y-85700D01*
X-81400D01*
Y-86100D01*
X-81800D01*
Y-86900D01*
X-81400D01*
X95814Y16049D02*
X96214D01*
X96614Y16449D01*
X97013Y16049D01*
X97413D01*
Y16449D01*
X97013Y16849D01*
X97413Y17249D01*
Y17649D01*
X97013D01*
X96614Y17249D01*
X96214Y17649D01*
X95814D01*
Y17249D01*
X96214Y16849D01*
X95814Y16449D01*
Y16049D01*
X100144Y13549D02*
X100544D01*
X100944Y13949D01*
X101344Y13549D01*
X101744D01*
Y13949D01*
X101344Y14349D01*
X101744Y14749D01*
Y15149D01*
X101344D01*
X100944Y14749D01*
X100544Y15149D01*
X100144D01*
Y14749D01*
X100544Y14349D01*
X100144Y13949D01*
Y13549D01*
X98086Y19986D02*
X98486D01*
X98886Y20386D01*
X99286Y19986D01*
X99686D01*
Y20386D01*
X99286Y20786D01*
X99686Y21186D01*
Y21586D01*
X99286D01*
X98886Y21186D01*
X98486Y21586D01*
X98086D01*
Y21186D01*
X98486Y20786D01*
X98086Y20386D01*
Y19986D01*
X102416Y17486D02*
X102816D01*
X103216Y17886D01*
X103616Y17486D01*
X104016D01*
Y17886D01*
X103616Y18286D01*
X104016Y18686D01*
Y19086D01*
X103616D01*
X103216Y18686D01*
X102816Y19086D01*
X102416D01*
Y18686D01*
X102816Y18286D01*
X102416Y17886D01*
Y17486D01*
X100359Y23922D02*
X100759D01*
X101159Y24322D01*
X101559Y23922D01*
X101959D01*
Y24322D01*
X101559Y24722D01*
X101959Y25122D01*
Y25522D01*
X101559D01*
X101159Y25122D01*
X100759Y25522D01*
X100359D01*
Y25122D01*
X100759Y24722D01*
X100359Y24322D01*
Y23922D01*
X104689Y21422D02*
X105089D01*
X105489Y21822D01*
X105889Y21422D01*
X106289D01*
Y21822D01*
X105889Y22222D01*
X106289Y22622D01*
Y23022D01*
X105889D01*
X105489Y22622D01*
X105089Y23022D01*
X104689D01*
Y22622D01*
X105089Y22222D01*
X104689Y21822D01*
Y21422D01*
X102632Y27859D02*
X103032D01*
X103432Y28259D01*
X103832Y27859D01*
X104232D01*
Y28259D01*
X103832Y28659D01*
X104232Y29059D01*
Y29459D01*
X103832D01*
X103432Y29059D01*
X103032Y29459D01*
X102632D01*
Y29059D01*
X103032Y28659D01*
X102632Y28259D01*
Y27859D01*
X106962Y25359D02*
X107362D01*
X107762Y25759D01*
X108162Y25359D01*
X108562D01*
Y25759D01*
X108162Y26159D01*
X108562Y26559D01*
Y26959D01*
X108162D01*
X107762Y26559D01*
X107362Y26959D01*
X106962D01*
Y26559D01*
X107362Y26159D01*
X106962Y25759D01*
Y25359D01*
X104904Y31795D02*
X105304D01*
X105704Y32195D01*
X106104Y31795D01*
X106504D01*
Y32195D01*
X106104Y32595D01*
X106504Y32995D01*
Y33395D01*
X106104D01*
X105704Y32995D01*
X105304Y33395D01*
X104904D01*
Y32995D01*
X105304Y32595D01*
X104904Y32195D01*
Y31795D01*
X109234Y29295D02*
X109634D01*
X110035Y29695D01*
X110434Y29295D01*
X110835D01*
Y29695D01*
X110434Y30095D01*
X110835Y30495D01*
Y30895D01*
X110434D01*
X110035Y30495D01*
X109634Y30895D01*
X109234D01*
Y30495D01*
X109634Y30095D01*
X109234Y29695D01*
Y29295D01*
X107177Y35732D02*
X107577D01*
X107977Y36132D01*
X108377Y35732D01*
X108777D01*
Y36132D01*
X108377Y36532D01*
X108777Y36932D01*
Y37332D01*
X108377D01*
X107977Y36932D01*
X107577Y37332D01*
X107177D01*
Y36932D01*
X107577Y36532D01*
X107177Y36132D01*
Y35732D01*
X111507Y33232D02*
X111907D01*
X112307Y33632D01*
X112707Y33232D01*
X113107D01*
Y33632D01*
X112707Y34032D01*
X113107Y34432D01*
Y34832D01*
X112707D01*
X112307Y34432D01*
X111907Y34832D01*
X111507D01*
Y34432D01*
X111907Y34032D01*
X111507Y33632D01*
Y33232D01*
X109450Y39668D02*
X109850D01*
X110250Y40068D01*
X110650Y39668D01*
X111050D01*
Y40068D01*
X110650Y40468D01*
X111050Y40868D01*
Y41268D01*
X110650D01*
X110250Y40868D01*
X109850Y41268D01*
X109450D01*
Y40868D01*
X109850Y40468D01*
X109450Y40068D01*
Y39668D01*
X113780Y37168D02*
X114180D01*
X114580Y37568D01*
X114980Y37168D01*
X115380D01*
Y37568D01*
X114980Y37968D01*
X115380Y38368D01*
Y38768D01*
X114980D01*
X114580Y38368D01*
X114180Y38768D01*
X113780D01*
Y38368D01*
X114180Y37968D01*
X113780Y37568D01*
Y37168D01*
X111723Y43605D02*
X112123D01*
X112523Y44005D01*
X112923Y43605D01*
X113323D01*
Y44005D01*
X112923Y44405D01*
X113323Y44805D01*
Y45205D01*
X112923D01*
X112523Y44805D01*
X112123Y45205D01*
X111723D01*
Y44805D01*
X112123Y44405D01*
X111723Y44005D01*
Y43605D01*
X116053Y41105D02*
X116453D01*
X116853Y41505D01*
X117253Y41105D01*
X117653D01*
Y41505D01*
X117253Y41905D01*
X117653Y42305D01*
Y42705D01*
X117253D01*
X116853Y42305D01*
X116453Y42705D01*
X116053D01*
Y42305D01*
X116453Y41905D01*
X116053Y41505D01*
Y41105D01*
X113995Y47541D02*
X114395D01*
X114795Y47941D01*
X115195Y47541D01*
X115595D01*
Y47941D01*
X115195Y48341D01*
X115595Y48741D01*
Y49141D01*
X115195D01*
X114795Y48741D01*
X114395Y49141D01*
X113995D01*
Y48741D01*
X114395Y48341D01*
X113995Y47941D01*
Y47541D01*
X118325Y45041D02*
X118726D01*
X119125Y45441D01*
X119526Y45041D01*
X119925D01*
Y45441D01*
X119526Y45841D01*
X119925Y46241D01*
Y46641D01*
X119526D01*
X119125Y46241D01*
X118726Y46641D01*
X118325D01*
Y46241D01*
X118726Y45841D01*
X118325Y45441D01*
Y45041D01*
X116268Y51478D02*
X116668D01*
X117068Y51878D01*
X117468Y51478D01*
X117868D01*
Y51878D01*
X117468Y52278D01*
X117868Y52678D01*
Y53078D01*
X117468D01*
X117068Y52678D01*
X116668Y53078D01*
X116268D01*
Y52678D01*
X116668Y52278D01*
X116268Y51878D01*
Y51478D01*
X120598Y48978D02*
X120998D01*
X121398Y49378D01*
X121798Y48978D01*
X122198D01*
Y49378D01*
X121798Y49778D01*
X122198Y50178D01*
Y50578D01*
X121798D01*
X121398Y50178D01*
X120998Y50578D01*
X120598D01*
Y50178D01*
X120998Y49778D01*
X120598Y49378D01*
Y48978D01*
X118541Y55414D02*
X118941D01*
X119341Y55814D01*
X119741Y55414D01*
X120141D01*
Y55814D01*
X119741Y56214D01*
X120141Y56614D01*
Y57014D01*
X119741D01*
X119341Y56614D01*
X118941Y57014D01*
X118541D01*
Y56614D01*
X118941Y56214D01*
X118541Y55814D01*
Y55414D01*
X122871Y52914D02*
X123271D01*
X123671Y53314D01*
X124071Y52914D01*
X124471D01*
Y53314D01*
X124071Y53714D01*
X124471Y54114D01*
Y54514D01*
X124071D01*
X123671Y54114D01*
X123271Y54514D01*
X122871D01*
Y54114D01*
X123271Y53714D01*
X122871Y53314D01*
Y52914D01*
X125144Y56850D02*
X125544D01*
X125944Y57250D01*
X126344Y56850D01*
X126744D01*
Y57250D01*
X126344Y57651D01*
X126744Y58051D01*
Y58451D01*
X126344D01*
X125944Y58051D01*
X125544Y58451D01*
X125144D01*
Y58051D01*
X125544Y57651D01*
X125144Y57250D01*
Y56850D01*
X120814Y59351D02*
X121213D01*
X121614Y59750D01*
X122013Y59351D01*
X122414D01*
Y59750D01*
X122013Y60150D01*
X122414Y60550D01*
Y60950D01*
X122013D01*
X121614Y60550D01*
X121213Y60950D01*
X120814D01*
Y60550D01*
X121213Y60150D01*
X120814Y59750D01*
Y59351D01*
X127200Y-51999D02*
X127600D01*
X128000Y-51599D01*
X128400Y-51999D01*
X128800D01*
Y-51599D01*
X128400Y-51199D01*
X128800Y-50799D01*
Y-50399D01*
X128400D01*
X128000Y-50799D01*
X127600Y-50399D01*
X127200D01*
Y-50799D01*
X127600Y-51199D01*
X127200Y-51599D01*
Y-51999D01*
X122654Y-59872D02*
X123055D01*
X123454Y-59472D01*
X123854Y-59872D01*
X124255D01*
Y-59472D01*
X123854Y-59072D01*
X124255Y-58672D01*
Y-58272D01*
X123854D01*
X123454Y-58672D01*
X123055Y-58272D01*
X122654D01*
Y-58672D01*
X123055Y-59072D01*
X122654Y-59472D01*
Y-59872D01*
X124927Y-55935D02*
X125327D01*
X125727Y-55535D01*
X126127Y-55935D01*
X126527D01*
Y-55535D01*
X126127Y-55135D01*
X126527Y-54735D01*
Y-54335D01*
X126127D01*
X125727Y-54735D01*
X125327Y-54335D01*
X124927D01*
Y-54735D01*
X125327Y-55135D01*
X124927Y-55535D01*
Y-55935D01*
X122870Y-49499D02*
X123270D01*
X123670Y-49099D01*
X124070Y-49499D01*
X124470D01*
Y-49099D01*
X124070Y-48699D01*
X124470Y-48299D01*
Y-47899D01*
X124070D01*
X123670Y-48299D01*
X123270Y-47899D01*
X122870D01*
Y-48299D01*
X123270Y-48699D01*
X122870Y-49099D01*
Y-49499D01*
X97870Y-92800D02*
X98270D01*
X98670Y-92400D01*
X99070Y-92800D01*
X99470D01*
Y-92400D01*
X99070Y-92000D01*
X99470Y-91600D01*
Y-91200D01*
X99070D01*
X98670Y-91600D01*
X98270Y-91200D01*
X97870D01*
Y-91600D01*
X98270Y-92000D01*
X97870Y-92400D01*
Y-92800D01*
X102200Y-95300D02*
X102600D01*
X103000Y-94900D01*
X103400Y-95300D01*
X103800D01*
Y-94900D01*
X103400Y-94500D01*
X103800Y-94100D01*
Y-93700D01*
X103400D01*
X103000Y-94100D01*
X102600Y-93700D01*
X102200D01*
Y-94100D01*
X102600Y-94500D01*
X102200Y-94900D01*
Y-95300D01*
X100143Y-88863D02*
X100543D01*
X100943Y-88463D01*
X101343Y-88863D01*
X101743D01*
Y-88463D01*
X101343Y-88064D01*
X101743Y-87664D01*
Y-87264D01*
X101343D01*
X100943Y-87664D01*
X100543Y-87264D01*
X100143D01*
Y-87664D01*
X100543Y-88064D01*
X100143Y-88463D01*
Y-88863D01*
X104473Y-91364D02*
X104873D01*
X105273Y-90964D01*
X105673Y-91364D01*
X106073D01*
Y-90964D01*
X105673Y-90563D01*
X106073Y-90163D01*
Y-89763D01*
X105673D01*
X105273Y-90163D01*
X104873Y-89763D01*
X104473D01*
Y-90163D01*
X104873Y-90563D01*
X104473Y-90964D01*
Y-91364D01*
X102415Y-84927D02*
X102815D01*
X103215Y-84527D01*
X103615Y-84927D01*
X104015D01*
Y-84527D01*
X103615Y-84127D01*
X104015Y-83727D01*
Y-83327D01*
X103615D01*
X103215Y-83727D01*
X102815Y-83327D01*
X102415D01*
Y-83727D01*
X102815Y-84127D01*
X102415Y-84527D01*
Y-84927D01*
X106746Y-87427D02*
X107146D01*
X107545Y-87027D01*
X107946Y-87427D01*
X108345D01*
Y-87027D01*
X107946Y-86627D01*
X108345Y-86227D01*
Y-85827D01*
X107946D01*
X107545Y-86227D01*
X107146Y-85827D01*
X106746D01*
Y-86227D01*
X107146Y-86627D01*
X106746Y-87027D01*
Y-87427D01*
X104688Y-80990D02*
X105088D01*
X105488Y-80590D01*
X105888Y-80990D01*
X106288D01*
Y-80590D01*
X105888Y-80190D01*
X106288Y-79791D01*
Y-79391D01*
X105888D01*
X105488Y-79791D01*
X105088Y-79391D01*
X104688D01*
Y-79791D01*
X105088Y-80190D01*
X104688Y-80590D01*
Y-80990D01*
X109018Y-83491D02*
X109418D01*
X109818Y-83091D01*
X110218Y-83491D01*
X110618D01*
Y-83091D01*
X110218Y-82691D01*
X110618Y-82291D01*
Y-81891D01*
X110218D01*
X109818Y-82291D01*
X109418Y-81891D01*
X109018D01*
Y-82291D01*
X109418Y-82691D01*
X109018Y-83091D01*
Y-83491D01*
X118109Y-67745D02*
X118509D01*
X118909Y-67345D01*
X119309Y-67745D01*
X119709D01*
Y-67345D01*
X119309Y-66945D01*
X119709Y-66545D01*
Y-66145D01*
X119309D01*
X118909Y-66545D01*
X118509Y-66145D01*
X118109D01*
Y-66545D01*
X118509Y-66945D01*
X118109Y-67345D01*
Y-67745D01*
X116052Y-61308D02*
X116452D01*
X116852Y-60908D01*
X117252Y-61308D01*
X117652D01*
Y-60908D01*
X117252Y-60508D01*
X117652Y-60108D01*
Y-59708D01*
X117252D01*
X116852Y-60108D01*
X116452Y-59708D01*
X116052D01*
Y-60108D01*
X116452Y-60508D01*
X116052Y-60908D01*
Y-61308D01*
X120382Y-63808D02*
X120782D01*
X121182Y-63408D01*
X121582Y-63808D01*
X121982D01*
Y-63408D01*
X121582Y-63008D01*
X121982Y-62608D01*
Y-62208D01*
X121582D01*
X121182Y-62608D01*
X120782Y-62208D01*
X120382D01*
Y-62608D01*
X120782Y-63008D01*
X120382Y-63408D01*
Y-63808D01*
X118324Y-57372D02*
X118724D01*
X119124Y-56972D01*
X119524Y-57372D01*
X119924D01*
Y-56972D01*
X119524Y-56572D01*
X119924Y-56172D01*
Y-55772D01*
X119524D01*
X119124Y-56172D01*
X118724Y-55772D01*
X118324D01*
Y-56172D01*
X118724Y-56572D01*
X118324Y-56972D01*
Y-57372D01*
X120597Y-53435D02*
X120997D01*
X121397Y-53035D01*
X121797Y-53435D01*
X122197D01*
Y-53035D01*
X121797Y-52635D01*
X122197Y-52235D01*
Y-51835D01*
X121797D01*
X121397Y-52235D01*
X120997Y-51835D01*
X120597D01*
Y-52235D01*
X120997Y-52635D01*
X120597Y-53035D01*
Y-53435D01*
X111291Y-79554D02*
X111691D01*
X112091Y-79154D01*
X112491Y-79554D01*
X112891D01*
Y-79154D01*
X112491Y-78754D01*
X112891Y-78354D01*
Y-77954D01*
X112491D01*
X112091Y-78354D01*
X111691Y-77954D01*
X111291D01*
Y-78354D01*
X111691Y-78754D01*
X111291Y-79154D01*
Y-79554D01*
X91200Y-51300D02*
X91600D01*
X92000Y-50900D01*
X92400Y-51300D01*
X92800D01*
Y-50900D01*
X92400Y-50500D01*
X92800Y-50100D01*
Y-49700D01*
X92400D01*
X92000Y-50100D01*
X91600Y-49700D01*
X91200D01*
Y-50100D01*
X91600Y-50500D01*
X91200Y-50900D01*
Y-51300D01*
X106961Y-77054D02*
X107361D01*
X107761Y-76654D01*
X108161Y-77054D01*
X108561D01*
Y-76654D01*
X108161Y-76254D01*
X108561Y-75854D01*
Y-75454D01*
X108161D01*
X107761Y-75854D01*
X107361Y-75454D01*
X106961D01*
Y-75854D01*
X107361Y-76254D01*
X106961Y-76654D01*
Y-77054D01*
X109233Y-73118D02*
X109634D01*
X110034Y-72718D01*
X110433Y-73118D01*
X110834D01*
Y-72718D01*
X110433Y-72318D01*
X110834Y-71918D01*
Y-71518D01*
X110433D01*
X110034Y-71918D01*
X109634Y-71518D01*
X109233D01*
Y-71918D01*
X109634Y-72318D01*
X109233Y-72718D01*
Y-73118D01*
X113564Y-75618D02*
X113964D01*
X114364Y-75218D01*
X114764Y-75618D01*
X115164D01*
Y-75218D01*
X114764Y-74818D01*
X115164Y-74418D01*
Y-74018D01*
X114764D01*
X114364Y-74418D01*
X113964Y-74018D01*
X113564D01*
Y-74418D01*
X113964Y-74818D01*
X113564Y-75218D01*
Y-75618D01*
X111506Y-69181D02*
X111906D01*
X112306Y-68781D01*
X112706Y-69181D01*
X113106D01*
Y-68781D01*
X112706Y-68381D01*
X113106Y-67981D01*
Y-67581D01*
X112706D01*
X112306Y-67981D01*
X111906Y-67581D01*
X111506D01*
Y-67981D01*
X111906Y-68381D01*
X111506Y-68781D01*
Y-69181D01*
X115836Y-71681D02*
X116236D01*
X116636Y-71281D01*
X117036Y-71681D01*
X117436D01*
Y-71281D01*
X117036Y-70881D01*
X117436Y-70481D01*
Y-70081D01*
X117036D01*
X116636Y-70481D01*
X116236Y-70081D01*
X115836D01*
Y-70481D01*
X116236Y-70881D01*
X115836Y-71281D01*
Y-71681D01*
X113779Y-65245D02*
X114179D01*
X114579Y-64845D01*
X114979Y-65245D01*
X115379D01*
Y-64845D01*
X114979Y-64445D01*
X115379Y-64045D01*
Y-63645D01*
X114979D01*
X114579Y-64045D01*
X114179Y-63645D01*
X113779D01*
Y-64045D01*
X114179Y-64445D01*
X113779Y-64845D01*
Y-65245D01*
X5001Y-135470D02*
X5401D01*
X5801Y-135070D01*
X6201Y-135470D01*
X6601D01*
Y-135070D01*
X6201Y-134670D01*
X6601Y-134270D01*
Y-133870D01*
X6201D01*
X5801Y-134270D01*
X5401Y-133870D01*
X5001D01*
Y-134270D01*
X5401Y-134670D01*
X5001Y-135070D01*
Y-135470D01*
X2501Y-139800D02*
X2901D01*
X3301Y-139400D01*
X3701Y-139800D01*
X4101D01*
Y-139400D01*
X3701Y-139000D01*
X4101Y-138600D01*
Y-138200D01*
X3701D01*
X3301Y-138600D01*
X2901Y-138200D01*
X2501D01*
Y-138600D01*
X2901Y-139000D01*
X2501Y-139400D01*
Y-139800D01*
X-1435Y-137527D02*
X-1035D01*
X-635Y-137127D01*
X-235Y-137527D01*
X165D01*
Y-137127D01*
X-235Y-136727D01*
X165Y-136327D01*
Y-135927D01*
X-235D01*
X-635Y-136327D01*
X-1035Y-135927D01*
X-1435D01*
Y-136327D01*
X-1035Y-136727D01*
X-1435Y-137127D01*
Y-137527D01*
X1065Y-133197D02*
X1465D01*
X1865Y-132797D01*
X2265Y-133197D01*
X2665D01*
Y-132797D01*
X2265Y-132397D01*
X2665Y-131997D01*
Y-131597D01*
X2265D01*
X1865Y-131997D01*
X1465Y-131597D01*
X1065D01*
Y-131997D01*
X1465Y-132397D01*
X1065Y-132797D01*
Y-133197D01*
X-5372Y-135255D02*
X-4972D01*
X-4572Y-134854D01*
X-4172Y-135255D01*
X-3772D01*
Y-134854D01*
X-4172Y-134455D01*
X-3772Y-134055D01*
Y-133654D01*
X-4172D01*
X-4572Y-134055D01*
X-4972Y-133654D01*
X-5372D01*
Y-134055D01*
X-4972Y-134455D01*
X-5372Y-134854D01*
Y-135255D01*
X-2872Y-130924D02*
X-2472D01*
X-2072Y-130524D01*
X-1672Y-130924D01*
X-1272D01*
Y-130524D01*
X-1672Y-130124D01*
X-1272Y-129724D01*
Y-129324D01*
X-1672D01*
X-2072Y-129724D01*
X-2472Y-129324D01*
X-2872D01*
Y-129724D01*
X-2472Y-130124D01*
X-2872Y-130524D01*
Y-130924D01*
X-9308Y-132982D02*
X-8908D01*
X-8508Y-132582D01*
X-8108Y-132982D01*
X-7708D01*
Y-132582D01*
X-8108Y-132182D01*
X-7708Y-131782D01*
Y-131382D01*
X-8108D01*
X-8508Y-131782D01*
X-8908Y-131382D01*
X-9308D01*
Y-131782D01*
X-8908Y-132182D01*
X-9308Y-132582D01*
Y-132982D01*
X-6808Y-128652D02*
X-6408D01*
X-6008Y-128252D01*
X-5608Y-128652D01*
X-5208D01*
Y-128252D01*
X-5608Y-127852D01*
X-5208Y-127452D01*
Y-127052D01*
X-5608D01*
X-6008Y-127452D01*
X-6408Y-127052D01*
X-6808D01*
Y-127452D01*
X-6408Y-127852D01*
X-6808Y-128252D01*
Y-128652D01*
X-13245Y-130709D02*
X-12845D01*
X-12445Y-130309D01*
X-12045Y-130709D01*
X-11645D01*
Y-130309D01*
X-12045Y-129909D01*
X-11645Y-129509D01*
Y-129109D01*
X-12045D01*
X-12445Y-129509D01*
X-12845Y-129109D01*
X-13245D01*
Y-129509D01*
X-12845Y-129909D01*
X-13245Y-130309D01*
Y-130709D01*
X-10745Y-126379D02*
X-10345D01*
X-9945Y-125979D01*
X-9545Y-126379D01*
X-9145D01*
Y-125979D01*
X-9545Y-125579D01*
X-9145Y-125179D01*
Y-124779D01*
X-9545D01*
X-9945Y-125179D01*
X-10345Y-124779D01*
X-10745D01*
Y-125179D01*
X-10345Y-125579D01*
X-10745Y-125979D01*
Y-126379D01*
X-17181Y-128436D02*
X-16781D01*
X-16381Y-128036D01*
X-15981Y-128436D01*
X-15581D01*
Y-128036D01*
X-15981Y-127636D01*
X-15581Y-127236D01*
Y-126836D01*
X-15981D01*
X-16381Y-127236D01*
X-16781Y-126836D01*
X-17181D01*
Y-127236D01*
X-16781Y-127636D01*
X-17181Y-128036D01*
Y-128436D01*
X-14681Y-124106D02*
X-14281D01*
X-13881Y-123706D01*
X-13481Y-124106D01*
X-13081D01*
Y-123706D01*
X-13481Y-123306D01*
X-13081Y-122906D01*
Y-122506D01*
X-13481D01*
X-13881Y-122906D01*
X-14281Y-122506D01*
X-14681D01*
Y-122906D01*
X-14281Y-123306D01*
X-14681Y-123706D01*
Y-124106D01*
X-21118Y-126164D02*
X-20718D01*
X-20318Y-125764D01*
X-19918Y-126164D01*
X-19518D01*
Y-125764D01*
X-19918Y-125364D01*
X-19518Y-124964D01*
Y-124564D01*
X-19918D01*
X-20318Y-124964D01*
X-20718Y-124564D01*
X-21118D01*
Y-124964D01*
X-20718Y-125364D01*
X-21118Y-125764D01*
Y-126164D01*
X-18618Y-121834D02*
X-18218D01*
X-17818Y-121433D01*
X-17418Y-121834D01*
X-17018D01*
Y-121433D01*
X-17418Y-121034D01*
X-17018Y-120633D01*
Y-120234D01*
X-17418D01*
X-17818Y-120633D01*
X-18218Y-120234D01*
X-18618D01*
Y-120633D01*
X-18218Y-121034D01*
X-18618Y-121433D01*
Y-121834D01*
X-25054Y-123891D02*
X-24654D01*
X-24254Y-123491D01*
X-23854Y-123891D01*
X-23454D01*
Y-123491D01*
X-23854Y-123091D01*
X-23454Y-122691D01*
Y-122291D01*
X-23854D01*
X-24254Y-122691D01*
X-24654Y-122291D01*
X-25054D01*
Y-122691D01*
X-24654Y-123091D01*
X-25054Y-123491D01*
Y-123891D01*
X-22554Y-119561D02*
X-22154D01*
X-21754Y-119161D01*
X-21354Y-119561D01*
X-20954D01*
Y-119161D01*
X-21354Y-118761D01*
X-20954Y-118361D01*
Y-117961D01*
X-21354D01*
X-21754Y-118361D01*
X-22154Y-117961D01*
X-22554D01*
Y-118361D01*
X-22154Y-118761D01*
X-22554Y-119161D01*
Y-119561D01*
X-28991Y-121618D02*
X-28591D01*
X-28191Y-121218D01*
X-27791Y-121618D01*
X-27391D01*
Y-121218D01*
X-27791Y-120818D01*
X-27391Y-120418D01*
Y-120018D01*
X-27791D01*
X-28191Y-120418D01*
X-28591Y-120018D01*
X-28991D01*
Y-120418D01*
X-28591Y-120818D01*
X-28991Y-121218D01*
Y-121618D01*
X-26491Y-117288D02*
X-26091D01*
X-25691Y-116888D01*
X-25291Y-117288D01*
X-24891D01*
Y-116888D01*
X-25291Y-116488D01*
X-24891Y-116088D01*
Y-115688D01*
X-25291D01*
X-25691Y-116088D01*
X-26091Y-115688D01*
X-26491D01*
Y-116088D01*
X-26091Y-116488D01*
X-26491Y-116888D01*
Y-117288D01*
X-32927Y-119345D02*
X-32527D01*
X-32127Y-118946D01*
X-31727Y-119345D01*
X-31327D01*
Y-118946D01*
X-31727Y-118545D01*
X-31327Y-118146D01*
Y-117745D01*
X-31727D01*
X-32127Y-118146D01*
X-32527Y-117745D01*
X-32927D01*
Y-118146D01*
X-32527Y-118545D01*
X-32927Y-118946D01*
Y-119345D01*
X-30427Y-115015D02*
X-30027D01*
X-29627Y-114615D01*
X-29227Y-115015D01*
X-28827D01*
Y-114615D01*
X-29227Y-114215D01*
X-28827Y-113815D01*
Y-113415D01*
X-29227D01*
X-29627Y-113815D01*
X-30027Y-113415D01*
X-30427D01*
Y-113815D01*
X-30027Y-114215D01*
X-30427Y-114615D01*
Y-115015D01*
X-36863Y-117073D02*
X-36463D01*
X-36064Y-116673D01*
X-35664Y-117073D01*
X-35263D01*
Y-116673D01*
X-35664Y-116273D01*
X-35263Y-115873D01*
Y-115473D01*
X-35664D01*
X-36064Y-115873D01*
X-36463Y-115473D01*
X-36863D01*
Y-115873D01*
X-36463Y-116273D01*
X-36863Y-116673D01*
Y-117073D01*
X-34363Y-112743D02*
X-33964D01*
X-33564Y-112343D01*
X-33163Y-112743D01*
X-32763D01*
Y-112343D01*
X-33163Y-111943D01*
X-32763Y-111543D01*
Y-111143D01*
X-33163D01*
X-33564Y-111543D01*
X-33964Y-111143D01*
X-34363D01*
Y-111543D01*
X-33964Y-111943D01*
X-34363Y-112343D01*
Y-112743D01*
X-40800Y-114800D02*
X-40400D01*
X-40000Y-114400D01*
X-39600Y-114800D01*
X-39200D01*
Y-114400D01*
X-39600Y-114000D01*
X-39200Y-113600D01*
Y-113200D01*
X-39600D01*
X-40000Y-113600D01*
X-40400Y-113200D01*
X-40800D01*
Y-113600D01*
X-40400Y-114000D01*
X-40800Y-114400D01*
Y-114800D01*
X-38300Y-110470D02*
X-37900D01*
X-37500Y-110070D01*
X-37100Y-110470D01*
X-36700D01*
Y-110070D01*
X-37100Y-109670D01*
X-36700Y-109270D01*
Y-108870D01*
X-37100D01*
X-37500Y-109270D01*
X-37900Y-108870D01*
X-38300D01*
Y-109270D01*
X-37900Y-109670D01*
X-38300Y-110070D01*
Y-110470D01*
X-36470Y80399D02*
X-36070D01*
X-35670Y80799D01*
X-35270Y80399D01*
X-34870D01*
Y80799D01*
X-35270Y81199D01*
X-34870Y81599D01*
Y81999D01*
X-35270D01*
X-35670Y81599D01*
X-36070Y81999D01*
X-36470D01*
Y81599D01*
X-36070Y81199D01*
X-36470Y80799D01*
Y80399D01*
X-40800Y82899D02*
X-40400D01*
X-40000Y83299D01*
X-39600Y82899D01*
X-39200D01*
Y83299D01*
X-39600Y83699D01*
X-39200Y84099D01*
Y84499D01*
X-39600D01*
X-40000Y84099D01*
X-40400Y84499D01*
X-40800D01*
Y84099D01*
X-40400Y83699D01*
X-40800Y83299D01*
Y82899D01*
X-38527Y86835D02*
X-38127D01*
X-37727Y87235D01*
X-37327Y86835D01*
X-36927D01*
Y87235D01*
X-37327Y87635D01*
X-36927Y88035D01*
Y88435D01*
X-37327D01*
X-37727Y88035D01*
X-38127Y88435D01*
X-38527D01*
Y88035D01*
X-38127Y87635D01*
X-38527Y87235D01*
Y86835D01*
X-34197Y84335D02*
X-33797D01*
X-33397Y84735D01*
X-32997Y84335D01*
X-32597D01*
Y84735D01*
X-32997Y85135D01*
X-32597Y85535D01*
Y85935D01*
X-32997D01*
X-33397Y85535D01*
X-33797Y85935D01*
X-34197D01*
Y85535D01*
X-33797Y85135D01*
X-34197Y84735D01*
Y84335D01*
X-36255Y90772D02*
X-35855D01*
X-35454Y91172D01*
X-35054Y90772D01*
X-34655D01*
Y91172D01*
X-35054Y91572D01*
X-34655Y91972D01*
Y92372D01*
X-35054D01*
X-35454Y91972D01*
X-35855Y92372D01*
X-36255D01*
Y91972D01*
X-35855Y91572D01*
X-36255Y91172D01*
Y90772D01*
X-31924Y88272D02*
X-31524D01*
X-31124Y88672D01*
X-30724Y88272D01*
X-30324D01*
Y88672D01*
X-30724Y89072D01*
X-30324Y89472D01*
Y89872D01*
X-30724D01*
X-31124Y89472D01*
X-31524Y89872D01*
X-31924D01*
Y89472D01*
X-31524Y89072D01*
X-31924Y88672D01*
Y88272D01*
X-33982Y94708D02*
X-33582D01*
X-33182Y95108D01*
X-32782Y94708D01*
X-32382D01*
Y95108D01*
X-32782Y95508D01*
X-32382Y95908D01*
Y96308D01*
X-32782D01*
X-33182Y95908D01*
X-33582Y96308D01*
X-33982D01*
Y95908D01*
X-33582Y95508D01*
X-33982Y95108D01*
Y94708D01*
X-29652Y92208D02*
X-29252D01*
X-28852Y92608D01*
X-28452Y92208D01*
X-28052D01*
Y92608D01*
X-28452Y93008D01*
X-28052Y93408D01*
Y93808D01*
X-28452D01*
X-28852Y93408D01*
X-29252Y93808D01*
X-29652D01*
Y93408D01*
X-29252Y93008D01*
X-29652Y92608D01*
Y92208D01*
X-31709Y98645D02*
X-31309D01*
X-30909Y99045D01*
X-30509Y98645D01*
X-30109D01*
Y99045D01*
X-30509Y99445D01*
X-30109Y99845D01*
Y100245D01*
X-30509D01*
X-30909Y99845D01*
X-31309Y100245D01*
X-31709D01*
Y99845D01*
X-31309Y99445D01*
X-31709Y99045D01*
Y98645D01*
X-27379Y96145D02*
X-26979D01*
X-26579Y96545D01*
X-26179Y96145D01*
X-25779D01*
Y96545D01*
X-26179Y96945D01*
X-25779Y97345D01*
Y97745D01*
X-26179D01*
X-26579Y97345D01*
X-26979Y97745D01*
X-27379D01*
Y97345D01*
X-26979Y96945D01*
X-27379Y96545D01*
Y96145D01*
X-29436Y102581D02*
X-29036D01*
X-28636Y102981D01*
X-28236Y102581D01*
X-27836D01*
Y102981D01*
X-28236Y103381D01*
X-27836Y103781D01*
Y104181D01*
X-28236D01*
X-28636Y103781D01*
X-29036Y104181D01*
X-29436D01*
Y103781D01*
X-29036Y103381D01*
X-29436Y102981D01*
Y102581D01*
X-25106Y100081D02*
X-24706D01*
X-24306Y100481D01*
X-23906Y100081D01*
X-23506D01*
Y100481D01*
X-23906Y100881D01*
X-23506Y101281D01*
Y101681D01*
X-23906D01*
X-24306Y101281D01*
X-24706Y101681D01*
X-25106D01*
Y101281D01*
X-24706Y100881D01*
X-25106Y100481D01*
Y100081D01*
X-27164Y106518D02*
X-26764D01*
X-26364Y106918D01*
X-25964Y106518D01*
X-25564D01*
Y106918D01*
X-25964Y107318D01*
X-25564Y107718D01*
Y108118D01*
X-25964D01*
X-26364Y107718D01*
X-26764Y108118D01*
X-27164D01*
Y107718D01*
X-26764Y107318D01*
X-27164Y106918D01*
Y106518D01*
X-22833Y104018D02*
X-22433D01*
X-22034Y104418D01*
X-21633Y104018D01*
X-21234D01*
Y104418D01*
X-21633Y104818D01*
X-21234Y105218D01*
Y105618D01*
X-21633D01*
X-22034Y105218D01*
X-22433Y105618D01*
X-22833D01*
Y105218D01*
X-22433Y104818D01*
X-22833Y104418D01*
Y104018D01*
X-24891Y110454D02*
X-24491D01*
X-24091Y110854D01*
X-23691Y110454D01*
X-23291D01*
Y110854D01*
X-23691Y111254D01*
X-23291Y111654D01*
Y112054D01*
X-23691D01*
X-24091Y111654D01*
X-24491Y112054D01*
X-24891D01*
Y111654D01*
X-24491Y111254D01*
X-24891Y110854D01*
Y110454D01*
X-20561Y107954D02*
X-20161D01*
X-19761Y108354D01*
X-19361Y107954D01*
X-18961D01*
Y108354D01*
X-19361Y108754D01*
X-18961Y109154D01*
Y109554D01*
X-19361D01*
X-19761Y109154D01*
X-20161Y109554D01*
X-20561D01*
Y109154D01*
X-20161Y108754D01*
X-20561Y108354D01*
Y107954D01*
X-22618Y114391D02*
X-22218D01*
X-21818Y114791D01*
X-21418Y114391D01*
X-21018D01*
Y114791D01*
X-21418Y115191D01*
X-21018Y115591D01*
Y115991D01*
X-21418D01*
X-21818Y115591D01*
X-22218Y115991D01*
X-22618D01*
Y115591D01*
X-22218Y115191D01*
X-22618Y114791D01*
Y114391D01*
X-18288Y111891D02*
X-17888D01*
X-17488Y112291D01*
X-17088Y111891D01*
X-16688D01*
Y112291D01*
X-17088Y112691D01*
X-16688Y113091D01*
Y113491D01*
X-17088D01*
X-17488Y113091D01*
X-17888Y113491D01*
X-18288D01*
Y113091D01*
X-17888Y112691D01*
X-18288Y112291D01*
Y111891D01*
X-20345Y118327D02*
X-19945D01*
X-19545Y118727D01*
X-19145Y118327D01*
X-18745D01*
Y118727D01*
X-19145Y119127D01*
X-18745Y119527D01*
Y119927D01*
X-19145D01*
X-19545Y119527D01*
X-19945Y119927D01*
X-20345D01*
Y119527D01*
X-19945Y119127D01*
X-20345Y118727D01*
Y118327D01*
X-16015Y115827D02*
X-15615D01*
X-15215Y116227D01*
X-14815Y115827D01*
X-14415D01*
Y116227D01*
X-14815Y116627D01*
X-14415Y117027D01*
Y117427D01*
X-14815D01*
X-15215Y117027D01*
X-15615Y117427D01*
X-16015D01*
Y117027D01*
X-15615Y116627D01*
X-16015Y116227D01*
Y115827D01*
X-18073Y122264D02*
X-17673D01*
X-17273Y122663D01*
X-16873Y122264D01*
X-16473D01*
Y122663D01*
X-16873Y123064D01*
X-16473Y123463D01*
Y123863D01*
X-16873D01*
X-17273Y123463D01*
X-17673Y123863D01*
X-18073D01*
Y123463D01*
X-17673Y123064D01*
X-18073Y122663D01*
Y122264D01*
X-13743Y119764D02*
X-13343D01*
X-12943Y120164D01*
X-12543Y119764D01*
X-12143D01*
Y120164D01*
X-12543Y120563D01*
X-12143Y120964D01*
Y121363D01*
X-12543D01*
X-12943Y120964D01*
X-13343Y121363D01*
X-13743D01*
Y120964D01*
X-13343Y120563D01*
X-13743Y120164D01*
Y119764D01*
X-15800Y126200D02*
X-15400D01*
X-15000Y126600D01*
X-14600Y126200D01*
X-14200D01*
Y126600D01*
X-14600Y127000D01*
X-14200Y127400D01*
Y127800D01*
X-14600D01*
X-15000Y127400D01*
X-15400Y127800D01*
X-15800D01*
Y127400D01*
X-15400Y127000D01*
X-15800Y126600D01*
Y126200D01*
X-11470Y123700D02*
X-11070D01*
X-10670Y124100D01*
X-10270Y123700D01*
X-9870D01*
Y124100D01*
X-10270Y124500D01*
X-9870Y124900D01*
Y125300D01*
X-10270D01*
X-10670Y124900D01*
X-11070Y125300D01*
X-11470D01*
Y124900D01*
X-11070Y124500D01*
X-11470Y124100D01*
Y123700D01*
X-134800Y25700D02*
X-134400D01*
X-134000Y26100D01*
X-133600Y25700D01*
X-133200D01*
Y26100D01*
X-133600Y26500D01*
X-133200Y26900D01*
Y27300D01*
X-133600D01*
X-134000Y26900D01*
X-134400Y27300D01*
X-134800D01*
Y26900D01*
X-134400Y26500D01*
X-134800Y26100D01*
Y25700D01*
X-129800D02*
X-129400D01*
X-129000Y26100D01*
X-128600Y25700D01*
X-128200D01*
Y26100D01*
X-128600Y26500D01*
X-128200Y26900D01*
Y27300D01*
X-128600D01*
X-129000Y26900D01*
X-129400Y27300D01*
X-129800D01*
Y26900D01*
X-129400Y26500D01*
X-129800Y26100D01*
Y25700D01*
Y21155D02*
X-129400D01*
X-129000Y21554D01*
X-128600Y21155D01*
X-128200D01*
Y21554D01*
X-128600Y21955D01*
X-128200Y22354D01*
Y22754D01*
X-128600D01*
X-129000Y22354D01*
X-129400Y22754D01*
X-129800D01*
Y22354D01*
X-129400Y21955D01*
X-129800Y21554D01*
Y21155D01*
X-134800D02*
X-134400D01*
X-134000Y21554D01*
X-133600Y21155D01*
X-133200D01*
Y21554D01*
X-133600Y21955D01*
X-133200Y22354D01*
Y22754D01*
X-133600D01*
X-134000Y22354D01*
X-134400Y22754D01*
X-134800D01*
Y22354D01*
X-134400Y21955D01*
X-134800Y21554D01*
Y21155D01*
X-129800Y16609D02*
X-129400D01*
X-129000Y17009D01*
X-128600Y16609D01*
X-128200D01*
Y17009D01*
X-128600Y17409D01*
X-128200Y17809D01*
Y18209D01*
X-128600D01*
X-129000Y17809D01*
X-129400Y18209D01*
X-129800D01*
Y17809D01*
X-129400Y17409D01*
X-129800Y17009D01*
Y16609D01*
X-134800D02*
X-134400D01*
X-134000Y17009D01*
X-133600Y16609D01*
X-133200D01*
Y17009D01*
X-133600Y17409D01*
X-133200Y17809D01*
Y18209D01*
X-133600D01*
X-134000Y17809D01*
X-134400Y18209D01*
X-134800D01*
Y17809D01*
X-134400Y17409D01*
X-134800Y17009D01*
Y16609D01*
X-129800Y12064D02*
X-129400D01*
X-129000Y12464D01*
X-128600Y12064D01*
X-128200D01*
Y12464D01*
X-128600Y12864D01*
X-128200Y13264D01*
Y13664D01*
X-128600D01*
X-129000Y13264D01*
X-129400Y13664D01*
X-129800D01*
Y13264D01*
X-129400Y12864D01*
X-129800Y12464D01*
Y12064D01*
X-134800D02*
X-134400D01*
X-134000Y12464D01*
X-133600Y12064D01*
X-133200D01*
Y12464D01*
X-133600Y12864D01*
X-133200Y13264D01*
Y13664D01*
X-133600D01*
X-134000Y13264D01*
X-134400Y13664D01*
X-134800D01*
Y13264D01*
X-134400Y12864D01*
X-134800Y12464D01*
Y12064D01*
X-129800Y7518D02*
X-129400D01*
X-129000Y7918D01*
X-128600Y7518D01*
X-128200D01*
Y7918D01*
X-128600Y8318D01*
X-128200Y8718D01*
Y9118D01*
X-128600D01*
X-129000Y8718D01*
X-129400Y9118D01*
X-129800D01*
Y8718D01*
X-129400Y8318D01*
X-129800Y7918D01*
Y7518D01*
X-134800D02*
X-134400D01*
X-134000Y7918D01*
X-133600Y7518D01*
X-133200D01*
Y7918D01*
X-133600Y8318D01*
X-133200Y8718D01*
Y9118D01*
X-133600D01*
X-134000Y8718D01*
X-134400Y9118D01*
X-134800D01*
Y8718D01*
X-134400Y8318D01*
X-134800Y7918D01*
Y7518D01*
X-129800Y2973D02*
X-129400D01*
X-129000Y3373D01*
X-128600Y2973D01*
X-128200D01*
Y3373D01*
X-128600Y3773D01*
X-128200Y4173D01*
Y4573D01*
X-128600D01*
X-129000Y4173D01*
X-129400Y4573D01*
X-129800D01*
Y4173D01*
X-129400Y3773D01*
X-129800Y3373D01*
Y2973D01*
X-134800D02*
X-134400D01*
X-134000Y3373D01*
X-133600Y2973D01*
X-133200D01*
Y3373D01*
X-133600Y3773D01*
X-133200Y4173D01*
Y4573D01*
X-133600D01*
X-134000Y4173D01*
X-134400Y4573D01*
X-134800D01*
Y4173D01*
X-134400Y3773D01*
X-134800Y3373D01*
Y2973D01*
X-129800Y-1573D02*
X-129400D01*
X-129000Y-1173D01*
X-128600Y-1573D01*
X-128200D01*
Y-1173D01*
X-128600Y-773D01*
X-128200Y-373D01*
Y27D01*
X-128600D01*
X-129000Y-373D01*
X-129400Y27D01*
X-129800D01*
Y-373D01*
X-129400Y-773D01*
X-129800Y-1173D01*
Y-1573D01*
X-134800D02*
X-134400D01*
X-134000Y-1173D01*
X-133600Y-1573D01*
X-133200D01*
Y-1173D01*
X-133600Y-773D01*
X-133200Y-373D01*
Y27D01*
X-133600D01*
X-134000Y-373D01*
X-134400Y27D01*
X-134800D01*
Y-373D01*
X-134400Y-773D01*
X-134800Y-1173D01*
Y-1573D01*
X-129800Y-6118D02*
X-129400D01*
X-129000Y-5718D01*
X-128600Y-6118D01*
X-128200D01*
Y-5718D01*
X-128600Y-5318D01*
X-128200Y-4918D01*
Y-4518D01*
X-128600D01*
X-129000Y-4918D01*
X-129400Y-4518D01*
X-129800D01*
Y-4918D01*
X-129400Y-5318D01*
X-129800Y-5718D01*
Y-6118D01*
X-134800D02*
X-134400D01*
X-134000Y-5718D01*
X-133600Y-6118D01*
X-133200D01*
Y-5718D01*
X-133600Y-5318D01*
X-133200Y-4918D01*
Y-4518D01*
X-133600D01*
X-134000Y-4918D01*
X-134400Y-4518D01*
X-134800D01*
Y-4918D01*
X-134400Y-5318D01*
X-134800Y-5718D01*
Y-6118D01*
X-129800Y-10664D02*
X-129400D01*
X-129000Y-10264D01*
X-128600Y-10664D01*
X-128200D01*
Y-10264D01*
X-128600Y-9864D01*
X-128200Y-9464D01*
Y-9064D01*
X-128600D01*
X-129000Y-9464D01*
X-129400Y-9064D01*
X-129800D01*
Y-9464D01*
X-129400Y-9864D01*
X-129800Y-10264D01*
Y-10664D01*
X-134800D02*
X-134400D01*
X-134000Y-10264D01*
X-133600Y-10664D01*
X-133200D01*
Y-10264D01*
X-133600Y-9864D01*
X-133200Y-9464D01*
Y-9064D01*
X-133600D01*
X-134000Y-9464D01*
X-134400Y-9064D01*
X-134800D01*
Y-9464D01*
X-134400Y-9864D01*
X-134800Y-10264D01*
Y-10664D01*
X-129800Y-15209D02*
X-129400D01*
X-129000Y-14809D01*
X-128600Y-15209D01*
X-128200D01*
Y-14809D01*
X-128600Y-14409D01*
X-128200Y-14009D01*
Y-13609D01*
X-128600D01*
X-129000Y-14009D01*
X-129400Y-13609D01*
X-129800D01*
Y-14009D01*
X-129400Y-14409D01*
X-129800Y-14809D01*
Y-15209D01*
X-134800D02*
X-134400D01*
X-134000Y-14809D01*
X-133600Y-15209D01*
X-133200D01*
Y-14809D01*
X-133600Y-14409D01*
X-133200Y-14009D01*
Y-13609D01*
X-133600D01*
X-134000Y-14009D01*
X-134400Y-13609D01*
X-134800D01*
Y-14009D01*
X-134400Y-14409D01*
X-134800Y-14809D01*
Y-15209D01*
X-129800Y-19755D02*
X-129400D01*
X-129000Y-19355D01*
X-128600Y-19755D01*
X-128200D01*
Y-19355D01*
X-128600Y-18955D01*
X-128200Y-18555D01*
Y-18155D01*
X-128600D01*
X-129000Y-18555D01*
X-129400Y-18155D01*
X-129800D01*
Y-18555D01*
X-129400Y-18955D01*
X-129800Y-19355D01*
Y-19755D01*
X-134800D02*
X-134400D01*
X-134000Y-19355D01*
X-133600Y-19755D01*
X-133200D01*
Y-19355D01*
X-133600Y-18955D01*
X-133200Y-18555D01*
Y-18155D01*
X-133600D01*
X-134000Y-18555D01*
X-134400Y-18155D01*
X-134800D01*
Y-18555D01*
X-134400Y-18955D01*
X-134800Y-19355D01*
Y-19755D01*
X-129800Y-24300D02*
X-129400D01*
X-129000Y-23900D01*
X-128600Y-24300D01*
X-128200D01*
Y-23900D01*
X-128600Y-23500D01*
X-128200Y-23100D01*
Y-22700D01*
X-128600D01*
X-129000Y-23100D01*
X-129400Y-22700D01*
X-129800D01*
Y-23100D01*
X-129400Y-23500D01*
X-129800Y-23900D01*
Y-24300D01*
X-134800D02*
X-134400D01*
X-134000Y-23900D01*
X-133600Y-24300D01*
X-133200D01*
Y-23900D01*
X-133600Y-23500D01*
X-133200Y-23100D01*
Y-22700D01*
X-133600D01*
X-134000Y-23100D01*
X-134400Y-22700D01*
X-134800D01*
Y-23100D01*
X-134400Y-23500D01*
X-134800Y-23900D01*
Y-24300D01*
X-84800Y-40800D02*
X-84400D01*
X-84000Y-40400D01*
X-83600Y-40800D01*
X-83200D01*
Y-40400D01*
X-83600Y-40000D01*
X-83200Y-39600D01*
Y-39200D01*
X-83600D01*
X-84000Y-39600D01*
X-84400Y-39200D01*
X-84800D01*
Y-39600D01*
X-84400Y-40000D01*
X-84800Y-40400D01*
Y-40800D01*
X-79800D02*
X-79400D01*
X-79000Y-40400D01*
X-78600Y-40800D01*
X-78200D01*
Y-40400D01*
X-78600Y-40000D01*
X-78200Y-39600D01*
Y-39200D01*
X-78600D01*
X-79000Y-39600D01*
X-79400Y-39200D01*
X-79800D01*
Y-39600D01*
X-79400Y-40000D01*
X-79800Y-40400D01*
Y-40800D01*
X-74800D02*
X-74400D01*
X-74000Y-40400D01*
X-73600Y-40800D01*
X-73200D01*
Y-40400D01*
X-73600Y-40000D01*
X-73200Y-39600D01*
Y-39200D01*
X-73600D01*
X-74000Y-39600D01*
X-74400Y-39200D01*
X-74800D01*
Y-39600D01*
X-74400Y-40000D01*
X-74800Y-40400D01*
Y-40800D01*
X-84800Y-36255D02*
X-84400D01*
X-84000Y-35855D01*
X-83600Y-36255D01*
X-83200D01*
Y-35855D01*
X-83600Y-35455D01*
X-83200Y-35055D01*
Y-34655D01*
X-83600D01*
X-84000Y-35055D01*
X-84400Y-34655D01*
X-84800D01*
Y-35055D01*
X-84400Y-35455D01*
X-84800Y-35855D01*
Y-36255D01*
X-79800D02*
X-79400D01*
X-79000Y-35855D01*
X-78600Y-36255D01*
X-78200D01*
Y-35855D01*
X-78600Y-35455D01*
X-78200Y-35055D01*
Y-34655D01*
X-78600D01*
X-79000Y-35055D01*
X-79400Y-34655D01*
X-79800D01*
Y-35055D01*
X-79400Y-35455D01*
X-79800Y-35855D01*
Y-36255D01*
X-74800D02*
X-74400D01*
X-74000Y-35855D01*
X-73600Y-36255D01*
X-73200D01*
Y-35855D01*
X-73600Y-35455D01*
X-73200Y-35055D01*
Y-34655D01*
X-73600D01*
X-74000Y-35055D01*
X-74400Y-34655D01*
X-74800D01*
Y-35055D01*
X-74400Y-35455D01*
X-74800Y-35855D01*
Y-36255D01*
X-84800Y-31709D02*
X-84400D01*
X-84000Y-31309D01*
X-83600Y-31709D01*
X-83200D01*
Y-31309D01*
X-83600Y-30909D01*
X-83200Y-30509D01*
Y-30109D01*
X-83600D01*
X-84000Y-30509D01*
X-84400Y-30109D01*
X-84800D01*
Y-30509D01*
X-84400Y-30909D01*
X-84800Y-31309D01*
Y-31709D01*
X-79800D02*
X-79400D01*
X-79000Y-31309D01*
X-78600Y-31709D01*
X-78200D01*
Y-31309D01*
X-78600Y-30909D01*
X-78200Y-30509D01*
Y-30109D01*
X-78600D01*
X-79000Y-30509D01*
X-79400Y-30109D01*
X-79800D01*
Y-30509D01*
X-79400Y-30909D01*
X-79800Y-31309D01*
Y-31709D01*
X-74800D02*
X-74400D01*
X-74000Y-31309D01*
X-73600Y-31709D01*
X-73200D01*
Y-31309D01*
X-73600Y-30909D01*
X-73200Y-30509D01*
Y-30109D01*
X-73600D01*
X-74000Y-30509D01*
X-74400Y-30109D01*
X-74800D01*
Y-30509D01*
X-74400Y-30909D01*
X-74800Y-31309D01*
Y-31709D01*
X-84800Y-27164D02*
X-84400D01*
X-84000Y-26764D01*
X-83600Y-27164D01*
X-83200D01*
Y-26764D01*
X-83600Y-26364D01*
X-83200Y-25964D01*
Y-25564D01*
X-83600D01*
X-84000Y-25964D01*
X-84400Y-25564D01*
X-84800D01*
Y-25964D01*
X-84400Y-26364D01*
X-84800Y-26764D01*
Y-27164D01*
X-79800D02*
X-79400D01*
X-79000Y-26764D01*
X-78600Y-27164D01*
X-78200D01*
Y-26764D01*
X-78600Y-26364D01*
X-78200Y-25964D01*
Y-25564D01*
X-78600D01*
X-79000Y-25964D01*
X-79400Y-25564D01*
X-79800D01*
Y-25964D01*
X-79400Y-26364D01*
X-79800Y-26764D01*
Y-27164D01*
X-74800D02*
X-74400D01*
X-74000Y-26764D01*
X-73600Y-27164D01*
X-73200D01*
Y-26764D01*
X-73600Y-26364D01*
X-73200Y-25964D01*
Y-25564D01*
X-73600D01*
X-74000Y-25964D01*
X-74400Y-25564D01*
X-74800D01*
Y-25964D01*
X-74400Y-26364D01*
X-74800Y-26764D01*
Y-27164D01*
X-84800Y-22618D02*
X-84400D01*
X-84000Y-22218D01*
X-83600Y-22618D01*
X-83200D01*
Y-22218D01*
X-83600Y-21818D01*
X-83200Y-21418D01*
Y-21018D01*
X-83600D01*
X-84000Y-21418D01*
X-84400Y-21018D01*
X-84800D01*
Y-21418D01*
X-84400Y-21818D01*
X-84800Y-22218D01*
Y-22618D01*
X-79800D02*
X-79400D01*
X-79000Y-22218D01*
X-78600Y-22618D01*
X-78200D01*
Y-22218D01*
X-78600Y-21818D01*
X-78200Y-21418D01*
Y-21018D01*
X-78600D01*
X-79000Y-21418D01*
X-79400Y-21018D01*
X-79800D01*
Y-21418D01*
X-79400Y-21818D01*
X-79800Y-22218D01*
Y-22618D01*
X-74800D02*
X-74400D01*
X-74000Y-22218D01*
X-73600Y-22618D01*
X-73200D01*
Y-22218D01*
X-73600Y-21818D01*
X-73200Y-21418D01*
Y-21018D01*
X-73600D01*
X-74000Y-21418D01*
X-74400Y-21018D01*
X-74800D01*
Y-21418D01*
X-74400Y-21818D01*
X-74800Y-22218D01*
Y-22618D01*
X-84800Y-18073D02*
X-84400D01*
X-84000Y-17673D01*
X-83600Y-18073D01*
X-83200D01*
Y-17673D01*
X-83600Y-17273D01*
X-83200Y-16873D01*
Y-16473D01*
X-83600D01*
X-84000Y-16873D01*
X-84400Y-16473D01*
X-84800D01*
Y-16873D01*
X-84400Y-17273D01*
X-84800Y-17673D01*
Y-18073D01*
X-79800D02*
X-79400D01*
X-79000Y-17673D01*
X-78600Y-18073D01*
X-78200D01*
Y-17673D01*
X-78600Y-17273D01*
X-78200Y-16873D01*
Y-16473D01*
X-78600D01*
X-79000Y-16873D01*
X-79400Y-16473D01*
X-79800D01*
Y-16873D01*
X-79400Y-17273D01*
X-79800Y-17673D01*
Y-18073D01*
X-74800D02*
X-74400D01*
X-74000Y-17673D01*
X-73600Y-18073D01*
X-73200D01*
Y-17673D01*
X-73600Y-17273D01*
X-73200Y-16873D01*
Y-16473D01*
X-73600D01*
X-74000Y-16873D01*
X-74400Y-16473D01*
X-74800D01*
Y-16873D01*
X-74400Y-17273D01*
X-74800Y-17673D01*
Y-18073D01*
X-84800Y-13527D02*
X-84400D01*
X-84000Y-13127D01*
X-83600Y-13527D01*
X-83200D01*
Y-13127D01*
X-83600Y-12727D01*
X-83200Y-12327D01*
Y-11927D01*
X-83600D01*
X-84000Y-12327D01*
X-84400Y-11927D01*
X-84800D01*
Y-12327D01*
X-84400Y-12727D01*
X-84800Y-13127D01*
Y-13527D01*
X-79800D02*
X-79400D01*
X-79000Y-13127D01*
X-78600Y-13527D01*
X-78200D01*
Y-13127D01*
X-78600Y-12727D01*
X-78200Y-12327D01*
Y-11927D01*
X-78600D01*
X-79000Y-12327D01*
X-79400Y-11927D01*
X-79800D01*
Y-12327D01*
X-79400Y-12727D01*
X-79800Y-13127D01*
Y-13527D01*
X-74800D02*
X-74400D01*
X-74000Y-13127D01*
X-73600Y-13527D01*
X-73200D01*
Y-13127D01*
X-73600Y-12727D01*
X-73200Y-12327D01*
Y-11927D01*
X-73600D01*
X-74000Y-12327D01*
X-74400Y-11927D01*
X-74800D01*
Y-12327D01*
X-74400Y-12727D01*
X-74800Y-13127D01*
Y-13527D01*
X-84800Y-8982D02*
X-84400D01*
X-84000Y-8582D01*
X-83600Y-8982D01*
X-83200D01*
Y-8582D01*
X-83600Y-8182D01*
X-83200Y-7782D01*
Y-7382D01*
X-83600D01*
X-84000Y-7782D01*
X-84400Y-7382D01*
X-84800D01*
Y-7782D01*
X-84400Y-8182D01*
X-84800Y-8582D01*
Y-8982D01*
X-79800D02*
X-79400D01*
X-79000Y-8582D01*
X-78600Y-8982D01*
X-78200D01*
Y-8582D01*
X-78600Y-8182D01*
X-78200Y-7782D01*
Y-7382D01*
X-78600D01*
X-79000Y-7782D01*
X-79400Y-7382D01*
X-79800D01*
Y-7782D01*
X-79400Y-8182D01*
X-79800Y-8582D01*
Y-8982D01*
X-74800D02*
X-74400D01*
X-74000Y-8582D01*
X-73600Y-8982D01*
X-73200D01*
Y-8582D01*
X-73600Y-8182D01*
X-73200Y-7782D01*
Y-7382D01*
X-73600D01*
X-74000Y-7782D01*
X-74400Y-7382D01*
X-74800D01*
Y-7782D01*
X-74400Y-8182D01*
X-74800Y-8582D01*
Y-8982D01*
X-84800Y-4436D02*
X-84400D01*
X-84000Y-4036D01*
X-83600Y-4436D01*
X-83200D01*
Y-4036D01*
X-83600Y-3636D01*
X-83200Y-3236D01*
Y-2836D01*
X-83600D01*
X-84000Y-3236D01*
X-84400Y-2836D01*
X-84800D01*
Y-3236D01*
X-84400Y-3636D01*
X-84800Y-4036D01*
Y-4436D01*
X-79800D02*
X-79400D01*
X-79000Y-4036D01*
X-78600Y-4436D01*
X-78200D01*
Y-4036D01*
X-78600Y-3636D01*
X-78200Y-3236D01*
Y-2836D01*
X-78600D01*
X-79000Y-3236D01*
X-79400Y-2836D01*
X-79800D01*
Y-3236D01*
X-79400Y-3636D01*
X-79800Y-4036D01*
Y-4436D01*
X-74800D02*
X-74400D01*
X-74000Y-4036D01*
X-73600Y-4436D01*
X-73200D01*
Y-4036D01*
X-73600Y-3636D01*
X-73200Y-3236D01*
Y-2836D01*
X-73600D01*
X-74000Y-3236D01*
X-74400Y-2836D01*
X-74800D01*
Y-3236D01*
X-74400Y-3636D01*
X-74800Y-4036D01*
Y-4436D01*
X-84800Y109D02*
X-84400D01*
X-84000Y509D01*
X-83600Y109D01*
X-83200D01*
Y509D01*
X-83600Y909D01*
X-83200Y1309D01*
Y1709D01*
X-83600D01*
X-84000Y1309D01*
X-84400Y1709D01*
X-84800D01*
Y1309D01*
X-84400Y909D01*
X-84800Y509D01*
Y109D01*
X-79800D02*
X-79400D01*
X-79000Y509D01*
X-78600Y109D01*
X-78200D01*
Y509D01*
X-78600Y909D01*
X-78200Y1309D01*
Y1709D01*
X-78600D01*
X-79000Y1309D01*
X-79400Y1709D01*
X-79800D01*
Y1309D01*
X-79400Y909D01*
X-79800Y509D01*
Y109D01*
X-74800D02*
X-74400D01*
X-74000Y509D01*
X-73600Y109D01*
X-73200D01*
Y509D01*
X-73600Y909D01*
X-73200Y1309D01*
Y1709D01*
X-73600D01*
X-74000Y1309D01*
X-74400Y1709D01*
X-74800D01*
Y1309D01*
X-74400Y909D01*
X-74800Y509D01*
Y109D01*
X-84800Y4654D02*
X-84400D01*
X-84000Y5054D01*
X-83600Y4654D01*
X-83200D01*
Y5054D01*
X-83600Y5455D01*
X-83200Y5855D01*
Y6255D01*
X-83600D01*
X-84000Y5855D01*
X-84400Y6255D01*
X-84800D01*
Y5855D01*
X-84400Y5455D01*
X-84800Y5054D01*
Y4654D01*
X-79800D02*
X-79400D01*
X-79000Y5054D01*
X-78600Y4654D01*
X-78200D01*
Y5054D01*
X-78600Y5455D01*
X-78200Y5855D01*
Y6255D01*
X-78600D01*
X-79000Y5855D01*
X-79400Y6255D01*
X-79800D01*
Y5855D01*
X-79400Y5455D01*
X-79800Y5054D01*
Y4654D01*
X-74800D02*
X-74400D01*
X-74000Y5054D01*
X-73600Y4654D01*
X-73200D01*
Y5054D01*
X-73600Y5455D01*
X-73200Y5855D01*
Y6255D01*
X-73600D01*
X-74000Y5855D01*
X-74400Y6255D01*
X-74800D01*
Y5855D01*
X-74400Y5455D01*
X-74800Y5054D01*
Y4654D01*
Y9200D02*
X-74400D01*
X-74000Y9600D01*
X-73600Y9200D01*
X-73200D01*
Y9600D01*
X-73600Y10000D01*
X-73200Y10400D01*
Y10800D01*
X-73600D01*
X-74000Y10400D01*
X-74400Y10800D01*
X-74800D01*
Y10400D01*
X-74400Y10000D01*
X-74800Y9600D01*
Y9200D01*
X-79800D02*
X-79400D01*
X-79000Y9600D01*
X-78600Y9200D01*
X-78200D01*
Y9600D01*
X-78600Y10000D01*
X-78200Y10400D01*
Y10800D01*
X-78600D01*
X-79000Y10400D01*
X-79400Y10800D01*
X-79800D01*
Y10400D01*
X-79400Y10000D01*
X-79800Y9600D01*
Y9200D01*
X-84800D02*
X-84400D01*
X-84000Y9600D01*
X-83600Y9200D01*
X-83200D01*
Y9600D01*
X-83600Y10000D01*
X-83200Y10400D01*
Y10800D01*
X-83600D01*
X-84000Y10400D01*
X-84400Y10800D01*
X-84800D01*
Y10400D01*
X-84400Y10000D01*
X-84800Y9600D01*
Y9200D01*
X86700Y-78800D02*
X87100D01*
X87500Y-78400D01*
X87900Y-78800D01*
X88300D01*
Y-78400D01*
X87900Y-78000D01*
X88300Y-77600D01*
Y-77200D01*
X87900D01*
X87500Y-77600D01*
X87100Y-77200D01*
X86700D01*
Y-77600D01*
X87100Y-78000D01*
X86700Y-78400D01*
Y-78800D01*
X83200Y-83300D02*
X83600D01*
X84000Y-82900D01*
X84400Y-83300D01*
X84800D01*
Y-82900D01*
X84400Y-82500D01*
X84800Y-82100D01*
Y-81700D01*
X84400D01*
X84000Y-82100D01*
X83600Y-81700D01*
X83200D01*
Y-82100D01*
X83600Y-82500D01*
X83200Y-82900D01*
Y-83300D01*
X79700Y-87800D02*
X80100D01*
X80500Y-87400D01*
X80900Y-87800D01*
X81300D01*
Y-87400D01*
X80900Y-87000D01*
X81300Y-86600D01*
Y-86200D01*
X80900D01*
X80500Y-86600D01*
X80100Y-86200D01*
X79700D01*
Y-86600D01*
X80100Y-87000D01*
X79700Y-87400D01*
Y-87800D01*
X75200Y-93800D02*
X75600D01*
X76000Y-93400D01*
X76400Y-93800D01*
X76800D01*
Y-93400D01*
X76400Y-93000D01*
X76800Y-92600D01*
Y-92200D01*
X76400D01*
X76000Y-92600D01*
X75600Y-92200D01*
X75200D01*
Y-92600D01*
X75600Y-93000D01*
X75200Y-93400D01*
Y-93800D01*
X64700Y-96300D02*
X65100D01*
X65500Y-95900D01*
X65900Y-96300D01*
X66300D01*
Y-95900D01*
X65900Y-95500D01*
X66300Y-95100D01*
Y-94700D01*
X65900D01*
X65500Y-95100D01*
X65100Y-94700D01*
X64700D01*
Y-95100D01*
X65100Y-95500D01*
X64700Y-95900D01*
Y-96300D01*
X58700Y-93300D02*
X59100D01*
X59500Y-92900D01*
X59900Y-93300D01*
X60300D01*
Y-92900D01*
X59900Y-92500D01*
X60300Y-92100D01*
Y-91700D01*
X59900D01*
X59500Y-92100D01*
X59100Y-91700D01*
X58700D01*
Y-92100D01*
X59100Y-92500D01*
X58700Y-92900D01*
Y-93300D01*
X61700Y-94800D02*
X62100D01*
X62500Y-94400D01*
X62900Y-94800D01*
X63300D01*
Y-94400D01*
X62900Y-94000D01*
X63300Y-93600D01*
Y-93200D01*
X62900D01*
X62500Y-93600D01*
X62100Y-93200D01*
X61700D01*
Y-93600D01*
X62100Y-94000D01*
X61700Y-94400D01*
Y-94800D01*
X87700Y-49300D02*
X88100D01*
X88500Y-48900D01*
X88900Y-49300D01*
X89300D01*
Y-48900D01*
X88900Y-48500D01*
X89300Y-48100D01*
Y-47700D01*
X88900D01*
X88500Y-48100D01*
X88100Y-47700D01*
X87700D01*
Y-48100D01*
X88100Y-48500D01*
X87700Y-48900D01*
Y-49300D01*
X84700Y-47300D02*
X85100D01*
X85500Y-46900D01*
X85900Y-47300D01*
X86300D01*
Y-46900D01*
X85900Y-46500D01*
X86300Y-46100D01*
Y-45700D01*
X85900D01*
X85500Y-46100D01*
X85100Y-45700D01*
X84700D01*
Y-46100D01*
X85100Y-46500D01*
X84700Y-46900D01*
Y-47300D01*
X67200Y-30931D02*
X67600D01*
X68000Y-30531D01*
X68400Y-30931D01*
X68800D01*
Y-30531D01*
X68400Y-30131D01*
X68800Y-29731D01*
Y-29331D01*
X68400D01*
X68000Y-29731D01*
X67600Y-29331D01*
X67200D01*
Y-29731D01*
X67600Y-30131D01*
X67200Y-30531D01*
Y-30931D01*
D12*
X-56396Y-17465D02*
G03*
X-56396Y-17465I-800J0D01*
G01*
X-56373Y-33425D02*
G03*
X-56373Y-33425I-800J0D01*
G01*
X-54546Y-49492D02*
G03*
X-54546Y-49492I-800J0D01*
G01*
M02*
