G04*
G04 #@! TF.GenerationSoftware,Altium Limited,Altium Designer,21.1.1 (26)*
G04*
G04 Layer_Color=8388736*
%FSLAX25Y25*%
%MOIN*%
G70*
G04*
G04 #@! TF.SameCoordinates,FDC4DEE7-E93E-45EC-9828-44F572C0D175*
G04*
G04*
G04 #@! TF.FilePolarity,Negative*
G04*
G01*
G75*
G04:AMPARAMS|DCode=35|XSize=37.53mil|YSize=47.37mil|CornerRadius=0mil|HoleSize=0mil|Usage=FLASHONLY|Rotation=150.000|XOffset=0mil|YOffset=0mil|HoleType=Round|Shape=Rectangle|*
%AMROTATEDRECTD35*
4,1,4,0.02809,0.01113,0.00441,-0.02989,-0.02809,-0.01113,-0.00441,0.02989,0.02809,0.01113,0.0*
%
%ADD35ROTATEDRECTD35*%

G04:AMPARAMS|DCode=36|XSize=139.89mil|YSize=67.06mil|CornerRadius=0mil|HoleSize=0mil|Usage=FLASHONLY|Rotation=330.000|XOffset=0mil|YOffset=0mil|HoleType=Round|Shape=Rectangle|*
%AMROTATEDRECTD36*
4,1,4,-0.07734,0.00594,-0.04381,0.06401,0.07734,-0.00594,0.04381,-0.06401,-0.07734,0.00594,0.0*
%
%ADD36ROTATEDRECTD36*%

G04:AMPARAMS|DCode=37|XSize=139.89mil|YSize=67.06mil|CornerRadius=0mil|HoleSize=0mil|Usage=FLASHONLY|Rotation=60.000|XOffset=0mil|YOffset=0mil|HoleType=Round|Shape=Rectangle|*
%AMROTATEDRECTD37*
4,1,4,-0.00594,-0.07734,-0.06401,-0.04381,0.00594,0.07734,0.06401,0.04381,-0.00594,-0.07734,0.0*
%
%ADD37ROTATEDRECTD37*%

G04:AMPARAMS|DCode=38|XSize=100.56mil|YSize=108.43mil|CornerRadius=27.14mil|HoleSize=0mil|Usage=FLASHONLY|Rotation=0.000|XOffset=0mil|YOffset=0mil|HoleType=Round|Shape=RoundedRectangle|*
%AMROUNDEDRECTD38*
21,1,0.10056,0.05415,0,0,0.0*
21,1,0.04628,0.10843,0,0,0.0*
1,1,0.05428,0.02314,-0.02708*
1,1,0.05428,-0.02314,-0.02708*
1,1,0.05428,-0.02314,0.02708*
1,1,0.05428,0.02314,0.02708*
%
%ADD38ROUNDEDRECTD38*%
G04:AMPARAMS|DCode=39|XSize=37.53mil|YSize=47.37mil|CornerRadius=0mil|HoleSize=0mil|Usage=FLASHONLY|Rotation=240.000|XOffset=0mil|YOffset=0mil|HoleType=Round|Shape=Rectangle|*
%AMROTATEDRECTD39*
4,1,4,-0.01113,0.02809,0.02989,0.00441,0.01113,-0.02809,-0.02989,-0.00441,-0.01113,0.02809,0.0*
%
%ADD39ROTATEDRECTD39*%

G04:AMPARAMS|DCode=40|XSize=49.34mil|YSize=78.87mil|CornerRadius=0mil|HoleSize=0mil|Usage=FLASHONLY|Rotation=330.000|XOffset=0mil|YOffset=0mil|HoleType=Round|Shape=Rectangle|*
%AMROTATEDRECTD40*
4,1,4,-0.04108,-0.02182,-0.00165,0.04649,0.04108,0.02182,0.00165,-0.04649,-0.04108,-0.02182,0.0*
%
%ADD40ROTATEDRECTD40*%

%ADD41R,0.13989X0.06706*%
G04:AMPARAMS|DCode=42|XSize=45.4mil|YSize=65.09mil|CornerRadius=0mil|HoleSize=0mil|Usage=FLASHONLY|Rotation=60.000|XOffset=0mil|YOffset=0mil|HoleType=Round|Shape=Rectangle|*
%AMROTATEDRECTD42*
4,1,4,0.01683,-0.03593,-0.03953,-0.00339,-0.01683,0.03593,0.03953,0.00339,0.01683,-0.03593,0.0*
%
%ADD42ROTATEDRECTD42*%

G04:AMPARAMS|DCode=43|XSize=115.99mil|YSize=93mil|CornerRadius=0mil|HoleSize=0mil|Usage=FLASHONLY|Rotation=150.000|XOffset=0mil|YOffset=0mil|HoleType=Round|Shape=Rectangle|*
%AMROTATEDRECTD43*
4,1,4,0.07348,0.01127,0.02698,-0.06927,-0.07348,-0.01127,-0.02698,0.06927,0.07348,0.01127,0.0*
%
%ADD43ROTATEDRECTD43*%

G04:AMPARAMS|DCode=44|XSize=31.62mil|YSize=35.56mil|CornerRadius=0mil|HoleSize=0mil|Usage=FLASHONLY|Rotation=240.000|XOffset=0mil|YOffset=0mil|HoleType=Round|Shape=Rectangle|*
%AMROTATEDRECTD44*
4,1,4,-0.00749,0.02258,0.02330,0.00480,0.00749,-0.02258,-0.02330,-0.00480,-0.00749,0.02258,0.0*
%
%ADD44ROTATEDRECTD44*%

G04:AMPARAMS|DCode=45|XSize=47.37mil|YSize=35.56mil|CornerRadius=0mil|HoleSize=0mil|Usage=FLASHONLY|Rotation=240.000|XOffset=0mil|YOffset=0mil|HoleType=Round|Shape=Rectangle|*
%AMROTATEDRECTD45*
4,1,4,-0.00356,0.02940,0.02724,0.01162,0.00356,-0.02940,-0.02724,-0.01162,-0.00356,0.02940,0.0*
%
%ADD45ROTATEDRECTD45*%

G04:AMPARAMS|DCode=46|XSize=35.56mil|YSize=78.87mil|CornerRadius=0mil|HoleSize=0mil|Usage=FLASHONLY|Rotation=330.000|XOffset=0mil|YOffset=0mil|HoleType=Round|Shape=Round|*
%AMOVALD46*
21,1,0.04331,0.03556,0.00000,0.00000,60.0*
1,1,0.03556,-0.01083,-0.01875*
1,1,0.03556,0.01083,0.01875*
%
%ADD46OVALD46*%

G04:AMPARAMS|DCode=47|XSize=35.56mil|YSize=57.21mil|CornerRadius=0mil|HoleSize=0mil|Usage=FLASHONLY|Rotation=60.000|XOffset=0mil|YOffset=0mil|HoleType=Round|Shape=Rectangle|*
%AMROTATEDRECTD47*
4,1,4,0.01588,-0.02970,-0.03366,-0.00109,-0.01588,0.02970,0.03366,0.00109,0.01588,-0.02970,0.0*
%
%ADD47ROTATEDRECTD47*%

G04:AMPARAMS|DCode=48|XSize=31.62mil|YSize=47.37mil|CornerRadius=9.91mil|HoleSize=0mil|Usage=FLASHONLY|Rotation=60.000|XOffset=0mil|YOffset=0mil|HoleType=Round|Shape=RoundedRectangle|*
%AMROUNDEDRECTD48*
21,1,0.03162,0.02756,0,0,60.0*
21,1,0.01181,0.04737,0,0,60.0*
1,1,0.01981,0.01489,-0.00178*
1,1,0.01981,0.00898,-0.01200*
1,1,0.01981,-0.01489,0.00178*
1,1,0.01981,-0.00898,0.01200*
%
%ADD48ROUNDEDRECTD48*%
G04:AMPARAMS|DCode=49|XSize=145.8mil|YSize=106.42mil|CornerRadius=0mil|HoleSize=0mil|Usage=FLASHONLY|Rotation=150.000|XOffset=0mil|YOffset=0mil|HoleType=Round|Shape=Rectangle|*
%AMROTATEDRECTD49*
4,1,4,0.08974,0.00964,0.03653,-0.08253,-0.08974,-0.00964,-0.03653,0.08253,0.08974,0.00964,0.0*
%
%ADD49ROTATEDRECTD49*%

%ADD50P,0.12267X4X195.0*%
%ADD51C,0.24422*%
%ADD52C,0.12611*%
%ADD53C,0.08674*%
%ADD54P,0.09483X4X285.0*%
%ADD55C,0.06706*%
G04:AMPARAMS|DCode=56|XSize=78.87mil|YSize=90.68mil|CornerRadius=0mil|HoleSize=0mil|Usage=FLASHONLY|Rotation=150.000|XOffset=0mil|YOffset=0mil|HoleType=Round|Shape=Round|*
%AMOVALD56*
21,1,0.01181,0.07887,0.00000,0.00000,240.0*
1,1,0.07887,0.00295,0.00511*
1,1,0.07887,-0.00295,-0.00511*
%
%ADD56OVALD56*%

G04:AMPARAMS|DCode=57|XSize=78.87mil|YSize=90.68mil|CornerRadius=0mil|HoleSize=0mil|Usage=FLASHONLY|Rotation=150.000|XOffset=0mil|YOffset=0mil|HoleType=Round|Shape=Rectangle|*
%AMROTATEDRECTD57*
4,1,4,0.05682,0.01955,0.01148,-0.05898,-0.05682,-0.01955,-0.01148,0.05898,0.05682,0.01955,0.0*
%
%ADD57ROTATEDRECTD57*%

G04:AMPARAMS|DCode=58|XSize=78.87mil|YSize=90.68mil|CornerRadius=0mil|HoleSize=0mil|Usage=FLASHONLY|Rotation=60.000|XOffset=0mil|YOffset=0mil|HoleType=Round|Shape=Round|*
%AMOVALD58*
21,1,0.01181,0.07887,0.00000,0.00000,150.0*
1,1,0.07887,0.00511,-0.00295*
1,1,0.07887,-0.00511,0.00295*
%
%ADD58OVALD58*%

G04:AMPARAMS|DCode=59|XSize=78.87mil|YSize=90.68mil|CornerRadius=0mil|HoleSize=0mil|Usage=FLASHONLY|Rotation=60.000|XOffset=0mil|YOffset=0mil|HoleType=Round|Shape=Rectangle|*
%AMROTATEDRECTD59*
4,1,4,0.01955,-0.05682,-0.05898,-0.01148,-0.01955,0.05682,0.05898,0.01148,0.01955,-0.05682,0.0*
%
%ADD59ROTATEDRECTD59*%

%ADD60O,0.07887X0.09068*%
%ADD61R,0.07887X0.09068*%
D35*
X82057Y-3976D02*
D03*
X76943Y-1024D02*
D03*
D36*
X87789Y-19164D02*
D03*
X75486Y-40474D02*
D03*
D37*
X56345Y-74348D02*
D03*
X77655Y-86652D02*
D03*
X44000Y65500D02*
D03*
X22690Y77803D02*
D03*
X75310Y47697D02*
D03*
X54000Y60000D02*
D03*
D38*
X-55591Y68250D02*
D03*
X-80000D02*
D03*
X-55591Y22750D02*
D03*
X-80000D02*
D03*
X-55591Y45500D02*
D03*
X-80000D02*
D03*
X-117500Y-45500D02*
D03*
X-93090D02*
D03*
X-117500Y0D02*
D03*
X-93090D02*
D03*
X-117500Y45500D02*
D03*
X-93090D02*
D03*
X-117500Y22750D02*
D03*
X-93090D02*
D03*
X-117500Y-68250D02*
D03*
X-93090D02*
D03*
X-117500Y-22750D02*
D03*
X-93090D02*
D03*
X-117500Y68250D02*
D03*
X-93090D02*
D03*
D39*
X72807Y-22115D02*
D03*
X69854Y-27230D02*
D03*
X64225Y-23980D02*
D03*
X67177Y-18865D02*
D03*
X37329Y-44841D02*
D03*
X34376Y-49956D02*
D03*
X70112Y-52782D02*
D03*
X73065Y-47668D02*
D03*
X67436Y-44418D02*
D03*
X64483Y-49532D02*
D03*
X61981Y-15865D02*
D03*
X59028Y-20980D02*
D03*
X40006Y-53206D02*
D03*
X42958Y-48091D02*
D03*
D40*
X86653Y94510D02*
D03*
X95347Y89490D02*
D03*
D41*
X-78000Y-48394D02*
D03*
X-78000Y-73000D02*
D03*
D42*
X75664Y-58165D02*
D03*
X79503Y-51517D02*
D03*
X82593Y-62165D02*
D03*
X86431Y-55517D02*
D03*
D43*
X90850Y75035D02*
D03*
X82150Y59965D02*
D03*
D44*
X6879Y101926D02*
D03*
X14380Y97596D02*
D03*
X18121Y104074D02*
D03*
X25121Y116074D02*
D03*
X17620Y120404D02*
D03*
X13879Y113926D02*
D03*
D45*
X10226Y107722D02*
D03*
X21774Y110277D02*
D03*
D46*
X49613Y-67287D02*
D03*
X45283Y-64787D02*
D03*
X40953Y-62287D02*
D03*
X36623Y-59787D02*
D03*
X39377Y-85017D02*
D03*
X35047Y-82517D02*
D03*
X30717Y-80017D02*
D03*
X26387Y-77517D02*
D03*
D47*
X58512Y-46717D02*
D03*
X48118Y-45035D02*
D03*
X51858Y-38556D02*
D03*
X65012Y-35458D02*
D03*
X54618Y-33776D02*
D03*
X58358Y-27298D02*
D03*
D48*
X72383Y-5951D02*
D03*
X68643Y-12429D02*
D03*
X78696Y-13914D02*
D03*
D49*
X49683Y36055D02*
D03*
X-7301Y68955D02*
D03*
D50*
X-57196Y-17465D02*
D03*
X-57173Y-33425D02*
D03*
X-55346Y-49492D02*
D03*
D51*
X0Y0D02*
D03*
D52*
X-17048Y9843D02*
D03*
X17048Y-9843D02*
D03*
D53*
X35840Y99501D02*
D03*
X53160Y89499D02*
D03*
D54*
X104000Y-54840D02*
D03*
D55*
X99000Y-63500D02*
D03*
X94000Y-72160D02*
D03*
D56*
X68000Y105500D02*
D03*
X43000Y119500D02*
D03*
D57*
X76660Y100500D02*
D03*
X34340Y124500D02*
D03*
D58*
X105000Y62500D02*
D03*
D59*
X100000Y53840D02*
D03*
D60*
X-91000Y-86500D02*
D03*
D61*
X-81000Y-86500D02*
D03*
M02*
