M48
;Layer_Color=9474304
;FILE_FORMAT=2:5
INCH,LZ
;TYPE=PLATED
T1F00S00C0.01181
T2F00S00C0.02362
T3F00S00C0.03937
T4F00S00C0.04724
T5F00S00C0.05118
T6F00S00C0.07874
T7F00S00C0.11811
%
T01
X0076Y-0093
X00805Y-0087
X0084Y-00825
X00875Y-0078
X0105488Y-008019
X0107761Y-0076254
X0110034Y-0072318
X0112306Y-0068381
X0114579Y-0064445
X0116852Y-0060508
X0119124Y-0056572
X0121397Y-0052635
X012367Y-0048699
X0128Y-0051199
X0125727Y-0055135
X0123454Y-0059072
X0121182Y-0063008
X0118909Y-0066945
X0116636Y-0070881
X0114364Y-0074818
X0112091Y-0078754
X0109818Y-0082691
X0107545Y-0086627
X0105273Y-0090563
X0103Y-00945
X009867Y-0092
X0100943Y-0088064
X0103215Y-0084127
X0092Y-00505
X00885Y-00485
X00855Y-00465
X0068Y-0030131
X00655Y-00955
X00625Y-0094
X00595Y-00925
X0005801Y-013467
X0001865Y-0132397
X-0002072Y-0130124
X-0006008Y-0127852
X-0009945Y-0125579
X-0013881Y-0123306
X-0017818Y-0121034
X-0021754Y-0118761
X-0025691Y-0116488
X-0029627Y-0114215
X-0033564Y-0111943
X-00375Y-010967
X-004Y-0114
X-0036064Y-0116273
X-0032127Y-0118545
X-0028191Y-0120818
X-0024254Y-0123091
X-0020318Y-0125364
X-0016381Y-0127636
X-0012445Y-0129909
X-0008508Y-0132182
X-0004572Y-0134455
X-0000635Y-0136727
X0003301Y-0139
X-0074Y-004
Y-0035455
Y-0030909
Y-0026364
Y-0021818
Y-0017273
Y-0012727
Y-0008182
Y-0003636
Y0000909
X-0079
Y-0003636
Y-0008182
Y-0012727
Y-0017273
Y-0021818
Y-0026364
Y-0030909
Y-0035455
Y-004
X-0084
Y-0035455
Y-0030909
Y-0026364
Y-0021818
Y-0017273
Y-0012727
Y-0008182
Y-0003636
Y0000909
X-0129Y-0000773
Y-0005318
Y-0009864
Y-0014409
Y-0018955
Y-00235
X-0134
Y-0018955
Y-0014409
Y-0009864
Y-0005318
Y-0000773
Y0003773
Y0008318
Y0012864
Y0017409
Y0021955
Y00265
X-0129
Y0021955
Y0017409
Y0012864
Y0008318
Y0003773
X-0084Y0005455
Y001
X-0079
Y0005455
X-0074
Y001
X-004Y0083699
X-0037727Y0087635
X-0035454Y0091572
X-0033182Y0095508
X-0030909Y0099445
X-0028636Y0103381
X-0026364Y0107318
X-0024091Y0111254
X-0021818Y0115191
X-0019545Y0119127
X-0017273Y0123064
X-0015Y0127
X-001067Y01245
X-0012943Y0120563
X-0015215Y0116627
X-0017488Y0112691
X-0019761Y0108754
X-0022034Y0104818
X-0024306Y0100881
X-0026579Y0096945
X-0028852Y0093008
X-0031124Y0089072
X-0033397Y0085135
X-003567Y0081199
X0121614Y006015
X0119341Y0056214
X0117068Y0052278
X0114795Y0048341
X0112523Y0044405
X011025Y0040468
X0107977Y0036532
X0105704Y0032595
X0103432Y0028659
X0101159Y0024722
X0098886Y0020786
X0096614Y0016849
X0100944Y0014349
X0103216Y0018286
X0105489Y0022222
X0107762Y0026159
X0110035Y0030095
X0112307Y0034032
X011458Y0037968
X0116853Y0041905
X0119125Y0045841
X0121398Y0049778
X0123671Y0053714
X0125944Y0057651
T02
X-0055346Y-0049492
X-0057173Y-0033425
X-0057196Y-0017465
T03
X0094Y-007216
X0099Y-00635
X0104Y-005484
T04
X-0007301Y0068955
X003584Y0099501
X005316Y0089499
X0049683Y0036055
T05
X-0081Y-00865
X-0091Y-00865
X003434Y01245
X0043Y01195
X0068Y01055
X007666Y01005
X0105Y00625
X01Y005384
T06
X0017048Y-0009843
X-0017048Y0009843
T07
X0Y0
M30
