G04*
G04 #@! TF.GenerationSoftware,Altium Limited,Altium Designer,21.1.1 (26)*
G04*
G04 Layer_Color=32896*
%FSLAX25Y25*%
%MOIN*%
G70*
G04*
G04 #@! TF.SameCoordinates,7E344F8E-89F9-4E97-97FE-234FB0D6FCC2*
G04*
G04*
G04 #@! TF.FilePolarity,Positive*
G04*
G01*
G75*
%ADD11C,0.01181*%
%ADD12C,0.01575*%
%ADD14C,0.00591*%
%ADD15C,0.00600*%
%ADD16C,0.00787*%
%ADD18C,0.00800*%
%ADD19R,0.01968X0.15748*%
D11*
X-13690Y-75509D02*
G03*
X-13690Y-75509I-591J0D01*
G01*
D12*
X-23146Y-74709D02*
G03*
X-23146Y-74709I-787J0D01*
G01*
D14*
X20100Y-112908D02*
X23651Y-114958D01*
X26351Y-110281D01*
X22723Y-108187D02*
X26351Y-110281D01*
X17344Y-105081D02*
X20895Y-107132D01*
X14644Y-109758D02*
X17344Y-105081D01*
X14644Y-109758D02*
X18273Y-111853D01*
X-16939Y-100941D02*
X-13310Y-103036D01*
X-16010Y-107713D02*
X-13310Y-103036D01*
X-19561Y-105663D02*
X-16010Y-107713D01*
X-25017Y-102513D02*
X-21388Y-104608D01*
X-25017Y-102513D02*
X-22317Y-97836D01*
X-18766Y-99886D01*
X35654Y-123930D02*
X37704Y-120379D01*
X35654Y-123930D02*
X40331Y-126630D01*
X42426Y-123001D01*
X43481Y-121174D02*
X45531Y-117623D01*
X40854Y-114923D02*
X45531Y-117623D01*
X38759Y-118552D02*
X40854Y-114923D01*
X11643Y-114955D02*
X15271Y-117050D01*
X11643Y-114955D02*
X14343Y-110278D01*
X17893Y-112328D01*
X19721Y-113383D02*
X23349Y-115478D01*
X20649Y-120155D02*
X23349Y-115478D01*
X17099Y-118105D02*
X20649Y-120155D01*
X9653Y-85317D02*
X13204Y-87367D01*
X15904Y-82690D01*
X12276Y-80595D02*
X15904Y-82690D01*
X6898Y-77490D02*
X10448Y-79540D01*
X4197Y-82167D02*
X6898Y-77490D01*
X4197Y-82167D02*
X7826Y-84262D01*
X23280Y-107621D02*
X26831Y-109670D01*
X29531Y-104994D01*
X25902Y-102899D02*
X29531Y-104994D01*
X20524Y-99794D02*
X24074Y-101844D01*
X17824Y-104471D02*
X20524Y-99794D01*
X17824Y-104471D02*
X21452Y-106565D01*
X-13939Y-95745D02*
X-10310Y-97840D01*
X-13010Y-102517D02*
X-10310Y-97840D01*
X-16561Y-100467D02*
X-13010Y-102517D01*
X-22017Y-97317D02*
X-18388Y-99411D01*
X-22017Y-97317D02*
X-19317Y-92640D01*
X-15766Y-94690D01*
X907Y-87772D02*
X4535Y-89867D01*
X907Y-87772D02*
X3607Y-83096D01*
X7157Y-85146D01*
X8985Y-86201D02*
X12613Y-88296D01*
X9913Y-92972D02*
X12613Y-88296D01*
X6363Y-90922D02*
X9913Y-92972D01*
D15*
X-85400Y-44597D02*
X-85400Y-76797D01*
X-70600Y-76797D02*
X-70600Y-44597D01*
X-85400Y-44597D02*
X-70600Y-44597D01*
X-85400Y-76797D02*
X-70600Y-76797D01*
X9898Y-68599D02*
X13498Y-62364D01*
X9898Y-68599D02*
X21156Y-75099D01*
X24756Y-68864D01*
X13498Y-62364D02*
X24756Y-68864D01*
X5898Y-75528D02*
X9498Y-69292D01*
X5898Y-75528D02*
X17156Y-82028D01*
X20756Y-75792D01*
X9498Y-69292D02*
X20756Y-75792D01*
X-17959Y-70243D02*
X-1859Y-42357D01*
X-5141Y-77643D02*
X10959Y-49757D01*
X-1859Y-42357D02*
X10959Y-49757D01*
X-17959Y-70243D02*
X-5141Y-77643D01*
X19619Y-80562D02*
X47505Y-96662D01*
X12219Y-93380D02*
X40105Y-109480D01*
X47505Y-96662D01*
X12219Y-93380D02*
X19619Y-80562D01*
X-48295Y70249D02*
X-48795Y70749D01*
Y71749D01*
X-48295Y72249D01*
X-46296D01*
X-45796Y71749D01*
Y70749D01*
X-46296Y70249D01*
X-48295Y69250D02*
X-48795Y68750D01*
Y67750D01*
X-48295Y67250D01*
X-47795D01*
X-47295Y67750D01*
Y68250D01*
Y67750D01*
X-46795Y67250D01*
X-46296D01*
X-45796Y67750D01*
Y68750D01*
X-46296Y69250D01*
X-45796Y64251D02*
Y66251D01*
X-47795Y64251D01*
X-48295D01*
X-48795Y64751D01*
Y65751D01*
X-48295Y66251D01*
X-47795Y47249D02*
X-48295Y47749D01*
Y48749D01*
X-47795Y49249D01*
X-45796D01*
X-45296Y48749D01*
Y47749D01*
X-45796Y47249D01*
X-47795Y46250D02*
X-48295Y45750D01*
Y44750D01*
X-47795Y44251D01*
X-47295D01*
X-46795Y44750D01*
Y45250D01*
Y44750D01*
X-46295Y44251D01*
X-45796D01*
X-45296Y44750D01*
Y45750D01*
X-45796Y46250D01*
X-45296Y43251D02*
Y42251D01*
Y42751D01*
X-48295D01*
X-47795Y43251D01*
X-45500Y20501D02*
X-45000Y20001D01*
Y19001D01*
X-45500Y18501D01*
X-47500D01*
X-48000Y19001D01*
Y20001D01*
X-47500Y20501D01*
X-45500Y21500D02*
X-45000Y22000D01*
Y23000D01*
X-45500Y23500D01*
X-46000D01*
X-46500Y23000D01*
Y22500D01*
Y23000D01*
X-47000Y23500D01*
X-47500D01*
X-48000Y23000D01*
Y22000D01*
X-47500Y21500D01*
X-45500Y24499D02*
X-45000Y24999D01*
Y25999D01*
X-45500Y26499D01*
X-47500D01*
X-48000Y25999D01*
Y24999D01*
X-47500Y24499D01*
X-45500D01*
X-73751Y-42500D02*
Y-39500D01*
X-75251D01*
X-75751Y-40000D01*
Y-41000D01*
X-75251Y-41500D01*
X-73751D01*
X-74751D02*
X-75751Y-42500D01*
X-76750D02*
X-77750D01*
X-77250D01*
Y-39500D01*
X-76750Y-40000D01*
X-81249Y-39500D02*
X-79249D01*
Y-41000D01*
X-80249Y-40500D01*
X-80749D01*
X-81249Y-41000D01*
Y-42000D01*
X-80749Y-42500D01*
X-79749D01*
X-79249Y-42000D01*
X8415Y-46048D02*
X9914Y-43451D01*
X8615Y-42701D01*
X7933Y-42884D01*
X7433Y-43750D01*
X7616Y-44433D01*
X8914Y-45182D01*
X8049Y-44683D02*
X6683Y-45048D01*
X5585Y-40952D02*
X6201Y-41884D01*
X6567Y-43250D01*
X6067Y-44116D01*
X5384Y-44299D01*
X4519Y-43799D01*
X4336Y-43116D01*
X4586Y-42683D01*
X5269Y-42500D01*
X6567Y-43250D01*
X12415Y-130048D02*
X13914Y-127451D01*
X12616Y-126701D01*
X11933Y-126884D01*
X11433Y-127750D01*
X11616Y-128433D01*
X12914Y-129183D01*
X12049Y-128683D02*
X10683Y-129049D01*
X9585Y-124952D02*
X11317Y-125952D01*
X10567Y-127250D01*
X9951Y-126317D01*
X9518Y-126067D01*
X8836Y-126250D01*
X8336Y-127116D01*
X8519Y-127799D01*
X9385Y-128299D01*
X10067Y-128116D01*
X38415Y-130548D02*
X39914Y-127951D01*
X38616Y-127201D01*
X37933Y-127384D01*
X37433Y-128250D01*
X37616Y-128933D01*
X38914Y-129683D01*
X38049Y-129183D02*
X36683Y-129549D01*
X34519Y-128299D02*
X36018Y-125702D01*
X36567Y-127750D01*
X34836Y-126750D01*
X-12085Y-95048D02*
X-10586Y-92451D01*
X-11885Y-91701D01*
X-12567Y-91884D01*
X-13067Y-92750D01*
X-12884Y-93433D01*
X-11586Y-94182D01*
X-12451Y-93683D02*
X-13817Y-94049D01*
X-13433Y-91384D02*
X-13616Y-90702D01*
X-14482Y-90202D01*
X-15165Y-90385D01*
X-15414Y-90817D01*
X-15232Y-91500D01*
X-14799Y-91750D01*
X-15232Y-91500D01*
X-15914Y-91683D01*
X-16164Y-92116D01*
X-15981Y-92799D01*
X-15115Y-93299D01*
X-14433Y-93116D01*
X14915Y-126048D02*
X16414Y-123451D01*
X15115Y-122701D01*
X14433Y-122884D01*
X13933Y-123750D01*
X14116Y-124433D01*
X15414Y-125182D01*
X14549Y-124683D02*
X13183Y-125048D01*
X10586Y-123549D02*
X12317Y-124549D01*
X11586Y-121818D01*
X11835Y-121385D01*
X12518Y-121202D01*
X13384Y-121702D01*
X13567Y-122384D01*
X47414Y-108618D02*
X48913Y-106021D01*
X47615Y-105271D01*
X46932Y-105454D01*
X46432Y-106320D01*
X46615Y-107003D01*
X47914Y-107753D01*
X47048Y-107253D02*
X45682Y-107619D01*
X44817Y-107119D02*
X43951Y-106619D01*
X44384Y-106869D01*
X45883Y-104272D01*
X46066Y-104955D01*
X-6470Y-106953D02*
X-5471Y-105222D01*
X-4788Y-105039D01*
X-3922Y-105538D01*
X-3739Y-106221D01*
X-4739Y-107953D01*
X-5422Y-108136D01*
X-6288Y-107636D01*
X-5355Y-107020D02*
X-6720Y-107386D01*
X-6288Y-107636D02*
X-6470Y-106953D01*
X-8885Y-106136D02*
X-7385Y-103539D01*
X-6836Y-105587D01*
X-8568Y-104588D01*
X28024Y-123723D02*
X29024Y-121991D01*
X29707Y-121808D01*
X30572Y-122308D01*
X30755Y-122991D01*
X29756Y-124723D01*
X29073Y-124906D01*
X28207Y-124406D01*
X29140Y-123790D02*
X27774Y-124156D01*
X28207Y-124406D02*
X28024Y-123723D01*
X28158Y-121492D02*
X27975Y-120809D01*
X27109Y-120309D01*
X26427Y-120492D01*
X26177Y-120925D01*
X26360Y-121607D01*
X26792Y-121858D01*
X26360Y-121607D01*
X25677Y-121791D01*
X25427Y-122223D01*
X25610Y-122906D01*
X26476Y-123406D01*
X27158Y-123223D01*
X-35067Y-92616D02*
X-34067Y-90884D01*
X-33384Y-90701D01*
X-32519Y-91201D01*
X-32336Y-91884D01*
X-33336Y-93615D01*
X-34018Y-93798D01*
X-34884Y-93299D01*
X-33951Y-92683D02*
X-35317Y-93049D01*
X-34884Y-93299D02*
X-35067Y-92616D01*
X-37914Y-91549D02*
X-36183Y-92549D01*
X-36914Y-89818D01*
X-36665Y-89385D01*
X-35982Y-89202D01*
X-35116Y-89701D01*
X-34933Y-90384D01*
X3486Y-112701D02*
X4486Y-110970D01*
X5169Y-110787D01*
X6035Y-111286D01*
X6218Y-111969D01*
X5218Y-113701D01*
X4535Y-113884D01*
X3669Y-113384D01*
X4602Y-112768D02*
X3237Y-113134D01*
X3669Y-113384D02*
X3486Y-112701D01*
X2371Y-112634D02*
X1505Y-112134D01*
X1938Y-112384D01*
X3437Y-109787D01*
X3620Y-110470D01*
X-126795Y-43181D02*
X-127295Y-42681D01*
Y-41682D01*
X-126795Y-41182D01*
X-124796D01*
X-124296Y-41682D01*
Y-42681D01*
X-124796Y-43181D01*
X-124296Y-46180D02*
Y-44181D01*
X-126295Y-46180D01*
X-126795D01*
X-127295Y-45680D01*
Y-44681D01*
X-126795Y-44181D01*
X-127295Y-49179D02*
X-126795Y-48180D01*
X-125795Y-47180D01*
X-124796D01*
X-124296Y-47680D01*
Y-48679D01*
X-124796Y-49179D01*
X-125295D01*
X-125795Y-48679D01*
Y-47180D01*
X-126795Y-20612D02*
X-127295Y-20112D01*
Y-19112D01*
X-126795Y-18612D01*
X-124796D01*
X-124296Y-19112D01*
Y-20112D01*
X-124796Y-20612D01*
X-124296Y-23611D02*
Y-21611D01*
X-126295Y-23611D01*
X-126795D01*
X-127295Y-23111D01*
Y-22111D01*
X-126795Y-21611D01*
X-127295Y-26610D02*
Y-24610D01*
X-125795D01*
X-126295Y-25610D01*
Y-26110D01*
X-125795Y-26610D01*
X-124796D01*
X-124296Y-26110D01*
Y-25110D01*
X-124796Y-24610D01*
X-126795Y1958D02*
X-127295Y2458D01*
Y3457D01*
X-126795Y3957D01*
X-124796D01*
X-124296Y3457D01*
Y2458D01*
X-124796Y1958D01*
X-124296Y-1041D02*
Y958D01*
X-126295Y-1041D01*
X-126795D01*
X-127295Y-541D01*
Y458D01*
X-126795Y958D01*
X-124296Y-3540D02*
X-127295D01*
X-125795Y-2041D01*
Y-4040D01*
X-126795Y24527D02*
X-127295Y25027D01*
Y26027D01*
X-126795Y26527D01*
X-124796D01*
X-124296Y26027D01*
Y25027D01*
X-124796Y24527D01*
X-124296Y21528D02*
Y23528D01*
X-126295Y21528D01*
X-126795D01*
X-127295Y22028D01*
Y23028D01*
X-126795Y23528D01*
Y20528D02*
X-127295Y20029D01*
Y19029D01*
X-126795Y18529D01*
X-126295D01*
X-125795Y19029D01*
Y19529D01*
Y19029D01*
X-125295Y18529D01*
X-124796D01*
X-124296Y19029D01*
Y20029D01*
X-124796Y20528D01*
X-126795Y47097D02*
X-127295Y47596D01*
Y48596D01*
X-126795Y49096D01*
X-124796D01*
X-124296Y48596D01*
Y47596D01*
X-124796Y47097D01*
X-124296Y44098D02*
Y46097D01*
X-126295Y44098D01*
X-126795D01*
X-127295Y44598D01*
Y45597D01*
X-126795Y46097D01*
X-124296Y41099D02*
Y43098D01*
X-126295Y41099D01*
X-126795D01*
X-127295Y41598D01*
Y42598D01*
X-126795Y43098D01*
Y69749D02*
X-127295Y70249D01*
Y71249D01*
X-126795Y71749D01*
X-124796D01*
X-124296Y71249D01*
Y70249D01*
X-124796Y69749D01*
X-124296Y66751D02*
Y68750D01*
X-126295Y66751D01*
X-126795D01*
X-127295Y67250D01*
Y68250D01*
X-126795Y68750D01*
X-124296Y65751D02*
Y64751D01*
Y65251D01*
X-127295D01*
X-126795Y65751D01*
Y-66501D02*
X-127295Y-66001D01*
Y-65001D01*
X-126795Y-64501D01*
X-124796D01*
X-124296Y-65001D01*
Y-66001D01*
X-124796Y-66501D01*
X-124296Y-67500D02*
Y-68500D01*
Y-68000D01*
X-127295D01*
X-126795Y-67500D01*
Y-69999D02*
X-127295Y-70499D01*
Y-71499D01*
X-126795Y-71999D01*
X-126295D01*
X-125795Y-71499D01*
Y-70999D01*
Y-71499D01*
X-125295Y-71999D01*
X-124796D01*
X-124296Y-71499D01*
Y-70499D01*
X-124796Y-69999D01*
X115Y-83043D02*
X797Y-82860D01*
X1663Y-83360D01*
X1846Y-84043D01*
X846Y-85774D01*
X164Y-85957D01*
X-702Y-85457D01*
X-885Y-84775D01*
X-2001Y-84708D02*
X-2867Y-84208D01*
X-2434Y-84458D01*
X-934Y-81861D01*
X-751Y-82543D01*
X-5897Y-82458D02*
X-4165Y-83458D01*
X-4897Y-80727D01*
X-4647Y-80294D01*
X-3964Y-80111D01*
X-3098Y-80611D01*
X-2915Y-81294D01*
X9566Y-63674D02*
X10249Y-63491D01*
X11114Y-63991D01*
X11297Y-64673D01*
X10298Y-66405D01*
X9615Y-66588D01*
X8749Y-66088D01*
X8566Y-65405D01*
X7450Y-65338D02*
X6585Y-64838D01*
X7017Y-65088D01*
X8517Y-62491D01*
X8700Y-63174D01*
X5286Y-64089D02*
X4420Y-63589D01*
X4853Y-63839D01*
X6353Y-61242D01*
X6536Y-61924D01*
X-10048Y-88172D02*
X-9365Y-87989D01*
X-8499Y-88489D01*
X-8316Y-89171D01*
X-9316Y-90903D01*
X-9999Y-91086D01*
X-10864Y-90586D01*
X-11047Y-89903D01*
X-12395Y-86239D02*
X-11779Y-87172D01*
X-11413Y-88538D01*
X-11913Y-89403D01*
X-12596Y-89586D01*
X-13462Y-89087D01*
X-13645Y-88404D01*
X-13395Y-87971D01*
X-12712Y-87788D01*
X-11413Y-88538D01*
X16433Y-119384D02*
X17116Y-119201D01*
X17981Y-119701D01*
X18164Y-120384D01*
X17165Y-122115D01*
X16482Y-122298D01*
X15616Y-121799D01*
X15433Y-121116D01*
X14085Y-117452D02*
X15817Y-118451D01*
X15067Y-119750D01*
X14451Y-118817D01*
X14018Y-118568D01*
X13336Y-118750D01*
X12836Y-119616D01*
X13019Y-120299D01*
X13884Y-120799D01*
X14567Y-120616D01*
X3148Y-77289D02*
X3831Y-77106D01*
X4697Y-77606D01*
X4880Y-78289D01*
X3880Y-80020D01*
X3198Y-80203D01*
X2332Y-79703D01*
X2149Y-79021D01*
X-698Y-77954D02*
X1033Y-78954D01*
X301Y-76222D01*
X551Y-75790D01*
X1234Y-75607D01*
X2100Y-76107D01*
X2283Y-76789D01*
X5599Y-70044D02*
X6282Y-69861D01*
X7148Y-70361D01*
X7331Y-71044D01*
X6331Y-72775D01*
X5649Y-72958D01*
X4783Y-72458D01*
X4600Y-71776D01*
X3484Y-71709D02*
X2618Y-71209D01*
X3051Y-71459D01*
X4551Y-68862D01*
X4734Y-69544D01*
D16*
X-3948Y-99222D02*
X-1902Y-100403D01*
X6875Y-105470D02*
X8920Y-106651D01*
X38349Y-116651D02*
X39333Y-114946D01*
X36606Y-113371D02*
X39333Y-114946D01*
X28120Y-110745D02*
X29105Y-109040D01*
X31832Y-110615D01*
D18*
X-4852Y-91654D02*
X-2602Y-92953D01*
X-4852Y-91654D02*
X-2602Y-92953D01*
X-4852Y-91654D02*
X-2602Y-92953D01*
X-6456Y-94433D02*
X-4852Y-91654D01*
X3500Y-100181D02*
X5104Y-97402D01*
X2854Y-96103D02*
X5104Y-97402D01*
X5971Y-97902D02*
X8221Y-99201D01*
X5971Y-97902D02*
X8221Y-99201D01*
X5971Y-97902D02*
X8221Y-99201D01*
X4367Y-100681D02*
X5971Y-97902D01*
X14322Y-106429D02*
X15927Y-103650D01*
X13677Y-102351D02*
X15927Y-103650D01*
X-29618Y-90066D02*
X-20169Y-73700D01*
X-39165Y-84554D02*
X-29716Y-68189D01*
X-20169Y-73700D01*
X-39165Y-84554D02*
X-29618Y-90066D01*
D19*
X-73701Y22750D02*
D03*
Y45500D02*
D03*
Y68250D02*
D03*
X-99390Y-68250D02*
D03*
Y-45500D02*
D03*
Y-22750D02*
D03*
Y0D02*
D03*
Y22750D02*
D03*
Y45500D02*
D03*
Y68250D02*
D03*
M02*
