G04*
G04 #@! TF.GenerationSoftware,Altium Limited,Altium Designer,21.1.1 (26)*
G04*
G04 Layer_Physical_Order=2*
G04 Layer_Color=16711680*
%FSLAX25Y25*%
%MOIN*%
G70*
G04*
G04 #@! TF.SameCoordinates,FDC4DEE7-E93E-45EC-9828-44F572C0D175*
G04*
G04*
G04 #@! TF.FilePolarity,Positive*
G04*
G01*
G75*
%ADD10C,0.01000*%
G04:AMPARAMS|DCode=21|XSize=29.53mil|YSize=39.37mil|CornerRadius=0mil|HoleSize=0mil|Usage=FLASHONLY|Rotation=150.000|XOffset=0mil|YOffset=0mil|HoleType=Round|Shape=Rectangle|*
%AMROTATEDRECTD21*
4,1,4,0.02263,0.00967,0.00294,-0.02443,-0.02263,-0.00967,-0.00294,0.02443,0.02263,0.00967,0.0*
%
%ADD21ROTATEDRECTD21*%

G04:AMPARAMS|DCode=22|XSize=131.89mil|YSize=59.06mil|CornerRadius=0mil|HoleSize=0mil|Usage=FLASHONLY|Rotation=330.000|XOffset=0mil|YOffset=0mil|HoleType=Round|Shape=Rectangle|*
%AMROTATEDRECTD22*
4,1,4,-0.07187,0.00740,-0.04235,0.05854,0.07187,-0.00740,0.04235,-0.05854,-0.07187,0.00740,0.0*
%
%ADD22ROTATEDRECTD22*%

G04:AMPARAMS|DCode=23|XSize=131.89mil|YSize=59.06mil|CornerRadius=0mil|HoleSize=0mil|Usage=FLASHONLY|Rotation=60.000|XOffset=0mil|YOffset=0mil|HoleType=Round|Shape=Rectangle|*
%AMROTATEDRECTD23*
4,1,4,-0.00740,-0.07187,-0.05854,-0.04235,0.00740,0.07187,0.05854,0.04235,-0.00740,-0.07187,0.0*
%
%ADD23ROTATEDRECTD23*%

G04:AMPARAMS|DCode=24|XSize=92.56mil|YSize=100.43mil|CornerRadius=23.14mil|HoleSize=0mil|Usage=FLASHONLY|Rotation=0.000|XOffset=0mil|YOffset=0mil|HoleType=Round|Shape=RoundedRectangle|*
%AMROUNDEDRECTD24*
21,1,0.09256,0.05415,0,0,0.0*
21,1,0.04628,0.10043,0,0,0.0*
1,1,0.04628,0.02314,-0.02708*
1,1,0.04628,-0.02314,-0.02708*
1,1,0.04628,-0.02314,0.02708*
1,1,0.04628,0.02314,0.02708*
%
%ADD24ROUNDEDRECTD24*%
G04:AMPARAMS|DCode=25|XSize=29.53mil|YSize=39.37mil|CornerRadius=0mil|HoleSize=0mil|Usage=FLASHONLY|Rotation=240.000|XOffset=0mil|YOffset=0mil|HoleType=Round|Shape=Rectangle|*
%AMROTATEDRECTD25*
4,1,4,-0.00967,0.02263,0.02443,0.00294,0.00967,-0.02263,-0.02443,-0.00294,-0.00967,0.02263,0.0*
%
%ADD25ROTATEDRECTD25*%

%ADD27R,0.13189X0.05906*%
%ADD62C,0.02000*%
G04:AMPARAMS|DCode=68|XSize=264.02mil|YSize=94.28mil|CornerRadius=0mil|HoleSize=0mil|Usage=FLASHONLY|Rotation=30.000|XOffset=0mil|YOffset=0mil|HoleType=Round|Shape=Rectangle|*
%AMROTATEDRECTD68*
4,1,4,-0.09075,-0.10683,-0.13789,-0.02518,0.09075,0.10683,0.13789,0.02518,-0.09075,-0.10683,0.0*
%
%ADD68ROTATEDRECTD68*%

%ADD70R,0.15000X0.21500*%
%ADD71R,0.32000X1.33000*%
G04:AMPARAMS|DCode=82|XSize=137.8mil|YSize=98.43mil|CornerRadius=0mil|HoleSize=0mil|Usage=FLASHONLY|Rotation=150.000|XOffset=0mil|YOffset=0mil|HoleType=Round|Shape=Rectangle|*
%AMROTATEDRECTD82*
4,1,4,0.08427,0.00817,0.03506,-0.07707,-0.08427,-0.00817,-0.03506,0.07707,0.08427,0.00817,0.0*
%
%ADD82ROTATEDRECTD82*%

%ADD83P,0.11136X4X195.0*%
%ADD84C,0.23622*%
%ADD85C,0.11811*%
%ADD86C,0.07874*%
%ADD87P,0.08352X4X285.0*%
%ADD88C,0.05906*%
G04:AMPARAMS|DCode=89|XSize=70.87mil|YSize=82.68mil|CornerRadius=0mil|HoleSize=0mil|Usage=FLASHONLY|Rotation=150.000|XOffset=0mil|YOffset=0mil|HoleType=Round|Shape=Round|*
%AMOVALD89*
21,1,0.01181,0.07087,0.00000,0.00000,240.0*
1,1,0.07087,0.00295,0.00511*
1,1,0.07087,-0.00295,-0.00511*
%
%ADD89OVALD89*%

G04:AMPARAMS|DCode=90|XSize=70.87mil|YSize=82.68mil|CornerRadius=0mil|HoleSize=0mil|Usage=FLASHONLY|Rotation=150.000|XOffset=0mil|YOffset=0mil|HoleType=Round|Shape=Rectangle|*
%AMROTATEDRECTD90*
4,1,4,0.05135,0.01808,0.01002,-0.05352,-0.05135,-0.01808,-0.01002,0.05352,0.05135,0.01808,0.0*
%
%ADD90ROTATEDRECTD90*%

G04:AMPARAMS|DCode=91|XSize=70.87mil|YSize=82.68mil|CornerRadius=0mil|HoleSize=0mil|Usage=FLASHONLY|Rotation=60.000|XOffset=0mil|YOffset=0mil|HoleType=Round|Shape=Round|*
%AMOVALD91*
21,1,0.01181,0.07087,0.00000,0.00000,150.0*
1,1,0.07087,0.00511,-0.00295*
1,1,0.07087,-0.00511,0.00295*
%
%ADD91OVALD91*%

G04:AMPARAMS|DCode=92|XSize=70.87mil|YSize=82.68mil|CornerRadius=0mil|HoleSize=0mil|Usage=FLASHONLY|Rotation=60.000|XOffset=0mil|YOffset=0mil|HoleType=Round|Shape=Rectangle|*
%AMROTATEDRECTD92*
4,1,4,0.01808,-0.05135,-0.05352,-0.01002,-0.01808,0.05135,0.05352,0.01002,0.01808,-0.05135,0.0*
%
%ADD92ROTATEDRECTD92*%

%ADD93O,0.07087X0.08268*%
%ADD94R,0.07087X0.08268*%
%ADD95C,0.02362*%
G04:AMPARAMS|DCode=96|XSize=27.56mil|YSize=49.21mil|CornerRadius=0mil|HoleSize=0mil|Usage=FLASHONLY|Rotation=330.000|XOffset=0mil|YOffset=0mil|HoleType=Round|Shape=Rectangle|*
%AMROTATEDRECTD96*
4,1,4,-0.02424,-0.01442,0.00037,0.02820,0.02424,0.01442,-0.00037,-0.02820,-0.02424,-0.01442,0.0*
%
%ADD96ROTATEDRECTD96*%

G04:AMPARAMS|DCode=97|XSize=37.4mil|YSize=57.09mil|CornerRadius=0mil|HoleSize=0mil|Usage=FLASHONLY|Rotation=330.000|XOffset=0mil|YOffset=0mil|HoleType=Round|Shape=Rectangle|*
%AMROTATEDRECTD97*
4,1,4,-0.03047,-0.01537,-0.00192,0.03407,0.03047,0.01537,0.00192,-0.03407,-0.03047,-0.01537,0.0*
%
%ADD97ROTATEDRECTD97*%

G04:AMPARAMS|DCode=98|XSize=23.62mil|YSize=39.37mil|CornerRadius=5.91mil|HoleSize=0mil|Usage=FLASHONLY|Rotation=330.000|XOffset=0mil|YOffset=0mil|HoleType=Round|Shape=RoundedRectangle|*
%AMROUNDEDRECTD98*
21,1,0.02362,0.02756,0,0,330.0*
21,1,0.01181,0.03937,0,0,330.0*
1,1,0.01181,-0.00178,-0.01489*
1,1,0.01181,-0.01200,-0.00898*
1,1,0.01181,0.00178,0.01489*
1,1,0.01181,0.01200,0.00898*
%
%ADD98ROUNDEDRECTD98*%
G04:AMPARAMS|DCode=99|XSize=27.56mil|YSize=70.87mil|CornerRadius=0mil|HoleSize=0mil|Usage=FLASHONLY|Rotation=60.000|XOffset=0mil|YOffset=0mil|HoleType=Round|Shape=Round|*
%AMOVALD99*
21,1,0.04331,0.02756,0.00000,0.00000,150.0*
1,1,0.02756,0.01875,-0.01083*
1,1,0.02756,-0.01875,0.01083*
%
%ADD99OVALD99*%

G04:AMPARAMS|DCode=100|XSize=25mil|YSize=75mil|CornerRadius=0mil|HoleSize=0mil|Usage=FLASHONLY|Rotation=150.000|XOffset=0mil|YOffset=0mil|HoleType=Round|Shape=Rectangle|*
%AMROTATEDRECTD100*
4,1,4,0.02958,0.02623,-0.00793,-0.03873,-0.02958,-0.02623,0.00793,0.03873,0.02958,0.02623,0.0*
%
%ADD100ROTATEDRECTD100*%

%ADD101R,0.11000X0.20500*%
G04:AMPARAMS|DCode=102|XSize=415.33mil|YSize=112.27mil|CornerRadius=0mil|HoleSize=0mil|Usage=FLASHONLY|Rotation=60.000|XOffset=0mil|YOffset=0mil|HoleType=Round|Shape=Rectangle|*
%AMROTATEDRECTD102*
4,1,4,-0.05522,-0.20791,-0.15245,-0.15178,0.05522,0.20791,0.15245,0.15178,-0.05522,-0.20791,0.0*
%
%ADD102ROTATEDRECTD102*%

G04:AMPARAMS|DCode=103|XSize=477.49mil|YSize=111.06mil|CornerRadius=0mil|HoleSize=0mil|Usage=FLASHONLY|Rotation=150.000|XOffset=0mil|YOffset=0mil|HoleType=Round|Shape=Rectangle|*
%AMROTATEDRECTD103*
4,1,4,0.23452,-0.07128,0.17899,-0.16746,-0.23452,0.07128,-0.17899,0.16746,0.23452,-0.07128,0.0*
%
%ADD103ROTATEDRECTD103*%

G04:AMPARAMS|DCode=104|XSize=564.27mil|YSize=101.91mil|CornerRadius=0mil|HoleSize=0mil|Usage=FLASHONLY|Rotation=60.000|XOffset=0mil|YOffset=0mil|HoleType=Round|Shape=Rectangle|*
%AMROTATEDRECTD104*
4,1,4,-0.09694,-0.26981,-0.18520,-0.21886,0.09694,0.26981,0.18520,0.21886,-0.09694,-0.26981,0.0*
%
%ADD104ROTATEDRECTD104*%

G04:AMPARAMS|DCode=105|XSize=264.02mil|YSize=98.61mil|CornerRadius=0mil|HoleSize=0mil|Usage=FLASHONLY|Rotation=150.000|XOffset=0mil|YOffset=0mil|HoleType=Round|Shape=Rectangle|*
%AMROTATEDRECTD105*
4,1,4,0.13898,-0.02330,0.08967,-0.10871,-0.13898,0.02330,-0.08967,0.10871,0.13898,-0.02330,0.0*
%
%ADD105ROTATEDRECTD105*%

G04:AMPARAMS|DCode=106|XSize=583.19mil|YSize=143.92mil|CornerRadius=0mil|HoleSize=0mil|Usage=FLASHONLY|Rotation=150.000|XOffset=0mil|YOffset=0mil|HoleType=Round|Shape=Rectangle|*
%AMROTATEDRECTD106*
4,1,4,0.28851,-0.08348,0.21655,-0.20812,-0.28851,0.08348,-0.21655,0.20812,0.28851,-0.08348,0.0*
%
%ADD106ROTATEDRECTD106*%

G04:AMPARAMS|DCode=107|XSize=593.28mil|YSize=250.53mil|CornerRadius=0mil|HoleSize=0mil|Usage=FLASHONLY|Rotation=60.000|XOffset=0mil|YOffset=0mil|HoleType=Round|Shape=Rectangle|*
%AMROTATEDRECTD107*
4,1,4,-0.03984,-0.31953,-0.25680,-0.19427,0.03984,0.31953,0.25680,0.19427,-0.03984,-0.31953,0.0*
%
%ADD107ROTATEDRECTD107*%

G04:AMPARAMS|DCode=108|XSize=244.63mil|YSize=132.97mil|CornerRadius=0mil|HoleSize=0mil|Usage=FLASHONLY|Rotation=60.000|XOffset=0mil|YOffset=0mil|HoleType=Round|Shape=Rectangle|*
%AMROTATEDRECTD108*
4,1,4,-0.00358,-0.13917,-0.11873,-0.07269,0.00358,0.13917,0.11873,0.07269,-0.00358,-0.13917,0.0*
%
%ADD108ROTATEDRECTD108*%

G04:AMPARAMS|DCode=109|XSize=825.96mil|YSize=491.9mil|CornerRadius=0mil|HoleSize=0mil|Usage=FLASHONLY|Rotation=60.000|XOffset=0mil|YOffset=0mil|HoleType=Round|Shape=Rectangle|*
%AMROTATEDRECTD109*
4,1,4,0.00651,-0.48062,-0.41949,-0.23467,-0.00651,0.48062,0.41949,0.23467,0.00651,-0.48062,0.0*
%
%ADD109ROTATEDRECTD109*%

G36*
X4362Y142523D02*
X5828Y139905D01*
X-51528Y40561D01*
X-39456Y33926D01*
X-38649Y31036D01*
X-57798Y-2130D01*
D01*
X-59732Y-3706D01*
X-60373Y-4541D01*
X-64568Y-11807D01*
X-67466Y-11030D01*
Y77000D01*
X-67603Y78044D01*
X-68006Y79017D01*
X-68647Y79853D01*
X-69483Y80494D01*
X-70456Y80897D01*
X-71500Y81034D01*
X-103500D01*
X-104544Y80897D01*
X-105517Y80494D01*
X-106353Y79853D01*
X-106994Y79017D01*
X-107397Y78044D01*
X-107535Y77000D01*
Y-55000D01*
Y-56000D01*
Y-76500D01*
X-107397Y-77544D01*
X-106994Y-78517D01*
X-106353Y-79353D01*
X-105517Y-79994D01*
X-104544Y-80397D01*
X-103500Y-80534D01*
X-96208D01*
X-95995Y-80765D01*
X-94904Y-83534D01*
X-94969Y-83618D01*
X-95426Y-84723D01*
X-95582Y-85909D01*
Y-86000D01*
X-91000D01*
Y-87000D01*
X-95582D01*
Y-87091D01*
X-95426Y-88277D01*
X-94969Y-89382D01*
X-94240Y-90331D01*
X-93291Y-91059D01*
X-92186Y-91517D01*
X-91000Y-91673D01*
X-88755Y-93785D01*
X-88543Y-94238D01*
Y-94634D01*
X-84180D01*
X-83544Y-94897D01*
X-82500Y-95034D01*
X-74822D01*
X-72780Y-97785D01*
X-72784Y-98035D01*
X-73265Y-100037D01*
X-73442Y-102287D01*
X-73265Y-104538D01*
X-72738Y-106733D01*
X-71874Y-108819D01*
X-70694Y-110744D01*
X-69228Y-112460D01*
X-67511Y-113927D01*
X-65587Y-115106D01*
X-63501Y-115970D01*
X-61306Y-116497D01*
X-59055Y-116674D01*
X-56805Y-116497D01*
X-54609Y-115970D01*
X-52524Y-115106D01*
X-50599Y-113927D01*
X-48882Y-112460D01*
X-47416Y-110744D01*
X-46236Y-108819D01*
X-45372Y-106733D01*
X-44845Y-104538D01*
X-44668Y-102287D01*
X-44845Y-100037D01*
X-45372Y-97842D01*
X-46236Y-95756D01*
X-47416Y-93831D01*
X-48882Y-92114D01*
X-50599Y-90648D01*
X-51000Y-90402D01*
Y-86323D01*
X-48402Y-84823D01*
X-38108Y-90766D01*
X-37135Y-91169D01*
X-36091Y-91307D01*
X-35047Y-91169D01*
X-34698Y-91025D01*
X-33513Y-91039D01*
X-31212Y-92159D01*
X-31125Y-92370D01*
X-30263Y-93494D01*
X-29140Y-94356D01*
X-27910Y-95066D01*
X-26811Y-97671D01*
X-26793Y-99132D01*
X-29447Y-103729D01*
X-19962Y-109205D01*
Y-109205D01*
X-14848Y-112158D01*
X-13363Y-109585D01*
X-13050Y-109283D01*
X-12877Y-109176D01*
X-9349Y-108634D01*
X-1558Y-113179D01*
X-1549Y-113183D01*
X-1541Y-113189D01*
X-1002Y-113412D01*
X-466Y-113637D01*
X-456Y-113638D01*
X-446Y-113643D01*
X132Y-113719D01*
X708Y-113797D01*
X718Y-113796D01*
X728Y-113797D01*
X1413D01*
X2588Y-113643D01*
X3682Y-113189D01*
X4062Y-112898D01*
X10358Y-116533D01*
X12326Y-119124D01*
X13391Y-119738D01*
X21812Y-124600D01*
X24812Y-119403D01*
X24813Y-119403D01*
X25695Y-117877D01*
X28391Y-119207D01*
X28045Y-120041D01*
X27887Y-121240D01*
X28045Y-122438D01*
X28508Y-123555D01*
X29244Y-124514D01*
X30202Y-125249D01*
X31225Y-125840D01*
X32342Y-126303D01*
X33540Y-126460D01*
X33572Y-126456D01*
X41547Y-131060D01*
X45442Y-124313D01*
X52714Y-126437D01*
X52714Y-126437D01*
X52852Y-126477D01*
X52902Y-126485D01*
X52949Y-126505D01*
X53487Y-126575D01*
X54023Y-126658D01*
X54074Y-126653D01*
X54124Y-126659D01*
X54479D01*
X54831Y-126613D01*
X55186Y-126604D01*
X55416Y-126536D01*
X55654Y-126505D01*
X55982Y-126369D01*
X56323Y-126268D01*
X61555Y-123943D01*
X61759Y-123818D01*
X61981Y-123726D01*
X62262Y-123510D01*
X62565Y-123324D01*
X62730Y-123150D01*
X62921Y-123004D01*
X63059Y-122866D01*
X63087Y-122829D01*
X63123Y-122800D01*
X63130Y-122793D01*
X63131Y-122793D01*
X63131Y-122792D01*
X103602Y-80635D01*
X103719Y-80514D01*
X103814Y-80384D01*
X103933Y-80274D01*
X104164Y-79908D01*
X104421Y-79559D01*
X104479Y-79409D01*
X104566Y-79272D01*
X107252Y-73451D01*
X107367Y-73081D01*
X107516Y-72724D01*
X107543Y-72518D01*
X107604Y-72319D01*
X107620Y-71933D01*
X107670Y-71549D01*
Y-71074D01*
X107600Y-70541D01*
X107543Y-70006D01*
X107523Y-69954D01*
X107516Y-69899D01*
X107310Y-69403D01*
X107116Y-68901D01*
X106121Y-67077D01*
X106545Y-64337D01*
X106545Y-64337D01*
X113498Y-52295D01*
X101455Y-45342D01*
X100577Y-46864D01*
X99313Y-47095D01*
X97122Y-46848D01*
X96917Y-46581D01*
X96082Y-45940D01*
X96082Y-45940D01*
X87256Y-40844D01*
X86283Y-40441D01*
X85239Y-40304D01*
X84194Y-40441D01*
X83221Y-40844D01*
X82386Y-41485D01*
X81745Y-42321D01*
X61124Y-78037D01*
X36353Y-63736D01*
X35568Y-63133D01*
X35568Y-63133D01*
X25845Y-57520D01*
X24872Y-57117D01*
X23828Y-56979D01*
X22784Y-57117D01*
X21811Y-57520D01*
X20975Y-58161D01*
X20334Y-58997D01*
X-433Y-94965D01*
X-888Y-95120D01*
X-6418Y-91927D01*
X-7692Y-88134D01*
X-4090Y-81894D01*
X-3953Y-81973D01*
X3000Y-69931D01*
X941Y-68742D01*
X433Y-68080D01*
X-403Y-67439D01*
X-403Y-67439D01*
X-11918Y-60791D01*
X-12532Y-60536D01*
X-13128Y-59904D01*
X-14277Y-57559D01*
X-2933Y-37910D01*
X-2530Y-36937D01*
X-2521Y-36872D01*
X-2476Y-36762D01*
X-2378Y-36013D01*
X-1395Y-35168D01*
X404Y-34119D01*
X35081Y-53178D01*
X69599Y9854D01*
X19212Y38432D01*
X29030Y56359D01*
X31910Y57198D01*
X94671Y22704D01*
X120829Y70470D01*
X124118Y70230D01*
X127090Y64756D01*
X130305Y58016D01*
X133163Y51116D01*
X135655Y44077D01*
X137776Y36917D01*
X139520Y29656D01*
X140881Y22313D01*
X141855Y14910D01*
X142441Y7465D01*
X142637Y0D01*
X142441Y-7465D01*
X141855Y-14910D01*
X140881Y-22313D01*
X139520Y-29656D01*
X137776Y-36917D01*
X135655Y-44077D01*
X133163Y-51116D01*
X130305Y-58016D01*
X127090Y-64756D01*
X123527Y-71318D01*
X119625Y-77685D01*
X115395Y-83840D01*
X110849Y-89764D01*
X106000Y-95443D01*
X100859Y-100859D01*
X95443Y-106000D01*
X89764Y-110849D01*
X83840Y-115395D01*
X77685Y-119625D01*
X71318Y-123527D01*
X64756Y-127090D01*
X58016Y-130305D01*
X51116Y-133163D01*
X44077Y-135655D01*
X36917Y-137776D01*
X29656Y-139520D01*
X22313Y-140881D01*
X14910Y-141855D01*
X7465Y-142441D01*
X0Y-142637D01*
X-7465Y-142441D01*
X-14910Y-141855D01*
X-22313Y-140881D01*
X-29656Y-139520D01*
X-36917Y-137776D01*
X-44077Y-135655D01*
X-51116Y-133163D01*
X-58016Y-130305D01*
X-64756Y-127090D01*
X-71318Y-123527D01*
X-77685Y-119625D01*
X-83840Y-115395D01*
X-89764Y-110849D01*
X-95443Y-106000D01*
X-100859Y-100859D01*
X-106000Y-95443D01*
X-110849Y-89764D01*
X-115395Y-83840D01*
X-119625Y-77685D01*
X-123527Y-71318D01*
X-127090Y-64756D01*
X-130305Y-58016D01*
X-133163Y-51116D01*
X-135655Y-44077D01*
X-137776Y-36917D01*
X-139520Y-29656D01*
X-140881Y-22313D01*
X-141855Y-14910D01*
X-142441Y-7465D01*
X-142637Y0D01*
X-142441Y7465D01*
X-141855Y14910D01*
X-140881Y22313D01*
X-139520Y29656D01*
X-137776Y36917D01*
X-135655Y44077D01*
X-133163Y51116D01*
X-130305Y58016D01*
X-127090Y64756D01*
X-123527Y71318D01*
X-119625Y77685D01*
X-115395Y83840D01*
X-110849Y89764D01*
X-106000Y95443D01*
X-100859Y100859D01*
X-95443Y106000D01*
X-89764Y110849D01*
X-83840Y115395D01*
X-77685Y119625D01*
X-71318Y123527D01*
X-64756Y127090D01*
X-58016Y130305D01*
X-51116Y133163D01*
X-44077Y135655D01*
X-36917Y137776D01*
X-29656Y139520D01*
X-22313Y140881D01*
X-14910Y141855D01*
X-7465Y142441D01*
X0Y142637D01*
X4362Y142523D01*
D02*
G37*
G36*
X91537Y-67880D02*
X91651Y-68081D01*
X91641Y-68988D01*
X91181Y-69341D01*
X90854Y-69767D01*
X94250Y-71727D01*
X93750Y-72593D01*
X90354Y-70633D01*
X90149Y-71128D01*
X90013Y-72160D01*
X90149Y-73192D01*
X90547Y-74154D01*
X91181Y-74979D01*
X91819Y-75469D01*
X92039Y-75743D01*
X92682Y-78322D01*
X92599Y-78989D01*
X73873Y-98495D01*
X71457Y-96680D01*
X74929Y-90666D01*
X74957Y-90597D01*
X88071Y-67883D01*
X88094Y-67866D01*
X91537Y-67880D01*
D02*
G37*
%LPC*%
G36*
X-59055Y116674D02*
X-61306Y116497D01*
X-63501Y115970D01*
X-65587Y115106D01*
X-67511Y113927D01*
X-69228Y112460D01*
X-70694Y110744D01*
X-71874Y108819D01*
X-72738Y106733D01*
X-73265Y104538D01*
X-73442Y102287D01*
X-73265Y100037D01*
X-72738Y97842D01*
X-71874Y95756D01*
X-70694Y93831D01*
X-69228Y92114D01*
X-67511Y90648D01*
X-65587Y89469D01*
X-63501Y88605D01*
X-61306Y88078D01*
X-59055Y87901D01*
X-56805Y88078D01*
X-54609Y88605D01*
X-52524Y89469D01*
X-50599Y90648D01*
X-48882Y92114D01*
X-47416Y93831D01*
X-46236Y95756D01*
X-45372Y97842D01*
X-44845Y100037D01*
X-44668Y102287D01*
X-44845Y104538D01*
X-45372Y106733D01*
X-46236Y108819D01*
X-47416Y110744D01*
X-48882Y112460D01*
X-50599Y113927D01*
X-52524Y115106D01*
X-54609Y115970D01*
X-56805Y116497D01*
X-59055Y116674D01*
D02*
G37*
G36*
X45811Y45128D02*
X43100Y40433D01*
X49500Y36738D01*
X52211Y41433D01*
X45811Y45128D01*
D02*
G37*
G36*
X53077Y40933D02*
X50366Y36238D01*
X56766Y32543D01*
X59476Y37238D01*
X53077Y40933D01*
D02*
G37*
G36*
X42600Y39567D02*
X39890Y34872D01*
X46289Y31177D01*
X49000Y35872D01*
X42600Y39567D01*
D02*
G37*
G36*
X49866Y35372D02*
X47155Y30677D01*
X53555Y26982D01*
X56266Y31677D01*
X49866Y35372D01*
D02*
G37*
G36*
X118110Y14387D02*
X115860Y14210D01*
X113664Y13683D01*
X111579Y12819D01*
X109654Y11639D01*
X107937Y10173D01*
X106471Y8456D01*
X105291Y6532D01*
X104428Y4446D01*
X103901Y2251D01*
X103723Y0D01*
X103901Y-2251D01*
X104428Y-4446D01*
X105291Y-6532D01*
X106471Y-8456D01*
X107937Y-10173D01*
X109654Y-11639D01*
X111579Y-12819D01*
X113664Y-13683D01*
X115860Y-14210D01*
X118110Y-14387D01*
X120361Y-14210D01*
X122556Y-13683D01*
X124642Y-12819D01*
X126567Y-11639D01*
X128283Y-10173D01*
X129750Y-8456D01*
X130929Y-6532D01*
X131793Y-4446D01*
X132320Y-2251D01*
X132497Y0D01*
X132320Y2251D01*
X131793Y4446D01*
X130929Y6532D01*
X129750Y8456D01*
X128283Y10173D01*
X126567Y11639D01*
X124642Y12819D01*
X122556Y13683D01*
X120361Y14210D01*
X118110Y14387D01*
D02*
G37*
%LPD*%
D10*
X-96511Y-81859D02*
G03*
X-97547Y-81773I-589J-808D01*
G01*
X-8450Y-101913D02*
G03*
X-8533Y-102100I867J-499D01*
G01*
X11689Y-106120D02*
G03*
X11225Y-104603I-1033J514D01*
G01*
X10515Y-108479D02*
X11689Y-106120D01*
X10449Y-109124D02*
X10449Y-109123D01*
X10449Y-109125D02*
X10449Y-109124D01*
X10449Y-109123D02*
X12188Y-107865D01*
X10448Y-109124D02*
X10449Y-109123D01*
X12188Y-107865D02*
X16361Y-109327D01*
X17941Y-108543D01*
X18697Y-107285D02*
X20313Y-104486D01*
X21120Y-103256D01*
X17941Y-108543D02*
X18697Y-107285D01*
X-91000Y-87090D02*
Y-86500D01*
X-99500Y-93500D02*
X-91000Y-87090D01*
X-96511Y-81859D02*
X-96507Y-81862D01*
X-98000Y-82000D02*
X-97547Y-81773D01*
X-96507Y-81862D02*
X-91000Y-85909D01*
Y-86500D02*
Y-85909D01*
X75545Y-76455D02*
Y-66955D01*
X59500Y-92500D02*
X75545Y-76455D01*
Y-66955D02*
X92000Y-50500D01*
X99000Y-63500D02*
X103009Y-70850D01*
X100444Y-77370D02*
X103131Y-71549D01*
X103009Y-70850D02*
X103131Y-71074D01*
X100328Y-77491D02*
X100444Y-77370D01*
X59857Y-119649D02*
X100328Y-77491D01*
X103131Y-71549D02*
Y-71074D01*
X53987Y-122080D02*
X54124Y-122120D01*
X54479D02*
X59711Y-119795D01*
X59850Y-119656D01*
X59857Y-119649D01*
X42469Y-118717D02*
X53987Y-122080D01*
X54124Y-122120D02*
X54479D01*
X42187Y-118434D02*
X42469Y-118717D01*
X42118Y-118309D02*
X42187Y-118434D01*
X42069Y-118219D02*
X42118Y-118309D01*
X-24552Y-90741D02*
X-22677Y-91823D01*
X-18832Y-94342D01*
X-18721Y-96102D01*
X-21721Y-101298D02*
X-20986Y-100027D01*
X-19455Y-97374D01*
X-18721Y-96102D01*
X-14341Y-100327D02*
X-13606Y-99055D01*
X-15872Y-102979D02*
X-14341Y-100327D01*
X-16606Y-104251D02*
X-15872Y-102979D01*
X-12088Y-98378D02*
X-8596Y-100394D01*
X-6855Y-99135D01*
X-13606Y-99055D02*
X-12088Y-98378D01*
X1413Y-109258D02*
X1799Y-108872D01*
X2891Y-106986D02*
X3971Y-105385D01*
X728Y-109258D02*
X1413D01*
X-8433Y-103914D02*
X728Y-109258D01*
X1799Y-108872D02*
X1865Y-108758D01*
X2871Y-107015D01*
X2891Y-106986D01*
X-8818Y-103530D02*
X-8433Y-103914D01*
X-8818Y-103530D02*
Y-102953D01*
X-8766Y-102799D02*
X-8533Y-102100D01*
X-8818Y-102953D02*
X-8766Y-102799D01*
X-8450Y-101913D02*
X-8449Y-101912D01*
X-7829Y-100837D01*
X-6855Y-99135D01*
X1929Y-99539D02*
X2616D01*
X1543Y-99925D02*
X1929Y-99539D01*
X2616D02*
X11225Y-104603D01*
X766Y-101271D02*
X1478Y-100039D01*
X1543Y-99925D01*
X-377Y-102875D02*
X766Y-101271D01*
X10449Y-109125D02*
X10472Y-110841D01*
X23066Y-111503D02*
X25418Y-107430D01*
X20801Y-115427D02*
X23066Y-111503D01*
X25418Y-107430D02*
X26236Y-106207D01*
X27128Y-106613D02*
X34265Y-110733D01*
X35203Y-110289D01*
X26236Y-106207D02*
X27128Y-106613D01*
X33718Y-120342D02*
X34235Y-120628D01*
X37795Y-122684D02*
X39116Y-123334D01*
X34235Y-120628D02*
X37795Y-122684D01*
D21*
X17941Y-108543D02*
D03*
X23055Y-111496D02*
D03*
X-21721Y-101298D02*
D03*
X-16606Y-104251D02*
D03*
X20053Y-116693D02*
D03*
X14939Y-113740D02*
D03*
X12608Y-83905D02*
D03*
X7494Y-80952D02*
D03*
X26234Y-106209D02*
D03*
X21120Y-103256D02*
D03*
X-13606Y-99055D02*
D03*
X-18721Y-96102D02*
D03*
X4203Y-86558D02*
D03*
X9317Y-89511D02*
D03*
D22*
X2651Y-49345D02*
D03*
X-9652Y-70655D02*
D03*
D23*
X40516Y-101173D02*
D03*
X19207Y-88869D02*
D03*
D24*
X-55591Y22750D02*
D03*
X-80000D02*
D03*
X-55591Y45500D02*
D03*
X-80000D02*
D03*
X-55591Y68250D02*
D03*
X-80000D02*
D03*
X-117500Y-68250D02*
D03*
X-93090D02*
D03*
X-117500Y-45500D02*
D03*
X-93090D02*
D03*
X-117500Y-22750D02*
D03*
X-93090D02*
D03*
X-117500Y0D02*
D03*
X-93090D02*
D03*
X-117500Y22750D02*
D03*
X-93090D02*
D03*
X-117500Y45500D02*
D03*
X-93090D02*
D03*
X-117500Y68250D02*
D03*
X-93090D02*
D03*
D25*
X42069Y-118219D02*
D03*
X39116Y-123334D02*
D03*
D27*
X-78000Y-48394D02*
D03*
X-78000Y-73000D02*
D03*
D62*
X35203Y-110289D02*
X35705Y-109460D01*
X37699Y-106006D01*
X40516Y-101173D01*
D68*
X-78820Y-33421D02*
D03*
D70*
X-96000Y-65750D02*
D03*
D71*
X-87500Y10500D02*
D03*
D82*
X49683Y36055D02*
D03*
X-7301Y68955D02*
D03*
D83*
X-57196Y-17465D02*
D03*
X-57173Y-33425D02*
D03*
X-55346Y-49492D02*
D03*
D84*
X0Y0D02*
D03*
D85*
X-17048Y9843D02*
D03*
X17048Y-9843D02*
D03*
D86*
X35840Y99501D02*
D03*
X53160Y89499D02*
D03*
D87*
X104000Y-54840D02*
D03*
D88*
X99000Y-63500D02*
D03*
X94000Y-72160D02*
D03*
D89*
X68000Y105500D02*
D03*
X43000Y119500D02*
D03*
D90*
X76660Y100500D02*
D03*
X34340Y124500D02*
D03*
D91*
X105000Y62500D02*
D03*
D92*
X100000Y53840D02*
D03*
D93*
X-91000Y-86500D02*
D03*
D94*
X-81000Y-86500D02*
D03*
D95*
X96614Y16849D02*
D03*
X100944Y14349D02*
D03*
X98886Y20786D02*
D03*
X103216Y18286D02*
D03*
X101159Y24722D02*
D03*
X105489Y22222D02*
D03*
X103432Y28659D02*
D03*
X107762Y26159D02*
D03*
X105704Y32595D02*
D03*
X110035Y30095D02*
D03*
X107977Y36532D02*
D03*
X112307Y34032D02*
D03*
X110250Y40468D02*
D03*
X114580Y37968D02*
D03*
X112523Y44405D02*
D03*
X116853Y41905D02*
D03*
X114795Y48341D02*
D03*
X119125Y45841D02*
D03*
X117068Y52278D02*
D03*
X121398Y49778D02*
D03*
X119341Y56214D02*
D03*
X123671Y53714D02*
D03*
X125944Y57651D02*
D03*
X121614Y60150D02*
D03*
X128000Y-51199D02*
D03*
X123454Y-59072D02*
D03*
X125727Y-55135D02*
D03*
X123670Y-48699D02*
D03*
X98670Y-92000D02*
D03*
X103000Y-94500D02*
D03*
X100943Y-88064D02*
D03*
X105273Y-90563D02*
D03*
X103215Y-84127D02*
D03*
X107545Y-86627D02*
D03*
X105488Y-80190D02*
D03*
X109818Y-82691D02*
D03*
X118909Y-66945D02*
D03*
X116852Y-60508D02*
D03*
X121182Y-63008D02*
D03*
X119124Y-56572D02*
D03*
X121397Y-52635D02*
D03*
X112091Y-78754D02*
D03*
X92000Y-50500D02*
D03*
X107761Y-76254D02*
D03*
X110034Y-72318D02*
D03*
X114364Y-74818D02*
D03*
X112306Y-68381D02*
D03*
X116636Y-70881D02*
D03*
X114579Y-64445D02*
D03*
X5801Y-134670D02*
D03*
X3301Y-139000D02*
D03*
X-635Y-136727D02*
D03*
X1865Y-132397D02*
D03*
X-4572Y-134455D02*
D03*
X-2072Y-130124D02*
D03*
X-8508Y-132182D02*
D03*
X-6008Y-127852D02*
D03*
X-12445Y-129909D02*
D03*
X-9945Y-125579D02*
D03*
X-16381Y-127636D02*
D03*
X-13881Y-123306D02*
D03*
X-20318Y-125364D02*
D03*
X-17818Y-121034D02*
D03*
X-24254Y-123091D02*
D03*
X-21754Y-118761D02*
D03*
X-28191Y-120818D02*
D03*
X-25691Y-116488D02*
D03*
X-32127Y-118545D02*
D03*
X-29627Y-114215D02*
D03*
X-36064Y-116273D02*
D03*
X-33564Y-111943D02*
D03*
X-40000Y-114000D02*
D03*
X-37500Y-109670D02*
D03*
X-35670Y81199D02*
D03*
X-40000Y83699D02*
D03*
X-37727Y87635D02*
D03*
X-33397Y85135D02*
D03*
X-35454Y91572D02*
D03*
X-31124Y89072D02*
D03*
X-33182Y95508D02*
D03*
X-28852Y93008D02*
D03*
X-30909Y99445D02*
D03*
X-26579Y96945D02*
D03*
X-28636Y103381D02*
D03*
X-24306Y100881D02*
D03*
X-26364Y107318D02*
D03*
X-22034Y104818D02*
D03*
X-24091Y111254D02*
D03*
X-19761Y108754D02*
D03*
X-21818Y115191D02*
D03*
X-17488Y112691D02*
D03*
X-19545Y119127D02*
D03*
X-15215Y116627D02*
D03*
X-17273Y123064D02*
D03*
X-12943Y120563D02*
D03*
X-15000Y127000D02*
D03*
X-10670Y124500D02*
D03*
X-134000Y26500D02*
D03*
X-129000D02*
D03*
Y21955D02*
D03*
X-134000D02*
D03*
X-129000Y17409D02*
D03*
X-134000D02*
D03*
X-129000Y12864D02*
D03*
X-134000D02*
D03*
X-129000Y8318D02*
D03*
X-134000D02*
D03*
X-129000Y3773D02*
D03*
X-134000D02*
D03*
X-129000Y-773D02*
D03*
X-134000D02*
D03*
X-129000Y-5318D02*
D03*
X-134000D02*
D03*
X-129000Y-9864D02*
D03*
X-134000D02*
D03*
X-129000Y-14409D02*
D03*
X-134000D02*
D03*
X-129000Y-18955D02*
D03*
X-134000D02*
D03*
X-129000Y-23500D02*
D03*
X-134000D02*
D03*
X-84000Y-40000D02*
D03*
X-79000D02*
D03*
X-74000D02*
D03*
X-84000Y-35455D02*
D03*
X-79000D02*
D03*
X-74000D02*
D03*
X-84000Y-30909D02*
D03*
X-79000D02*
D03*
X-74000D02*
D03*
X-84000Y-26364D02*
D03*
X-79000D02*
D03*
X-74000D02*
D03*
X-84000Y-21818D02*
D03*
X-79000D02*
D03*
X-74000D02*
D03*
X-84000Y-17273D02*
D03*
X-79000D02*
D03*
X-74000D02*
D03*
X-84000Y-12727D02*
D03*
X-79000D02*
D03*
X-74000D02*
D03*
X-84000Y-8182D02*
D03*
X-79000D02*
D03*
X-74000D02*
D03*
X-84000Y-3636D02*
D03*
X-79000D02*
D03*
X-74000D02*
D03*
X-84000Y909D02*
D03*
X-79000D02*
D03*
X-74000D02*
D03*
X-84000Y5455D02*
D03*
X-79000D02*
D03*
X-74000D02*
D03*
Y10000D02*
D03*
X-79000D02*
D03*
X-84000D02*
D03*
X87500Y-78000D02*
D03*
X84000Y-82500D02*
D03*
X80500Y-87000D02*
D03*
X76000Y-93000D02*
D03*
X65500Y-95500D02*
D03*
X59500Y-92500D02*
D03*
X62500Y-94000D02*
D03*
X88500Y-48500D02*
D03*
X85500Y-46500D02*
D03*
X68000Y-30131D02*
D03*
D96*
X1307Y-92482D02*
D03*
X-6853Y-99136D02*
D03*
X-375Y-102876D02*
D03*
X12130Y-98730D02*
D03*
X3970Y-105384D02*
D03*
X10448Y-109124D02*
D03*
D97*
X14003Y-66812D02*
D03*
X20651Y-70651D02*
D03*
X10003Y-73741D02*
D03*
X16651Y-77579D02*
D03*
D98*
X33718Y-120342D02*
D03*
X27240Y-116601D02*
D03*
X35203Y-110289D02*
D03*
D99*
X-17052Y-77750D02*
D03*
X-19552Y-82081D02*
D03*
X-22052Y-86411D02*
D03*
X-24552Y-90741D02*
D03*
X-34782Y-67514D02*
D03*
X-37282Y-71844D02*
D03*
X-39782Y-76174D02*
D03*
X-42282Y-80505D02*
D03*
D100*
X12792Y-117127D02*
D03*
D101*
X-77000Y-80750D02*
D03*
D102*
X18306Y-81805D02*
D03*
D103*
X47982Y-81521D02*
D03*
D104*
X75545Y-71319D02*
D03*
D105*
X-64601Y-29192D02*
D03*
D106*
X-35224Y-27371D02*
D03*
D107*
X-32107Y-55319D02*
D03*
D108*
X-14293Y-78202D02*
D03*
D109*
X63818Y67368D02*
D03*
M02*
