M48
;Layer_Color=9474304
;FILE_FORMAT=2:5
INCH,LZ
;TYPE=PLATED
T1F00S00C0.00787
T2F00S00C0.01181
T3F00S00C0.01772
T4F00S00C0.02800
T5F00S00C0.03937
T6F00S00C0.05118
%
T01
X0059Y-013
X008Y-01158
X00848Y-01188
X00862Y-00993
X0086185Y-00965
X00861Y-0093
X00817Y-00936
X00822Y-00969
X00893Y-0095
X0094929Y-0097697
X0097185Y-0099159
X01041Y-00993
X0105922Y-0100818
X01079Y-00984
X01098Y-00968
X01116Y-00951
X0113386Y-00929
X01136Y-009
X01142Y-00865
X0113777Y-0083314
X0106927Y-0081389
X0101739Y-0078394
X0104734Y-0073206
X0099255Y-0070043
X009626Y-007523
X0091072Y-0072235
X0087909Y-0077715
X0093096Y-008071
X0090101Y-0085897
X009558Y-0089061
X0098576Y-0083873
X0103763Y-0086868
X01025Y-01035
X01044Y-00638
X01019Y-00616
X0088371Y-0061827
X00821Y-00661
X0079874Y-007739
X0067Y-00875
X00724Y-00602
X00733Y-00576
X00785Y-00517
X00814Y-00507
X00844Y-00503
X00883Y-00507
X0083Y-0039
X00795Y-00342
X00823Y-00267
X00828Y-00248
X0073221Y-0025321
X0073781Y-0028574
X00743Y-00205
X00731Y-00136
X0075Y-00102
X00762Y-00079
X00807Y-00036
X00636Y-00045
X00611Y-00052
X00594Y-00102
X00579Y-00156
X0057Y00065
X00608Y0006
X00645Y0005
X00677Y-00331
X00662Y-00367
X00671Y-0039
X00643Y-00416
X0073Y-0044
X011Y-00325
X01105Y-00265
X012Y-0028
X01255Y-00265
X0127Y-00315
X01245Y-0036
X012Y-0039
X01165Y-00345
X0119Y-00495
X0117Y-00545
X0115Y-0059
X0123Y-006
X0121Y-00625
X0124Y-0064
X0125984Y-0066929
X0125Y-0056
X0129Y-0054
X0132Y-00505
X0134Y-00465
X01325Y-00425
X0135Y-00385
X0138Y-0035
X01385Y-0014
X01315
X0126Y-00135
X01245Y-002
X01241Y-00054
X01131Y-00051
X01345Y00015
X0144Y-00165
X0117814Y-0076429
X00565Y-00731
X0056Y-0066
X00455Y-00635
X00448Y-00572
X00386Y-0056
X00338Y-0055
X0038Y-00635
X00091Y-00633
X00129Y-00712
X00107Y-00902
X00066Y-01013
X00072Y-01055
X0018Y-01096
X002Y-01165
X00148Y-01214
X001255
X00103
X0019Y-01305
X00191Y-01405
X001665
X0018712Y-0143338
X0031583Y-0124416
X00363Y-01166
X00504Y-0124
X0051Y-0131
X00545Y-0129
X0053843Y-0101329
X00538Y-00389
X0051Y-00384
X00485Y-00375
X00453Y-00367
X00356Y-00338
Y-00306
X00381Y-00273
X00392Y-00234
X00402Y-00196
X00409Y-00157
X00306Y-00151
X00315Y-00112
X00331Y-00053
X00342Y-0001
X00422Y-00038
X0046124Y-00029
Y-00062
Y-00095
X00566Y-00207
X00567Y-00396
X0027Y-00265
X00053Y-00496
X-0014Y-00508
X-00209Y-00478
X-00226Y-00531
X-00175Y-00592
X-0034Y-00619
X-00345Y-00668
X-0034Y-00726
X-00358Y-0079
X-00331Y-00876
X-00269Y-0098
X-00149Y-01044
X-00325Y-01375
X-00695Y-01185
X-00615Y-00884
X-006Y-00807
X-00524Y-00854
X-00508Y-00719
X-00507Y-00649
X-00459Y-00508
X-00375Y-004
X-0026Y-00251
X-00538Y-00249
X-00583Y-00238
X-0057294Y-0011328
X-00585Y00029
X-00553Y00057
X-0049Y0001
X-00365Y00065
X-00694Y00021
X-0073365Y-0009781
X-00764Y-00097
X-0075538Y-0021717
X-00798Y-002
X-00828Y-00205
X-0093Y-00415
X-00945Y-005
X-00885Y-00609
X-0077Y-00495
X-0086Y-0094
X-0101Y-0089
X-0102Y-0084
X-012331Y-0065504
X-0125676Y-006487
X-0128043Y-0064236
X-01285Y-00555
X-0120359Y-0048696
X-012206Y-0038819
X-0124233Y-0038236
X-0126407Y-0037654
X-0134Y-00415
X-01354Y-00247
X-0129Y-00255
X-0115915Y-0028249
X-0115769Y-0035431
X-0106629Y-0046076
X-01002Y-00402
X-01195Y-0007
X-0135Y00025
X-0112434Y0015439
X-0106534Y0015339
X-0105953Y0038057
X-0108581Y0037391
X-0100914Y00377
X-0116701Y0035495
X-0118613Y0032713
X-01192Y00296
X-01197Y00259
X-01216Y00336
X-01226Y00368
X-0118963Y0045546
X-0118963Y0051537
X-0124953Y0051537
X-0124954Y0057863
X-0118963Y0057863
X-0118963Y0063854
X-0112637Y0063854
Y0057863
X-0106646Y0057863
X-0106646Y0051537
X-0112637Y0051537
Y0045546
X-0133065Y0047197
X-01326Y00504
X-0134747Y0049393
X-01375Y00494
X-0136614Y00531
X-01344Y005785
X-01293Y00676
X-01266Y00727
X-01247Y00709
X-01207Y00711
X-01187Y00727
X-0116891Y0070765
X-01227Y00732
X-0124505Y0077805
X-0110565Y0081148
X-01115Y00915
X-0102Y00855
X-01Y00825
X-0101Y00995
X-0103Y01045
X-00975Y01025
X-00895Y0097
X-0081Y00975
X-00805Y01015
X-0082Y0114
X-007972Y011762
X-00652Y01122
X-0063Y00939
X-0065Y00755
X-0057Y0076
X-0052
X-00475Y0077
X-0043Y00725
X-00383Y00775
X-00298Y00815
X-0027Y00742
X-00286Y00707
X-00302Y00619
X-00347Y00625
X-00267Y00586
X-00235Y00535
X-00208Y00514
X-00168Y00492
X-00161Y00467
X-00159Y00441
X-00172Y00401
X-00121Y00373
X-00098Y00329
X-00009Y00334
Y00431
X-00083Y00433
X-00147Y00548
X-00144Y00652
X-00204Y00616
X-0033Y00487
X-00359Y00488
X-00396Y00451
X-00434Y00412
X-00473Y00374
X-00498Y00519
X-00477Y00541
X-00458Y0056
X-00508Y0059
X-00562Y00674
X-00608Y00634
X-00652Y00597
X-00675Y00566
X-0066Y00675
X-00607Y00469
X-00577Y00493
X-00635Y00437
X-00664Y00411
X-00718Y00391
X-00688Y00342
X-00652Y00296
X-00626Y00273
X-00609Y00254
X-00582Y00236
X-00559Y00205
X-0051Y0016
X-00471Y00168
X-0045Y00182
X-00427Y00201
X-0036622Y0022982
X-00348Y00245
X-00323Y00295
X-0027Y00215
X-00281Y00196
X-00334Y00136
X-00445Y00095
X-0077425Y0009145
X-0084563Y0010837
X-0081Y00155
X-0087413Y0020287
X-0090686Y0023464
X-008144Y003086
X-00837Y00369
X-0081Y00415
X-0094387Y0041713
X-00947Y00448
X-00945Y00475
X-0097Y00527
X-0097334Y0055591
X-0098067Y0059126
X-0099434Y0067039
X-00995Y0091
X-0088Y0089
X-00779Y00884
X-00855Y008
X-00984Y00404
X-00983Y00359
X-0094728Y00365
X00055Y00371
X0016Y0031
X00205Y0028
X0031Y0019
X00325Y00115
X0037Y00145
X0042Y00115
X00488Y00096
X00512Y00102
X0053Y0008
X00557Y001
X0047Y00519
X00504Y00566
X0024Y00664
X00264Y00718
X-00027Y00743
X-0001Y00806
X-00018Y01085
X-00007Y0114
X0007Y01075
X00348Y01046
X0033Y00987
X00399Y00954
X-00292Y01082
X-0034Y01225
X-00416Y00991
X00681Y00861
X00656Y00808
X00705Y00763
X00892Y00559
X00935Y00586
X00937Y00503
X00703Y00343
X00657Y00316
X00637Y00092
X00598
X0072Y00103
X00834Y00113
X00918Y00118
X0108695Y001578
X01076Y00243
X0114Y00275
X0139Y00115
T02
X0027843Y-0119403
X0027843Y-0116647
X0027843Y-0113891
X-0108944Y-0040266
X-0108231Y-0037604
X-0107518Y-0034942
T03
X0058992Y-0090232
X0063254Y-0092693
X0067516Y-0095153
X0071778Y-0097614
X007604Y-0100075
X-0134434Y0007117
X-0134434Y0012039
X-0134434Y001696
X-0134434Y0021881
X-0134434Y0026802
T04
X0099958Y-0026376
X0095958Y-0021376
X0099958Y-0016376
X-0048891Y0118377
X-0054048Y0122172
X-0051479Y0128037
T05
X-0089887Y-0108724
X-0079887Y-0108724
X-0069887Y-0108724
X-0056314Y-0128186
X-0046314
X-0036314
X-001991Y-0142441
X-000991Y-0142441
X000009Y-0142441
X0000062Y-0097929
X-0009938
X-0019938
X-0061053Y-00635
X-0071053Y-00635
X-0081053Y-00635
T06
X-0097468Y-0016213
X-00375Y-00195
X-00375Y-00095
X-0011495Y-0036758
X-0001495Y-0036758
X0011005Y-0036758
X0021005Y-0036758
X0022703Y-00717
X0022703Y-00817
X0022703Y-00932
X0032703Y-00932
X-0107127Y-0013625
X-0104151Y-0002517
X-0101563Y0007142
X-0059194Y0104446
X-0049194Y0104446
X-00197Y01355
X-00097Y01355
X0022306Y01302
X0031965Y0127612
X0061936Y0114079
X0070596Y0109079
X0096095Y0088414
X0103166Y0081343
X0122513Y0054291
X0127513Y0045631
X0127932Y0022902
X0136592Y0027902
M30
