G04*
G04 #@! TF.GenerationSoftware,Altium Limited,Altium Designer,21.1.1 (26)*
G04*
G04 Layer_Color=128*
%FSLAX25Y25*%
%MOIN*%
G70*
G04*
G04 #@! TF.SameCoordinates,0F44BF6B-53CC-4C36-AD71-B8908F2838ED*
G04*
G04*
G04 #@! TF.FilePolarity,Positive*
G04*
G01*
G75*
%ADD10C,0.00500*%
%ADD11C,0.00200*%
D10*
X173228Y0D02*
G03*
X173228Y0I-173228J0D01*
G01*
X-73819Y-139792D02*
G03*
X-73819Y-139792I-6890J0D01*
G01*
Y139792D02*
G03*
X-73819Y139792I-6890J0D01*
G01*
X168307Y0D02*
G03*
X168307Y0I-6890J0D01*
G01*
X29528D02*
G03*
X29528Y0I-29528J0D01*
G01*
D11*
X20144Y-81700D02*
X25262D01*
X22703Y-84259D02*
Y-79141D01*
X20144Y-71700D02*
X25262D01*
X22703Y-74259D02*
Y-69141D01*
X-104122Y7142D02*
X-99004D01*
X-101563Y4583D02*
Y9701D01*
X-106710Y-2517D02*
X-101592D01*
X-104151Y-5076D02*
Y42D01*
X-109687Y-13625D02*
X-104569D01*
X-107127Y-16184D02*
Y-11066D01*
X-100027Y-16213D02*
X-94909D01*
X-97468Y-18772D02*
Y-13654D01*
X29406Y127612D02*
X34524D01*
X31965Y125053D02*
Y130171D01*
X19747Y130200D02*
X24865D01*
X22306Y127641D02*
Y132759D01*
X68037Y109079D02*
X73155D01*
X70596Y106520D02*
Y111638D01*
X59376Y114079D02*
X64495D01*
X61936Y111520D02*
Y116638D01*
X100607Y81343D02*
X105725D01*
X103166Y78784D02*
Y83902D01*
X93536Y88414D02*
X98654D01*
X96095Y85855D02*
Y90973D01*
X124954Y45631D02*
X130072D01*
X127513Y43072D02*
Y48190D01*
X119954Y54291D02*
X125072D01*
X122513Y51732D02*
Y56850D01*
X134033Y27902D02*
X139151D01*
X136592Y25343D02*
Y30461D01*
X125373Y22902D02*
X130491D01*
X127932Y20343D02*
Y25461D01*
X-51753Y104446D02*
X-46635D01*
X-49194Y101887D02*
Y107006D01*
X-61753Y104446D02*
X-56635D01*
X-59194Y101888D02*
Y107006D01*
X-135320Y21881D02*
X-133548D01*
X-134434Y20995D02*
Y22767D01*
X-135320Y16960D02*
X-133548D01*
X-134434Y16074D02*
Y17846D01*
X-135320Y26802D02*
X-133548D01*
X-134434Y25916D02*
Y27688D01*
X-135320Y7117D02*
X-133548D01*
X-134434Y6231D02*
Y8003D01*
X-135320Y12039D02*
X-133548D01*
X-134434Y11153D02*
Y12924D01*
X-22259Y135500D02*
X-17141D01*
X-19700Y132941D02*
Y138059D01*
X-12259Y135500D02*
X-7141D01*
X-9700Y132941D02*
Y138059D01*
X75154Y-100075D02*
X76926D01*
X76040Y-100961D02*
Y-99189D01*
X70892Y-97614D02*
X72664D01*
X71778Y-98500D02*
Y-96728D01*
X66630Y-95153D02*
X68402D01*
X67516Y-96039D02*
Y-94268D01*
X62368Y-92693D02*
X64140D01*
X63254Y-93579D02*
Y-91807D01*
X58106Y-90232D02*
X59878D01*
X58992Y-91118D02*
Y-89346D01*
X-38283Y-128186D02*
X-34346D01*
X-36314Y-130154D02*
Y-126217D01*
X-48283Y-128186D02*
X-44346D01*
X-46314Y-130154D02*
Y-126217D01*
X-58283Y-128186D02*
X-54346D01*
X-56314Y-130154D02*
Y-126217D01*
X30144Y-93200D02*
X35262D01*
X32703Y-95759D02*
Y-90641D01*
X20144Y-93200D02*
X25262D01*
X22703Y-95759D02*
Y-90641D01*
X-52879Y128037D02*
X-50079D01*
X-51479Y126637D02*
Y129437D01*
X-55448Y122172D02*
X-52648D01*
X-54048Y120772D02*
Y123572D01*
X-50291Y118377D02*
X-47491D01*
X-48891Y116977D02*
Y119777D01*
X98558Y-26376D02*
X101358D01*
X99958Y-27776D02*
Y-24976D01*
X94558Y-21376D02*
X97358D01*
X95958Y-22776D02*
Y-19976D01*
X98558Y-16376D02*
X101358D01*
X99958Y-17776D02*
Y-14976D01*
X-83021Y-63500D02*
X-79084D01*
X-81053Y-65469D02*
Y-61532D01*
X-73021Y-63500D02*
X-69084D01*
X-71053Y-65469D02*
Y-61532D01*
X-63021Y-63500D02*
X-59084D01*
X-61053Y-65468D02*
Y-61531D01*
X-71856Y-108724D02*
X-67919D01*
X-69887Y-110693D02*
Y-106756D01*
X-81856Y-108724D02*
X-77919D01*
X-79887Y-110693D02*
Y-106756D01*
X-91856Y-108724D02*
X-87919D01*
X-89887Y-110693D02*
Y-106756D01*
X-1906Y-97929D02*
X2031D01*
X62Y-99898D02*
Y-95961D01*
X-11906Y-97929D02*
X-7969D01*
X-9938Y-99898D02*
Y-95961D01*
X-21906Y-97929D02*
X-17969D01*
X-19938Y-99898D02*
Y-95961D01*
X-21879Y-142441D02*
X-17942D01*
X-19910Y-144410D02*
Y-140472D01*
X-11879Y-142441D02*
X-7942D01*
X-9910Y-144409D02*
Y-140472D01*
X-1879Y-142441D02*
X2058D01*
X90Y-144410D02*
Y-140472D01*
X-40059Y-19500D02*
X-34941D01*
X-37500Y-22059D02*
Y-16941D01*
X-40059Y-9500D02*
X-34941D01*
X-37500Y-12059D02*
Y-6941D01*
X-4054Y-36758D02*
X1064D01*
X-1495Y-39317D02*
Y-34199D01*
X-14054Y-36758D02*
X-8936D01*
X-11495Y-39317D02*
Y-34199D01*
X8446Y-36758D02*
X13564D01*
X11005Y-39317D02*
Y-34199D01*
X18446Y-36758D02*
X23564D01*
X21005Y-39317D02*
Y-34199D01*
X-111894Y91500D02*
X-111106D01*
X-111500Y91106D02*
Y91894D01*
X-110959Y81148D02*
X-110171D01*
X-110565Y80754D02*
Y81542D01*
X120606Y-62500D02*
X121394D01*
X121000Y-62894D02*
Y-62106D01*
X116606Y-54500D02*
X117394D01*
X117000Y-54894D02*
Y-54106D01*
X114606Y-59000D02*
X115394D01*
X115000Y-59394D02*
Y-58606D01*
X118606Y-49500D02*
X119394D01*
X119000Y-49894D02*
Y-49106D01*
X-135394Y2500D02*
X-134606D01*
X-135000Y2106D02*
Y2894D01*
X82606Y-39000D02*
X83394D01*
X83000Y-39394D02*
Y-38606D01*
X26606Y-26500D02*
X27394D01*
X27000Y-26894D02*
Y-26106D01*
X-37894Y-40000D02*
X-37106D01*
X-37500Y-40394D02*
Y-39606D01*
X-86394Y-94000D02*
X-85606D01*
X-86000Y-94394D02*
Y-93606D01*
X-77394Y-49500D02*
X-76606D01*
X-77000Y-49894D02*
Y-49106D01*
X-94894Y-50000D02*
X-94106D01*
X-94500Y-50394D02*
Y-49606D01*
X-93394Y-41500D02*
X-92606D01*
X-93000Y-41894D02*
Y-41106D01*
X-57688Y-11328D02*
X-56900D01*
X-57294Y-11722D02*
Y-10935D01*
X-72194Y39100D02*
X-71406D01*
X-71800Y38706D02*
Y39494D01*
X106533Y-81389D02*
X107320D01*
X106927Y-81783D02*
Y-80995D01*
X103369Y-86868D02*
X104157D01*
X103763Y-87262D02*
Y-86474D01*
X104340Y-73206D02*
X105128D01*
X104734Y-73600D02*
Y-72812D01*
X101345Y-78394D02*
X102132D01*
X101739Y-78787D02*
Y-78000D01*
X98182Y-83873D02*
X98969D01*
X98576Y-84267D02*
Y-83479D01*
X95187Y-89061D02*
X95974D01*
X95580Y-89454D02*
Y-88667D01*
X98861Y-70043D02*
X99648D01*
X99255Y-70437D02*
Y-69649D01*
X95866Y-75230D02*
X96653D01*
X96260Y-75624D02*
Y-74837D01*
X92703Y-80710D02*
X93490D01*
X93096Y-81103D02*
Y-80316D01*
X89707Y-85897D02*
X90495D01*
X90101Y-86291D02*
Y-85504D01*
X90678Y-72235D02*
X91466D01*
X91072Y-72629D02*
Y-71842D01*
X87515Y-77715D02*
X88302D01*
X87909Y-78108D02*
Y-77321D01*
X-108822Y-37604D02*
X-107641D01*
X-108231Y-38194D02*
Y-37013D01*
X-108108Y-34942D02*
X-106927D01*
X-107518Y-35532D02*
Y-34351D01*
X-109535Y-40266D02*
X-108354D01*
X-108944Y-40856D02*
Y-39675D01*
X113606Y27500D02*
X114394D01*
X114000Y27106D02*
Y27894D01*
X55606Y-66000D02*
X56394D01*
X56000Y-66394D02*
Y-65606D01*
X66606Y-87500D02*
X67394D01*
X67000Y-87894D02*
Y-87106D01*
X50606Y-131000D02*
X51394D01*
X51000Y-131394D02*
Y-130606D01*
X58606Y-130000D02*
X59394D01*
X59000Y-130394D02*
Y-129606D01*
X54106Y-129000D02*
X54894D01*
X54500Y-129394D02*
Y-128606D01*
X-101394Y-89000D02*
X-100606D01*
X-101000Y-89394D02*
Y-88606D01*
X-102394Y-84000D02*
X-101606D01*
X-102000Y-84394D02*
Y-83606D01*
X-69894Y-118500D02*
X-69106D01*
X-69500Y-118894D02*
Y-118106D01*
X-32894Y-137500D02*
X-32106D01*
X-32500Y-137894D02*
Y-137106D01*
X32106Y11500D02*
X32894D01*
X32500Y11106D02*
Y11894D01*
X41606Y11500D02*
X42394D01*
X42000Y11106D02*
Y11894D01*
X72606Y-44000D02*
X73394D01*
X73000Y-44394D02*
Y-43606D01*
X-119894Y-7000D02*
X-119106D01*
X-119500Y-7394D02*
Y-6606D01*
X-129394Y-25500D02*
X-128606D01*
X-129000Y-25894D02*
Y-25106D01*
X-134394Y-41500D02*
X-133606D01*
X-134000Y-41894D02*
Y-41106D01*
X-128894Y-55500D02*
X-128106D01*
X-128500Y-55894D02*
Y-55106D01*
X-88394Y89000D02*
X-87606D01*
X-88000Y88606D02*
Y89394D01*
X-66394Y67500D02*
X-65606D01*
X-66000Y67106D02*
Y67894D01*
X-65394Y75500D02*
X-64606D01*
X-65000Y75106D02*
Y75894D01*
X-57394Y76000D02*
X-56606D01*
X-57000Y75606D02*
Y76394D01*
X-52394Y76000D02*
X-51606D01*
X-52000Y75606D02*
Y76394D01*
X-47894Y77000D02*
X-47106D01*
X-47500Y76606D02*
Y77394D01*
X-43394Y72500D02*
X-42606D01*
X-43000Y72106D02*
Y72894D01*
X-49394Y1000D02*
X-48606D01*
X-49000Y606D02*
Y1394D01*
X-44894Y9500D02*
X-44106D01*
X-44500Y9106D02*
Y9894D01*
X-36894Y6500D02*
X-36106D01*
X-36500Y6106D02*
Y6894D01*
X36606Y14500D02*
X37394D01*
X37000Y14106D02*
Y14894D01*
X30606Y19000D02*
X31394D01*
X31000Y18606D02*
Y19394D01*
X20106Y28000D02*
X20894D01*
X20500Y27606D02*
Y28394D01*
X15606Y31000D02*
X16394D01*
X16000Y30606D02*
Y31394D01*
X-82394Y114000D02*
X-81606D01*
X-82000Y113606D02*
Y114394D01*
X-80894Y101500D02*
X-80106D01*
X-80500Y101106D02*
Y101894D01*
X-81394Y97500D02*
X-80606D01*
X-81000Y97106D02*
Y97894D01*
X-89894Y97000D02*
X-89106D01*
X-89500Y96606D02*
Y97394D01*
X-97894Y102500D02*
X-97106D01*
X-97500Y102106D02*
Y102894D01*
X-103394Y104500D02*
X-102606D01*
X-103000Y104106D02*
Y104894D01*
X-101394Y99500D02*
X-100606D01*
X-101000Y99106D02*
Y99894D01*
X-99894Y91000D02*
X-99106D01*
X-99500Y90606D02*
Y91394D01*
X-100394Y82500D02*
X-99606D01*
X-100000Y82106D02*
Y82894D01*
X-102394Y85500D02*
X-101606D01*
X-102000Y85106D02*
Y85894D01*
X-85894Y80000D02*
X-85106D01*
X-85500Y79606D02*
Y80394D01*
X138606Y11500D02*
X139394D01*
X139000Y11106D02*
Y11894D01*
X134106Y1500D02*
X134894D01*
X134500Y1106D02*
Y1894D01*
X119606Y-28000D02*
X120394D01*
X120000Y-28394D02*
Y-27606D01*
X110106Y-26500D02*
X110894D01*
X110500Y-26894D02*
Y-26106D01*
X109606Y-32500D02*
X110394D01*
X110000Y-32894D02*
Y-32106D01*
X116106Y-34500D02*
X116894D01*
X116500Y-34894D02*
Y-34106D01*
X119606Y-39000D02*
X120394D01*
X120000Y-39394D02*
Y-38606D01*
X124106Y-36000D02*
X124894D01*
X124500Y-36394D02*
Y-35606D01*
X126606Y-31500D02*
X127394D01*
X127000Y-31894D02*
Y-31106D01*
X125106Y-26500D02*
X125894D01*
X125500Y-26894D02*
Y-26106D01*
X124106Y-20000D02*
X124894D01*
X124500Y-20394D02*
Y-19606D01*
X125606Y-13500D02*
X126394D01*
X126000Y-13894D02*
Y-13106D01*
X131106Y-14000D02*
X131894D01*
X131500Y-14394D02*
Y-13606D01*
X138106Y-14000D02*
X138894D01*
X138500Y-14394D02*
Y-13606D01*
X143606Y-16500D02*
X144394D01*
X144000Y-16894D02*
Y-16106D01*
X137606Y-35000D02*
X138394D01*
X138000Y-35394D02*
Y-34606D01*
X134606Y-38500D02*
X135394D01*
X135000Y-38894D02*
Y-38106D01*
X132106Y-42500D02*
X132894D01*
X132500Y-42894D02*
Y-42106D01*
X133606Y-46500D02*
X134394D01*
X134000Y-46894D02*
Y-46106D01*
X131606Y-50500D02*
X132394D01*
X132000Y-50894D02*
Y-50106D01*
X128606Y-54000D02*
X129394D01*
X129000Y-54394D02*
Y-53606D01*
X124606Y-56000D02*
X125394D01*
X125000Y-56394D02*
Y-55606D01*
X122606Y-60000D02*
X123394D01*
X123000Y-60394D02*
Y-59606D01*
X123606Y-64000D02*
X124394D01*
X124000Y-64394D02*
Y-63606D01*
X125591Y-66929D02*
X126378D01*
X125984Y-67323D02*
Y-66535D01*
X79106Y-34200D02*
X79894D01*
X79500Y-34594D02*
Y-33806D01*
X81906Y-26700D02*
X82694D01*
X82300Y-27094D02*
Y-26306D01*
X82406Y-24800D02*
X83194D01*
X82800Y-25194D02*
Y-24406D01*
X72706Y-13600D02*
X73494D01*
X73100Y-13994D02*
Y-13206D01*
X74606Y-10200D02*
X75394D01*
X75000Y-10594D02*
Y-9806D01*
X75806Y-7900D02*
X76594D01*
X76200Y-8294D02*
Y-7506D01*
X80306Y-3600D02*
X81094D01*
X80700Y-3994D02*
Y-3206D01*
X32706Y-5300D02*
X33494D01*
X33100Y-5694D02*
Y-4906D01*
X31106Y-11200D02*
X31894D01*
X31500Y-11594D02*
Y-10806D01*
X30206Y-15100D02*
X30994D01*
X30600Y-15494D02*
Y-14706D01*
X35206Y-30600D02*
X35994D01*
X35600Y-30994D02*
Y-30206D01*
X112706Y-5100D02*
X113494D01*
X113100Y-5494D02*
Y-4706D01*
X107206Y24300D02*
X107994D01*
X107600Y23906D02*
Y24694D01*
X83006Y11300D02*
X83794D01*
X83400Y10906D02*
Y11694D01*
X93306Y50300D02*
X94094D01*
X93700Y49906D02*
Y50694D01*
X88806Y55900D02*
X89594D01*
X89200Y55506D02*
Y56294D01*
X93106Y58600D02*
X93894D01*
X93500Y58206D02*
Y58994D01*
X69906Y34300D02*
X70694D01*
X70300Y33906D02*
Y34694D01*
X6606Y107500D02*
X7394D01*
X7000Y107106D02*
Y107894D01*
X39506Y95400D02*
X40294D01*
X39900Y95006D02*
Y95794D01*
X70106Y76300D02*
X70894D01*
X70500Y75906D02*
Y76694D01*
X34406Y104600D02*
X35194D01*
X34800Y104206D02*
Y104994D01*
X67706Y86100D02*
X68494D01*
X68100Y85706D02*
Y86494D01*
X65206Y80800D02*
X65994D01*
X65600Y80406D02*
Y81194D01*
X50006Y56600D02*
X50794D01*
X50400Y56206D02*
Y56994D01*
X26006Y71800D02*
X26794D01*
X26400Y71406D02*
Y72194D01*
X32606Y98700D02*
X33394D01*
X33000Y98306D02*
Y99094D01*
X-1394Y80600D02*
X-606D01*
X-1000Y80206D02*
Y80994D01*
X-1094Y114000D02*
X-306D01*
X-700Y113606D02*
Y114394D01*
X-2194Y108500D02*
X-1406D01*
X-1800Y108106D02*
Y108894D01*
X-30194Y81500D02*
X-29406D01*
X-29800Y81106D02*
Y81894D01*
X-29594Y108200D02*
X-28806D01*
X-29200Y107806D02*
Y108594D01*
X-65594Y112200D02*
X-64806D01*
X-65200Y111806D02*
Y112594D01*
X-34394Y122500D02*
X-33606D01*
X-34000Y122106D02*
Y122894D01*
X-63394Y93900D02*
X-62606D01*
X-63000Y93506D02*
Y94294D01*
X-67894Y56600D02*
X-67106D01*
X-67500Y56206D02*
Y56994D01*
X-65594Y59700D02*
X-64806D01*
X-65200Y59306D02*
Y60094D01*
X-61194Y63400D02*
X-60406D01*
X-60800Y63006D02*
Y63794D01*
X-10194Y32900D02*
X-9406D01*
X-9800Y32506D02*
Y33294D01*
X-8694Y43300D02*
X-7906D01*
X-8300Y42906D02*
Y43694D01*
X-1294Y33400D02*
X-506D01*
X-900Y33006D02*
Y33794D01*
X-1294Y43100D02*
X-506D01*
X-900Y42706D02*
Y43494D01*
X-33794Y13600D02*
X-33006D01*
X-33400Y13206D02*
Y13994D01*
X-28494Y19600D02*
X-27706D01*
X-28100Y19206D02*
Y19994D01*
X-27394Y21500D02*
X-26606D01*
X-27000Y21106D02*
Y21894D01*
X-12494Y37300D02*
X-11706D01*
X-12100Y36906D02*
Y37694D01*
X-17594Y40100D02*
X-16806D01*
X-17200Y39706D02*
Y40494D01*
X-16294Y44100D02*
X-15506D01*
X-15900Y43706D02*
Y44494D01*
X-16494Y46700D02*
X-15706D01*
X-16100Y46306D02*
Y47094D01*
X-17194Y49200D02*
X-16406D01*
X-16800Y48806D02*
Y49594D01*
X5106Y37100D02*
X5894D01*
X5500Y36706D02*
Y37494D01*
X-26394Y-25100D02*
X-25606D01*
X-26000Y-25494D02*
Y-24706D01*
X-75932Y-21717D02*
X-75144D01*
X-75538Y-22111D02*
Y-21323D01*
X-54194Y-24900D02*
X-53406D01*
X-53800Y-25294D02*
Y-24506D01*
X-60394Y-80700D02*
X-59606D01*
X-60000Y-81094D02*
Y-80306D01*
X-52794Y-85400D02*
X-52006D01*
X-52400Y-85794D02*
Y-85006D01*
X-27294Y-98000D02*
X-26506D01*
X-26900Y-98394D02*
Y-97606D01*
X-22994Y-53100D02*
X-22206D01*
X-22600Y-53494D02*
Y-52706D01*
X12506Y-71200D02*
X13294D01*
X12900Y-71594D02*
Y-70806D01*
X123706Y-5400D02*
X124494D01*
X124100Y-5794D02*
Y-5006D01*
X71606Y10300D02*
X72394D01*
X72000Y9906D02*
Y10694D01*
X65306Y31600D02*
X66094D01*
X65700Y31206D02*
Y31994D01*
X46606Y51900D02*
X47394D01*
X47000Y51506D02*
Y52294D01*
X23606Y66400D02*
X24394D01*
X24000Y66006D02*
Y66794D01*
X-3094Y74300D02*
X-2306D01*
X-2700Y73906D02*
Y74694D01*
X-27394Y74200D02*
X-26606D01*
X-27000Y73806D02*
Y74594D01*
X-124898Y77805D02*
X-124111D01*
X-124505Y77411D02*
Y78198D01*
X-78294Y88400D02*
X-77506D01*
X-77900Y88006D02*
Y88794D01*
X-135794Y-24700D02*
X-135006D01*
X-135400Y-25094D02*
Y-24306D01*
X-129694Y67600D02*
X-128906D01*
X-129300Y67206D02*
Y67994D01*
X50006Y-124000D02*
X50794D01*
X50400Y-124394D02*
Y-123606D01*
X108302Y15780D02*
X109089D01*
X108695Y15386D02*
Y16174D01*
X85706Y-93000D02*
X86494D01*
X86100Y-93394D02*
Y-92606D01*
X88906Y-95000D02*
X89694D01*
X89300Y-95394D02*
Y-94606D01*
X81306Y-93600D02*
X82094D01*
X81700Y-93994D02*
Y-93206D01*
X-34394Y-72600D02*
X-33606D01*
X-34000Y-72994D02*
Y-72206D01*
X-34894Y-66800D02*
X-34106D01*
X-34500Y-67194D02*
Y-66406D01*
X-34394Y-61900D02*
X-33606D01*
X-34000Y-62294D02*
Y-61506D01*
X85806Y-99300D02*
X86594D01*
X86200Y-99694D02*
Y-98906D01*
X85791Y-96500D02*
X86579D01*
X86185Y-96894D02*
Y-96106D01*
X81806Y-96900D02*
X82594D01*
X82200Y-97294D02*
Y-96506D01*
X81006Y-50700D02*
X81794D01*
X81400Y-51094D02*
Y-50306D01*
X84006Y-50300D02*
X84794D01*
X84400Y-50694D02*
Y-49906D01*
X-51194Y-71900D02*
X-50406D01*
X-50800Y-72294D02*
Y-71506D01*
X-51094Y-64900D02*
X-50306D01*
X-50700Y-65294D02*
Y-64506D01*
X-46294Y-50800D02*
X-45506D01*
X-45900Y-51194D02*
Y-50406D01*
X-80114Y117620D02*
X-79327D01*
X-79720Y117227D02*
Y118014D01*
X-117095Y35495D02*
X-116308D01*
X-116701Y35102D02*
Y35889D01*
X-119007Y32713D02*
X-118219D01*
X-118613Y32319D02*
Y33106D01*
X-116163Y-35431D02*
X-115375D01*
X-115769Y-35825D02*
Y-35038D01*
X-133458Y47197D02*
X-132671D01*
X-133065Y46803D02*
Y47591D01*
X-137008Y53100D02*
X-136221D01*
X-136614Y52706D02*
Y53494D01*
X-137894Y49400D02*
X-137106D01*
X-137500Y49006D02*
Y49794D01*
X-121994Y33600D02*
X-121206D01*
X-121600Y33206D02*
Y33994D01*
X-14394Y-50800D02*
X-13606D01*
X-14000Y-51194D02*
Y-50406D01*
X-120094Y25900D02*
X-119306D01*
X-119700Y25506D02*
Y26294D01*
X45730Y-6200D02*
X46518D01*
X46124Y-6594D02*
Y-5806D01*
X45730Y-9500D02*
X46518D01*
X46124Y-9894D02*
Y-9106D01*
X4906Y-49600D02*
X5694D01*
X5300Y-49994D02*
Y-49206D01*
X-119594Y29600D02*
X-118806D01*
X-119200Y29206D02*
Y29994D01*
X-122994Y36800D02*
X-122206D01*
X-122600Y36406D02*
Y37194D01*
X45106Y-63500D02*
X45894D01*
X45500Y-63894D02*
Y-63106D01*
X8706Y-63300D02*
X9494D01*
X9100Y-63694D02*
Y-62906D01*
X10306Y-90200D02*
X11094D01*
X10700Y-90594D02*
Y-89806D01*
X6206Y-101300D02*
X6994D01*
X6600Y-101694D02*
Y-100906D01*
X56106Y-73100D02*
X56894D01*
X56500Y-73494D02*
Y-72706D01*
X6806Y-105500D02*
X7594D01*
X7200Y-105894D02*
Y-105106D01*
X-33494Y-87600D02*
X-32706D01*
X-33100Y-87994D02*
Y-87206D01*
X94535Y-97697D02*
X95323D01*
X94929Y-98091D02*
Y-97303D01*
X96791Y-99159D02*
X97579D01*
X97185Y-99553D02*
Y-98766D01*
X-36194Y-79000D02*
X-35406D01*
X-35800Y-79394D02*
Y-78606D01*
X-58694Y-23800D02*
X-57906D01*
X-58300Y-24194D02*
Y-23406D01*
X-17894Y-59200D02*
X-17106D01*
X-17500Y-59594D02*
Y-58806D01*
X37606Y-63500D02*
X38394D01*
X38000Y-63894D02*
Y-63106D01*
X18319Y-143338D02*
X19106D01*
X18712Y-143731D02*
Y-142944D01*
X18706Y-140500D02*
X19494D01*
X19100Y-140894D02*
Y-140106D01*
X16256Y-140500D02*
X17044D01*
X16650Y-140894D02*
Y-140106D01*
X102106Y-103500D02*
X102894D01*
X102500Y-103894D02*
Y-103106D01*
X103706Y-99300D02*
X104494D01*
X104100Y-99694D02*
Y-98906D01*
X105528Y-100818D02*
X106316D01*
X105922Y-101212D02*
Y-100425D01*
X107506Y-98400D02*
X108294D01*
X107900Y-98794D02*
Y-98006D01*
X109406Y-96800D02*
X110194D01*
X109800Y-97194D02*
Y-96406D01*
X111206Y-95100D02*
X111994D01*
X111600Y-95494D02*
Y-94706D01*
X112992Y-92900D02*
X113779D01*
X113386Y-93294D02*
Y-92506D01*
X113206Y-90000D02*
X113994D01*
X113600Y-90394D02*
Y-89606D01*
X-134794Y57850D02*
X-134006D01*
X-134400Y57456D02*
Y58244D01*
X-135141Y49393D02*
X-134353D01*
X-134747Y48999D02*
Y49787D01*
X-132994Y50400D02*
X-132206D01*
X-132600Y50006D02*
Y50794D01*
X35906Y-116600D02*
X36694D01*
X36300Y-116994D02*
Y-116206D01*
X-21294Y-47800D02*
X-20506D01*
X-20900Y-48194D02*
Y-47406D01*
X87977Y-61827D02*
X88765D01*
X88371Y-62221D02*
Y-61433D01*
X72006Y-60200D02*
X72794D01*
X72400Y-60594D02*
Y-59806D01*
X104006Y-63800D02*
X104794D01*
X104400Y-64194D02*
Y-63406D01*
X101506Y-61600D02*
X102294D01*
X101900Y-61994D02*
Y-61206D01*
X87906Y-50700D02*
X88694D01*
X88300Y-51094D02*
Y-50306D01*
X78106Y-51700D02*
X78894D01*
X78500Y-52094D02*
Y-51306D01*
X113806Y-86500D02*
X114594D01*
X114200Y-86894D02*
Y-86106D01*
X-15294Y-104400D02*
X-14506D01*
X-14900Y-104794D02*
Y-104006D01*
X-101308Y37700D02*
X-100521D01*
X-100914Y37306D02*
Y38094D01*
X-98694Y35900D02*
X-97906D01*
X-98300Y35506D02*
Y36294D01*
X-95122Y36500D02*
X-94335D01*
X-94728Y36106D02*
Y36894D01*
X-88894Y-60900D02*
X-88106D01*
X-88500Y-61294D02*
Y-60506D01*
X-61894Y-88400D02*
X-61106D01*
X-61500Y-88794D02*
Y-88006D01*
X-83194Y-20500D02*
X-82406D01*
X-82800Y-20894D02*
Y-20106D01*
X-84957Y10837D02*
X-84169D01*
X-84563Y10444D02*
Y11231D01*
X-80194Y-20000D02*
X-79406D01*
X-79800Y-20394D02*
Y-19606D01*
X-94781Y41713D02*
X-93994D01*
X-94387Y41319D02*
Y42107D01*
X-91079Y23464D02*
X-90292D01*
X-90686Y23070D02*
Y23857D01*
X-87806Y20287D02*
X-87019D01*
X-87413Y19894D02*
Y20681D01*
X-84094Y36900D02*
X-83306D01*
X-83700Y36506D02*
Y37294D01*
X-81833Y30860D02*
X-81046D01*
X-81440Y30467D02*
Y31254D01*
X-81394Y41500D02*
X-80606D01*
X-81000Y41106D02*
Y41894D01*
X-81394Y15500D02*
X-80606D01*
X-81000Y15106D02*
Y15894D01*
X-76794Y-9700D02*
X-76006D01*
X-76400Y-10094D02*
Y-9306D01*
X-98794Y40400D02*
X-98006D01*
X-98400Y40006D02*
Y40794D01*
X-95094Y44800D02*
X-94306D01*
X-94700Y44406D02*
Y45194D01*
X-97394Y52700D02*
X-96606D01*
X-97000Y52306D02*
Y53094D01*
X-69794Y2100D02*
X-69006D01*
X-69400Y1706D02*
Y2494D01*
X-94894Y47500D02*
X-94106D01*
X-94500Y47106D02*
Y47894D01*
X-98461Y59126D02*
X-97673D01*
X-98067Y58732D02*
Y59519D01*
X-73758Y-9781D02*
X-72971D01*
X-73365Y-10174D02*
Y-9387D01*
X-77819Y9145D02*
X-77032D01*
X-77425Y8751D02*
Y9539D01*
X-100594Y-40200D02*
X-99806D01*
X-100200Y-40594D02*
Y-39806D01*
X-97727Y55591D02*
X-96940D01*
X-97334Y55197D02*
Y55985D01*
X-123094Y73200D02*
X-122306D01*
X-122700Y72806D02*
Y73594D01*
X-119094Y72700D02*
X-118306D01*
X-118700Y72306D02*
Y73094D01*
X-117285Y70765D02*
X-116497D01*
X-116891Y70372D02*
Y71159D01*
X-126994Y72700D02*
X-126206D01*
X-126600Y72306D02*
Y73094D01*
X-69194Y34200D02*
X-68406D01*
X-68800Y33806D02*
Y34594D01*
X-66794Y41100D02*
X-66006D01*
X-66400Y40706D02*
Y41494D01*
X-61294Y25400D02*
X-60506D01*
X-60900Y25006D02*
Y25794D01*
X-58894Y2900D02*
X-58106D01*
X-58500Y2506D02*
Y3294D01*
X-55694Y5700D02*
X-54906D01*
X-55300Y5306D02*
Y6094D01*
X-125094Y70900D02*
X-124306D01*
X-124700Y70506D02*
Y71294D01*
X-121094Y71100D02*
X-120306D01*
X-120700Y70706D02*
Y71494D01*
X79480Y-77390D02*
X80268D01*
X79874Y-77784D02*
Y-76996D01*
X-107040Y57863D02*
X-106253D01*
X-106646Y57470D02*
Y58257D01*
X-107040Y51537D02*
X-106253D01*
X-106646Y51143D02*
Y51930D01*
X-113030Y63854D02*
X-112243D01*
X-112637Y63460D02*
Y64247D01*
X-113030Y57863D02*
X-112243D01*
X-112637Y57470D02*
Y58257D01*
X-113030Y51537D02*
X-112243D01*
X-112637Y51143D02*
Y51930D01*
X-113030Y45546D02*
X-112243D01*
X-112637Y45153D02*
Y45940D01*
X-119357Y63854D02*
X-118570D01*
X-118963Y63460D02*
Y64247D01*
X-119357Y57863D02*
X-118570D01*
X-118963Y57470D02*
Y58257D01*
X-119357Y51537D02*
X-118570D01*
X-118963Y51143D02*
Y51930D01*
X-119357Y45546D02*
X-118570D01*
X-118963Y45153D02*
Y45940D01*
X-125347Y57863D02*
X-124560D01*
X-124954Y57470D02*
Y58257D01*
X-125347Y51537D02*
X-124560D01*
X-124953Y51143D02*
Y51930D01*
X-99828Y67039D02*
X-99040D01*
X-99434Y66645D02*
Y67432D01*
X-108975Y37391D02*
X-108188D01*
X-108581Y36997D02*
Y37785D01*
X-106346Y38057D02*
X-105559D01*
X-105953Y37664D02*
Y38451D01*
X-116309Y-28249D02*
X-115521D01*
X-115915Y-28643D02*
Y-27855D01*
X-112828Y15439D02*
X-112040D01*
X-112434Y15045D02*
Y15832D01*
X-106928Y15339D02*
X-106140D01*
X-106534Y14945D02*
Y15732D01*
X113384Y-83314D02*
X114171D01*
X113777Y-83708D02*
Y-82921D01*
X84406Y-118800D02*
X85194D01*
X84800Y-119194D02*
Y-118406D01*
X79606Y-115800D02*
X80394D01*
X80000Y-116194D02*
Y-115406D01*
X81706Y-66100D02*
X82494D01*
X82100Y-66494D02*
Y-65706D01*
X72906Y-57600D02*
X73694D01*
X73300Y-57994D02*
Y-57206D01*
X44406Y-57200D02*
X45194D01*
X44800Y-57594D02*
Y-56806D01*
X38206Y-56000D02*
X38994D01*
X38600Y-56394D02*
Y-55606D01*
X33406Y-55000D02*
X34194D01*
X33800Y-55394D02*
Y-54606D01*
X-41994Y99100D02*
X-41206D01*
X-41600Y98706D02*
Y99494D01*
X-21194Y51400D02*
X-20406D01*
X-20800Y51006D02*
Y51794D01*
X50806Y10200D02*
X51594D01*
X51200Y9806D02*
Y10594D01*
X48406Y9600D02*
X49194D01*
X48800Y9206D02*
Y9994D01*
X55306Y10000D02*
X56094D01*
X55700Y9606D02*
Y10394D01*
X59406Y9200D02*
X60194D01*
X59800Y8806D02*
Y9594D01*
X56606Y6500D02*
X57394D01*
X57000Y6106D02*
Y6894D01*
X64106Y5000D02*
X64894D01*
X64500Y4606D02*
Y5394D01*
X60406Y6000D02*
X61194D01*
X60800Y5606D02*
Y6394D01*
X63306Y9200D02*
X64094D01*
X63700Y8806D02*
Y9594D01*
X91406Y11800D02*
X92194D01*
X91800Y11406D02*
Y12194D01*
X-38694Y77500D02*
X-37906D01*
X-38300Y77106D02*
Y77894D01*
X-33394Y48700D02*
X-32606D01*
X-33000Y48306D02*
Y49094D01*
X-28994Y70700D02*
X-28206D01*
X-28600Y70306D02*
Y71094D01*
X-35094Y62500D02*
X-34306D01*
X-34700Y62106D02*
Y62894D01*
X-14794Y65200D02*
X-14006D01*
X-14400Y64806D02*
Y65594D01*
X-30594Y61900D02*
X-29806D01*
X-30200Y61506D02*
Y62294D01*
X-27094Y58600D02*
X-26306D01*
X-26700Y58206D02*
Y58994D01*
X-20794Y61600D02*
X-20006D01*
X-20400Y61206D02*
Y61994D01*
X-23894Y53500D02*
X-23106D01*
X-23500Y53106D02*
Y53894D01*
X-15094Y54800D02*
X-14306D01*
X-14700Y54406D02*
Y55194D01*
X-58594Y23600D02*
X-57806D01*
X-58200Y23206D02*
Y23994D01*
X-36294Y48800D02*
X-35506D01*
X-35900Y48406D02*
Y49194D01*
X-39994Y45100D02*
X-39206D01*
X-39600Y44706D02*
Y45494D01*
X-43794Y41200D02*
X-43006D01*
X-43400Y40806D02*
Y41594D01*
X-47694Y37400D02*
X-46906D01*
X-47300Y37006D02*
Y37794D01*
X-65594Y29600D02*
X-64806D01*
X-65200Y29206D02*
Y29994D01*
X-62994Y27300D02*
X-62206D01*
X-62600Y26906D02*
Y27694D01*
X-56294Y20500D02*
X-55506D01*
X-55900Y20106D02*
Y20894D01*
X-51394Y16000D02*
X-50606D01*
X-51000Y15606D02*
Y16394D01*
X-43094Y20100D02*
X-42306D01*
X-42700Y19706D02*
Y20494D01*
X-45394Y18200D02*
X-44606D01*
X-45000Y17806D02*
Y18594D01*
X-47494Y16800D02*
X-46706D01*
X-47100Y16406D02*
Y17194D01*
X-32694Y29500D02*
X-31906D01*
X-32300Y29106D02*
Y29894D01*
X-35194Y24500D02*
X-34406D01*
X-34800Y24106D02*
Y24894D01*
X-37016Y22982D02*
X-36228D01*
X-36622Y22588D02*
Y23375D01*
X-63894Y43700D02*
X-63106D01*
X-63500Y43306D02*
Y44094D01*
X-61094Y46900D02*
X-60306D01*
X-60700Y46506D02*
Y47294D01*
X-58094Y49300D02*
X-57306D01*
X-57700Y48906D02*
Y49694D01*
X-51194Y59000D02*
X-50406D01*
X-50800Y58606D02*
Y59394D01*
X-46194Y56000D02*
X-45406D01*
X-45800Y55606D02*
Y56394D01*
X-48094Y54100D02*
X-47306D01*
X-47700Y53706D02*
Y54494D01*
X-50194Y51900D02*
X-49406D01*
X-49800Y51506D02*
Y52294D01*
X-56594Y67400D02*
X-55806D01*
X-56200Y67006D02*
Y67794D01*
X60706Y-5200D02*
X61494D01*
X61100Y-5594D02*
Y-4806D01*
X56206Y-20700D02*
X56994D01*
X56600Y-21094D02*
Y-20306D01*
X63206Y-4500D02*
X63994D01*
X63600Y-4894D02*
Y-4106D01*
X57506Y-15600D02*
X58294D01*
X57900Y-15994D02*
Y-15206D01*
X59006Y-10200D02*
X59794D01*
X59400Y-10594D02*
Y-9806D01*
X53406Y-38900D02*
X54194D01*
X53800Y-39294D02*
Y-38506D01*
X66706Y-39000D02*
X67494D01*
X67100Y-39394D02*
Y-38606D01*
X63906Y-41600D02*
X64694D01*
X64300Y-41994D02*
Y-41206D01*
X67306Y-33100D02*
X68094D01*
X67700Y-33494D02*
Y-32706D01*
X65806Y-36700D02*
X66594D01*
X66200Y-37094D02*
Y-36306D01*
X73906Y-20500D02*
X74694D01*
X74300Y-20894D02*
Y-20106D01*
X73387Y-28574D02*
X74174D01*
X73781Y-28967D02*
Y-28180D01*
X72828Y-25321D02*
X73615D01*
X73221Y-25715D02*
Y-24928D01*
X37706Y-27300D02*
X38494D01*
X38100Y-27694D02*
Y-26906D01*
X38806Y-23400D02*
X39594D01*
X39200Y-23794D02*
Y-23006D01*
X39806Y-19600D02*
X40594D01*
X40200Y-19994D02*
Y-19206D01*
X40506Y-15700D02*
X41294D01*
X40900Y-16094D02*
Y-15306D01*
X45730Y-2900D02*
X46518D01*
X46124Y-3294D02*
Y-2506D01*
X41806Y-3800D02*
X42594D01*
X42200Y-4194D02*
Y-3406D01*
X35206Y-33800D02*
X35994D01*
X35600Y-34194D02*
Y-33406D01*
X44906Y-36700D02*
X45694D01*
X45300Y-37094D02*
Y-36306D01*
X48106Y-37500D02*
X48894D01*
X48500Y-37894D02*
Y-37106D01*
X50606Y-38400D02*
X51394D01*
X51000Y-38794D02*
Y-38006D01*
X56306Y-39600D02*
X57094D01*
X56700Y-39994D02*
Y-39206D01*
X33806Y-1000D02*
X34594D01*
X34200Y-1394D02*
Y-606D01*
X-107023Y-46076D02*
X-106236D01*
X-106629Y-46470D02*
Y-45682D01*
X-120752Y-48696D02*
X-119965D01*
X-120359Y-49089D02*
Y-48302D01*
X-123703Y-65504D02*
X-122916D01*
X-123310Y-65898D02*
Y-65111D01*
X-126070Y-64870D02*
X-125282D01*
X-125676Y-65264D02*
Y-64477D01*
X-128436Y-64236D02*
X-127649D01*
X-128043Y-64630D02*
Y-63843D01*
X-126801Y-37654D02*
X-126013D01*
X-126407Y-38048D02*
Y-37260D01*
X-122454Y-38819D02*
X-121667D01*
X-122060Y-39212D02*
Y-38425D01*
X-124627Y-38236D02*
X-123840D01*
X-124233Y-38630D02*
Y-37843D01*
X12156Y-121400D02*
X12944D01*
X12550Y-121794D02*
Y-121006D01*
X14406Y-121400D02*
X15194D01*
X14800Y-121794D02*
Y-121006D01*
X9906Y-121400D02*
X10694D01*
X10300Y-121794D02*
Y-121006D01*
X18606Y-130500D02*
X19394D01*
X19000Y-130894D02*
Y-130106D01*
X31190Y-124416D02*
X31977D01*
X31583Y-124810D02*
Y-124023D01*
X17606Y-109600D02*
X18394D01*
X18000Y-109994D02*
Y-109206D01*
X19606Y-116500D02*
X20394D01*
X20000Y-116894D02*
Y-116106D01*
X52606Y8000D02*
X53394D01*
X53000Y7606D02*
Y8394D01*
X117420Y-76429D02*
X118208D01*
X117814Y-76822D02*
Y-76035D01*
X53449Y-101329D02*
X54237D01*
X53843Y-101722D02*
Y-100935D01*
X27253Y-119403D02*
X28434D01*
X27843Y-119994D02*
Y-118813D01*
X27253Y-113891D02*
X28434D01*
X27843Y-114482D02*
Y-113301D01*
X27253Y-116647D02*
X28434D01*
X27843Y-117238D02*
Y-116057D01*
M02*
