G04*
G04 #@! TF.GenerationSoftware,Altium Limited,Altium Designer,21.1.1 (26)*
G04*
G04 Layer_Physical_Order=4*
G04 Layer_Color=16711680*
%FSLAX25Y25*%
%MOIN*%
G70*
G04*
G04 #@! TF.SameCoordinates,C14E84D6-E55F-4F28-B501-0927BA63E6F0*
G04*
G04*
G04 #@! TF.FilePolarity,Positive*
G04*
G01*
G75*
%ADD16C,0.01000*%
%ADD18C,0.00600*%
%ADD19C,0.00800*%
G04:AMPARAMS|DCode=29|XSize=29.53mil|YSize=39.37mil|CornerRadius=0mil|HoleSize=0mil|Usage=FLASHONLY|Rotation=150.000|XOffset=0mil|YOffset=0mil|HoleType=Round|Shape=Rectangle|*
%AMROTATEDRECTD29*
4,1,4,0.02263,0.00967,0.00294,-0.02443,-0.02263,-0.00967,-0.00294,0.02443,0.02263,0.00967,0.0*
%
%ADD29ROTATEDRECTD29*%

G04:AMPARAMS|DCode=31|XSize=29.53mil|YSize=39.37mil|CornerRadius=0mil|HoleSize=0mil|Usage=FLASHONLY|Rotation=60.000|XOffset=0mil|YOffset=0mil|HoleType=Round|Shape=Rectangle|*
%AMROTATEDRECTD31*
4,1,4,0.00967,-0.02263,-0.02443,-0.00294,-0.00967,0.02263,0.02443,0.00294,0.00967,-0.02263,0.0*
%
%ADD31ROTATEDRECTD31*%

G04:AMPARAMS|DCode=37|XSize=29.53mil|YSize=39.37mil|CornerRadius=0mil|HoleSize=0mil|Usage=FLASHONLY|Rotation=255.000|XOffset=0mil|YOffset=0mil|HoleType=Round|Shape=Rectangle|*
%AMROTATEDRECTD37*
4,1,4,-0.01519,0.01936,0.02284,0.00917,0.01519,-0.01936,-0.02284,-0.00917,-0.01519,0.01936,0.0*
%
%ADD37ROTATEDRECTD37*%

%ADD38R,0.03937X0.02953*%
G04:AMPARAMS|DCode=42|XSize=15.75mil|YSize=33.47mil|CornerRadius=1.97mil|HoleSize=0mil|Usage=FLASHONLY|Rotation=270.000|XOffset=0mil|YOffset=0mil|HoleType=Round|Shape=RoundedRectangle|*
%AMROUNDEDRECTD42*
21,1,0.01575,0.02953,0,0,270.0*
21,1,0.01181,0.03347,0,0,270.0*
1,1,0.00394,-0.01476,-0.00591*
1,1,0.00394,-0.01476,0.00591*
1,1,0.00394,0.01476,0.00591*
1,1,0.00394,0.01476,-0.00591*
%
%ADD42ROUNDEDRECTD42*%
G04:AMPARAMS|DCode=45|XSize=29.53mil|YSize=39.37mil|CornerRadius=0mil|HoleSize=0mil|Usage=FLASHONLY|Rotation=225.000|XOffset=0mil|YOffset=0mil|HoleType=Round|Shape=Rectangle|*
%AMROTATEDRECTD45*
4,1,4,-0.00348,0.02436,0.02436,-0.00348,0.00348,-0.02436,-0.02436,0.00348,-0.00348,0.02436,0.0*
%
%ADD45ROTATEDRECTD45*%

G04:AMPARAMS|DCode=46|XSize=23.62mil|YSize=39.37mil|CornerRadius=0mil|HoleSize=0mil|Usage=FLASHONLY|Rotation=345.000|XOffset=0mil|YOffset=0mil|HoleType=Round|Shape=Rectangle|*
%AMROTATEDRECTD46*
4,1,4,-0.01650,-0.01596,-0.00631,0.02207,0.01650,0.01596,0.00631,-0.02207,-0.01650,-0.01596,0.0*
%
%ADD46ROTATEDRECTD46*%

G04:AMPARAMS|DCode=47|XSize=29.53mil|YSize=39.37mil|CornerRadius=0mil|HoleSize=0mil|Usage=FLASHONLY|Rotation=165.000|XOffset=0mil|YOffset=0mil|HoleType=Round|Shape=Rectangle|*
%AMROTATEDRECTD47*
4,1,4,0.01936,0.01519,0.00917,-0.02284,-0.01936,-0.01519,-0.00917,0.02284,0.01936,0.01519,0.0*
%
%ADD47ROTATEDRECTD47*%

G04:AMPARAMS|DCode=56|XSize=27.56mil|YSize=70.87mil|CornerRadius=0mil|HoleSize=0mil|Usage=FLASHONLY|Rotation=345.000|XOffset=0mil|YOffset=0mil|HoleType=Round|Shape=Round|*
%AMOVALD56*
21,1,0.04331,0.02756,0.00000,0.00000,75.0*
1,1,0.02756,-0.00560,-0.02092*
1,1,0.02756,0.00560,0.02092*
%
%ADD56OVALD56*%

G04:AMPARAMS|DCode=57|XSize=27.56mil|YSize=70.87mil|CornerRadius=0mil|HoleSize=0mil|Usage=FLASHONLY|Rotation=330.000|XOffset=0mil|YOffset=0mil|HoleType=Round|Shape=Round|*
%AMOVALD57*
21,1,0.04331,0.02756,0.00000,0.00000,60.0*
1,1,0.02756,-0.01083,-0.01875*
1,1,0.02756,0.01083,0.01875*
%
%ADD57OVALD57*%

G04:AMPARAMS|DCode=58|XSize=29.53mil|YSize=39.37mil|CornerRadius=0mil|HoleSize=0mil|Usage=FLASHONLY|Rotation=315.000|XOffset=0mil|YOffset=0mil|HoleType=Round|Shape=Rectangle|*
%AMROTATEDRECTD58*
4,1,4,-0.02436,-0.00348,0.00348,0.02436,0.02436,0.00348,-0.00348,-0.02436,-0.02436,-0.00348,0.0*
%
%ADD58ROTATEDRECTD58*%

G04:AMPARAMS|DCode=59|XSize=27.56mil|YSize=70.87mil|CornerRadius=0mil|HoleSize=0mil|Usage=FLASHONLY|Rotation=315.000|XOffset=0mil|YOffset=0mil|HoleType=Round|Shape=Round|*
%AMOVALD59*
21,1,0.04331,0.02756,0.00000,0.00000,45.0*
1,1,0.02756,-0.01531,-0.01531*
1,1,0.02756,0.01531,0.01531*
%
%ADD59OVALD59*%

G04:AMPARAMS|DCode=60|XSize=29.53mil|YSize=39.37mil|CornerRadius=0mil|HoleSize=0mil|Usage=FLASHONLY|Rotation=300.000|XOffset=0mil|YOffset=0mil|HoleType=Round|Shape=Rectangle|*
%AMROTATEDRECTD60*
4,1,4,-0.02443,0.00294,0.00967,0.02263,0.02443,-0.00294,-0.00967,-0.02263,-0.02443,0.00294,0.0*
%
%ADD60ROTATEDRECTD60*%

G04:AMPARAMS|DCode=61|XSize=29.53mil|YSize=39.37mil|CornerRadius=0mil|HoleSize=0mil|Usage=FLASHONLY|Rotation=210.000|XOffset=0mil|YOffset=0mil|HoleType=Round|Shape=Rectangle|*
%AMROTATEDRECTD61*
4,1,4,0.00294,0.02443,0.02263,-0.00967,-0.00294,-0.02443,-0.02263,0.00967,0.00294,0.02443,0.0*
%
%ADD61ROTATEDRECTD61*%

G04:AMPARAMS|DCode=62|XSize=27.56mil|YSize=70.87mil|CornerRadius=0mil|HoleSize=0mil|Usage=FLASHONLY|Rotation=300.000|XOffset=0mil|YOffset=0mil|HoleType=Round|Shape=Round|*
%AMOVALD62*
21,1,0.04331,0.02756,0.00000,0.00000,30.0*
1,1,0.02756,-0.01875,-0.01083*
1,1,0.02756,0.01875,0.01083*
%
%ADD62OVALD62*%

%ADD73R,0.02953X0.03937*%
%ADD76R,0.02362X0.03937*%
%ADD89O,0.02756X0.07087*%
%ADD189C,0.02000*%
%ADD191C,0.00800*%
%ADD214R,0.08268X0.07087*%
%ADD215O,0.08268X0.07087*%
G04:AMPARAMS|DCode=216|XSize=70.87mil|YSize=82.68mil|CornerRadius=0mil|HoleSize=0mil|Usage=FLASHONLY|Rotation=75.000|XOffset=0mil|YOffset=0mil|HoleType=Round|Shape=Round|*
%AMOVALD216*
21,1,0.01181,0.07087,0.00000,0.00000,165.0*
1,1,0.07087,0.00570,-0.00153*
1,1,0.07087,-0.00570,0.00153*
%
%ADD216OVALD216*%

G04:AMPARAMS|DCode=217|XSize=70.87mil|YSize=82.68mil|CornerRadius=0mil|HoleSize=0mil|Usage=FLASHONLY|Rotation=75.000|XOffset=0mil|YOffset=0mil|HoleType=Round|Shape=Rectangle|*
%AMROTATEDRECTD217*
4,1,4,0.03076,-0.04493,-0.04910,-0.02353,-0.03076,0.04493,0.04910,0.02353,0.03076,-0.04493,0.0*
%
%ADD217ROTATEDRECTD217*%

G04:AMPARAMS|DCode=218|XSize=70.87mil|YSize=82.68mil|CornerRadius=0mil|HoleSize=0mil|Usage=FLASHONLY|Rotation=345.000|XOffset=0mil|YOffset=0mil|HoleType=Round|Shape=Rectangle|*
%AMROTATEDRECTD218*
4,1,4,-0.04493,-0.03076,-0.02353,0.04910,0.04493,0.03076,0.02353,-0.04910,-0.04493,-0.03076,0.0*
%
%ADD218ROTATEDRECTD218*%

G04:AMPARAMS|DCode=219|XSize=70.87mil|YSize=82.68mil|CornerRadius=0mil|HoleSize=0mil|Usage=FLASHONLY|Rotation=345.000|XOffset=0mil|YOffset=0mil|HoleType=Round|Shape=Round|*
%AMOVALD219*
21,1,0.01181,0.07087,0.00000,0.00000,75.0*
1,1,0.07087,-0.00153,-0.00570*
1,1,0.07087,0.00153,0.00570*
%
%ADD219OVALD219*%

G04:AMPARAMS|DCode=220|XSize=70.87mil|YSize=82.68mil|CornerRadius=0mil|HoleSize=0mil|Usage=FLASHONLY|Rotation=150.000|XOffset=0mil|YOffset=0mil|HoleType=Round|Shape=Rectangle|*
%AMROTATEDRECTD220*
4,1,4,0.05135,0.01808,0.01002,-0.05352,-0.05135,-0.01808,-0.01002,0.05352,0.05135,0.01808,0.0*
%
%ADD220ROTATEDRECTD220*%

G04:AMPARAMS|DCode=221|XSize=70.87mil|YSize=82.68mil|CornerRadius=0mil|HoleSize=0mil|Usage=FLASHONLY|Rotation=150.000|XOffset=0mil|YOffset=0mil|HoleType=Round|Shape=Round|*
%AMOVALD221*
21,1,0.01181,0.07087,0.00000,0.00000,240.0*
1,1,0.07087,0.00295,0.00511*
1,1,0.07087,-0.00295,-0.00511*
%
%ADD221OVALD221*%

G04:AMPARAMS|DCode=222|XSize=70.87mil|YSize=82.68mil|CornerRadius=0mil|HoleSize=0mil|Usage=FLASHONLY|Rotation=135.000|XOffset=0mil|YOffset=0mil|HoleType=Round|Shape=Rectangle|*
%AMROTATEDRECTD222*
4,1,4,0.05429,0.00418,-0.00418,-0.05429,-0.05429,-0.00418,0.00418,0.05429,0.05429,0.00418,0.0*
%
%ADD222ROTATEDRECTD222*%

G04:AMPARAMS|DCode=223|XSize=70.87mil|YSize=82.68mil|CornerRadius=0mil|HoleSize=0mil|Usage=FLASHONLY|Rotation=135.000|XOffset=0mil|YOffset=0mil|HoleType=Round|Shape=Round|*
%AMOVALD223*
21,1,0.01181,0.07087,0.00000,0.00000,225.0*
1,1,0.07087,0.00418,0.00418*
1,1,0.07087,-0.00418,-0.00418*
%
%ADD223OVALD223*%

G04:AMPARAMS|DCode=224|XSize=70.87mil|YSize=82.68mil|CornerRadius=0mil|HoleSize=0mil|Usage=FLASHONLY|Rotation=120.000|XOffset=0mil|YOffset=0mil|HoleType=Round|Shape=Rectangle|*
%AMROTATEDRECTD224*
4,1,4,0.05352,-0.01002,-0.01808,-0.05135,-0.05352,0.01002,0.01808,0.05135,0.05352,-0.01002,0.0*
%
%ADD224ROTATEDRECTD224*%

G04:AMPARAMS|DCode=225|XSize=70.87mil|YSize=82.68mil|CornerRadius=0mil|HoleSize=0mil|Usage=FLASHONLY|Rotation=120.000|XOffset=0mil|YOffset=0mil|HoleType=Round|Shape=Round|*
%AMOVALD225*
21,1,0.01181,0.07087,0.00000,0.00000,210.0*
1,1,0.07087,0.00511,0.00295*
1,1,0.07087,-0.00511,-0.00295*
%
%ADD225OVALD225*%

G04:AMPARAMS|DCode=226|XSize=70.87mil|YSize=82.68mil|CornerRadius=0mil|HoleSize=0mil|Usage=FLASHONLY|Rotation=30.000|XOffset=0mil|YOffset=0mil|HoleType=Round|Shape=Round|*
%AMOVALD226*
21,1,0.01181,0.07087,0.00000,0.00000,120.0*
1,1,0.07087,0.00295,-0.00511*
1,1,0.07087,-0.00295,0.00511*
%
%ADD226OVALD226*%

G04:AMPARAMS|DCode=227|XSize=70.87mil|YSize=82.68mil|CornerRadius=0mil|HoleSize=0mil|Usage=FLASHONLY|Rotation=30.000|XOffset=0mil|YOffset=0mil|HoleType=Round|Shape=Rectangle|*
%AMROTATEDRECTD227*
4,1,4,-0.01002,-0.05352,-0.05135,0.01808,0.01002,0.05352,0.05135,-0.01808,-0.01002,-0.05352,0.0*
%
%ADD227ROTATEDRECTD227*%

%ADD228O,0.07087X0.08268*%
%ADD229R,0.07087X0.08268*%
%ADD230O,0.03543X0.03150*%
%ADD231R,0.03543X0.03150*%
G04:AMPARAMS|DCode=232|XSize=35.43mil|YSize=31.5mil|CornerRadius=0mil|HoleSize=0mil|Usage=FLASHONLY|Rotation=240.000|XOffset=0mil|YOffset=0mil|HoleType=Round|Shape=Round|*
%AMOVALD232*
21,1,0.00394,0.03150,0.00000,0.00000,240.0*
1,1,0.03150,0.00098,0.00171*
1,1,0.03150,-0.00098,-0.00171*
%
%ADD232OVALD232*%

G04:AMPARAMS|DCode=233|XSize=35.43mil|YSize=31.5mil|CornerRadius=0mil|HoleSize=0mil|Usage=FLASHONLY|Rotation=240.000|XOffset=0mil|YOffset=0mil|HoleType=Round|Shape=Rectangle|*
%AMROTATEDRECTD233*
4,1,4,-0.00478,0.02322,0.02250,0.00747,0.00478,-0.02322,-0.02250,-0.00747,-0.00478,0.02322,0.0*
%
%ADD233ROTATEDRECTD233*%

%ADD234C,0.05906*%
%ADD235R,0.05906X0.05906*%
G04:AMPARAMS|DCode=236|XSize=40mil|YSize=60mil|CornerRadius=0mil|HoleSize=0mil|Usage=FLASHONLY|Rotation=105.000|XOffset=0mil|YOffset=0mil|HoleType=Round|Shape=Round|*
%AMOVALD236*
21,1,0.02000,0.04000,0.00000,0.00000,195.0*
1,1,0.04000,0.00966,0.00259*
1,1,0.04000,-0.00966,-0.00259*
%
%ADD236OVALD236*%

%ADD237O,0.06000X0.04000*%
%ADD238C,0.01772*%
%ADD239C,0.01968*%
G04:AMPARAMS|DCode=240|XSize=93.2mil|YSize=86.34mil|CornerRadius=0mil|HoleSize=0mil|Usage=FLASHONLY|Rotation=225.000|XOffset=0mil|YOffset=0mil|HoleType=Round|Shape=Rectangle|*
%AMROTATEDRECTD240*
4,1,4,0.00242,0.06347,0.06347,0.00242,-0.00242,-0.06347,-0.06347,-0.00242,0.00242,0.06347,0.0*
%
%ADD240ROTATEDRECTD240*%

G04:AMPARAMS|DCode=241|XSize=28.93mil|YSize=92.77mil|CornerRadius=0mil|HoleSize=0mil|Usage=FLASHONLY|Rotation=135.000|XOffset=0mil|YOffset=0mil|HoleType=Round|Shape=Rectangle|*
%AMROTATEDRECTD241*
4,1,4,0.04303,0.02257,-0.02257,-0.04303,-0.04303,-0.02257,0.02257,0.04303,0.04303,0.02257,0.0*
%
%ADD241ROTATEDRECTD241*%

G04:AMPARAMS|DCode=242|XSize=81.11mil|YSize=259.98mil|CornerRadius=0mil|HoleSize=0mil|Usage=FLASHONLY|Rotation=135.000|XOffset=0mil|YOffset=0mil|HoleType=Round|Shape=Rectangle|*
%AMROTATEDRECTD242*
4,1,4,0.12059,0.06324,-0.06324,-0.12059,-0.12059,-0.06324,0.06324,0.12059,0.12059,0.06324,0.0*
%
%ADD242ROTATEDRECTD242*%

G04:AMPARAMS|DCode=243|XSize=134.35mil|YSize=64.06mil|CornerRadius=0mil|HoleSize=0mil|Usage=FLASHONLY|Rotation=45.000|XOffset=0mil|YOffset=0mil|HoleType=Round|Shape=Rectangle|*
%AMROTATEDRECTD243*
4,1,4,-0.02485,-0.07015,-0.07015,-0.02485,0.02485,0.07015,0.07015,0.02485,-0.02485,-0.07015,0.0*
%
%ADD243ROTATEDRECTD243*%

G04:AMPARAMS|DCode=244|XSize=81.11mil|YSize=259.98mil|CornerRadius=0mil|HoleSize=0mil|Usage=FLASHONLY|Rotation=165.000|XOffset=0mil|YOffset=0mil|HoleType=Round|Shape=Rectangle|*
%AMROTATEDRECTD244*
4,1,4,0.07282,0.11506,0.00553,-0.13606,-0.07282,-0.11506,-0.00553,0.13606,0.07282,0.11506,0.0*
%
%ADD244ROTATEDRECTD244*%

G04:AMPARAMS|DCode=245|XSize=28.93mil|YSize=92.77mil|CornerRadius=0mil|HoleSize=0mil|Usage=FLASHONLY|Rotation=165.000|XOffset=0mil|YOffset=0mil|HoleType=Round|Shape=Rectangle|*
%AMROTATEDRECTD245*
4,1,4,0.02598,0.04106,0.00196,-0.04855,-0.02598,-0.04106,-0.00196,0.04855,0.02598,0.04106,0.0*
%
%ADD245ROTATEDRECTD245*%

G04:AMPARAMS|DCode=246|XSize=93.2mil|YSize=86.34mil|CornerRadius=0mil|HoleSize=0mil|Usage=FLASHONLY|Rotation=75.000|XOffset=0mil|YOffset=0mil|HoleType=Round|Shape=Rectangle|*
%AMROTATEDRECTD246*
4,1,4,0.02964,-0.05618,-0.05376,-0.03384,-0.02964,0.05618,0.05376,0.03384,0.02964,-0.05618,0.0*
%
%ADD246ROTATEDRECTD246*%

G04:AMPARAMS|DCode=247|XSize=88.34mil|YSize=151.1mil|CornerRadius=0mil|HoleSize=0mil|Usage=FLASHONLY|Rotation=165.000|XOffset=0mil|YOffset=0mil|HoleType=Round|Shape=Rectangle|*
%AMROTATEDRECTD247*
4,1,4,0.06222,0.06154,0.02311,-0.08441,-0.06222,-0.06154,-0.02311,0.08441,0.06222,0.06154,0.0*
%
%ADD247ROTATEDRECTD247*%

G36*
X7339Y149390D02*
X14660Y148850D01*
X21947Y147951D01*
X29180Y146696D01*
X36342Y145087D01*
X43418Y143129D01*
X50389Y140827D01*
X57238Y138184D01*
X63949Y135210D01*
X70507Y131909D01*
X76894Y128290D01*
X83097Y124363D01*
X89099Y120136D01*
X94886Y115619D01*
X100445Y110824D01*
X105762Y105762D01*
X110824Y100445D01*
X115619Y94886D01*
X120136Y89099D01*
X124363Y83097D01*
X128290Y76894D01*
X131909Y70507D01*
X135210Y63949D01*
X138184Y57238D01*
X140827Y50389D01*
X143129Y43418D01*
X145087Y36342D01*
X146696Y29180D01*
X147951Y21947D01*
X148850Y14660D01*
X149195Y9986D01*
X148612Y9304D01*
X147314Y7186D01*
X146364Y4891D01*
X145784Y2476D01*
X145589Y0D01*
X145784Y-2476D01*
X146364Y-4891D01*
X147314Y-7186D01*
X148612Y-9304D01*
X149195Y-9986D01*
X148850Y-14660D01*
X147951Y-21947D01*
X146696Y-29180D01*
X145087Y-36342D01*
X143129Y-43418D01*
X140827Y-50389D01*
X138184Y-57238D01*
X135210Y-63949D01*
X131909Y-70507D01*
X128290Y-76894D01*
X124363Y-83097D01*
X120136Y-89099D01*
X116759Y-93425D01*
X115779Y-93055D01*
Y-92424D01*
X115423Y-91562D01*
X115629Y-91356D01*
X115994Y-90476D01*
Y-89524D01*
X115629Y-88644D01*
X116229Y-87856D01*
X116574Y-87023D01*
X116841Y-86889D01*
X116947Y-86807D01*
X117513Y-86429D01*
X117719Y-86121D01*
X117830Y-86007D01*
X120168Y-82415D01*
X120430Y-82014D01*
X120433Y-82008D01*
X120435Y-82007D01*
X120435Y-82006D01*
X120436Y-82004D01*
X120641Y-81645D01*
X120666Y-81609D01*
X120667Y-81599D01*
X120651Y-81593D01*
X122759Y-76448D01*
X122759Y-76448D01*
X122776Y-76455D01*
X122968Y-75489D01*
X122774Y-74513D01*
X122221Y-73686D01*
X121604Y-73274D01*
X121525Y-73214D01*
X106560Y-65934D01*
X106429Y-65156D01*
X106794Y-64276D01*
Y-63324D01*
X106429Y-62444D01*
X105756Y-61771D01*
X104876Y-61406D01*
X104294D01*
Y-61124D01*
X103929Y-60244D01*
X103256Y-59571D01*
X102376Y-59206D01*
X101424D01*
X100544Y-59571D01*
X99871Y-60244D01*
X99506Y-61124D01*
Y-61390D01*
X98506Y-62016D01*
X93134Y-59402D01*
X93129Y-59401D01*
X93125Y-59398D01*
X93122Y-59396D01*
X93110Y-59393D01*
X93003Y-59322D01*
X92027Y-59128D01*
X91379Y-59257D01*
X91237Y-59274D01*
X89691Y-59783D01*
X88847Y-59433D01*
X87895D01*
X87015Y-59798D01*
X86342Y-60471D01*
X85977Y-61351D01*
Y-62303D01*
X86146Y-62711D01*
X85136Y-64561D01*
X84753Y-64631D01*
X83979Y-64594D01*
X83456Y-64071D01*
X82576Y-63706D01*
X81624D01*
X80744Y-64071D01*
X80071Y-64744D01*
X79706Y-65624D01*
Y-66576D01*
X80071Y-67456D01*
X80744Y-68129D01*
X81624Y-68494D01*
X81849D01*
X82443Y-69494D01*
X79438Y-74997D01*
X79398D01*
X78518Y-75361D01*
X77845Y-76034D01*
X77480Y-76914D01*
Y-77866D01*
X77522Y-77966D01*
X76711Y-79039D01*
X63709Y-82126D01*
X63705Y-82128D01*
X63700Y-82128D01*
X63697Y-82129D01*
X63593Y-82177D01*
X63318Y-82232D01*
X62491Y-82784D01*
X62224Y-83184D01*
X62103Y-83322D01*
X60219Y-86585D01*
X57782Y-85179D01*
X54010Y-91711D01*
X56713Y-93271D01*
X56547Y-93982D01*
X56488Y-94444D01*
X56488Y-94444D01*
X56488Y-94444D01*
X56488Y-94445D01*
X56599Y-95393D01*
X56565Y-95101D01*
X56600Y-95400D01*
X57677Y-104891D01*
X50186Y-121606D01*
X49924D01*
X49044Y-121971D01*
X48685Y-122329D01*
X34165Y-120010D01*
X34047Y-120014D01*
X33766Y-119958D01*
X33592Y-119993D01*
X33544Y-119988D01*
X33541Y-119988D01*
X33538Y-119989D01*
X33535Y-119989D01*
X21947Y-121051D01*
X21933Y-121036D01*
X21933D01*
X21839Y-120997D01*
X21788Y-121018D01*
X20843Y-120884D01*
X16897Y-120208D01*
X16829Y-120044D01*
X16156Y-119371D01*
X15276Y-119006D01*
X14324D01*
X13675Y-119275D01*
X13026Y-119006D01*
X12074D01*
X11425Y-119275D01*
X10776Y-119006D01*
X10401D01*
X9406Y-118180D01*
X9426Y-114247D01*
X9443Y-114247D01*
X9446Y-114233D01*
X9252Y-113258D01*
X8699Y-112431D01*
X8411Y-112239D01*
X8307Y-112133D01*
X8305Y-112132D01*
X8302Y-112131D01*
X8300Y-112129D01*
X7202Y-111397D01*
X7064Y-111339D01*
X6773Y-111145D01*
X5797Y-110951D01*
X5743Y-109973D01*
Y-109583D01*
X-194D01*
Y-110538D01*
X-320Y-110642D01*
X-1314D01*
X-2040Y-109980D01*
Y-104043D01*
X-6945D01*
X-6993Y-104043D01*
X-7946Y-104043D01*
X-7993Y-104043D01*
X-11470D01*
X-11598Y-104018D01*
X-12506D01*
Y-103924D01*
X-12871Y-103044D01*
X-13544Y-102371D01*
X-14424Y-102006D01*
X-14985D01*
Y-92976D01*
X-24891D01*
Y-95318D01*
X-25891Y-95827D01*
X-26424Y-95606D01*
X-27376D01*
X-28256Y-95971D01*
X-28756Y-96471D01*
X-30299D01*
Y-94842D01*
X-36236D01*
Y-95798D01*
X-36362Y-95901D01*
X-37357D01*
X-38083Y-95239D01*
Y-89302D01*
X-42988D01*
X-43035Y-89302D01*
X-43988Y-89302D01*
X-44035Y-89302D01*
X-47513D01*
X-47570Y-89291D01*
X-49398Y-87463D01*
X-49606Y-87324D01*
X-49833Y-87155D01*
X-50100Y-86102D01*
X-50006Y-85876D01*
Y-84924D01*
X-50371Y-84044D01*
X-51044Y-83371D01*
X-51924Y-83006D01*
X-52876D01*
X-53168Y-83127D01*
X-57606Y-80382D01*
Y-80224D01*
X-57971Y-79344D01*
X-58644Y-78671D01*
X-59524Y-78306D01*
X-60476D01*
X-61356Y-78671D01*
X-61460Y-78775D01*
X-64234Y-78107D01*
Y-75866D01*
X-70171D01*
Y-76822D01*
X-70297Y-76925D01*
X-71291D01*
X-72017Y-76264D01*
Y-70327D01*
X-76923D01*
X-76970Y-70327D01*
X-77923D01*
X-77970Y-70327D01*
X-82876D01*
Y-70327D01*
X-83529Y-70597D01*
X-84673Y-69453D01*
X-84259Y-68453D01*
X-76100D01*
Y-58547D01*
X-84980D01*
Y-53599D01*
X-78863Y-47482D01*
X-78575Y-47052D01*
X-78474Y-46545D01*
Y-23472D01*
X-77906Y-23222D01*
X-77474Y-23165D01*
X-76894Y-23746D01*
X-76014Y-24111D01*
X-75062D01*
X-74182Y-23746D01*
X-73509Y-23073D01*
X-73144Y-22193D01*
Y-21241D01*
X-73509Y-20361D01*
X-74182Y-19688D01*
X-75062Y-19323D01*
X-76014D01*
X-76420Y-19491D01*
X-77079Y-19513D01*
X-77622Y-19002D01*
X-77771Y-18644D01*
X-78444Y-17971D01*
X-79324Y-17606D01*
X-80276D01*
X-81156Y-17971D01*
X-81594Y-18409D01*
X-82324Y-18106D01*
X-83276D01*
X-84156Y-18471D01*
X-84829Y-19144D01*
X-85194Y-20024D01*
Y-20976D01*
X-84829Y-21856D01*
X-84156Y-22529D01*
X-84126Y-22542D01*
Y-43051D01*
X-89337Y-48263D01*
X-89625Y-48693D01*
X-89726Y-49200D01*
Y-58817D01*
X-89856Y-58871D01*
X-90529Y-59544D01*
X-90894Y-60424D01*
Y-61376D01*
X-90529Y-62256D01*
X-89856Y-62929D01*
X-88976Y-63294D01*
X-88024D01*
X-87631Y-63556D01*
Y-69695D01*
X-87530Y-70202D01*
X-87243Y-70632D01*
X-83642Y-74232D01*
X-83212Y-74520D01*
X-82876Y-74587D01*
Y-76108D01*
X-82876Y-76264D01*
X-82917Y-77246D01*
X-82971Y-77283D01*
X-83235Y-77679D01*
X-83328Y-78145D01*
Y-79327D01*
X-83235Y-79794D01*
X-82971Y-80190D01*
X-82575Y-80454D01*
X-82108Y-80547D01*
X-79155D01*
X-78688Y-80454D01*
X-78292Y-80190D01*
X-78275Y-80164D01*
X-74500D01*
X-74500Y-80164D01*
X-74500Y-80164D01*
X-74130D01*
X-74112Y-80190D01*
X-73716Y-80454D01*
X-73250Y-80547D01*
X-71128D01*
X-71039Y-80568D01*
X-70732Y-80896D01*
X-71038Y-82031D01*
X-71078Y-82043D01*
X-73250D01*
X-73717Y-82136D01*
X-74112Y-82401D01*
X-74377Y-82797D01*
X-74470Y-83264D01*
Y-84445D01*
X-74377Y-84912D01*
X-74112Y-85308D01*
X-73717Y-85572D01*
X-73684Y-85579D01*
X-73171Y-86366D01*
Y-91319D01*
X-67234D01*
Y-86724D01*
X-64479D01*
X-63723Y-87513D01*
X-63894Y-87924D01*
Y-88876D01*
X-63529Y-89756D01*
X-62856Y-90429D01*
X-61976Y-90794D01*
X-61024D01*
X-60144Y-90429D01*
X-59471Y-89756D01*
X-59458Y-89726D01*
X-50884D01*
X-49070Y-91540D01*
X-48941Y-91626D01*
Y-95084D01*
X-48941Y-95239D01*
X-48982Y-96222D01*
X-49036Y-96258D01*
X-49301Y-96654D01*
X-49393Y-97121D01*
Y-98302D01*
X-49301Y-98769D01*
X-49036Y-99165D01*
X-48640Y-99430D01*
X-48173Y-99523D01*
X-47573D01*
X-47058Y-99625D01*
X-40927D01*
X-40927Y-99625D01*
X-40927Y-99625D01*
X-38200D01*
X-38200Y-99625D01*
X-37685Y-99523D01*
X-37193D01*
X-36962Y-99577D01*
X-36236Y-99795D01*
Y-100747D01*
X-37143Y-101019D01*
X-39315D01*
X-39782Y-101112D01*
X-40178Y-101376D01*
X-40442Y-101772D01*
X-40535Y-102239D01*
Y-103420D01*
X-40442Y-103887D01*
X-40178Y-104283D01*
X-39782Y-104548D01*
X-39750Y-104554D01*
X-39236Y-105342D01*
Y-110294D01*
X-33299D01*
Y-105700D01*
X-30299D01*
Y-100794D01*
X-30299Y-100747D01*
Y-99795D01*
X-29389Y-99529D01*
X-28756D01*
X-28256Y-100029D01*
X-27376Y-100394D01*
X-26424D01*
X-25891Y-100173D01*
X-24891Y-100682D01*
Y-102882D01*
X-17944D01*
X-17276Y-103882D01*
X-17294Y-103924D01*
Y-104876D01*
X-16929Y-105756D01*
X-16256Y-106429D01*
X-15376Y-106794D01*
X-14424D01*
X-14069Y-106647D01*
X-13957Y-106669D01*
X-12898D01*
Y-109825D01*
X-12898Y-109980D01*
X-12939Y-110963D01*
X-12993Y-110999D01*
X-13258Y-111395D01*
X-13351Y-111862D01*
Y-113043D01*
X-13258Y-113510D01*
X-12993Y-113906D01*
X-12598Y-114171D01*
X-12131Y-114264D01*
X-9178D01*
X-8711Y-114171D01*
X-8315Y-113906D01*
X-8298Y-113880D01*
X-4523D01*
X-4523Y-113880D01*
X-4523Y-113880D01*
X-4153D01*
X-4135Y-113906D01*
X-3739Y-114171D01*
X-3272Y-114264D01*
X-1151D01*
X-1061Y-114285D01*
X-754Y-114612D01*
X-1061Y-115748D01*
X-1101Y-115760D01*
X-3272D01*
X-3739Y-115853D01*
X-4135Y-116118D01*
X-4400Y-116513D01*
X-4493Y-116980D01*
Y-118161D01*
X-4400Y-118628D01*
X-4135Y-119024D01*
X-3739Y-119289D01*
X-3707Y-119295D01*
X-3194Y-120083D01*
Y-125036D01*
X2743D01*
Y-120441D01*
X5335D01*
X6331Y-121198D01*
X6273Y-132045D01*
X6254Y-132053D01*
X6254D01*
X6253Y-132058D01*
X6447Y-133034D01*
X7000Y-133861D01*
X7104Y-133930D01*
X7110Y-133938D01*
X7111Y-133939D01*
X7111Y-133939D01*
X7112Y-133940D01*
X7112Y-133940D01*
X14256Y-140398D01*
Y-140976D01*
X14621Y-141856D01*
X15294Y-142529D01*
X16174Y-142894D01*
X16319D01*
Y-143814D01*
X16683Y-144693D01*
X17357Y-145367D01*
X18236Y-145731D01*
X19189D01*
X20068Y-145367D01*
X20742Y-144693D01*
X21106Y-143814D01*
Y-142861D01*
X20819Y-142167D01*
X21129Y-141856D01*
X21494Y-140976D01*
Y-140024D01*
X21129Y-139144D01*
X20456Y-138471D01*
X19576Y-138106D01*
X18624D01*
X17875Y-138417D01*
X17126Y-138106D01*
X16283D01*
X9333Y-131824D01*
X9374Y-124092D01*
X9824Y-123794D01*
X10776D01*
X11425Y-123525D01*
X12074Y-123794D01*
X13026D01*
X13675Y-123525D01*
X14324Y-123794D01*
X15276D01*
X16156Y-123429D01*
X16365Y-123220D01*
X21410Y-124085D01*
X21414Y-124085D01*
X21543Y-124082D01*
X21839Y-124141D01*
X22017Y-124106D01*
X22069Y-124111D01*
X28358Y-123535D01*
X29190Y-124463D01*
Y-124893D01*
X29202Y-124923D01*
X24751Y-129375D01*
X21125D01*
X21029Y-129144D01*
X20356Y-128471D01*
X19476Y-128106D01*
X18524D01*
X17644Y-128471D01*
X16971Y-129144D01*
X16606Y-130024D01*
Y-130976D01*
X16971Y-131856D01*
X17644Y-132529D01*
X18524Y-132894D01*
X19476D01*
X20356Y-132529D01*
X20860Y-132026D01*
X25300D01*
X25807Y-131925D01*
X26237Y-131637D01*
X31077Y-126798D01*
X31107Y-126810D01*
X32060D01*
X32939Y-126446D01*
X33613Y-125773D01*
X33977Y-124893D01*
Y-124090D01*
X34171Y-123756D01*
X34753Y-123201D01*
X48395Y-125381D01*
X49044Y-126029D01*
X49924Y-126394D01*
X50876D01*
X51756Y-126029D01*
X52429Y-125356D01*
X52794Y-124476D01*
Y-123524D01*
X52739Y-123391D01*
X60527Y-106009D01*
X60615Y-105814D01*
X60620Y-105792D01*
X60632Y-105774D01*
X60686Y-105502D01*
X60748Y-105232D01*
X60744Y-105210D01*
X60749Y-105189D01*
Y-104918D01*
X60732Y-104833D01*
X60739Y-104746D01*
X59767Y-96181D01*
X60202Y-95286D01*
X61086Y-94920D01*
X61398Y-94907D01*
X62821Y-92443D01*
X64244Y-89978D01*
X63903Y-89327D01*
X63842Y-88981D01*
X63974Y-88753D01*
X62868Y-88115D01*
X64638Y-85049D01*
X77605Y-81971D01*
X77714Y-81921D01*
X77994Y-81865D01*
X78417Y-81583D01*
X79491Y-81882D01*
X79553Y-81935D01*
X80242Y-84407D01*
X80279Y-84480D01*
X80323Y-84700D01*
X80875Y-85527D01*
X81041Y-85638D01*
X81082Y-85688D01*
X85902Y-89606D01*
X85692Y-90361D01*
X85573Y-90627D01*
X84744Y-90971D01*
X84071Y-91644D01*
X83068Y-91572D01*
X83024Y-91558D01*
X82176Y-91206D01*
X81224D01*
X80344Y-91571D01*
X79671Y-92244D01*
X79306Y-93124D01*
Y-94076D01*
X79671Y-94956D01*
X80215Y-95500D01*
X80171Y-95544D01*
X79806Y-96424D01*
Y-97170D01*
X79144Y-97543D01*
X78882Y-97608D01*
X78688Y-97355D01*
X77941Y-96782D01*
X77071Y-96422D01*
X76138Y-96299D01*
X75316Y-96407D01*
X74999Y-95641D01*
X74426Y-94894D01*
X73679Y-94321D01*
X72809Y-93961D01*
X71876Y-93838D01*
X71054Y-93946D01*
X70737Y-93180D01*
X70164Y-92434D01*
X69417Y-91861D01*
X68548Y-91500D01*
X67614Y-91377D01*
X66681Y-91500D01*
X66475Y-91586D01*
X65602Y-91224D01*
X65189Y-90686D01*
X65051Y-90580D01*
X63687Y-92943D01*
X62323Y-95306D01*
X62484Y-95372D01*
X63156Y-95460D01*
X63906Y-96036D01*
X63935Y-96257D01*
X64295Y-97127D01*
X64868Y-97874D01*
X65615Y-98447D01*
X66484Y-98807D01*
X67418Y-98930D01*
X68239Y-98822D01*
X68557Y-99588D01*
X69130Y-100334D01*
X69877Y-100907D01*
X70746Y-101268D01*
X71679Y-101390D01*
X72501Y-101282D01*
X72819Y-102048D01*
X73392Y-102795D01*
X74139Y-103368D01*
X75008Y-103728D01*
X75941Y-103851D01*
X76875Y-103728D01*
X77744Y-103368D01*
X78323Y-102924D01*
X87492Y-108217D01*
X87982Y-108384D01*
X88498Y-108350D01*
X92127Y-107377D01*
X92695Y-108260D01*
X85798Y-116623D01*
X85276Y-116406D01*
X84818D01*
X82152Y-114740D01*
X82029Y-114444D01*
X81356Y-113771D01*
X80476Y-113406D01*
X79524D01*
X78644Y-113771D01*
X77971Y-114444D01*
X77606Y-115324D01*
Y-116276D01*
X77971Y-117156D01*
X78644Y-117829D01*
X79524Y-118194D01*
X79982D01*
X82648Y-119860D01*
X82771Y-120156D01*
X83444Y-120829D01*
X84324Y-121194D01*
X85276D01*
X85661Y-121034D01*
X85953Y-121128D01*
X86122Y-122232D01*
X83097Y-124363D01*
X76894Y-128290D01*
X70507Y-131909D01*
X63949Y-135210D01*
X57238Y-138184D01*
X50389Y-140827D01*
X43418Y-143129D01*
X36342Y-145087D01*
X29180Y-146696D01*
X21947Y-147951D01*
X14660Y-148850D01*
X7339Y-149390D01*
X0Y-149570D01*
X-7339Y-149390D01*
X-14660Y-148850D01*
X-18357Y-148394D01*
X-18295Y-147394D01*
X-14957D01*
Y-137488D01*
X-24863D01*
Y-146430D01*
X-25863Y-147271D01*
X-29180Y-146696D01*
X-36342Y-145087D01*
X-43418Y-143129D01*
X-50389Y-140827D01*
X-57238Y-138184D01*
X-63949Y-135210D01*
X-65942Y-134206D01*
X-66606Y-132605D01*
X-67903Y-130488D01*
X-69516Y-128599D01*
X-71405Y-126986D01*
X-73523Y-125688D01*
X-75817Y-124738D01*
X-78233Y-124158D01*
X-80709Y-123963D01*
X-83185Y-124158D01*
X-83336Y-124194D01*
X-89099Y-120136D01*
X-94886Y-115619D01*
X-100445Y-110824D01*
X-105762Y-105762D01*
X-110824Y-100445D01*
X-115619Y-94886D01*
X-120136Y-89099D01*
X-124363Y-83097D01*
X-128290Y-76894D01*
X-131909Y-70507D01*
X-135210Y-63949D01*
X-138184Y-57238D01*
X-140827Y-50389D01*
X-143129Y-43418D01*
X-145087Y-36342D01*
X-146696Y-29180D01*
X-147951Y-21947D01*
X-148850Y-14660D01*
X-149390Y-7339D01*
X-149570Y0D01*
X-149390Y7339D01*
X-148850Y14660D01*
X-147951Y21947D01*
X-146696Y29180D01*
X-145087Y36342D01*
X-143129Y43418D01*
X-140827Y50389D01*
X-139985Y52569D01*
X-139460Y52599D01*
X-138948Y52480D01*
X-138946Y52474D01*
X-138856Y51429D01*
X-139529Y50756D01*
X-139894Y49876D01*
Y48924D01*
X-139529Y48044D01*
X-138856Y47371D01*
X-137976Y47006D01*
X-137024D01*
X-136386Y47270D01*
X-135534Y46792D01*
X-135458Y46721D01*
X-135094Y45841D01*
X-134603Y45350D01*
X-134628Y40408D01*
X-134679Y30377D01*
X-138206D01*
Y28427D01*
X-138260Y27449D01*
X-138957Y27332D01*
X-139192Y27264D01*
X-139497Y27177D01*
X-139565Y27142D01*
X-139778Y27100D01*
X-140605Y26547D01*
X-141157Y25720D01*
X-141348Y24763D01*
X-141337Y24763D01*
X-141332Y24757D01*
X-141429Y-4979D01*
X-141449Y-4987D01*
X-141449Y-4987D01*
X-141448Y-4989D01*
X-141365Y-5555D01*
X-141279Y-5925D01*
X-137278Y-23192D01*
X-137429Y-23344D01*
X-137794Y-24224D01*
Y-25176D01*
X-137429Y-26056D01*
X-136756Y-26729D01*
X-136427Y-26866D01*
X-135753Y-29773D01*
X-135702Y-29887D01*
X-135644Y-30176D01*
X-135111Y-30974D01*
X-135105Y-30968D01*
X-135098Y-30968D01*
X-128801Y-37396D01*
Y-38130D01*
X-128436Y-39010D01*
X-127763Y-39683D01*
X-126883Y-40048D01*
X-125931D01*
X-125844Y-40012D01*
X-125589Y-40266D01*
X-124710Y-40630D01*
X-123757D01*
X-123670Y-40594D01*
X-123416Y-40848D01*
X-122536Y-41212D01*
X-121584D01*
X-120704Y-40848D01*
X-120031Y-40174D01*
X-119667Y-39295D01*
Y-38342D01*
X-120031Y-37463D01*
X-120704Y-36789D01*
X-121584Y-36425D01*
X-122536D01*
X-122624Y-36461D01*
X-122878Y-36207D01*
X-123757Y-35843D01*
X-124710D01*
X-124797Y-35879D01*
X-125051Y-35625D01*
X-125931Y-35260D01*
X-126611D01*
X-132801Y-28943D01*
X-132812Y-28916D01*
X-133455Y-26140D01*
X-133371Y-26056D01*
X-133006Y-25176D01*
Y-24224D01*
X-133371Y-23344D01*
X-134044Y-22671D01*
X-134282Y-22572D01*
X-138345Y-5038D01*
X-138304Y-4987D01*
X-138304Y-4987D01*
X-138356Y-4863D01*
X-138367Y-3868D01*
X-138339Y4436D01*
X-137338Y4774D01*
X-137180Y4568D01*
X-136434Y3995D01*
X-135564Y3635D01*
X-134631Y3512D01*
X-134237D01*
X-133304Y3635D01*
X-132434Y3995D01*
X-131687Y4568D01*
X-131114Y5314D01*
X-130754Y6184D01*
X-130631Y7117D01*
X-130754Y8050D01*
X-130788Y8133D01*
X-106363Y32558D01*
X-105439Y32176D01*
Y19317D01*
X-107034Y17722D01*
X-107813Y17400D01*
X-111065Y17455D01*
X-111078Y17468D01*
X-111958Y17832D01*
X-112910D01*
X-113790Y17468D01*
X-114463Y16794D01*
X-114828Y15915D01*
Y14963D01*
X-114463Y14083D01*
X-113790Y13409D01*
X-112910Y13045D01*
X-111958D01*
X-111155Y13377D01*
X-107903Y13322D01*
X-107890Y13309D01*
X-107010Y12945D01*
X-106058D01*
X-105178Y13309D01*
X-104505Y13983D01*
X-104150Y14839D01*
X-102097Y16892D01*
X-101532Y16704D01*
X-101184Y16437D01*
X-102135Y12886D01*
X-103580Y12696D01*
X-104929Y12137D01*
X-106087Y11249D01*
X-106975Y10091D01*
X-107534Y8742D01*
X-107725Y7295D01*
X-107534Y5848D01*
X-107215Y5078D01*
X-107950Y4240D01*
X-108641Y4425D01*
X-111511Y-6284D01*
X-110940Y-6437D01*
X-114069Y-18115D01*
X-103361Y-20985D01*
X-102779Y-18815D01*
X-101726Y-18746D01*
X-101590Y-19075D01*
X-100861Y-20024D01*
X-99912Y-20752D01*
X-99273Y-21017D01*
X-97951Y-16084D01*
X-96629Y-11151D01*
X-97315Y-11060D01*
X-98501Y-11216D01*
X-99607Y-11674D01*
X-99889Y-11891D01*
X-100767Y-11304D01*
X-100231Y-9306D01*
X-99661Y-9459D01*
X-96792Y1250D01*
X-97483Y1435D01*
X-97700Y2529D01*
X-97039Y3036D01*
X-96150Y4194D01*
X-95592Y5542D01*
X-95401Y6989D01*
X-95592Y8437D01*
X-96150Y9785D01*
X-97039Y10943D01*
X-98196Y11831D01*
X-97501Y14423D01*
X-96635Y14923D01*
X-87552Y12489D01*
X-86957Y11314D01*
Y10361D01*
X-86909Y10245D01*
X-88332Y4934D01*
X-85548Y4188D01*
X-84825Y3020D01*
X-85848Y-794D01*
X-85985Y-757D01*
X-87521Y-6492D01*
X-83908Y-7460D01*
Y-7460D01*
X-83322Y-7617D01*
X-83137Y-8071D01*
X-83089Y-8715D01*
X-92092Y-17717D01*
X-92989Y-17200D01*
X-92889Y-16829D01*
X-92733Y-15643D01*
X-92889Y-14457D01*
X-93347Y-13352D01*
X-94075Y-12402D01*
X-95024Y-11674D01*
X-95663Y-11409D01*
X-96985Y-16343D01*
X-98307Y-21276D01*
X-97621Y-21366D01*
X-96435Y-21210D01*
X-95330Y-20752D01*
X-94381Y-20024D01*
X-94025Y-19561D01*
X-93025Y-19900D01*
Y-25451D01*
X-101137Y-33563D01*
X-101425Y-33993D01*
X-101525Y-34500D01*
Y-38158D01*
X-101556Y-38171D01*
X-102229Y-38844D01*
X-102594Y-39724D01*
Y-40676D01*
X-102229Y-41556D01*
X-101556Y-42229D01*
X-100676Y-42594D01*
X-99724D01*
X-98844Y-42229D01*
X-98171Y-41556D01*
X-97806Y-40676D01*
Y-39724D01*
X-98171Y-38844D01*
X-98844Y-38171D01*
X-98874Y-38158D01*
Y-35049D01*
X-90763Y-26937D01*
X-90475Y-26507D01*
X-90374Y-26000D01*
Y-19749D01*
X-81451Y-10825D01*
X-78525D01*
X-78429Y-11056D01*
X-77756Y-11729D01*
X-76876Y-12094D01*
X-75924D01*
X-75044Y-11729D01*
X-74923Y-11608D01*
X-74721Y-11810D01*
X-73841Y-12174D01*
X-72889D01*
X-72009Y-11810D01*
X-71725Y-11527D01*
X-70726Y-11941D01*
Y-21651D01*
X-72502Y-23427D01*
X-72789Y-23857D01*
X-72890Y-24364D01*
Y-25102D01*
X-74041D01*
Y-30884D01*
X-74041Y-31039D01*
X-74082Y-32022D01*
X-74136Y-32058D01*
X-74401Y-32454D01*
X-74494Y-32921D01*
Y-34102D01*
X-74401Y-34569D01*
X-74136Y-34965D01*
X-73740Y-35230D01*
X-73273Y-35323D01*
X-70320D01*
X-69854Y-35230D01*
X-69458Y-34965D01*
X-69440Y-34939D01*
X-65665D01*
X-65665Y-34939D01*
X-65665Y-34939D01*
X-65295D01*
X-65278Y-34965D01*
X-64882Y-35230D01*
X-64415Y-35323D01*
X-62293D01*
X-62204Y-35344D01*
X-61897Y-35671D01*
X-62204Y-36807D01*
X-62243Y-36819D01*
X-64415D01*
X-64882Y-36912D01*
X-65278Y-37176D01*
X-65542Y-37572D01*
X-65635Y-38039D01*
Y-39220D01*
X-65542Y-39687D01*
X-65278Y-40083D01*
X-64882Y-40348D01*
X-64849Y-40354D01*
X-64336Y-41142D01*
Y-46095D01*
X-58399D01*
Y-41500D01*
X-55399D01*
Y-36595D01*
X-55399Y-36547D01*
X-55399Y-35594D01*
X-55399Y-35547D01*
Y-32523D01*
X-53140Y-27217D01*
X-52444Y-26929D01*
X-51771Y-26256D01*
X-51406Y-25376D01*
Y-24424D01*
X-51771Y-23544D01*
X-52444Y-22871D01*
X-53324Y-22506D01*
X-54276D01*
X-55156Y-22871D01*
X-56234Y-22534D01*
X-56271Y-22444D01*
X-56944Y-21771D01*
X-57824Y-21406D01*
X-58776D01*
X-59656Y-21771D01*
X-60329Y-22444D01*
X-60694Y-23324D01*
Y-24276D01*
X-60329Y-25156D01*
X-59656Y-25829D01*
X-58776Y-26194D01*
X-57824D01*
X-56963Y-25837D01*
X-56888Y-25870D01*
X-56128Y-26427D01*
X-57923Y-30642D01*
X-61336D01*
Y-31598D01*
X-61462Y-31701D01*
X-62457D01*
X-63183Y-31039D01*
Y-25102D01*
X-68088D01*
X-68135Y-25102D01*
X-69088Y-25102D01*
X-69428Y-24102D01*
X-68463Y-23137D01*
X-68175Y-22707D01*
X-68075Y-22200D01*
Y58D01*
X-68044Y71D01*
X-67371Y744D01*
X-67006Y1624D01*
Y2576D01*
X-67371Y3456D01*
X-68044Y4129D01*
X-68924Y4494D01*
X-69010D01*
X-69619Y5287D01*
X-68941Y7815D01*
X-68924Y8082D01*
X-68872Y8343D01*
Y9435D01*
X-68872Y9435D01*
X-69027Y10215D01*
X-69469Y10877D01*
X-69469Y10877D01*
X-70434Y11842D01*
X-70546Y11916D01*
X-70634Y12017D01*
X-70874Y12135D01*
X-71095Y12284D01*
X-71227Y12310D01*
X-71348Y12369D01*
X-78203Y14206D01*
X-78606Y15024D01*
Y15976D01*
X-78971Y16856D01*
X-79644Y17529D01*
X-79675Y17542D01*
Y18793D01*
X-78751Y19176D01*
X-74437Y14863D01*
X-74007Y14575D01*
X-73500Y14475D01*
X-70800D01*
X-70293Y14575D01*
X-69863Y14863D01*
X-68645Y16081D01*
X-66525Y13961D01*
X-66370Y13791D01*
X-66173Y13125D01*
X-66210Y12565D01*
X-66237Y12537D01*
X-66525Y12107D01*
X-66625Y11600D01*
Y9700D01*
X-66525Y9193D01*
X-66237Y8763D01*
X-60881Y3407D01*
X-60894Y3376D01*
Y2424D01*
X-60529Y1544D01*
X-59856Y871D01*
X-58976Y506D01*
X-58024D01*
X-57144Y871D01*
X-56471Y1544D01*
X-56106Y2424D01*
X-55776Y3306D01*
X-54824Y3306D01*
X-53944Y3671D01*
X-53271Y4344D01*
X-52906Y5224D01*
Y6176D01*
X-53271Y7056D01*
X-53944Y7729D01*
X-54824Y8094D01*
X-55776D01*
X-55807Y8081D01*
X-56752Y9026D01*
X-55702Y10076D01*
X-55669Y10109D01*
X-54995Y10783D01*
X-54962Y10816D01*
X-52583Y13195D01*
X-52568Y13202D01*
X-52558Y13212D01*
X-52546Y13217D01*
X-51822Y13750D01*
X-51476Y13606D01*
X-50524D01*
X-49644Y13971D01*
X-48971Y14644D01*
X-47952Y14489D01*
X-47233Y13770D01*
X-46902Y13549D01*
X-46512Y13472D01*
X-46122Y13549D01*
X-45791Y13770D01*
X-41594Y17967D01*
X-41344Y18071D01*
X-40671Y18744D01*
X-40567Y18994D01*
X-39201Y20360D01*
X-39040Y20601D01*
X-38843Y20727D01*
X-37978Y20952D01*
X-37098Y20588D01*
X-36146D01*
X-35266Y20952D01*
X-34593Y21626D01*
X-34394Y22106D01*
X-34324D01*
X-33444Y22471D01*
X-32771Y23144D01*
X-32406Y24024D01*
Y24976D01*
X-32771Y25856D01*
X-33097Y26182D01*
X-32938Y26640D01*
X-32607Y27106D01*
X-31824D01*
X-30944Y27471D01*
X-30271Y28144D01*
X-29906Y29024D01*
Y29976D01*
X-30271Y30856D01*
X-30944Y31529D01*
X-31824Y31894D01*
X-32776D01*
X-32795Y31886D01*
X-34793Y33528D01*
X-34842Y34527D01*
X-31862Y37508D01*
X-31862Y37508D01*
X-27664Y41706D01*
X-28344Y42386D01*
X-24375Y46555D01*
X-24277Y46709D01*
X-23806Y47323D01*
X-23403Y48296D01*
X-23297Y49098D01*
X-22787Y49404D01*
X-22261Y49476D01*
X-22156Y49371D01*
X-21276Y49006D01*
X-20324D01*
X-20194Y49060D01*
X-19194Y48724D01*
X-18829Y47844D01*
X-18396Y47411D01*
X-18494Y47176D01*
Y46224D01*
X-18129Y45344D01*
X-18021Y45235D01*
X-18294Y44576D01*
Y43624D01*
X-18186Y43365D01*
X-18556Y42129D01*
X-19229Y41456D01*
X-19594Y40576D01*
Y39624D01*
X-19229Y38744D01*
X-18556Y38071D01*
X-17676Y37706D01*
X-16724D01*
X-15844Y38071D01*
X-15171Y38744D01*
X-14806Y39624D01*
Y40576D01*
X-14914Y40835D01*
X-14544Y42071D01*
X-13871Y42744D01*
X-13506Y43624D01*
Y44576D01*
X-13871Y45456D01*
X-13979Y45565D01*
X-13706Y46224D01*
Y47176D01*
X-14071Y48056D01*
X-14504Y48489D01*
X-14406Y48724D01*
Y49676D01*
X-14771Y50556D01*
X-15444Y51229D01*
X-16324Y51594D01*
X-17276D01*
X-17595Y52035D01*
X-17022Y53014D01*
X-16392Y53107D01*
X-16056Y52771D01*
X-15176Y52406D01*
X-14224D01*
X-13344Y52771D01*
X-12671Y53444D01*
X-12306Y54324D01*
Y55276D01*
X-12671Y56156D01*
X-13344Y56829D01*
X-14224Y57194D01*
X-15176D01*
X-16056Y56829D01*
X-16729Y56156D01*
X-16823Y55929D01*
X-21808Y55193D01*
X-22144Y55529D01*
X-23024Y55894D01*
X-23317D01*
X-24162Y57241D01*
X-23810Y58395D01*
X-21534Y59479D01*
X-20876Y59206D01*
X-19924D01*
X-19044Y59571D01*
X-18371Y60244D01*
X-18006Y61124D01*
Y62076D01*
X-18352Y62911D01*
X-18367Y62968D01*
X-18188Y63572D01*
X-17458Y64167D01*
X-16493Y63999D01*
X-16429Y63844D01*
X-15756Y63171D01*
X-14876Y62806D01*
X-13924D01*
X-13521Y62544D01*
X-13436Y59334D01*
X-13441Y59334D01*
X-13282Y58534D01*
X-13208Y58424D01*
X-12795Y57807D01*
X-12644Y57706D01*
X-12598Y57652D01*
X-12596Y57650D01*
X-12596Y57650D01*
X45582Y11296D01*
X46463Y10213D01*
X46406Y10076D01*
Y9124D01*
X46771Y8244D01*
X47444Y7571D01*
X48324Y7206D01*
X49276D01*
X49670Y7369D01*
X50263Y7467D01*
X50875Y6876D01*
X50971Y6644D01*
X51644Y5971D01*
X52524Y5606D01*
X53427D01*
X53772Y5260D01*
X54135Y4834D01*
X54041Y4744D01*
X53968Y4714D01*
X53133Y4073D01*
X52599Y3377D01*
X47042Y4866D01*
X46645Y4893D01*
X46268Y4765D01*
X45969Y4502D01*
X45793Y4146D01*
X45165Y1803D01*
X40535Y3044D01*
X39569Y3303D01*
X38664Y3545D01*
X33834Y4839D01*
X32802Y988D01*
X32171Y356D01*
X32072Y116D01*
X31060Y288D01*
X30881Y3480D01*
X30297Y6915D01*
X29333Y10264D01*
X27999Y13484D01*
X26313Y16534D01*
X24296Y19376D01*
X21974Y21974D01*
X19376Y24296D01*
X16534Y26313D01*
X13484Y27999D01*
X10264Y29333D01*
X6915Y30297D01*
X3480Y30881D01*
X1492Y30993D01*
X1101Y32016D01*
X1129Y32044D01*
X1494Y32924D01*
Y33876D01*
X1129Y34756D01*
X456Y35429D01*
X-424Y35794D01*
X-1376D01*
X-2256Y35429D01*
X-2929Y34756D01*
X-3294Y33876D01*
Y32924D01*
X-2929Y32044D01*
X-2806Y31920D01*
X-3196Y30897D01*
X-3480Y30881D01*
X-6915Y30297D01*
X-10264Y29333D01*
X-13484Y27999D01*
X-16534Y26313D01*
X-19376Y24296D01*
X-21974Y21974D01*
X-24117Y19577D01*
X-24845Y19701D01*
X-25160Y19888D01*
X-25167Y19948D01*
X-24971Y20144D01*
X-24606Y21024D01*
Y21976D01*
X-24971Y22856D01*
X-25644Y23529D01*
X-26524Y23894D01*
X-27476D01*
X-28356Y23529D01*
X-29029Y22856D01*
X-29394Y21976D01*
Y21655D01*
X-29456Y21629D01*
X-30129Y20956D01*
X-30494Y20076D01*
Y19124D01*
X-30129Y18244D01*
X-29456Y17571D01*
X-28576Y17206D01*
X-27624D01*
X-27137Y17408D01*
X-26393Y16665D01*
X-26336Y16492D01*
X-27999Y13484D01*
X-29333Y10264D01*
X-30297Y6915D01*
X-30881Y3480D01*
X-31076Y0D01*
X-30881Y-3480D01*
X-30297Y-6915D01*
X-29333Y-10264D01*
X-27999Y-13484D01*
X-26313Y-16534D01*
X-24296Y-19376D01*
X-21974Y-21974D01*
X-19376Y-24296D01*
X-16534Y-26313D01*
X-13484Y-27999D01*
X-10264Y-29333D01*
X-7798Y-30043D01*
X-7038Y-30624D01*
Y-32869D01*
X-8038Y-33209D01*
X-8255Y-32927D01*
X-9204Y-32199D01*
X-10309Y-31741D01*
X-10995Y-31651D01*
Y-36758D01*
Y-41865D01*
X-10309Y-41775D01*
X-9204Y-41317D01*
X-8255Y-40589D01*
X-8038Y-40307D01*
X-7038Y-40646D01*
Y-42892D01*
X4048D01*
Y-31674D01*
X4501Y-31464D01*
X5462Y-32120D01*
Y-42892D01*
X16548D01*
Y-40646D01*
X17548Y-40307D01*
X17765Y-40589D01*
X18714Y-41317D01*
X19819Y-41775D01*
X20505Y-41865D01*
Y-36758D01*
Y-31651D01*
X19819Y-31741D01*
X18714Y-32199D01*
X17765Y-32927D01*
X17548Y-33209D01*
X16548Y-32869D01*
Y-30624D01*
X9394D01*
X9252Y-29624D01*
X10264Y-29333D01*
X13484Y-27999D01*
X16534Y-26313D01*
X19376Y-24296D01*
X21974Y-21974D01*
X24296Y-19376D01*
X26313Y-16534D01*
X27206Y-14918D01*
X28206Y-15176D01*
Y-15576D01*
X28571Y-16456D01*
X29244Y-17129D01*
X30124Y-17494D01*
X31076D01*
X31956Y-17129D01*
X32629Y-16456D01*
X32994Y-15576D01*
Y-14624D01*
X32822Y-14209D01*
X32856Y-13229D01*
X33529Y-12556D01*
X33894Y-11676D01*
Y-10724D01*
X33529Y-9844D01*
X32856Y-9171D01*
X31976Y-8806D01*
X31024D01*
X30762Y-8915D01*
X29934Y-8175D01*
X30236Y-7128D01*
X30382Y-7045D01*
X30851Y-6907D01*
X31314Y-6899D01*
X31744Y-7329D01*
X32624Y-7694D01*
X33576D01*
X34456Y-7329D01*
X35129Y-6656D01*
X35494Y-5776D01*
Y-4824D01*
X35129Y-3944D01*
X35556Y-3029D01*
X36229Y-2356D01*
X36594Y-1476D01*
X37027Y-1144D01*
X38348Y-1498D01*
X39502Y-1807D01*
X39955Y-2964D01*
X39806Y-3324D01*
Y-4276D01*
X40171Y-5156D01*
X40844Y-5829D01*
X41724Y-6194D01*
X41987D01*
X42764Y-7157D01*
X41882Y-10450D01*
X41856Y-10847D01*
X41984Y-11223D01*
X42246Y-11522D01*
X42603Y-11698D01*
X43851Y-12033D01*
X43697Y-13005D01*
X42721Y-13200D01*
X42649Y-13248D01*
X41731Y-13453D01*
X41376Y-13306D01*
X40424D01*
X39544Y-13671D01*
X38871Y-14344D01*
X38506Y-15224D01*
Y-16176D01*
X38666Y-16562D01*
X38785Y-17233D01*
X38408Y-18007D01*
X38171Y-18244D01*
X37806Y-19124D01*
Y-20076D01*
X38171Y-20956D01*
X38110Y-21260D01*
X37844Y-21371D01*
X37171Y-22044D01*
X36806Y-22924D01*
Y-23876D01*
X36908Y-24121D01*
X36749Y-25233D01*
X36508Y-25507D01*
X36071Y-25944D01*
X35706Y-26824D01*
Y-27776D01*
X35419Y-28206D01*
X35124D01*
X34244Y-28571D01*
X33571Y-29244D01*
X33206Y-30124D01*
Y-31076D01*
X33571Y-31956D01*
X33815Y-32200D01*
X33571Y-32444D01*
X33206Y-33324D01*
Y-33857D01*
X32368Y-34668D01*
X32318Y-34654D01*
X31049Y-39393D01*
X31036Y-39438D01*
X30790Y-40359D01*
X29508Y-45143D01*
X32337Y-45900D01*
X32042Y-47002D01*
X32030Y-47167D01*
X31964Y-47500D01*
X32112Y-48241D01*
X32532Y-48870D01*
X32853Y-49084D01*
X32979Y-49190D01*
X38990Y-52480D01*
X38991Y-52617D01*
X38124Y-53606D01*
X37244Y-53971D01*
X37105Y-54110D01*
X35925Y-53875D01*
X35829Y-53644D01*
X35156Y-52971D01*
X34276Y-52606D01*
X33324D01*
X32444Y-52971D01*
X31771Y-53644D01*
X31406Y-54524D01*
Y-55476D01*
X31771Y-56356D01*
X32444Y-57029D01*
X33324Y-57394D01*
X34276D01*
X35156Y-57029D01*
X36070Y-57433D01*
X36085Y-57461D01*
X35490Y-58461D01*
X25000D01*
X24220Y-58616D01*
X23558Y-59058D01*
X21261Y-61355D01*
X20819Y-62016D01*
X20664Y-62797D01*
Y-66300D01*
X19317Y-66858D01*
X18159Y-67747D01*
X17271Y-68904D01*
X16712Y-70253D01*
X16522Y-71700D01*
X16712Y-73147D01*
X17271Y-74496D01*
X17778Y-75157D01*
X17285Y-76157D01*
X16569D01*
Y-87243D01*
X17160D01*
Y-99334D01*
X28247D01*
Y-97088D01*
X29247Y-96749D01*
X29463Y-97031D01*
X30412Y-97759D01*
X31517Y-98217D01*
X32203Y-98307D01*
Y-93200D01*
Y-88093D01*
X31517Y-88183D01*
X30412Y-88641D01*
X29463Y-89369D01*
X29247Y-89651D01*
X28247Y-89312D01*
Y-87243D01*
X28837D01*
Y-76157D01*
X28122D01*
X27628Y-75157D01*
X28136Y-74496D01*
X28694Y-73147D01*
X28885Y-71700D01*
X28694Y-70253D01*
X28136Y-68904D01*
X27247Y-67747D01*
X26089Y-66858D01*
X24742Y-66300D01*
Y-63642D01*
X25845Y-62539D01*
X35282D01*
X35606Y-63024D01*
Y-63976D01*
X35971Y-64856D01*
X36055Y-64940D01*
Y-70409D01*
X39937D01*
Y-75299D01*
X39795D01*
Y-81235D01*
X43535D01*
Y-81235D01*
X47898D01*
Y-80539D01*
X49500D01*
X49879Y-80464D01*
X50560Y-81309D01*
X49739Y-82828D01*
X49732Y-82849D01*
X49719Y-82865D01*
X49711Y-82897D01*
X49692Y-82924D01*
X35906Y-114206D01*
X35824D01*
X34944Y-114571D01*
X34271Y-115244D01*
X33906Y-116124D01*
Y-117076D01*
X34271Y-117956D01*
X34944Y-118629D01*
X35824Y-118994D01*
X36776D01*
X37656Y-118629D01*
X38329Y-117956D01*
X38694Y-117076D01*
Y-116124D01*
X38337Y-115264D01*
X52096Y-84041D01*
X53255Y-81896D01*
X56713Y-75494D01*
X56976D01*
X57856Y-75129D01*
X58529Y-74456D01*
X58894Y-73576D01*
Y-72624D01*
X58529Y-71744D01*
X57856Y-71071D01*
X56976Y-70706D01*
X56024D01*
X55144Y-71071D01*
X55039Y-71176D01*
X54039Y-70761D01*
Y-63000D01*
X53884Y-62220D01*
X53442Y-61558D01*
X51834Y-59950D01*
X52397Y-59099D01*
X63225Y-63457D01*
X63230Y-63465D01*
X63230Y-63466D01*
X63944Y-63608D01*
X64251Y-63547D01*
X64407Y-63540D01*
X70780Y-61966D01*
X71044Y-62229D01*
X71924Y-62594D01*
X72876D01*
X73756Y-62229D01*
X74429Y-61556D01*
X74794Y-60676D01*
Y-59724D01*
X74726Y-59560D01*
X75329Y-58956D01*
X75694Y-58076D01*
Y-57124D01*
X75329Y-56244D01*
X74656Y-55571D01*
X73776Y-55206D01*
X73215D01*
X73109Y-54206D01*
X76827Y-53412D01*
X77144Y-53729D01*
X78024Y-54094D01*
X78976D01*
X79856Y-53729D01*
X80529Y-53056D01*
X80574Y-52949D01*
X80924Y-53094D01*
X81876D01*
X82756Y-52729D01*
X83123Y-52362D01*
X83924Y-52694D01*
X84876D01*
X85756Y-52329D01*
X86824Y-52609D01*
X86944Y-52729D01*
X87824Y-53094D01*
X88776D01*
X89656Y-52729D01*
X90329Y-52056D01*
X90694Y-51176D01*
Y-50224D01*
X90329Y-49344D01*
X89656Y-48671D01*
X88776Y-48306D01*
X87824D01*
X86944Y-48671D01*
X85876Y-48391D01*
X85756Y-48271D01*
X84876Y-47906D01*
X83924D01*
X83863Y-47932D01*
X82142Y-46261D01*
X82136Y-46250D01*
X81542Y-45853D01*
X81316Y-45808D01*
X80801Y-45706D01*
X80611Y-45743D01*
X80514Y-45739D01*
X64563Y-48144D01*
X63766Y-47253D01*
X64429Y-44781D01*
X64438Y-44767D01*
X64446Y-44737D01*
X64463Y-44711D01*
X64755Y-43994D01*
X64776D01*
X65656Y-43629D01*
X66329Y-42956D01*
X66694Y-42076D01*
Y-41394D01*
X67576D01*
X67968Y-41231D01*
X68295Y-41319D01*
X68691Y-41345D01*
X69068Y-41217D01*
X69367Y-40955D01*
X69543Y-40598D01*
X71955Y-31596D01*
X71965Y-31450D01*
X72602Y-30931D01*
X72902Y-30801D01*
X73304Y-30967D01*
X74257D01*
X75137Y-30603D01*
X75810Y-29930D01*
X76174Y-29050D01*
Y-28098D01*
X75810Y-27218D01*
X75256Y-26664D01*
X75615Y-25798D01*
Y-24845D01*
X75251Y-23966D01*
X75103Y-23818D01*
X75354Y-22654D01*
X75656Y-22529D01*
X76329Y-21856D01*
X76694Y-20976D01*
Y-20024D01*
X76329Y-19144D01*
X75656Y-18471D01*
X74776Y-18106D01*
X73824D01*
X73055Y-18425D01*
X68802Y-16890D01*
X69706Y-13517D01*
X70706Y-13649D01*
Y-14076D01*
X71071Y-14956D01*
X71744Y-15629D01*
X72624Y-15994D01*
X73576D01*
X74456Y-15629D01*
X75129Y-14956D01*
X75494Y-14076D01*
Y-13124D01*
X76180Y-12302D01*
X76356Y-12229D01*
X77029Y-11556D01*
X77394Y-10676D01*
Y-9996D01*
X77556Y-9929D01*
X78229Y-9256D01*
X78594Y-8376D01*
Y-7424D01*
X78229Y-6544D01*
X77556Y-5871D01*
X76676Y-5506D01*
X75724D01*
X74844Y-5871D01*
X74171Y-6544D01*
X73806Y-7424D01*
Y-8104D01*
X73644Y-8171D01*
X72971Y-8844D01*
X72606Y-9724D01*
Y-10676D01*
X71920Y-11498D01*
X71744Y-11571D01*
X71071Y-12244D01*
X70151Y-11857D01*
X71186Y-7995D01*
X70998Y-7945D01*
X70498Y-7079D01*
X71611Y-2925D01*
X71615Y-2855D01*
X71744Y-1880D01*
X71606Y-836D01*
X71203Y137D01*
X70562Y973D01*
X69727Y1614D01*
X69028Y1904D01*
X68861Y1992D01*
X68858Y1993D01*
X68855Y1993D01*
X68852Y1994D01*
X66877Y2577D01*
X66541Y3609D01*
X66558Y3714D01*
X66894Y4524D01*
Y5476D01*
X66529Y6356D01*
X66392Y6494D01*
X66895Y8321D01*
X66895Y8327D01*
X66901Y8342D01*
X66905Y8370D01*
X66911Y8382D01*
X68225Y13539D01*
X81924Y20899D01*
X82297Y20715D01*
X82657Y20691D01*
X83243Y19678D01*
X83083Y19354D01*
X83021Y18410D01*
X83325Y17514D01*
X83949Y16803D01*
X84797Y16385D01*
X85741Y16323D01*
X86637Y16627D01*
X87183Y16942D01*
X89603Y12751D01*
X89406Y12276D01*
Y11324D01*
X89771Y10444D01*
X90444Y9771D01*
X91324Y9406D01*
X92276D01*
X93156Y9771D01*
X93829Y10444D01*
X94194Y11324D01*
Y12276D01*
X93829Y13156D01*
X93156Y13829D01*
X92276Y14194D01*
X92066D01*
X89655Y18370D01*
X90388Y18792D01*
X91099Y19416D01*
X91517Y20265D01*
X91579Y21208D01*
X91275Y22104D01*
X90651Y22816D01*
X89803Y23234D01*
X89443Y23257D01*
X88858Y24271D01*
X89017Y24595D01*
X89079Y25539D01*
X88775Y26434D01*
X88151Y27146D01*
X87303Y27564D01*
X86943Y27588D01*
X86358Y28601D01*
X86517Y28925D01*
X86579Y29869D01*
X86275Y30765D01*
X85651Y31476D01*
X84803Y31894D01*
X84443Y31918D01*
X83858Y32931D01*
X84017Y33255D01*
X84079Y34199D01*
X83813Y34983D01*
X84782Y38599D01*
X87379Y40098D01*
X87420Y40122D01*
X88245Y40598D01*
X88286Y40622D01*
X90883Y42121D01*
X93307Y41472D01*
X93555Y40741D01*
X94179Y40030D01*
X95027Y39611D01*
X95387Y39588D01*
X95972Y38574D01*
X95813Y38251D01*
X95751Y37307D01*
X96055Y36411D01*
X96679Y35700D01*
X97527Y35281D01*
X97887Y35258D01*
X98472Y34244D01*
X98313Y33920D01*
X98251Y32976D01*
X98555Y32081D01*
X99179Y31370D01*
X100027Y30951D01*
X100387Y30928D01*
X100972Y29914D01*
X100813Y29590D01*
X100751Y28646D01*
X101055Y27751D01*
X101679Y27039D01*
X102527Y26621D01*
X103471Y26559D01*
X104356Y26860D01*
X105354Y25132D01*
X105206Y24776D01*
Y23824D01*
X105571Y22944D01*
X106244Y22271D01*
X107124Y21906D01*
X108076D01*
X108956Y22271D01*
X109629Y22944D01*
X109994Y23824D01*
Y24776D01*
X109629Y25656D01*
X108956Y26329D01*
X108076Y26694D01*
X107984D01*
X107006Y28387D01*
X108117Y29029D01*
X108829Y29652D01*
X109140Y30284D01*
X109880Y30436D01*
X110228Y30401D01*
X111144Y28814D01*
X111144Y28814D01*
X111606Y27976D01*
Y27024D01*
X111971Y26144D01*
X112644Y25471D01*
X113524Y25106D01*
X114476D01*
X115356Y25471D01*
X116029Y26144D01*
X116394Y27024D01*
Y27976D01*
X116367Y28042D01*
X116292Y29030D01*
X116814Y29375D01*
X124908Y34048D01*
X136208Y40571D01*
X136208Y40571D01*
X136656Y40965D01*
X136920Y41500D01*
X138018Y45598D01*
X138057Y46194D01*
X137866Y46759D01*
X131616Y57584D01*
X131222Y58033D01*
X130687Y58297D01*
X128365Y58919D01*
X127769Y58958D01*
X127204Y58766D01*
X126907Y58595D01*
X125820Y59429D01*
X124472Y59987D01*
X123024Y60178D01*
X121577Y59987D01*
X121413Y59919D01*
X120687Y60512D01*
X120465Y60767D01*
X120294Y60961D01*
X119759Y61225D01*
X117710Y61774D01*
X117114Y61813D01*
X116549Y61621D01*
X102260Y53371D01*
X101811Y52978D01*
X101547Y52442D01*
X100998Y50393D01*
X100959Y49798D01*
X101151Y49233D01*
X101219Y49114D01*
X100961Y48148D01*
X100215Y47717D01*
X100420Y47361D01*
X100298Y47078D01*
X99776Y46477D01*
X99089Y46522D01*
X98193Y46218D01*
X94775Y44245D01*
X91325Y45170D01*
X89566Y48216D01*
X85317Y45764D01*
X85276Y45740D01*
X84451Y45264D01*
X84410Y45240D01*
X80162Y42787D01*
X81921Y39740D01*
X80959Y36150D01*
X80463Y35982D01*
X76713Y33817D01*
X76001Y33193D01*
X75628Y32436D01*
X75222Y32314D01*
X74575Y32259D01*
X74433Y32506D01*
X73435Y31929D01*
X72546Y33468D01*
X72694Y33824D01*
Y34776D01*
X72329Y35656D01*
X71656Y36329D01*
X70776Y36694D01*
X69824D01*
X68944Y36329D01*
X68271Y35656D01*
X67906Y34776D01*
Y34193D01*
X67397Y33856D01*
X66973Y33664D01*
X66176Y33994D01*
X65224D01*
X64344Y33629D01*
X63671Y32956D01*
X63306Y32076D01*
Y31124D01*
X63671Y30244D01*
X64344Y29571D01*
X65224Y29206D01*
X65316D01*
X66167Y27733D01*
X64528Y26787D01*
X67004Y22498D01*
X67004Y22498D01*
X67481Y21673D01*
X67504Y21632D01*
X69454Y18255D01*
X69181Y17293D01*
X66828Y16029D01*
X65985Y16206D01*
X65657Y16455D01*
X64854Y19149D01*
X64596Y20106D01*
D01*
X64296Y21061D01*
X61658Y30293D01*
X61413Y31258D01*
X61405Y31279D01*
X61148Y32240D01*
X61060Y32612D01*
X69290Y42074D01*
X69476Y42038D01*
X70403Y42222D01*
X71190Y42748D01*
X74252Y45810D01*
X74778Y46597D01*
X74962Y47524D01*
X74778Y48452D01*
X74252Y49239D01*
X73466Y49764D01*
X72538Y49949D01*
X72184Y49879D01*
X71356Y50706D01*
X71427Y51060D01*
X71242Y51988D01*
X70717Y52775D01*
X69930Y53300D01*
X69002Y53485D01*
X68648Y53414D01*
X67821Y54242D01*
X67891Y54596D01*
X67707Y55524D01*
X67181Y56310D01*
X66395Y56836D01*
X65467Y57020D01*
X65113Y56950D01*
X64285Y57777D01*
X64356Y58131D01*
X64171Y59059D01*
X63711Y59747D01*
X63711Y63491D01*
X65831Y65611D01*
X65865Y65645D01*
X66539Y66319D01*
X66572Y66352D01*
X68692Y68472D01*
X71202Y68472D01*
X71631Y67831D01*
X72417Y67305D01*
X73345Y67121D01*
X73699Y67191D01*
X74527Y66364D01*
X74456Y66010D01*
X74641Y65082D01*
X75166Y64295D01*
X75953Y63770D01*
X76881Y63585D01*
X77234Y63655D01*
X78062Y62828D01*
X77992Y62474D01*
X78176Y61546D01*
X78702Y60760D01*
X79488Y60234D01*
X80416Y60049D01*
X80770Y60120D01*
X81598Y59292D01*
X81527Y58938D01*
X81712Y58011D01*
X82237Y57224D01*
X83024Y56699D01*
X83952Y56514D01*
X84879Y56699D01*
X85666Y57224D01*
X85690Y57248D01*
X86806Y56131D01*
Y55424D01*
X87171Y54544D01*
X87844Y53871D01*
X88724Y53506D01*
X89676D01*
X90556Y53871D01*
X91229Y54544D01*
X91594Y55424D01*
Y55799D01*
X91613Y55826D01*
X92589Y56386D01*
X93024Y56206D01*
X93976D01*
X94856Y56571D01*
X95529Y57244D01*
X95894Y58124D01*
Y59076D01*
X95529Y59956D01*
X94856Y60629D01*
X94051Y60963D01*
X93959Y61045D01*
X93631Y61994D01*
X93632Y61995D01*
X95529Y61995D01*
X96115Y62111D01*
X96611Y62443D01*
X103648Y69481D01*
X103648Y69481D01*
X103648Y69481D01*
X112874Y78706D01*
X113206Y79203D01*
X113322Y79788D01*
Y84030D01*
X113206Y84616D01*
X112874Y85112D01*
X104035Y93951D01*
X103539Y94282D01*
X102954Y94399D01*
X100550Y94399D01*
X99964Y94282D01*
X99468Y93951D01*
X99226Y93708D01*
X97960Y94233D01*
X96513Y94423D01*
X95065Y94233D01*
X93717Y93674D01*
X93575Y93565D01*
X92722Y93951D01*
X92226Y94282D01*
X91640Y94399D01*
X89519Y94399D01*
X88934Y94282D01*
X88437Y93951D01*
X76770Y82283D01*
X76439Y81787D01*
X76322Y81202D01*
X76322Y79081D01*
X76439Y78495D01*
X76770Y77999D01*
X77046Y77724D01*
Y76724D01*
X76562Y76240D01*
X76836Y75966D01*
X76487Y75207D01*
X76364Y75023D01*
X75479Y74847D01*
X74693Y74322D01*
X71902Y71531D01*
X68330Y71531D01*
X65842Y74019D01*
X62374Y70550D01*
X62340Y70517D01*
X61667Y69843D01*
X61633Y69810D01*
X58165Y66341D01*
X60652Y63853D01*
X60652Y60136D01*
X60217Y59846D01*
X57155Y56783D01*
X56629Y55997D01*
X56464Y55169D01*
X56104Y54946D01*
X55493Y54725D01*
X55292Y54927D01*
X54764Y54399D01*
X52794Y56369D01*
Y57076D01*
X52429Y57956D01*
X51756Y58629D01*
X50876Y58994D01*
X49924D01*
X49044Y58629D01*
X48371Y57956D01*
X48006Y57076D01*
Y56124D01*
X48371Y55244D01*
X48919Y54696D01*
X48356Y53929D01*
X47476Y54294D01*
X46524D01*
X45644Y53929D01*
X44971Y53256D01*
X44606Y52376D01*
Y51424D01*
X44971Y50544D01*
X45644Y49871D01*
X46524Y49506D01*
X47231D01*
X48551Y48186D01*
X47205Y46840D01*
X50673Y43371D01*
X50707Y43338D01*
X51380Y42664D01*
X51414Y42630D01*
X54764Y39281D01*
X54882Y39162D01*
X55230Y38306D01*
X53256Y36128D01*
X53149Y35950D01*
X53026Y35784D01*
X53007Y35713D01*
X52969Y35650D01*
X52939Y35445D01*
X52888Y35245D01*
X52899Y35172D01*
X52888Y35099D01*
X52938Y34898D01*
X52968Y34694D01*
X54226Y31131D01*
X53306Y30735D01*
X48333Y40447D01*
X47900Y41345D01*
X47898Y41350D01*
X47440Y42235D01*
X42696Y51982D01*
X47999Y62378D01*
X48226Y62393D01*
X49075Y62812D01*
X49698Y63523D01*
X51864Y67273D01*
X52168Y68169D01*
X52106Y69113D01*
X51688Y69962D01*
X50976Y70585D01*
X50080Y70890D01*
X49136Y70828D01*
X48813Y70668D01*
X47799Y71253D01*
X47776Y71613D01*
X47357Y72462D01*
X46646Y73085D01*
X45750Y73389D01*
X44806Y73327D01*
X44483Y73168D01*
X43469Y73753D01*
X43446Y74113D01*
X43027Y74962D01*
X42316Y75585D01*
X41420Y75889D01*
X40476Y75828D01*
X40153Y75668D01*
X39139Y76253D01*
X39116Y76613D01*
X38697Y77462D01*
X38074Y78008D01*
X37106Y81624D01*
X38605Y84220D01*
X38629Y84261D01*
X39105Y85087D01*
X39129Y85127D01*
X40628Y87724D01*
X43052Y88374D01*
X43632Y87865D01*
X44528Y87561D01*
X45472Y87623D01*
X45796Y87783D01*
X46809Y87197D01*
X46833Y86837D01*
X47251Y85989D01*
X47962Y85365D01*
X48858Y85061D01*
X49802Y85123D01*
X50126Y85282D01*
X51139Y84697D01*
X51163Y84337D01*
X51581Y83489D01*
X52292Y82865D01*
X53188Y82561D01*
X54132Y82623D01*
X54456Y82782D01*
X55469Y82197D01*
X55493Y81837D01*
X55911Y80989D01*
X56623Y80365D01*
X57518Y80061D01*
X58462Y80123D01*
X59311Y80541D01*
X59935Y81252D01*
X60390Y82042D01*
X63206Y80416D01*
Y80324D01*
X63571Y79444D01*
X64244Y78771D01*
X65124Y78406D01*
X66076D01*
X66956Y78771D01*
X67629Y79444D01*
X67994Y80324D01*
Y81276D01*
X67629Y82156D01*
X66956Y82829D01*
X66076Y83194D01*
X65124D01*
X64768Y83046D01*
X61920Y84691D01*
X62100Y85003D01*
X62404Y85899D01*
X62342Y86843D01*
X62281Y86967D01*
X63044Y87681D01*
X64718Y86715D01*
X64718Y86715D01*
X65665Y86456D01*
X65706Y86427D01*
Y85624D01*
X66071Y84744D01*
X66744Y84071D01*
X67624Y83706D01*
X68576D01*
X69456Y84071D01*
X70129Y84744D01*
X70494Y85624D01*
Y86576D01*
X70129Y87456D01*
X69512Y88073D01*
X69456Y88129D01*
X69328Y88555D01*
X69254Y89296D01*
X74132Y97745D01*
X80656Y109045D01*
X80848Y109609D01*
X80809Y110205D01*
X79710Y114303D01*
X79446Y114838D01*
X78998Y115232D01*
X68173Y121482D01*
X67607Y121674D01*
X67012Y121634D01*
X64690Y121012D01*
X64154Y120748D01*
X63761Y120300D01*
X63590Y120003D01*
X62231Y120182D01*
X60784Y119991D01*
X59435Y119433D01*
X58277Y118544D01*
X58169Y118403D01*
X57244Y118554D01*
X56679Y118745D01*
X56084Y118706D01*
X54035Y118157D01*
X53500Y117893D01*
X53106Y117445D01*
X44856Y103155D01*
X44664Y102590D01*
X44703Y101995D01*
X45252Y99946D01*
X45516Y99410D01*
X45965Y99017D01*
X46168Y98258D01*
X45814Y97644D01*
X46781Y97085D01*
X46543Y96068D01*
X46382Y96057D01*
X45534Y95639D01*
X44910Y94928D01*
X42937Y91509D01*
X39487Y90585D01*
X36440Y92344D01*
X33987Y88096D01*
X33963Y88055D01*
X33487Y87230D01*
X33463Y87189D01*
X31010Y82941D01*
X34057Y81182D01*
X35019Y77592D01*
X34674Y77198D01*
X32509Y73447D01*
X32204Y72552D01*
X32260Y71709D01*
X31969Y71401D01*
X31436Y71030D01*
X31190Y71172D01*
X31029Y70894D01*
X28794Y72184D01*
Y72276D01*
X28429Y73156D01*
X27756Y73829D01*
X26876Y74194D01*
X25924D01*
X25044Y73829D01*
X24371Y73156D01*
X24006Y72276D01*
Y71324D01*
X24371Y70444D01*
X25044Y69771D01*
X25924Y69406D01*
X26876D01*
X27232Y69554D01*
X29499Y68245D01*
X28591Y66670D01*
X27318Y66250D01*
X26394Y66784D01*
Y66876D01*
X26029Y67756D01*
X25356Y68429D01*
X24476Y68794D01*
X23524D01*
X22644Y68429D01*
X21971Y67756D01*
X21606Y66876D01*
Y65924D01*
X21971Y65044D01*
X22644Y64371D01*
X23524Y64006D01*
X24476D01*
X24832Y64154D01*
X26561Y63155D01*
X25471Y61267D01*
X29719Y58815D01*
X29760Y58791D01*
X30586Y58315D01*
X30626Y58291D01*
X34497Y56056D01*
X34875Y55838D01*
X35005Y54889D01*
X31360Y48114D01*
X31293Y47896D01*
X31211Y47684D01*
X31212Y47631D01*
X31197Y47581D01*
X31218Y47355D01*
X31223Y47128D01*
X31245Y47079D01*
X31250Y47027D01*
X31356Y46826D01*
X31448Y46618D01*
X42691Y30580D01*
X41903Y29964D01*
X31534Y41882D01*
X30929Y42660D01*
X30926Y42667D01*
X30236Y43393D01*
X21568Y53621D01*
X20958Y54411D01*
X20946Y54439D01*
X20300Y55200D01*
X17846Y58426D01*
X22175Y76637D01*
X22441Y76727D01*
X23152Y77351D01*
X23571Y78199D01*
X24691Y82382D01*
X24753Y83326D01*
X24449Y84222D01*
X23825Y84933D01*
X22977Y85352D01*
X22033Y85413D01*
X21137Y85110D01*
X20866Y84872D01*
X19736Y85175D01*
X19620Y85516D01*
X18996Y86227D01*
X18147Y86646D01*
X17203Y86708D01*
X16308Y86404D01*
X16037Y86166D01*
X14906Y86469D01*
X14790Y86810D01*
X14166Y87521D01*
X13318Y87940D01*
X12374Y88002D01*
X11478Y87698D01*
X11207Y87460D01*
X10076Y87763D01*
X9961Y88104D01*
X9337Y88816D01*
X8594Y89182D01*
X6722Y92424D01*
X7498Y95320D01*
X7510Y95366D01*
X7757Y96286D01*
X7769Y96332D01*
X8546Y99229D01*
X10719Y100483D01*
X11411Y100142D01*
X12355Y100080D01*
X13251Y100384D01*
X13522Y100622D01*
X14652Y100319D01*
X14768Y99977D01*
X15392Y99266D01*
X16241Y98848D01*
X17185Y98786D01*
X18080Y99090D01*
X18352Y99328D01*
X19482Y99025D01*
X19598Y98683D01*
X20222Y97972D01*
X21070Y97554D01*
X22014Y97492D01*
X22910Y97796D01*
X23181Y98034D01*
X24312Y97731D01*
X24428Y97389D01*
X25051Y96678D01*
X25900Y96260D01*
X26844Y96198D01*
X27740Y96502D01*
X28451Y97126D01*
X28869Y97974D01*
X28932Y98207D01*
X30823Y97700D01*
X30971Y97344D01*
X31644Y96671D01*
X32524Y96306D01*
X33476D01*
X34356Y96671D01*
X35029Y97344D01*
X35394Y98224D01*
Y99176D01*
X35029Y100056D01*
X34356Y100729D01*
X33476Y101094D01*
X32524D01*
X31644Y100729D01*
X31579Y100664D01*
X29723Y101161D01*
X29990Y102157D01*
X30052Y103101D01*
X29826Y103769D01*
X30241Y104399D01*
X30512Y104620D01*
X31976Y104228D01*
Y104228D01*
X32636Y103570D01*
X32771Y103244D01*
X33444Y102571D01*
X34324Y102206D01*
X35276D01*
X36156Y102571D01*
X36829Y103244D01*
X37194Y104124D01*
Y105076D01*
X36829Y105956D01*
X36156Y106629D01*
X36102Y106651D01*
X35999Y106780D01*
X35705Y107898D01*
X35738Y107966D01*
X38314Y117579D01*
X41691Y130182D01*
X41730Y130778D01*
X41538Y131343D01*
X39417Y135017D01*
X39024Y135466D01*
X38488Y135730D01*
X26414Y138965D01*
X25819Y139004D01*
X25254Y138812D01*
X23172Y137610D01*
X22723Y137216D01*
X22459Y136681D01*
X22370Y136350D01*
X21012Y136171D01*
X19663Y135612D01*
X18505Y134724D01*
X17617Y133566D01*
X17421Y133092D01*
X16616Y133308D01*
X16021Y133347D01*
X15456Y133155D01*
X13619Y132094D01*
X13364Y131871D01*
X13170Y131701D01*
X12906Y131166D01*
X8636Y115228D01*
X8597Y114632D01*
X8788Y114067D01*
X9849Y112230D01*
X10242Y111782D01*
X10778Y111518D01*
X11192Y110800D01*
X10988Y110038D01*
X11878Y109799D01*
X11939Y108883D01*
X11929Y108750D01*
X11236Y108143D01*
X10818Y107294D01*
X9796Y103482D01*
X6702Y101696D01*
X3304Y102607D01*
X2035Y97868D01*
X2022Y97823D01*
X1776Y96903D01*
X1764Y96857D01*
X494Y92119D01*
X3892Y91208D01*
X5751Y87989D01*
X5519Y87520D01*
X4398Y83337D01*
X4336Y82393D01*
X4591Y81641D01*
X4313Y81171D01*
X3930Y80790D01*
X1190Y81568D01*
X1029Y81956D01*
X356Y82629D01*
X-524Y82994D01*
X-1476D01*
X-2356Y82629D01*
X-3029Y81956D01*
X-3394Y81076D01*
Y80124D01*
X-3029Y79244D01*
X-2356Y78571D01*
X-1476Y78206D01*
X-524D01*
X356Y78571D01*
X398Y78613D01*
X2935Y77893D01*
X2314Y75575D01*
X1276Y74818D01*
X-523Y75300D01*
X-671Y75656D01*
X-1344Y76329D01*
X-2224Y76694D01*
X-3176D01*
X-4056Y76329D01*
X-4729Y75656D01*
X-5094Y74776D01*
Y73824D01*
X-4729Y72944D01*
X-4056Y72271D01*
X-3176Y71906D01*
X-2224D01*
X-1344Y72271D01*
X-1279Y72336D01*
X1263Y71655D01*
X753Y69750D01*
X5491Y68480D01*
X5537Y68468D01*
X6457Y68221D01*
X6503Y68209D01*
X10132Y67237D01*
X10615Y66361D01*
X7871Y57560D01*
X7854Y57395D01*
X7755Y56897D01*
X7925Y56038D01*
X8285Y55500D01*
X8337Y55412D01*
X15146Y47807D01*
X15790Y47072D01*
X15790Y47072D01*
X15806Y47075D01*
X34897Y27985D01*
X34520Y26947D01*
X34373Y26934D01*
X34371Y26936D01*
X3819Y53205D01*
X3112Y53900D01*
X3086Y53911D01*
X2326Y54553D01*
X-6273Y62713D01*
X-6273Y83692D01*
X-5986Y83884D01*
X-5460Y84671D01*
X-5275Y85598D01*
Y89929D01*
X-5460Y90857D01*
X-5986Y91644D01*
X-6772Y92169D01*
X-7700Y92354D01*
X-8628Y92169D01*
X-9414Y91644D01*
X-9615Y91344D01*
X-10785D01*
X-10986Y91644D01*
X-11772Y92169D01*
X-12700Y92354D01*
X-13628Y92169D01*
X-14414Y91644D01*
X-14615Y91344D01*
X-15785Y91344D01*
X-15986Y91644D01*
X-16772Y92169D01*
X-17700Y92354D01*
X-18628Y92169D01*
X-19414Y91644D01*
X-19615Y91344D01*
X-20785Y91343D01*
X-20986Y91644D01*
X-21772Y92169D01*
X-22265Y92267D01*
X-25232Y95234D01*
Y97976D01*
X-25232Y98024D01*
X-25232Y98976D01*
X-25232Y99024D01*
Y101766D01*
X-23243Y103754D01*
X-22700Y103646D01*
X-21772Y103831D01*
X-20986Y104357D01*
X-20785Y104656D01*
X-19615Y104656D01*
X-19414Y104357D01*
X-18628Y103831D01*
X-17700Y103646D01*
X-16772Y103831D01*
X-15986Y104357D01*
X-15785Y104656D01*
X-14615Y104656D01*
X-14414Y104357D01*
X-13628Y103831D01*
X-12700Y103646D01*
X-11772Y103831D01*
X-10986Y104357D01*
X-10785Y104656D01*
X-9615Y104656D01*
X-9414Y104356D01*
X-8628Y103831D01*
X-7700Y103646D01*
X-6772Y103831D01*
X-5986Y104356D01*
X-5460Y105143D01*
X-5275Y106071D01*
Y106971D01*
X-3656D01*
X-3156Y106471D01*
X-2276Y106106D01*
X-1324D01*
X-444Y106471D01*
X229Y107144D01*
X594Y108024D01*
Y108976D01*
X229Y109856D01*
X-444Y110529D01*
X-630Y110606D01*
X-431Y111606D01*
X-224D01*
X656Y111971D01*
X1329Y112644D01*
X1694Y113524D01*
Y114476D01*
X1329Y115356D01*
X656Y116029D01*
X-224Y116394D01*
X-249D01*
X-378Y116474D01*
X-992Y117394D01*
X-971Y117500D01*
Y127453D01*
Y140500D01*
X-1087Y141085D01*
X-1419Y141581D01*
X-4419Y144581D01*
X-4915Y144913D01*
X-5500Y145029D01*
X-18000D01*
X-18585Y144913D01*
X-19081Y144581D01*
X-20782Y142881D01*
X-21113Y142385D01*
X-21229Y141800D01*
Y141457D01*
X-22496Y140933D01*
X-23654Y140044D01*
X-24542Y138886D01*
X-25101Y137538D01*
X-25168Y137030D01*
X-26000D01*
X-26585Y136913D01*
X-27081Y136582D01*
X-28581Y135081D01*
X-28913Y134585D01*
X-29029Y134000D01*
Y117500D01*
X-28913Y116915D01*
X-28581Y116419D01*
X-27081Y114919D01*
X-26585Y114587D01*
X-26000Y114471D01*
X-25929D01*
Y113031D01*
X-24844D01*
X-24568Y112444D01*
X-24471Y112031D01*
X-24940Y111329D01*
X-25124Y110402D01*
Y106199D01*
X-27394Y103929D01*
X-31168D01*
Y99024D01*
X-31168Y98976D01*
X-31168Y98024D01*
X-31168Y97976D01*
Y93071D01*
X-27394D01*
X-24980Y90656D01*
X-25124Y89929D01*
Y85598D01*
X-24940Y84671D01*
X-24471Y83969D01*
X-24568Y83556D01*
X-24844Y82968D01*
X-25129D01*
Y81729D01*
X-26056D01*
X-26215Y81795D01*
Y81795D01*
X-26242Y81777D01*
X-27527Y82268D01*
X-27771Y82856D01*
X-28444Y83529D01*
X-29324Y83894D01*
X-30276D01*
X-31156Y83529D01*
X-31829Y82856D01*
X-32194Y81976D01*
Y81024D01*
X-31829Y80144D01*
X-31156Y79471D01*
X-30276Y79106D01*
X-29324D01*
X-28603Y79405D01*
X-27143Y78847D01*
X-27143Y78847D01*
X-27143Y78847D01*
X-27117Y78837D01*
X-27116Y78834D01*
X-27117Y78830D01*
X-26215Y78651D01*
X-26215Y78671D01*
X-26187Y78671D01*
X-26187Y78671D01*
X-26186Y78671D01*
X-25129D01*
Y77469D01*
X-25129D01*
Y77021D01*
X-26129Y76430D01*
X-26524Y76594D01*
X-27476D01*
X-28356Y76229D01*
X-29029Y75556D01*
X-29394Y74676D01*
Y74216D01*
X-30377Y73684D01*
X-35906Y77548D01*
Y77976D01*
X-36271Y78856D01*
X-36944Y79529D01*
X-37824Y79894D01*
X-38776D01*
X-39656Y79529D01*
X-40329Y78856D01*
X-40694Y77976D01*
Y77024D01*
X-40329Y76144D01*
X-39656Y75471D01*
X-38776Y75106D01*
X-37824D01*
X-37555Y75218D01*
X-31293Y70841D01*
X-31114Y69712D01*
X-34698Y64894D01*
X-35176D01*
X-36056Y64529D01*
X-36729Y63856D01*
X-37094Y62976D01*
Y62024D01*
X-36988Y61770D01*
X-37324Y61189D01*
X-38297Y60786D01*
X-39077Y60187D01*
X-39136Y60148D01*
X-39137Y60148D01*
X-40018Y60660D01*
X-41429Y62071D01*
X-41760Y62292D01*
X-42150Y62370D01*
X-42540Y62292D01*
X-42871Y62071D01*
X-43231Y61711D01*
X-43966Y61071D01*
X-47502Y64607D01*
X-48164Y65269D01*
X-48763Y65868D01*
X-52407Y69512D01*
X-53330Y68589D01*
X-54171Y68756D01*
X-54844Y69429D01*
X-55724Y69794D01*
X-56676D01*
X-57556Y69429D01*
X-58229Y68756D01*
X-58594Y67876D01*
Y66924D01*
X-58229Y66044D01*
X-57556Y65371D01*
X-56676Y65006D01*
X-55724D01*
X-55255Y65200D01*
X-54807Y64908D01*
X-52373Y62474D01*
X-52053Y62154D01*
X-52154Y61049D01*
X-52179Y61006D01*
X-52829Y60356D01*
X-53194Y59476D01*
Y58524D01*
X-52829Y57644D01*
X-52156Y56971D01*
X-51276Y56606D01*
X-50324D01*
X-49575Y56916D01*
X-49056Y56129D01*
X-49729Y55456D01*
X-49901Y55041D01*
X-50911Y54031D01*
X-51156Y53929D01*
X-51829Y53256D01*
X-51931Y53011D01*
X-52371Y52571D01*
X-52592Y52240D01*
X-52670Y51850D01*
X-52592Y51460D01*
X-52371Y51129D01*
X-51860Y50618D01*
X-51829Y50544D01*
X-51156Y49871D01*
X-51082Y48916D01*
X-51513Y48485D01*
X-51513Y48485D01*
X-53118Y46881D01*
X-55306Y49069D01*
Y49776D01*
X-55671Y50656D01*
X-56344Y51329D01*
X-57224Y51694D01*
X-58176D01*
X-59056Y51329D01*
X-59729Y50656D01*
X-60094Y49776D01*
Y49381D01*
X-60224Y49294D01*
X-61176D01*
X-62056Y48929D01*
X-62729Y48256D01*
X-63094Y47376D01*
X-63094Y46424D01*
X-63976Y46094D01*
X-64856Y45729D01*
X-65529Y45056D01*
X-65794Y44418D01*
X-65894Y44176D01*
X-66805Y43494D01*
X-66876D01*
X-67756Y43129D01*
X-68429Y42456D01*
X-68794Y41576D01*
Y40624D01*
X-69718Y40328D01*
X-69771Y40456D01*
X-70444Y41129D01*
X-71324Y41494D01*
X-72276D01*
X-73156Y41129D01*
X-73829Y40456D01*
X-74194Y39576D01*
Y38624D01*
X-73840Y37770D01*
X-73927Y37436D01*
X-74124Y36820D01*
X-74222Y36722D01*
X-77527Y33417D01*
X-77578Y33366D01*
X-78358Y32834D01*
X-79675Y34151D01*
Y39458D01*
X-79644Y39471D01*
X-78971Y40144D01*
X-78606Y41024D01*
Y41976D01*
X-78971Y42856D01*
X-79644Y43529D01*
X-80524Y43894D01*
X-81476D01*
X-82356Y43529D01*
X-83029Y42856D01*
X-83394Y41976D01*
Y41024D01*
X-83224Y40613D01*
X-83657Y39807D01*
X-84474Y40440D01*
Y69200D01*
X-84575Y69707D01*
X-84863Y70137D01*
X-94363Y79637D01*
X-94793Y79925D01*
X-95300Y80026D01*
X-120314D01*
X-120553Y79978D01*
X-120793Y79936D01*
X-120806Y79928D01*
X-120821Y79925D01*
X-121024Y79789D01*
X-121230Y79659D01*
X-126046Y75061D01*
X-126124Y75094D01*
X-127076D01*
X-127956Y74729D01*
X-128629Y74056D01*
X-128994Y73176D01*
Y72224D01*
X-128629Y71344D01*
X-127956Y70671D01*
X-128417Y69825D01*
X-128824Y69994D01*
X-129776D01*
X-130656Y69629D01*
X-131329Y68956D01*
X-131694Y68076D01*
Y67124D01*
X-131329Y66244D01*
X-130868Y65783D01*
X-131026Y58374D01*
X-132006Y58326D01*
X-132371Y59206D01*
X-133044Y59879D01*
X-133924Y60244D01*
X-134876D01*
X-135756Y59879D01*
X-136050Y59585D01*
X-136889Y60160D01*
X-135210Y63949D01*
X-131909Y70507D01*
X-128290Y76894D01*
X-124363Y83097D01*
X-120136Y89099D01*
X-115619Y94886D01*
X-110824Y100445D01*
X-105762Y105762D01*
X-100445Y110824D01*
X-94886Y115619D01*
X-89099Y120136D01*
X-83336Y124194D01*
X-83185Y124158D01*
X-80709Y123963D01*
X-78233Y124158D01*
X-75817Y124738D01*
X-73523Y125688D01*
X-71405Y126986D01*
X-69516Y128599D01*
X-67903Y130488D01*
X-66606Y132605D01*
X-65942Y134206D01*
X-63949Y135210D01*
X-57238Y138184D01*
X-50389Y140827D01*
X-43418Y143129D01*
X-36342Y145087D01*
X-29180Y146696D01*
X-21947Y147951D01*
X-14660Y148850D01*
X-7339Y149390D01*
X0Y149570D01*
X7339Y149390D01*
D02*
G37*
G36*
X-101661Y67917D02*
X-101818Y67539D01*
X-104842Y64514D01*
X-105284Y63853D01*
X-105439Y63073D01*
Y55900D01*
Y40476D01*
X-105476Y40451D01*
X-106429D01*
X-107308Y40087D01*
X-107755Y39640D01*
X-108105Y39785D01*
X-109058D01*
X-109384Y39649D01*
X-112778Y41672D01*
X-112782Y41673D01*
X-112784Y41675D01*
X-112786Y41676D01*
X-112883Y41710D01*
X-113098Y41853D01*
X-114073Y42048D01*
X-114086Y42045D01*
X-115077Y42023D01*
X-130851Y41941D01*
X-131558Y42648D01*
X-131545Y45331D01*
X-131035Y45841D01*
X-130711Y46624D01*
X-129601Y47153D01*
X-129601Y47153D01*
X-129601Y47153D01*
X-129600Y47153D01*
X-129557Y47186D01*
X-128884Y47635D01*
X-128332Y48462D01*
X-128150Y49374D01*
X-128150Y49374D01*
D01*
X-128137Y50370D01*
X-127811Y65704D01*
X-127417Y66098D01*
X-115578Y66271D01*
X-115342Y66321D01*
X-115103Y66353D01*
X-109573Y68252D01*
X-108679Y68525D01*
D01*
X-107704Y68626D01*
X-102276Y68888D01*
X-101661Y67917D01*
D02*
G37*
G36*
X-48672Y30215D02*
X-48665Y30207D01*
X-48665Y30207D01*
X-48334Y29986D01*
X-47944Y29908D01*
X-47838Y29930D01*
X-47744Y29858D01*
X-47371Y29003D01*
X-51033Y25340D01*
X-51033Y25340D01*
X-54194Y22179D01*
X-54544Y22529D01*
X-55424Y22894D01*
X-56376D01*
X-57256Y22529D01*
X-57789Y21996D01*
X-58492Y21747D01*
X-59379Y22202D01*
X-59606Y23062D01*
X-59544Y23371D01*
X-58871Y24044D01*
X-58506Y24924D01*
Y25876D01*
X-58583Y26060D01*
X-55326Y29317D01*
X-55326Y29317D01*
X-51550Y33092D01*
X-48672Y30215D01*
D02*
G37*
G36*
X-70305Y26092D02*
X-70898Y25338D01*
X-70931Y25305D01*
X-74400Y21836D01*
X-75215Y21390D01*
X-78002Y24177D01*
X-77556Y24992D01*
X-74087Y28460D01*
X-74054Y28494D01*
X-73299Y29087D01*
X-70305Y26092D01*
D02*
G37*
G36*
X-125064Y38653D02*
X-124730Y37914D01*
X-124994Y37276D01*
Y36324D01*
X-124629Y35444D01*
X-123956Y34771D01*
X-123743Y34682D01*
X-123994Y34076D01*
Y33124D01*
X-123629Y32244D01*
X-122956Y31571D01*
X-122076Y31206D01*
X-121540Y30206D01*
X-121594Y30076D01*
Y29124D01*
X-121229Y28244D01*
X-121177Y28192D01*
X-121056Y27929D01*
X-121729Y27256D01*
X-122094Y26376D01*
Y25424D01*
X-121729Y24544D01*
X-121056Y23871D01*
X-120460Y23624D01*
X-120168Y22805D01*
X-120164Y22506D01*
X-129830Y12840D01*
X-130859Y13225D01*
X-131114Y13841D01*
X-131619Y14499D01*
X-131114Y15157D01*
X-130754Y16027D01*
X-130631Y16960D01*
X-130754Y17893D01*
X-131114Y18763D01*
X-131687Y19509D01*
X-131865Y19645D01*
X-131988Y20583D01*
X-131728Y21209D01*
X-131706Y21381D01*
X-134434D01*
Y22381D01*
X-131588D01*
X-131194Y23002D01*
X-130925Y23227D01*
X-130662D01*
Y30377D01*
X-130911D01*
X-131617Y31086D01*
X-131577Y38879D01*
X-125288Y38911D01*
X-125064Y38653D01*
D02*
G37*
G36*
X58836Y-27442D02*
X58962Y-27476D01*
X59799Y-27676D01*
X60690Y-28032D01*
X59491Y-32504D01*
X59491Y-32504D01*
X58387Y-36625D01*
X57194Y-37214D01*
X57176Y-37206D01*
X56224D01*
X55344Y-37571D01*
X54671Y-38244D01*
X54318Y-39097D01*
X53394Y-38876D01*
Y-37924D01*
X53029Y-37044D01*
X52356Y-36371D01*
X52355Y-36370D01*
X53773Y-31075D01*
X53773Y-31075D01*
X55021Y-26420D01*
X58836Y-27442D01*
D02*
G37*
G36*
X41428Y-42223D02*
X41280Y-43218D01*
X40010Y-47957D01*
X43438Y-48875D01*
X43328Y-50692D01*
X42436Y-51264D01*
X42314Y-51277D01*
X35543Y-47571D01*
X35243Y-46679D01*
X36512Y-41941D01*
X36525Y-41895D01*
X36882Y-41005D01*
X41428Y-42223D01*
D02*
G37*
G36*
X92027Y-62272D02*
X92035Y-62269D01*
X115674Y-73769D01*
X115877Y-74980D01*
X115785Y-75073D01*
X115420Y-75953D01*
Y-76480D01*
X112845Y-80872D01*
X112044Y-80614D01*
X111745Y-80518D01*
X111431Y-80481D01*
X111120Y-80419D01*
X109977D01*
X109197Y-80575D01*
X108536Y-81017D01*
X107744Y-81809D01*
X107580Y-82053D01*
X107392Y-82280D01*
X99425Y-97001D01*
X98541Y-97130D01*
X97661Y-96766D01*
X97134D01*
X96958Y-96341D01*
X96285Y-95668D01*
X95977Y-95540D01*
X95666Y-94264D01*
X95664Y-94261D01*
X95664Y-94258D01*
X95663Y-94256D01*
X95616Y-94156D01*
X95563Y-93888D01*
X95011Y-93061D01*
X94845Y-92950D01*
X94804Y-92901D01*
X83149Y-83426D01*
X83133Y-83387D01*
X81853Y-78796D01*
X81903Y-78746D01*
X82268Y-77866D01*
Y-76914D01*
X82099Y-76507D01*
X88807Y-64221D01*
X88847D01*
X89727Y-63856D01*
X90400Y-63183D01*
X90599Y-62704D01*
X91976Y-62251D01*
X92027Y-62272D01*
D02*
G37*
G36*
X102744Y-101329D02*
X103624Y-101694D01*
X103694D01*
X103893Y-102174D01*
X104566Y-102848D01*
X105446Y-103212D01*
X106398D01*
X107076Y-102931D01*
X107655Y-103774D01*
X105762Y-105762D01*
X100445Y-110824D01*
X94886Y-115619D01*
X90179Y-119292D01*
X89477Y-118572D01*
X97821Y-108454D01*
X97915Y-108279D01*
X98042Y-108127D01*
X101682Y-101401D01*
X102671Y-101257D01*
X102744Y-101329D01*
D02*
G37*
%LPC*%
G36*
X-44936Y118919D02*
X-48278Y118024D01*
X-47624Y115584D01*
X-47142Y115714D01*
X-46412Y116016D01*
X-45785Y116497D01*
X-45304Y117123D01*
X-45002Y117853D01*
X-44899Y118636D01*
X-44936Y118919D01*
D02*
G37*
G36*
X-79244Y120014D02*
X-80197D01*
X-81076Y119650D01*
X-81750Y118976D01*
X-82114Y118097D01*
Y117144D01*
X-81750Y116264D01*
X-81076Y115591D01*
X-80197Y115227D01*
X-79244D01*
X-78364Y115591D01*
X-77691Y116264D01*
X-77327Y117144D01*
Y118097D01*
X-77691Y118976D01*
X-78364Y119650D01*
X-79244Y120014D01*
D02*
G37*
G36*
X-50513Y132330D02*
X-51557Y132193D01*
X-53489Y131675D01*
X-54462Y131272D01*
X-55297Y130631D01*
X-55939Y129795D01*
X-56342Y128822D01*
X-56479Y127778D01*
X-56342Y126734D01*
X-56005Y125919D01*
X-56059Y125810D01*
X-57032Y125407D01*
X-57867Y124766D01*
X-58508Y123930D01*
X-58911Y122957D01*
X-59049Y121913D01*
X-58911Y120869D01*
X-58508Y119896D01*
X-57867Y119060D01*
X-57032Y118419D01*
X-56059Y118016D01*
X-55014Y117878D01*
X-53970Y118016D01*
X-53858Y118046D01*
X-52779Y117335D01*
X-52477Y116606D01*
X-51996Y115979D01*
X-51370Y115498D01*
X-50640Y115196D01*
X-49856Y115093D01*
X-49073Y115196D01*
X-48590Y115325D01*
X-49374Y118248D01*
X-48891Y118377D01*
X-49020Y118860D01*
X-45195Y119885D01*
X-45304Y120149D01*
X-45785Y120776D01*
X-46412Y121257D01*
X-47142Y121559D01*
X-47925Y121662D01*
X-48144Y121633D01*
X-49023Y122407D01*
X-49057Y122501D01*
X-49185Y123475D01*
X-49523Y124289D01*
X-49469Y124399D01*
X-48496Y124802D01*
X-47660Y125443D01*
X-47019Y126278D01*
X-46616Y127251D01*
X-46478Y128296D01*
X-46616Y129340D01*
X-47019Y130313D01*
X-47660Y131148D01*
X-48496Y131790D01*
X-49469Y132193D01*
X-50513Y132330D01*
D02*
G37*
G36*
X-28724Y110594D02*
X-29676D01*
X-30556Y110229D01*
X-31229Y109556D01*
X-31594Y108676D01*
Y107724D01*
X-31229Y106844D01*
X-30556Y106171D01*
X-29676Y105806D01*
X-28724D01*
X-27844Y106171D01*
X-27171Y106844D01*
X-26806Y107724D01*
Y108676D01*
X-27171Y109556D01*
X-27844Y110229D01*
X-28724Y110594D01*
D02*
G37*
G36*
X7476Y109894D02*
X6524D01*
X5644Y109529D01*
X4971Y108856D01*
X4606Y107976D01*
Y107024D01*
X4971Y106144D01*
X5644Y105471D01*
X6524Y105106D01*
X7476D01*
X8356Y105471D01*
X9029Y106144D01*
X9394Y107024D01*
Y107976D01*
X9029Y108856D01*
X8356Y109529D01*
X7476Y109894D01*
D02*
G37*
G36*
X-48694Y109554D02*
Y104946D01*
X-44611D01*
Y105037D01*
X-44767Y106223D01*
X-45225Y107328D01*
X-45953Y108277D01*
X-46902Y109006D01*
X-48008Y109463D01*
X-48694Y109554D01*
D02*
G37*
G36*
X-44611Y103946D02*
X-48694D01*
Y99339D01*
X-48008Y99430D01*
X-46902Y99887D01*
X-45953Y100616D01*
X-45225Y101565D01*
X-44767Y102670D01*
X-44611Y103856D01*
Y103946D01*
D02*
G37*
G36*
X-53650Y110580D02*
X-64737D01*
Y98313D01*
X-53650D01*
Y100558D01*
X-52650Y100898D01*
X-52434Y100616D01*
X-51485Y99887D01*
X-50380Y99430D01*
X-49694Y99339D01*
Y104446D01*
Y109554D01*
X-50380Y109463D01*
X-51485Y109006D01*
X-52434Y108277D01*
X-52650Y107995D01*
X-53650Y108335D01*
Y110580D01*
D02*
G37*
G36*
X-41124Y101494D02*
X-42076D01*
X-42956Y101129D01*
X-43629Y100456D01*
X-43994Y99576D01*
Y98624D01*
X-43629Y97744D01*
X-42956Y97071D01*
X-42076Y96706D01*
X-41124D01*
X-40244Y97071D01*
X-39571Y97744D01*
X-39206Y98624D01*
Y99576D01*
X-39571Y100456D01*
X-40244Y101129D01*
X-41124Y101494D01*
D02*
G37*
G36*
X40376Y97794D02*
X39424D01*
X38544Y97429D01*
X37871Y96756D01*
X37506Y95876D01*
Y94924D01*
X37871Y94044D01*
X38544Y93371D01*
X39424Y93006D01*
X40376D01*
X41256Y93371D01*
X41929Y94044D01*
X42294Y94924D01*
Y95876D01*
X41929Y96756D01*
X41256Y97429D01*
X40376Y97794D01*
D02*
G37*
G36*
X-62524Y96294D02*
X-63476D01*
X-64356Y95929D01*
X-65029Y95256D01*
X-65394Y94376D01*
Y93424D01*
X-65029Y92544D01*
X-64356Y91871D01*
X-63476Y91506D01*
X-62524D01*
X-61644Y91871D01*
X-60971Y92544D01*
X-60606Y93424D01*
Y94376D01*
X-60971Y95256D01*
X-61644Y95929D01*
X-62524Y96294D01*
D02*
G37*
G36*
X-77424Y90794D02*
X-78376D01*
X-79256Y90429D01*
X-79929Y89756D01*
X-80294Y88876D01*
Y87924D01*
X-79929Y87044D01*
X-79256Y86371D01*
X-78376Y86006D01*
X-77424D01*
X-76544Y86371D01*
X-75871Y87044D01*
X-75506Y87924D01*
Y88876D01*
X-75871Y89756D01*
X-76544Y90429D01*
X-77424Y90794D01*
D02*
G37*
G36*
X70976Y78694D02*
X70024D01*
X69144Y78329D01*
X68471Y77656D01*
X68106Y76776D01*
Y75824D01*
X68471Y74944D01*
X69144Y74271D01*
X70024Y73906D01*
X70976D01*
X71856Y74271D01*
X72529Y74944D01*
X72894Y75824D01*
Y76776D01*
X72529Y77656D01*
X71856Y78329D01*
X70976Y78694D01*
D02*
G37*
G36*
X-60324Y65794D02*
X-61276D01*
X-62156Y65429D01*
X-62829Y64756D01*
X-63194Y63876D01*
Y62924D01*
X-62829Y62044D01*
X-63596Y61481D01*
X-63844Y61729D01*
X-64724Y62094D01*
X-65676D01*
X-66556Y61729D01*
X-67229Y61056D01*
X-67594Y60176D01*
Y59224D01*
X-67747Y58994D01*
X-67976D01*
X-68856Y58629D01*
X-69529Y57956D01*
X-69894Y57076D01*
Y56124D01*
X-69529Y55244D01*
X-68856Y54571D01*
X-67976Y54206D01*
X-67024D01*
X-66144Y54571D01*
X-65471Y55244D01*
X-65106Y56124D01*
Y57076D01*
X-64952Y57306D01*
X-64724D01*
X-63844Y57671D01*
X-63171Y58344D01*
X-62806Y59224D01*
Y60176D01*
X-63171Y61056D01*
X-62404Y61619D01*
X-62156Y61371D01*
X-61276Y61006D01*
X-60324D01*
X-59444Y61371D01*
X-58771Y62044D01*
X-58406Y62924D01*
Y63876D01*
X-58771Y64756D01*
X-59444Y65429D01*
X-60324Y65794D01*
D02*
G37*
G36*
X94176Y52694D02*
X93224D01*
X92344Y52329D01*
X91671Y51656D01*
X91306Y50776D01*
Y49824D01*
X91671Y48944D01*
X92344Y48271D01*
X93224Y47906D01*
X94176D01*
X95056Y48271D01*
X95729Y48944D01*
X96094Y49824D01*
Y50776D01*
X95729Y51656D01*
X95056Y52329D01*
X94176Y52694D01*
D02*
G37*
G36*
X-424Y45494D02*
X-1376D01*
X-2256Y45129D01*
X-2929Y44456D01*
X-3294Y43576D01*
Y42624D01*
X-2929Y41744D01*
X-2256Y41071D01*
X-1376Y40706D01*
X-424D01*
X456Y41071D01*
X1129Y41744D01*
X1494Y42624D01*
Y43576D01*
X1129Y44456D01*
X456Y45129D01*
X-424Y45494D01*
D02*
G37*
G36*
X5976Y39494D02*
X5024D01*
X4144Y39129D01*
X3471Y38456D01*
X3106Y37576D01*
Y36624D01*
X3471Y35744D01*
X4144Y35071D01*
X5024Y34706D01*
X5976D01*
X6856Y35071D01*
X7529Y35744D01*
X7894Y36624D01*
Y37576D01*
X7529Y38456D01*
X6856Y39129D01*
X5976Y39494D01*
D02*
G37*
G36*
X133605Y32075D02*
X133056Y31654D01*
X132328Y30705D01*
X131870Y29600D01*
X131824Y29248D01*
X130788Y29042D01*
X129666Y30986D01*
X120064Y25443D01*
X126198Y14819D01*
X135799Y20362D01*
X134677Y22307D01*
X135373Y23101D01*
X135701Y22965D01*
X136887Y22808D01*
X138073Y22965D01*
X138713Y23229D01*
X136159Y27652D01*
X133605Y32075D01*
D02*
G37*
G36*
X136297Y32996D02*
X135111Y32840D01*
X134471Y32575D01*
X136775Y28585D01*
X140311Y30627D01*
X140265Y30705D01*
X139537Y31654D01*
X138588Y32382D01*
X137483Y32840D01*
X136297Y32996D01*
D02*
G37*
G36*
X140811Y29761D02*
X137275Y27719D01*
X139579Y23729D01*
X140128Y24151D01*
X140856Y25100D01*
X141314Y26205D01*
X141470Y27391D01*
X141314Y28577D01*
X140856Y29682D01*
X140811Y29761D01*
D02*
G37*
G36*
X109172Y18174D02*
X108219D01*
X107340Y17809D01*
X106666Y17136D01*
X106302Y16256D01*
Y15304D01*
X106666Y14424D01*
X107340Y13751D01*
X108219Y13386D01*
X109172D01*
X110051Y13751D01*
X110725Y14424D01*
X111089Y15304D01*
Y16256D01*
X110725Y17136D01*
X110051Y17809D01*
X109172Y18174D01*
D02*
G37*
G36*
X-32924Y15994D02*
X-33876D01*
X-34756Y15629D01*
X-35429Y14956D01*
X-35794Y14076D01*
Y13124D01*
X-35429Y12244D01*
X-34756Y11571D01*
X-33876Y11206D01*
X-32924D01*
X-32044Y11571D01*
X-31371Y12244D01*
X-31006Y13124D01*
Y14076D01*
X-31371Y14956D01*
X-32044Y15629D01*
X-32924Y15994D01*
D02*
G37*
G36*
X83876Y13694D02*
X82924D01*
X82044Y13329D01*
X81371Y12656D01*
X81006Y11776D01*
Y10824D01*
X81371Y9944D01*
X82044Y9271D01*
X82924Y8906D01*
X83876D01*
X84756Y9271D01*
X85429Y9944D01*
X85794Y10824D01*
Y11776D01*
X85429Y12656D01*
X84756Y13329D01*
X83876Y13694D01*
D02*
G37*
G36*
X72476Y12694D02*
X71524D01*
X70644Y12329D01*
X69971Y11656D01*
X69606Y10776D01*
Y9824D01*
X69971Y8944D01*
X70644Y8271D01*
X71524Y7906D01*
X72476D01*
X73356Y8271D01*
X74029Y8944D01*
X74394Y9824D01*
Y10776D01*
X74029Y11656D01*
X73356Y12329D01*
X72476Y12694D01*
D02*
G37*
G36*
X81176Y-1206D02*
X80224D01*
X79344Y-1571D01*
X78671Y-2244D01*
X78306Y-3124D01*
Y-4076D01*
X78671Y-4956D01*
X79344Y-5629D01*
X80224Y-5994D01*
X81176D01*
X82056Y-5629D01*
X82729Y-4956D01*
X83094Y-4076D01*
Y-3124D01*
X82729Y-2244D01*
X82056Y-1571D01*
X81176Y-1206D01*
D02*
G37*
G36*
X113576Y-2706D02*
X112624D01*
X111744Y-3071D01*
X111071Y-3744D01*
X110706Y-4624D01*
Y-5576D01*
X111071Y-6456D01*
X111744Y-7129D01*
X112624Y-7494D01*
X113576D01*
X114456Y-7129D01*
X115129Y-6456D01*
X115494Y-5576D01*
Y-4624D01*
X115129Y-3744D01*
X114456Y-3071D01*
X113576Y-2706D01*
D02*
G37*
G36*
X124576Y-3006D02*
X123624D01*
X122744Y-3371D01*
X122071Y-4044D01*
X121706Y-4924D01*
Y-5876D01*
X122071Y-6756D01*
X122744Y-7429D01*
X123624Y-7794D01*
X124576D01*
X125456Y-7429D01*
X126129Y-6756D01*
X126494Y-5876D01*
Y-4924D01*
X126129Y-4044D01*
X125456Y-3371D01*
X124576Y-3006D01*
D02*
G37*
G36*
X-36909Y-4918D02*
X-37000D01*
Y-9000D01*
X-32393D01*
X-32483Y-8314D01*
X-32941Y-7209D01*
X-33669Y-6260D01*
X-34618Y-5531D01*
X-35723Y-5074D01*
X-36909Y-4918D01*
D02*
G37*
G36*
X-38000D02*
X-38091D01*
X-39277Y-5074D01*
X-40382Y-5531D01*
X-41331Y-6260D01*
X-42059Y-7209D01*
X-42517Y-8314D01*
X-42607Y-9000D01*
X-38000D01*
Y-4918D01*
D02*
G37*
G36*
X-32393Y-10000D02*
X-37500D01*
X-42607D01*
X-42517Y-10686D01*
X-42059Y-11791D01*
X-41331Y-12740D01*
X-41049Y-12957D01*
X-41388Y-13957D01*
X-43634D01*
Y-25043D01*
X-31366D01*
Y-13957D01*
X-33612D01*
X-33951Y-12957D01*
X-33669Y-12740D01*
X-32941Y-11791D01*
X-32483Y-10686D01*
X-32393Y-10000D01*
D02*
G37*
G36*
X-25524Y-22706D02*
X-26476D01*
X-27356Y-23071D01*
X-28029Y-23744D01*
X-28394Y-24624D01*
Y-25576D01*
X-28029Y-26456D01*
X-27356Y-27129D01*
X-26476Y-27494D01*
X-25524D01*
X-24644Y-27129D01*
X-23971Y-26456D01*
X-23606Y-25576D01*
Y-24624D01*
X-23971Y-23744D01*
X-24644Y-23071D01*
X-25524Y-22706D01*
D02*
G37*
G36*
X83276Y-22406D02*
X82324D01*
X81444Y-22771D01*
X80771Y-23444D01*
X80406Y-24324D01*
Y-25209D01*
X80271Y-25344D01*
X79906Y-26224D01*
Y-27176D01*
X80271Y-28056D01*
X80944Y-28729D01*
X81824Y-29094D01*
X82776D01*
X83656Y-28729D01*
X84329Y-28056D01*
X84694Y-27176D01*
Y-26291D01*
X84829Y-26156D01*
X85194Y-25276D01*
Y-24324D01*
X84829Y-23444D01*
X84156Y-22771D01*
X83276Y-22406D01*
D02*
G37*
G36*
X103918Y-26876D02*
X100458D01*
Y-29402D01*
X100958D01*
X101741Y-29299D01*
X102471Y-28997D01*
X103097Y-28516D01*
X103578Y-27889D01*
X103881Y-27159D01*
X103918Y-26876D01*
D02*
G37*
G36*
X100958Y-12342D02*
X98958D01*
X97913Y-12479D01*
X96940Y-12882D01*
X96105Y-13523D01*
X95464Y-14359D01*
X95061Y-15332D01*
X94923Y-16376D01*
X95038Y-17250D01*
X94958Y-17342D01*
X93914Y-17479D01*
X92940Y-17882D01*
X92105Y-18523D01*
X91464Y-19359D01*
X91061Y-20332D01*
X90923Y-21376D01*
X91061Y-22421D01*
X91464Y-23393D01*
X92105Y-24229D01*
X92940Y-24870D01*
X93914Y-25273D01*
X94958Y-25411D01*
X95073D01*
X95932Y-26376D01*
X96035Y-27159D01*
X96337Y-27889D01*
X96818Y-28516D01*
X97445Y-28997D01*
X98175Y-29299D01*
X98958Y-29402D01*
X99458D01*
Y-26376D01*
X99958D01*
Y-25876D01*
X103918D01*
X103881Y-25593D01*
X103578Y-24863D01*
X103097Y-24237D01*
X102471Y-23756D01*
X101741Y-23453D01*
X101521Y-23425D01*
X100873Y-22450D01*
X100864Y-22350D01*
X100992Y-21376D01*
X100877Y-20503D01*
X100958Y-20411D01*
X102002Y-20273D01*
X102975Y-19870D01*
X103811Y-19229D01*
X104452Y-18394D01*
X104855Y-17421D01*
X104992Y-16376D01*
X104855Y-15332D01*
X104452Y-14359D01*
X103811Y-13523D01*
X102975Y-12882D01*
X102002Y-12479D01*
X100958Y-12342D01*
D02*
G37*
G36*
X21505Y-31651D02*
Y-36258D01*
X25588D01*
Y-36167D01*
X25431Y-34981D01*
X24974Y-33876D01*
X24245Y-32927D01*
X23296Y-32199D01*
X22191Y-31741D01*
X21505Y-31651D01*
D02*
G37*
G36*
X-11995Y-31651D02*
X-12681Y-31741D01*
X-13786Y-32199D01*
X-14735Y-32927D01*
X-15463Y-33876D01*
X-15921Y-34981D01*
X-16077Y-36167D01*
Y-36258D01*
X-11995D01*
Y-31651D01*
D02*
G37*
G36*
X79976Y-31806D02*
X79024D01*
X78144Y-32171D01*
X77471Y-32844D01*
X77106Y-33724D01*
Y-34676D01*
X77471Y-35556D01*
X78144Y-36229D01*
X79024Y-36594D01*
X79976D01*
X80856Y-36229D01*
X81529Y-35556D01*
X81894Y-34676D01*
Y-33724D01*
X81529Y-32844D01*
X80856Y-32171D01*
X79976Y-31806D01*
D02*
G37*
G36*
X-115439Y-25855D02*
X-116391D01*
X-117271Y-26220D01*
X-117944Y-26893D01*
X-118309Y-27773D01*
Y-28725D01*
X-117944Y-29605D01*
X-117713Y-29836D01*
X-118464Y-32639D01*
X-118464Y-32639D01*
X-118498Y-33155D01*
X-118331Y-33645D01*
X-117917Y-34362D01*
X-118163Y-34955D01*
Y-35908D01*
X-117798Y-36787D01*
X-117125Y-37461D01*
X-116245Y-37825D01*
X-115293D01*
X-114413Y-37461D01*
X-113740Y-36787D01*
X-113375Y-35908D01*
Y-34955D01*
X-113740Y-34075D01*
X-114413Y-33402D01*
X-115293Y-33038D01*
X-115558Y-32038D01*
X-115153Y-30524D01*
X-114559Y-30278D01*
X-113886Y-29605D01*
X-113521Y-28725D01*
Y-27773D01*
X-113886Y-26893D01*
X-114559Y-26220D01*
X-115439Y-25855D01*
D02*
G37*
G36*
X25588Y-37258D02*
X21505D01*
Y-41865D01*
X22191Y-41775D01*
X23296Y-41317D01*
X24245Y-40589D01*
X24974Y-39640D01*
X25431Y-38535D01*
X25588Y-37348D01*
Y-37258D01*
D02*
G37*
G36*
X-11995Y-37258D02*
X-16077D01*
Y-37348D01*
X-15921Y-38535D01*
X-15463Y-39640D01*
X-14735Y-40589D01*
X-13786Y-41317D01*
X-12681Y-41775D01*
X-11995Y-41865D01*
Y-37258D01*
D02*
G37*
G36*
X-106153Y-43683D02*
X-107106D01*
X-107985Y-44047D01*
X-108659Y-44720D01*
X-109023Y-45600D01*
Y-45928D01*
X-114512Y-49097D01*
X-117987Y-48166D01*
X-118329Y-47340D01*
X-119003Y-46666D01*
X-119882Y-46302D01*
X-120835D01*
X-121714Y-46666D01*
X-122388Y-47340D01*
X-122752Y-48219D01*
Y-49172D01*
X-122388Y-50051D01*
X-121714Y-50725D01*
X-120835Y-51089D01*
X-119882D01*
X-119003Y-50725D01*
X-118934Y-50656D01*
X-114668Y-51800D01*
X-114152Y-51833D01*
X-113662Y-51667D01*
X-113662Y-51667D01*
X-107699Y-48224D01*
X-107106Y-48470D01*
X-106153D01*
X-105273Y-48105D01*
X-104600Y-47432D01*
X-104236Y-46552D01*
Y-45600D01*
X-104600Y-44720D01*
X-105273Y-44047D01*
X-106153Y-43683D01*
D02*
G37*
G36*
X5776Y-47206D02*
X4824D01*
X3944Y-47571D01*
X3271Y-48244D01*
X2906Y-49124D01*
Y-50076D01*
X3271Y-50956D01*
X3944Y-51629D01*
X4824Y-51994D01*
X5776D01*
X6656Y-51629D01*
X7329Y-50956D01*
X7694Y-50076D01*
Y-49124D01*
X7329Y-48244D01*
X6656Y-47571D01*
X5776Y-47206D01*
D02*
G37*
G36*
X-45424Y-48406D02*
X-46376D01*
X-47256Y-48771D01*
X-47929Y-49444D01*
X-48294Y-50324D01*
Y-51276D01*
X-47929Y-52156D01*
X-47256Y-52829D01*
X-46376Y-53194D01*
X-45424D01*
X-44544Y-52829D01*
X-43871Y-52156D01*
X-43506Y-51276D01*
Y-50324D01*
X-43871Y-49444D01*
X-44544Y-48771D01*
X-45424Y-48406D01*
D02*
G37*
G36*
X-70532Y-59547D02*
X-70553D01*
Y-63000D01*
X-67100D01*
Y-62980D01*
X-67369Y-61974D01*
X-67890Y-61073D01*
X-68626Y-60337D01*
X-69527Y-59817D01*
X-70532Y-59547D01*
D02*
G37*
G36*
X-71553D02*
X-71573D01*
X-72579Y-59817D01*
X-73480Y-60337D01*
X-74216Y-61073D01*
X-74736Y-61974D01*
X-75006Y-62980D01*
Y-63000D01*
X-71553D01*
Y-59547D01*
D02*
G37*
G36*
X9576Y-60906D02*
X8624D01*
X7744Y-61271D01*
X7071Y-61944D01*
X6706Y-62824D01*
Y-63776D01*
X7071Y-64656D01*
X7744Y-65329D01*
X8624Y-65694D01*
X9576D01*
X10456Y-65329D01*
X11129Y-64656D01*
X11494Y-63776D01*
Y-62824D01*
X11129Y-61944D01*
X10456Y-61271D01*
X9576Y-60906D01*
D02*
G37*
G36*
X-20424Y-45406D02*
X-21376D01*
X-22256Y-45771D01*
X-22929Y-46444D01*
X-23294Y-47324D01*
Y-48276D01*
X-22929Y-49156D01*
X-22379Y-49706D01*
X-22480Y-50286D01*
X-22685Y-50706D01*
X-23076D01*
X-23956Y-51071D01*
X-24629Y-51744D01*
X-24994Y-52624D01*
Y-53576D01*
X-24629Y-54456D01*
X-23956Y-55129D01*
X-23076Y-55494D01*
X-22124D01*
X-21244Y-55129D01*
X-21053Y-54939D01*
X-24Y-58794D01*
Y-65071D01*
X-221D01*
Y-66027D01*
X-347Y-66130D01*
X-1342D01*
X-2068Y-65469D01*
Y-59531D01*
X-6973D01*
X-7021Y-59531D01*
X-7973D01*
X-8021Y-59531D01*
X-11051D01*
X-12320Y-58263D01*
X-12750Y-57975D01*
X-13258Y-57875D01*
X-15458D01*
X-15471Y-57844D01*
X-16144Y-57171D01*
X-17024Y-56806D01*
X-17976D01*
X-18856Y-57171D01*
X-19529Y-57844D01*
X-19894Y-58724D01*
Y-59676D01*
X-19529Y-60556D01*
X-18856Y-61229D01*
X-17976Y-61594D01*
X-17024D01*
X-16144Y-61229D01*
X-15471Y-60556D01*
X-15458Y-60526D01*
X-13806D01*
X-12926Y-61406D01*
Y-65313D01*
X-12926Y-65469D01*
X-12967Y-66451D01*
X-13021Y-66487D01*
X-13286Y-66883D01*
X-13379Y-67350D01*
Y-68532D01*
X-13286Y-68998D01*
X-13021Y-69394D01*
X-12625Y-69659D01*
X-12158Y-69752D01*
X-9206D01*
X-8738Y-69659D01*
X-8343Y-69394D01*
X-8325Y-69368D01*
X-4550D01*
X-4550Y-69368D01*
X-4550Y-69368D01*
X-4180D01*
X-4163Y-69394D01*
X-3767Y-69659D01*
X-3300Y-69752D01*
X-1178D01*
X-947Y-69806D01*
X-221Y-70024D01*
Y-70976D01*
X-1128Y-71248D01*
X-3300D01*
X-3767Y-71341D01*
X-4163Y-71606D01*
X-4427Y-72001D01*
X-4520Y-72469D01*
Y-73650D01*
X-4427Y-74116D01*
X-4163Y-74512D01*
X-3767Y-74777D01*
X-3734Y-74783D01*
X-3221Y-75571D01*
Y-80524D01*
X2716D01*
Y-75929D01*
X5716D01*
Y-71024D01*
X5716Y-70976D01*
Y-70024D01*
X5810Y-69929D01*
X7193D01*
X7322Y-69983D01*
X10506Y-71665D01*
Y-71676D01*
X10871Y-72556D01*
X11544Y-73229D01*
X12424Y-73594D01*
X13376D01*
X14256Y-73229D01*
X14929Y-72556D01*
X15294Y-71676D01*
Y-70724D01*
X14929Y-69844D01*
X14256Y-69171D01*
X13376Y-68806D01*
X12424D01*
X11986Y-68988D01*
X8534Y-67163D01*
X8482Y-67148D01*
X8327Y-67045D01*
X7352Y-66851D01*
Y-66871D01*
X7352Y-66871D01*
X5716D01*
Y-65071D01*
X3035D01*
Y-58353D01*
X3054D01*
X2860Y-57377D01*
X2308Y-56550D01*
X1481Y-55998D01*
X1120Y-55926D01*
X974Y-55867D01*
X970Y-55866D01*
X966Y-55866D01*
X962Y-55865D01*
X-11906Y-53506D01*
X-12242Y-52427D01*
X-11971Y-52156D01*
X-11606Y-51276D01*
Y-50324D01*
X-11971Y-49444D01*
X-12644Y-48771D01*
X-13524Y-48406D01*
X-14476D01*
X-15356Y-48771D01*
X-16029Y-49444D01*
X-16394Y-50324D01*
Y-51276D01*
X-16219Y-51698D01*
X-16902Y-52590D01*
X-20493Y-51931D01*
X-20571Y-51744D01*
X-21121Y-51194D01*
X-21020Y-50614D01*
X-20814Y-50194D01*
X-20424D01*
X-19544Y-49829D01*
X-18871Y-49156D01*
X-18506Y-48276D01*
Y-47324D01*
X-18871Y-46444D01*
X-19544Y-45771D01*
X-20424Y-45406D01*
D02*
G37*
G36*
X-50224Y-62506D02*
X-51176D01*
X-52056Y-62871D01*
X-52729Y-63544D01*
X-53094Y-64424D01*
Y-65376D01*
X-52729Y-66256D01*
X-52056Y-66929D01*
X-51176Y-67294D01*
X-50224D01*
X-49344Y-66929D01*
X-48671Y-66256D01*
X-48306Y-65376D01*
Y-64424D01*
X-48671Y-63544D01*
X-49344Y-62871D01*
X-50224Y-62506D01*
D02*
G37*
G36*
X-67100Y-64000D02*
X-70553D01*
Y-67453D01*
X-70532D01*
X-69527Y-67183D01*
X-68626Y-66663D01*
X-67890Y-65927D01*
X-67369Y-65026D01*
X-67100Y-64020D01*
Y-64000D01*
D02*
G37*
G36*
X-71553D02*
X-75006D01*
Y-64020D01*
X-74736Y-65026D01*
X-74216Y-65927D01*
X-73480Y-66663D01*
X-72579Y-67183D01*
X-71573Y-67453D01*
X-71553D01*
Y-64000D01*
D02*
G37*
G36*
X-127567Y-61843D02*
X-128519D01*
X-129399Y-62207D01*
X-130072Y-62880D01*
X-130436Y-63760D01*
Y-64713D01*
X-130072Y-65592D01*
X-129399Y-66266D01*
X-128519Y-66630D01*
X-127567D01*
X-127379Y-66553D01*
X-127032Y-66900D01*
X-126152Y-67264D01*
X-125200D01*
X-125013Y-67187D01*
X-124665Y-67534D01*
X-123786Y-67898D01*
X-122833D01*
X-121954Y-67534D01*
X-121280Y-66861D01*
X-120916Y-65981D01*
Y-65028D01*
X-121280Y-64149D01*
X-121954Y-63475D01*
X-122833Y-63111D01*
X-123786D01*
X-123973Y-63188D01*
X-124320Y-62841D01*
X-125200Y-62477D01*
X-126152D01*
X-126339Y-62554D01*
X-126687Y-62207D01*
X-127567Y-61843D01*
D02*
G37*
G36*
X-70320Y-36819D02*
X-73273D01*
X-73740Y-36912D01*
X-74136Y-37176D01*
X-74401Y-37572D01*
X-74493Y-38039D01*
Y-39220D01*
X-74401Y-39687D01*
X-74136Y-40083D01*
X-74108Y-40102D01*
X-74297Y-41102D01*
X-74297D01*
Y-47039D01*
X-74297D01*
Y-51102D01*
X-74297D01*
Y-57039D01*
X-69391D01*
X-69344Y-57039D01*
X-68391Y-57039D01*
X-68344Y-57039D01*
X-65457D01*
X-63956Y-58541D01*
X-64029Y-59095D01*
X-64234Y-59677D01*
X-65016Y-60459D01*
X-65668Y-61588D01*
X-66005Y-62848D01*
Y-64152D01*
X-65668Y-65412D01*
X-65016Y-66541D01*
X-64094Y-67463D01*
X-62964Y-68115D01*
X-61705Y-68453D01*
X-60401D01*
X-59141Y-68115D01*
X-58012Y-67463D01*
X-57090Y-66541D01*
X-56437Y-65412D01*
X-56100Y-64152D01*
Y-62848D01*
X-56437Y-61588D01*
X-57090Y-60459D01*
X-58012Y-59537D01*
X-59141Y-58885D01*
X-59890Y-58684D01*
X-60121Y-58338D01*
X-60121Y-58338D01*
X-63439Y-55021D01*
Y-51102D01*
X-68344D01*
X-68391Y-51102D01*
X-69344Y-50988D01*
Y-46102D01*
X-69344D01*
Y-41102D01*
X-69344Y-41102D01*
X-69486Y-40102D01*
X-69458Y-40083D01*
X-69193Y-39687D01*
X-69100Y-39220D01*
Y-38039D01*
X-69193Y-37572D01*
X-69458Y-37176D01*
X-69854Y-36912D01*
X-70320Y-36819D01*
D02*
G37*
G36*
X-33524Y-59506D02*
X-34476D01*
X-35356Y-59871D01*
X-36029Y-60544D01*
X-36394Y-61424D01*
Y-62376D01*
X-36029Y-63256D01*
X-35673Y-63613D01*
X-35791Y-64690D01*
X-35831Y-64761D01*
X-35856Y-64771D01*
X-36529Y-65444D01*
X-36894Y-66324D01*
Y-67276D01*
X-36529Y-68156D01*
X-35856Y-68829D01*
X-34976Y-69194D01*
X-34024D01*
X-33144Y-68829D01*
X-32471Y-68156D01*
X-32106Y-67276D01*
Y-66324D01*
X-32471Y-65444D01*
X-32827Y-65087D01*
X-32709Y-64010D01*
X-32669Y-63939D01*
X-32644Y-63929D01*
X-31971Y-63256D01*
X-31606Y-62376D01*
Y-61424D01*
X-31971Y-60544D01*
X-32644Y-59871D01*
X-33524Y-59506D01*
D02*
G37*
G36*
X-50324Y-69506D02*
X-51276D01*
X-52156Y-69871D01*
X-52829Y-70544D01*
X-53194Y-71424D01*
Y-72376D01*
X-52829Y-73256D01*
X-52156Y-73929D01*
X-51276Y-74294D01*
X-50324D01*
X-49444Y-73929D01*
X-48771Y-73256D01*
X-48406Y-72376D01*
Y-71424D01*
X-48771Y-70544D01*
X-49444Y-69871D01*
X-50324Y-69506D01*
D02*
G37*
G36*
X-33524Y-70206D02*
X-34476D01*
X-35356Y-70571D01*
X-36029Y-71244D01*
X-36394Y-72124D01*
Y-73076D01*
X-36029Y-73956D01*
X-35356Y-74629D01*
X-34476Y-74994D01*
X-33524D01*
X-32644Y-74629D01*
X-31971Y-73956D01*
X-31606Y-73076D01*
Y-72124D01*
X-31971Y-71244D01*
X-32644Y-70571D01*
X-33524Y-70206D01*
D02*
G37*
G36*
X-35324Y-76606D02*
X-36276D01*
X-37156Y-76971D01*
X-37829Y-77644D01*
X-38194Y-78524D01*
Y-79476D01*
X-37829Y-80356D01*
X-37156Y-81029D01*
X-36276Y-81394D01*
X-35324D01*
X-34444Y-81029D01*
X-33771Y-80356D01*
X-33406Y-79476D01*
Y-78524D01*
X-33771Y-77644D01*
X-34444Y-76971D01*
X-35324Y-76606D01*
D02*
G37*
G36*
X-32624Y-85206D02*
X-33576D01*
X-34456Y-85571D01*
X-35129Y-86244D01*
X-35494Y-87124D01*
Y-88076D01*
X-35129Y-88956D01*
X-34456Y-89629D01*
X-33576Y-89994D01*
X-32624D01*
X-31744Y-89629D01*
X-31071Y-88956D01*
X-30706Y-88076D01*
Y-87124D01*
X-31071Y-86244D01*
X-31744Y-85571D01*
X-32624Y-85206D01*
D02*
G37*
G36*
X33203Y-88093D02*
Y-92700D01*
X37286D01*
Y-92610D01*
X37130Y-91423D01*
X36672Y-90318D01*
X35943Y-89369D01*
X34995Y-88641D01*
X33889Y-88183D01*
X33203Y-88093D01*
D02*
G37*
G36*
X-9418Y-93976D02*
X-9438D01*
Y-97429D01*
X-5985D01*
Y-97409D01*
X-6255Y-96403D01*
X-6775Y-95502D01*
X-7511Y-94766D01*
X-8412Y-94246D01*
X-9418Y-93976D01*
D02*
G37*
G36*
X-10438D02*
X-10458D01*
X-11464Y-94246D01*
X-12365Y-94766D01*
X-13101Y-95502D01*
X-13621Y-96403D01*
X-13891Y-97409D01*
Y-97429D01*
X-10438D01*
Y-93976D01*
D02*
G37*
G36*
X37286Y-93700D02*
X33203D01*
Y-98307D01*
X33889Y-98217D01*
X34995Y-97759D01*
X35943Y-97031D01*
X36672Y-96082D01*
X37130Y-94977D01*
X37286Y-93791D01*
Y-93700D01*
D02*
G37*
G36*
X-5985Y-98429D02*
X-9438D01*
Y-101882D01*
X-9418D01*
X-8412Y-101612D01*
X-7511Y-101092D01*
X-6775Y-100356D01*
X-6255Y-99455D01*
X-5985Y-98449D01*
Y-98429D01*
D02*
G37*
G36*
X-10438D02*
X-13891D01*
Y-98449D01*
X-13621Y-99455D01*
X-13101Y-100356D01*
X-12365Y-101092D01*
X-11464Y-101612D01*
X-10458Y-101882D01*
X-10438D01*
Y-98429D01*
D02*
G37*
G36*
X-9206Y-71248D02*
X-12158D01*
X-12625Y-71341D01*
X-13021Y-71606D01*
X-13286Y-72001D01*
X-13379Y-72469D01*
Y-73650D01*
X-13286Y-74117D01*
X-13021Y-74512D01*
X-12993Y-74532D01*
X-13182Y-75532D01*
X-13182D01*
Y-80532D01*
X-13182D01*
Y-85532D01*
X-13182D01*
Y-91469D01*
X-8276D01*
X-8229Y-91469D01*
X-7276D01*
X-7229Y-91469D01*
X-4342D01*
X-2841Y-92970D01*
X-2914Y-93524D01*
X-3119Y-94106D01*
X-3901Y-94888D01*
X-4553Y-96017D01*
X-4891Y-97277D01*
Y-98581D01*
X-4553Y-99841D01*
X-3901Y-100970D01*
X-2979Y-101892D01*
X-1850Y-102544D01*
X-590Y-102882D01*
X714D01*
X1974Y-102544D01*
X3103Y-101892D01*
X3210Y-101785D01*
X3483Y-101783D01*
X4332Y-102078D01*
X4571Y-102656D01*
X5010Y-103095D01*
X5171Y-104144D01*
X4806Y-105024D01*
Y-105976D01*
X5171Y-106856D01*
X5844Y-107529D01*
X6724Y-107894D01*
X7676D01*
X8556Y-107529D01*
X9229Y-106856D01*
X9594Y-105976D01*
Y-105024D01*
X9229Y-104144D01*
X8790Y-103705D01*
X8629Y-102656D01*
X8994Y-101776D01*
Y-100824D01*
X8629Y-99944D01*
X8545Y-99860D01*
X11238Y-92568D01*
X12056Y-92229D01*
X12729Y-91556D01*
X13094Y-90676D01*
Y-89724D01*
X12729Y-88844D01*
X12056Y-88171D01*
X11176Y-87806D01*
X10224D01*
X9344Y-88171D01*
X8671Y-88844D01*
X8306Y-89724D01*
Y-90676D01*
X8671Y-91556D01*
X8755Y-91640D01*
X6371Y-98096D01*
X6274Y-98194D01*
X6015Y-98251D01*
X5015Y-97446D01*
Y-97277D01*
X4677Y-96017D01*
X4025Y-94888D01*
X3103Y-93966D01*
X1974Y-93314D01*
X1225Y-93113D01*
X994Y-92767D01*
X994Y-92767D01*
X-2324Y-89450D01*
Y-85532D01*
X-7229D01*
X-7276Y-85532D01*
X-8229Y-85417D01*
Y-81468D01*
X-8229D01*
Y-75532D01*
X-8229Y-75532D01*
X-8371Y-74532D01*
X-8343Y-74512D01*
X-8078Y-74117D01*
X-7985Y-73650D01*
Y-72469D01*
X-8078Y-72001D01*
X-8343Y-71606D01*
X-8738Y-71341D01*
X-9206Y-71248D01*
D02*
G37*
G36*
X-79367Y-104771D02*
X-79387D01*
Y-108224D01*
X-75935D01*
Y-108204D01*
X-76204Y-107199D01*
X-76724Y-106297D01*
X-77460Y-105561D01*
X-78362Y-105041D01*
X-79367Y-104771D01*
D02*
G37*
G36*
X-80387D02*
X-80408D01*
X-81413Y-105041D01*
X-82314Y-105561D01*
X-83050Y-106297D01*
X-83571Y-107199D01*
X-83840Y-108204D01*
Y-108224D01*
X-80387D01*
Y-104771D01*
D02*
G37*
G36*
X-75935Y-109224D02*
X-79387D01*
Y-112677D01*
X-79367D01*
X-78362Y-112408D01*
X-77460Y-111887D01*
X-76724Y-111151D01*
X-76204Y-110250D01*
X-75935Y-109245D01*
Y-109224D01*
D02*
G37*
G36*
X-80387D02*
X-83840D01*
Y-109245D01*
X-83571Y-110250D01*
X-83050Y-111151D01*
X-82314Y-111887D01*
X-81413Y-112408D01*
X-80408Y-112677D01*
X-80387D01*
Y-109224D01*
D02*
G37*
G36*
X-79155Y-82043D02*
X-82108D01*
X-82575Y-82136D01*
X-82971Y-82401D01*
X-83235Y-82797D01*
X-83328Y-83264D01*
Y-84445D01*
X-83235Y-84912D01*
X-82971Y-85308D01*
X-82942Y-85327D01*
X-83131Y-86327D01*
X-83131D01*
Y-92264D01*
Y-96327D01*
X-83131D01*
Y-102264D01*
X-78226D01*
X-78179Y-102264D01*
X-77226Y-102264D01*
X-77179Y-102264D01*
X-74292D01*
X-72790Y-103765D01*
X-72863Y-104319D01*
X-73069Y-104901D01*
X-73851Y-105683D01*
X-74503Y-106813D01*
X-74840Y-108072D01*
Y-109376D01*
X-74503Y-110636D01*
X-73851Y-111765D01*
X-72929Y-112687D01*
X-71799Y-113339D01*
X-70539Y-113677D01*
X-69235D01*
X-67976Y-113339D01*
X-66846Y-112687D01*
X-65924Y-111765D01*
X-65272Y-110636D01*
X-64935Y-109376D01*
Y-108072D01*
X-65272Y-106813D01*
X-65924Y-105683D01*
X-66846Y-104761D01*
X-67976Y-104109D01*
X-68725Y-103908D01*
X-68956Y-103562D01*
X-68956Y-103562D01*
X-72273Y-100245D01*
Y-96327D01*
X-77179D01*
X-77226Y-96327D01*
X-78179Y-96213D01*
Y-92264D01*
Y-86327D01*
X-78179Y-86327D01*
X-78321Y-85327D01*
X-78292Y-85308D01*
X-78028Y-84912D01*
X-77935Y-84445D01*
Y-83264D01*
X-78028Y-82797D01*
X-78292Y-82401D01*
X-78688Y-82136D01*
X-79155Y-82043D01*
D02*
G37*
G36*
X-84935Y-103771D02*
X-94840D01*
Y-113677D01*
X-84935D01*
Y-103771D01*
D02*
G37*
G36*
X18476Y-107206D02*
X17524D01*
X16644Y-107571D01*
X15971Y-108244D01*
X15606Y-109124D01*
Y-110076D01*
X15971Y-110956D01*
X16644Y-111629D01*
X16675Y-111642D01*
Y-114500D01*
X16775Y-115007D01*
X17063Y-115437D01*
X17619Y-115993D01*
X17606Y-116024D01*
Y-116976D01*
X17971Y-117856D01*
X18644Y-118529D01*
X19524Y-118894D01*
X20476D01*
X21356Y-118529D01*
X22029Y-117856D01*
X22394Y-116976D01*
Y-116024D01*
X22029Y-115144D01*
X21356Y-114471D01*
X20476Y-114106D01*
X19524D01*
X19326Y-113182D01*
Y-111642D01*
X19356Y-111629D01*
X20029Y-110956D01*
X20394Y-110076D01*
Y-109124D01*
X20029Y-108244D01*
X19356Y-107571D01*
X18476Y-107206D01*
D02*
G37*
G36*
X-45794Y-124233D02*
X-45814D01*
Y-127686D01*
X-42362D01*
Y-127665D01*
X-42631Y-126660D01*
X-43151Y-125759D01*
X-43887Y-125023D01*
X-44789Y-124502D01*
X-45794Y-124233D01*
D02*
G37*
G36*
X-46814D02*
X-46835D01*
X-47840Y-124502D01*
X-48741Y-125023D01*
X-49477Y-125759D01*
X-49998Y-126660D01*
X-50267Y-127665D01*
Y-127686D01*
X-46814D01*
Y-124233D01*
D02*
G37*
G36*
X-42362Y-128686D02*
X-45814D01*
Y-132139D01*
X-45794D01*
X-44789Y-131869D01*
X-43887Y-131349D01*
X-43151Y-130613D01*
X-42631Y-129711D01*
X-42362Y-128706D01*
Y-128686D01*
D02*
G37*
G36*
X-46814D02*
X-50267D01*
Y-128706D01*
X-49998Y-129711D01*
X-49477Y-130613D01*
X-48741Y-131349D01*
X-47840Y-131869D01*
X-46835Y-132139D01*
X-46814D01*
Y-128686D01*
D02*
G37*
G36*
X-45221Y-101019D02*
X-48173D01*
X-48640Y-101112D01*
X-49036Y-101376D01*
X-49301Y-101772D01*
X-49393Y-102239D01*
Y-103420D01*
X-49301Y-103887D01*
X-49036Y-104283D01*
X-49008Y-104302D01*
X-49197Y-105302D01*
X-49197D01*
Y-111239D01*
X-49197D01*
Y-115302D01*
X-49197D01*
Y-121239D01*
X-44291D01*
X-44244Y-121239D01*
X-43291D01*
X-43244Y-121239D01*
X-41205D01*
X-39217Y-123227D01*
X-39290Y-123781D01*
X-39495Y-124363D01*
X-40277Y-125145D01*
X-40929Y-126274D01*
X-41267Y-127534D01*
Y-128838D01*
X-40929Y-130097D01*
X-40277Y-131227D01*
X-39355Y-132149D01*
X-38226Y-132801D01*
X-36966Y-133139D01*
X-35662D01*
X-34402Y-132801D01*
X-33273Y-132149D01*
X-32351Y-131227D01*
X-31699Y-130097D01*
X-31361Y-128838D01*
Y-127534D01*
X-31699Y-126274D01*
X-32351Y-125145D01*
X-33273Y-124223D01*
X-34402Y-123571D01*
X-35151Y-123370D01*
X-35383Y-123024D01*
X-35383Y-123024D01*
X-38339Y-120068D01*
Y-115302D01*
X-43244D01*
X-43291Y-115302D01*
X-44244Y-115188D01*
Y-110302D01*
X-44244D01*
Y-105302D01*
X-44244Y-105302D01*
X-44386Y-104302D01*
X-44358Y-104283D01*
X-44093Y-103887D01*
X-44000Y-103420D01*
Y-102239D01*
X-44093Y-101772D01*
X-44358Y-101376D01*
X-44754Y-101112D01*
X-45221Y-101019D01*
D02*
G37*
G36*
X-51362Y-123233D02*
X-61267D01*
Y-133139D01*
X-51362D01*
Y-123233D01*
D02*
G37*
G36*
X-9390Y-138488D02*
X-9410D01*
Y-141941D01*
X-5957D01*
Y-141921D01*
X-6227Y-140915D01*
X-6747Y-140014D01*
X-7483Y-139278D01*
X-8384Y-138758D01*
X-9390Y-138488D01*
D02*
G37*
G36*
X-10410D02*
X-10430D01*
X-11436Y-138758D01*
X-12337Y-139278D01*
X-13073Y-140014D01*
X-13593Y-140915D01*
X-13863Y-141921D01*
Y-141941D01*
X-10410D01*
Y-138488D01*
D02*
G37*
G36*
X-5957Y-142941D02*
X-9410D01*
Y-146394D01*
X-9390D01*
X-8384Y-146124D01*
X-7483Y-145604D01*
X-6747Y-144868D01*
X-6227Y-143967D01*
X-5957Y-142961D01*
Y-142941D01*
D02*
G37*
G36*
X-10410D02*
X-13863D01*
Y-142961D01*
X-13593Y-143967D01*
X-13073Y-144868D01*
X-12337Y-145604D01*
X-11436Y-146124D01*
X-10430Y-146394D01*
X-10410D01*
Y-142941D01*
D02*
G37*
G36*
X-9178Y-115760D02*
X-12131D01*
X-12598Y-115853D01*
X-12993Y-116118D01*
X-13258Y-116513D01*
X-13351Y-116980D01*
Y-118161D01*
X-13258Y-118629D01*
X-12993Y-119024D01*
X-12965Y-119043D01*
X-13154Y-120043D01*
X-13154D01*
Y-125043D01*
X-13154D01*
Y-130980D01*
Y-135980D01*
X-8249D01*
X-8201Y-135980D01*
X-7249Y-135980D01*
X-7202Y-135980D01*
X-4315D01*
X-2813Y-137482D01*
X-2886Y-138036D01*
X-3091Y-138618D01*
X-3873Y-139400D01*
X-4525Y-140529D01*
X-4863Y-141789D01*
Y-143093D01*
X-4525Y-144353D01*
X-3873Y-145482D01*
X-2951Y-146404D01*
X-1822Y-147056D01*
X-562Y-147394D01*
X742D01*
X2001Y-147056D01*
X3131Y-146404D01*
X4053Y-145482D01*
X4705Y-144353D01*
X5043Y-143093D01*
Y-141789D01*
X4705Y-140529D01*
X4053Y-139400D01*
X3131Y-138478D01*
X2001Y-137826D01*
X1253Y-137625D01*
X1021Y-137279D01*
X1021Y-137279D01*
X-2296Y-133962D01*
Y-130043D01*
X-7201D01*
X-7249Y-130043D01*
X-8201Y-129929D01*
Y-125980D01*
X-8201D01*
Y-120043D01*
X-8201Y-120043D01*
X-8343Y-119043D01*
X-8315Y-119024D01*
X-8050Y-118629D01*
X-7958Y-118161D01*
Y-116980D01*
X-8050Y-116513D01*
X-8315Y-116118D01*
X-8711Y-115853D01*
X-9178Y-115760D01*
D02*
G37*
%LPD*%
D16*
X-113563Y40359D02*
G03*
X-114078Y40499I-509J-860D01*
G01*
X-26571Y80265D02*
G03*
X-26215Y80200I356J935D01*
G01*
X1505Y-58353D02*
G03*
X689Y-57370I-1000J0D01*
G01*
X8134Y-132802D02*
G03*
X8135Y-132803I668J744D01*
G01*
X7802Y-132056D02*
G03*
X8134Y-132802I1000J-2D01*
G01*
X6354Y-112669D02*
G03*
X5797Y-112500I-557J-831D01*
G01*
X7897Y-114239D02*
G03*
X7454Y-113403I-1000J5D01*
G01*
X7819Y-68516D02*
G03*
X7352Y-68400I-467J-884D01*
G01*
X-134263Y-29429D02*
G03*
X-134006Y-29898I974J228D01*
G01*
X-138260Y25900D02*
G03*
X-138537Y25861I0J-1000D01*
G01*
X-139077Y25706D02*
G03*
X-139802Y24752I275J-962D01*
G01*
X-139900Y-4987D02*
G03*
X-139875Y-5209I1000J-0D01*
G01*
X-130259Y48534D02*
G03*
X-129687Y49413I-428J904D01*
G01*
X-130259Y48533D02*
G03*
X-130259Y48534I-428J904D01*
G01*
X-94318Y64693D02*
G03*
X-94462Y65266I-999J53D01*
G01*
X-96620Y68805D02*
G03*
X-97127Y69220I-852J-523D01*
G01*
X-100413Y70431D02*
G03*
X-100803Y70490I-342J-940D01*
G01*
X-108762Y70107D02*
G03*
X-109035Y70054I52J-999D01*
G01*
X-95000Y57725D02*
G03*
X-94677Y58406I-675J738D01*
G01*
X49944Y-124079D02*
G03*
X51013Y-123501I156J988D01*
G01*
X58037Y-94444D02*
G03*
X58037Y-94445I1000J-0D01*
G01*
X81716Y-83997D02*
G03*
X82045Y-84499I962J272D01*
G01*
X94179Y-94624D02*
G03*
X93839Y-94088I-971J-240D01*
G01*
X33924Y-121520D02*
G03*
X33678Y-121511I-158J-988D01*
G01*
X21674Y-122578D02*
G03*
X21929Y-122588I166J986D01*
G01*
X77252Y-80483D02*
G03*
X77817Y-80113I-233J973D01*
G01*
X64059Y-83615D02*
G03*
X63427Y-84087I234J-972D01*
G01*
X121344Y-75868D02*
G03*
X120856Y-74590I-925J379D01*
G01*
X92461Y-60776D02*
G03*
X91715Y-60727I-434J-901D01*
G01*
X119150Y-81176D02*
G03*
X119236Y-81013I-840J543D01*
G01*
X116157Y-85521D02*
G03*
X116548Y-85173I-447J894D01*
G01*
X-38636Y25035D02*
G03*
X-38639Y25039I-714J-700D01*
G01*
X38577Y-29844D02*
G03*
X39300Y-30621I982J188D01*
G01*
X43956Y-14589D02*
G03*
X43283Y-14644I-259J-966D01*
G01*
X42494Y-15003D02*
G03*
X42508Y-14996I-401J916D01*
G01*
X112101Y33093D02*
X112202Y33151D01*
X111776Y32905D02*
X112101Y33093D01*
X112202Y33151D02*
X112577Y32501D01*
X113476Y30945D01*
X-113563Y40359D02*
X-113561Y40358D01*
X-133099Y40400D02*
X-133065Y47197D01*
X-133162Y27877D02*
X-133099Y40400D01*
X-113561Y40358D02*
X-108581Y37391D01*
X-133099Y40400D02*
X-114078Y40499D01*
X104470Y29722D02*
X107600Y24300D01*
X104902Y30267D02*
X110201Y33327D01*
X104902Y30267D02*
X104902Y30267D01*
X104470Y29722D02*
X105030Y30046D01*
X85057Y60043D02*
X89200Y55900D01*
X85057Y60043D02*
X85483Y60470D01*
X91607Y65325D02*
X92054Y64878D01*
X93408Y63524D01*
X70300Y34300D02*
X72860Y29866D01*
X73100Y28877D01*
X30382Y107848D02*
X32424Y107301D01*
X29963Y107960D02*
X30382Y107848D01*
X29933Y107848D02*
X29963Y107960D01*
X29836Y107485D02*
X29933Y107848D01*
X63977Y90384D02*
X65782Y89341D01*
X63576Y90615D02*
X63977Y90384D01*
X59055Y84579D02*
X65600Y80800D01*
X58696Y84468D02*
X61755Y89767D01*
X58696Y84468D02*
X58696Y84468D01*
X58917Y84340D02*
X59055Y84579D01*
X54743Y52257D02*
X54944Y51077D01*
X50400Y56600D02*
X54743Y52257D01*
X26400Y71800D02*
X31563Y68819D01*
X31850Y67363D01*
X26986Y100312D02*
X33000Y98700D01*
X26840Y100759D02*
X28424Y106670D01*
X26840Y100759D02*
X26840Y100759D01*
X26986Y100312D02*
X27088Y100693D01*
X-1000Y80600D02*
X4773Y78960D01*
X5336Y77289D01*
X-7700Y108500D02*
X-1800D01*
X-7700D02*
Y114355D01*
Y108236D02*
Y108500D01*
X-26215Y80200D02*
X-23629D01*
X-26215D02*
X-26215D01*
X-29800Y81500D02*
X-26571Y80265D01*
X-23629Y80200D02*
X-22653Y80000D01*
X-60000Y-80700D02*
X-52400Y-85400D01*
X1505Y-66571D02*
Y-58353D01*
X686Y-57369D02*
X689Y-57370D01*
X1505Y-66571D02*
X2747Y-67547D01*
X-22600Y-53100D02*
X686Y-57369D01*
X-53912Y-25128D02*
X-53900Y-25100D01*
X-56899Y-32142D02*
X-53912Y-25128D01*
X-53900Y-25100D02*
X-53800Y-24900D01*
X-58368Y-33118D02*
X-56899Y-32142D01*
X-67202Y-78342D02*
X-65734Y-79319D01*
X-60000Y-80700D01*
X-33268Y-97318D02*
X-31799Y-98000D01*
X-26900D01*
X7802Y-132056D02*
X7802Y-132053D01*
X8135Y-132803D02*
X16650Y-140500D01*
X8134Y-132802D02*
X8135Y-132803D01*
X4243Y-112500D02*
X5797D01*
X7452Y-113401D02*
X7454Y-113403D01*
X7802Y-132053D02*
X7897Y-114239D01*
X6354Y-112669D02*
X7452Y-113401D01*
X2775Y-112059D02*
X4243Y-112500D01*
X7352Y-68400D02*
Y-68400D01*
X7352D02*
X7352D01*
X4216D02*
X7352D01*
X7819Y-68516D02*
X12900Y-71200D01*
X2747Y-67547D02*
X4216Y-68400D01*
X65700Y31600D02*
X68241Y27199D01*
X68337Y26127D01*
X50693Y48207D02*
X51055Y47188D01*
X47000Y51900D02*
X50693Y48207D01*
X24000Y66400D02*
X28625Y63730D01*
X29100Y62600D01*
X3108Y72744D02*
X3913Y71976D01*
X-2700Y74300D02*
X3108Y72744D01*
X-27000Y74200D02*
X-23629D01*
X-22653Y74500D01*
X-139875Y-5209D02*
X-135361Y-24691D01*
X-134263Y-29427D01*
X-124233Y-38236D02*
X-122060Y-38819D01*
X-134006Y-29898D02*
X-126407Y-37654D01*
X-124233Y-38236D01*
X-134263Y-29427D02*
X-134263Y-29429D01*
X-138260Y25900D02*
X-135706D01*
X-139077Y25706D02*
X-139077Y25706D01*
X-138537Y25861D01*
X-139900Y-4987D02*
X-139900Y-4984D01*
X-139802Y24752D01*
X-135706Y25900D02*
X-134434Y26802D01*
X-133065Y47197D02*
X-130259Y48533D01*
X-134434Y26802D02*
X-133162Y27877D01*
X-129687Y49413D02*
X-129687Y49416D01*
X-130259Y48533D02*
X-130259Y48534D01*
X-129687Y49416D02*
X-129300Y67600D01*
X-115600Y67800D02*
X-109035Y70054D01*
X-129300Y67600D02*
X-115600Y67800D01*
X-94318Y64689D02*
X-94318Y64693D01*
X-96620Y68805D02*
X-96619Y68803D01*
X-100413Y70431D02*
X-100409Y70430D01*
X-108762Y70107D02*
X-108758Y70107D01*
X-100803Y70490D01*
X-100409Y70430D02*
X-97127Y69220D01*
X-96619Y68803D02*
X-94462Y65266D01*
X-94677Y58406D02*
X-94318Y64689D01*
X-97334Y55591D02*
X-95000Y57725D01*
X49943Y-124079D02*
X49944Y-124079D01*
X51013Y-123501D02*
X59132Y-105384D01*
X10300Y-121400D02*
X12550D01*
X14800D01*
X58690Y-91526D02*
X58992Y-90232D01*
X58037Y-94445D02*
X58037Y-94499D01*
X58037Y-94444D02*
X58037Y-94329D01*
Y-94499D02*
X58041Y-94535D01*
X59219Y-104918D01*
X58037Y-94329D02*
X58690Y-91526D01*
X59219Y-105189D02*
Y-104918D01*
X59132Y-105384D02*
X59219Y-105189D01*
X77817Y-80113D02*
X79874Y-77390D01*
X81716Y-83997D01*
X82045Y-84499D02*
X82047Y-84501D01*
X94179Y-94624D02*
X94180Y-94627D01*
X82047Y-84501D02*
X93839Y-94088D01*
X94180Y-94627D02*
X94929Y-97697D01*
X60293Y-89515D02*
X63427Y-84087D01*
X33675Y-121511D02*
X33678Y-121511D01*
X21929Y-122588D02*
X33675Y-121511D01*
X21670Y-122578D02*
X21674Y-122578D01*
X33924Y-121520D02*
X49943Y-124079D01*
X14800Y-121400D02*
X21670Y-122578D01*
X64062Y-83614D02*
X77252Y-80483D01*
X64059Y-83615D02*
X64062Y-83614D01*
X58992Y-90232D02*
X60293Y-89515D01*
X88371Y-61827D02*
X91715Y-60727D01*
X79874Y-77390D02*
X88371Y-61827D01*
X92461Y-60776D02*
X92465Y-60777D01*
X119236Y-81013D02*
X121344Y-75868D01*
X119149Y-81179D02*
X119150Y-81176D01*
X92465Y-60777D02*
X120856Y-74590D01*
X116548Y-85173D02*
X119149Y-81179D01*
X114200Y-86500D02*
X116157Y-85521D01*
X-77614Y24414D02*
X-76786D01*
X-75821Y25379D01*
X-74440D02*
X-74227Y25165D01*
X-81440Y28240D02*
X-77614Y24414D01*
X-81440Y28240D02*
Y30860D01*
X-75821Y25379D02*
X-74440D01*
X-66400Y41100D02*
X-62636Y35241D01*
X11883Y83573D02*
X12120Y83161D01*
X8934Y71270D02*
X12120Y83161D01*
X8934Y71270D02*
X9370Y70514D01*
X-58200Y23600D02*
X-52686Y29114D01*
X-51359Y29864D01*
X-37620Y33871D02*
X-32300Y29500D01*
X-37536Y28111D02*
X-36935Y26635D01*
X-34800Y24500D01*
X-38642Y25042D02*
X-38639Y25039D01*
X-38636Y25035D02*
X-36622Y22982D01*
X-42545Y28945D02*
X-38642Y25042D01*
X-43266Y29606D02*
X-42545Y28945D01*
X-62984Y33512D02*
X-62636Y35241D01*
X-59154Y37343D02*
X-58839Y39039D01*
X-63500Y43700D02*
X-58839Y39039D01*
X-55839Y42039D02*
X-55324Y41173D01*
X-60700Y46900D02*
X-55839Y42039D01*
X-57700Y49300D02*
X-53139Y44739D01*
X-51493Y45003D01*
X14407Y112129D02*
X14407Y112129D01*
X11173Y112995D02*
X14407Y112129D01*
X10113Y114832D02*
X11173Y112995D01*
X10113Y114832D02*
X14383Y130770D01*
X16220Y131831D01*
X22306Y130200D01*
X23936Y136285D01*
X26018Y137487D01*
X38092Y134252D01*
X40214Y130578D01*
X36837Y117975D02*
X40214Y130578D01*
X34261Y108362D02*
X36837Y117975D01*
X32973Y119011D02*
X36837Y117975D01*
X32424Y107301D02*
X34261Y108362D01*
X28424Y106670D02*
X29836Y107485D01*
X113476Y30945D02*
X115524Y30396D01*
X110201Y33327D02*
X111776Y32905D01*
X115524Y30396D02*
X124144Y35372D01*
X122144Y38836D02*
X124144Y35372D01*
X135443Y41896D01*
X136541Y45994D01*
X130291Y56819D02*
X136541Y45994D01*
X127969Y57442D02*
X130291Y56819D01*
X122513Y54292D02*
X127969Y57442D01*
X119363Y59747D02*
X122513Y54292D01*
X117314Y60296D02*
X119363Y59747D01*
X103024Y52047D02*
X117314Y60296D01*
X102476Y49997D02*
X103024Y52047D01*
X102476Y49997D02*
X104149Y47099D01*
X104149Y47099D01*
X96095Y88415D02*
X100550Y92869D01*
X91640Y92869D02*
X96095Y88415D01*
X100550Y92869D02*
X102954Y92869D01*
X89519Y92869D02*
X91640Y92869D01*
X102954D02*
X111793Y84030D01*
X77852Y81202D02*
X89519Y92869D01*
X111793Y79788D02*
Y84030D01*
X77852Y81202D02*
X77852Y79081D01*
X102567Y70562D02*
X111793Y79788D01*
X77852Y79081D02*
X80218Y76714D01*
X99739Y73390D02*
X102567Y70562D01*
X95529Y63524D02*
X102567Y70562D01*
X80218Y76714D02*
X80218Y76714D01*
X93408Y63524D02*
X95529Y63524D01*
X89628Y64978D02*
X91259Y64978D01*
X91607Y65325D01*
X85302Y60651D02*
X89628Y64978D01*
X-26000Y135500D02*
X-19700D01*
Y141800D01*
X-27500Y134000D02*
X-26000Y135500D01*
X-19700Y141800D02*
X-18000Y143500D01*
X-27500Y117500D02*
Y134000D01*
X-18000Y143500D02*
X-5500D01*
X-27500Y117500D02*
X-26000Y116000D01*
X-5500Y143500D02*
X-2500Y140500D01*
X-26000Y116000D02*
X-22653D01*
X-2500Y127453D02*
Y140500D01*
X-22653Y116000D02*
X-22653Y116000D01*
X-2500Y117500D02*
Y127453D01*
X-6500D02*
X-2500D01*
X-4000Y116000D02*
X-2500Y117500D01*
X-6547Y116000D02*
X-4000D01*
X-7700Y114355D02*
X-6547Y115508D01*
Y116000D01*
X56480Y117229D02*
X61936Y114079D01*
X65086Y119535D01*
X54431Y116680D02*
X56480Y117229D01*
X65086Y119535D02*
X67408Y120157D01*
X46180Y102391D02*
X54431Y116680D01*
X67408Y120157D02*
X78233Y113907D01*
X46180Y102391D02*
X46730Y100342D01*
X78233Y113907D02*
X79331Y109809D01*
X46730Y100342D02*
X49628Y98668D01*
X72808Y98510D02*
X79331Y109809D01*
X49628Y98668D02*
X49628D01*
X67831Y89891D02*
X72808Y98510D01*
X69344Y100510D02*
X72808Y98510D01*
X65782Y89341D02*
X67831Y89891D01*
X61755Y89767D02*
X63330Y90189D01*
X63576Y90615D01*
X55791Y-33065D02*
X56413Y-30744D01*
X56793Y-29325D01*
X55411Y-34483D02*
X55791Y-33065D01*
X54632Y-35795D02*
X55411Y-34483D01*
X53800Y-38900D02*
X54632Y-35795D01*
X69477Y-24023D02*
X70117Y-24367D01*
X70256Y-24442D01*
X65891Y-17465D02*
X74300Y-20500D01*
X65716Y-17402D02*
X65891Y-17465D01*
X65629Y-17371D02*
X65716Y-17402D01*
X71468Y-24851D02*
X73221Y-25321D01*
X70038Y-24514D02*
X71468Y-24851D01*
X63879Y-25696D02*
X64766Y-26158D01*
X73781Y-28574D01*
X38576Y-29840D02*
X38577Y-29844D01*
X39300Y-30621D02*
X43878Y-31848D01*
X44909Y-31773D01*
X38100Y-27300D02*
X38576Y-29840D01*
X39200Y-23400D02*
X45676Y-25135D01*
X46328Y-26476D01*
X46694Y-21340D02*
X47747Y-21180D01*
X40200Y-19600D02*
X46694Y-21340D01*
X42508Y-14996D02*
X43283Y-14644D01*
X48198Y-15725D02*
X49166Y-15883D01*
X43956Y-14589D02*
X48198Y-15725D01*
X40900Y-15700D02*
X42494Y-15003D01*
X33767Y60618D02*
X33993Y59775D01*
X33767Y60618D02*
X39922Y71279D01*
X39799Y71738D02*
X39922Y71279D01*
X54825Y87091D02*
X61230Y98186D01*
X62073Y98411D02*
X62239Y97793D01*
X61230Y98186D02*
X62073Y98411D01*
X56926Y101356D02*
X56959Y101364D01*
X50068Y89477D02*
X56926Y101356D01*
X52361Y103496D02*
X56340Y101198D01*
X35346Y74697D02*
X36734Y77101D01*
X35346Y74697D02*
X35469Y74238D01*
X44818Y90430D02*
X45706Y91968D01*
X54366Y86968D02*
X54825Y87091D01*
X62239Y97793D02*
X66391Y95396D01*
X62374Y104534D02*
X64839Y105194D01*
X55314Y108610D02*
X62374Y104534D01*
X64839Y105194D02*
X66439Y107965D01*
X70596Y109079D01*
X34598Y83729D02*
X35024Y83483D01*
X36734Y77101D01*
X37551Y88843D02*
X37977Y88597D01*
X44818Y90430D01*
X50036Y89468D02*
X50068Y89477D01*
X55049Y43193D02*
Y44065D01*
X63755Y52771D02*
X63755Y53246D01*
X55049Y44065D02*
X63755Y52771D01*
X82241Y64186D02*
X91300Y73245D01*
X92172D02*
X92172Y72605D01*
X91300Y73245D02*
X92172D01*
X87963Y77421D02*
X87997Y77421D01*
X78264Y67722D02*
X87963Y77421D01*
X84108Y80670D02*
X87356Y77421D01*
X60219Y57256D02*
X62182Y59219D01*
X60219Y56781D02*
X60219Y57256D01*
X73440Y70002D02*
X74695Y71257D01*
X81766Y64186D02*
X82241Y64186D01*
X92172Y72605D02*
X95563Y69215D01*
X94048Y79081D02*
X96599Y79081D01*
X88283Y84846D02*
X94048Y79081D01*
X96599Y79081D02*
X98862Y81343D01*
X103166Y81343D01*
X61834Y66174D02*
X62182Y65826D01*
X62182Y59219D02*
X62182Y65826D01*
X66009Y70350D02*
X66357Y70002D01*
X73440Y70002D01*
X78231Y67722D02*
X78264D01*
X71162Y21234D02*
X71387Y22077D01*
X82049Y28232D02*
X82172Y28691D01*
X71387Y22077D02*
X82049Y28232D01*
X102861Y34475D02*
X113955Y40880D01*
X114632Y40036D02*
X114798Y40654D01*
X113955Y40880D02*
X114798Y40654D01*
X111813Y45777D02*
X111845Y45769D01*
X99934Y38919D02*
X111813Y45777D01*
X108930Y49913D02*
X111227Y45934D01*
X79795Y33480D02*
X82199Y34868D01*
X79672Y33022D02*
X79795Y33480D01*
X95864Y42370D02*
X97402Y43258D01*
X102402Y34598D02*
X102861Y34475D01*
X114632Y40036D02*
X117030Y35884D01*
X118120Y45805D02*
X120584Y45145D01*
X114044Y52866D02*
X118120Y45805D01*
X120584Y45145D02*
X123356Y46745D01*
X127513Y45631D01*
X83663Y41676D02*
X83909Y41250D01*
X82199Y34868D02*
X83909Y41250D01*
X88777Y44629D02*
X89023Y44203D01*
X95864Y42370D01*
X99902Y38928D02*
X99934Y38919D01*
X22422Y102291D02*
X25738Y114666D01*
X26493Y115102D02*
X26814Y114547D01*
X25738Y114666D02*
X26493Y115102D01*
X20760Y116614D02*
X20789Y116630D01*
X17210Y103364D02*
X20760Y116614D01*
X15797Y117499D02*
X20235Y116310D01*
X6815Y85278D02*
X7534Y87959D01*
X6815Y85278D02*
X7053Y84867D01*
X11892Y102927D02*
X12352Y104642D01*
X22011Y102053D02*
X22422Y102291D01*
X26814Y114547D02*
X31445Y113306D01*
X25200Y121093D02*
X27410Y122369D01*
X17325Y123204D02*
X25200Y121093D01*
X27410Y122369D02*
X28238Y125460D01*
X31965Y127612D01*
X3755Y93809D02*
X4230Y93681D01*
X7534Y87959D01*
X5283Y99513D02*
X5759Y99385D01*
X11892Y102927D01*
X17181Y103348D02*
X17210Y103364D01*
X-17700Y108236D02*
X-17676Y108260D01*
X-27708Y101453D02*
X-22700Y106461D01*
X-28200Y101453D02*
X-27708D01*
X-27708Y95547D02*
X-23036Y90875D01*
X-28200Y95547D02*
X-27708D01*
X-12743Y132457D02*
X-9700Y135500D01*
X-12743Y129257D02*
Y132457D01*
X-22700Y127453D02*
X-14547D01*
X-12743Y129257D01*
X-11294Y121547D02*
X-6500D01*
X-12700Y108236D02*
X-12364Y108572D01*
X-22700Y106461D02*
Y108236D01*
X-23036Y88100D02*
X-22700Y87764D01*
X-23036Y88100D02*
Y90875D01*
X-22700Y121547D02*
X-18105D01*
X-17676Y108260D02*
Y121976D01*
X-17653Y122000D01*
X-12364Y121383D02*
X-11747Y122000D01*
X-11294Y121547D01*
X-12364Y108572D02*
Y121383D01*
X-17364Y75117D02*
Y87428D01*
X-17700Y87764D02*
X-17364Y87428D01*
Y75117D02*
X-16747Y74500D01*
D18*
X79730Y-49118D02*
G03*
X79173Y-48974I-411J-438D01*
G01*
X57390Y-56197D02*
G03*
X57410Y-56203I199J566D01*
G01*
X61416Y-53449D02*
G03*
X61530Y-53428I-106J894D01*
G01*
X81216Y-47210D02*
G03*
X80711Y-47049I-415J-433D01*
G01*
X63722Y-62229D02*
G03*
X64089Y-62253I222J557D01*
G01*
X33321Y-47347D02*
G03*
X33615Y-48027I580J-153D01*
G01*
X47972Y-55885D02*
G03*
X48030Y-55912I285J528D01*
G01*
X51201Y-55237D02*
G03*
X51383Y-55323I863J1580D01*
G01*
X44896Y-51791D02*
G03*
X44933Y-51813I325J505D01*
G01*
X63204Y-60126D02*
G03*
X63582Y-60152I228J555D01*
G01*
X44621Y-51253D02*
G03*
X44895Y-51791I599J-34D01*
G01*
X51746Y-54166D02*
G03*
X51864Y-54223I317J509D01*
G01*
X48414Y-51575D02*
G03*
X48673Y-52234I580J-153D01*
G01*
X53254Y-52326D02*
G03*
X53676Y-53060I580J-155D01*
G01*
X43052Y-36095D02*
G03*
X42325Y-36500I-153J-580D01*
G01*
X37539Y-43720D02*
X38267Y-44926D01*
X37539Y-43720D02*
X38000Y-42000D01*
X21005Y-37348D02*
Y-36758D01*
Y-37348D02*
X38000Y-42000D01*
X-114456Y73200D02*
X-98200D01*
X-116891Y70765D02*
X-114456Y73200D01*
X-98200D02*
X-91500Y66500D01*
X-118700Y72700D02*
X-116100Y75300D01*
X-97300D02*
X-88900Y66900D01*
X-116100Y75300D02*
X-97300D01*
X-96500Y77400D02*
X-87113Y68013D01*
X-120700Y74800D02*
X-118100Y77400D01*
X-96500D01*
X-120700Y71100D02*
Y74800D01*
X-126600Y72700D02*
X-120314Y78700D01*
X-95300D01*
X-85800Y69200D01*
X-91500Y24401D02*
Y66500D01*
X-88900Y21750D02*
Y66900D01*
X-87113Y26513D02*
Y68013D01*
X-85800Y28100D02*
Y69200D01*
X79730Y-49118D02*
X79732Y-49120D01*
X81400Y-50700D01*
X61530Y-53428D02*
X79173Y-48974D01*
X81219Y-47212D02*
X84400Y-50300D01*
X-117183Y-32982D02*
X-115769Y-35431D01*
X6600Y-101300D02*
X10700Y-90200D01*
X36300Y-116600D02*
X50905Y-83458D01*
X52089Y-81266D02*
X56500Y-73100D01*
X50905Y-83458D02*
X52089Y-81266D01*
X50905Y-83458D02*
X50905Y-83458D01*
X88155Y-107069D02*
X93435Y-105655D01*
X97185Y-99159D01*
X-17500Y-59200D02*
X-13258D01*
X51864Y-54223D02*
X57388Y-56196D01*
X57390Y-56197D01*
X57410Y-56203D02*
X78500Y-51700D01*
X53676Y-53060D02*
X56968Y-53974D01*
X61416Y-53449D01*
X61707Y-49915D02*
X80711Y-47049D01*
X59791Y-50620D02*
X61707Y-49915D01*
X81216Y-47210D02*
X81219Y-47212D01*
X63720Y-62228D02*
X63722Y-62229D01*
X64089Y-62253D02*
X72400Y-60200D01*
X48030Y-55912D02*
X63720Y-62228D01*
X-14900Y-104400D02*
X-13957Y-105343D01*
X-10422Y-107012D02*
Y-106520D01*
X-11598Y-105343D02*
X-10422Y-106520D01*
X-13957Y-105343D02*
X-11598D01*
X-88400Y-60900D02*
Y-49200D01*
X-47641Y-90602D02*
X-46465Y-91779D01*
X-48133Y-90602D02*
X-47641D01*
X-50335Y-88400D02*
X-48133Y-90602D01*
X-61500Y-88400D02*
X-50335D01*
X-46465Y-92271D02*
Y-91779D01*
X-88400Y-49200D02*
X-82800Y-43600D01*
X-86305Y-53050D02*
X-79800Y-46545D01*
Y-20000D01*
X-82800Y-43600D02*
Y-20500D01*
X-86305Y-69695D02*
Y-53050D01*
Y-69695D02*
X-82705Y-73295D01*
X-80399D01*
X-87437Y20287D02*
X-87413D01*
X-88900Y21750D02*
X-87437Y20287D01*
X-90686Y23464D02*
Y23587D01*
X-91500Y24401D02*
X-90686Y23587D01*
X-83700Y28000D02*
Y36900D01*
X-85800Y28100D02*
X-73500Y15800D01*
X-81000Y33602D02*
Y41500D01*
Y33602D02*
X-77904Y30505D01*
X-73500Y15800D02*
X-70800D01*
X-77904Y28842D02*
Y30505D01*
X-75100Y19400D02*
X-73900D01*
X-83700Y28000D02*
X-75100Y19400D01*
X-87113Y26513D02*
X-81000Y20400D01*
Y15500D02*
Y20400D01*
X-11626Y-60831D02*
X-11626D01*
X-13258Y-59200D02*
X-11626Y-60831D01*
X-10450Y-62500D02*
Y-62008D01*
X-11626Y-60831D02*
X-10450Y-62008D01*
X-76600Y-9500D02*
X-76400Y-9700D01*
X-82000Y-9500D02*
X-76600D01*
X-91700Y-19200D02*
X-82000Y-9500D01*
X-69400Y-22200D02*
Y2100D01*
X-71565Y-24364D02*
X-69400Y-22200D01*
X-91700Y-26000D02*
Y-19200D01*
X-100200Y-34500D02*
X-91700Y-26000D01*
X-100200Y-40200D02*
Y-34500D01*
X-71565Y-28071D02*
Y-24364D01*
X-71716Y32670D02*
X-68800Y34200D01*
X-62673Y23627D02*
X-60900Y25400D01*
X-65300Y9700D02*
X-58500Y2900D01*
X-65300Y9700D02*
Y11600D01*
X-63196Y13704D01*
Y14134D01*
X-59519Y9919D02*
X-55300Y5700D01*
Y5700D02*
Y5700D01*
X-59519Y9919D02*
Y10457D01*
X-65208Y14482D02*
X-63544D01*
X-63196Y14134D01*
X-70800Y15800D02*
X-68663Y17937D01*
X-66999D02*
X-66873Y17811D01*
X-68663Y17937D02*
X-66999D01*
X-73900Y19400D02*
X-71812Y21488D01*
X-70550D01*
X-134434Y7117D02*
X-133679D01*
X-105953Y34843D01*
Y38057D01*
X-117183Y-32982D02*
X-115915Y-28249D01*
X94958Y-21376D02*
X95958D01*
X33321Y-47347D02*
X33322Y-47345D01*
X33615Y-48027D02*
X47969Y-55883D01*
X47972Y-55885D01*
X51383Y-55323D02*
X63204Y-60126D01*
X44895Y-51791D02*
X44896Y-51791D01*
X44933Y-51813D02*
X51201Y-55237D01*
X63582Y-60152D02*
X73300Y-57600D01*
X33322Y-47345D02*
X33953Y-44988D01*
X33016Y-43519D02*
X33953Y-44988D01*
X44621Y-51253D02*
X44621Y-51250D01*
X48673Y-52234D02*
X51744Y-54165D01*
X51746Y-54166D01*
X44621Y-51250D02*
X44826Y-47901D01*
X43519Y-46333D02*
X44826Y-47901D01*
X48414Y-51575D02*
X48415Y-51572D01*
X49092Y-49044D01*
X48770Y-47740D02*
X49092Y-49044D01*
X53254Y-52326D02*
X53795Y-50305D01*
X54021Y-49147D01*
X-73728Y33018D02*
X-71716Y32670D01*
X-68039Y28993D02*
X-65200Y29600D01*
X-70051Y29341D02*
X-68039Y28993D01*
X-64473Y25427D02*
X-62600Y27300D01*
X-66374Y25664D02*
X-64473Y25427D01*
X-62697Y21987D02*
X-62673Y23627D01*
X-57723Y18677D02*
X-55900Y20500D01*
X-59020Y18310D02*
X-57723Y18677D01*
X-53332Y14285D02*
X-51000Y16000D01*
X-55343Y14633D02*
X-53332Y14285D01*
X-48930Y60870D02*
X-47816Y61419D01*
X-50800Y59000D02*
X-48930Y60870D01*
X-56200Y67400D02*
X-54071Y66010D01*
X-52059Y65662D01*
X63235Y-44211D02*
X64300Y-41600D01*
X61319Y-44915D02*
X63235Y-44211D01*
X41856Y126D02*
X42854Y-1359D01*
X42200Y-3800D02*
X42854Y-1359D01*
X34545Y-37815D02*
X34830Y-36673D01*
X35600Y-33800D01*
X43052Y-36095D02*
X43055Y-36096D01*
X41712Y-38517D02*
X42325Y-36500D01*
X39796Y-39222D02*
X41712Y-38517D01*
X43055Y-36096D02*
X45300Y-36700D01*
X46963Y-39924D02*
X48500Y-37500D01*
X45047Y-40629D02*
X46963Y-39924D01*
X50349Y-40831D02*
X51000Y-38400D01*
X50298Y-42036D02*
X50349Y-40831D01*
X55967Y-42337D02*
X56700Y-39600D01*
X34200Y-1000D02*
X34690Y828D01*
X36061Y1679D01*
X-114325Y-50519D02*
X-106629Y-46076D01*
X-120217Y-48941D02*
X-114325Y-50519D01*
X-120359Y-48696D02*
X-120217Y-48941D01*
X19000Y-130500D02*
X19200Y-130700D01*
X25300D01*
X31583Y-124416D01*
X18000Y-114500D02*
Y-109600D01*
Y-114500D02*
X20000Y-116500D01*
X76040Y-100075D02*
X88155Y-107069D01*
D19*
X9234Y57135D02*
G03*
X9399Y56366I764J-238D01*
G01*
X16787Y48115D02*
G03*
X16814Y48086I596J534D01*
G01*
X53832Y10496D02*
G03*
X53597Y11350I-760J251D01*
G01*
X55700Y11424D02*
G03*
X55530Y11917I-800J-0D01*
G01*
X19790Y53514D02*
G03*
X19811Y53487I634J488D01*
G01*
X29795Y41706D02*
G03*
X29801Y41699I612J515D01*
G01*
X-7700Y62444D02*
G03*
X-7453Y61865I800J-1D01*
G01*
X2089Y52811D02*
G03*
X2112Y52790I548J583D01*
G01*
X34196Y25203D02*
G03*
X34204Y25197I519J609D01*
G01*
X48845Y13046D02*
G03*
X48744Y13147I-615J-512D01*
G01*
X44499Y16701D02*
G03*
X44498Y16702I-511J-616D01*
G01*
X-12009Y59372D02*
G03*
X-11710Y58769I800J21D01*
G01*
X16388Y58467D02*
G03*
X16528Y57800I778J-185D01*
G01*
X53006Y28186D02*
G03*
X52992Y28215I-727J-335D01*
G01*
X46598Y40703D02*
G03*
X46602Y40697I718J354D01*
G01*
X53911Y13985D02*
G03*
X53886Y14016I-629J-495D01*
G01*
X58382Y11108D02*
G03*
X58247Y11826I-767J227D01*
G01*
X51491Y20513D02*
G03*
X51510Y20487I653J462D01*
G01*
X41283Y52352D02*
G03*
X41274Y51642I713J-363D01*
G01*
X59610Y13773D02*
G03*
X59587Y13829I-751J-277D01*
G01*
X60341Y11365D02*
G03*
X60316Y11830I-777J191D01*
G01*
X61878Y9687D02*
G03*
X61876Y9680I1822J-487D01*
G01*
X62430Y11754D02*
G03*
X62429Y11749I771J-212D01*
G01*
X61605Y8653D02*
G03*
X61624Y8720I-1805J547D01*
G01*
X65518Y8700D02*
G03*
X65527Y8734I-1818J500D01*
G01*
X66912Y14165D02*
G03*
X66910Y14159I774J-204D01*
G01*
X59771Y33306D02*
G03*
X59596Y32599I604J-525D01*
G01*
X59997Y30913D02*
G03*
X60004Y30887I777J189D01*
G01*
X64847Y13789D02*
G03*
X64837Y14210I-777J192D01*
G01*
X67307Y14666D02*
G03*
X67306Y14666I379J-705D01*
G01*
D02*
G03*
X66913Y14168I379J-704D01*
G01*
X-17322Y65671D02*
G03*
X-17676Y65647I-124J-790D01*
G01*
X62432Y11758D02*
G03*
X62415Y12240I-771J215D01*
G01*
X45608Y-67332D02*
Y-63608D01*
X45500Y-63500D02*
X45608Y-63608D01*
X38118Y-67322D02*
Y-63618D01*
Y-67322D02*
X38236Y-67440D01*
X38000Y-63500D02*
X38118Y-63618D01*
X-85271Y8388D02*
X-84563Y10837D01*
X-85540Y7382D02*
X-85271Y8388D01*
X-78308Y5433D02*
X-77976Y6670D01*
X-77425Y9145D01*
X-85540Y7382D02*
X-85457Y7237D01*
X53831Y10494D02*
X53832Y10496D01*
X9234Y57135D02*
X16399Y80121D01*
X9399Y56366D02*
X9402Y56363D01*
X16787Y48115D01*
X16814Y48086D02*
X16816Y48084D01*
X53597Y11350D02*
X53597Y11350D01*
X46401Y18499D02*
X53597Y11350D01*
X16399Y80121D02*
X16960Y82212D01*
X16816Y48084D02*
X46401Y18499D01*
X16530Y57798D02*
X19790Y53514D01*
X53913Y13984D02*
X55530Y11917D01*
X29801Y41699D02*
X29803Y41696D01*
X19814Y53484D02*
X29795Y41706D01*
X19811Y53487D02*
X19814Y53484D01*
X29803Y41696D02*
X53886Y14016D01*
X55700Y10000D02*
Y11424D01*
X-7700Y62444D02*
X-7700Y85598D01*
X-7453Y61865D02*
X-7451Y61863D01*
X2089Y52811D01*
X2112Y52790D02*
X2115Y52787D01*
X34196Y25203D01*
X34204Y25197D02*
X34206Y25195D01*
X48845Y13046D02*
X48847Y13044D01*
X44499Y16701D02*
X44502Y16698D01*
X-7700Y85598D02*
Y87764D01*
X34206Y25195D02*
X44498Y16702D01*
X-11708Y58767D02*
X46593Y12316D01*
X48800Y9600D01*
X-11710Y58769D02*
X-11708Y58767D01*
X48847Y13044D02*
X51200Y10200D01*
X44502Y16698D02*
X48744Y13147D01*
X-12700Y85598D02*
X-12009Y59372D01*
X16528Y57800D02*
X16530Y57798D01*
X16388Y58467D02*
X21229Y78827D01*
X53006Y28186D02*
X53007Y28184D01*
X46602Y40697D02*
X46604Y40693D01*
X53911Y13985D02*
X53913Y13984D01*
X55700Y11424D02*
X55700D01*
Y11424D02*
Y11424D01*
X21229Y78827D02*
X21789Y80918D01*
X32617Y47437D02*
X51491Y20513D01*
X51510Y20487D02*
X51512Y20484D01*
X32617Y47437D02*
X43269Y67235D01*
X51512Y20484D02*
X58247Y11826D01*
X53000Y8000D02*
X53831Y10494D01*
X41283Y52352D02*
X47599Y64735D01*
X41274Y51642D02*
X41276Y51638D01*
X60005Y30883D02*
X63200Y19700D01*
X59610Y13773D02*
X59611Y13769D01*
X60341Y11363D02*
X60341Y11365D01*
X47599Y64735D02*
X48681Y66610D01*
X41276Y51638D02*
X46598Y40703D01*
X43269Y67235D02*
X44351Y69110D01*
X46604Y40693D02*
X52992Y28215D01*
X53007Y28184D02*
X59587Y13829D01*
X59611Y13769D02*
X60316Y11830D01*
X54313Y35169D02*
X62415Y12240D01*
X54313Y35169D02*
X65940Y47998D01*
X59800Y9200D02*
X60341Y11363D01*
X61624Y8720D02*
X61876Y9680D01*
X61878Y9687D02*
X62429Y11749D01*
X62430Y11754D02*
X62431Y11756D01*
X62432Y11758D01*
X60800Y6000D02*
X61605Y8653D01*
X58381Y11105D02*
X58382Y11108D01*
X57000Y6500D02*
X58381Y11105D01*
X64500Y5000D02*
X65518Y8700D01*
X65527Y8734D02*
X66910Y14159D01*
X59596Y32599D02*
X59596Y32596D01*
X60004Y30887D02*
X60005Y30883D01*
X63200Y19700D02*
X63201Y19696D01*
X64847Y13787D02*
X64847Y13789D01*
X59771Y33306D02*
X69476Y44462D01*
X59596Y32596D02*
X59997Y30913D01*
X69476Y44462D02*
X71007Y45993D01*
X63201Y19696D02*
X64837Y14210D01*
X63700Y9200D02*
X64847Y13787D01*
X66912Y14165D02*
X66912Y14166D01*
X67307Y14666D02*
X82925Y23057D01*
X66912Y14166D02*
X66913Y14168D01*
X87207Y19756D02*
X91800Y11800D01*
X87207Y19756D02*
X87300Y19809D01*
X-37889Y77192D02*
X-28600Y70700D01*
X-37900Y77200D02*
X-37889Y77192D01*
X-38300Y77500D02*
X-37900Y77200D01*
X-34700Y62500D02*
X-30200Y61900D01*
X-34700Y62500D02*
X-28600Y70700D01*
X-30200Y61900D02*
X-26700Y58600D01*
X-23500Y53500D01*
X-17322Y65671D02*
X-17319Y65671D01*
X-30200Y61900D02*
X-17676Y65647D01*
X-17319Y65671D02*
X-14400Y65200D01*
X-26700Y58600D02*
X-20400Y61600D01*
X-23500Y53500D02*
X-14700Y54800D01*
X-78308Y5433D02*
X-78231Y5301D01*
X45608Y-67332D02*
X45717Y-67440D01*
X-61131Y-63422D02*
X-61053Y-63500D01*
X-65915Y-54563D02*
Y-54071D01*
Y-54563D02*
X-61131Y-59347D01*
Y-63422D02*
Y-59347D01*
X-71820Y-54071D02*
X-71797Y-54047D01*
Y-38630D01*
X-58761Y-38630D02*
X-58368Y-39024D01*
X-61368Y-39148D02*
X-60850Y-38630D01*
X-61368Y-43618D02*
Y-39148D01*
X-60850Y-38630D02*
X-58761D01*
X-62938Y-33512D02*
X-62938Y-33512D01*
X-65659Y-33505D02*
Y-28071D01*
X-65665Y-33512D02*
X-65659Y-33505D01*
X-71797Y-33512D02*
X-65665D01*
X-62938D01*
X-16Y-97851D02*
X62Y-97929D01*
X-4800Y-88992D02*
Y-88500D01*
Y-88992D02*
X-16Y-93776D01*
Y-97851D02*
Y-93776D01*
X-10706Y-88500D02*
X-10682Y-88476D01*
Y-73059D01*
X2354Y-73059D02*
X2747Y-73453D01*
X-253Y-73577D02*
X265Y-73059D01*
X-253Y-78047D02*
Y-73577D01*
X265Y-73059D02*
X2354D01*
X-1824Y-67941D02*
X-1824Y-67941D01*
X-4544Y-67935D02*
Y-62500D01*
X-4550Y-67941D02*
X-4544Y-67935D01*
X-10682Y-67941D02*
X-4550D01*
X-1824D01*
X12Y-142363D02*
X90Y-142441D01*
X-4772Y-133504D02*
Y-133012D01*
Y-133504D02*
X12Y-138288D01*
Y-142363D02*
Y-138288D01*
X-10678Y-133012D02*
X-10654Y-132988D01*
Y-117571D01*
X2381Y-117571D02*
X2775Y-117965D01*
X-225Y-118089D02*
X293Y-117571D01*
X-225Y-122559D02*
Y-118089D01*
X293Y-117571D02*
X2381D01*
X-1796Y-112453D02*
X-1796Y-112453D01*
X-4516Y-112446D02*
Y-107012D01*
X-4523Y-112453D02*
X-4516Y-112446D01*
X-10654Y-112453D02*
X-4523D01*
X-1796D01*
X-36392Y-128108D02*
X-36314Y-128186D01*
X-41176Y-119249D02*
Y-118757D01*
Y-119249D02*
X-36392Y-124033D01*
Y-128108D02*
Y-124033D01*
X-47082Y-118757D02*
X-47058Y-118733D01*
Y-103316D01*
X-34023Y-103316D02*
X-33629Y-103709D01*
X-36629Y-103833D02*
X-36111Y-103316D01*
X-36629Y-108304D02*
Y-103833D01*
X-36111Y-103316D02*
X-34023D01*
X-38200Y-98198D02*
X-38200Y-98198D01*
X-40920Y-98191D02*
Y-92757D01*
X-40927Y-98198D02*
X-40920Y-98191D01*
X-47058Y-98198D02*
X-40927D01*
X-38200D01*
X-74500Y-78736D02*
X-71773D01*
X-80632D02*
X-74500D01*
X-74494Y-78730D01*
Y-73295D01*
X-71773Y-78736D02*
X-71773Y-78736D01*
X-69685Y-83854D02*
X-67596D01*
X-70202Y-88842D02*
Y-84372D01*
X-69685Y-83854D01*
X-67596D02*
X-67202Y-84248D01*
X-80632Y-99272D02*
Y-83854D01*
X-80655Y-99295D02*
X-80632Y-99272D01*
X-69965Y-108646D02*
Y-104571D01*
X-74750Y-99787D02*
X-69965Y-104571D01*
X-74750Y-99787D02*
Y-99295D01*
X-69965Y-108646D02*
X-69887Y-108724D01*
X82925Y23057D02*
X84800Y24139D01*
X65940Y47998D02*
X67471Y49529D01*
X-12700Y85598D02*
Y87764D01*
D29*
X62294Y98283D02*
D03*
X57180Y101236D02*
D03*
X58943Y93476D02*
D03*
X64057Y90524D02*
D03*
X54557Y96024D02*
D03*
X49443Y98976D02*
D03*
X36964Y64410D02*
D03*
X31850Y67363D02*
D03*
X34214Y59647D02*
D03*
X29100Y62600D02*
D03*
D31*
X66524Y95443D02*
D03*
X69476Y100557D02*
D03*
X52583Y103368D02*
D03*
X55536Y108482D02*
D03*
X34819Y83601D02*
D03*
X37772Y88715D02*
D03*
D37*
X17572Y123137D02*
D03*
X16044Y117433D02*
D03*
X31736Y113148D02*
D03*
X33264Y118852D02*
D03*
X5531Y99446D02*
D03*
X4002Y93742D02*
D03*
X37589Y7383D02*
D03*
X36061Y1679D02*
D03*
X43385Y5830D02*
D03*
X41856Y126D02*
D03*
X68509Y-30218D02*
D03*
X70038Y-24514D02*
D03*
X59791Y-50620D02*
D03*
X61319Y-44915D02*
D03*
X55549Y-43443D02*
D03*
X54021Y-49147D02*
D03*
X50298Y-42036D02*
D03*
X48770Y-47740D02*
D03*
X43519Y-46333D02*
D03*
X45047Y-40629D02*
D03*
X38267Y-44926D02*
D03*
X39796Y-39222D02*
D03*
X34545Y-37815D02*
D03*
X33016Y-43519D02*
D03*
D38*
X-22700Y127453D02*
D03*
X-22700Y121547D02*
D03*
X-6500Y121547D02*
D03*
X-6500Y127453D02*
D03*
X2747Y-67547D02*
D03*
Y-73453D02*
D03*
X-253Y-78047D02*
D03*
Y-83953D02*
D03*
X2775Y-117965D02*
D03*
X2775Y-112059D02*
D03*
X-225Y-128465D02*
D03*
X-225Y-122559D02*
D03*
X-33268Y-97318D02*
D03*
Y-103224D02*
D03*
X-36268Y-107818D02*
D03*
X-36268Y-113724D02*
D03*
X-67202Y-78342D02*
D03*
X-67202Y-84248D02*
D03*
X-70202Y-88842D02*
D03*
Y-94748D02*
D03*
X-58368Y-39024D02*
D03*
X-58368Y-33118D02*
D03*
X-61368Y-49524D02*
D03*
X-61368Y-43618D02*
D03*
X-28200Y95547D02*
D03*
X-28200Y101453D02*
D03*
D42*
X-1824Y-73059D02*
D03*
X-1824Y-67941D02*
D03*
X-10682Y-67941D02*
D03*
X-10682Y-70500D02*
D03*
X-10682Y-73059D02*
D03*
X-1796Y-117571D02*
D03*
Y-112453D02*
D03*
X-10654Y-112453D02*
D03*
X-10654Y-115012D02*
D03*
X-10654Y-117571D02*
D03*
X-46697Y-102830D02*
D03*
Y-100271D02*
D03*
Y-97712D02*
D03*
X-37839D02*
D03*
Y-102830D02*
D03*
X-71773Y-83854D02*
D03*
X-71773Y-78736D02*
D03*
X-80632Y-78736D02*
D03*
X-80632Y-81295D02*
D03*
X-80632Y-83854D02*
D03*
X-62938Y-38630D02*
D03*
X-62938Y-33512D02*
D03*
X-71797Y-33512D02*
D03*
X-71797Y-36071D02*
D03*
X-71797Y-38630D02*
D03*
D45*
X88464Y84664D02*
D03*
X84289Y80489D02*
D03*
X95412Y68912D02*
D03*
X99588Y73088D02*
D03*
X66190Y70169D02*
D03*
X62015Y65993D02*
D03*
X-37536Y28111D02*
D03*
X-41711Y23935D02*
D03*
X-47883Y69838D02*
D03*
X-52059Y65662D02*
D03*
X-43640Y65595D02*
D03*
X-47816Y61419D02*
D03*
X-55343Y14633D02*
D03*
X-59519Y10457D02*
D03*
X-63196Y14134D02*
D03*
X-59020Y18310D02*
D03*
X-66873Y17811D02*
D03*
X-62697Y21987D02*
D03*
X-66374Y25664D02*
D03*
X-70550Y21488D02*
D03*
X-74227Y25165D02*
D03*
X-70051Y29341D02*
D03*
X-73728Y33018D02*
D03*
X-77904Y28842D02*
D03*
D46*
X-81033Y-5157D02*
D03*
X-78231Y5301D02*
D03*
X-81844Y6269D02*
D03*
X-85457Y7237D02*
D03*
X-88259Y-3221D02*
D03*
X-84646Y-4189D02*
D03*
D47*
X21036Y116564D02*
D03*
X26741Y115035D02*
D03*
X24648Y109264D02*
D03*
X30352Y107736D02*
D03*
X19852Y110736D02*
D03*
X14148Y112264D02*
D03*
X11041Y75761D02*
D03*
X5336Y77289D02*
D03*
X3913Y71976D02*
D03*
X9617Y70448D02*
D03*
X68025Y-10222D02*
D03*
X62321Y-8693D02*
D03*
X66643Y-15380D02*
D03*
X60939Y-13851D02*
D03*
X65261Y-20538D02*
D03*
X59557Y-19009D02*
D03*
X63879Y-25696D02*
D03*
X58175Y-24167D02*
D03*
X62497Y-30854D02*
D03*
X56793Y-29325D02*
D03*
X55411Y-34483D02*
D03*
X61115Y-36012D02*
D03*
X53424Y6D02*
D03*
X59128Y-1522D02*
D03*
X52005Y-5291D02*
D03*
X57709Y-6819D02*
D03*
X50586Y-10587D02*
D03*
X56290Y-12115D02*
D03*
X49166Y-15883D02*
D03*
X54871Y-17412D02*
D03*
X47747Y-21180D02*
D03*
X53452Y-22708D02*
D03*
X46328Y-26476D02*
D03*
X52032Y-28005D02*
D03*
X44909Y-31773D02*
D03*
X50613Y-33301D02*
D03*
D56*
X12599Y104575D02*
D03*
X17428Y103281D02*
D03*
X22258Y101987D02*
D03*
X7300Y84800D02*
D03*
X12130Y83506D02*
D03*
X16960Y82212D02*
D03*
X21789Y80918D02*
D03*
X27088Y100693D02*
D03*
D57*
X48681Y66610D02*
D03*
X44351Y69110D02*
D03*
X40021Y71610D02*
D03*
X35691Y74110D02*
D03*
X54587Y86840D02*
D03*
X50257Y89340D02*
D03*
X45927Y91840D02*
D03*
X58917Y84340D02*
D03*
D58*
X88178Y77240D02*
D03*
X92353Y73064D02*
D03*
X87912Y69088D02*
D03*
X92088Y64912D02*
D03*
X84588Y72412D02*
D03*
X80412Y76588D02*
D03*
X51055Y47188D02*
D03*
X55230Y43012D02*
D03*
X59119Y46901D02*
D03*
X54944Y51077D02*
D03*
X-43266Y29606D02*
D03*
X-47442Y33781D02*
D03*
X-39348Y33523D02*
D03*
X-43524Y37699D02*
D03*
X-35431Y37440D02*
D03*
X-39607Y41616D02*
D03*
X-31514Y41358D02*
D03*
X-35690Y45533D02*
D03*
X-40003Y56494D02*
D03*
X-35827Y52318D02*
D03*
X-43833Y52663D02*
D03*
X-39657Y48487D02*
D03*
X-47663Y48833D02*
D03*
X-43487Y44657D02*
D03*
X-51493Y45003D02*
D03*
X-47317Y40827D02*
D03*
X-55324Y41173D02*
D03*
X-51148Y36997D02*
D03*
X-59154Y37343D02*
D03*
X-54978Y33167D02*
D03*
X-47183Y25688D02*
D03*
X-51359Y29864D02*
D03*
X-55276Y25947D02*
D03*
X-51100Y21771D02*
D03*
X-62984Y33512D02*
D03*
X-58808Y29337D02*
D03*
D59*
X71007Y45993D02*
D03*
X67471Y49529D02*
D03*
X63936Y53065D02*
D03*
X60400Y56600D02*
D03*
X81947Y64005D02*
D03*
X78412Y67541D02*
D03*
X74876Y71076D02*
D03*
X85483Y60470D02*
D03*
D60*
X114926Y40433D02*
D03*
X111973Y45547D02*
D03*
X109524Y37557D02*
D03*
X112476Y32443D02*
D03*
X106976Y41943D02*
D03*
X104024Y47057D02*
D03*
X76053Y23763D02*
D03*
X73100Y28877D02*
D03*
X71290Y21013D02*
D03*
X68337Y26127D02*
D03*
D61*
X109057Y49692D02*
D03*
X114172Y52644D02*
D03*
X116943Y35524D02*
D03*
X122057Y38476D02*
D03*
X83791Y41455D02*
D03*
X88905Y44407D02*
D03*
D62*
X87300Y19809D02*
D03*
X84800Y24139D02*
D03*
X82300Y28470D02*
D03*
X79800Y32800D02*
D03*
X102530Y34376D02*
D03*
X100030Y38706D02*
D03*
X97530Y43036D02*
D03*
X105030Y30046D02*
D03*
D73*
X-17653Y122000D02*
D03*
X-11747D02*
D03*
X-22653Y80000D02*
D03*
X-23453Y116000D02*
D03*
X-6547D02*
D03*
X-16747Y74500D02*
D03*
X-22653Y74500D02*
D03*
X-12453Y116000D02*
D03*
X-17547Y116000D02*
D03*
X-16747Y80000D02*
D03*
X-40815Y-118271D02*
D03*
X-46720D02*
D03*
X-46465Y-92271D02*
D03*
X-40559Y-92271D02*
D03*
X-40815Y-108271D02*
D03*
X-46720Y-108271D02*
D03*
X-40815Y-113271D02*
D03*
X-46720D02*
D03*
X-71820Y-49071D02*
D03*
X-65915D02*
D03*
X-74749Y-94295D02*
D03*
X-80655Y-94295D02*
D03*
X-4800Y-83500D02*
D03*
X-10706D02*
D03*
X-10678Y-128012D02*
D03*
X-4772Y-128012D02*
D03*
X-71820Y-44071D02*
D03*
X-65915Y-44071D02*
D03*
X-74750Y-89295D02*
D03*
X-80655Y-89295D02*
D03*
X-4800Y-78500D02*
D03*
X-10706D02*
D03*
X-10678Y-123012D02*
D03*
X-4772Y-123012D02*
D03*
X-65659Y-28071D02*
D03*
X-71565Y-28071D02*
D03*
X-80399Y-73295D02*
D03*
X-74494D02*
D03*
X-10450Y-62500D02*
D03*
X-4544D02*
D03*
X-4516Y-107012D02*
D03*
X-10422Y-107012D02*
D03*
X-71820Y-54071D02*
D03*
X-65915Y-54071D02*
D03*
X-74750Y-99295D02*
D03*
X-80655Y-99295D02*
D03*
X-4800Y-88500D02*
D03*
X-10706D02*
D03*
X-10678Y-133012D02*
D03*
X-4772Y-133012D02*
D03*
D76*
X41976Y-78267D02*
D03*
X38236Y-78267D02*
D03*
X38236Y-67440D02*
D03*
X41976Y-67440D02*
D03*
X45717Y-67440D02*
D03*
X45717Y-78267D02*
D03*
D89*
X-7700Y108236D02*
D03*
X-7700Y87764D02*
D03*
X-12700D02*
D03*
X-17700Y87764D02*
D03*
X-22700Y87764D02*
D03*
X-12700Y108236D02*
D03*
X-17700Y108236D02*
D03*
X-22700Y108236D02*
D03*
D189*
X64032Y1291D02*
G03*
X63973Y1307I-566J-1918D01*
G01*
X55659Y3193D02*
G03*
X54105Y1902I327J-1973D01*
G01*
X56709Y3193D02*
G03*
X55880Y3230I-503J-1936D01*
G01*
X-33225Y58363D02*
G03*
X-34085Y58818I-1336J-1488D01*
G01*
X-25747Y51119D02*
G03*
X-26186Y51786I-1857J-743D01*
G01*
X-25300Y49615D02*
G03*
X-25443Y50358I-2000J-0D01*
G01*
X-35809Y59235D02*
G03*
X-37694Y58706I-471J-1944D01*
G01*
X-28662Y54262D02*
G03*
X-28736Y54333I-1414J-1414D01*
G01*
X-25852Y47961D02*
G03*
X-25300Y49340I-1449J1379D01*
G01*
X69641Y-2397D02*
G03*
X68279Y37I-1932J518D01*
G01*
X45717Y-78319D02*
Y-78267D01*
X45898Y-78500D02*
X49500D01*
Y-60500D02*
X52000Y-63000D01*
X49500Y-78500D02*
X52000Y-76000D01*
Y-63000D01*
X45717Y-78319D02*
X45898Y-78500D01*
X111120Y-82459D02*
X111419Y-82555D01*
X87271Y-118042D02*
X96125Y-107306D01*
X96248Y-107156D02*
X109186Y-83250D01*
X111419Y-82555D02*
X113777Y-83314D01*
X96125Y-107306D02*
X96248Y-107156D01*
X109186Y-83250D02*
X109977Y-82459D01*
X111120D01*
X85455Y-118737D02*
X85980Y-118687D01*
X86695Y-118618D01*
X87271Y-118042D01*
X84800Y-118800D02*
X85455Y-118737D01*
X82517Y-117373D02*
X84800Y-118800D01*
X80000Y-115800D02*
X82517Y-117373D01*
X113777Y-83314D02*
X117814Y-76429D01*
X-103400Y63073D02*
X-99434Y67039D01*
X-103400Y55900D02*
Y63073D01*
Y55900D02*
X-100174Y59126D01*
X-103400Y18473D02*
Y55900D01*
X-100174Y59126D02*
X-98067D01*
X-106534Y15339D02*
X-103400Y18473D01*
X-80919Y-5429D02*
X-77439Y-6361D01*
X-81047Y-5207D02*
X-81033Y-5157D01*
X-77439Y-6361D02*
X-74377Y-4594D01*
X-81047Y-5207D02*
X-80919Y-5429D01*
X-74377Y-4594D02*
X-70979Y8089D01*
X-99278Y15671D02*
X-99139Y16189D01*
X-71876Y10400D02*
X-70911Y9435D01*
X-98174Y17154D02*
X-97083D01*
X-70911Y8343D02*
Y9435D01*
X-99139Y16189D02*
X-98174Y17154D01*
X-70979Y8089D02*
X-70911Y8343D01*
X-97083Y17154D02*
X-71876Y10400D01*
X-101563Y7142D02*
X-99278Y15671D01*
X-112434Y15439D02*
X-106534Y15339D01*
X-84646Y-4189D02*
X-84646D01*
X-90539Y-11730D02*
X-88259Y-3221D01*
X-97468Y-16213D02*
X-97316Y-15643D01*
X-90539Y-11730D01*
X55880Y3230D02*
X55880D01*
X55659Y3193D02*
X55880Y3230D01*
X53424Y6D02*
X54103Y1896D01*
X54105Y1902D01*
X64032Y1291D02*
X68275Y38D01*
X56709Y3193D02*
X63968Y1308D01*
X63973Y1307D01*
X-25748Y51119D02*
X-25443Y50358D01*
X-34090Y58819D02*
X-34085Y58818D01*
X-25300Y49340D02*
Y49615D01*
X-35809Y59235D02*
X-34090Y58819D01*
X-39307Y57093D02*
X-37694Y58706D01*
X-33225Y58363D02*
X-28740Y54336D01*
X-38586Y34286D02*
X-31514Y41358D01*
X-25443Y50358D02*
Y50358D01*
X-26190Y51790D02*
X-26186Y51786D01*
X-28662Y54262D02*
X-26190Y51790D01*
X-28740Y54336D02*
X-28736Y54332D01*
X-40090Y56646D02*
X-39307Y57093D01*
X-31166Y42379D02*
X-25852Y47961D01*
X-42100Y55500D02*
X-40090Y56646D01*
X-31514Y41358D02*
X-31166Y42379D01*
X-39141Y33394D02*
X-38586Y34286D01*
X-39696Y32501D02*
X-39141Y33394D01*
X-37883Y29133D02*
X-37536Y28111D01*
X-39696Y32501D02*
X-37883Y29133D01*
X66319Y-19775D02*
X69226Y-23803D01*
X65346Y-18426D02*
X66319Y-19775D01*
X65629Y-17371D02*
X66195Y-15259D01*
X67577Y-10101D01*
X69641Y-2397D01*
X68275Y38D02*
X68279Y37D01*
X69477Y-24023D02*
X70038Y-24514D01*
X69226Y-23803D02*
X69477Y-24023D01*
X65346Y-18426D02*
X65629Y-17371D01*
X-81844Y6269D02*
X-81844Y6269D01*
X-84646Y-4189D02*
X-81844Y6269D01*
X32703Y-93200D02*
Y-92610D01*
X38236Y-87076D01*
Y-78267D01*
X41976Y-78267D02*
X41976Y-78267D01*
Y-67440D01*
X41976Y-67440D01*
X25000Y-60500D02*
X49500D01*
X22703Y-62797D02*
X25000Y-60500D01*
X22703Y-71700D02*
Y-62797D01*
D191*
X63200Y19700D02*
D03*
D214*
X22703Y-81700D02*
D03*
X-37500Y-19500D02*
D03*
D215*
X22703Y-71700D02*
D03*
X-37500Y-9500D02*
D03*
D216*
X-101563Y7142D02*
D03*
D217*
X-104151Y-2517D02*
D03*
D218*
X-107127Y-13625D02*
D03*
X31965Y127612D02*
D03*
D219*
X-97468Y-16213D02*
D03*
X22306Y130200D02*
D03*
D220*
X70596Y109079D02*
D03*
D221*
X61936Y114079D02*
D03*
D222*
X103166Y81343D02*
D03*
D223*
X96095Y88414D02*
D03*
D224*
X127513Y45631D02*
D03*
D225*
X122513Y54291D02*
D03*
D226*
X136592Y27902D02*
D03*
D227*
X127932Y22902D02*
D03*
D228*
X-49194Y104446D02*
D03*
X-19700Y135500D02*
D03*
X32703Y-93200D02*
D03*
X-11495Y-36758D02*
D03*
X21005Y-36758D02*
D03*
D229*
X-59194Y104446D02*
D03*
X-9700Y135500D02*
D03*
X22703Y-93200D02*
D03*
X-1495Y-36758D02*
D03*
X11005Y-36758D02*
D03*
D230*
X-134434Y21881D02*
D03*
X-134434Y16960D02*
D03*
X-134434Y7117D02*
D03*
X-134434Y12039D02*
D03*
D231*
X-134434Y26802D02*
D03*
D232*
X76040Y-100075D02*
D03*
X71778Y-97614D02*
D03*
X67516Y-95153D02*
D03*
X63254Y-92693D02*
D03*
D233*
X58992Y-90232D02*
D03*
D234*
X-36314Y-128186D02*
D03*
X-46314D02*
D03*
X-71053Y-63500D02*
D03*
X-61053Y-63500D02*
D03*
X-69887Y-108724D02*
D03*
X-79887Y-108724D02*
D03*
X62Y-97929D02*
D03*
X-9938D02*
D03*
X-9910Y-142441D02*
D03*
X90Y-142441D02*
D03*
D235*
X-56314Y-128186D02*
D03*
X-81053Y-63500D02*
D03*
X-89887Y-108724D02*
D03*
X-19938Y-97929D02*
D03*
X-19910Y-142441D02*
D03*
D236*
X-51479Y128037D02*
D03*
X-54048Y122172D02*
D03*
X-48891Y118377D02*
D03*
D237*
X99958Y-26376D02*
D03*
X95958Y-21376D02*
D03*
X99958Y-16376D02*
D03*
D238*
X-111500Y91500D02*
D03*
X-110565Y81148D02*
D03*
X121000Y-62500D02*
D03*
X117000Y-54500D02*
D03*
X115000Y-59000D02*
D03*
X119000Y-49500D02*
D03*
X-135000Y2500D02*
D03*
X83000Y-39000D02*
D03*
X27000Y-26500D02*
D03*
X-37500Y-40000D02*
D03*
X-86000Y-94000D02*
D03*
X-77000Y-49500D02*
D03*
X-94500Y-50000D02*
D03*
X-93000Y-41500D02*
D03*
X-57294Y-11328D02*
D03*
X-71800Y39100D02*
D03*
X106927Y-81389D02*
D03*
X103763Y-86868D02*
D03*
X104734Y-73206D02*
D03*
X101739Y-78394D02*
D03*
X98576Y-83873D02*
D03*
X95580Y-89061D02*
D03*
X99255Y-70043D02*
D03*
X96260Y-75230D02*
D03*
X93096Y-80710D02*
D03*
X90101Y-85897D02*
D03*
X91072Y-72235D02*
D03*
X87909Y-77715D02*
D03*
X114000Y27500D02*
D03*
X56000Y-66000D02*
D03*
X67000Y-87500D02*
D03*
X51000Y-131000D02*
D03*
X59000Y-130000D02*
D03*
X54500Y-129000D02*
D03*
X-101000Y-89000D02*
D03*
X-102000Y-84000D02*
D03*
X-69500Y-118500D02*
D03*
X-32500Y-137500D02*
D03*
X32500Y11500D02*
D03*
X42000D02*
D03*
X73000Y-44000D02*
D03*
X-119500Y-7000D02*
D03*
X-129000Y-25500D02*
D03*
X-134000Y-41500D02*
D03*
X-128500Y-55500D02*
D03*
X-88000Y89000D02*
D03*
X-66000Y67500D02*
D03*
X-65000Y75500D02*
D03*
X-57000Y76000D02*
D03*
X-52000D02*
D03*
X-47500Y77000D02*
D03*
X-43000Y72500D02*
D03*
X-49000Y1000D02*
D03*
X-44500Y9500D02*
D03*
X-36500Y6500D02*
D03*
X37000Y14500D02*
D03*
X31000Y19000D02*
D03*
X20500Y28000D02*
D03*
X16000Y31000D02*
D03*
X-82000Y114000D02*
D03*
X-80500Y101500D02*
D03*
X-81000Y97500D02*
D03*
X-89500Y97000D02*
D03*
X-97500Y102500D02*
D03*
X-103000Y104500D02*
D03*
X-101000Y99500D02*
D03*
X-99500Y91000D02*
D03*
X-100000Y82500D02*
D03*
X-102000Y85500D02*
D03*
X-85500Y80000D02*
D03*
X139000Y11500D02*
D03*
X134500Y1500D02*
D03*
X120000Y-28000D02*
D03*
X110500Y-26500D02*
D03*
X110000Y-32500D02*
D03*
X116500Y-34500D02*
D03*
X120000Y-39000D02*
D03*
X124500Y-36000D02*
D03*
X127000Y-31500D02*
D03*
X125500Y-26500D02*
D03*
X124500Y-20000D02*
D03*
X126000Y-13500D02*
D03*
X131500Y-14000D02*
D03*
X138500D02*
D03*
X144000Y-16500D02*
D03*
X138000Y-35000D02*
D03*
X135000Y-38500D02*
D03*
X132500Y-42500D02*
D03*
X134000Y-46500D02*
D03*
X132000Y-50500D02*
D03*
X129000Y-54000D02*
D03*
X125000Y-56000D02*
D03*
X123000Y-60000D02*
D03*
X124000Y-64000D02*
D03*
X125984Y-66929D02*
D03*
X79500Y-34200D02*
D03*
X82300Y-26700D02*
D03*
X82800Y-24800D02*
D03*
X73100Y-13600D02*
D03*
X75000Y-10200D02*
D03*
X76200Y-7900D02*
D03*
X80700Y-3600D02*
D03*
X33100Y-5300D02*
D03*
X31500Y-11200D02*
D03*
X30600Y-15100D02*
D03*
X35600Y-30600D02*
D03*
X113100Y-5100D02*
D03*
X107600Y24300D02*
D03*
X83400Y11300D02*
D03*
X93700Y50300D02*
D03*
X89200Y55900D02*
D03*
X93500Y58600D02*
D03*
X70300Y34300D02*
D03*
X7000Y107500D02*
D03*
X39900Y95400D02*
D03*
X70500Y76300D02*
D03*
X34800Y104600D02*
D03*
X68100Y86100D02*
D03*
X65600Y80800D02*
D03*
X50400Y56600D02*
D03*
X26400Y71800D02*
D03*
X33000Y98700D02*
D03*
X-1000Y80600D02*
D03*
X-700Y114000D02*
D03*
X-1800Y108500D02*
D03*
X-29800Y81500D02*
D03*
X-29200Y108200D02*
D03*
X-65200Y112200D02*
D03*
X-34000Y122500D02*
D03*
X-63000Y93900D02*
D03*
X-67500Y56600D02*
D03*
X-65200Y59700D02*
D03*
X-60800Y63400D02*
D03*
X-9800Y32900D02*
D03*
X-8300Y43300D02*
D03*
X-900Y33400D02*
D03*
Y43100D02*
D03*
X-33400Y13600D02*
D03*
X-28100Y19600D02*
D03*
X-27000Y21500D02*
D03*
X-12100Y37300D02*
D03*
X-17200Y40100D02*
D03*
X-15900Y44100D02*
D03*
X-16100Y46700D02*
D03*
X-16800Y49200D02*
D03*
X5500Y37100D02*
D03*
X-26000Y-25100D02*
D03*
X-75538Y-21717D02*
D03*
X-53800Y-24900D02*
D03*
X-60000Y-80700D02*
D03*
X-52400Y-85400D02*
D03*
X-26900Y-98000D02*
D03*
X-22600Y-53100D02*
D03*
X12900Y-71200D02*
D03*
X124100Y-5400D02*
D03*
X72000Y10300D02*
D03*
X65700Y31600D02*
D03*
X47000Y51900D02*
D03*
X24000Y66400D02*
D03*
X-2700Y74300D02*
D03*
X-27000Y74200D02*
D03*
X-124505Y77805D02*
D03*
X-77900Y88400D02*
D03*
X-135400Y-24700D02*
D03*
X-129300Y67600D02*
D03*
X50400Y-124000D02*
D03*
X108695Y15780D02*
D03*
X86100Y-93000D02*
D03*
X89300Y-95000D02*
D03*
X81700Y-93600D02*
D03*
X-34000Y-72600D02*
D03*
X-34500Y-66800D02*
D03*
X-34000Y-61900D02*
D03*
X86200Y-99300D02*
D03*
X86185Y-96500D02*
D03*
X82200Y-96900D02*
D03*
X81400Y-50700D02*
D03*
X84400Y-50300D02*
D03*
X-50800Y-71900D02*
D03*
X-50700Y-64900D02*
D03*
X-45900Y-50800D02*
D03*
X-79720Y117620D02*
D03*
X-116701Y35495D02*
D03*
X-118613Y32713D02*
D03*
X-115769Y-35431D02*
D03*
X-133065Y47197D02*
D03*
X-136614Y53100D02*
D03*
X-137500Y49400D02*
D03*
X-121600Y33600D02*
D03*
X-14000Y-50800D02*
D03*
X-119700Y25900D02*
D03*
X46124Y-6200D02*
D03*
Y-9500D02*
D03*
X5300Y-49600D02*
D03*
X-119200Y29600D02*
D03*
X-122600Y36800D02*
D03*
X45500Y-63500D02*
D03*
X9100Y-63300D02*
D03*
X10700Y-90200D02*
D03*
X6600Y-101300D02*
D03*
X56500Y-73100D02*
D03*
X7200Y-105500D02*
D03*
X-33100Y-87600D02*
D03*
X94929Y-97697D02*
D03*
X97185Y-99159D02*
D03*
X-35800Y-79000D02*
D03*
X-58300Y-23800D02*
D03*
X-17500Y-59200D02*
D03*
X38000Y-63500D02*
D03*
X18712Y-143338D02*
D03*
X19100Y-140500D02*
D03*
X16650D02*
D03*
X102500Y-103500D02*
D03*
X104100Y-99300D02*
D03*
X105922Y-100818D02*
D03*
X107900Y-98400D02*
D03*
X109800Y-96800D02*
D03*
X111600Y-95100D02*
D03*
X113386Y-92900D02*
D03*
X113600Y-90000D02*
D03*
X-134400Y57850D02*
D03*
X-134747Y49393D02*
D03*
X-132600Y50400D02*
D03*
X36300Y-116600D02*
D03*
X-20900Y-47800D02*
D03*
X88371Y-61827D02*
D03*
X72400Y-60200D02*
D03*
X104400Y-63800D02*
D03*
X101900Y-61600D02*
D03*
X88300Y-50700D02*
D03*
X78500Y-51700D02*
D03*
X114200Y-86500D02*
D03*
X-14900Y-104400D02*
D03*
X-100914Y37700D02*
D03*
X-98300Y35900D02*
D03*
X-94728Y36500D02*
D03*
X-88500Y-60900D02*
D03*
X-61500Y-88400D02*
D03*
X-82800Y-20500D02*
D03*
X-84563Y10837D02*
D03*
X-79800Y-20000D02*
D03*
X-94387Y41713D02*
D03*
X-90686Y23464D02*
D03*
X-87413Y20287D02*
D03*
X-83700Y36900D02*
D03*
X-81440Y30860D02*
D03*
X-81000Y41500D02*
D03*
Y15500D02*
D03*
X-76400Y-9700D02*
D03*
X-98400Y40400D02*
D03*
X-94700Y44800D02*
D03*
X-97000Y52700D02*
D03*
X-69400Y2100D02*
D03*
X-94500Y47500D02*
D03*
X-98067Y59126D02*
D03*
X-73365Y-9781D02*
D03*
X-77425Y9145D02*
D03*
X-100200Y-40200D02*
D03*
X-97334Y55591D02*
D03*
X-122700Y73200D02*
D03*
X-118700Y72700D02*
D03*
X-116891Y70765D02*
D03*
X-126600Y72700D02*
D03*
X-68800Y34200D02*
D03*
X-66400Y41100D02*
D03*
X-60900Y25400D02*
D03*
X-58500Y2900D02*
D03*
X-55300Y5700D02*
D03*
X-124700Y70900D02*
D03*
X-120700Y71100D02*
D03*
X79874Y-77390D02*
D03*
X-106646Y57863D02*
D03*
X-106646Y51537D02*
D03*
X-112637Y63854D02*
D03*
Y57863D02*
D03*
Y51537D02*
D03*
Y45546D02*
D03*
X-118963Y63854D02*
D03*
X-118963Y57863D02*
D03*
X-118963Y51537D02*
D03*
X-118963Y45546D02*
D03*
X-124954Y57863D02*
D03*
X-124953Y51537D02*
D03*
X-99434Y67039D02*
D03*
X-108581Y37391D02*
D03*
X-105953Y38057D02*
D03*
X-115915Y-28249D02*
D03*
X-112434Y15439D02*
D03*
X-106534Y15339D02*
D03*
X113777Y-83314D02*
D03*
X84800Y-118800D02*
D03*
X80000Y-115800D02*
D03*
X82100Y-66100D02*
D03*
X73300Y-57600D02*
D03*
X44800Y-57200D02*
D03*
X38600Y-56000D02*
D03*
X33800Y-55000D02*
D03*
X-41600Y99100D02*
D03*
X-20800Y51400D02*
D03*
X51200Y10200D02*
D03*
X48800Y9600D02*
D03*
X55700Y10000D02*
D03*
X59800Y9200D02*
D03*
X57000Y6500D02*
D03*
X64500Y5000D02*
D03*
X60800Y6000D02*
D03*
X63700Y9200D02*
D03*
X91800Y11800D02*
D03*
X-38300Y77500D02*
D03*
X-33000Y48700D02*
D03*
X-28600Y70700D02*
D03*
X-34700Y62500D02*
D03*
X-14400Y65200D02*
D03*
X-30200Y61900D02*
D03*
X-26700Y58600D02*
D03*
X-20400Y61600D02*
D03*
X-23500Y53500D02*
D03*
X-14700Y54800D02*
D03*
X-58200Y23600D02*
D03*
X-35900Y48800D02*
D03*
X-39600Y45100D02*
D03*
X-43400Y41200D02*
D03*
X-47300Y37400D02*
D03*
X-65200Y29600D02*
D03*
X-62600Y27300D02*
D03*
X-55900Y20500D02*
D03*
X-51000Y16000D02*
D03*
X-42700Y20100D02*
D03*
X-45000Y18200D02*
D03*
X-47100Y16800D02*
D03*
X-32300Y29500D02*
D03*
X-34800Y24500D02*
D03*
X-36622Y22982D02*
D03*
X-63500Y43700D02*
D03*
X-60700Y46900D02*
D03*
X-57700Y49300D02*
D03*
X-50800Y59000D02*
D03*
X-45800Y56000D02*
D03*
X-47700Y54100D02*
D03*
X-49800Y51900D02*
D03*
X-56200Y67400D02*
D03*
X61100Y-5200D02*
D03*
X56600Y-20700D02*
D03*
X63600Y-4500D02*
D03*
X57900Y-15600D02*
D03*
X59400Y-10200D02*
D03*
X53800Y-38900D02*
D03*
X67100Y-39000D02*
D03*
X64300Y-41600D02*
D03*
X67700Y-33100D02*
D03*
X66200Y-36700D02*
D03*
X74300Y-20500D02*
D03*
X73781Y-28574D02*
D03*
X73221Y-25321D02*
D03*
X38100Y-27300D02*
D03*
X39200Y-23400D02*
D03*
X40200Y-19600D02*
D03*
X40900Y-15700D02*
D03*
X46124Y-2900D02*
D03*
X42200Y-3800D02*
D03*
X35600Y-33800D02*
D03*
X45300Y-36700D02*
D03*
X48500Y-37500D02*
D03*
X51000Y-38400D02*
D03*
X56700Y-39600D02*
D03*
X34200Y-1000D02*
D03*
X-106629Y-46076D02*
D03*
X-120359Y-48696D02*
D03*
X-123310Y-65504D02*
D03*
X-125676Y-64870D02*
D03*
X-128043Y-64236D02*
D03*
X-126407Y-37654D02*
D03*
X-122060Y-38819D02*
D03*
X-124233Y-38236D02*
D03*
X12550Y-121400D02*
D03*
X14800D02*
D03*
X10300D02*
D03*
X19000Y-130500D02*
D03*
X31583Y-124416D02*
D03*
X18000Y-109600D02*
D03*
X20000Y-116500D02*
D03*
X53000Y8000D02*
D03*
X117814Y-76429D02*
D03*
X53843Y-101329D02*
D03*
D239*
X-108231Y-37604D02*
D03*
X-107518Y-34942D02*
D03*
X-108944Y-40266D02*
D03*
X27843Y-119403D02*
D03*
Y-113891D02*
D03*
X27843Y-116647D02*
D03*
D240*
X-46270Y20839D02*
D03*
D241*
X-55558Y32647D02*
D03*
D242*
X-41620Y42987D02*
D03*
D243*
X-44635Y54335D02*
D03*
D244*
X58673Y-12886D02*
D03*
D245*
X51773Y-28810D02*
D03*
D246*
X65595Y-34716D02*
D03*
D247*
X49089Y-4559D02*
D03*
M02*
