G04*
G04 #@! TF.GenerationSoftware,Altium Limited,Altium Designer,21.1.1 (26)*
G04*
G04 Layer_Color=2752767*
%FSLAX25Y25*%
%MOIN*%
G70*
G04*
G04 #@! TF.SameCoordinates,17976419-CA03-4588-AA61-DF666B6FC11C*
G04*
G04*
G04 #@! TF.FilePolarity,Positive*
G04*
G01*
G75*
%ADD10C,0.00500*%
%ADD11C,0.00200*%
%ADD12C,0.00267*%
D10*
X173228Y0D02*
G03*
X173228Y0I-173228J0D01*
G01*
X-73819Y-139792D02*
G03*
X-73819Y-139792I-6890J0D01*
G01*
Y139792D02*
G03*
X-73819Y139792I-6890J0D01*
G01*
X168307Y0D02*
G03*
X168307Y0I-6890J0D01*
G01*
X29528D02*
G03*
X29528Y0I-29528J0D01*
G01*
D11*
X21903Y-82500D02*
Y-80900D01*
X23503D01*
Y-82500D01*
X21903D01*
X21903Y-72500D02*
Y-70900D01*
X23503D01*
Y-72500D01*
X21903D01*
X-102363Y6342D02*
Y7942D01*
X-100763D01*
Y6342D01*
X-102363D01*
X-104951Y-3317D02*
Y-1717D01*
X-103351D01*
Y-3317D01*
X-104951D01*
X-107928Y-14425D02*
Y-12825D01*
X-106327D01*
Y-14425D01*
X-107928D01*
X-98268Y-17013D02*
Y-15413D01*
X-96668D01*
Y-17013D01*
X-98268D01*
X31165Y126812D02*
Y128412D01*
X32765D01*
Y126812D01*
X31165D01*
X21506Y129400D02*
Y131000D01*
X23106D01*
Y129400D01*
X21506D01*
X69796Y108279D02*
Y109879D01*
X71396D01*
Y108279D01*
X69796D01*
X61136Y113279D02*
Y114879D01*
X62735D01*
Y113279D01*
X61136D01*
X102366Y80543D02*
Y82143D01*
X103966D01*
Y80543D01*
X102366D01*
X95295Y87614D02*
Y89214D01*
X96895D01*
Y87614D01*
X95295D01*
X126713Y44831D02*
Y46431D01*
X128313D01*
Y44831D01*
X126713D01*
X121713Y53491D02*
Y55092D01*
X123313D01*
Y53491D01*
X121713D01*
X135792Y27102D02*
Y28702D01*
X137392D01*
Y27102D01*
X135792D01*
X127132Y22102D02*
Y23702D01*
X128732D01*
Y22102D01*
X127132D01*
X-49994Y103646D02*
Y105246D01*
X-48394D01*
Y103646D01*
X-49994D01*
X-59994Y103647D02*
Y105246D01*
X-58394D01*
Y103647D01*
X-59994D01*
X-20500Y134700D02*
Y136300D01*
X-18900D01*
Y134700D01*
X-20500D01*
X-10500Y134700D02*
Y136300D01*
X-8900D01*
Y134700D01*
X-10500D01*
X-36314Y-128986D02*
X-37114Y-127386D01*
X-35514D01*
X-36314Y-128986D01*
X-46314D02*
X-47114Y-127386D01*
X-45514D01*
X-46314Y-128986D01*
X-56314D02*
X-57114Y-127386D01*
X-55514D01*
X-56314Y-128986D01*
X31903Y-94000D02*
Y-92400D01*
X33503D01*
Y-94000D01*
X31903D01*
X21903Y-94000D02*
Y-92400D01*
X23503D01*
Y-94000D01*
X21903D01*
X-51479Y127237D02*
X-51079Y127637D01*
X-50679D01*
X-51079Y128037D01*
X-50679Y128437D01*
X-51079D01*
X-51479Y128837D01*
X-51879Y128437D01*
X-52279D01*
X-51879Y128037D01*
X-52279Y127637D01*
X-51879D01*
X-51479Y127237D01*
X-54048Y121372D02*
X-53648Y121772D01*
X-53248D01*
X-53648Y122172D01*
X-53248Y122572D01*
X-53648D01*
X-54048Y122972D01*
X-54448Y122572D01*
X-54848D01*
X-54448Y122172D01*
X-54848Y121772D01*
X-54448D01*
X-54048Y121372D01*
X-48891Y117577D02*
X-48491Y117977D01*
X-48091D01*
X-48491Y118377D01*
X-48091Y118777D01*
X-48491D01*
X-48891Y119177D01*
X-49291Y118777D01*
X-49691D01*
X-49291Y118377D01*
X-49691Y117977D01*
X-49291D01*
X-48891Y117577D01*
X99958Y-27176D02*
X100358Y-26776D01*
X100758D01*
X100358Y-26376D01*
X100758Y-25976D01*
X100358D01*
X99958Y-25576D01*
X99558Y-25976D01*
X99158D01*
X99558Y-26376D01*
X99158Y-26776D01*
X99558D01*
X99958Y-27176D01*
X95958Y-22176D02*
X96358Y-21776D01*
X96758D01*
X96358Y-21376D01*
X96758Y-20976D01*
X96358D01*
X95958Y-20576D01*
X95558Y-20976D01*
X95158D01*
X95558Y-21376D01*
X95158Y-21776D01*
X95558D01*
X95958Y-22176D01*
X99958Y-17176D02*
X100358Y-16776D01*
X100758D01*
X100358Y-16376D01*
X100758Y-15976D01*
X100358D01*
X99958Y-15576D01*
X99558Y-15976D01*
X99158D01*
X99558Y-16376D01*
X99158Y-16776D01*
X99558D01*
X99958Y-17176D01*
X-81053Y-64300D02*
X-81853Y-62700D01*
X-80253D01*
X-81053Y-64300D01*
X-71053Y-64300D02*
X-71853Y-62700D01*
X-70253D01*
X-71053Y-64300D01*
X-61053Y-64300D02*
X-61853Y-62700D01*
X-60253D01*
X-61053Y-64300D01*
X-69887Y-109524D02*
X-70687Y-107924D01*
X-69087D01*
X-69887Y-109524D01*
X-79887Y-109524D02*
X-80687Y-107924D01*
X-79087D01*
X-79887Y-109524D01*
X-89887Y-109524D02*
X-90687Y-107924D01*
X-89087D01*
X-89887Y-109524D01*
X62Y-98729D02*
X-738Y-97129D01*
X862D01*
X62Y-98729D01*
X-9938D02*
X-10738Y-97129D01*
X-9138D01*
X-9938Y-98729D01*
X-19938D02*
X-20738Y-97129D01*
X-19138D01*
X-19938Y-98729D01*
X-19910Y-143241D02*
X-20710Y-141641D01*
X-19110D01*
X-19910Y-143241D01*
X-9910Y-143241D02*
X-10710Y-141641D01*
X-9110D01*
X-9910Y-143241D01*
X90Y-143241D02*
X-710Y-141641D01*
X890D01*
X90Y-143241D01*
X-38300Y-20300D02*
Y-18700D01*
X-36700D01*
Y-20300D01*
X-38300D01*
X-38300Y-10300D02*
Y-8700D01*
X-36700D01*
Y-10300D01*
X-38300D01*
X-2295Y-37558D02*
Y-35958D01*
X-695D01*
Y-37558D01*
X-2295D01*
X-12295Y-37558D02*
Y-35958D01*
X-10695D01*
Y-37558D01*
X-12295D01*
X10205Y-37558D02*
Y-35958D01*
X11805D01*
Y-37558D01*
X10205D01*
X20205Y-37558D02*
Y-35958D01*
X21805D01*
Y-37558D01*
X20205D01*
X-112300Y90700D02*
X-111900Y91500D01*
X-112300Y92300D01*
X-111500Y91900D01*
X-110700Y92300D01*
X-111100Y91500D01*
X-110700Y90700D01*
X-111500Y91100D01*
X-112300Y90700D01*
X-111365Y80348D02*
X-110965Y81148D01*
X-111365Y81948D01*
X-110565Y81548D01*
X-109765Y81948D01*
X-110165Y81148D01*
X-109765Y80348D01*
X-110565Y80748D01*
X-111365Y80348D01*
X120200Y-63300D02*
X120600Y-62500D01*
X120200Y-61700D01*
X121000Y-62100D01*
X121800Y-61700D01*
X121400Y-62500D01*
X121800Y-63300D01*
X121000Y-62900D01*
X120200Y-63300D01*
X116200Y-55300D02*
X116600Y-54500D01*
X116200Y-53700D01*
X117000Y-54100D01*
X117800Y-53700D01*
X117400Y-54500D01*
X117800Y-55300D01*
X117000Y-54900D01*
X116200Y-55300D01*
X114200Y-59800D02*
X114600Y-59000D01*
X114200Y-58200D01*
X115000Y-58600D01*
X115800Y-58200D01*
X115400Y-59000D01*
X115800Y-59800D01*
X115000Y-59400D01*
X114200Y-59800D01*
X118200Y-50300D02*
X118600Y-49500D01*
X118200Y-48700D01*
X119000Y-49100D01*
X119800Y-48700D01*
X119400Y-49500D01*
X119800Y-50300D01*
X119000Y-49900D01*
X118200Y-50300D01*
X-135800Y1700D02*
X-135400Y2500D01*
X-135800Y3300D01*
X-135000Y2900D01*
X-134200Y3300D01*
X-134600Y2500D01*
X-134200Y1700D01*
X-135000Y2100D01*
X-135800Y1700D01*
X82200Y-39800D02*
X82600Y-39000D01*
X82200Y-38200D01*
X83000Y-38600D01*
X83800Y-38200D01*
X83400Y-39000D01*
X83800Y-39800D01*
X83000Y-39400D01*
X82200Y-39800D01*
X26200Y-27300D02*
X26600Y-26500D01*
X26200Y-25700D01*
X27000Y-26100D01*
X27800Y-25700D01*
X27400Y-26500D01*
X27800Y-27300D01*
X27000Y-26900D01*
X26200Y-27300D01*
X-38300Y-40800D02*
X-37900Y-40000D01*
X-38300Y-39200D01*
X-37500Y-39600D01*
X-36700Y-39200D01*
X-37100Y-40000D01*
X-36700Y-40800D01*
X-37500Y-40400D01*
X-38300Y-40800D01*
X-86800Y-94800D02*
X-86400Y-94000D01*
X-86800Y-93200D01*
X-86000Y-93600D01*
X-85200Y-93200D01*
X-85600Y-94000D01*
X-85200Y-94800D01*
X-86000Y-94400D01*
X-86800Y-94800D01*
X-77800Y-50300D02*
X-77400Y-49500D01*
X-77800Y-48700D01*
X-77000Y-49100D01*
X-76200Y-48700D01*
X-76600Y-49500D01*
X-76200Y-50300D01*
X-77000Y-49900D01*
X-77800Y-50300D01*
X-95300Y-50800D02*
X-94900Y-50000D01*
X-95300Y-49200D01*
X-94500Y-49600D01*
X-93700Y-49200D01*
X-94100Y-50000D01*
X-93700Y-50800D01*
X-94500Y-50400D01*
X-95300Y-50800D01*
X-93800Y-42300D02*
X-93400Y-41500D01*
X-93800Y-40700D01*
X-93000Y-41100D01*
X-92200Y-40700D01*
X-92600Y-41500D01*
X-92200Y-42300D01*
X-93000Y-41900D01*
X-93800Y-42300D01*
X-58094Y-12128D02*
X-57694Y-11328D01*
X-58094Y-10528D01*
X-57294Y-10928D01*
X-56494Y-10528D01*
X-56894Y-11328D01*
X-56494Y-12128D01*
X-57294Y-11728D01*
X-58094Y-12128D01*
X-72600Y38300D02*
X-72200Y39100D01*
X-72600Y39900D01*
X-71800Y39500D01*
X-71000Y39900D01*
X-71400Y39100D01*
X-71000Y38300D01*
X-71800Y38700D01*
X-72600Y38300D01*
X106126Y-82189D02*
X106527Y-81389D01*
X106126Y-80589D01*
X106927Y-80989D01*
X107727Y-80589D01*
X107326Y-81389D01*
X107727Y-82189D01*
X106927Y-81789D01*
X106126Y-82189D01*
X102963Y-87668D02*
X103363Y-86868D01*
X102963Y-86068D01*
X103763Y-86468D01*
X104563Y-86068D01*
X104163Y-86868D01*
X104563Y-87668D01*
X103763Y-87268D01*
X102963Y-87668D01*
X103934Y-74006D02*
X104334Y-73206D01*
X103934Y-72406D01*
X104734Y-72806D01*
X105534Y-72406D01*
X105134Y-73206D01*
X105534Y-74006D01*
X104734Y-73606D01*
X103934Y-74006D01*
X100939Y-79194D02*
X101339Y-78394D01*
X100939Y-77594D01*
X101739Y-77994D01*
X102539Y-77594D01*
X102139Y-78394D01*
X102539Y-79194D01*
X101739Y-78794D01*
X100939Y-79194D01*
X97776Y-84673D02*
X98176Y-83873D01*
X97776Y-83073D01*
X98576Y-83473D01*
X99376Y-83073D01*
X98976Y-83873D01*
X99376Y-84673D01*
X98576Y-84273D01*
X97776Y-84673D01*
X94780Y-89861D02*
X95180Y-89061D01*
X94780Y-88261D01*
X95580Y-88661D01*
X96380Y-88261D01*
X95980Y-89061D01*
X96380Y-89861D01*
X95580Y-89461D01*
X94780Y-89861D01*
X98455Y-70843D02*
X98855Y-70043D01*
X98455Y-69243D01*
X99255Y-69643D01*
X100055Y-69243D01*
X99655Y-70043D01*
X100055Y-70843D01*
X99255Y-70443D01*
X98455Y-70843D01*
X95460Y-76030D02*
X95860Y-75230D01*
X95460Y-74431D01*
X96260Y-74831D01*
X97060Y-74431D01*
X96660Y-75230D01*
X97060Y-76030D01*
X96260Y-75630D01*
X95460Y-76030D01*
X92296Y-81510D02*
X92696Y-80710D01*
X92296Y-79910D01*
X93096Y-80310D01*
X93896Y-79910D01*
X93496Y-80710D01*
X93896Y-81510D01*
X93096Y-81110D01*
X92296Y-81510D01*
X89301Y-86697D02*
X89701Y-85897D01*
X89301Y-85097D01*
X90101Y-85497D01*
X90901Y-85097D01*
X90501Y-85897D01*
X90901Y-86697D01*
X90101Y-86297D01*
X89301Y-86697D01*
X90272Y-73035D02*
X90672Y-72235D01*
X90272Y-71435D01*
X91072Y-71835D01*
X91872Y-71435D01*
X91472Y-72235D01*
X91872Y-73035D01*
X91072Y-72635D01*
X90272Y-73035D01*
X87109Y-78514D02*
X87509Y-77715D01*
X87109Y-76915D01*
X87909Y-77315D01*
X88709Y-76915D01*
X88309Y-77715D01*
X88709Y-78514D01*
X87909Y-78114D01*
X87109Y-78514D01*
X-108631Y-38004D02*
Y-38404D01*
X-107831D01*
Y-38004D01*
X-107431D01*
Y-37204D01*
X-107831D01*
Y-36804D01*
X-108631D01*
Y-37204D01*
X-109031D01*
Y-38004D01*
X-108631D01*
X-107918Y-35342D02*
Y-35742D01*
X-107118D01*
Y-35342D01*
X-106718D01*
Y-34542D01*
X-107118D01*
Y-34142D01*
X-107918D01*
Y-34542D01*
X-108318D01*
Y-35342D01*
X-107918D01*
X-109344Y-40666D02*
Y-41066D01*
X-108545D01*
Y-40666D01*
X-108144D01*
Y-39866D01*
X-108545D01*
Y-39466D01*
X-109344D01*
Y-39866D01*
X-109745D01*
Y-40666D01*
X-109344D01*
X113200Y26700D02*
X113600Y27500D01*
X113200Y28300D01*
X114000Y27900D01*
X114800Y28300D01*
X114400Y27500D01*
X114800Y26700D01*
X114000Y27100D01*
X113200Y26700D01*
X55200Y-66800D02*
X55600Y-66000D01*
X55200Y-65200D01*
X56000Y-65600D01*
X56800Y-65200D01*
X56400Y-66000D01*
X56800Y-66800D01*
X56000Y-66400D01*
X55200Y-66800D01*
X66200Y-88300D02*
X66600Y-87500D01*
X66200Y-86700D01*
X67000Y-87100D01*
X67800Y-86700D01*
X67400Y-87500D01*
X67800Y-88300D01*
X67000Y-87900D01*
X66200Y-88300D01*
X50200Y-131800D02*
X50600Y-131000D01*
X50200Y-130200D01*
X51000Y-130600D01*
X51800Y-130200D01*
X51400Y-131000D01*
X51800Y-131800D01*
X51000Y-131400D01*
X50200Y-131800D01*
X58200Y-130800D02*
X58600Y-130000D01*
X58200Y-129200D01*
X59000Y-129600D01*
X59800Y-129200D01*
X59400Y-130000D01*
X59800Y-130800D01*
X59000Y-130400D01*
X58200Y-130800D01*
X53700Y-129800D02*
X54100Y-129000D01*
X53700Y-128200D01*
X54500Y-128600D01*
X55300Y-128200D01*
X54900Y-129000D01*
X55300Y-129800D01*
X54500Y-129400D01*
X53700Y-129800D01*
X-101800Y-89800D02*
X-101400Y-89000D01*
X-101800Y-88200D01*
X-101000Y-88600D01*
X-100200Y-88200D01*
X-100600Y-89000D01*
X-100200Y-89800D01*
X-101000Y-89400D01*
X-101800Y-89800D01*
X-102800Y-84800D02*
X-102400Y-84000D01*
X-102800Y-83200D01*
X-102000Y-83600D01*
X-101200Y-83200D01*
X-101600Y-84000D01*
X-101200Y-84800D01*
X-102000Y-84400D01*
X-102800Y-84800D01*
X-70300Y-119300D02*
X-69900Y-118500D01*
X-70300Y-117700D01*
X-69500Y-118100D01*
X-68700Y-117700D01*
X-69100Y-118500D01*
X-68700Y-119300D01*
X-69500Y-118900D01*
X-70300Y-119300D01*
X-33300Y-138300D02*
X-32900Y-137500D01*
X-33300Y-136700D01*
X-32500Y-137100D01*
X-31700Y-136700D01*
X-32100Y-137500D01*
X-31700Y-138300D01*
X-32500Y-137900D01*
X-33300Y-138300D01*
X31700Y10700D02*
X32100Y11500D01*
X31700Y12300D01*
X32500Y11900D01*
X33300Y12300D01*
X32900Y11500D01*
X33300Y10700D01*
X32500Y11100D01*
X31700Y10700D01*
X41200D02*
X41600Y11500D01*
X41200Y12300D01*
X42000Y11900D01*
X42800Y12300D01*
X42400Y11500D01*
X42800Y10700D01*
X42000Y11100D01*
X41200Y10700D01*
X72200Y-44800D02*
X72600Y-44000D01*
X72200Y-43200D01*
X73000Y-43600D01*
X73800Y-43200D01*
X73400Y-44000D01*
X73800Y-44800D01*
X73000Y-44400D01*
X72200Y-44800D01*
X-120300Y-7800D02*
X-119900Y-7000D01*
X-120300Y-6200D01*
X-119500Y-6600D01*
X-118700Y-6200D01*
X-119100Y-7000D01*
X-118700Y-7800D01*
X-119500Y-7400D01*
X-120300Y-7800D01*
X-129800Y-26300D02*
X-129400Y-25500D01*
X-129800Y-24700D01*
X-129000Y-25100D01*
X-128200Y-24700D01*
X-128600Y-25500D01*
X-128200Y-26300D01*
X-129000Y-25900D01*
X-129800Y-26300D01*
X-134800Y-42300D02*
X-134400Y-41500D01*
X-134800Y-40700D01*
X-134000Y-41100D01*
X-133200Y-40700D01*
X-133600Y-41500D01*
X-133200Y-42300D01*
X-134000Y-41900D01*
X-134800Y-42300D01*
X-129300Y-56300D02*
X-128900Y-55500D01*
X-129300Y-54700D01*
X-128500Y-55100D01*
X-127700Y-54700D01*
X-128100Y-55500D01*
X-127700Y-56300D01*
X-128500Y-55900D01*
X-129300Y-56300D01*
X-88800Y88200D02*
X-88400Y89000D01*
X-88800Y89800D01*
X-88000Y89400D01*
X-87200Y89800D01*
X-87600Y89000D01*
X-87200Y88200D01*
X-88000Y88600D01*
X-88800Y88200D01*
X-66800Y66700D02*
X-66400Y67500D01*
X-66800Y68300D01*
X-66000Y67900D01*
X-65200Y68300D01*
X-65600Y67500D01*
X-65200Y66700D01*
X-66000Y67100D01*
X-66800Y66700D01*
X-65800Y74700D02*
X-65400Y75500D01*
X-65800Y76300D01*
X-65000Y75900D01*
X-64200Y76300D01*
X-64600Y75500D01*
X-64200Y74700D01*
X-65000Y75100D01*
X-65800Y74700D01*
X-57800Y75200D02*
X-57400Y76000D01*
X-57800Y76800D01*
X-57000Y76400D01*
X-56200Y76800D01*
X-56600Y76000D01*
X-56200Y75200D01*
X-57000Y75600D01*
X-57800Y75200D01*
X-52800D02*
X-52400Y76000D01*
X-52800Y76800D01*
X-52000Y76400D01*
X-51200Y76800D01*
X-51600Y76000D01*
X-51200Y75200D01*
X-52000Y75600D01*
X-52800Y75200D01*
X-48300Y76200D02*
X-47900Y77000D01*
X-48300Y77800D01*
X-47500Y77400D01*
X-46700Y77800D01*
X-47100Y77000D01*
X-46700Y76200D01*
X-47500Y76600D01*
X-48300Y76200D01*
X-43800Y71700D02*
X-43400Y72500D01*
X-43800Y73300D01*
X-43000Y72900D01*
X-42200Y73300D01*
X-42600Y72500D01*
X-42200Y71700D01*
X-43000Y72100D01*
X-43800Y71700D01*
X-49800Y200D02*
X-49400Y1000D01*
X-49800Y1800D01*
X-49000Y1400D01*
X-48200Y1800D01*
X-48600Y1000D01*
X-48200Y200D01*
X-49000Y600D01*
X-49800Y200D01*
X-45300Y8700D02*
X-44900Y9500D01*
X-45300Y10300D01*
X-44500Y9900D01*
X-43700Y10300D01*
X-44100Y9500D01*
X-43700Y8700D01*
X-44500Y9100D01*
X-45300Y8700D01*
X-37300Y5700D02*
X-36900Y6500D01*
X-37300Y7300D01*
X-36500Y6900D01*
X-35700Y7300D01*
X-36100Y6500D01*
X-35700Y5700D01*
X-36500Y6100D01*
X-37300Y5700D01*
X36200Y13700D02*
X36600Y14500D01*
X36200Y15300D01*
X37000Y14900D01*
X37800Y15300D01*
X37400Y14500D01*
X37800Y13700D01*
X37000Y14100D01*
X36200Y13700D01*
X30200Y18200D02*
X30600Y19000D01*
X30200Y19800D01*
X31000Y19400D01*
X31800Y19800D01*
X31400Y19000D01*
X31800Y18200D01*
X31000Y18600D01*
X30200Y18200D01*
X19700Y27200D02*
X20100Y28000D01*
X19700Y28800D01*
X20500Y28400D01*
X21300Y28800D01*
X20900Y28000D01*
X21300Y27200D01*
X20500Y27600D01*
X19700Y27200D01*
X15200Y30200D02*
X15600Y31000D01*
X15200Y31800D01*
X16000Y31400D01*
X16800Y31800D01*
X16400Y31000D01*
X16800Y30200D01*
X16000Y30600D01*
X15200Y30200D01*
X-82800Y113200D02*
X-82400Y114000D01*
X-82800Y114800D01*
X-82000Y114400D01*
X-81200Y114800D01*
X-81600Y114000D01*
X-81200Y113200D01*
X-82000Y113600D01*
X-82800Y113200D01*
X-81300Y100700D02*
X-80900Y101500D01*
X-81300Y102300D01*
X-80500Y101900D01*
X-79700Y102300D01*
X-80100Y101500D01*
X-79700Y100700D01*
X-80500Y101100D01*
X-81300Y100700D01*
X-81800Y96700D02*
X-81400Y97500D01*
X-81800Y98300D01*
X-81000Y97900D01*
X-80200Y98300D01*
X-80600Y97500D01*
X-80200Y96700D01*
X-81000Y97100D01*
X-81800Y96700D01*
X-90300Y96200D02*
X-89900Y97000D01*
X-90300Y97800D01*
X-89500Y97400D01*
X-88700Y97800D01*
X-89100Y97000D01*
X-88700Y96200D01*
X-89500Y96600D01*
X-90300Y96200D01*
X-98300Y101700D02*
X-97900Y102500D01*
X-98300Y103300D01*
X-97500Y102900D01*
X-96700Y103300D01*
X-97100Y102500D01*
X-96700Y101700D01*
X-97500Y102100D01*
X-98300Y101700D01*
X-103800Y103700D02*
X-103400Y104500D01*
X-103800Y105300D01*
X-103000Y104900D01*
X-102200Y105300D01*
X-102600Y104500D01*
X-102200Y103700D01*
X-103000Y104100D01*
X-103800Y103700D01*
X-101800Y98700D02*
X-101400Y99500D01*
X-101800Y100300D01*
X-101000Y99900D01*
X-100200Y100300D01*
X-100600Y99500D01*
X-100200Y98700D01*
X-101000Y99100D01*
X-101800Y98700D01*
X-100300Y90200D02*
X-99900Y91000D01*
X-100300Y91800D01*
X-99500Y91400D01*
X-98700Y91800D01*
X-99100Y91000D01*
X-98700Y90200D01*
X-99500Y90600D01*
X-100300Y90200D01*
X-100800Y81700D02*
X-100400Y82500D01*
X-100800Y83300D01*
X-100000Y82900D01*
X-99200Y83300D01*
X-99600Y82500D01*
X-99200Y81700D01*
X-100000Y82100D01*
X-100800Y81700D01*
X-102800Y84700D02*
X-102400Y85500D01*
X-102800Y86300D01*
X-102000Y85900D01*
X-101200Y86300D01*
X-101600Y85500D01*
X-101200Y84700D01*
X-102000Y85100D01*
X-102800Y84700D01*
X-86300Y79200D02*
X-85900Y80000D01*
X-86300Y80800D01*
X-85500Y80400D01*
X-84700Y80800D01*
X-85100Y80000D01*
X-84700Y79200D01*
X-85500Y79600D01*
X-86300Y79200D01*
X138200Y10700D02*
X138600Y11500D01*
X138200Y12300D01*
X139000Y11900D01*
X139800Y12300D01*
X139400Y11500D01*
X139800Y10700D01*
X139000Y11100D01*
X138200Y10700D01*
X133700Y700D02*
X134100Y1500D01*
X133700Y2300D01*
X134500Y1900D01*
X135300Y2300D01*
X134900Y1500D01*
X135300Y700D01*
X134500Y1100D01*
X133700Y700D01*
X119200Y-28800D02*
X119600Y-28000D01*
X119200Y-27200D01*
X120000Y-27600D01*
X120800Y-27200D01*
X120400Y-28000D01*
X120800Y-28800D01*
X120000Y-28400D01*
X119200Y-28800D01*
X109700Y-27300D02*
X110100Y-26500D01*
X109700Y-25700D01*
X110500Y-26100D01*
X111300Y-25700D01*
X110900Y-26500D01*
X111300Y-27300D01*
X110500Y-26900D01*
X109700Y-27300D01*
X109200Y-33300D02*
X109600Y-32500D01*
X109200Y-31700D01*
X110000Y-32100D01*
X110800Y-31700D01*
X110400Y-32500D01*
X110800Y-33300D01*
X110000Y-32900D01*
X109200Y-33300D01*
X115700Y-35300D02*
X116100Y-34500D01*
X115700Y-33700D01*
X116500Y-34100D01*
X117300Y-33700D01*
X116900Y-34500D01*
X117300Y-35300D01*
X116500Y-34900D01*
X115700Y-35300D01*
X119200Y-39800D02*
X119600Y-39000D01*
X119200Y-38200D01*
X120000Y-38600D01*
X120800Y-38200D01*
X120400Y-39000D01*
X120800Y-39800D01*
X120000Y-39400D01*
X119200Y-39800D01*
X123700Y-36800D02*
X124100Y-36000D01*
X123700Y-35200D01*
X124500Y-35600D01*
X125300Y-35200D01*
X124900Y-36000D01*
X125300Y-36800D01*
X124500Y-36400D01*
X123700Y-36800D01*
X126200Y-32300D02*
X126600Y-31500D01*
X126200Y-30700D01*
X127000Y-31100D01*
X127800Y-30700D01*
X127400Y-31500D01*
X127800Y-32300D01*
X127000Y-31900D01*
X126200Y-32300D01*
X124700Y-27300D02*
X125100Y-26500D01*
X124700Y-25700D01*
X125500Y-26100D01*
X126300Y-25700D01*
X125900Y-26500D01*
X126300Y-27300D01*
X125500Y-26900D01*
X124700Y-27300D01*
X123700Y-20800D02*
X124100Y-20000D01*
X123700Y-19200D01*
X124500Y-19600D01*
X125300Y-19200D01*
X124900Y-20000D01*
X125300Y-20800D01*
X124500Y-20400D01*
X123700Y-20800D01*
X125200Y-14300D02*
X125600Y-13500D01*
X125200Y-12700D01*
X126000Y-13100D01*
X126800Y-12700D01*
X126400Y-13500D01*
X126800Y-14300D01*
X126000Y-13900D01*
X125200Y-14300D01*
X130700Y-14800D02*
X131100Y-14000D01*
X130700Y-13200D01*
X131500Y-13600D01*
X132300Y-13200D01*
X131900Y-14000D01*
X132300Y-14800D01*
X131500Y-14400D01*
X130700Y-14800D01*
X137700D02*
X138100Y-14000D01*
X137700Y-13200D01*
X138500Y-13600D01*
X139300Y-13200D01*
X138900Y-14000D01*
X139300Y-14800D01*
X138500Y-14400D01*
X137700Y-14800D01*
X143200Y-17300D02*
X143600Y-16500D01*
X143200Y-15700D01*
X144000Y-16100D01*
X144800Y-15700D01*
X144400Y-16500D01*
X144800Y-17300D01*
X144000Y-16900D01*
X143200Y-17300D01*
X137200Y-35800D02*
X137600Y-35000D01*
X137200Y-34200D01*
X138000Y-34600D01*
X138800Y-34200D01*
X138400Y-35000D01*
X138800Y-35800D01*
X138000Y-35400D01*
X137200Y-35800D01*
X134200Y-39300D02*
X134600Y-38500D01*
X134200Y-37700D01*
X135000Y-38100D01*
X135800Y-37700D01*
X135400Y-38500D01*
X135800Y-39300D01*
X135000Y-38900D01*
X134200Y-39300D01*
X131700Y-43300D02*
X132100Y-42500D01*
X131700Y-41700D01*
X132500Y-42100D01*
X133300Y-41700D01*
X132900Y-42500D01*
X133300Y-43300D01*
X132500Y-42900D01*
X131700Y-43300D01*
X133200Y-47300D02*
X133600Y-46500D01*
X133200Y-45700D01*
X134000Y-46100D01*
X134800Y-45700D01*
X134400Y-46500D01*
X134800Y-47300D01*
X134000Y-46900D01*
X133200Y-47300D01*
X131200Y-51300D02*
X131600Y-50500D01*
X131200Y-49700D01*
X132000Y-50100D01*
X132800Y-49700D01*
X132400Y-50500D01*
X132800Y-51300D01*
X132000Y-50900D01*
X131200Y-51300D01*
X128200Y-54800D02*
X128600Y-54000D01*
X128200Y-53200D01*
X129000Y-53600D01*
X129800Y-53200D01*
X129400Y-54000D01*
X129800Y-54800D01*
X129000Y-54400D01*
X128200Y-54800D01*
X124200Y-56800D02*
X124600Y-56000D01*
X124200Y-55200D01*
X125000Y-55600D01*
X125800Y-55200D01*
X125400Y-56000D01*
X125800Y-56800D01*
X125000Y-56400D01*
X124200Y-56800D01*
X122200Y-60800D02*
X122600Y-60000D01*
X122200Y-59200D01*
X123000Y-59600D01*
X123800Y-59200D01*
X123400Y-60000D01*
X123800Y-60800D01*
X123000Y-60400D01*
X122200Y-60800D01*
X123200Y-64800D02*
X123600Y-64000D01*
X123200Y-63200D01*
X124000Y-63600D01*
X124800Y-63200D01*
X124400Y-64000D01*
X124800Y-64800D01*
X124000Y-64400D01*
X123200Y-64800D01*
X125184Y-67729D02*
X125584Y-66929D01*
X125184Y-66129D01*
X125984Y-66529D01*
X126784Y-66129D01*
X126384Y-66929D01*
X126784Y-67729D01*
X125984Y-67329D01*
X125184Y-67729D01*
X78700Y-35000D02*
X79100Y-34200D01*
X78700Y-33400D01*
X79500Y-33800D01*
X80300Y-33400D01*
X79900Y-34200D01*
X80300Y-35000D01*
X79500Y-34600D01*
X78700Y-35000D01*
X81500Y-27500D02*
X81900Y-26700D01*
X81500Y-25900D01*
X82300Y-26300D01*
X83100Y-25900D01*
X82700Y-26700D01*
X83100Y-27500D01*
X82300Y-27100D01*
X81500Y-27500D01*
X82000Y-25600D02*
X82400Y-24800D01*
X82000Y-24000D01*
X82800Y-24400D01*
X83600Y-24000D01*
X83200Y-24800D01*
X83600Y-25600D01*
X82800Y-25200D01*
X82000Y-25600D01*
X72300Y-14400D02*
X72700Y-13600D01*
X72300Y-12800D01*
X73100Y-13200D01*
X73900Y-12800D01*
X73500Y-13600D01*
X73900Y-14400D01*
X73100Y-14000D01*
X72300Y-14400D01*
X74200Y-11000D02*
X74600Y-10200D01*
X74200Y-9400D01*
X75000Y-9800D01*
X75800Y-9400D01*
X75400Y-10200D01*
X75800Y-11000D01*
X75000Y-10600D01*
X74200Y-11000D01*
X75400Y-8700D02*
X75800Y-7900D01*
X75400Y-7100D01*
X76200Y-7500D01*
X77000Y-7100D01*
X76600Y-7900D01*
X77000Y-8700D01*
X76200Y-8300D01*
X75400Y-8700D01*
X79900Y-4400D02*
X80300Y-3600D01*
X79900Y-2800D01*
X80700Y-3200D01*
X81500Y-2800D01*
X81100Y-3600D01*
X81500Y-4400D01*
X80700Y-4000D01*
X79900Y-4400D01*
X32300Y-6100D02*
X32700Y-5300D01*
X32300Y-4500D01*
X33100Y-4900D01*
X33900Y-4500D01*
X33500Y-5300D01*
X33900Y-6100D01*
X33100Y-5700D01*
X32300Y-6100D01*
X30700Y-12000D02*
X31100Y-11200D01*
X30700Y-10400D01*
X31500Y-10800D01*
X32300Y-10400D01*
X31900Y-11200D01*
X32300Y-12000D01*
X31500Y-11600D01*
X30700Y-12000D01*
X29800Y-15900D02*
X30200Y-15100D01*
X29800Y-14300D01*
X30600Y-14700D01*
X31400Y-14300D01*
X31000Y-15100D01*
X31400Y-15900D01*
X30600Y-15500D01*
X29800Y-15900D01*
X34800Y-31400D02*
X35200Y-30600D01*
X34800Y-29800D01*
X35600Y-30200D01*
X36400Y-29800D01*
X36000Y-30600D01*
X36400Y-31400D01*
X35600Y-31000D01*
X34800Y-31400D01*
X112300Y-5900D02*
X112700Y-5100D01*
X112300Y-4300D01*
X113100Y-4700D01*
X113900Y-4300D01*
X113500Y-5100D01*
X113900Y-5900D01*
X113100Y-5500D01*
X112300Y-5900D01*
X106800Y23500D02*
X107200Y24300D01*
X106800Y25100D01*
X107600Y24700D01*
X108400Y25100D01*
X108000Y24300D01*
X108400Y23500D01*
X107600Y23900D01*
X106800Y23500D01*
X82600Y10500D02*
X83000Y11300D01*
X82600Y12100D01*
X83400Y11700D01*
X84200Y12100D01*
X83800Y11300D01*
X84200Y10500D01*
X83400Y10900D01*
X82600Y10500D01*
X92900Y49500D02*
X93300Y50300D01*
X92900Y51100D01*
X93700Y50700D01*
X94500Y51100D01*
X94100Y50300D01*
X94500Y49500D01*
X93700Y49900D01*
X92900Y49500D01*
X88400Y55100D02*
X88800Y55900D01*
X88400Y56700D01*
X89200Y56300D01*
X90000Y56700D01*
X89600Y55900D01*
X90000Y55100D01*
X89200Y55500D01*
X88400Y55100D01*
X92700Y57800D02*
X93100Y58600D01*
X92700Y59400D01*
X93500Y59000D01*
X94300Y59400D01*
X93900Y58600D01*
X94300Y57800D01*
X93500Y58200D01*
X92700Y57800D01*
X69500Y33500D02*
X69900Y34300D01*
X69500Y35100D01*
X70300Y34700D01*
X71100Y35100D01*
X70700Y34300D01*
X71100Y33500D01*
X70300Y33900D01*
X69500Y33500D01*
X6200Y106700D02*
X6600Y107500D01*
X6200Y108300D01*
X7000Y107900D01*
X7800Y108300D01*
X7400Y107500D01*
X7800Y106700D01*
X7000Y107100D01*
X6200Y106700D01*
X39100Y94600D02*
X39500Y95400D01*
X39100Y96200D01*
X39900Y95800D01*
X40700Y96200D01*
X40300Y95400D01*
X40700Y94600D01*
X39900Y95000D01*
X39100Y94600D01*
X69700Y75500D02*
X70100Y76300D01*
X69700Y77100D01*
X70500Y76700D01*
X71300Y77100D01*
X70900Y76300D01*
X71300Y75500D01*
X70500Y75900D01*
X69700Y75500D01*
X34000Y103800D02*
X34400Y104600D01*
X34000Y105400D01*
X34800Y105000D01*
X35600Y105400D01*
X35200Y104600D01*
X35600Y103800D01*
X34800Y104200D01*
X34000Y103800D01*
X67300Y85300D02*
X67700Y86100D01*
X67300Y86900D01*
X68100Y86500D01*
X68900Y86900D01*
X68500Y86100D01*
X68900Y85300D01*
X68100Y85700D01*
X67300Y85300D01*
X64800Y80000D02*
X65200Y80800D01*
X64800Y81600D01*
X65600Y81200D01*
X66400Y81600D01*
X66000Y80800D01*
X66400Y80000D01*
X65600Y80400D01*
X64800Y80000D01*
X49600Y55800D02*
X50000Y56600D01*
X49600Y57400D01*
X50400Y57000D01*
X51200Y57400D01*
X50800Y56600D01*
X51200Y55800D01*
X50400Y56200D01*
X49600Y55800D01*
X25600Y71000D02*
X26000Y71800D01*
X25600Y72600D01*
X26400Y72200D01*
X27200Y72600D01*
X26800Y71800D01*
X27200Y71000D01*
X26400Y71400D01*
X25600Y71000D01*
X32200Y97900D02*
X32600Y98700D01*
X32200Y99500D01*
X33000Y99100D01*
X33800Y99500D01*
X33400Y98700D01*
X33800Y97900D01*
X33000Y98300D01*
X32200Y97900D01*
X-1800Y79800D02*
X-1400Y80600D01*
X-1800Y81400D01*
X-1000Y81000D01*
X-200Y81400D01*
X-600Y80600D01*
X-200Y79800D01*
X-1000Y80200D01*
X-1800Y79800D01*
X-1500Y113200D02*
X-1100Y114000D01*
X-1500Y114800D01*
X-700Y114400D01*
X100Y114800D01*
X-300Y114000D01*
X100Y113200D01*
X-700Y113600D01*
X-1500Y113200D01*
X-2600Y107700D02*
X-2200Y108500D01*
X-2600Y109300D01*
X-1800Y108900D01*
X-1000Y109300D01*
X-1400Y108500D01*
X-1000Y107700D01*
X-1800Y108100D01*
X-2600Y107700D01*
X-30600Y80700D02*
X-30200Y81500D01*
X-30600Y82300D01*
X-29800Y81900D01*
X-29000Y82300D01*
X-29400Y81500D01*
X-29000Y80700D01*
X-29800Y81100D01*
X-30600Y80700D01*
X-30000Y107400D02*
X-29600Y108200D01*
X-30000Y109000D01*
X-29200Y108600D01*
X-28400Y109000D01*
X-28800Y108200D01*
X-28400Y107400D01*
X-29200Y107800D01*
X-30000Y107400D01*
X-66000Y111400D02*
X-65600Y112200D01*
X-66000Y113000D01*
X-65200Y112600D01*
X-64400Y113000D01*
X-64800Y112200D01*
X-64400Y111400D01*
X-65200Y111800D01*
X-66000Y111400D01*
X-34800Y121700D02*
X-34400Y122500D01*
X-34800Y123300D01*
X-34000Y122900D01*
X-33200Y123300D01*
X-33600Y122500D01*
X-33200Y121700D01*
X-34000Y122100D01*
X-34800Y121700D01*
X-63800Y93100D02*
X-63400Y93900D01*
X-63800Y94700D01*
X-63000Y94300D01*
X-62200Y94700D01*
X-62600Y93900D01*
X-62200Y93100D01*
X-63000Y93500D01*
X-63800Y93100D01*
X-68300Y55800D02*
X-67900Y56600D01*
X-68300Y57400D01*
X-67500Y57000D01*
X-66700Y57400D01*
X-67100Y56600D01*
X-66700Y55800D01*
X-67500Y56200D01*
X-68300Y55800D01*
X-66000Y58900D02*
X-65600Y59700D01*
X-66000Y60500D01*
X-65200Y60100D01*
X-64400Y60500D01*
X-64800Y59700D01*
X-64400Y58900D01*
X-65200Y59300D01*
X-66000Y58900D01*
X-61600Y62600D02*
X-61200Y63400D01*
X-61600Y64200D01*
X-60800Y63800D01*
X-60000Y64200D01*
X-60400Y63400D01*
X-60000Y62600D01*
X-60800Y63000D01*
X-61600Y62600D01*
X-10600Y32100D02*
X-10200Y32900D01*
X-10600Y33700D01*
X-9800Y33300D01*
X-9000Y33700D01*
X-9400Y32900D01*
X-9000Y32100D01*
X-9800Y32500D01*
X-10600Y32100D01*
X-9100Y42500D02*
X-8700Y43300D01*
X-9100Y44100D01*
X-8300Y43700D01*
X-7500Y44100D01*
X-7900Y43300D01*
X-7500Y42500D01*
X-8300Y42900D01*
X-9100Y42500D01*
X-1700Y32600D02*
X-1300Y33400D01*
X-1700Y34200D01*
X-900Y33800D01*
X-100Y34200D01*
X-500Y33400D01*
X-100Y32600D01*
X-900Y33000D01*
X-1700Y32600D01*
Y42300D02*
X-1300Y43100D01*
X-1700Y43900D01*
X-900Y43500D01*
X-100Y43900D01*
X-500Y43100D01*
X-100Y42300D01*
X-900Y42700D01*
X-1700Y42300D01*
X-34200Y12800D02*
X-33800Y13600D01*
X-34200Y14400D01*
X-33400Y14000D01*
X-32600Y14400D01*
X-33000Y13600D01*
X-32600Y12800D01*
X-33400Y13200D01*
X-34200Y12800D01*
X-28900Y18800D02*
X-28500Y19600D01*
X-28900Y20400D01*
X-28100Y20000D01*
X-27300Y20400D01*
X-27700Y19600D01*
X-27300Y18800D01*
X-28100Y19200D01*
X-28900Y18800D01*
X-27800Y20700D02*
X-27400Y21500D01*
X-27800Y22300D01*
X-27000Y21900D01*
X-26200Y22300D01*
X-26600Y21500D01*
X-26200Y20700D01*
X-27000Y21100D01*
X-27800Y20700D01*
X-12900Y36500D02*
X-12500Y37300D01*
X-12900Y38100D01*
X-12100Y37700D01*
X-11300Y38100D01*
X-11700Y37300D01*
X-11300Y36500D01*
X-12100Y36900D01*
X-12900Y36500D01*
X-18000Y39300D02*
X-17600Y40100D01*
X-18000Y40900D01*
X-17200Y40500D01*
X-16400Y40900D01*
X-16800Y40100D01*
X-16400Y39300D01*
X-17200Y39700D01*
X-18000Y39300D01*
X-16700Y43300D02*
X-16300Y44100D01*
X-16700Y44900D01*
X-15900Y44500D01*
X-15100Y44900D01*
X-15500Y44100D01*
X-15100Y43300D01*
X-15900Y43700D01*
X-16700Y43300D01*
X-16900Y45900D02*
X-16500Y46700D01*
X-16900Y47500D01*
X-16100Y47100D01*
X-15300Y47500D01*
X-15700Y46700D01*
X-15300Y45900D01*
X-16100Y46300D01*
X-16900Y45900D01*
X-17600Y48400D02*
X-17200Y49200D01*
X-17600Y50000D01*
X-16800Y49600D01*
X-16000Y50000D01*
X-16400Y49200D01*
X-16000Y48400D01*
X-16800Y48800D01*
X-17600Y48400D01*
X4700Y36300D02*
X5100Y37100D01*
X4700Y37900D01*
X5500Y37500D01*
X6300Y37900D01*
X5900Y37100D01*
X6300Y36300D01*
X5500Y36700D01*
X4700Y36300D01*
X-26800Y-25900D02*
X-26400Y-25100D01*
X-26800Y-24300D01*
X-26000Y-24700D01*
X-25200Y-24300D01*
X-25600Y-25100D01*
X-25200Y-25900D01*
X-26000Y-25500D01*
X-26800Y-25900D01*
X-76338Y-22517D02*
X-75938Y-21717D01*
X-76338Y-20917D01*
X-75538Y-21317D01*
X-74738Y-20917D01*
X-75138Y-21717D01*
X-74738Y-22517D01*
X-75538Y-22117D01*
X-76338Y-22517D01*
X-54600Y-25700D02*
X-54200Y-24900D01*
X-54600Y-24100D01*
X-53800Y-24500D01*
X-53000Y-24100D01*
X-53400Y-24900D01*
X-53000Y-25700D01*
X-53800Y-25300D01*
X-54600Y-25700D01*
X-60800Y-81500D02*
X-60400Y-80700D01*
X-60800Y-79900D01*
X-60000Y-80300D01*
X-59200Y-79900D01*
X-59600Y-80700D01*
X-59200Y-81500D01*
X-60000Y-81100D01*
X-60800Y-81500D01*
X-53200Y-86200D02*
X-52800Y-85400D01*
X-53200Y-84600D01*
X-52400Y-85000D01*
X-51600Y-84600D01*
X-52000Y-85400D01*
X-51600Y-86200D01*
X-52400Y-85800D01*
X-53200Y-86200D01*
X-27700Y-98800D02*
X-27300Y-98000D01*
X-27700Y-97200D01*
X-26900Y-97600D01*
X-26100Y-97200D01*
X-26500Y-98000D01*
X-26100Y-98800D01*
X-26900Y-98400D01*
X-27700Y-98800D01*
X-23400Y-53900D02*
X-23000Y-53100D01*
X-23400Y-52300D01*
X-22600Y-52700D01*
X-21800Y-52300D01*
X-22200Y-53100D01*
X-21800Y-53900D01*
X-22600Y-53500D01*
X-23400Y-53900D01*
X12100Y-72000D02*
X12500Y-71200D01*
X12100Y-70400D01*
X12900Y-70800D01*
X13700Y-70400D01*
X13300Y-71200D01*
X13700Y-72000D01*
X12900Y-71600D01*
X12100Y-72000D01*
X123300Y-6200D02*
X123700Y-5400D01*
X123300Y-4600D01*
X124100Y-5000D01*
X124900Y-4600D01*
X124500Y-5400D01*
X124900Y-6200D01*
X124100Y-5800D01*
X123300Y-6200D01*
X71200Y9500D02*
X71600Y10300D01*
X71200Y11100D01*
X72000Y10700D01*
X72800Y11100D01*
X72400Y10300D01*
X72800Y9500D01*
X72000Y9900D01*
X71200Y9500D01*
X64900Y30800D02*
X65300Y31600D01*
X64900Y32400D01*
X65700Y32000D01*
X66500Y32400D01*
X66100Y31600D01*
X66500Y30800D01*
X65700Y31200D01*
X64900Y30800D01*
X46200Y51100D02*
X46600Y51900D01*
X46200Y52700D01*
X47000Y52300D01*
X47800Y52700D01*
X47400Y51900D01*
X47800Y51100D01*
X47000Y51500D01*
X46200Y51100D01*
X23200Y65600D02*
X23600Y66400D01*
X23200Y67200D01*
X24000Y66800D01*
X24800Y67200D01*
X24400Y66400D01*
X24800Y65600D01*
X24000Y66000D01*
X23200Y65600D01*
X-3500Y73500D02*
X-3100Y74300D01*
X-3500Y75100D01*
X-2700Y74700D01*
X-1900Y75100D01*
X-2300Y74300D01*
X-1900Y73500D01*
X-2700Y73900D01*
X-3500Y73500D01*
X-27800Y73400D02*
X-27400Y74200D01*
X-27800Y75000D01*
X-27000Y74600D01*
X-26200Y75000D01*
X-26600Y74200D01*
X-26200Y73400D01*
X-27000Y73800D01*
X-27800Y73400D01*
X-125305Y77005D02*
X-124905Y77805D01*
X-125305Y78605D01*
X-124505Y78205D01*
X-123705Y78605D01*
X-124105Y77805D01*
X-123705Y77005D01*
X-124505Y77405D01*
X-125305Y77005D01*
X-78700Y87600D02*
X-78300Y88400D01*
X-78700Y89200D01*
X-77900Y88800D01*
X-77100Y89200D01*
X-77500Y88400D01*
X-77100Y87600D01*
X-77900Y88000D01*
X-78700Y87600D01*
X-136200Y-25500D02*
X-135800Y-24700D01*
X-136200Y-23900D01*
X-135400Y-24300D01*
X-134600Y-23900D01*
X-135000Y-24700D01*
X-134600Y-25500D01*
X-135400Y-25100D01*
X-136200Y-25500D01*
X-130100Y66800D02*
X-129700Y67600D01*
X-130100Y68400D01*
X-129300Y68000D01*
X-128500Y68400D01*
X-128900Y67600D01*
X-128500Y66800D01*
X-129300Y67200D01*
X-130100Y66800D01*
X49600Y-124800D02*
X50000Y-124000D01*
X49600Y-123200D01*
X50400Y-123600D01*
X51200Y-123200D01*
X50800Y-124000D01*
X51200Y-124800D01*
X50400Y-124400D01*
X49600Y-124800D01*
X107896Y14980D02*
X108296Y15780D01*
X107896Y16580D01*
X108695Y16180D01*
X109495Y16580D01*
X109096Y15780D01*
X109495Y14980D01*
X108695Y15380D01*
X107896Y14980D01*
X85300Y-93800D02*
X85700Y-93000D01*
X85300Y-92200D01*
X86100Y-92600D01*
X86900Y-92200D01*
X86500Y-93000D01*
X86900Y-93800D01*
X86100Y-93400D01*
X85300Y-93800D01*
X88500Y-95800D02*
X88900Y-95000D01*
X88500Y-94200D01*
X89300Y-94600D01*
X90100Y-94200D01*
X89700Y-95000D01*
X90100Y-95800D01*
X89300Y-95400D01*
X88500Y-95800D01*
X80900Y-94400D02*
X81300Y-93600D01*
X80900Y-92800D01*
X81700Y-93200D01*
X82500Y-92800D01*
X82100Y-93600D01*
X82500Y-94400D01*
X81700Y-94000D01*
X80900Y-94400D01*
X-34800Y-73400D02*
X-34400Y-72600D01*
X-34800Y-71800D01*
X-34000Y-72200D01*
X-33200Y-71800D01*
X-33600Y-72600D01*
X-33200Y-73400D01*
X-34000Y-73000D01*
X-34800Y-73400D01*
X-35300Y-67600D02*
X-34900Y-66800D01*
X-35300Y-66000D01*
X-34500Y-66400D01*
X-33700Y-66000D01*
X-34100Y-66800D01*
X-33700Y-67600D01*
X-34500Y-67200D01*
X-35300Y-67600D01*
X-34800Y-62700D02*
X-34400Y-61900D01*
X-34800Y-61100D01*
X-34000Y-61500D01*
X-33200Y-61100D01*
X-33600Y-61900D01*
X-33200Y-62700D01*
X-34000Y-62300D01*
X-34800Y-62700D01*
X85400Y-100100D02*
X85800Y-99300D01*
X85400Y-98500D01*
X86200Y-98900D01*
X87000Y-98500D01*
X86600Y-99300D01*
X87000Y-100100D01*
X86200Y-99700D01*
X85400Y-100100D01*
X85385Y-97300D02*
X85785Y-96500D01*
X85385Y-95700D01*
X86185Y-96100D01*
X86985Y-95700D01*
X86585Y-96500D01*
X86985Y-97300D01*
X86185Y-96900D01*
X85385Y-97300D01*
X81400Y-97700D02*
X81800Y-96900D01*
X81400Y-96100D01*
X82200Y-96500D01*
X83000Y-96100D01*
X82600Y-96900D01*
X83000Y-97700D01*
X82200Y-97300D01*
X81400Y-97700D01*
X80600Y-51500D02*
X81000Y-50700D01*
X80600Y-49900D01*
X81400Y-50300D01*
X82200Y-49900D01*
X81800Y-50700D01*
X82200Y-51500D01*
X81400Y-51100D01*
X80600Y-51500D01*
X83600Y-51100D02*
X84000Y-50300D01*
X83600Y-49500D01*
X84400Y-49900D01*
X85200Y-49500D01*
X84800Y-50300D01*
X85200Y-51100D01*
X84400Y-50700D01*
X83600Y-51100D01*
X-51600Y-72700D02*
X-51200Y-71900D01*
X-51600Y-71100D01*
X-50800Y-71500D01*
X-50000Y-71100D01*
X-50400Y-71900D01*
X-50000Y-72700D01*
X-50800Y-72300D01*
X-51600Y-72700D01*
X-51500Y-65700D02*
X-51100Y-64900D01*
X-51500Y-64100D01*
X-50700Y-64500D01*
X-49900Y-64100D01*
X-50300Y-64900D01*
X-49900Y-65700D01*
X-50700Y-65300D01*
X-51500Y-65700D01*
X-46700Y-51600D02*
X-46300Y-50800D01*
X-46700Y-50000D01*
X-45900Y-50400D01*
X-45100Y-50000D01*
X-45500Y-50800D01*
X-45100Y-51600D01*
X-45900Y-51200D01*
X-46700Y-51600D01*
X-80520Y116820D02*
X-80120Y117620D01*
X-80520Y118420D01*
X-79720Y118020D01*
X-78920Y118420D01*
X-79320Y117620D01*
X-78920Y116820D01*
X-79720Y117220D01*
X-80520Y116820D01*
X-117501Y34695D02*
X-117101Y35495D01*
X-117501Y36295D01*
X-116701Y35895D01*
X-115901Y36295D01*
X-116301Y35495D01*
X-115901Y34695D01*
X-116701Y35095D01*
X-117501Y34695D01*
X-119413Y31913D02*
X-119013Y32713D01*
X-119413Y33513D01*
X-118613Y33113D01*
X-117813Y33513D01*
X-118213Y32713D01*
X-117813Y31913D01*
X-118613Y32313D01*
X-119413Y31913D01*
X-116569Y-36231D02*
X-116169Y-35431D01*
X-116569Y-34631D01*
X-115769Y-35031D01*
X-114969Y-34631D01*
X-115369Y-35431D01*
X-114969Y-36231D01*
X-115769Y-35831D01*
X-116569Y-36231D01*
X-133865Y46397D02*
X-133465Y47197D01*
X-133865Y47997D01*
X-133065Y47597D01*
X-132265Y47997D01*
X-132665Y47197D01*
X-132265Y46397D01*
X-133065Y46797D01*
X-133865Y46397D01*
X-137414Y52300D02*
X-137014Y53100D01*
X-137414Y53900D01*
X-136614Y53500D01*
X-135814Y53900D01*
X-136214Y53100D01*
X-135814Y52300D01*
X-136614Y52700D01*
X-137414Y52300D01*
X-138300Y48600D02*
X-137900Y49400D01*
X-138300Y50200D01*
X-137500Y49800D01*
X-136700Y50200D01*
X-137100Y49400D01*
X-136700Y48600D01*
X-137500Y49000D01*
X-138300Y48600D01*
X-122400Y32800D02*
X-122000Y33600D01*
X-122400Y34400D01*
X-121600Y34000D01*
X-120800Y34400D01*
X-121200Y33600D01*
X-120800Y32800D01*
X-121600Y33200D01*
X-122400Y32800D01*
X-14800Y-51600D02*
X-14400Y-50800D01*
X-14800Y-50000D01*
X-14000Y-50400D01*
X-13200Y-50000D01*
X-13600Y-50800D01*
X-13200Y-51600D01*
X-14000Y-51200D01*
X-14800Y-51600D01*
X-120500Y25100D02*
X-120100Y25900D01*
X-120500Y26700D01*
X-119700Y26300D01*
X-118900Y26700D01*
X-119300Y25900D01*
X-118900Y25100D01*
X-119700Y25500D01*
X-120500Y25100D01*
X45324Y-7000D02*
X45724Y-6200D01*
X45324Y-5400D01*
X46124Y-5800D01*
X46924Y-5400D01*
X46524Y-6200D01*
X46924Y-7000D01*
X46124Y-6600D01*
X45324Y-7000D01*
Y-10300D02*
X45724Y-9500D01*
X45324Y-8700D01*
X46124Y-9100D01*
X46924Y-8700D01*
X46524Y-9500D01*
X46924Y-10300D01*
X46124Y-9900D01*
X45324Y-10300D01*
X4500Y-50400D02*
X4900Y-49600D01*
X4500Y-48800D01*
X5300Y-49200D01*
X6100Y-48800D01*
X5700Y-49600D01*
X6100Y-50400D01*
X5300Y-50000D01*
X4500Y-50400D01*
X-120000Y28800D02*
X-119600Y29600D01*
X-120000Y30400D01*
X-119200Y30000D01*
X-118400Y30400D01*
X-118800Y29600D01*
X-118400Y28800D01*
X-119200Y29200D01*
X-120000Y28800D01*
X-123400Y36000D02*
X-123000Y36800D01*
X-123400Y37600D01*
X-122600Y37200D01*
X-121800Y37600D01*
X-122200Y36800D01*
X-121800Y36000D01*
X-122600Y36400D01*
X-123400Y36000D01*
X44700Y-64300D02*
X45100Y-63500D01*
X44700Y-62700D01*
X45500Y-63100D01*
X46300Y-62700D01*
X45900Y-63500D01*
X46300Y-64300D01*
X45500Y-63900D01*
X44700Y-64300D01*
X8300Y-64100D02*
X8700Y-63300D01*
X8300Y-62500D01*
X9100Y-62900D01*
X9900Y-62500D01*
X9500Y-63300D01*
X9900Y-64100D01*
X9100Y-63700D01*
X8300Y-64100D01*
X9900Y-91000D02*
X10300Y-90200D01*
X9900Y-89400D01*
X10700Y-89800D01*
X11500Y-89400D01*
X11100Y-90200D01*
X11500Y-91000D01*
X10700Y-90600D01*
X9900Y-91000D01*
X5800Y-102100D02*
X6200Y-101300D01*
X5800Y-100500D01*
X6600Y-100900D01*
X7400Y-100500D01*
X7000Y-101300D01*
X7400Y-102100D01*
X6600Y-101700D01*
X5800Y-102100D01*
X55700Y-73900D02*
X56100Y-73100D01*
X55700Y-72300D01*
X56500Y-72700D01*
X57300Y-72300D01*
X56900Y-73100D01*
X57300Y-73900D01*
X56500Y-73500D01*
X55700Y-73900D01*
X6400Y-106300D02*
X6800Y-105500D01*
X6400Y-104700D01*
X7200Y-105100D01*
X8000Y-104700D01*
X7600Y-105500D01*
X8000Y-106300D01*
X7200Y-105900D01*
X6400Y-106300D01*
X-33900Y-88400D02*
X-33500Y-87600D01*
X-33900Y-86800D01*
X-33100Y-87200D01*
X-32300Y-86800D01*
X-32700Y-87600D01*
X-32300Y-88400D01*
X-33100Y-88000D01*
X-33900Y-88400D01*
X94129Y-98497D02*
X94529Y-97697D01*
X94129Y-96897D01*
X94929Y-97297D01*
X95729Y-96897D01*
X95329Y-97697D01*
X95729Y-98497D01*
X94929Y-98097D01*
X94129Y-98497D01*
X96385Y-99959D02*
X96785Y-99159D01*
X96385Y-98359D01*
X97185Y-98759D01*
X97985Y-98359D01*
X97585Y-99159D01*
X97985Y-99959D01*
X97185Y-99559D01*
X96385Y-99959D01*
X-36600Y-79800D02*
X-36200Y-79000D01*
X-36600Y-78200D01*
X-35800Y-78600D01*
X-35000Y-78200D01*
X-35400Y-79000D01*
X-35000Y-79800D01*
X-35800Y-79400D01*
X-36600Y-79800D01*
X-59100Y-24600D02*
X-58700Y-23800D01*
X-59100Y-23000D01*
X-58300Y-23400D01*
X-57500Y-23000D01*
X-57900Y-23800D01*
X-57500Y-24600D01*
X-58300Y-24200D01*
X-59100Y-24600D01*
X-18300Y-60000D02*
X-17900Y-59200D01*
X-18300Y-58400D01*
X-17500Y-58800D01*
X-16700Y-58400D01*
X-17100Y-59200D01*
X-16700Y-60000D01*
X-17500Y-59600D01*
X-18300Y-60000D01*
X37200Y-64300D02*
X37600Y-63500D01*
X37200Y-62700D01*
X38000Y-63100D01*
X38800Y-62700D01*
X38400Y-63500D01*
X38800Y-64300D01*
X38000Y-63900D01*
X37200Y-64300D01*
X17912Y-144138D02*
X18313Y-143338D01*
X17912Y-142537D01*
X18712Y-142938D01*
X19512Y-142537D01*
X19113Y-143338D01*
X19512Y-144138D01*
X18712Y-143737D01*
X17912Y-144138D01*
X18300Y-141300D02*
X18700Y-140500D01*
X18300Y-139700D01*
X19100Y-140100D01*
X19900Y-139700D01*
X19500Y-140500D01*
X19900Y-141300D01*
X19100Y-140900D01*
X18300Y-141300D01*
X15850D02*
X16250Y-140500D01*
X15850Y-139700D01*
X16650Y-140100D01*
X17450Y-139700D01*
X17050Y-140500D01*
X17450Y-141300D01*
X16650Y-140900D01*
X15850Y-141300D01*
X101700Y-104300D02*
X102100Y-103500D01*
X101700Y-102700D01*
X102500Y-103100D01*
X103300Y-102700D01*
X102900Y-103500D01*
X103300Y-104300D01*
X102500Y-103900D01*
X101700Y-104300D01*
X103300Y-100100D02*
X103700Y-99300D01*
X103300Y-98500D01*
X104100Y-98900D01*
X104900Y-98500D01*
X104500Y-99300D01*
X104900Y-100100D01*
X104100Y-99700D01*
X103300Y-100100D01*
X105122Y-101618D02*
X105522Y-100818D01*
X105122Y-100018D01*
X105922Y-100418D01*
X106722Y-100018D01*
X106322Y-100818D01*
X106722Y-101618D01*
X105922Y-101218D01*
X105122Y-101618D01*
X107100Y-99200D02*
X107500Y-98400D01*
X107100Y-97600D01*
X107900Y-98000D01*
X108700Y-97600D01*
X108300Y-98400D01*
X108700Y-99200D01*
X107900Y-98800D01*
X107100Y-99200D01*
X109000Y-97600D02*
X109400Y-96800D01*
X109000Y-96000D01*
X109800Y-96400D01*
X110600Y-96000D01*
X110200Y-96800D01*
X110600Y-97600D01*
X109800Y-97200D01*
X109000Y-97600D01*
X110800Y-95900D02*
X111200Y-95100D01*
X110800Y-94300D01*
X111600Y-94700D01*
X112400Y-94300D01*
X112000Y-95100D01*
X112400Y-95900D01*
X111600Y-95500D01*
X110800Y-95900D01*
X112586Y-93700D02*
X112986Y-92900D01*
X112586Y-92100D01*
X113386Y-92500D01*
X114186Y-92100D01*
X113786Y-92900D01*
X114186Y-93700D01*
X113386Y-93300D01*
X112586Y-93700D01*
X112800Y-90800D02*
X113200Y-90000D01*
X112800Y-89200D01*
X113600Y-89600D01*
X114400Y-89200D01*
X114000Y-90000D01*
X114400Y-90800D01*
X113600Y-90400D01*
X112800Y-90800D01*
X-135200Y57050D02*
X-134800Y57850D01*
X-135200Y58650D01*
X-134400Y58250D01*
X-133600Y58650D01*
X-134000Y57850D01*
X-133600Y57050D01*
X-134400Y57450D01*
X-135200Y57050D01*
X-135547Y48593D02*
X-135147Y49393D01*
X-135547Y50193D01*
X-134747Y49793D01*
X-133947Y50193D01*
X-134347Y49393D01*
X-133947Y48593D01*
X-134747Y48993D01*
X-135547Y48593D01*
X-133400Y49600D02*
X-133000Y50400D01*
X-133400Y51200D01*
X-132600Y50800D01*
X-131800Y51200D01*
X-132200Y50400D01*
X-131800Y49600D01*
X-132600Y50000D01*
X-133400Y49600D01*
X35500Y-117400D02*
X35900Y-116600D01*
X35500Y-115800D01*
X36300Y-116200D01*
X37100Y-115800D01*
X36700Y-116600D01*
X37100Y-117400D01*
X36300Y-117000D01*
X35500Y-117400D01*
X-21700Y-48600D02*
X-21300Y-47800D01*
X-21700Y-47000D01*
X-20900Y-47400D01*
X-20100Y-47000D01*
X-20500Y-47800D01*
X-20100Y-48600D01*
X-20900Y-48200D01*
X-21700Y-48600D01*
X87571Y-62627D02*
X87971Y-61827D01*
X87571Y-61027D01*
X88371Y-61427D01*
X89171Y-61027D01*
X88771Y-61827D01*
X89171Y-62627D01*
X88371Y-62227D01*
X87571Y-62627D01*
X71600Y-61000D02*
X72000Y-60200D01*
X71600Y-59400D01*
X72400Y-59800D01*
X73200Y-59400D01*
X72800Y-60200D01*
X73200Y-61000D01*
X72400Y-60600D01*
X71600Y-61000D01*
X103600Y-64600D02*
X104000Y-63800D01*
X103600Y-63000D01*
X104400Y-63400D01*
X105200Y-63000D01*
X104800Y-63800D01*
X105200Y-64600D01*
X104400Y-64200D01*
X103600Y-64600D01*
X101100Y-62400D02*
X101500Y-61600D01*
X101100Y-60800D01*
X101900Y-61200D01*
X102700Y-60800D01*
X102300Y-61600D01*
X102700Y-62400D01*
X101900Y-62000D01*
X101100Y-62400D01*
X87500Y-51500D02*
X87900Y-50700D01*
X87500Y-49900D01*
X88300Y-50300D01*
X89100Y-49900D01*
X88700Y-50700D01*
X89100Y-51500D01*
X88300Y-51100D01*
X87500Y-51500D01*
X77700Y-52500D02*
X78100Y-51700D01*
X77700Y-50900D01*
X78500Y-51300D01*
X79300Y-50900D01*
X78900Y-51700D01*
X79300Y-52500D01*
X78500Y-52100D01*
X77700Y-52500D01*
X113400Y-87300D02*
X113800Y-86500D01*
X113400Y-85700D01*
X114200Y-86100D01*
X115000Y-85700D01*
X114600Y-86500D01*
X115000Y-87300D01*
X114200Y-86900D01*
X113400Y-87300D01*
X-15700Y-105200D02*
X-15300Y-104400D01*
X-15700Y-103600D01*
X-14900Y-104000D01*
X-14100Y-103600D01*
X-14500Y-104400D01*
X-14100Y-105200D01*
X-14900Y-104800D01*
X-15700Y-105200D01*
X-101714Y36900D02*
X-101314Y37700D01*
X-101714Y38500D01*
X-100914Y38100D01*
X-100114Y38500D01*
X-100514Y37700D01*
X-100114Y36900D01*
X-100914Y37300D01*
X-101714Y36900D01*
X-99100Y35100D02*
X-98700Y35900D01*
X-99100Y36700D01*
X-98300Y36300D01*
X-97500Y36700D01*
X-97900Y35900D01*
X-97500Y35100D01*
X-98300Y35500D01*
X-99100Y35100D01*
X-95528Y35700D02*
X-95128Y36500D01*
X-95528Y37300D01*
X-94728Y36900D01*
X-93928Y37300D01*
X-94328Y36500D01*
X-93928Y35700D01*
X-94728Y36100D01*
X-95528Y35700D01*
X-89300Y-61700D02*
X-88900Y-60900D01*
X-89300Y-60100D01*
X-88500Y-60500D01*
X-87700Y-60100D01*
X-88100Y-60900D01*
X-87700Y-61700D01*
X-88500Y-61300D01*
X-89300Y-61700D01*
X-62300Y-89200D02*
X-61900Y-88400D01*
X-62300Y-87600D01*
X-61500Y-88000D01*
X-60700Y-87600D01*
X-61100Y-88400D01*
X-60700Y-89200D01*
X-61500Y-88800D01*
X-62300Y-89200D01*
X-83600Y-21300D02*
X-83200Y-20500D01*
X-83600Y-19700D01*
X-82800Y-20100D01*
X-82000Y-19700D01*
X-82400Y-20500D01*
X-82000Y-21300D01*
X-82800Y-20900D01*
X-83600Y-21300D01*
X-85363Y10037D02*
X-84963Y10837D01*
X-85363Y11637D01*
X-84563Y11237D01*
X-83763Y11637D01*
X-84163Y10837D01*
X-83763Y10037D01*
X-84563Y10437D01*
X-85363Y10037D01*
X-80600Y-20800D02*
X-80200Y-20000D01*
X-80600Y-19200D01*
X-79800Y-19600D01*
X-79000Y-19200D01*
X-79400Y-20000D01*
X-79000Y-20800D01*
X-79800Y-20400D01*
X-80600Y-20800D01*
X-95187Y40913D02*
X-94787Y41713D01*
X-95187Y42513D01*
X-94387Y42113D01*
X-93587Y42513D01*
X-93987Y41713D01*
X-93587Y40913D01*
X-94387Y41313D01*
X-95187Y40913D01*
X-91486Y22664D02*
X-91086Y23464D01*
X-91486Y24264D01*
X-90686Y23864D01*
X-89886Y24264D01*
X-90286Y23464D01*
X-89886Y22664D01*
X-90686Y23064D01*
X-91486Y22664D01*
X-88213Y19487D02*
X-87813Y20287D01*
X-88213Y21087D01*
X-87413Y20687D01*
X-86613Y21087D01*
X-87013Y20287D01*
X-86613Y19487D01*
X-87413Y19887D01*
X-88213Y19487D01*
X-84500Y36100D02*
X-84100Y36900D01*
X-84500Y37700D01*
X-83700Y37300D01*
X-82900Y37700D01*
X-83300Y36900D01*
X-82900Y36100D01*
X-83700Y36500D01*
X-84500Y36100D01*
X-82240Y30060D02*
X-81840Y30860D01*
X-82240Y31660D01*
X-81440Y31260D01*
X-80640Y31660D01*
X-81040Y30860D01*
X-80640Y30060D01*
X-81440Y30460D01*
X-82240Y30060D01*
X-81800Y40700D02*
X-81400Y41500D01*
X-81800Y42300D01*
X-81000Y41900D01*
X-80200Y42300D01*
X-80600Y41500D01*
X-80200Y40700D01*
X-81000Y41100D01*
X-81800Y40700D01*
Y14700D02*
X-81400Y15500D01*
X-81800Y16300D01*
X-81000Y15900D01*
X-80200Y16300D01*
X-80600Y15500D01*
X-80200Y14700D01*
X-81000Y15100D01*
X-81800Y14700D01*
X-77200Y-10500D02*
X-76800Y-9700D01*
X-77200Y-8900D01*
X-76400Y-9300D01*
X-75600Y-8900D01*
X-76000Y-9700D01*
X-75600Y-10500D01*
X-76400Y-10100D01*
X-77200Y-10500D01*
X-99200Y39600D02*
X-98800Y40400D01*
X-99200Y41200D01*
X-98400Y40800D01*
X-97600Y41200D01*
X-98000Y40400D01*
X-97600Y39600D01*
X-98400Y40000D01*
X-99200Y39600D01*
X-95500Y44000D02*
X-95100Y44800D01*
X-95500Y45600D01*
X-94700Y45200D01*
X-93900Y45600D01*
X-94300Y44800D01*
X-93900Y44000D01*
X-94700Y44400D01*
X-95500Y44000D01*
X-97800Y51900D02*
X-97400Y52700D01*
X-97800Y53500D01*
X-97000Y53100D01*
X-96200Y53500D01*
X-96600Y52700D01*
X-96200Y51900D01*
X-97000Y52300D01*
X-97800Y51900D01*
X-70200Y1300D02*
X-69800Y2100D01*
X-70200Y2900D01*
X-69400Y2500D01*
X-68600Y2900D01*
X-69000Y2100D01*
X-68600Y1300D01*
X-69400Y1700D01*
X-70200Y1300D01*
X-95300Y46700D02*
X-94900Y47500D01*
X-95300Y48300D01*
X-94500Y47900D01*
X-93700Y48300D01*
X-94100Y47500D01*
X-93700Y46700D01*
X-94500Y47100D01*
X-95300Y46700D01*
X-98867Y58326D02*
X-98467Y59126D01*
X-98867Y59926D01*
X-98067Y59526D01*
X-97267Y59926D01*
X-97667Y59126D01*
X-97267Y58326D01*
X-98067Y58726D01*
X-98867Y58326D01*
X-74165Y-10581D02*
X-73765Y-9781D01*
X-74165Y-8981D01*
X-73365Y-9381D01*
X-72565Y-8981D01*
X-72965Y-9781D01*
X-72565Y-10581D01*
X-73365Y-10181D01*
X-74165Y-10581D01*
X-78225Y8345D02*
X-77825Y9145D01*
X-78225Y9945D01*
X-77425Y9545D01*
X-76625Y9945D01*
X-77025Y9145D01*
X-76625Y8345D01*
X-77425Y8745D01*
X-78225Y8345D01*
X-101000Y-41000D02*
X-100600Y-40200D01*
X-101000Y-39400D01*
X-100200Y-39800D01*
X-99400Y-39400D01*
X-99800Y-40200D01*
X-99400Y-41000D01*
X-100200Y-40600D01*
X-101000Y-41000D01*
X-98134Y54791D02*
X-97734Y55591D01*
X-98134Y56391D01*
X-97334Y55991D01*
X-96534Y56391D01*
X-96934Y55591D01*
X-96534Y54791D01*
X-97334Y55191D01*
X-98134Y54791D01*
X-123500Y72400D02*
X-123100Y73200D01*
X-123500Y74000D01*
X-122700Y73600D01*
X-121900Y74000D01*
X-122300Y73200D01*
X-121900Y72400D01*
X-122700Y72800D01*
X-123500Y72400D01*
X-119500Y71900D02*
X-119100Y72700D01*
X-119500Y73500D01*
X-118700Y73100D01*
X-117900Y73500D01*
X-118300Y72700D01*
X-117900Y71900D01*
X-118700Y72300D01*
X-119500Y71900D01*
X-117691Y69965D02*
X-117291Y70765D01*
X-117691Y71565D01*
X-116891Y71165D01*
X-116091Y71565D01*
X-116491Y70765D01*
X-116091Y69965D01*
X-116891Y70365D01*
X-117691Y69965D01*
X-127400Y71900D02*
X-127000Y72700D01*
X-127400Y73500D01*
X-126600Y73100D01*
X-125800Y73500D01*
X-126200Y72700D01*
X-125800Y71900D01*
X-126600Y72300D01*
X-127400Y71900D01*
X-69600Y33400D02*
X-69200Y34200D01*
X-69600Y35000D01*
X-68800Y34600D01*
X-68000Y35000D01*
X-68400Y34200D01*
X-68000Y33400D01*
X-68800Y33800D01*
X-69600Y33400D01*
X-67200Y40300D02*
X-66800Y41100D01*
X-67200Y41900D01*
X-66400Y41500D01*
X-65600Y41900D01*
X-66000Y41100D01*
X-65600Y40300D01*
X-66400Y40700D01*
X-67200Y40300D01*
X-61700Y24600D02*
X-61300Y25400D01*
X-61700Y26200D01*
X-60900Y25800D01*
X-60100Y26200D01*
X-60500Y25400D01*
X-60100Y24600D01*
X-60900Y25000D01*
X-61700Y24600D01*
X-59300Y2100D02*
X-58900Y2900D01*
X-59300Y3700D01*
X-58500Y3300D01*
X-57700Y3700D01*
X-58100Y2900D01*
X-57700Y2100D01*
X-58500Y2500D01*
X-59300Y2100D01*
X-56100Y4900D02*
X-55700Y5700D01*
X-56100Y6500D01*
X-55300Y6100D01*
X-54500Y6500D01*
X-54900Y5700D01*
X-54500Y4900D01*
X-55300Y5300D01*
X-56100Y4900D01*
X-125500Y70100D02*
X-125100Y70900D01*
X-125500Y71700D01*
X-124700Y71300D01*
X-123900Y71700D01*
X-124300Y70900D01*
X-123900Y70100D01*
X-124700Y70500D01*
X-125500Y70100D01*
X-121500Y70300D02*
X-121100Y71100D01*
X-121500Y71900D01*
X-120700Y71500D01*
X-119900Y71900D01*
X-120300Y71100D01*
X-119900Y70300D01*
X-120700Y70700D01*
X-121500Y70300D01*
X79074Y-78190D02*
X79474Y-77390D01*
X79074Y-76590D01*
X79874Y-76990D01*
X80674Y-76590D01*
X80274Y-77390D01*
X80674Y-78190D01*
X79874Y-77790D01*
X79074Y-78190D01*
X-107446Y57063D02*
X-107046Y57863D01*
X-107446Y58663D01*
X-106646Y58263D01*
X-105846Y58663D01*
X-106246Y57863D01*
X-105846Y57063D01*
X-106646Y57463D01*
X-107446Y57063D01*
X-107446Y50737D02*
X-107046Y51537D01*
X-107446Y52337D01*
X-106646Y51937D01*
X-105846Y52337D01*
X-106246Y51537D01*
X-105846Y50737D01*
X-106646Y51137D01*
X-107446Y50737D01*
X-113437Y63054D02*
X-113037Y63854D01*
X-113437Y64653D01*
X-112637Y64253D01*
X-111837Y64653D01*
X-112237Y63854D01*
X-111837Y63054D01*
X-112637Y63454D01*
X-113437Y63054D01*
Y57063D02*
X-113037Y57863D01*
X-113437Y58663D01*
X-112637Y58263D01*
X-111837Y58663D01*
X-112237Y57863D01*
X-111837Y57063D01*
X-112637Y57463D01*
X-113437Y57063D01*
Y50737D02*
X-113037Y51537D01*
X-113437Y52337D01*
X-112637Y51937D01*
X-111837Y52337D01*
X-112237Y51537D01*
X-111837Y50737D01*
X-112637Y51137D01*
X-113437Y50737D01*
Y44747D02*
X-113037Y45546D01*
X-113437Y46347D01*
X-112637Y45946D01*
X-111837Y46347D01*
X-112237Y45546D01*
X-111837Y44747D01*
X-112637Y45147D01*
X-113437Y44747D01*
X-119763Y63054D02*
X-119363Y63854D01*
X-119763Y64654D01*
X-118963Y64254D01*
X-118163Y64654D01*
X-118563Y63854D01*
X-118163Y63054D01*
X-118963Y63454D01*
X-119763Y63054D01*
X-119763Y57063D02*
X-119363Y57863D01*
X-119763Y58663D01*
X-118963Y58263D01*
X-118163Y58663D01*
X-118563Y57863D01*
X-118163Y57063D01*
X-118963Y57463D01*
X-119763Y57063D01*
X-119763Y50737D02*
X-119363Y51537D01*
X-119763Y52337D01*
X-118963Y51937D01*
X-118163Y52337D01*
X-118563Y51537D01*
X-118163Y50737D01*
X-118963Y51137D01*
X-119763Y50737D01*
X-119763Y44747D02*
X-119363Y45546D01*
X-119763Y46347D01*
X-118963Y45946D01*
X-118163Y46347D01*
X-118563Y45546D01*
X-118163Y44747D01*
X-118963Y45147D01*
X-119763Y44747D01*
X-125754Y57063D02*
X-125354Y57863D01*
X-125754Y58663D01*
X-124954Y58263D01*
X-124154Y58663D01*
X-124554Y57863D01*
X-124154Y57063D01*
X-124954Y57463D01*
X-125754Y57063D01*
X-125753Y50737D02*
X-125354Y51537D01*
X-125753Y52337D01*
X-124953Y51937D01*
X-124153Y52337D01*
X-124554Y51537D01*
X-124153Y50737D01*
X-124953Y51137D01*
X-125753Y50737D01*
X-100234Y66239D02*
X-99834Y67039D01*
X-100234Y67839D01*
X-99434Y67439D01*
X-98634Y67839D01*
X-99034Y67039D01*
X-98634Y66239D01*
X-99434Y66639D01*
X-100234Y66239D01*
X-109381Y36591D02*
X-108982Y37391D01*
X-109381Y38191D01*
X-108581Y37791D01*
X-107782Y38191D01*
X-108182Y37391D01*
X-107782Y36591D01*
X-108581Y36991D01*
X-109381Y36591D01*
X-106753Y37257D02*
X-106353Y38057D01*
X-106753Y38857D01*
X-105953Y38457D01*
X-105153Y38857D01*
X-105553Y38057D01*
X-105153Y37257D01*
X-105953Y37657D01*
X-106753Y37257D01*
X-116715Y-29049D02*
X-116315Y-28249D01*
X-116715Y-27449D01*
X-115915Y-27849D01*
X-115115Y-27449D01*
X-115515Y-28249D01*
X-115115Y-29049D01*
X-115915Y-28649D01*
X-116715Y-29049D01*
X-113234Y14639D02*
X-112834Y15439D01*
X-113234Y16239D01*
X-112434Y15839D01*
X-111634Y16239D01*
X-112034Y15439D01*
X-111634Y14639D01*
X-112434Y15039D01*
X-113234Y14639D01*
X-107334Y14539D02*
X-106934Y15339D01*
X-107334Y16139D01*
X-106534Y15739D01*
X-105734Y16139D01*
X-106134Y15339D01*
X-105734Y14539D01*
X-106534Y14939D01*
X-107334Y14539D01*
X112977Y-84114D02*
X113377Y-83314D01*
X112977Y-82514D01*
X113777Y-82914D01*
X114577Y-82514D01*
X114177Y-83314D01*
X114577Y-84114D01*
X113777Y-83714D01*
X112977Y-84114D01*
X84000Y-119600D02*
X84400Y-118800D01*
X84000Y-118000D01*
X84800Y-118400D01*
X85600Y-118000D01*
X85200Y-118800D01*
X85600Y-119600D01*
X84800Y-119200D01*
X84000Y-119600D01*
X79200Y-116600D02*
X79600Y-115800D01*
X79200Y-115000D01*
X80000Y-115400D01*
X80800Y-115000D01*
X80400Y-115800D01*
X80800Y-116600D01*
X80000Y-116200D01*
X79200Y-116600D01*
X81300Y-66900D02*
X81700Y-66100D01*
X81300Y-65300D01*
X82100Y-65700D01*
X82900Y-65300D01*
X82500Y-66100D01*
X82900Y-66900D01*
X82100Y-66500D01*
X81300Y-66900D01*
X72500Y-58400D02*
X72900Y-57600D01*
X72500Y-56800D01*
X73300Y-57200D01*
X74100Y-56800D01*
X73700Y-57600D01*
X74100Y-58400D01*
X73300Y-58000D01*
X72500Y-58400D01*
X44000Y-58000D02*
X44400Y-57200D01*
X44000Y-56400D01*
X44800Y-56800D01*
X45600Y-56400D01*
X45200Y-57200D01*
X45600Y-58000D01*
X44800Y-57600D01*
X44000Y-58000D01*
X37800Y-56800D02*
X38200Y-56000D01*
X37800Y-55200D01*
X38600Y-55600D01*
X39400Y-55200D01*
X39000Y-56000D01*
X39400Y-56800D01*
X38600Y-56400D01*
X37800Y-56800D01*
X33000Y-55800D02*
X33400Y-55000D01*
X33000Y-54200D01*
X33800Y-54600D01*
X34600Y-54200D01*
X34200Y-55000D01*
X34600Y-55800D01*
X33800Y-55400D01*
X33000Y-55800D01*
X-42400Y98300D02*
X-42000Y99100D01*
X-42400Y99900D01*
X-41600Y99500D01*
X-40800Y99900D01*
X-41200Y99100D01*
X-40800Y98300D01*
X-41600Y98700D01*
X-42400Y98300D01*
X-21600Y50600D02*
X-21200Y51400D01*
X-21600Y52200D01*
X-20800Y51800D01*
X-20000Y52200D01*
X-20400Y51400D01*
X-20000Y50600D01*
X-20800Y51000D01*
X-21600Y50600D01*
X50400Y9400D02*
X50800Y10200D01*
X50400Y11000D01*
X51200Y10600D01*
X52000Y11000D01*
X51600Y10200D01*
X52000Y9400D01*
X51200Y9800D01*
X50400Y9400D01*
X48000Y8800D02*
X48400Y9600D01*
X48000Y10400D01*
X48800Y10000D01*
X49600Y10400D01*
X49200Y9600D01*
X49600Y8800D01*
X48800Y9200D01*
X48000Y8800D01*
X54900Y9200D02*
X55300Y10000D01*
X54900Y10800D01*
X55700Y10400D01*
X56500Y10800D01*
X56100Y10000D01*
X56500Y9200D01*
X55700Y9600D01*
X54900Y9200D01*
X59000Y8400D02*
X59400Y9200D01*
X59000Y10000D01*
X59800Y9600D01*
X60600Y10000D01*
X60200Y9200D01*
X60600Y8400D01*
X59800Y8800D01*
X59000Y8400D01*
X56200Y5700D02*
X56600Y6500D01*
X56200Y7300D01*
X57000Y6900D01*
X57800Y7300D01*
X57400Y6500D01*
X57800Y5700D01*
X57000Y6100D01*
X56200Y5700D01*
X63700Y4200D02*
X64100Y5000D01*
X63700Y5800D01*
X64500Y5400D01*
X65300Y5800D01*
X64900Y5000D01*
X65300Y4200D01*
X64500Y4600D01*
X63700Y4200D01*
X60000Y5200D02*
X60400Y6000D01*
X60000Y6800D01*
X60800Y6400D01*
X61600Y6800D01*
X61200Y6000D01*
X61600Y5200D01*
X60800Y5600D01*
X60000Y5200D01*
X62900Y8400D02*
X63300Y9200D01*
X62900Y10000D01*
X63700Y9600D01*
X64500Y10000D01*
X64100Y9200D01*
X64500Y8400D01*
X63700Y8800D01*
X62900Y8400D01*
X91000Y11000D02*
X91400Y11800D01*
X91000Y12600D01*
X91800Y12200D01*
X92600Y12600D01*
X92200Y11800D01*
X92600Y11000D01*
X91800Y11400D01*
X91000Y11000D01*
X-39100Y76700D02*
X-38700Y77500D01*
X-39100Y78300D01*
X-38300Y77900D01*
X-37500Y78300D01*
X-37900Y77500D01*
X-37500Y76700D01*
X-38300Y77100D01*
X-39100Y76700D01*
X-33800Y47900D02*
X-33400Y48700D01*
X-33800Y49500D01*
X-33000Y49100D01*
X-32200Y49500D01*
X-32600Y48700D01*
X-32200Y47900D01*
X-33000Y48300D01*
X-33800Y47900D01*
X-29400Y69900D02*
X-29000Y70700D01*
X-29400Y71500D01*
X-28600Y71100D01*
X-27800Y71500D01*
X-28200Y70700D01*
X-27800Y69900D01*
X-28600Y70300D01*
X-29400Y69900D01*
X-35500Y61700D02*
X-35100Y62500D01*
X-35500Y63300D01*
X-34700Y62900D01*
X-33900Y63300D01*
X-34300Y62500D01*
X-33900Y61700D01*
X-34700Y62100D01*
X-35500Y61700D01*
X-15200Y64400D02*
X-14800Y65200D01*
X-15200Y66000D01*
X-14400Y65600D01*
X-13600Y66000D01*
X-14000Y65200D01*
X-13600Y64400D01*
X-14400Y64800D01*
X-15200Y64400D01*
X-31000Y61100D02*
X-30600Y61900D01*
X-31000Y62700D01*
X-30200Y62300D01*
X-29400Y62700D01*
X-29800Y61900D01*
X-29400Y61100D01*
X-30200Y61500D01*
X-31000Y61100D01*
X-27500Y57800D02*
X-27100Y58600D01*
X-27500Y59400D01*
X-26700Y59000D01*
X-25900Y59400D01*
X-26300Y58600D01*
X-25900Y57800D01*
X-26700Y58200D01*
X-27500Y57800D01*
X-21200Y60800D02*
X-20800Y61600D01*
X-21200Y62400D01*
X-20400Y62000D01*
X-19600Y62400D01*
X-20000Y61600D01*
X-19600Y60800D01*
X-20400Y61200D01*
X-21200Y60800D01*
X-24300Y52700D02*
X-23900Y53500D01*
X-24300Y54300D01*
X-23500Y53900D01*
X-22700Y54300D01*
X-23100Y53500D01*
X-22700Y52700D01*
X-23500Y53100D01*
X-24300Y52700D01*
X-15500Y54000D02*
X-15100Y54800D01*
X-15500Y55600D01*
X-14700Y55200D01*
X-13900Y55600D01*
X-14300Y54800D01*
X-13900Y54000D01*
X-14700Y54400D01*
X-15500Y54000D01*
X-59000Y22800D02*
X-58600Y23600D01*
X-59000Y24400D01*
X-58200Y24000D01*
X-57400Y24400D01*
X-57800Y23600D01*
X-57400Y22800D01*
X-58200Y23200D01*
X-59000Y22800D01*
X-36700Y48000D02*
X-36300Y48800D01*
X-36700Y49600D01*
X-35900Y49200D01*
X-35100Y49600D01*
X-35500Y48800D01*
X-35100Y48000D01*
X-35900Y48400D01*
X-36700Y48000D01*
X-40400Y44300D02*
X-40000Y45100D01*
X-40400Y45900D01*
X-39600Y45500D01*
X-38800Y45900D01*
X-39200Y45100D01*
X-38800Y44300D01*
X-39600Y44700D01*
X-40400Y44300D01*
X-44200Y40400D02*
X-43800Y41200D01*
X-44200Y42000D01*
X-43400Y41600D01*
X-42600Y42000D01*
X-43000Y41200D01*
X-42600Y40400D01*
X-43400Y40800D01*
X-44200Y40400D01*
X-48100Y36600D02*
X-47700Y37400D01*
X-48100Y38200D01*
X-47300Y37800D01*
X-46500Y38200D01*
X-46900Y37400D01*
X-46500Y36600D01*
X-47300Y37000D01*
X-48100Y36600D01*
X-66000Y28800D02*
X-65600Y29600D01*
X-66000Y30400D01*
X-65200Y30000D01*
X-64400Y30400D01*
X-64800Y29600D01*
X-64400Y28800D01*
X-65200Y29200D01*
X-66000Y28800D01*
X-63400Y26500D02*
X-63000Y27300D01*
X-63400Y28100D01*
X-62600Y27700D01*
X-61800Y28100D01*
X-62200Y27300D01*
X-61800Y26500D01*
X-62600Y26900D01*
X-63400Y26500D01*
X-56700Y19700D02*
X-56300Y20500D01*
X-56700Y21300D01*
X-55900Y20900D01*
X-55100Y21300D01*
X-55500Y20500D01*
X-55100Y19700D01*
X-55900Y20100D01*
X-56700Y19700D01*
X-51800Y15200D02*
X-51400Y16000D01*
X-51800Y16800D01*
X-51000Y16400D01*
X-50200Y16800D01*
X-50600Y16000D01*
X-50200Y15200D01*
X-51000Y15600D01*
X-51800Y15200D01*
X-43500Y19300D02*
X-43100Y20100D01*
X-43500Y20900D01*
X-42700Y20500D01*
X-41900Y20900D01*
X-42300Y20100D01*
X-41900Y19300D01*
X-42700Y19700D01*
X-43500Y19300D01*
X-45800Y17400D02*
X-45400Y18200D01*
X-45800Y19000D01*
X-45000Y18600D01*
X-44200Y19000D01*
X-44600Y18200D01*
X-44200Y17400D01*
X-45000Y17800D01*
X-45800Y17400D01*
X-47900Y16000D02*
X-47500Y16800D01*
X-47900Y17600D01*
X-47100Y17200D01*
X-46300Y17600D01*
X-46700Y16800D01*
X-46300Y16000D01*
X-47100Y16400D01*
X-47900Y16000D01*
X-33100Y28700D02*
X-32700Y29500D01*
X-33100Y30300D01*
X-32300Y29900D01*
X-31500Y30300D01*
X-31900Y29500D01*
X-31500Y28700D01*
X-32300Y29100D01*
X-33100Y28700D01*
X-35600Y23700D02*
X-35200Y24500D01*
X-35600Y25300D01*
X-34800Y24900D01*
X-34000Y25300D01*
X-34400Y24500D01*
X-34000Y23700D01*
X-34800Y24100D01*
X-35600Y23700D01*
X-37422Y22182D02*
X-37022Y22982D01*
X-37422Y23782D01*
X-36622Y23382D01*
X-35822Y23782D01*
X-36222Y22982D01*
X-35822Y22182D01*
X-36622Y22582D01*
X-37422Y22182D01*
X-64300Y42900D02*
X-63900Y43700D01*
X-64300Y44500D01*
X-63500Y44100D01*
X-62700Y44500D01*
X-63100Y43700D01*
X-62700Y42900D01*
X-63500Y43300D01*
X-64300Y42900D01*
X-61500Y46100D02*
X-61100Y46900D01*
X-61500Y47700D01*
X-60700Y47300D01*
X-59900Y47700D01*
X-60300Y46900D01*
X-59900Y46100D01*
X-60700Y46500D01*
X-61500Y46100D01*
X-58500Y48500D02*
X-58100Y49300D01*
X-58500Y50100D01*
X-57700Y49700D01*
X-56900Y50100D01*
X-57300Y49300D01*
X-56900Y48500D01*
X-57700Y48900D01*
X-58500Y48500D01*
X-51600Y58200D02*
X-51200Y59000D01*
X-51600Y59800D01*
X-50800Y59400D01*
X-50000Y59800D01*
X-50400Y59000D01*
X-50000Y58200D01*
X-50800Y58600D01*
X-51600Y58200D01*
X-46600Y55200D02*
X-46200Y56000D01*
X-46600Y56800D01*
X-45800Y56400D01*
X-45000Y56800D01*
X-45400Y56000D01*
X-45000Y55200D01*
X-45800Y55600D01*
X-46600Y55200D01*
X-48500Y53300D02*
X-48100Y54100D01*
X-48500Y54900D01*
X-47700Y54500D01*
X-46900Y54900D01*
X-47300Y54100D01*
X-46900Y53300D01*
X-47700Y53700D01*
X-48500Y53300D01*
X-50600Y51100D02*
X-50200Y51900D01*
X-50600Y52700D01*
X-49800Y52300D01*
X-49000Y52700D01*
X-49400Y51900D01*
X-49000Y51100D01*
X-49800Y51500D01*
X-50600Y51100D01*
X-57000Y66600D02*
X-56600Y67400D01*
X-57000Y68200D01*
X-56200Y67800D01*
X-55400Y68200D01*
X-55800Y67400D01*
X-55400Y66600D01*
X-56200Y67000D01*
X-57000Y66600D01*
X60300Y-6000D02*
X60700Y-5200D01*
X60300Y-4400D01*
X61100Y-4800D01*
X61900Y-4400D01*
X61500Y-5200D01*
X61900Y-6000D01*
X61100Y-5600D01*
X60300Y-6000D01*
X55800Y-21500D02*
X56200Y-20700D01*
X55800Y-19900D01*
X56600Y-20300D01*
X57400Y-19900D01*
X57000Y-20700D01*
X57400Y-21500D01*
X56600Y-21100D01*
X55800Y-21500D01*
X62800Y-5300D02*
X63200Y-4500D01*
X62800Y-3700D01*
X63600Y-4100D01*
X64400Y-3700D01*
X64000Y-4500D01*
X64400Y-5300D01*
X63600Y-4900D01*
X62800Y-5300D01*
X57100Y-16400D02*
X57500Y-15600D01*
X57100Y-14800D01*
X57900Y-15200D01*
X58700Y-14800D01*
X58300Y-15600D01*
X58700Y-16400D01*
X57900Y-16000D01*
X57100Y-16400D01*
X58600Y-11000D02*
X59000Y-10200D01*
X58600Y-9400D01*
X59400Y-9800D01*
X60200Y-9400D01*
X59800Y-10200D01*
X60200Y-11000D01*
X59400Y-10600D01*
X58600Y-11000D01*
X53000Y-39700D02*
X53400Y-38900D01*
X53000Y-38100D01*
X53800Y-38500D01*
X54600Y-38100D01*
X54200Y-38900D01*
X54600Y-39700D01*
X53800Y-39300D01*
X53000Y-39700D01*
X66300Y-39800D02*
X66700Y-39000D01*
X66300Y-38200D01*
X67100Y-38600D01*
X67900Y-38200D01*
X67500Y-39000D01*
X67900Y-39800D01*
X67100Y-39400D01*
X66300Y-39800D01*
X63500Y-42400D02*
X63900Y-41600D01*
X63500Y-40800D01*
X64300Y-41200D01*
X65100Y-40800D01*
X64700Y-41600D01*
X65100Y-42400D01*
X64300Y-42000D01*
X63500Y-42400D01*
X66900Y-33900D02*
X67300Y-33100D01*
X66900Y-32300D01*
X67700Y-32700D01*
X68500Y-32300D01*
X68100Y-33100D01*
X68500Y-33900D01*
X67700Y-33500D01*
X66900Y-33900D01*
X65400Y-37500D02*
X65800Y-36700D01*
X65400Y-35900D01*
X66200Y-36300D01*
X67000Y-35900D01*
X66600Y-36700D01*
X67000Y-37500D01*
X66200Y-37100D01*
X65400Y-37500D01*
X73500Y-21300D02*
X73900Y-20500D01*
X73500Y-19700D01*
X74300Y-20100D01*
X75100Y-19700D01*
X74700Y-20500D01*
X75100Y-21300D01*
X74300Y-20900D01*
X73500Y-21300D01*
X72981Y-29374D02*
X73381Y-28574D01*
X72981Y-27774D01*
X73781Y-28174D01*
X74581Y-27774D01*
X74181Y-28574D01*
X74581Y-29374D01*
X73781Y-28974D01*
X72981Y-29374D01*
X72421Y-26122D02*
X72821Y-25321D01*
X72421Y-24521D01*
X73221Y-24922D01*
X74022Y-24521D01*
X73621Y-25321D01*
X74022Y-26122D01*
X73221Y-25721D01*
X72421Y-26122D01*
X37300Y-28100D02*
X37700Y-27300D01*
X37300Y-26500D01*
X38100Y-26900D01*
X38900Y-26500D01*
X38500Y-27300D01*
X38900Y-28100D01*
X38100Y-27700D01*
X37300Y-28100D01*
X38400Y-24200D02*
X38800Y-23400D01*
X38400Y-22600D01*
X39200Y-23000D01*
X40000Y-22600D01*
X39600Y-23400D01*
X40000Y-24200D01*
X39200Y-23800D01*
X38400Y-24200D01*
X39400Y-20400D02*
X39800Y-19600D01*
X39400Y-18800D01*
X40200Y-19200D01*
X41000Y-18800D01*
X40600Y-19600D01*
X41000Y-20400D01*
X40200Y-20000D01*
X39400Y-20400D01*
X40100Y-16500D02*
X40500Y-15700D01*
X40100Y-14900D01*
X40900Y-15300D01*
X41700Y-14900D01*
X41300Y-15700D01*
X41700Y-16500D01*
X40900Y-16100D01*
X40100Y-16500D01*
X45324Y-3700D02*
X45724Y-2900D01*
X45324Y-2100D01*
X46124Y-2500D01*
X46924Y-2100D01*
X46524Y-2900D01*
X46924Y-3700D01*
X46124Y-3300D01*
X45324Y-3700D01*
X41400Y-4600D02*
X41800Y-3800D01*
X41400Y-3000D01*
X42200Y-3400D01*
X43000Y-3000D01*
X42600Y-3800D01*
X43000Y-4600D01*
X42200Y-4200D01*
X41400Y-4600D01*
X34800Y-34600D02*
X35200Y-33800D01*
X34800Y-33000D01*
X35600Y-33400D01*
X36400Y-33000D01*
X36000Y-33800D01*
X36400Y-34600D01*
X35600Y-34200D01*
X34800Y-34600D01*
X44500Y-37500D02*
X44900Y-36700D01*
X44500Y-35900D01*
X45300Y-36300D01*
X46100Y-35900D01*
X45700Y-36700D01*
X46100Y-37500D01*
X45300Y-37100D01*
X44500Y-37500D01*
X47700Y-38300D02*
X48100Y-37500D01*
X47700Y-36700D01*
X48500Y-37100D01*
X49300Y-36700D01*
X48900Y-37500D01*
X49300Y-38300D01*
X48500Y-37900D01*
X47700Y-38300D01*
X50200Y-39200D02*
X50600Y-38400D01*
X50200Y-37600D01*
X51000Y-38000D01*
X51800Y-37600D01*
X51400Y-38400D01*
X51800Y-39200D01*
X51000Y-38800D01*
X50200Y-39200D01*
X55900Y-40400D02*
X56300Y-39600D01*
X55900Y-38800D01*
X56700Y-39200D01*
X57500Y-38800D01*
X57100Y-39600D01*
X57500Y-40400D01*
X56700Y-40000D01*
X55900Y-40400D01*
X33400Y-1800D02*
X33800Y-1000D01*
X33400Y-200D01*
X34200Y-600D01*
X35000Y-200D01*
X34600Y-1000D01*
X35000Y-1800D01*
X34200Y-1400D01*
X33400Y-1800D01*
X-107429Y-46876D02*
X-107029Y-46076D01*
X-107429Y-45276D01*
X-106629Y-45676D01*
X-105829Y-45276D01*
X-106229Y-46076D01*
X-105829Y-46876D01*
X-106629Y-46476D01*
X-107429Y-46876D01*
X-121159Y-49496D02*
X-120759Y-48696D01*
X-121159Y-47896D01*
X-120359Y-48296D01*
X-119559Y-47896D01*
X-119959Y-48696D01*
X-119559Y-49496D01*
X-120359Y-49096D01*
X-121159Y-49496D01*
X-124109Y-66304D02*
X-123709Y-65504D01*
X-124109Y-64705D01*
X-123310Y-65105D01*
X-122510Y-64705D01*
X-122909Y-65504D01*
X-122510Y-66304D01*
X-123310Y-65904D01*
X-124109Y-66304D01*
X-126476Y-65670D02*
X-126076Y-64870D01*
X-126476Y-64070D01*
X-125676Y-64470D01*
X-124876Y-64070D01*
X-125276Y-64870D01*
X-124876Y-65670D01*
X-125676Y-65270D01*
X-126476Y-65670D01*
X-128843Y-65036D02*
X-128443Y-64236D01*
X-128843Y-63436D01*
X-128043Y-63836D01*
X-127243Y-63436D01*
X-127643Y-64236D01*
X-127243Y-65036D01*
X-128043Y-64636D01*
X-128843Y-65036D01*
X-127207Y-38454D02*
X-126807Y-37654D01*
X-127207Y-36854D01*
X-126407Y-37254D01*
X-125607Y-36854D01*
X-126007Y-37654D01*
X-125607Y-38454D01*
X-126407Y-38054D01*
X-127207Y-38454D01*
X-122860Y-39619D02*
X-122460Y-38819D01*
X-122860Y-38019D01*
X-122060Y-38419D01*
X-121260Y-38019D01*
X-121660Y-38819D01*
X-121260Y-39619D01*
X-122060Y-39219D01*
X-122860Y-39619D01*
X-125033Y-39036D02*
X-124634Y-38236D01*
X-125033Y-37436D01*
X-124233Y-37836D01*
X-123433Y-37436D01*
X-123834Y-38236D01*
X-123433Y-39036D01*
X-124233Y-38636D01*
X-125033Y-39036D01*
X11750Y-122200D02*
X12150Y-121400D01*
X11750Y-120600D01*
X12550Y-121000D01*
X13350Y-120600D01*
X12950Y-121400D01*
X13350Y-122200D01*
X12550Y-121800D01*
X11750Y-122200D01*
X14000D02*
X14400Y-121400D01*
X14000Y-120600D01*
X14800Y-121000D01*
X15600Y-120600D01*
X15200Y-121400D01*
X15600Y-122200D01*
X14800Y-121800D01*
X14000Y-122200D01*
X9500D02*
X9900Y-121400D01*
X9500Y-120600D01*
X10300Y-121000D01*
X11100Y-120600D01*
X10700Y-121400D01*
X11100Y-122200D01*
X10300Y-121800D01*
X9500Y-122200D01*
X18200Y-131300D02*
X18600Y-130500D01*
X18200Y-129700D01*
X19000Y-130100D01*
X19800Y-129700D01*
X19400Y-130500D01*
X19800Y-131300D01*
X19000Y-130900D01*
X18200Y-131300D01*
X30784Y-125216D02*
X31183Y-124416D01*
X30784Y-123617D01*
X31583Y-124016D01*
X32383Y-123617D01*
X31984Y-124416D01*
X32383Y-125216D01*
X31583Y-124817D01*
X30784Y-125216D01*
X17200Y-110400D02*
X17600Y-109600D01*
X17200Y-108800D01*
X18000Y-109200D01*
X18800Y-108800D01*
X18400Y-109600D01*
X18800Y-110400D01*
X18000Y-110000D01*
X17200Y-110400D01*
X19200Y-117300D02*
X19600Y-116500D01*
X19200Y-115700D01*
X20000Y-116100D01*
X20800Y-115700D01*
X20400Y-116500D01*
X20800Y-117300D01*
X20000Y-116900D01*
X19200Y-117300D01*
X52200Y7200D02*
X52600Y8000D01*
X52200Y8800D01*
X53000Y8400D01*
X53800Y8800D01*
X53400Y8000D01*
X53800Y7200D01*
X53000Y7600D01*
X52200Y7200D01*
X117014Y-77229D02*
X117414Y-76429D01*
X117014Y-75629D01*
X117814Y-76029D01*
X118614Y-75629D01*
X118214Y-76429D01*
X118614Y-77229D01*
X117814Y-76829D01*
X117014Y-77229D01*
X53043Y-102129D02*
X53443Y-101329D01*
X53043Y-100529D01*
X53843Y-100929D01*
X54643Y-100529D01*
X54243Y-101329D01*
X54643Y-102129D01*
X53843Y-101729D01*
X53043Y-102129D01*
X27443Y-119803D02*
Y-120203D01*
X28243D01*
Y-119803D01*
X28643D01*
Y-119003D01*
X28243D01*
Y-118603D01*
X27443D01*
Y-119003D01*
X27043D01*
Y-119803D01*
X27443D01*
Y-114291D02*
Y-114691D01*
X28243D01*
Y-114291D01*
X28643D01*
Y-113491D01*
X28243D01*
Y-113091D01*
X27443D01*
Y-113491D01*
X27043D01*
Y-114291D01*
X27443D01*
X27443Y-117047D02*
Y-117447D01*
X28243D01*
Y-117047D01*
X28643D01*
Y-116247D01*
X28243D01*
Y-115847D01*
X27443D01*
Y-116247D01*
X27043D01*
Y-117047D01*
X27443D01*
D12*
X-133634Y21881D02*
G03*
X-133634Y21881I-800J0D01*
G01*
X-133634Y16960D02*
G03*
X-133634Y16960I-800J0D01*
G01*
X-133634Y26802D02*
G03*
X-133634Y26802I-800J0D01*
G01*
Y7117D02*
G03*
X-133634Y7117I-800J0D01*
G01*
X-133634Y12039D02*
G03*
X-133634Y12039I-800J0D01*
G01*
X76840Y-100075D02*
G03*
X76840Y-100075I-800J0D01*
G01*
X72578Y-97614D02*
G03*
X72578Y-97614I-800J0D01*
G01*
X68316Y-95153D02*
G03*
X68316Y-95153I-800J0D01*
G01*
X64054Y-92693D02*
G03*
X64054Y-92693I-800J0D01*
G01*
X59792Y-90232D02*
G03*
X59792Y-90232I-800J0D01*
G01*
M02*
