G04*
G04 #@! TF.GenerationSoftware,Altium Limited,Altium Designer,21.1.1 (26)*
G04*
G04 Layer_Physical_Order=2*
G04 Layer_Color=36540*
%FSLAX25Y25*%
%MOIN*%
G70*
G04*
G04 #@! TF.SameCoordinates,985859E8-4EFC-4F0D-9A30-7684DD2826E4*
G04*
G04*
G04 #@! TF.FilePolarity,Positive*
G04*
G01*
G75*
%ADD18C,0.00600*%
%ADD190C,0.00600*%
%ADD215O,0.08268X0.07087*%
G04:AMPARAMS|DCode=219|XSize=70.87mil|YSize=82.68mil|CornerRadius=0mil|HoleSize=0mil|Usage=FLASHONLY|Rotation=345.000|XOffset=0mil|YOffset=0mil|HoleType=Round|Shape=Round|*
%AMOVALD219*
21,1,0.01181,0.07087,0.00000,0.00000,75.0*
1,1,0.07087,-0.00153,-0.00570*
1,1,0.07087,0.00153,0.00570*
%
%ADD219OVALD219*%

G04:AMPARAMS|DCode=221|XSize=70.87mil|YSize=82.68mil|CornerRadius=0mil|HoleSize=0mil|Usage=FLASHONLY|Rotation=150.000|XOffset=0mil|YOffset=0mil|HoleType=Round|Shape=Round|*
%AMOVALD221*
21,1,0.01181,0.07087,0.00000,0.00000,240.0*
1,1,0.07087,0.00295,0.00511*
1,1,0.07087,-0.00295,-0.00511*
%
%ADD221OVALD221*%

G04:AMPARAMS|DCode=223|XSize=70.87mil|YSize=82.68mil|CornerRadius=0mil|HoleSize=0mil|Usage=FLASHONLY|Rotation=135.000|XOffset=0mil|YOffset=0mil|HoleType=Round|Shape=Round|*
%AMOVALD223*
21,1,0.01181,0.07087,0.00000,0.00000,225.0*
1,1,0.07087,0.00418,0.00418*
1,1,0.07087,-0.00418,-0.00418*
%
%ADD223OVALD223*%

G04:AMPARAMS|DCode=225|XSize=70.87mil|YSize=82.68mil|CornerRadius=0mil|HoleSize=0mil|Usage=FLASHONLY|Rotation=120.000|XOffset=0mil|YOffset=0mil|HoleType=Round|Shape=Round|*
%AMOVALD225*
21,1,0.01181,0.07087,0.00000,0.00000,210.0*
1,1,0.07087,0.00511,0.00295*
1,1,0.07087,-0.00511,-0.00295*
%
%ADD225OVALD225*%

%ADD228O,0.07087X0.08268*%
%ADD230O,0.03543X0.03150*%
G04:AMPARAMS|DCode=232|XSize=35.43mil|YSize=31.5mil|CornerRadius=0mil|HoleSize=0mil|Usage=FLASHONLY|Rotation=240.000|XOffset=0mil|YOffset=0mil|HoleType=Round|Shape=Round|*
%AMOVALD232*
21,1,0.00394,0.03150,0.00000,0.00000,240.0*
1,1,0.03150,0.00098,0.00171*
1,1,0.03150,-0.00098,-0.00171*
%
%ADD232OVALD232*%

%ADD234C,0.05906*%
G04:AMPARAMS|DCode=236|XSize=40mil|YSize=60mil|CornerRadius=0mil|HoleSize=0mil|Usage=FLASHONLY|Rotation=105.000|XOffset=0mil|YOffset=0mil|HoleType=Round|Shape=Round|*
%AMOVALD236*
21,1,0.02000,0.04000,0.00000,0.00000,195.0*
1,1,0.04000,0.00966,0.00259*
1,1,0.04000,-0.00966,-0.00259*
%
%ADD236OVALD236*%

%ADD237O,0.06000X0.04000*%
%ADD238C,0.01772*%
%ADD239C,0.01968*%
G36*
X-31520Y167758D02*
Y113722D01*
X-42027Y103215D01*
X-42079Y103138D01*
X-42145Y103074D01*
X-42188Y102974D01*
X-42248Y102884D01*
X-42266Y102793D01*
X-42303Y102708D01*
X-42305Y102600D01*
X-42326Y102494D01*
X-42308Y102403D01*
X-42309Y102311D01*
X-42228Y101865D01*
X-42186Y101760D01*
X-42163Y101648D01*
X-42257Y101419D01*
X-42956Y101129D01*
X-43629Y100456D01*
X-43919Y99757D01*
X-44148Y99663D01*
X-44260Y99686D01*
X-44365Y99728D01*
X-44811Y99809D01*
X-44903Y99808D01*
X-44994Y99826D01*
X-45100Y99805D01*
X-45208Y99803D01*
X-45293Y99766D01*
X-45384Y99748D01*
X-45474Y99688D01*
X-45573Y99645D01*
X-45638Y99579D01*
X-45715Y99527D01*
X-46161Y99081D01*
X-46270Y99113D01*
X-46477Y100214D01*
X-45953Y100616D01*
X-45225Y101565D01*
X-44767Y102670D01*
X-44611Y103856D01*
Y103946D01*
X-49194D01*
Y104446D01*
X-49694D01*
Y109554D01*
X-50380Y109463D01*
X-51485Y109006D01*
X-52434Y108277D01*
X-52650Y107995D01*
X-53650Y108335D01*
Y110580D01*
X-64737D01*
Y98720D01*
X-70100D01*
X-70490Y98642D01*
X-70821Y98421D01*
X-72321Y96921D01*
X-72542Y96590D01*
X-72620Y96200D01*
Y54022D01*
X-78321Y48321D01*
X-78542Y47990D01*
X-78620Y47600D01*
Y43919D01*
X-79620Y43505D01*
X-79644Y43529D01*
X-80524Y43894D01*
X-81476D01*
X-82356Y43529D01*
X-83029Y42856D01*
X-83394Y41976D01*
Y41024D01*
X-83064Y40227D01*
X-83255Y39803D01*
X-83593Y39294D01*
X-84176D01*
X-85056Y38929D01*
X-85729Y38256D01*
X-86094Y37376D01*
Y36424D01*
X-85729Y35544D01*
X-85056Y34871D01*
X-84176Y34506D01*
X-83224D01*
X-82344Y34871D01*
X-81671Y35544D01*
X-81306Y36424D01*
Y37376D01*
X-81636Y38173D01*
X-81445Y38597D01*
X-81107Y39106D01*
X-80524D01*
X-79644Y39471D01*
X-79620Y39495D01*
X-78620Y39081D01*
Y36300D01*
X-78542Y35910D01*
X-78321Y35579D01*
X-45221Y2479D01*
X-44890Y2258D01*
X-44500Y2180D01*
X-37401D01*
X-37303Y2200D01*
X-37202D01*
X-37110Y2238D01*
X-37011Y2258D01*
X-36927Y2314D01*
X-36835Y2352D01*
X-36284D01*
X-35989Y2258D01*
X-35890Y2238D01*
X-35798Y2200D01*
X-35697D01*
X-35599Y2180D01*
X-31682D01*
X-30995Y1454D01*
X-31076Y0D01*
X-30881Y-3480D01*
X-30297Y-6915D01*
X-29333Y-10264D01*
X-27999Y-13484D01*
X-26313Y-16534D01*
X-24296Y-19376D01*
X-21974Y-21974D01*
X-19376Y-24296D01*
X-16534Y-26313D01*
X-13484Y-27999D01*
X-10264Y-29333D01*
X-7798Y-30043D01*
X-7038Y-30624D01*
Y-32869D01*
X-8038Y-33209D01*
X-8255Y-32927D01*
X-9204Y-32199D01*
X-10309Y-31741D01*
X-10995Y-31651D01*
Y-36758D01*
Y-41865D01*
X-10309Y-41775D01*
X-9204Y-41317D01*
X-8255Y-40589D01*
X-8038Y-40307D01*
X-7038Y-40646D01*
Y-42892D01*
X4048D01*
Y-31674D01*
X4501Y-31464D01*
X5462Y-32120D01*
Y-42892D01*
X16548D01*
Y-40646D01*
X17548Y-40307D01*
X17765Y-40589D01*
X18714Y-41317D01*
X19819Y-41775D01*
X20505Y-41865D01*
Y-36758D01*
Y-31651D01*
X19819Y-31741D01*
X18714Y-32199D01*
X17765Y-32927D01*
X17548Y-33209D01*
X16548Y-32869D01*
Y-30624D01*
X9394D01*
X9252Y-29624D01*
X10264Y-29333D01*
X13484Y-27999D01*
X16534Y-26313D01*
X17605Y-25553D01*
X18570Y-25846D01*
X18730Y-25981D01*
X18748Y-26015D01*
X18782Y-26042D01*
X18807Y-26078D01*
X18937Y-26165D01*
X19060Y-26263D01*
X19101Y-26275D01*
X19137Y-26299D01*
X19291Y-26330D01*
X19442Y-26373D01*
X19485Y-26368D01*
X19527Y-26377D01*
X20135D01*
X39279Y-45521D01*
X39610Y-45742D01*
X40000Y-45820D01*
X63157D01*
X63256Y-45800D01*
X63356D01*
X63449Y-45762D01*
X63547Y-45742D01*
X63631Y-45686D01*
X63724Y-45648D01*
X63972Y-45592D01*
X64300Y-45561D01*
X64628Y-45592D01*
X64876Y-45648D01*
X64969Y-45686D01*
X65052Y-45742D01*
X65151Y-45762D01*
X65244Y-45800D01*
X65344D01*
X65443Y-45820D01*
X70390D01*
X70488Y-45800D01*
X70589D01*
X70682Y-45762D01*
X70780Y-45742D01*
X70864Y-45686D01*
X70956Y-45648D01*
X71027Y-45577D01*
X71111Y-45521D01*
X71167Y-45437D01*
X71238Y-45366D01*
X71454Y-45043D01*
X71492Y-44950D01*
X71548Y-44866D01*
X71568Y-44768D01*
X71606Y-44675D01*
Y-44575D01*
X71626Y-44476D01*
Y-43727D01*
X71835Y-43222D01*
X72222Y-42835D01*
X72727Y-42626D01*
X73273D01*
X73778Y-42835D01*
X73972Y-43028D01*
X74302Y-43249D01*
X74693Y-43327D01*
X75083Y-43249D01*
X75414Y-43028D01*
X75417Y-43025D01*
X76236Y-43598D01*
X73983Y-48458D01*
X73981Y-48464D01*
X73941Y-48525D01*
X73794Y-49266D01*
X73849Y-49547D01*
X73853Y-49661D01*
X73854Y-49697D01*
X73854Y-49697D01*
Y-49698D01*
X73855Y-49699D01*
X74986Y-54625D01*
X74127Y-55352D01*
X73776Y-55206D01*
X72824D01*
X71944Y-55571D01*
X71271Y-56244D01*
X70906Y-57124D01*
Y-58076D01*
X70974Y-58240D01*
X70371Y-58844D01*
X70006Y-59724D01*
Y-60676D01*
X70371Y-61556D01*
X71044Y-62229D01*
X71924Y-62594D01*
X72876D01*
X73756Y-62229D01*
X74429Y-61556D01*
X74794Y-60676D01*
Y-60226D01*
X75165Y-59872D01*
X76267Y-60202D01*
X78592Y-70328D01*
X78637Y-70429D01*
X78679Y-70636D01*
X78740Y-70728D01*
X78750Y-70763D01*
X80398Y-74016D01*
X79773Y-74997D01*
X79398D01*
X78518Y-75361D01*
X77845Y-76034D01*
X77610Y-76602D01*
X76556Y-76991D01*
X67115Y-68288D01*
X66974Y-68202D01*
X66847Y-68096D01*
X66755Y-68068D01*
X66674Y-68018D01*
X66511Y-67993D01*
X66353Y-67944D01*
X47774Y-66025D01*
X47404Y-64981D01*
X47529Y-64856D01*
X47894Y-63976D01*
Y-63024D01*
X47529Y-62144D01*
X46856Y-61471D01*
X45976Y-61106D01*
X45024D01*
X44144Y-61471D01*
X43471Y-62144D01*
X43106Y-63024D01*
Y-63976D01*
X43349Y-64563D01*
X42911Y-65353D01*
X42739Y-65505D01*
X40879Y-65313D01*
X40282Y-64246D01*
X40394Y-63976D01*
Y-63024D01*
X40029Y-62144D01*
X39356Y-61471D01*
X38476Y-61106D01*
X37524D01*
X36644Y-61471D01*
X35971Y-62144D01*
X35606Y-63024D01*
Y-63449D01*
X34734Y-64284D01*
X27949Y-62825D01*
X27808Y-62822D01*
X27670Y-62795D01*
X27591D01*
X27556Y-62802D01*
X27521Y-62797D01*
X12219Y-63598D01*
X11494Y-62909D01*
Y-62824D01*
X11129Y-61944D01*
X10456Y-61271D01*
X9576Y-60906D01*
X8624D01*
X7744Y-61271D01*
X7071Y-61944D01*
X6706Y-62824D01*
Y-62850D01*
X5974Y-63530D01*
X-15455Y-61944D01*
X-15828Y-60913D01*
X-15471Y-60556D01*
X-15106Y-59676D01*
Y-58724D01*
X-15471Y-57844D01*
X-16144Y-57171D01*
X-17024Y-56806D01*
X-17976D01*
X-18856Y-57171D01*
X-19529Y-57844D01*
X-19894Y-58724D01*
Y-59676D01*
X-19529Y-60556D01*
X-19439Y-60646D01*
X-19884Y-61616D01*
X-31895Y-60727D01*
X-31971Y-60544D01*
X-32644Y-59871D01*
X-33524Y-59506D01*
X-34476D01*
X-35356Y-59871D01*
X-36029Y-60544D01*
X-36394Y-61424D01*
Y-62376D01*
X-36029Y-63256D01*
X-35673Y-63613D01*
X-35791Y-64690D01*
X-35831Y-64761D01*
X-35856Y-64771D01*
X-36529Y-65444D01*
X-36894Y-66324D01*
Y-67276D01*
X-36529Y-68156D01*
X-35856Y-68829D01*
X-34976Y-69194D01*
X-34024D01*
X-33144Y-68829D01*
X-32471Y-68157D01*
X10487Y-68813D01*
X10895Y-69820D01*
X10871Y-69844D01*
X10506Y-70724D01*
Y-71676D01*
X10871Y-72556D01*
X11544Y-73229D01*
X12424Y-73594D01*
X13376D01*
X14256Y-73229D01*
X14929Y-72556D01*
X15294Y-71676D01*
Y-70724D01*
X14929Y-69844D01*
X14441Y-69356D01*
X14572Y-68547D01*
X14695Y-68303D01*
X16820Y-67966D01*
X17332Y-68825D01*
X17271Y-68904D01*
X16712Y-70253D01*
X16522Y-71700D01*
X16712Y-73147D01*
X17271Y-74496D01*
X17778Y-75157D01*
X17285Y-76157D01*
X16569D01*
Y-87243D01*
X17160D01*
Y-96610D01*
X16322Y-97156D01*
X12023Y-95266D01*
X11188Y-94867D01*
X11016Y-94796D01*
X10260Y-94206D01*
X9237Y-93403D01*
X9228Y-93264D01*
X10185Y-92578D01*
X10224Y-92594D01*
X11176D01*
X12056Y-92229D01*
X12729Y-91556D01*
X13094Y-90676D01*
Y-89724D01*
X12729Y-88844D01*
X12056Y-88171D01*
X11176Y-87806D01*
X10224D01*
X9344Y-88171D01*
X8671Y-88844D01*
X8306Y-89724D01*
Y-90676D01*
X8671Y-91556D01*
X8715Y-91600D01*
X9133Y-92338D01*
X9044Y-92439D01*
X8269Y-92644D01*
X7890Y-92347D01*
X-10488Y-77931D01*
X-10491Y-77929D01*
X-10494Y-77926D01*
X-10496Y-77925D01*
X-10643Y-77851D01*
X-10935Y-77656D01*
X-11093Y-77625D01*
X-11159Y-77591D01*
X-31715Y-71861D01*
X-31971Y-71244D01*
X-32644Y-70571D01*
X-33524Y-70206D01*
X-34476D01*
X-35356Y-70571D01*
X-36029Y-71244D01*
X-36394Y-72124D01*
Y-73076D01*
X-36029Y-73956D01*
X-35356Y-74629D01*
X-34476Y-74994D01*
X-33524D01*
X-32644Y-74629D01*
X-32429Y-74414D01*
X-12109Y-80078D01*
X-11974Y-80134D01*
X9150Y-96704D01*
X9525Y-96998D01*
X9926Y-97242D01*
X9937Y-97244D01*
X23803Y-103341D01*
X23804Y-103342D01*
X23808Y-103350D01*
X23833Y-103367D01*
X24574Y-103515D01*
X24575Y-103515D01*
X24792Y-103472D01*
X24907Y-103474D01*
X40771Y-100669D01*
X40905Y-100617D01*
X41174Y-100563D01*
X41802Y-100143D01*
X42222Y-99515D01*
X42249Y-99381D01*
X42275Y-99331D01*
X48709Y-78072D01*
X60088Y-80719D01*
X60216Y-80771D01*
X79306Y-93589D01*
Y-94076D01*
X79671Y-94956D01*
X80215Y-95500D01*
X80171Y-95544D01*
X79806Y-96424D01*
Y-97170D01*
X79144Y-97543D01*
X78882Y-97608D01*
X78688Y-97355D01*
X77941Y-96782D01*
X77071Y-96422D01*
X76138Y-96299D01*
X75316Y-96407D01*
X74999Y-95641D01*
X74426Y-94894D01*
X73679Y-94321D01*
X72809Y-93961D01*
X71876Y-93838D01*
X71054Y-93946D01*
X70737Y-93180D01*
X70164Y-92434D01*
X69417Y-91861D01*
X68548Y-91500D01*
X67614Y-91377D01*
X66681Y-91500D01*
X66475Y-91586D01*
X65602Y-91224D01*
X65189Y-90686D01*
X65051Y-90580D01*
X63687Y-92943D01*
X62323Y-95306D01*
X62484Y-95372D01*
X63156Y-95460D01*
X63906Y-96036D01*
X63935Y-96257D01*
X64295Y-97127D01*
X64868Y-97874D01*
X65615Y-98447D01*
X66484Y-98807D01*
X67418Y-98930D01*
X68239Y-98822D01*
X68557Y-99588D01*
X69130Y-100334D01*
X69877Y-100907D01*
X70746Y-101268D01*
X71679Y-101390D01*
X72259Y-101314D01*
X72752Y-102205D01*
X72349Y-103079D01*
X26011Y-105572D01*
X26008Y-105573D01*
X26004Y-105572D01*
X26002Y-105573D01*
X25883Y-105604D01*
X25638Y-105652D01*
X25498Y-105670D01*
X19485Y-107700D01*
X19356Y-107571D01*
X18476Y-107206D01*
X17524D01*
X16644Y-107571D01*
X15971Y-108244D01*
X15606Y-109124D01*
Y-110076D01*
X15971Y-110956D01*
X16644Y-111629D01*
X17524Y-111994D01*
X18476D01*
X19356Y-111629D01*
X20029Y-110956D01*
X20338Y-110210D01*
X25260Y-108549D01*
X26160Y-108287D01*
D01*
X27128Y-108167D01*
X75887Y-105543D01*
X76090Y-106523D01*
X33022Y-122470D01*
X32939Y-122387D01*
X32060Y-122023D01*
X31107D01*
X30228Y-122387D01*
X29554Y-123061D01*
X29190Y-123940D01*
Y-124893D01*
X29554Y-125773D01*
X30228Y-126446D01*
X31107Y-126810D01*
X32060D01*
X32939Y-126446D01*
X33613Y-125773D01*
X33952Y-124953D01*
X90480Y-104021D01*
X90483Y-104019D01*
X90553Y-104005D01*
X91181Y-103585D01*
X91601Y-102957D01*
X91748Y-102215D01*
X91701Y-101976D01*
X91701Y-101848D01*
X91555Y-100880D01*
X91543Y-100852D01*
X91366Y-99925D01*
X90903Y-96782D01*
X91329Y-96356D01*
X91694Y-95476D01*
Y-94524D01*
X91329Y-93644D01*
X90656Y-92971D01*
X90698Y-91906D01*
X90730Y-91858D01*
X90877Y-91117D01*
X90785Y-90653D01*
X90767Y-90508D01*
X88971Y-85123D01*
X88969Y-85119D01*
X88968Y-85114D01*
X88968Y-85112D01*
X88954Y-85088D01*
X88934Y-84990D01*
X88872Y-84897D01*
X88863Y-84862D01*
X81615Y-70552D01*
X81208Y-69720D01*
X81141Y-69558D01*
X81141Y-69558D01*
X81646Y-68740D01*
X81917Y-68494D01*
X82576D01*
X83456Y-68129D01*
X84129Y-67456D01*
X84494Y-66576D01*
Y-65624D01*
X84175Y-64854D01*
X85132Y-62875D01*
X86227Y-62906D01*
X86342Y-63183D01*
X87015Y-63856D01*
X87895Y-64221D01*
X88847D01*
X89727Y-63856D01*
X90400Y-63183D01*
X90765Y-62303D01*
Y-61351D01*
X90400Y-60471D01*
X89727Y-59798D01*
X88847Y-59433D01*
X88232D01*
X87478Y-58606D01*
X87495Y-58423D01*
X87654Y-57853D01*
X94428Y-53789D01*
X94546Y-53683D01*
X94807Y-53508D01*
X95227Y-52880D01*
X95298Y-52519D01*
X95349Y-52361D01*
X95350Y-52361D01*
X95349Y-52360D01*
X95350Y-52359D01*
X96799Y-39805D01*
X96799Y-39800D01*
X96800Y-39795D01*
X96801Y-39791D01*
X96795Y-39728D01*
X96824Y-39584D01*
X96678Y-38851D01*
X96668Y-38855D01*
X92482Y-28621D01*
X94155Y-25582D01*
X95201Y-25554D01*
X95932Y-26376D01*
X96035Y-27159D01*
X96337Y-27889D01*
X96818Y-28516D01*
X97445Y-28997D01*
X98175Y-29299D01*
X98958Y-29402D01*
X99458D01*
Y-26376D01*
X99958D01*
Y-25876D01*
X103918D01*
X103881Y-25593D01*
X103578Y-24863D01*
X103097Y-24237D01*
X102471Y-23756D01*
X101741Y-23453D01*
X101521Y-23425D01*
X100873Y-22450D01*
X100864Y-22350D01*
X100992Y-21376D01*
X100877Y-20503D01*
X100958Y-20411D01*
X102002Y-20273D01*
X102975Y-19870D01*
X103811Y-19229D01*
X104452Y-18394D01*
X104855Y-17421D01*
X104992Y-16376D01*
X104855Y-15332D01*
X104452Y-14359D01*
X103811Y-13523D01*
X102975Y-12882D01*
X102002Y-12479D01*
X100958Y-12342D01*
X98958D01*
X97913Y-12479D01*
X96940Y-12882D01*
X96105Y-13523D01*
X95464Y-14359D01*
X95061Y-15332D01*
X94923Y-16376D01*
X95038Y-17250D01*
X94958Y-17342D01*
X93914Y-17479D01*
X92940Y-17882D01*
X92105Y-18523D01*
X91553Y-19243D01*
X90692Y-18722D01*
X94182Y-11195D01*
X94190Y-11188D01*
X94465Y-10993D01*
X94538Y-10965D01*
X95321Y-10842D01*
X95410Y-10859D01*
X95492Y-10896D01*
X95603Y-10898D01*
X95711Y-10920D01*
X147861D01*
X148020Y-10888D01*
X148180Y-10868D01*
X148214Y-10849D01*
X148251Y-10842D01*
X148386Y-10752D01*
X148527Y-10672D01*
X148611Y-10617D01*
X149277Y-10525D01*
X149677Y-10551D01*
X150225Y-11192D01*
X152114Y-12805D01*
X154231Y-14103D01*
X156526Y-15054D01*
X158941Y-15633D01*
X161417Y-15828D01*
X163893Y-15633D01*
X166308Y-15054D01*
X168603Y-14103D01*
X169915Y-13299D01*
X170877Y-13882D01*
X170743Y-15822D01*
X169830Y-23690D01*
X168554Y-31508D01*
X166919Y-39259D01*
X164928Y-46926D01*
X162585Y-54493D01*
X159895Y-61944D01*
X156863Y-69262D01*
X153497Y-76433D01*
X149804Y-83440D01*
X145790Y-90270D01*
X141466Y-96906D01*
X136839Y-103336D01*
X131921Y-109546D01*
X126721Y-115521D01*
X121250Y-121250D01*
X115521Y-126721D01*
X109546Y-131921D01*
X103336Y-136839D01*
X96906Y-141466D01*
X90270Y-145790D01*
X83440Y-149804D01*
X76433Y-153497D01*
X69262Y-156863D01*
X61944Y-159895D01*
X54493Y-162585D01*
X46926Y-164928D01*
X39259Y-166919D01*
X31508Y-168554D01*
X23690Y-169830D01*
X15822Y-170743D01*
X7919Y-171291D01*
X0Y-171474D01*
X-7919Y-171291D01*
X-15822Y-170743D01*
X-23690Y-169830D01*
X-31508Y-168554D01*
X-39259Y-166919D01*
X-46926Y-164928D01*
X-54493Y-162585D01*
X-61944Y-159895D01*
X-69262Y-156863D01*
X-73545Y-154853D01*
X-73540Y-154632D01*
X-73397Y-153817D01*
X-71405Y-152597D01*
X-69516Y-150984D01*
X-67903Y-149095D01*
X-66606Y-146977D01*
X-65655Y-144683D01*
X-65075Y-142267D01*
X-64880Y-139791D01*
X-65075Y-137315D01*
X-65655Y-134900D01*
X-66606Y-132605D01*
X-67903Y-130488D01*
X-69516Y-128599D01*
X-71405Y-126986D01*
X-73523Y-125688D01*
X-75817Y-124738D01*
X-78233Y-124158D01*
X-80709Y-123963D01*
X-83185Y-124158D01*
X-85600Y-124738D01*
X-87895Y-125688D01*
X-90012Y-126986D01*
X-91901Y-128599D01*
X-93514Y-130488D01*
X-94812Y-132605D01*
X-95762Y-134900D01*
X-96342Y-137315D01*
X-96537Y-139791D01*
X-96478Y-140542D01*
X-97438Y-141083D01*
X-103336Y-136839D01*
X-109546Y-131921D01*
X-115521Y-126721D01*
X-121250Y-121250D01*
X-126721Y-115521D01*
X-131921Y-109546D01*
X-136839Y-103336D01*
X-141466Y-96906D01*
X-145790Y-90270D01*
X-149804Y-83440D01*
X-153497Y-76433D01*
X-156863Y-69262D01*
X-159895Y-61944D01*
X-162585Y-54493D01*
X-164928Y-46926D01*
X-166919Y-39259D01*
X-168554Y-31508D01*
X-169830Y-23690D01*
X-170743Y-15822D01*
X-171291Y-7919D01*
X-171474Y0D01*
X-171291Y7919D01*
X-170743Y15822D01*
X-169830Y23690D01*
X-168554Y31508D01*
X-166919Y39259D01*
X-164928Y46926D01*
X-162585Y54493D01*
X-159895Y61944D01*
X-156863Y69262D01*
X-153497Y76433D01*
X-149804Y83440D01*
X-145790Y90270D01*
X-141466Y96906D01*
X-136839Y103336D01*
X-131921Y109546D01*
X-126721Y115521D01*
X-121250Y121250D01*
X-115521Y126721D01*
X-109546Y131921D01*
X-103336Y136839D01*
X-97438Y141083D01*
X-96478Y140542D01*
X-96537Y139791D01*
X-96342Y137315D01*
X-95762Y134900D01*
X-94812Y132605D01*
X-93514Y130488D01*
X-91901Y128599D01*
X-90012Y126986D01*
X-87895Y125688D01*
X-85600Y124738D01*
X-83185Y124158D01*
X-80709Y123963D01*
X-78233Y124158D01*
X-75817Y124738D01*
X-73523Y125688D01*
X-71405Y126986D01*
X-69516Y128599D01*
X-67903Y130488D01*
X-66606Y132605D01*
X-65655Y134900D01*
X-65075Y137315D01*
X-64880Y139791D01*
X-65075Y142267D01*
X-65655Y144683D01*
X-66606Y146977D01*
X-67903Y149095D01*
X-69516Y150984D01*
X-71405Y152597D01*
X-73397Y153817D01*
X-73540Y154632D01*
X-73545Y154853D01*
X-69262Y156863D01*
X-61944Y159895D01*
X-54493Y162585D01*
X-46926Y164928D01*
X-39259Y166919D01*
X-32296Y168388D01*
X-31520Y167758D01*
D02*
G37*
G36*
X7919Y171291D02*
X15822Y170743D01*
X23690Y169830D01*
X31508Y168554D01*
X39259Y166919D01*
X46926Y164928D01*
X54493Y162585D01*
X61944Y159895D01*
X69262Y156863D01*
X76433Y153497D01*
X83440Y149804D01*
X90270Y145790D01*
X96906Y141466D01*
X103336Y136839D01*
X109546Y131921D01*
X115521Y126721D01*
X121250Y121250D01*
X126721Y115521D01*
X131921Y109546D01*
X136839Y103336D01*
X141466Y96906D01*
X145790Y90270D01*
X149804Y83440D01*
X153497Y76433D01*
X156863Y69262D01*
X159895Y61944D01*
X162585Y54493D01*
X164928Y46926D01*
X166919Y39259D01*
X168554Y31508D01*
X169830Y23690D01*
X170743Y15822D01*
X170877Y13882D01*
X169915Y13299D01*
X168603Y14103D01*
X166308Y15054D01*
X163893Y15633D01*
X161417Y15828D01*
X158941Y15633D01*
X156526Y15054D01*
X154231Y14103D01*
X152114Y12805D01*
X150225Y11192D01*
X148612Y9304D01*
X147314Y7186D01*
X146364Y4891D01*
X145784Y2476D01*
X145589Y0D01*
X145784Y-2476D01*
X146364Y-4891D01*
X147314Y-7186D01*
X148365Y-8900D01*
X147861Y-9900D01*
X95711D01*
X95173Y-9057D01*
X104794Y11692D01*
X104844Y11713D01*
X104887Y11818D01*
X107713Y13596D01*
X108219Y13386D01*
X109172D01*
X110051Y13751D01*
X110725Y14424D01*
X111089Y15304D01*
Y16256D01*
X110725Y17136D01*
X110051Y17809D01*
X109172Y18174D01*
X108219D01*
X107340Y17809D01*
X106666Y17136D01*
X106302Y16256D01*
Y15840D01*
X103244Y13916D01*
X103137Y13815D01*
X102900Y13656D01*
X102557Y13144D01*
X102523Y13097D01*
X91480Y-10719D01*
X86100Y-16100D01*
Y-22324D01*
X78686Y-38313D01*
X74693Y-42307D01*
X74356Y-41971D01*
X73476Y-41606D01*
X72524D01*
X71644Y-41971D01*
X70971Y-42644D01*
X70606Y-43524D01*
Y-44476D01*
X70390Y-44800D01*
X65443D01*
X65244Y-43800D01*
X65656Y-43629D01*
X66329Y-42956D01*
X66694Y-42076D01*
Y-41394D01*
X67576D01*
X68456Y-41029D01*
X69129Y-40356D01*
X69494Y-39476D01*
Y-38524D01*
X69129Y-37644D01*
X68594Y-37108D01*
Y-36224D01*
X68274Y-35453D01*
X69056Y-35129D01*
X69729Y-34456D01*
X70094Y-33576D01*
Y-32624D01*
X69729Y-31744D01*
X69056Y-31071D01*
X68176Y-30706D01*
X67224D01*
X66344Y-31071D01*
X65671Y-31744D01*
X65306Y-32624D01*
Y-33576D01*
X65626Y-34347D01*
X64844Y-34671D01*
X64171Y-35344D01*
X63806Y-36224D01*
Y-37176D01*
X64171Y-38056D01*
X64321Y-38206D01*
X63907Y-39206D01*
X63824D01*
X62944Y-39571D01*
X62271Y-40244D01*
X61906Y-41124D01*
Y-42076D01*
X62271Y-42956D01*
X62944Y-43629D01*
X63356Y-43800D01*
X63157Y-44800D01*
X40000D01*
X20557Y-25357D01*
X19527D01*
X19224Y-24404D01*
X19376Y-24296D01*
X21974Y-21974D01*
X24296Y-19376D01*
X26313Y-16534D01*
X27999Y-13484D01*
X29333Y-10264D01*
X30297Y-6915D01*
X30881Y-3480D01*
X30961Y-2049D01*
X31973Y-1878D01*
X32171Y-2356D01*
X32844Y-3029D01*
X33724Y-3394D01*
X34676D01*
X35556Y-3029D01*
X36229Y-2356D01*
X36594Y-1476D01*
Y-524D01*
X36229Y356D01*
X35556Y1029D01*
X34676Y1394D01*
X33724D01*
X32844Y1029D01*
X32171Y356D01*
X32072Y116D01*
X31060Y288D01*
X30881Y3480D01*
X30297Y6915D01*
X29333Y10264D01*
X27999Y13484D01*
X26313Y16534D01*
X24296Y19376D01*
X21974Y21974D01*
X19376Y24296D01*
X16534Y26313D01*
X13484Y27999D01*
X10264Y29333D01*
X6915Y30297D01*
X3480Y30881D01*
X0Y31076D01*
X-3480Y30881D01*
X-6915Y30297D01*
X-8033Y29975D01*
X-8444Y30871D01*
X-7771Y31544D01*
X-7406Y32424D01*
Y33376D01*
X-7771Y34256D01*
X-8444Y34929D01*
X-9324Y35294D01*
X-9340D01*
X-9477Y35415D01*
X-9926Y36294D01*
X-9706Y36824D01*
Y37776D01*
X-10071Y38656D01*
X-10744Y39329D01*
X-11624Y39694D01*
X-12576D01*
X-13456Y39329D01*
X-14129Y38656D01*
X-14494Y37776D01*
Y36824D01*
X-14129Y35944D01*
X-13456Y35271D01*
X-12576Y34906D01*
X-12560D01*
X-12423Y34785D01*
X-11974Y33906D01*
X-12194Y33376D01*
Y32424D01*
X-11829Y31544D01*
X-11156Y30871D01*
X-10276Y30506D01*
X-9802D01*
X-9661Y29506D01*
X-10264Y29333D01*
X-13484Y27999D01*
X-16534Y26313D01*
X-19376Y24296D01*
X-21974Y21974D01*
X-24296Y19376D01*
X-26313Y16534D01*
X-27999Y13484D01*
X-29333Y10264D01*
X-30297Y6915D01*
X-30881Y3480D01*
X-30897Y3200D01*
X-35599D01*
X-35798Y4200D01*
X-35144Y4471D01*
X-34471Y5144D01*
X-34106Y6024D01*
Y6976D01*
X-34471Y7856D01*
X-35144Y8529D01*
X-36024Y8894D01*
X-36976D01*
X-37856Y8529D01*
X-38529Y7856D01*
X-38894Y6976D01*
Y6024D01*
X-38529Y5144D01*
X-37856Y4471D01*
X-37202Y4200D01*
X-37401Y3200D01*
X-44500D01*
X-77600Y36300D01*
Y47600D01*
X-71600Y53600D01*
Y96200D01*
X-70100Y97700D01*
X-46100D01*
X-44994Y98806D01*
X-44548Y98725D01*
X-43926Y98460D01*
X-43629Y97744D01*
X-42956Y97071D01*
X-42076Y96706D01*
X-41124D01*
X-40244Y97071D01*
X-39571Y97744D01*
X-39206Y98624D01*
Y99576D01*
X-39571Y100456D01*
X-40244Y101129D01*
X-40960Y101426D01*
X-41225Y102048D01*
X-41306Y102494D01*
X-30500Y113300D01*
Y168719D01*
X-23690Y169830D01*
X-15822Y170743D01*
X-7919Y171291D01*
X0Y171474D01*
X7919Y171291D01*
D02*
G37*
G36*
X91168Y-20074D02*
X91061Y-20332D01*
X90923Y-21376D01*
X91061Y-22421D01*
X91464Y-23393D01*
X91970Y-24054D01*
X89992Y-27646D01*
X89972Y-27709D01*
X89889Y-27834D01*
X89782Y-28372D01*
X89742Y-28575D01*
X89886Y-29300D01*
X89889Y-29300D01*
X89897Y-29304D01*
X94089Y-39551D01*
X94074Y-39584D01*
X94138Y-39738D01*
X92757Y-51700D01*
X91454Y-52482D01*
X90406Y-52044D01*
X90365Y-51969D01*
X90694Y-51176D01*
Y-50224D01*
X90329Y-49344D01*
X89656Y-48671D01*
X88776Y-48306D01*
X87824D01*
X86944Y-48671D01*
X85843Y-48358D01*
X85756Y-48271D01*
X84876Y-47906D01*
X83924D01*
X83044Y-48271D01*
X82677Y-48638D01*
X81876Y-48306D01*
X80924D01*
X80044Y-48671D01*
X79371Y-49344D01*
X79326Y-49451D01*
X78976Y-49306D01*
X78024D01*
X77555Y-49501D01*
X77494Y-49493D01*
X76773Y-48742D01*
X90252Y-19672D01*
X91168Y-20074D01*
D02*
G37*
G36*
X53601Y-71307D02*
X54200Y-72399D01*
X54106Y-72624D01*
Y-73576D01*
X54471Y-74456D01*
X55144Y-75129D01*
X56024Y-75494D01*
X56976D01*
X57856Y-75129D01*
X58529Y-74456D01*
X58894Y-73576D01*
Y-73044D01*
X59695Y-72145D01*
X60595Y-72268D01*
X60646Y-72289D01*
X76493Y-82822D01*
X76495Y-82860D01*
X76523Y-82926D01*
X76641Y-82976D01*
X77179Y-83575D01*
X82582Y-89975D01*
X82474Y-91013D01*
X82176Y-91206D01*
X81224D01*
X80784Y-91388D01*
X61530Y-78461D01*
X61527Y-78459D01*
X61524Y-78456D01*
X61522Y-78455D01*
X61403Y-78407D01*
X61198Y-78270D01*
X60992Y-78229D01*
X60893Y-78184D01*
X48648Y-75336D01*
X48644Y-75336D01*
X48640Y-75335D01*
X48637Y-75334D01*
X48491Y-75330D01*
X48212Y-75274D01*
X47470Y-75422D01*
X46842Y-75842D01*
X46422Y-76470D01*
X46395Y-76606D01*
X46368Y-76656D01*
X39867Y-98137D01*
X34334Y-99115D01*
X34053Y-98149D01*
X34995Y-97759D01*
X35943Y-97031D01*
X36672Y-96082D01*
X37130Y-94977D01*
X37286Y-93791D01*
Y-93700D01*
X32703D01*
Y-93200D01*
X32203D01*
Y-88093D01*
X31517Y-88183D01*
X30412Y-88641D01*
X29463Y-89369D01*
X29247Y-89651D01*
X28247Y-89312D01*
Y-87243D01*
X28837D01*
Y-76157D01*
X28122D01*
X27628Y-75157D01*
X28136Y-74496D01*
X28694Y-73147D01*
X28885Y-71700D01*
X28694Y-70253D01*
X28136Y-68904D01*
X28059Y-68804D01*
X28602Y-67870D01*
X53601Y-71307D01*
D02*
G37*
%LPC*%
G36*
X-44936Y118919D02*
X-48278Y118024D01*
X-47624Y115584D01*
X-47142Y115714D01*
X-46412Y116016D01*
X-45785Y116497D01*
X-45304Y117123D01*
X-45002Y117853D01*
X-44899Y118636D01*
X-44936Y118919D01*
D02*
G37*
G36*
X-79244Y120014D02*
X-80197D01*
X-81076Y119650D01*
X-81750Y118976D01*
X-82114Y118097D01*
Y117144D01*
X-81750Y116264D01*
X-81076Y115591D01*
X-80197Y115227D01*
X-79244D01*
X-78364Y115591D01*
X-77691Y116264D01*
X-77327Y117144D01*
Y118097D01*
X-77691Y118976D01*
X-78364Y119650D01*
X-79244Y120014D01*
D02*
G37*
G36*
X-50513Y132330D02*
X-51557Y132193D01*
X-53489Y131675D01*
X-54462Y131272D01*
X-55297Y130631D01*
X-55939Y129795D01*
X-56342Y128822D01*
X-56479Y127778D01*
X-56342Y126734D01*
X-56005Y125919D01*
X-56059Y125810D01*
X-57032Y125407D01*
X-57867Y124766D01*
X-58508Y123930D01*
X-58911Y122957D01*
X-59049Y121913D01*
X-58911Y120869D01*
X-58508Y119896D01*
X-57867Y119060D01*
X-57032Y118419D01*
X-56059Y118016D01*
X-55014Y117878D01*
X-53970Y118016D01*
X-53858Y118046D01*
X-52779Y117335D01*
X-52477Y116606D01*
X-51996Y115979D01*
X-51370Y115498D01*
X-50640Y115196D01*
X-49856Y115093D01*
X-49073Y115196D01*
X-48590Y115325D01*
X-49374Y118248D01*
X-48891Y118377D01*
X-49020Y118860D01*
X-45195Y119885D01*
X-45304Y120149D01*
X-45785Y120776D01*
X-46412Y121257D01*
X-47142Y121559D01*
X-47925Y121662D01*
X-48144Y121633D01*
X-49023Y122407D01*
X-49057Y122501D01*
X-49185Y123475D01*
X-49523Y124289D01*
X-49469Y124399D01*
X-48496Y124802D01*
X-47660Y125443D01*
X-47019Y126278D01*
X-46616Y127251D01*
X-46478Y128296D01*
X-46616Y129340D01*
X-47019Y130313D01*
X-47660Y131148D01*
X-48496Y131790D01*
X-49469Y132193D01*
X-50513Y132330D01*
D02*
G37*
G36*
X-48694Y109554D02*
Y104946D01*
X-44611D01*
Y105037D01*
X-44767Y106223D01*
X-45225Y107328D01*
X-45953Y108277D01*
X-46902Y109006D01*
X-48008Y109463D01*
X-48694Y109554D01*
D02*
G37*
G36*
X-77424Y90794D02*
X-78376D01*
X-79256Y90429D01*
X-79929Y89756D01*
X-80294Y88876D01*
Y87924D01*
X-79929Y87044D01*
X-79256Y86371D01*
X-78376Y86006D01*
X-77424D01*
X-76544Y86371D01*
X-75871Y87044D01*
X-75506Y87924D01*
Y88876D01*
X-75871Y89756D01*
X-76544Y90429D01*
X-77424Y90794D01*
D02*
G37*
G36*
X-122224Y75594D02*
X-123176D01*
X-124056Y75229D01*
X-124729Y74556D01*
X-125667Y74905D01*
X-126124Y75094D01*
X-127076D01*
X-127956Y74729D01*
X-128629Y74056D01*
X-128994Y73176D01*
Y72224D01*
X-128629Y71344D01*
X-127956Y70671D01*
X-128417Y69825D01*
X-128824Y69994D01*
X-129776D01*
X-130656Y69629D01*
X-131329Y68956D01*
X-131694Y68076D01*
Y67124D01*
X-131329Y66244D01*
X-130656Y65571D01*
X-129776Y65206D01*
X-128824D01*
X-127944Y65571D01*
X-127271Y66244D01*
X-126906Y67124D01*
Y68076D01*
X-127069Y68470D01*
X-126222Y69037D01*
X-126056Y68871D01*
X-125176Y68506D01*
X-124224D01*
X-123344Y68871D01*
X-123287Y68927D01*
X-122056Y69071D01*
X-121176Y68706D01*
X-120224D01*
X-119344Y69071D01*
X-118991Y69424D01*
X-118920Y69409D01*
X-118247Y68736D01*
X-117367Y68372D01*
X-116415D01*
X-115535Y68736D01*
X-114862Y69409D01*
X-114497Y70289D01*
Y71241D01*
X-114862Y72121D01*
X-115535Y72795D01*
X-116306Y73114D01*
Y73176D01*
X-116671Y74056D01*
X-117344Y74729D01*
X-118224Y75094D01*
X-119176D01*
X-119718Y74869D01*
X-120671Y74556D01*
X-121344Y75229D01*
X-122224Y75594D01*
D02*
G37*
G36*
X-98958Y69432D02*
X-99910D01*
X-100790Y69068D01*
X-101463Y68395D01*
X-101828Y67515D01*
Y66562D01*
X-101463Y65683D01*
X-100790Y65009D01*
X-99910Y64645D01*
X-98958D01*
X-98078Y65009D01*
X-97405Y65683D01*
X-97040Y66562D01*
Y67515D01*
X-97405Y68395D01*
X-98078Y69068D01*
X-98958Y69432D01*
D02*
G37*
G36*
X-97591Y61519D02*
X-98543D01*
X-99423Y61155D01*
X-100096Y60482D01*
X-100461Y59602D01*
Y58650D01*
X-100096Y57770D01*
X-99423Y57096D01*
X-99702Y56129D01*
X-99727Y56067D01*
Y55115D01*
X-99363Y54235D01*
X-99075Y53947D01*
X-99394Y53176D01*
Y52224D01*
X-99029Y51344D01*
X-98356Y50671D01*
X-97476Y50306D01*
X-96524D01*
X-96288Y50404D01*
X-95856Y49529D01*
X-96068Y49317D01*
X-96529Y48856D01*
X-96894Y47976D01*
Y47024D01*
X-96591Y46294D01*
X-96729Y46156D01*
X-97094Y45276D01*
Y44324D01*
X-96729Y43444D01*
X-96481Y43196D01*
X-97044Y42429D01*
X-97924Y42794D01*
X-98876D01*
X-99756Y42429D01*
X-100429Y41756D01*
X-100794Y40876D01*
Y39924D01*
X-100429Y39044D01*
X-100138Y38753D01*
X-99822Y38212D01*
X-100138Y37447D01*
X-100329Y37256D01*
X-100694Y36376D01*
Y35424D01*
X-100445Y34824D01*
X-101175Y34083D01*
X-102148Y34615D01*
X-102312Y34667D01*
X-102468Y34739D01*
X-104163Y35155D01*
X-104268Y35367D01*
X-104385Y36239D01*
X-103923Y36701D01*
X-103559Y37581D01*
Y38533D01*
X-103923Y39413D01*
X-104597Y40087D01*
X-105476Y40451D01*
X-106429D01*
X-107308Y40087D01*
X-107755Y39640D01*
X-108105Y39785D01*
X-109058D01*
X-109937Y39420D01*
X-110887Y39511D01*
X-112400Y41745D01*
X-112433Y41792D01*
X-112522Y41881D01*
X-112593Y41986D01*
X-112737Y42131D01*
X-112787Y42164D01*
X-112824Y42210D01*
X-113001Y42307D01*
X-113167Y42418D01*
X-113226Y42430D01*
X-113278Y42458D01*
X-119543Y44422D01*
X-128992Y54316D01*
X-129005Y54324D01*
X-129014Y54337D01*
X-129216Y54473D01*
X-129416Y54613D01*
X-129431Y54616D01*
X-129444Y54625D01*
X-129683Y54672D01*
X-129920Y54725D01*
X-129936Y54722D01*
X-129951Y54725D01*
X-133075D01*
X-133274Y55726D01*
X-133044Y55821D01*
X-132371Y56494D01*
X-132006Y57374D01*
Y58326D01*
X-132371Y59206D01*
X-133044Y59879D01*
X-133924Y60244D01*
X-134876D01*
X-135756Y59879D01*
X-136429Y59206D01*
X-136794Y58326D01*
Y57374D01*
X-136429Y56494D01*
X-136429Y56494D01*
X-136843Y55494D01*
X-137090D01*
X-137970Y55129D01*
X-138644Y54456D01*
X-139008Y53576D01*
Y52624D01*
X-138946Y52474D01*
X-138856Y51429D01*
X-139529Y50756D01*
X-139894Y49876D01*
Y48924D01*
X-139529Y48044D01*
X-138856Y47371D01*
X-137976Y47006D01*
X-137024D01*
X-136386Y47270D01*
X-135534Y46792D01*
X-135458Y46721D01*
X-135094Y45841D01*
X-134421Y45167D01*
X-133541Y44803D01*
X-132589D01*
X-131709Y45167D01*
X-131035Y45841D01*
X-130867Y46247D01*
X-129747Y46666D01*
X-118429Y38371D01*
X-118442Y37140D01*
X-118731Y36851D01*
X-118818Y36641D01*
X-119112Y36434D01*
X-120019Y36328D01*
X-120206Y36516D01*
Y37276D01*
X-120571Y38156D01*
X-121244Y38829D01*
X-122124Y39194D01*
X-123076D01*
X-123956Y38829D01*
X-124629Y38156D01*
X-124994Y37276D01*
Y36333D01*
X-125451Y35892D01*
X-126174Y35202D01*
X-126204Y35182D01*
X-126624Y34554D01*
X-126624Y34554D01*
X-126655Y34398D01*
X-126688Y34233D01*
X-126741Y34079D01*
X-129706Y12671D01*
X-130715Y12674D01*
X-130754Y12972D01*
X-131114Y13841D01*
X-131619Y14499D01*
X-131114Y15157D01*
X-130754Y16027D01*
X-130631Y16960D01*
X-130754Y17893D01*
X-131114Y18763D01*
X-131687Y19509D01*
X-131865Y19645D01*
X-131988Y20583D01*
X-131728Y21209D01*
X-131706Y21381D01*
X-134434D01*
X-137162D01*
X-137139Y21209D01*
X-136880Y20583D01*
X-137003Y19645D01*
X-137180Y19509D01*
X-137753Y18763D01*
X-138114Y17893D01*
X-138236Y16960D01*
X-138114Y16027D01*
X-137753Y15157D01*
X-137249Y14499D01*
X-137753Y13841D01*
X-138113Y12972D01*
X-138236Y12039D01*
X-138113Y11105D01*
X-137753Y10236D01*
X-137249Y9578D01*
X-137753Y8920D01*
X-138114Y8050D01*
X-138236Y7117D01*
X-138114Y6184D01*
X-137753Y5314D01*
X-137180Y4568D01*
X-136434Y3995D01*
X-135564Y3635D01*
X-134631Y3512D01*
X-134237D01*
X-133304Y3635D01*
X-132434Y3995D01*
X-131856Y4439D01*
X-131262Y4226D01*
X-130914Y3947D01*
X-132589Y-8146D01*
Y-8146D01*
X-132589Y-8149D01*
X-132584Y-8236D01*
X-132619Y-8410D01*
X-132619Y-8410D01*
X-132472Y-9151D01*
X-132440Y-9199D01*
X-132436Y-9205D01*
X-128006Y-18931D01*
X-128005Y-18933D01*
X-127996Y-18945D01*
X-127727Y-19348D01*
X-127623Y-19504D01*
X-127610Y-19512D01*
X-126994Y-19924D01*
X-126991Y-19924D01*
X-126991Y-19924D01*
X-126980Y-19917D01*
X-113854Y-25241D01*
X-112940Y-25638D01*
X-112921Y-25646D01*
X-111999Y-26030D01*
X-71364Y-44122D01*
X-71346Y-44165D01*
X-71183Y-44233D01*
X-60117Y-57588D01*
X-60245Y-58020D01*
X-60621Y-58547D01*
X-61705D01*
X-62964Y-58885D01*
X-64094Y-59537D01*
X-65016Y-60459D01*
X-65668Y-61588D01*
X-66005Y-62848D01*
Y-64152D01*
X-65668Y-65412D01*
X-65016Y-66541D01*
X-64094Y-67463D01*
X-62964Y-68115D01*
X-61705Y-68453D01*
X-60401D01*
X-59141Y-68115D01*
X-58012Y-67463D01*
X-57090Y-66541D01*
X-56723Y-65906D01*
X-55641Y-66031D01*
X-53970Y-71548D01*
X-53944Y-71598D01*
X-53917Y-71732D01*
X-53497Y-72360D01*
X-53087Y-72635D01*
X-52829Y-73256D01*
X-52156Y-73929D01*
X-51276Y-74294D01*
X-50324D01*
X-49444Y-73929D01*
X-48771Y-73256D01*
X-48406Y-72376D01*
Y-71424D01*
X-48771Y-70544D01*
X-49444Y-69871D01*
X-50324Y-69506D01*
X-51276D01*
X-51910Y-69207D01*
X-52302Y-67910D01*
X-51482Y-67167D01*
X-51176Y-67294D01*
X-50224D01*
X-49344Y-66929D01*
X-48671Y-66256D01*
X-48306Y-65376D01*
Y-64424D01*
X-48671Y-63544D01*
X-49344Y-62871D01*
X-50224Y-62506D01*
X-50664D01*
X-65883Y-38842D01*
X-65981Y-38741D01*
X-66132Y-38514D01*
X-66143Y-38507D01*
X-66761Y-38094D01*
X-66765Y-38093D01*
X-66765Y-38093D01*
X-66775Y-38101D01*
X-111621Y-19806D01*
X-111301Y-18857D01*
X-103361Y-20985D01*
X-102779Y-18815D01*
X-101726Y-18746D01*
X-101590Y-19075D01*
X-100861Y-20024D01*
X-99912Y-20752D01*
X-99273Y-21017D01*
X-97951Y-16084D01*
X-96629Y-11151D01*
X-97315Y-11060D01*
X-98501Y-11216D01*
X-99607Y-11674D01*
X-99889Y-11891D01*
X-100767Y-11304D01*
X-100231Y-9306D01*
X-99661Y-9459D01*
X-96792Y1250D01*
X-97483Y1435D01*
X-97700Y2529D01*
X-97039Y3036D01*
X-96150Y4194D01*
X-95592Y5542D01*
X-95401Y6989D01*
X-95560Y8190D01*
X-94603Y8546D01*
X-94429Y8291D01*
X-80330Y-13193D01*
X-80330Y-13193D01*
X-80330Y-13194D01*
X-80236Y-13289D01*
X-80172Y-13402D01*
X-75893Y-18323D01*
X-75933Y-18649D01*
X-76185Y-19248D01*
X-77184Y-19414D01*
X-77622Y-19002D01*
X-77771Y-18644D01*
X-78444Y-17971D01*
X-79324Y-17606D01*
X-80276D01*
X-81156Y-17971D01*
X-81594Y-18409D01*
X-82324Y-18106D01*
X-83276D01*
X-84156Y-18471D01*
X-84829Y-19144D01*
X-85194Y-20024D01*
Y-20976D01*
X-84829Y-21856D01*
X-84156Y-22529D01*
X-83276Y-22894D01*
X-82324D01*
X-81444Y-22529D01*
X-81006Y-22091D01*
X-80276Y-22394D01*
X-79324D01*
X-78918Y-22226D01*
X-78259Y-22204D01*
X-77715Y-22715D01*
X-77567Y-23073D01*
X-76894Y-23746D01*
X-76014Y-24111D01*
X-75062D01*
X-74182Y-23746D01*
X-73509Y-23073D01*
X-73373Y-22746D01*
X-72220Y-22548D01*
X-48222Y-50150D01*
X-48294Y-50324D01*
Y-51276D01*
X-47929Y-52156D01*
X-47256Y-52829D01*
X-46376Y-53194D01*
X-45424D01*
X-44544Y-52829D01*
X-43871Y-52156D01*
X-43506Y-51276D01*
Y-50324D01*
X-43871Y-49444D01*
X-44544Y-48771D01*
X-45424Y-48406D01*
X-46225D01*
X-76956Y-13060D01*
X-76472Y-12094D01*
X-75924D01*
X-75044Y-11729D01*
X-74923Y-11608D01*
X-74721Y-11810D01*
X-73841Y-12174D01*
X-72889D01*
X-72009Y-11810D01*
X-71335Y-11137D01*
X-70971Y-10257D01*
Y-9305D01*
X-71148Y-8876D01*
X-70306Y-8298D01*
X-59145Y-18930D01*
X-59141Y-18933D01*
X-59141Y-18936D01*
X-58918Y-19115D01*
X-58918Y-19115D01*
X-58918Y-19115D01*
X-58915Y-19117D01*
X-58915Y-19117D01*
X-58365Y-19499D01*
X-55926Y-21193D01*
X-55924Y-22284D01*
X-56271Y-22444D01*
X-56944Y-21771D01*
X-57824Y-21406D01*
X-58776D01*
X-59656Y-21771D01*
X-60329Y-22444D01*
X-60694Y-23324D01*
Y-24276D01*
X-60329Y-25156D01*
X-59656Y-25829D01*
X-58776Y-26194D01*
X-57824D01*
X-56944Y-25829D01*
X-55866Y-26166D01*
X-55829Y-26256D01*
X-55156Y-26929D01*
X-54276Y-27294D01*
X-53324D01*
X-52444Y-26929D01*
X-51771Y-26256D01*
X-51462Y-25510D01*
X-51074Y-25259D01*
X-50406Y-25025D01*
X-22149Y-44644D01*
X-22256Y-45771D01*
X-22929Y-46444D01*
X-23294Y-47324D01*
Y-48276D01*
X-22929Y-49156D01*
X-22379Y-49706D01*
X-22480Y-50286D01*
X-22685Y-50706D01*
X-23076D01*
X-23956Y-51071D01*
X-24629Y-51744D01*
X-24994Y-52624D01*
Y-53576D01*
X-24629Y-54456D01*
X-23956Y-55129D01*
X-23076Y-55494D01*
X-22124D01*
X-21244Y-55129D01*
X-20571Y-54456D01*
X-20206Y-53576D01*
Y-52624D01*
X-20571Y-51744D01*
X-21121Y-51194D01*
X-21020Y-50614D01*
X-20814Y-50194D01*
X-20424D01*
X-19544Y-49829D01*
X-18871Y-49156D01*
X-18823Y-49041D01*
X-17653Y-48829D01*
X-16352Y-50223D01*
X-16394Y-50324D01*
Y-51276D01*
X-16029Y-52156D01*
X-15356Y-52829D01*
X-14476Y-53194D01*
X-13524D01*
X-12644Y-52829D01*
X-11971Y-52156D01*
X-11698Y-51499D01*
X-11293Y-51154D01*
X-10606Y-50884D01*
X-10400Y-50925D01*
X3258D01*
X3271Y-50956D01*
X3944Y-51629D01*
X4824Y-51994D01*
X5776D01*
X6656Y-51629D01*
X7329Y-50956D01*
X7694Y-50076D01*
Y-49124D01*
X7329Y-48244D01*
X6656Y-47571D01*
X5776Y-47206D01*
X4824D01*
X3944Y-47571D01*
X3271Y-48244D01*
X3258Y-48274D01*
X-9851D01*
X-17051Y-41075D01*
X-17039Y-41059D01*
X-17039Y-41059D01*
X-17398Y-40788D01*
X-17817Y-40506D01*
X-17818Y-40505D01*
X-17855Y-40481D01*
X-39348Y-26000D01*
X-39056Y-25043D01*
X-31366D01*
Y-13957D01*
X-33612D01*
X-33951Y-12957D01*
X-33669Y-12740D01*
X-32941Y-11791D01*
X-32483Y-10686D01*
X-32393Y-10000D01*
X-37500D01*
X-42607D01*
X-42517Y-10686D01*
X-42059Y-11791D01*
X-41331Y-12740D01*
X-41049Y-12957D01*
X-41388Y-13957D01*
X-43634D01*
Y-20620D01*
X-44586Y-20924D01*
X-59202Y-418D01*
X-59182Y-335D01*
X-58633Y506D01*
X-58024D01*
X-57144Y871D01*
X-56471Y1544D01*
X-56106Y2424D01*
X-55776Y3306D01*
X-54824Y3306D01*
X-53944Y3671D01*
X-53271Y4344D01*
X-52906Y5224D01*
Y6176D01*
X-53271Y7056D01*
X-53944Y7729D01*
X-54824Y8094D01*
X-55776D01*
X-56656Y7729D01*
X-57329Y7056D01*
X-57694Y6176D01*
X-58024Y5294D01*
X-58976Y5294D01*
X-59856Y4929D01*
X-60529Y4256D01*
X-60814Y3568D01*
X-61454Y3367D01*
X-61894Y3359D01*
X-72387Y18082D01*
X-72390Y18085D01*
X-72392Y18088D01*
X-72394Y18091D01*
X-72470Y18162D01*
X-72623Y18391D01*
X-73049Y18676D01*
X-73166Y18773D01*
X-98290Y32506D01*
X-98035Y33506D01*
X-97824D01*
X-96944Y33871D01*
X-96271Y34544D01*
X-96176Y34563D01*
X-96084Y34471D01*
X-95205Y34106D01*
X-94252D01*
X-93372Y34471D01*
X-92699Y35144D01*
X-92335Y36024D01*
Y36976D01*
X-92699Y37856D01*
X-93372Y38529D01*
X-93288Y39577D01*
X-93031Y39683D01*
X-92358Y40357D01*
X-91993Y41237D01*
Y42189D01*
X-92358Y43069D01*
X-92702Y43413D01*
X-92671Y43444D01*
X-92306Y44324D01*
Y45276D01*
X-92609Y46006D01*
X-92471Y46144D01*
X-92106Y47024D01*
Y47976D01*
X-92471Y48856D01*
X-93144Y49529D01*
X-94024Y49894D01*
X-94976D01*
X-95212Y49796D01*
X-95644Y50671D01*
X-95432Y50883D01*
X-94971Y51344D01*
X-94606Y52224D01*
Y53176D01*
X-94971Y54056D01*
X-95259Y54344D01*
X-94940Y55115D01*
Y56067D01*
X-95304Y56947D01*
X-95978Y57620D01*
X-95699Y58587D01*
X-95674Y58650D01*
Y59602D01*
X-96038Y60482D01*
X-96711Y61155D01*
X-97591Y61519D01*
D02*
G37*
G36*
X-130662Y30377D02*
X-138206D01*
Y23227D01*
X-137942D01*
X-137673Y23002D01*
X-137279Y22381D01*
X-134434D01*
X-131588D01*
X-131194Y23002D01*
X-130925Y23227D01*
X-130662D01*
Y30377D01*
D02*
G37*
G36*
X-36909Y-4918D02*
X-37000D01*
Y-9000D01*
X-32393D01*
X-32483Y-8314D01*
X-32941Y-7209D01*
X-33669Y-6260D01*
X-34618Y-5531D01*
X-35723Y-5074D01*
X-36909Y-4918D01*
D02*
G37*
G36*
X-38000D02*
X-38091D01*
X-39277Y-5074D01*
X-40382Y-5531D01*
X-41331Y-6260D01*
X-42059Y-7209D01*
X-42517Y-8314D01*
X-42607Y-9000D01*
X-38000D01*
Y-4918D01*
D02*
G37*
G36*
X-95663Y-11409D02*
X-96856Y-15860D01*
X-92913Y-16916D01*
X-92889Y-16829D01*
X-92733Y-15643D01*
X-92889Y-14457D01*
X-93347Y-13352D01*
X-94075Y-12402D01*
X-95024Y-11674D01*
X-95663Y-11409D01*
D02*
G37*
G36*
X-97115Y-16826D02*
X-98307Y-21276D01*
X-97621Y-21366D01*
X-96435Y-21210D01*
X-95330Y-20752D01*
X-94381Y-20024D01*
X-93652Y-19075D01*
X-93195Y-17970D01*
X-93171Y-17882D01*
X-97115Y-16826D01*
D02*
G37*
G36*
X-134924Y-22306D02*
X-135876D01*
X-136756Y-22671D01*
X-137429Y-23344D01*
X-137794Y-24224D01*
Y-25176D01*
X-137429Y-26056D01*
X-136756Y-26729D01*
X-135876Y-27094D01*
X-134924D01*
X-134044Y-26729D01*
X-133371Y-26056D01*
X-133006Y-25176D01*
Y-24224D01*
X-133371Y-23344D01*
X-134044Y-22671D01*
X-134924Y-22306D01*
D02*
G37*
G36*
X-25524Y-22706D02*
X-26476D01*
X-27356Y-23071D01*
X-28029Y-23744D01*
X-28394Y-24624D01*
Y-25576D01*
X-28029Y-26456D01*
X-27356Y-27129D01*
X-26476Y-27494D01*
X-25524D01*
X-24644Y-27129D01*
X-23971Y-26456D01*
X-23606Y-25576D01*
Y-24624D01*
X-23971Y-23744D01*
X-24644Y-23071D01*
X-25524Y-22706D01*
D02*
G37*
G36*
X103918Y-26876D02*
X100458D01*
Y-29402D01*
X100958D01*
X101741Y-29299D01*
X102471Y-28997D01*
X103097Y-28516D01*
X103578Y-27889D01*
X103881Y-27159D01*
X103918Y-26876D01*
D02*
G37*
G36*
X-115439Y-25855D02*
X-116391D01*
X-117271Y-26220D01*
X-117944Y-26893D01*
X-118309Y-27773D01*
Y-28725D01*
X-117944Y-29605D01*
X-117271Y-30278D01*
X-116391Y-30643D01*
X-115439D01*
X-114559Y-30278D01*
X-113886Y-29605D01*
X-113521Y-28725D01*
Y-27773D01*
X-113886Y-26893D01*
X-114559Y-26220D01*
X-115439Y-25855D01*
D02*
G37*
G36*
X21505Y-31651D02*
Y-36258D01*
X25588D01*
Y-36167D01*
X25431Y-34981D01*
X24974Y-33876D01*
X24245Y-32927D01*
X23296Y-32199D01*
X22191Y-31741D01*
X21505Y-31651D01*
D02*
G37*
G36*
X-11995Y-31651D02*
X-12681Y-31741D01*
X-13786Y-32199D01*
X-14735Y-32927D01*
X-15463Y-33876D01*
X-15921Y-34981D01*
X-16077Y-36167D01*
Y-36258D01*
X-11995D01*
Y-31651D01*
D02*
G37*
G36*
X-115293Y-33038D02*
X-116245D01*
X-117125Y-33402D01*
X-117798Y-34075D01*
X-118163Y-34955D01*
Y-35908D01*
X-117798Y-36787D01*
X-117125Y-37461D01*
X-116245Y-37825D01*
X-115293D01*
X-114413Y-37461D01*
X-113740Y-36787D01*
X-113375Y-35908D01*
Y-34955D01*
X-113740Y-34075D01*
X-114413Y-33402D01*
X-115293Y-33038D01*
D02*
G37*
G36*
X-125931Y-35260D02*
X-126883D01*
X-127763Y-35625D01*
X-128436Y-36298D01*
X-128801Y-37178D01*
Y-38130D01*
X-128436Y-39010D01*
X-127763Y-39683D01*
X-126883Y-40048D01*
X-125931D01*
X-125844Y-40012D01*
X-125589Y-40266D01*
X-124710Y-40630D01*
X-123757D01*
X-123670Y-40594D01*
X-123416Y-40848D01*
X-122536Y-41212D01*
X-121584D01*
X-120704Y-40848D01*
X-120031Y-40174D01*
X-119667Y-39295D01*
Y-38342D01*
X-120031Y-37463D01*
X-120704Y-36789D01*
X-121584Y-36425D01*
X-122536D01*
X-122624Y-36461D01*
X-122878Y-36207D01*
X-123757Y-35843D01*
X-124710D01*
X-124797Y-35879D01*
X-125051Y-35625D01*
X-125931Y-35260D01*
D02*
G37*
G36*
X25588Y-37258D02*
X21505D01*
Y-41865D01*
X22191Y-41775D01*
X23296Y-41317D01*
X24245Y-40589D01*
X24974Y-39640D01*
X25431Y-38535D01*
X25588Y-37348D01*
Y-37258D01*
D02*
G37*
G36*
X-11995Y-37258D02*
X-16077D01*
Y-37348D01*
X-15921Y-38535D01*
X-15463Y-39640D01*
X-14735Y-40589D01*
X-13786Y-41317D01*
X-12681Y-41775D01*
X-11995Y-41865D01*
Y-37258D01*
D02*
G37*
G36*
X-99724Y-37806D02*
X-100676D01*
X-101556Y-38171D01*
X-102229Y-38844D01*
X-102594Y-39724D01*
Y-40676D01*
X-102229Y-41556D01*
X-101556Y-42229D01*
X-100676Y-42594D01*
X-99724D01*
X-98844Y-42229D01*
X-98171Y-41556D01*
X-97806Y-40676D01*
Y-39724D01*
X-98171Y-38844D01*
X-98844Y-38171D01*
X-99724Y-37806D01*
D02*
G37*
G36*
X-106153Y-43683D02*
X-107106D01*
X-107985Y-44047D01*
X-108659Y-44720D01*
X-109023Y-45600D01*
Y-46552D01*
X-108659Y-47432D01*
X-107985Y-48105D01*
X-107106Y-48470D01*
X-106153D01*
X-105273Y-48105D01*
X-104600Y-47432D01*
X-104236Y-46552D01*
Y-45600D01*
X-104600Y-44720D01*
X-105273Y-44047D01*
X-106153Y-43683D01*
D02*
G37*
G36*
X-119882Y-46302D02*
X-120835D01*
X-121714Y-46666D01*
X-122388Y-47340D01*
X-122752Y-48219D01*
Y-49172D01*
X-122388Y-50051D01*
X-121714Y-50725D01*
X-120835Y-51089D01*
X-119882D01*
X-119003Y-50725D01*
X-118329Y-50051D01*
X-117965Y-49172D01*
Y-48219D01*
X-118329Y-47340D01*
X-119003Y-46666D01*
X-119882Y-46302D01*
D02*
G37*
G36*
X34276Y-52606D02*
X33324D01*
X32444Y-52971D01*
X31771Y-53644D01*
X31406Y-54524D01*
Y-55476D01*
X31771Y-56356D01*
X32444Y-57029D01*
X33324Y-57394D01*
X34276D01*
X35156Y-57029D01*
X35295Y-56890D01*
X36475Y-57125D01*
X36571Y-57356D01*
X37244Y-58029D01*
X38124Y-58394D01*
X39076D01*
X39956Y-58029D01*
X40629Y-57356D01*
X40994Y-56476D01*
Y-55524D01*
X40629Y-54644D01*
X39956Y-53971D01*
X39076Y-53606D01*
X38124D01*
X37244Y-53971D01*
X37105Y-54110D01*
X35925Y-53875D01*
X35829Y-53644D01*
X35156Y-52971D01*
X34276Y-52606D01*
D02*
G37*
G36*
X45276Y-54806D02*
X44324D01*
X43444Y-55171D01*
X42771Y-55844D01*
X42406Y-56724D01*
Y-57676D01*
X42771Y-58556D01*
X43444Y-59229D01*
X44324Y-59594D01*
X45276D01*
X46156Y-59229D01*
X46829Y-58556D01*
X47194Y-57676D01*
Y-56724D01*
X46829Y-55844D01*
X46156Y-55171D01*
X45276Y-54806D01*
D02*
G37*
G36*
X-70532Y-59547D02*
X-70553D01*
Y-63000D01*
X-67100D01*
Y-62980D01*
X-67369Y-61974D01*
X-67890Y-61073D01*
X-68626Y-60337D01*
X-69527Y-59817D01*
X-70532Y-59547D01*
D02*
G37*
G36*
X-71553D02*
X-71573D01*
X-72579Y-59817D01*
X-73480Y-60337D01*
X-74216Y-61073D01*
X-74736Y-61974D01*
X-75006Y-62980D01*
Y-63000D01*
X-71553D01*
Y-59547D01*
D02*
G37*
G36*
X102376Y-59206D02*
X101424D01*
X100544Y-59571D01*
X99871Y-60244D01*
X99506Y-61124D01*
Y-62076D01*
X99871Y-62956D01*
X100544Y-63629D01*
X101424Y-63994D01*
X102006D01*
Y-64276D01*
X102371Y-65156D01*
X103044Y-65829D01*
X103924Y-66194D01*
X104876D01*
X105756Y-65829D01*
X106429Y-65156D01*
X106794Y-64276D01*
Y-63324D01*
X106429Y-62444D01*
X105756Y-61771D01*
X104876Y-61406D01*
X104294D01*
Y-61124D01*
X103929Y-60244D01*
X103256Y-59571D01*
X102376Y-59206D01*
D02*
G37*
G36*
X-67100Y-64000D02*
X-70553D01*
Y-67453D01*
X-70532D01*
X-69527Y-67183D01*
X-68626Y-66663D01*
X-67890Y-65927D01*
X-67369Y-65026D01*
X-67100Y-64020D01*
Y-64000D01*
D02*
G37*
G36*
X-71553D02*
X-75006D01*
Y-64020D01*
X-74736Y-65026D01*
X-74216Y-65927D01*
X-73480Y-66663D01*
X-72579Y-67183D01*
X-71573Y-67453D01*
X-71553D01*
Y-64000D01*
D02*
G37*
G36*
X-127567Y-61843D02*
X-128519D01*
X-129399Y-62207D01*
X-130072Y-62880D01*
X-130436Y-63760D01*
Y-64713D01*
X-130072Y-65592D01*
X-129399Y-66266D01*
X-128519Y-66630D01*
X-127567D01*
X-127379Y-66553D01*
X-127032Y-66900D01*
X-126152Y-67264D01*
X-125200D01*
X-125013Y-67187D01*
X-124665Y-67534D01*
X-123786Y-67898D01*
X-122833D01*
X-121954Y-67534D01*
X-121280Y-66861D01*
X-120916Y-65981D01*
Y-65028D01*
X-121280Y-64149D01*
X-121954Y-63475D01*
X-122833Y-63111D01*
X-123786D01*
X-123973Y-63188D01*
X-124320Y-62841D01*
X-125200Y-62477D01*
X-126152D01*
X-126339Y-62554D01*
X-126687Y-62207D01*
X-127567Y-61843D01*
D02*
G37*
G36*
X-88024Y-58506D02*
X-88976D01*
X-89856Y-58871D01*
X-90529Y-59544D01*
X-90894Y-60424D01*
Y-61376D01*
X-90529Y-62256D01*
X-89856Y-62929D01*
X-88976Y-63294D01*
X-88024D01*
X-87144Y-62929D01*
X-87006Y-62791D01*
X-86006Y-63205D01*
Y-68453D01*
X-76100D01*
Y-58547D01*
X-86006D01*
Y-58595D01*
X-87006Y-59009D01*
X-87144Y-58871D01*
X-88024Y-58506D01*
D02*
G37*
G36*
X118290Y-74035D02*
X117338D01*
X116458Y-74399D01*
X115785Y-75073D01*
X115420Y-75953D01*
Y-76905D01*
X115785Y-77785D01*
X116458Y-78458D01*
X117338Y-78822D01*
X118290D01*
X119170Y-78458D01*
X119843Y-77785D01*
X120208Y-76905D01*
Y-75953D01*
X119843Y-75073D01*
X119170Y-74399D01*
X118290Y-74035D01*
D02*
G37*
G36*
X-35324Y-76606D02*
X-36276D01*
X-37156Y-76971D01*
X-37829Y-77644D01*
X-38194Y-78524D01*
Y-79476D01*
X-37829Y-80356D01*
X-37156Y-81029D01*
X-36276Y-81394D01*
X-35324D01*
X-34444Y-81029D01*
X-33771Y-80356D01*
X-33406Y-79476D01*
Y-78524D01*
X-33771Y-77644D01*
X-34444Y-76971D01*
X-35324Y-76606D01*
D02*
G37*
G36*
X-59524Y-78306D02*
X-60476D01*
X-61356Y-78671D01*
X-62029Y-79344D01*
X-62394Y-80224D01*
Y-81176D01*
X-62029Y-82056D01*
X-61356Y-82729D01*
X-60476Y-83094D01*
X-59524D01*
X-58644Y-82729D01*
X-57971Y-82056D01*
X-57606Y-81176D01*
Y-80224D01*
X-57971Y-79344D01*
X-58644Y-78671D01*
X-59524Y-78306D01*
D02*
G37*
G36*
X-51924Y-83006D02*
X-52876D01*
X-53756Y-83371D01*
X-54429Y-84044D01*
X-54794Y-84924D01*
Y-85876D01*
X-54429Y-86756D01*
X-53756Y-87429D01*
X-52876Y-87794D01*
X-51924D01*
X-51044Y-87429D01*
X-50371Y-86756D01*
X-50006Y-85876D01*
Y-84924D01*
X-50371Y-84044D01*
X-51044Y-83371D01*
X-51924Y-83006D01*
D02*
G37*
G36*
X-32624Y-85206D02*
X-33576D01*
X-34456Y-85571D01*
X-35129Y-86244D01*
X-35494Y-87124D01*
Y-88076D01*
X-35129Y-88956D01*
X-34456Y-89629D01*
X-33576Y-89994D01*
X-32624D01*
X-31744Y-89629D01*
X-31071Y-88956D01*
X-30706Y-88076D01*
Y-87124D01*
X-31071Y-86244D01*
X-31744Y-85571D01*
X-32624Y-85206D01*
D02*
G37*
G36*
X-61024Y-86006D02*
X-61976D01*
X-62856Y-86371D01*
X-63529Y-87044D01*
X-63894Y-87924D01*
Y-88876D01*
X-63529Y-89756D01*
X-62856Y-90429D01*
X-61976Y-90794D01*
X-61024D01*
X-60144Y-90429D01*
X-59471Y-89756D01*
X-59106Y-88876D01*
Y-87924D01*
X-59471Y-87044D01*
X-60144Y-86371D01*
X-61024Y-86006D01*
D02*
G37*
G36*
X57782Y-85179D02*
X54010Y-91711D01*
X60202Y-95286D01*
X60334Y-95058D01*
X60664Y-94938D01*
X61398Y-94907D01*
X62821Y-92443D01*
X64244Y-89978D01*
X63903Y-89327D01*
X63842Y-88981D01*
X63974Y-88753D01*
X57782Y-85179D01*
D02*
G37*
G36*
X-14985Y-92976D02*
X-24891D01*
Y-95318D01*
X-25891Y-95827D01*
X-26424Y-95606D01*
X-27376D01*
X-28256Y-95971D01*
X-28929Y-96644D01*
X-29294Y-97524D01*
Y-98476D01*
X-28929Y-99356D01*
X-28256Y-100029D01*
X-27376Y-100394D01*
X-26424D01*
X-25891Y-100173D01*
X-24891Y-100682D01*
Y-102882D01*
X-17944D01*
X-17276Y-103882D01*
X-17294Y-103924D01*
Y-104876D01*
X-16929Y-105756D01*
X-16256Y-106429D01*
X-15376Y-106794D01*
X-14424D01*
X-13544Y-106429D01*
X-12871Y-105756D01*
X-12506Y-104876D01*
Y-103924D01*
X-12871Y-103044D01*
X-13544Y-102371D01*
X-14424Y-102006D01*
X-14985D01*
Y-92976D01*
D02*
G37*
G36*
X114253Y-80921D02*
X113301D01*
X112421Y-81285D01*
X111748Y-81959D01*
X111384Y-82838D01*
Y-83790D01*
X111748Y-84670D01*
X112196Y-85119D01*
X112171Y-85144D01*
X111806Y-86024D01*
Y-86976D01*
X112171Y-87856D01*
X111571Y-88644D01*
X111206Y-89524D01*
Y-90476D01*
X111563Y-91338D01*
X111356Y-91544D01*
X110992Y-92424D01*
Y-92761D01*
X110244Y-93071D01*
X109571Y-93744D01*
X109291Y-94420D01*
X108444Y-94771D01*
X107771Y-95444D01*
X107538Y-96006D01*
X107424D01*
X106544Y-96371D01*
X105871Y-97044D01*
X104882Y-97033D01*
X104576Y-96906D01*
X103624D01*
X102744Y-97271D01*
X102071Y-97944D01*
X101706Y-98824D01*
Y-99776D01*
X102071Y-100656D01*
X102744Y-101329D01*
X103624Y-101694D01*
X103694D01*
X103893Y-102174D01*
X104566Y-102848D01*
X105446Y-103212D01*
X106398D01*
X107278Y-102848D01*
X107951Y-102174D01*
X108316Y-101294D01*
Y-100794D01*
X108376D01*
X109256Y-100429D01*
X109929Y-99756D01*
X110162Y-99194D01*
X110276D01*
X111156Y-98829D01*
X111829Y-98156D01*
X112109Y-97480D01*
X112956Y-97129D01*
X113629Y-96456D01*
X113994Y-95576D01*
Y-95239D01*
X114742Y-94929D01*
X115415Y-94256D01*
X115779Y-93376D01*
Y-92424D01*
X115423Y-91562D01*
X115629Y-91356D01*
X115994Y-90476D01*
Y-89524D01*
X115629Y-88644D01*
X116229Y-87856D01*
X116594Y-86976D01*
Y-86024D01*
X116229Y-85144D01*
X115781Y-84696D01*
X115807Y-84670D01*
X116171Y-83790D01*
Y-82838D01*
X115807Y-81959D01*
X115133Y-81285D01*
X114253Y-80921D01*
D02*
G37*
G36*
X-9418Y-93976D02*
X-9438D01*
Y-97429D01*
X-5985D01*
Y-97409D01*
X-6255Y-96403D01*
X-6775Y-95502D01*
X-7511Y-94766D01*
X-8412Y-94246D01*
X-9418Y-93976D01*
D02*
G37*
G36*
X-10438D02*
X-10458D01*
X-11464Y-94246D01*
X-12365Y-94766D01*
X-13101Y-95502D01*
X-13621Y-96403D01*
X-13891Y-97409D01*
Y-97429D01*
X-10438D01*
Y-93976D01*
D02*
G37*
G36*
X95405Y-95303D02*
X94453D01*
X93573Y-95668D01*
X92900Y-96341D01*
X92535Y-97221D01*
Y-98173D01*
X92900Y-99053D01*
X93573Y-99726D01*
X94453Y-100091D01*
X94980D01*
X95156Y-100515D01*
X95829Y-101189D01*
X96709Y-101553D01*
X97661D01*
X98541Y-101189D01*
X99214Y-100515D01*
X99579Y-99635D01*
Y-98683D01*
X99214Y-97803D01*
X98541Y-97130D01*
X97661Y-96766D01*
X97134D01*
X96958Y-96341D01*
X96285Y-95668D01*
X95405Y-95303D01*
D02*
G37*
G36*
X-5985Y-98429D02*
X-9438D01*
Y-101882D01*
X-9418D01*
X-8412Y-101612D01*
X-7511Y-101092D01*
X-6775Y-100356D01*
X-6255Y-99455D01*
X-5985Y-98449D01*
Y-98429D01*
D02*
G37*
G36*
X-10438D02*
X-13891D01*
Y-98449D01*
X-13621Y-99455D01*
X-13101Y-100356D01*
X-12365Y-101092D01*
X-11464Y-101612D01*
X-10458Y-101882D01*
X-10438D01*
Y-98429D01*
D02*
G37*
G36*
X714Y-92976D02*
X-590D01*
X-1850Y-93314D01*
X-2979Y-93966D01*
X-3901Y-94888D01*
X-4553Y-96017D01*
X-4891Y-97277D01*
Y-98581D01*
X-4553Y-99841D01*
X-3901Y-100970D01*
X-2979Y-101892D01*
X-1850Y-102544D01*
X-590Y-102882D01*
X714D01*
X1974Y-102544D01*
X3103Y-101892D01*
X3210Y-101785D01*
X3483Y-101783D01*
X4332Y-102078D01*
X4571Y-102656D01*
X5010Y-103095D01*
X5171Y-104144D01*
X4806Y-105024D01*
Y-105976D01*
X5171Y-106856D01*
X5844Y-107529D01*
X6724Y-107894D01*
X7676D01*
X8556Y-107529D01*
X9229Y-106856D01*
X9594Y-105976D01*
Y-105024D01*
X9229Y-104144D01*
X8790Y-103705D01*
X8629Y-102656D01*
X8994Y-101776D01*
Y-100824D01*
X8629Y-99944D01*
X7956Y-99271D01*
X7076Y-98906D01*
X6124D01*
X5943Y-98981D01*
X5632Y-98847D01*
X5015Y-98283D01*
Y-97277D01*
X4677Y-96017D01*
X4025Y-94888D01*
X3103Y-93966D01*
X1974Y-93314D01*
X714Y-92976D01*
D02*
G37*
G36*
X-79367Y-104771D02*
X-79387D01*
Y-108224D01*
X-75935D01*
Y-108204D01*
X-76204Y-107199D01*
X-76724Y-106297D01*
X-77460Y-105561D01*
X-78362Y-105041D01*
X-79367Y-104771D01*
D02*
G37*
G36*
X-80387D02*
X-80408D01*
X-81413Y-105041D01*
X-82314Y-105561D01*
X-83050Y-106297D01*
X-83571Y-107199D01*
X-83840Y-108204D01*
Y-108224D01*
X-80387D01*
Y-104771D01*
D02*
G37*
G36*
X-75935Y-109224D02*
X-79387D01*
Y-112677D01*
X-79367D01*
X-78362Y-112408D01*
X-77460Y-111887D01*
X-76724Y-111151D01*
X-76204Y-110250D01*
X-75935Y-109245D01*
Y-109224D01*
D02*
G37*
G36*
X-80387D02*
X-83840D01*
Y-109245D01*
X-83571Y-110250D01*
X-83050Y-111151D01*
X-82314Y-111887D01*
X-81413Y-112408D01*
X-80408Y-112677D01*
X-80387D01*
Y-109224D01*
D02*
G37*
G36*
X-69235Y-103771D02*
X-70539D01*
X-71799Y-104109D01*
X-72929Y-104761D01*
X-73851Y-105683D01*
X-74503Y-106813D01*
X-74840Y-108072D01*
Y-109376D01*
X-74503Y-110636D01*
X-73851Y-111765D01*
X-72929Y-112687D01*
X-71799Y-113339D01*
X-70539Y-113677D01*
X-69235D01*
X-67976Y-113339D01*
X-66846Y-112687D01*
X-65924Y-111765D01*
X-65272Y-110636D01*
X-64935Y-109376D01*
Y-108072D01*
X-65272Y-106813D01*
X-65924Y-105683D01*
X-66846Y-104761D01*
X-67976Y-104109D01*
X-69235Y-103771D01*
D02*
G37*
G36*
X-84935Y-103771D02*
X-94840D01*
Y-113677D01*
X-84935D01*
Y-103771D01*
D02*
G37*
G36*
X20476Y-114106D02*
X19524D01*
X18644Y-114471D01*
X17971Y-115144D01*
X17606Y-116024D01*
Y-116976D01*
X17971Y-117856D01*
X18644Y-118529D01*
X19524Y-118894D01*
X20476D01*
X21356Y-118529D01*
X22029Y-117856D01*
X22394Y-116976D01*
Y-116024D01*
X22029Y-115144D01*
X21356Y-114471D01*
X20476Y-114106D01*
D02*
G37*
G36*
X36776Y-114206D02*
X35824D01*
X34944Y-114571D01*
X34271Y-115244D01*
X33906Y-116124D01*
Y-117076D01*
X34271Y-117956D01*
X34944Y-118629D01*
X35824Y-118994D01*
X36776D01*
X37656Y-118629D01*
X38329Y-117956D01*
X38694Y-117076D01*
Y-116124D01*
X38329Y-115244D01*
X37656Y-114571D01*
X36776Y-114206D01*
D02*
G37*
G36*
X15276Y-119006D02*
X14324D01*
X13675Y-119275D01*
X13026Y-119006D01*
X12074D01*
X11425Y-119275D01*
X10776Y-119006D01*
X9824D01*
X8944Y-119371D01*
X8271Y-120044D01*
X7906Y-120924D01*
Y-121876D01*
X8271Y-122756D01*
X8944Y-123429D01*
X9824Y-123794D01*
X10776D01*
X11425Y-123525D01*
X12074Y-123794D01*
X13026D01*
X13675Y-123525D01*
X14324Y-123794D01*
X15276D01*
X16156Y-123429D01*
X16829Y-122756D01*
X17194Y-121876D01*
Y-120924D01*
X16829Y-120044D01*
X16156Y-119371D01*
X15276Y-119006D01*
D02*
G37*
G36*
X80476Y-113406D02*
X79524D01*
X78644Y-113771D01*
X77971Y-114444D01*
X77606Y-115324D01*
Y-116276D01*
X77971Y-117156D01*
X78644Y-117829D01*
X79524Y-118194D01*
X80476D01*
X81356Y-117829D01*
X81651Y-117534D01*
X82499Y-118101D01*
X82406Y-118324D01*
Y-119276D01*
X82771Y-120156D01*
X83444Y-120829D01*
X84324Y-121194D01*
X85276D01*
X86156Y-120829D01*
X86829Y-120156D01*
X87194Y-119276D01*
Y-118324D01*
X86829Y-117444D01*
X86156Y-116771D01*
X85276Y-116406D01*
X84324D01*
X83444Y-116771D01*
X83149Y-117066D01*
X82301Y-116499D01*
X82394Y-116276D01*
Y-115324D01*
X82029Y-114444D01*
X81356Y-113771D01*
X80476Y-113406D01*
D02*
G37*
G36*
X50876Y-121606D02*
X49924D01*
X49044Y-121971D01*
X48371Y-122644D01*
X48006Y-123524D01*
Y-124476D01*
X48371Y-125356D01*
X49044Y-126029D01*
X49924Y-126394D01*
X50876D01*
X51756Y-126029D01*
X52429Y-125356D01*
X52794Y-124476D01*
Y-123524D01*
X52429Y-122644D01*
X51756Y-121971D01*
X50876Y-121606D01*
D02*
G37*
G36*
X-45794Y-124233D02*
X-45814D01*
Y-127686D01*
X-42362D01*
Y-127665D01*
X-42631Y-126660D01*
X-43151Y-125759D01*
X-43887Y-125023D01*
X-44789Y-124502D01*
X-45794Y-124233D01*
D02*
G37*
G36*
X-46814D02*
X-46835D01*
X-47840Y-124502D01*
X-48741Y-125023D01*
X-49477Y-125759D01*
X-49998Y-126660D01*
X-50267Y-127665D01*
Y-127686D01*
X-46814D01*
Y-124233D01*
D02*
G37*
G36*
X-42362Y-128686D02*
X-45814D01*
Y-132139D01*
X-45794D01*
X-44789Y-131869D01*
X-43887Y-131349D01*
X-43151Y-130613D01*
X-42631Y-129711D01*
X-42362Y-128706D01*
Y-128686D01*
D02*
G37*
G36*
X-46814D02*
X-50267D01*
Y-128706D01*
X-49998Y-129711D01*
X-49477Y-130613D01*
X-48741Y-131349D01*
X-47840Y-131869D01*
X-46835Y-132139D01*
X-46814D01*
Y-128686D01*
D02*
G37*
G36*
X19476Y-128106D02*
X18524D01*
X17644Y-128471D01*
X16971Y-129144D01*
X16606Y-130024D01*
Y-130976D01*
X16971Y-131856D01*
X17644Y-132529D01*
X18524Y-132894D01*
X19476D01*
X20356Y-132529D01*
X21029Y-131856D01*
X21394Y-130976D01*
Y-130024D01*
X21029Y-129144D01*
X20356Y-128471D01*
X19476Y-128106D01*
D02*
G37*
G36*
X-35662Y-123233D02*
X-36966D01*
X-38226Y-123571D01*
X-39355Y-124223D01*
X-40277Y-125145D01*
X-40929Y-126274D01*
X-41267Y-127534D01*
Y-128838D01*
X-40929Y-130097D01*
X-40277Y-131227D01*
X-39355Y-132149D01*
X-38226Y-132801D01*
X-36966Y-133139D01*
X-35662D01*
X-34402Y-132801D01*
X-33273Y-132149D01*
X-32351Y-131227D01*
X-31699Y-130097D01*
X-31361Y-128838D01*
Y-127534D01*
X-31699Y-126274D01*
X-32351Y-125145D01*
X-33273Y-124223D01*
X-34402Y-123571D01*
X-35662Y-123233D01*
D02*
G37*
G36*
X-51362D02*
X-61267D01*
Y-133139D01*
X-51362D01*
Y-123233D01*
D02*
G37*
G36*
X19576Y-138106D02*
X18624D01*
X17875Y-138417D01*
X17126Y-138106D01*
X16174D01*
X15294Y-138471D01*
X14621Y-139144D01*
X14256Y-140024D01*
Y-140976D01*
X14621Y-141856D01*
X15294Y-142529D01*
X16174Y-142894D01*
X16319D01*
Y-143814D01*
X16683Y-144693D01*
X17357Y-145367D01*
X18236Y-145731D01*
X19189D01*
X20068Y-145367D01*
X20742Y-144693D01*
X21106Y-143814D01*
Y-142861D01*
X20819Y-142167D01*
X21129Y-141856D01*
X21494Y-140976D01*
Y-140024D01*
X21129Y-139144D01*
X20456Y-138471D01*
X19576Y-138106D01*
D02*
G37*
G36*
X-9390Y-138488D02*
X-9410D01*
Y-141941D01*
X-5957D01*
Y-141921D01*
X-6227Y-140915D01*
X-6747Y-140014D01*
X-7483Y-139278D01*
X-8384Y-138758D01*
X-9390Y-138488D01*
D02*
G37*
G36*
X-10410D02*
X-10430D01*
X-11436Y-138758D01*
X-12337Y-139278D01*
X-13073Y-140014D01*
X-13593Y-140915D01*
X-13863Y-141921D01*
Y-141941D01*
X-10410D01*
Y-138488D01*
D02*
G37*
G36*
X-5957Y-142941D02*
X-9410D01*
Y-146394D01*
X-9390D01*
X-8384Y-146124D01*
X-7483Y-145604D01*
X-6747Y-144868D01*
X-6227Y-143967D01*
X-5957Y-142961D01*
Y-142941D01*
D02*
G37*
G36*
X-10410D02*
X-13863D01*
Y-142961D01*
X-13593Y-143967D01*
X-13073Y-144868D01*
X-12337Y-145604D01*
X-11436Y-146124D01*
X-10430Y-146394D01*
X-10410D01*
Y-142941D01*
D02*
G37*
G36*
X-14957Y-137488D02*
X-24863D01*
Y-147394D01*
X-14957D01*
Y-137488D01*
D02*
G37*
G36*
X742Y-137488D02*
X-562D01*
X-1822Y-137826D01*
X-2951Y-138478D01*
X-3873Y-139400D01*
X-4525Y-140529D01*
X-4863Y-141789D01*
Y-143093D01*
X-4525Y-144353D01*
X-3873Y-145482D01*
X-2951Y-146404D01*
X-1822Y-147056D01*
X-562Y-147394D01*
X742D01*
X2001Y-147056D01*
X3131Y-146404D01*
X4053Y-145482D01*
X4705Y-144353D01*
X5043Y-143093D01*
Y-141789D01*
X4705Y-140529D01*
X4053Y-139400D01*
X3131Y-138478D01*
X2001Y-137826D01*
X742Y-137488D01*
D02*
G37*
%LPD*%
G36*
X-106030Y19974D02*
X-105276Y19316D01*
X-104684Y18687D01*
X-104092Y18192D01*
X-104092Y18192D01*
X-104001Y18112D01*
X-103883Y18008D01*
X-99189Y13314D01*
X-99384Y12808D01*
X-99728Y12439D01*
X-100686Y12696D01*
X-102134Y12886D01*
X-103580Y12696D01*
X-104929Y12137D01*
X-106087Y11249D01*
X-106975Y10091D01*
X-107534Y8742D01*
X-107725Y7295D01*
X-107534Y5848D01*
X-107215Y5078D01*
X-107950Y4240D01*
X-108641Y4425D01*
X-111511Y-6284D01*
X-110940Y-6437D01*
X-113976Y-17766D01*
X-114958Y-18445D01*
X-121434Y-15803D01*
X-121447Y-15774D01*
X-121451Y-15772D01*
X-125100Y-5097D01*
X-125075Y-5037D01*
X-125137Y-4889D01*
X-121593Y23101D01*
X-120516Y23647D01*
X-120176Y23506D01*
X-119224D01*
X-118344Y23871D01*
X-117671Y24544D01*
X-117306Y25424D01*
Y26376D01*
X-117671Y27256D01*
X-117722Y27308D01*
X-117844Y27571D01*
X-117171Y28244D01*
X-117133Y28335D01*
X-115934Y28616D01*
X-106030Y19974D01*
D02*
G37*
G36*
X-103268Y32206D02*
X-92482Y26311D01*
X-92406Y25129D01*
X-92715Y24820D01*
X-93080Y23940D01*
Y22988D01*
X-92715Y22108D01*
X-92042Y21434D01*
X-91162Y21070D01*
X-90730D01*
X-90121Y20868D01*
X-89806Y20155D01*
Y19811D01*
X-89442Y18931D01*
X-88769Y18258D01*
X-87889Y17894D01*
X-86937D01*
X-86057Y18258D01*
X-85383Y18931D01*
X-85019Y19811D01*
Y20763D01*
X-85195Y21188D01*
X-84406Y21896D01*
X-74572Y16521D01*
X-74549Y16465D01*
X-74465Y16430D01*
X-45815Y-23768D01*
X-46529Y-24490D01*
X-56512Y-17558D01*
X-57270Y-16950D01*
X-57378Y-16905D01*
X-58097Y-16267D01*
X-74146Y-978D01*
X-74151Y-971D01*
X-74420Y-761D01*
X-74933Y-425D01*
X-83523Y5197D01*
X-86145Y7819D01*
X-85579Y8667D01*
X-85039Y8444D01*
X-84087D01*
X-83207Y8808D01*
X-82534Y9482D01*
X-82169Y10361D01*
Y11314D01*
X-82534Y12193D01*
X-83207Y12867D01*
X-84087Y13231D01*
X-85039D01*
X-85919Y12867D01*
X-86592Y12193D01*
X-86957Y11314D01*
Y10361D01*
X-86733Y9822D01*
X-87581Y9256D01*
X-104417Y26092D01*
X-108952Y32571D01*
X-108349Y33453D01*
X-103268Y32206D01*
D02*
G37*
%LPC*%
G36*
X-111958Y17832D02*
X-112910D01*
X-113790Y17468D01*
X-114463Y16794D01*
X-114828Y15915D01*
Y14963D01*
X-114463Y14083D01*
X-113790Y13409D01*
X-112910Y13045D01*
X-111958D01*
X-111078Y13409D01*
X-110405Y14083D01*
X-110040Y14963D01*
Y15915D01*
X-110405Y16794D01*
X-111078Y17468D01*
X-111958Y17832D01*
D02*
G37*
G36*
X-106058Y17732D02*
X-107010D01*
X-107890Y17368D01*
X-108563Y16694D01*
X-108928Y15815D01*
Y14863D01*
X-108563Y13983D01*
X-107890Y13309D01*
X-107010Y12945D01*
X-106058D01*
X-105178Y13309D01*
X-104505Y13983D01*
X-104140Y14863D01*
Y15815D01*
X-104505Y16694D01*
X-105178Y17368D01*
X-106058Y17732D01*
D02*
G37*
G36*
X-80524Y17894D02*
X-81476D01*
X-82356Y17529D01*
X-83029Y16856D01*
X-83394Y15976D01*
Y15024D01*
X-83029Y14144D01*
X-82356Y13471D01*
X-81476Y13106D01*
X-80524D01*
X-79644Y13471D01*
X-78971Y14144D01*
X-78606Y15024D01*
Y15976D01*
X-78971Y16856D01*
X-79644Y17529D01*
X-80524Y17894D01*
D02*
G37*
G36*
X-76949Y11539D02*
X-77902D01*
X-78781Y11174D01*
X-79455Y10501D01*
X-79819Y9621D01*
Y8669D01*
X-79455Y7789D01*
X-78781Y7116D01*
X-77902Y6752D01*
X-76949D01*
X-76069Y7116D01*
X-75396Y7789D01*
X-75032Y8669D01*
Y9621D01*
X-75396Y10501D01*
X-76069Y11174D01*
X-76949Y11539D01*
D02*
G37*
G36*
X-68924Y4494D02*
X-69876D01*
X-70756Y4129D01*
X-71429Y3456D01*
X-71794Y2576D01*
Y1624D01*
X-71429Y744D01*
X-70756Y71D01*
X-69876Y-294D01*
X-68924D01*
X-68044Y71D01*
X-67371Y744D01*
X-67006Y1624D01*
Y2576D01*
X-67371Y3456D01*
X-68044Y4129D01*
X-68924Y4494D01*
D02*
G37*
G36*
X-4157Y141634D02*
X-15243D01*
Y139388D01*
X-16243Y139049D01*
X-16460Y139331D01*
X-17409Y140059D01*
X-18514Y140517D01*
X-19200Y140607D01*
Y135500D01*
Y130393D01*
X-18514Y130483D01*
X-17409Y130941D01*
X-16460Y131669D01*
X-16243Y131951D01*
X-15243Y131612D01*
Y129366D01*
X-4157D01*
Y141634D01*
D02*
G37*
G36*
X-20200Y140607D02*
X-20886Y140517D01*
X-21991Y140059D01*
X-22940Y139331D01*
X-23669Y138382D01*
X-24126Y137277D01*
X-24283Y136091D01*
Y136000D01*
X-20200D01*
Y140607D01*
D02*
G37*
G36*
X22459Y135353D02*
X21273Y135197D01*
X20167Y134739D01*
X19218Y134011D01*
X18490Y133062D01*
X18032Y131957D01*
X18009Y131869D01*
X21952Y130812D01*
X23145Y135263D01*
X22459Y135353D01*
D02*
G37*
G36*
X-20200Y135000D02*
X-24283D01*
Y134909D01*
X-24126Y133723D01*
X-23669Y132618D01*
X-22940Y131669D01*
X-21991Y130941D01*
X-20886Y130483D01*
X-20200Y130393D01*
Y135000D01*
D02*
G37*
G36*
X17750Y130903D02*
X17727Y130816D01*
X17571Y129630D01*
X17727Y128444D01*
X18184Y127338D01*
X18913Y126389D01*
X19862Y125661D01*
X20501Y125396D01*
X21693Y129846D01*
X17750Y130903D01*
D02*
G37*
G36*
X24111Y135004D02*
X22789Y130071D01*
X21467Y125137D01*
X22153Y125047D01*
X23339Y125203D01*
X24444Y125661D01*
X24726Y125877D01*
X25604Y125291D01*
X25023Y123122D01*
X35732Y120252D01*
X38907Y132102D01*
X28198Y134971D01*
X27617Y132802D01*
X26563Y132733D01*
X26427Y133062D01*
X25699Y134011D01*
X24750Y134739D01*
X24111Y135004D01*
D02*
G37*
G36*
X62231Y119173D02*
X61045Y119017D01*
X59939Y118559D01*
X58991Y117831D01*
X58262Y116882D01*
X58217Y116803D01*
X61752Y114762D01*
X64056Y118752D01*
X63417Y119017D01*
X62231Y119173D01*
D02*
G37*
G36*
X57717Y115937D02*
X57672Y115859D01*
X57214Y114754D01*
X57058Y113568D01*
X57214Y112382D01*
X57672Y111276D01*
X58400Y110327D01*
X58949Y109906D01*
X61252Y113896D01*
X57717Y115937D01*
D02*
G37*
G36*
X64922Y118252D02*
X62369Y113829D01*
X59815Y109406D01*
X60454Y109141D01*
X61640Y108985D01*
X62826Y109141D01*
X63155Y109277D01*
X63851Y108484D01*
X62728Y106539D01*
X72329Y100995D01*
X78463Y111619D01*
X68862Y117163D01*
X67739Y115218D01*
X66704Y115424D01*
X66657Y115777D01*
X66199Y116882D01*
X65471Y117831D01*
X64922Y118252D01*
D02*
G37*
G36*
X96513Y93414D02*
X95327Y93258D01*
X94221Y92800D01*
X93272Y92072D01*
X93208Y92008D01*
X96095Y89122D01*
X99353Y92379D01*
X98804Y92800D01*
X97699Y93258D01*
X96513Y93414D01*
D02*
G37*
G36*
X92501Y91301D02*
X92437Y91237D01*
X91709Y90288D01*
X91251Y89183D01*
X91095Y87997D01*
X91251Y86811D01*
X91709Y85706D01*
X92130Y85157D01*
X95388Y88414D01*
X92501Y91301D01*
D02*
G37*
G36*
X-47024Y79394D02*
X-47976D01*
X-48856Y79029D01*
X-49529Y78356D01*
X-49537Y78337D01*
X-50644Y78029D01*
X-50662Y78036D01*
X-51524Y78394D01*
X-52476D01*
X-53356Y78029D01*
X-53930Y77456D01*
X-54500Y77401D01*
X-55070Y77456D01*
X-55644Y78029D01*
X-56524Y78394D01*
X-57476D01*
X-58356Y78029D01*
X-59029Y77356D01*
X-59394Y76476D01*
Y75524D01*
X-59029Y74644D01*
X-58356Y73971D01*
X-57476Y73606D01*
X-56524D01*
X-55644Y73971D01*
X-55070Y74544D01*
X-54500Y74599D01*
X-53930Y74544D01*
X-53356Y73971D01*
X-52476Y73606D01*
X-51524D01*
X-50644Y73971D01*
X-49971Y74644D01*
X-49963Y74663D01*
X-48856Y74971D01*
X-48838Y74963D01*
X-47976Y74606D01*
X-47024D01*
X-46144Y74971D01*
X-45471Y75644D01*
X-45106Y76524D01*
Y77476D01*
X-45471Y78356D01*
X-46144Y79029D01*
X-47024Y79394D01*
D02*
G37*
G36*
X-37824Y79894D02*
X-38776D01*
X-39656Y79529D01*
X-40329Y78856D01*
X-40694Y77976D01*
Y77024D01*
X-40329Y76144D01*
X-39656Y75471D01*
X-38776Y75106D01*
X-37824D01*
X-36944Y75471D01*
X-36271Y76144D01*
X-35906Y77024D01*
Y77976D01*
X-36271Y78856D01*
X-36944Y79529D01*
X-37824Y79894D01*
D02*
G37*
G36*
X-64524Y77894D02*
X-65476D01*
X-66356Y77529D01*
X-67029Y76856D01*
X-67394Y75976D01*
Y75024D01*
X-67029Y74144D01*
X-66356Y73471D01*
X-65476Y73106D01*
X-64524D01*
X-63644Y73471D01*
X-62971Y74144D01*
X-62606Y75024D01*
Y75976D01*
X-62971Y76856D01*
X-63644Y77529D01*
X-64524Y77894D01*
D02*
G37*
G36*
X100060Y91672D02*
X96448Y88061D01*
X92837Y84449D01*
X93386Y84028D01*
X94491Y83570D01*
X95677Y83414D01*
X96030Y83461D01*
X96497Y82513D01*
X94909Y80926D01*
X102749Y73086D01*
X111423Y81761D01*
X103584Y89600D01*
X101996Y88012D01*
X101049Y88480D01*
X101095Y88832D01*
X100939Y90018D01*
X100481Y91123D01*
X100060Y91672D01*
D02*
G37*
G36*
X-2224Y76694D02*
X-3176D01*
X-4056Y76329D01*
X-4729Y75656D01*
X-5094Y74776D01*
Y73824D01*
X-4729Y72944D01*
X-4056Y72271D01*
X-3176Y71906D01*
X-2224D01*
X-1344Y72271D01*
X-671Y72944D01*
X-306Y73824D01*
Y74776D01*
X-671Y75656D01*
X-1344Y76329D01*
X-2224Y76694D01*
D02*
G37*
G36*
X-42524Y74894D02*
X-43476D01*
X-44356Y74529D01*
X-45029Y73856D01*
X-45394Y72976D01*
Y72024D01*
X-45029Y71144D01*
X-44356Y70471D01*
X-43476Y70106D01*
X-42524D01*
X-41644Y70471D01*
X-40971Y71144D01*
X-40606Y72024D01*
Y72976D01*
X-40971Y73856D01*
X-41644Y74529D01*
X-42524Y74894D01*
D02*
G37*
G36*
X-26524Y76594D02*
X-27476D01*
X-28356Y76229D01*
X-29029Y75556D01*
X-29394Y74676D01*
Y73724D01*
X-29124Y73074D01*
X-29956Y72729D01*
X-30629Y72056D01*
X-30994Y71176D01*
Y70224D01*
X-30629Y69344D01*
X-29956Y68671D01*
X-29076Y68306D01*
X-28124D01*
X-27244Y68671D01*
X-26571Y69344D01*
X-26206Y70224D01*
Y71176D01*
X-26476Y71826D01*
X-25644Y72171D01*
X-24971Y72844D01*
X-24606Y73724D01*
Y74676D01*
X-24971Y75556D01*
X-25644Y76229D01*
X-26524Y76594D01*
D02*
G37*
G36*
X-65524Y69894D02*
X-66476D01*
X-67356Y69529D01*
X-68029Y68856D01*
X-68394Y67976D01*
Y67024D01*
X-68029Y66144D01*
X-67356Y65471D01*
X-66476Y65106D01*
X-65524D01*
X-64644Y65471D01*
X-63971Y66144D01*
X-63606Y67024D01*
Y67976D01*
X-63971Y68856D01*
X-64644Y69529D01*
X-65524Y69894D01*
D02*
G37*
G36*
X-55724Y69794D02*
X-56676D01*
X-57556Y69429D01*
X-58229Y68756D01*
X-58594Y67876D01*
Y66924D01*
X-58229Y66044D01*
X-57556Y65371D01*
X-56676Y65006D01*
X-55724D01*
X-54844Y65371D01*
X-54171Y66044D01*
X-53806Y66924D01*
Y67876D01*
X-54171Y68756D01*
X-54844Y69429D01*
X-55724Y69794D01*
D02*
G37*
G36*
X24476Y68794D02*
X23524D01*
X22644Y68429D01*
X21971Y67756D01*
X21606Y66876D01*
Y65924D01*
X21971Y65044D01*
X22644Y64371D01*
X23524Y64006D01*
X24476D01*
X25356Y64371D01*
X26029Y65044D01*
X26394Y65924D01*
Y66876D01*
X26029Y67756D01*
X25356Y68429D01*
X24476Y68794D01*
D02*
G37*
G36*
X-13924Y67594D02*
X-14876D01*
X-15756Y67229D01*
X-16429Y66556D01*
X-16794Y65676D01*
Y64724D01*
X-16429Y63844D01*
X-15756Y63171D01*
X-14876Y62806D01*
X-13924D01*
X-13044Y63171D01*
X-12371Y63844D01*
X-12006Y64724D01*
Y65676D01*
X-12371Y66556D01*
X-13044Y67229D01*
X-13924Y67594D01*
D02*
G37*
G36*
X-19924Y63994D02*
X-20876D01*
X-21756Y63629D01*
X-22429Y62956D01*
X-22794Y62076D01*
Y61124D01*
X-22429Y60244D01*
X-21756Y59571D01*
X-20876Y59206D01*
X-19924D01*
X-19044Y59571D01*
X-18371Y60244D01*
X-18006Y61124D01*
Y62076D01*
X-18371Y62956D01*
X-19044Y63629D01*
X-19924Y63994D01*
D02*
G37*
G36*
X-34224Y64894D02*
X-35176D01*
X-36056Y64529D01*
X-36729Y63856D01*
X-37094Y62976D01*
Y62024D01*
X-36729Y61144D01*
X-36056Y60471D01*
X-35176Y60106D01*
X-34224D01*
X-33344Y60471D01*
X-33300Y60515D01*
X-32229Y60544D01*
X-31556Y59871D01*
X-30676Y59506D01*
X-29998D01*
X-29566Y59301D01*
X-29094Y58685D01*
Y58124D01*
X-28729Y57244D01*
X-28056Y56571D01*
X-27176Y56206D01*
X-26224D01*
X-25344Y56571D01*
X-24671Y57244D01*
X-24306Y58124D01*
Y59076D01*
X-24671Y59956D01*
X-25344Y60629D01*
X-26224Y60994D01*
X-26902D01*
X-27334Y61199D01*
X-27806Y61815D01*
Y62376D01*
X-28171Y63256D01*
X-28844Y63929D01*
X-29724Y64294D01*
X-30676D01*
X-31556Y63929D01*
X-31600Y63885D01*
X-32671Y63856D01*
X-33344Y64529D01*
X-34224Y64894D01*
D02*
G37*
G36*
X123024Y59169D02*
X121838Y59013D01*
X120733Y58555D01*
X120655Y58510D01*
X122696Y54975D01*
X126686Y57278D01*
X126265Y57827D01*
X125316Y58555D01*
X124211Y59013D01*
X123024Y59169D01*
D02*
G37*
G36*
X-14224Y57194D02*
X-15176D01*
X-16056Y56829D01*
X-16729Y56156D01*
X-17094Y55276D01*
Y54324D01*
X-16729Y53444D01*
X-16056Y52771D01*
X-15176Y52406D01*
X-14224D01*
X-13344Y52771D01*
X-12671Y53444D01*
X-12306Y54324D01*
Y55276D01*
X-12671Y56156D01*
X-13344Y56829D01*
X-14224Y57194D01*
D02*
G37*
G36*
X119789Y58010D02*
X119710Y57965D01*
X118761Y57236D01*
X118033Y56287D01*
X117575Y55182D01*
X117419Y53996D01*
X117575Y52810D01*
X117840Y52171D01*
X121830Y54475D01*
X119789Y58010D01*
D02*
G37*
G36*
X47476Y54294D02*
X46524D01*
X45644Y53929D01*
X44971Y53256D01*
X44606Y52376D01*
Y51424D01*
X44971Y50544D01*
X45644Y49871D01*
X46524Y49506D01*
X47476D01*
X48356Y49871D01*
X49029Y50544D01*
X49394Y51424D01*
Y52376D01*
X49029Y53256D01*
X48356Y53929D01*
X47476Y54294D01*
D02*
G37*
G36*
X-50324Y61394D02*
X-51276D01*
X-52156Y61029D01*
X-52829Y60356D01*
X-53194Y59476D01*
Y58524D01*
X-52829Y57644D01*
X-52156Y56971D01*
X-51276Y56606D01*
X-50324D01*
X-49575Y56916D01*
X-49056Y56129D01*
X-49729Y55456D01*
X-50094Y54576D01*
Y54294D01*
X-50276D01*
X-51156Y53929D01*
X-51829Y53256D01*
X-52194Y52376D01*
Y51424D01*
X-51829Y50544D01*
X-51156Y49871D01*
X-50276Y49506D01*
X-49324D01*
X-48444Y49871D01*
X-47771Y50544D01*
X-47406Y51424D01*
Y51706D01*
X-47224D01*
X-46344Y52071D01*
X-45671Y52744D01*
X-45311Y53611D01*
X-44444Y53971D01*
X-43771Y54644D01*
X-43406Y55524D01*
Y56476D01*
X-43771Y57356D01*
X-44444Y58029D01*
X-45324Y58394D01*
X-46276D01*
X-47156Y58029D01*
X-47829Y57356D01*
X-48716Y57775D01*
X-48406Y58524D01*
Y59476D01*
X-48771Y60356D01*
X-49444Y61029D01*
X-50324Y61394D01*
D02*
G37*
G36*
X-23024Y55894D02*
X-23976D01*
X-24856Y55529D01*
X-25529Y54856D01*
X-25894Y53976D01*
Y53024D01*
X-25529Y52144D01*
X-24856Y51471D01*
X-23976Y51106D01*
X-23194D01*
Y50924D01*
X-22829Y50044D01*
X-22156Y49371D01*
X-21276Y49006D01*
X-20324D01*
X-19444Y49371D01*
X-18771Y50044D01*
X-18406Y50924D01*
Y51876D01*
X-18771Y52756D01*
X-19444Y53429D01*
X-20324Y53794D01*
X-21106D01*
Y53976D01*
X-21471Y54856D01*
X-22144Y55529D01*
X-23024Y55894D01*
D02*
G37*
G36*
X-7824Y45694D02*
X-8776D01*
X-9656Y45329D01*
X-10329Y44656D01*
X-10694Y43776D01*
Y42824D01*
X-10329Y41944D01*
X-9656Y41271D01*
X-8776Y40906D01*
X-7824D01*
X-6944Y41271D01*
X-6271Y41944D01*
X-5906Y42824D01*
Y43776D01*
X-6271Y44656D01*
X-6944Y45329D01*
X-7824Y45694D01*
D02*
G37*
G36*
X-57224Y51694D02*
X-58176D01*
X-59056Y51329D01*
X-59729Y50656D01*
X-60094Y49776D01*
Y49381D01*
X-60224Y49294D01*
X-61176D01*
X-62056Y48929D01*
X-62729Y48256D01*
X-63094Y47376D01*
X-63094Y46424D01*
X-63976Y46094D01*
X-64856Y45729D01*
X-65529Y45056D01*
X-65794Y44418D01*
X-65894Y44176D01*
X-66805Y43494D01*
X-66876D01*
X-67756Y43129D01*
X-68429Y42456D01*
X-68794Y41576D01*
Y40624D01*
X-68429Y39744D01*
X-67756Y39071D01*
X-66876Y38706D01*
X-65924D01*
X-65044Y39071D01*
X-64371Y39744D01*
X-64207Y40138D01*
X-64106Y40382D01*
Y40382D01*
X-64006Y40624D01*
X-63095Y41306D01*
X-63024D01*
X-62144Y41671D01*
X-61471Y42344D01*
X-61106Y43224D01*
X-61106Y44176D01*
X-60224Y44506D01*
X-59344Y44871D01*
X-58671Y45544D01*
X-58306Y46424D01*
Y46819D01*
X-58176Y46906D01*
X-57224D01*
X-56344Y47271D01*
X-55671Y47944D01*
X-55306Y48824D01*
Y49776D01*
X-55671Y50656D01*
X-56344Y51329D01*
X-57224Y51694D01*
D02*
G37*
G36*
X127186Y56412D02*
X122763Y53859D01*
X118340Y51305D01*
X118761Y50756D01*
X119710Y50028D01*
X120816Y49570D01*
X121168Y49523D01*
X121374Y48488D01*
X119429Y47365D01*
X124973Y37764D01*
X135597Y43898D01*
X130053Y53499D01*
X128109Y52376D01*
X127315Y53072D01*
X127451Y53401D01*
X127607Y54587D01*
X127451Y55773D01*
X127186Y56412D01*
D02*
G37*
G36*
X-68324Y36594D02*
X-69276D01*
X-70156Y36229D01*
X-70829Y35556D01*
X-71194Y34676D01*
Y33724D01*
X-70829Y32844D01*
X-70156Y32171D01*
X-69276Y31806D01*
X-68324D01*
X-67444Y32171D01*
X-66771Y32844D01*
X-66406Y33724D01*
Y34676D01*
X-66771Y35556D01*
X-67444Y36229D01*
X-68324Y36594D01*
D02*
G37*
G36*
X136297Y34005D02*
X134850Y33814D01*
X133501Y33256D01*
X132343Y32367D01*
X131455Y31209D01*
X131136Y30440D01*
X130023Y30367D01*
X129666Y30986D01*
X120064Y25443D01*
X126198Y14819D01*
X135799Y20362D01*
X135442Y20981D01*
X136061Y21909D01*
X136887Y21800D01*
X138334Y21990D01*
X139683Y22549D01*
X140841Y23437D01*
X141729Y24595D01*
X142288Y25944D01*
X142478Y27391D01*
X142288Y28838D01*
X141729Y30187D01*
X141139Y31209D01*
X140250Y32367D01*
X139092Y33256D01*
X137744Y33814D01*
X136297Y34005D01*
D02*
G37*
G36*
X66176Y33994D02*
X65224D01*
X64344Y33629D01*
X63671Y32956D01*
X63306Y32076D01*
Y31124D01*
X63671Y30244D01*
X64344Y29571D01*
X65224Y29206D01*
X66176D01*
X67056Y29571D01*
X67729Y30244D01*
X68094Y31124D01*
Y32076D01*
X67729Y32956D01*
X67056Y33629D01*
X66176Y33994D01*
D02*
G37*
G36*
X16476Y33394D02*
X15524D01*
X14644Y33029D01*
X13971Y32356D01*
X13606Y31476D01*
Y30524D01*
X13971Y29644D01*
X14644Y28971D01*
X15524Y28606D01*
X16476D01*
X17202Y28907D01*
X17691Y28674D01*
X18106Y28307D01*
Y27524D01*
X18471Y26644D01*
X19144Y25971D01*
X20024Y25606D01*
X20976D01*
X21856Y25971D01*
X22529Y26644D01*
X22894Y27524D01*
Y28476D01*
X22529Y29356D01*
X21856Y30029D01*
X20976Y30394D01*
X20024D01*
X19298Y30093D01*
X18809Y30326D01*
X18394Y30693D01*
Y31476D01*
X18029Y32356D01*
X17356Y33029D01*
X16476Y33394D01*
D02*
G37*
G36*
X-31824Y31894D02*
X-32776D01*
X-33656Y31529D01*
X-34329Y30856D01*
X-34694Y29976D01*
Y29024D01*
X-34329Y28144D01*
X-34003Y27818D01*
X-34162Y27360D01*
X-34493Y26894D01*
X-35276D01*
X-36156Y26529D01*
X-36829Y25856D01*
X-37028Y25375D01*
X-37098D01*
X-37978Y25011D01*
X-38651Y24338D01*
X-39016Y23458D01*
Y22506D01*
X-38651Y21626D01*
X-37978Y20952D01*
X-37098Y20588D01*
X-36146D01*
X-35266Y20952D01*
X-34593Y21626D01*
X-34394Y22106D01*
X-34324D01*
X-33444Y22471D01*
X-32771Y23144D01*
X-32406Y24024D01*
Y24976D01*
X-32771Y25856D01*
X-33097Y26182D01*
X-32938Y26640D01*
X-32607Y27106D01*
X-31824D01*
X-30944Y27471D01*
X-30271Y28144D01*
X-29906Y29024D01*
Y29976D01*
X-30271Y30856D01*
X-30944Y31529D01*
X-31824Y31894D01*
D02*
G37*
G36*
X-64724Y31994D02*
X-65676D01*
X-66556Y31629D01*
X-67229Y30956D01*
X-67594Y30076D01*
Y29124D01*
X-67229Y28244D01*
X-66556Y27571D01*
X-65676Y27206D01*
X-64994D01*
Y26824D01*
X-64629Y25944D01*
X-63956Y25271D01*
X-63294Y24996D01*
Y24924D01*
X-62929Y24044D01*
X-62256Y23371D01*
X-61376Y23006D01*
X-60545D01*
X-60229Y22244D01*
X-59556Y21571D01*
X-59192Y21420D01*
X-58294Y20976D01*
Y20024D01*
X-57929Y19144D01*
X-57256Y18471D01*
X-56376Y18106D01*
X-55424D01*
X-54544Y18471D01*
X-53871Y19144D01*
X-53506Y20024D01*
Y20976D01*
X-53871Y21856D01*
X-54544Y22529D01*
X-54908Y22680D01*
X-55806Y23124D01*
Y24076D01*
X-56171Y24956D01*
X-56844Y25629D01*
X-57724Y25994D01*
X-58555D01*
X-58871Y26756D01*
X-59544Y27429D01*
X-60206Y27704D01*
Y27776D01*
X-60571Y28656D01*
X-61244Y29329D01*
X-62124Y29694D01*
X-62806D01*
Y30076D01*
X-63171Y30956D01*
X-63844Y31629D01*
X-64724Y31994D01*
D02*
G37*
G36*
X-42224Y22494D02*
X-43176D01*
X-44056Y22129D01*
X-44729Y21456D01*
X-45086Y20594D01*
X-45476D01*
X-46356Y20229D01*
X-47029Y19556D01*
X-47179Y19194D01*
X-47576D01*
X-48456Y18829D01*
X-48743Y18542D01*
X-49644Y18029D01*
X-50524Y18394D01*
X-51476D01*
X-52356Y18029D01*
X-53029Y17356D01*
X-53394Y16476D01*
Y15524D01*
X-53029Y14644D01*
X-52356Y13971D01*
X-51476Y13606D01*
X-50524D01*
X-49644Y13971D01*
X-49357Y14258D01*
X-48456Y14771D01*
X-47576Y14406D01*
X-46624D01*
X-45744Y14771D01*
X-45071Y15444D01*
X-44921Y15806D01*
X-44524D01*
X-43644Y16171D01*
X-42971Y16844D01*
X-42614Y17706D01*
X-42224D01*
X-41344Y18071D01*
X-40671Y18744D01*
X-40306Y19624D01*
Y20576D01*
X-40671Y21456D01*
X-41344Y22129D01*
X-42224Y22494D01*
D02*
G37*
G36*
X31476Y21394D02*
X30524D01*
X29644Y21029D01*
X28971Y20356D01*
X28606Y19476D01*
Y18524D01*
X28971Y17644D01*
X29644Y16971D01*
X30524Y16606D01*
X31476D01*
X32356Y16971D01*
X33029Y17644D01*
X33394Y18524D01*
Y19476D01*
X33029Y20356D01*
X32356Y21029D01*
X31476Y21394D01*
D02*
G37*
G36*
X37476Y16894D02*
X36524D01*
X35644Y16529D01*
X34971Y15856D01*
X34606Y14976D01*
Y14193D01*
X34191Y13826D01*
X33702Y13593D01*
X32976Y13894D01*
X32024D01*
X31144Y13529D01*
X30471Y12856D01*
X30106Y11976D01*
Y11024D01*
X30471Y10144D01*
X31144Y9471D01*
X32024Y9106D01*
X32976D01*
X33856Y9471D01*
X34529Y10144D01*
X34894Y11024D01*
Y11807D01*
X35309Y12174D01*
X35798Y12407D01*
X36524Y12106D01*
X37476D01*
X38356Y12471D01*
X39029Y13144D01*
X39916Y12724D01*
X39606Y11976D01*
X39606Y11024D01*
X39971Y10144D01*
X40644Y9471D01*
X41524Y9106D01*
X42476D01*
X43356Y9471D01*
X44029Y10144D01*
X44394Y11024D01*
Y11976D01*
X44029Y12856D01*
X43356Y13529D01*
X42476Y13894D01*
X41524D01*
X40644Y13529D01*
X39971Y12856D01*
X39084Y13275D01*
X39394Y14024D01*
X39394Y14976D01*
X39029Y15856D01*
X38356Y16529D01*
X37476Y16894D01*
D02*
G37*
G36*
X51676Y12594D02*
X50724D01*
X49844Y12229D01*
X49511Y11896D01*
X49276Y11994D01*
X48324D01*
X47444Y11629D01*
X46771Y10956D01*
X46406Y10076D01*
Y9124D01*
X46771Y8244D01*
X47444Y7571D01*
X48324Y7206D01*
X49276D01*
X49670Y7369D01*
X50263Y7467D01*
X50875Y6876D01*
X50971Y6644D01*
X51644Y5971D01*
X52524Y5606D01*
X53476D01*
X53735Y5714D01*
X54378Y5943D01*
X54942Y5213D01*
X54971Y5144D01*
X55644Y4471D01*
X56524Y4106D01*
X57476D01*
X58356Y4471D01*
X59324Y4091D01*
X59444Y3971D01*
X60324Y3606D01*
X61276D01*
X62156Y3971D01*
X62466Y3655D01*
X62471Y3644D01*
X63144Y2971D01*
X64024Y2606D01*
X64976D01*
X65856Y2971D01*
X66529Y3644D01*
X66894Y4524D01*
Y5476D01*
X66529Y6356D01*
X66092Y6793D01*
X65850Y7494D01*
X65842Y8117D01*
X66094Y8724D01*
Y9676D01*
X65729Y10556D01*
X65056Y11229D01*
X64176Y11594D01*
X63224D01*
X62344Y11229D01*
X61750Y10635D01*
X61156Y11229D01*
X60276Y11594D01*
X59324D01*
X58803Y11378D01*
X57729Y11356D01*
X57056Y12029D01*
X56176Y12394D01*
X55224D01*
X54344Y12029D01*
X54182Y11868D01*
X53332Y11589D01*
X52897Y11889D01*
X52556Y12229D01*
X51676Y12594D01*
D02*
G37*
G36*
X92276Y14194D02*
X91324D01*
X90444Y13829D01*
X89771Y13156D01*
X89406Y12276D01*
Y11324D01*
X89771Y10444D01*
X90444Y9771D01*
X91324Y9406D01*
X92276D01*
X93156Y9771D01*
X93829Y10444D01*
X94194Y11324D01*
Y12276D01*
X93829Y13156D01*
X93156Y13829D01*
X92276Y14194D01*
D02*
G37*
G36*
X139476Y13894D02*
X138524D01*
X137644Y13529D01*
X136971Y12856D01*
X136606Y11976D01*
Y11024D01*
X136971Y10144D01*
X137644Y9471D01*
X138524Y9106D01*
X139476D01*
X140356Y9471D01*
X141029Y10144D01*
X141394Y11024D01*
Y11976D01*
X141029Y12856D01*
X140356Y13529D01*
X139476Y13894D01*
D02*
G37*
G36*
X72476Y12694D02*
X71524D01*
X70644Y12329D01*
X69971Y11656D01*
X69606Y10776D01*
Y9824D01*
X69971Y8944D01*
X70644Y8271D01*
X71524Y7906D01*
X72476D01*
X73356Y8271D01*
X74029Y8944D01*
X74394Y9824D01*
Y10776D01*
X74029Y11656D01*
X73356Y12329D01*
X72476Y12694D01*
D02*
G37*
G36*
X-44024Y11894D02*
X-44976D01*
X-45856Y11529D01*
X-46529Y10856D01*
X-46894Y9976D01*
Y9024D01*
X-46529Y8144D01*
X-45856Y7471D01*
X-44976Y7106D01*
X-44024D01*
X-43144Y7471D01*
X-42471Y8144D01*
X-42106Y9024D01*
Y9976D01*
X-42471Y10856D01*
X-43144Y11529D01*
X-44024Y11894D01*
D02*
G37*
G36*
X134976Y3894D02*
X134024D01*
X133144Y3529D01*
X132471Y2856D01*
X132106Y1976D01*
Y1024D01*
X132471Y144D01*
X133144Y-529D01*
X134024Y-894D01*
X134976D01*
X135856Y-529D01*
X136529Y144D01*
X136894Y1024D01*
Y1976D01*
X136529Y2856D01*
X135856Y3529D01*
X134976Y3894D01*
D02*
G37*
G36*
X46600Y-506D02*
X45648D01*
X44768Y-871D01*
X44419Y-1220D01*
X43556Y-1771D01*
X42676Y-1406D01*
X41724D01*
X40844Y-1771D01*
X40171Y-2444D01*
X39806Y-3324D01*
Y-4276D01*
X40171Y-5156D01*
X40844Y-5829D01*
X41724Y-6194D01*
X42676D01*
X42730Y-6171D01*
X43730Y-6676D01*
X44095Y-7556D01*
X44389Y-7850D01*
X44095Y-8144D01*
X43730Y-9024D01*
Y-9976D01*
X44095Y-10856D01*
X44768Y-11529D01*
X45648Y-11894D01*
X46600D01*
X47480Y-11529D01*
X48153Y-10856D01*
X48518Y-9976D01*
Y-9024D01*
X48153Y-8144D01*
X47859Y-7850D01*
X48153Y-7556D01*
X48518Y-6676D01*
Y-5724D01*
X48153Y-4844D01*
X47859Y-4550D01*
X48153Y-4256D01*
X48518Y-3376D01*
Y-2424D01*
X48153Y-1544D01*
X47480Y-871D01*
X46600Y-506D01*
D02*
G37*
G36*
X124576Y-3006D02*
X123624D01*
X122744Y-3371D01*
X122071Y-4044D01*
X121706Y-4924D01*
Y-5876D01*
X122071Y-6756D01*
X122744Y-7429D01*
X123624Y-7794D01*
X124576D01*
X125456Y-7429D01*
X126129Y-6756D01*
X126494Y-5876D01*
Y-4924D01*
X126129Y-4044D01*
X125456Y-3371D01*
X124576Y-3006D01*
D02*
G37*
G36*
X27476Y-24106D02*
X26524D01*
X25644Y-24471D01*
X24971Y-25144D01*
X24606Y-26024D01*
Y-26976D01*
X24971Y-27856D01*
X25644Y-28529D01*
X26524Y-28894D01*
X27476D01*
X28356Y-28529D01*
X29029Y-27856D01*
X29394Y-26976D01*
Y-26024D01*
X29029Y-25144D01*
X28356Y-24471D01*
X27476Y-24106D01*
D02*
G37*
G36*
X41376Y-13306D02*
X40424D01*
X39544Y-13671D01*
X38871Y-14344D01*
X38506Y-15224D01*
Y-16176D01*
X38666Y-16562D01*
X38785Y-17233D01*
X38408Y-18007D01*
X38171Y-18244D01*
X37806Y-19124D01*
Y-20076D01*
X38171Y-20956D01*
X38110Y-21260D01*
X37844Y-21371D01*
X37171Y-22044D01*
X36806Y-22924D01*
Y-23876D01*
X36908Y-24121D01*
X36749Y-25233D01*
X36508Y-25507D01*
X36071Y-25944D01*
X35706Y-26824D01*
Y-27776D01*
X36071Y-28656D01*
X36744Y-29329D01*
X37624Y-29694D01*
X38576D01*
X39456Y-29329D01*
X40129Y-28656D01*
X40494Y-27776D01*
Y-26824D01*
X40392Y-26579D01*
X40551Y-25467D01*
X40792Y-25193D01*
X41229Y-24756D01*
X41594Y-23876D01*
Y-22924D01*
X41229Y-22044D01*
X41290Y-21739D01*
X41556Y-21629D01*
X42229Y-20956D01*
X42594Y-20076D01*
Y-19124D01*
X42434Y-18738D01*
X42316Y-18067D01*
X42692Y-17293D01*
X42929Y-17056D01*
X43294Y-16176D01*
Y-15224D01*
X42929Y-14344D01*
X42256Y-13671D01*
X41376Y-13306D01*
D02*
G37*
G36*
X74776Y-18106D02*
X73824D01*
X72944Y-18471D01*
X72271Y-19144D01*
X71906Y-20024D01*
Y-20976D01*
X72271Y-21856D01*
X72419Y-22004D01*
X72168Y-23167D01*
X71866Y-23292D01*
X71192Y-23966D01*
X70828Y-24845D01*
Y-25798D01*
X71192Y-26677D01*
X71746Y-27231D01*
X71387Y-28098D01*
Y-29050D01*
X71751Y-29930D01*
X72425Y-30603D01*
X73304Y-30967D01*
X74257D01*
X75137Y-30603D01*
X75810Y-29930D01*
X76174Y-29050D01*
Y-28098D01*
X75810Y-27218D01*
X75256Y-26664D01*
X75615Y-25798D01*
Y-24845D01*
X75251Y-23966D01*
X75103Y-23818D01*
X75354Y-22654D01*
X75656Y-22529D01*
X76329Y-21856D01*
X76694Y-20976D01*
Y-20024D01*
X76329Y-19144D01*
X75656Y-18471D01*
X74776Y-18106D01*
D02*
G37*
G36*
X36076Y-31406D02*
X35124D01*
X34244Y-31771D01*
X33571Y-32444D01*
X33206Y-33324D01*
Y-34276D01*
X33571Y-35156D01*
X34244Y-35829D01*
X35124Y-36194D01*
X36076D01*
X36956Y-35829D01*
X37629Y-35156D01*
X37994Y-34276D01*
Y-33324D01*
X37629Y-32444D01*
X36956Y-31771D01*
X36076Y-31406D01*
D02*
G37*
G36*
X45776Y-34306D02*
X44824D01*
X43944Y-34671D01*
X43271Y-35344D01*
X42906Y-36224D01*
Y-37176D01*
X43271Y-38056D01*
X43944Y-38729D01*
X44824Y-39094D01*
X45776D01*
X46453Y-38813D01*
X46471Y-38856D01*
X47144Y-39529D01*
X48024Y-39894D01*
X48976D01*
X49070Y-39855D01*
X49644Y-40429D01*
X50524Y-40794D01*
X51476D01*
X52065Y-40550D01*
X52444Y-40929D01*
X53324Y-41294D01*
X54276D01*
X54794Y-41079D01*
X55344Y-41629D01*
X56224Y-41994D01*
X57176D01*
X58056Y-41629D01*
X58729Y-40956D01*
X59094Y-40076D01*
Y-39124D01*
X58729Y-38244D01*
X58056Y-37571D01*
X57176Y-37206D01*
X56224D01*
X55706Y-37421D01*
X55156Y-36871D01*
X54276Y-36506D01*
X53324D01*
X52735Y-36750D01*
X52356Y-36371D01*
X51476Y-36006D01*
X50524D01*
X50430Y-36045D01*
X49856Y-35471D01*
X48976Y-35106D01*
X48024D01*
X47347Y-35387D01*
X47329Y-35344D01*
X46656Y-34671D01*
X45776Y-34306D01*
D02*
G37*
G36*
X33203Y-88093D02*
Y-92700D01*
X37286D01*
Y-92610D01*
X37130Y-91423D01*
X36672Y-90318D01*
X35943Y-89369D01*
X34995Y-88641D01*
X33889Y-88183D01*
X33203Y-88093D01*
D02*
G37*
%LPD*%
D18*
X95483Y-39650D02*
G03*
X95442Y-39357I-596J66D01*
G01*
X94033Y-52208D02*
G03*
X94033Y-52207I-596J69D01*
G01*
X93747Y-52652D02*
G03*
X94033Y-52208I-310J514D01*
G01*
X91153Y-28286D02*
G03*
X91123Y-28800I526J-289D01*
G01*
X86654Y-56908D02*
G03*
X86422Y-57161I309J-514D01*
G01*
X75185Y-49016D02*
G03*
X75145Y-49397I545J-250D01*
G01*
X79884Y-70032D02*
G03*
X79932Y-70162I584J137D01*
G01*
X87713Y-85540D02*
G03*
X87680Y-85461I-569J-192D01*
G01*
X89444Y-91442D02*
G03*
X89509Y-90927I-504J325D01*
G01*
X103950Y12795D02*
G03*
X103725Y12539I320J-508D01*
G01*
X61214Y-71076D02*
G03*
X60966Y-70982I-332J-500D01*
G01*
X90198Y-101088D02*
G03*
X90202Y-101111I593J91D01*
G01*
X83901Y-93557D02*
G03*
X83905Y-93642I600J-13D01*
G01*
X77555Y-81965D02*
G03*
X77431Y-81854I-459J-387D01*
G01*
X83994Y-89828D02*
G03*
X83854Y-89427I-600J15D01*
G01*
X24337Y-102128D02*
G03*
X24676Y-102169I238J551D01*
G01*
X83862Y-94592D02*
G03*
X83971Y-94168I-486J351D01*
G01*
X90020Y-102778D02*
G03*
X90400Y-102100I-208J563D01*
G01*
X79722Y-104010D02*
G03*
X80045Y-103892I-35J599D01*
G01*
X26079Y-106896D02*
G03*
X25922Y-106926I35J-599D01*
G01*
X60790Y-79560D02*
G03*
X60593Y-79475I-333J-499D01*
G01*
X48344Y-76627D02*
G03*
X47637Y-77040I-133J-585D01*
G01*
X-11308Y-78972D02*
G03*
X-11515Y-78868I-368J-474D01*
G01*
X10343Y-95955D02*
G03*
X10467Y-96029I368J474D01*
G01*
X40540Y-99364D02*
G03*
X41007Y-98947I-107J590D01*
G01*
X24090Y-65911D02*
G03*
X23294Y-65857I-796J-5789D01*
G01*
X22113D02*
G03*
X21196Y-65929I0J-5843D01*
G01*
X8968Y-65081D02*
G03*
X9192Y-65083I132J1781D01*
G01*
X-55865Y-60716D02*
G03*
X-55975Y-60510I-574J-174D01*
G01*
X-70310Y-43208D02*
G03*
X-70525Y-43044I-462J-383D01*
G01*
X-52701Y-71166D02*
G03*
X-52261Y-71575I574J176D01*
G01*
X-125251Y34243D02*
G03*
X-125428Y33897I417J-431D01*
G01*
X-125251Y34244D02*
G03*
X-125251Y34243I416J-432D01*
G01*
X-112391Y-24404D02*
G03*
X-112407Y-24397I-244J-548D01*
G01*
X-131277Y-8331D02*
G03*
X-131229Y-8655I595J-79D01*
G01*
X-126798Y-18385D02*
G03*
X-126482Y-18689I545J251D01*
G01*
X-66997Y-39559D02*
G03*
X-67274Y-39329I-505J-325D01*
G01*
X-126483Y-4965D02*
G03*
X-126454Y-5235I596J-72D01*
G01*
X-122587Y-16545D02*
G03*
X-122245Y-16904I567J197D01*
G01*
X-79221Y-12468D02*
G03*
X-79172Y-12533I500J332D01*
G01*
X-93866Y9849D02*
G03*
X-93942Y9941I-502J-329D01*
G01*
X-103686Y19686D02*
G03*
X-103713Y19711I-424J-424D01*
G01*
X-109628Y35289D02*
G03*
X-109279Y35046I495J339D01*
G01*
X-133405Y53400D02*
G03*
X-134399Y52510I0J-1000D01*
G01*
X-19559Y-44844D02*
G03*
X-19653Y-44763I-436J-412D01*
G01*
X-58231Y-17970D02*
G03*
X-58165Y-18025I411J437D01*
G01*
X-75062Y-1936D02*
G03*
X-75146Y-1870I-412J-436D01*
G01*
X-43670Y-24494D02*
G03*
X-43031Y-25117I2036J1451D01*
G01*
X-73469Y17315D02*
G03*
X-73801Y17610I-813J-583D01*
G01*
X-17990Y-42010D02*
G03*
X-18138Y-41888I-707J-707D01*
G01*
X95482Y-39653D02*
X95483Y-39650D01*
X94033Y-52207D02*
X95482Y-39653D01*
X94033Y-52208D02*
X94033Y-52207D01*
X91123Y-28800D02*
X91124Y-28802D01*
X91153Y-28286D02*
X94958Y-21376D01*
X86654Y-56908D02*
X93747Y-52652D01*
X86422Y-57161D02*
X86422Y-57161D01*
X82100Y-66100D02*
X86422Y-57161D01*
X94958Y-21376D02*
X95958D01*
X91124Y-28802D02*
X95442Y-39357D01*
X75145Y-49397D02*
X75146Y-49400D01*
X75185Y-49016D02*
X103725Y12539D01*
X79932Y-70162D02*
X79933Y-70165D01*
X87713Y-85540D02*
X87714Y-85542D01*
X86185Y-96500D02*
X89444Y-91442D01*
X103950Y12795D02*
X108695Y15780D01*
X75146Y-49400D02*
X79884Y-70032D01*
X79933Y-70165D02*
X87680Y-85461D01*
X87714Y-85542D02*
X89509Y-90927D01*
X24090Y-65911D02*
X60964Y-70981D01*
X60790Y-79560D02*
X60791Y-79561D01*
X83905Y-93642D02*
X83971Y-94166D01*
X24679Y-102168D02*
X40540Y-99364D01*
X83901Y-93557D02*
X83901Y-93555D01*
X10469Y-96030D02*
X24337Y-102128D01*
X85881Y-87629D02*
X86100Y-93000D01*
X89300Y-95000D02*
X90198Y-101085D01*
X90198Y-101088D01*
X60791Y-79561D02*
X81700Y-93600D01*
X83853Y-89426D02*
X83854Y-89427D01*
X85697Y-87220D02*
X85872Y-87394D01*
X83971Y-94166D02*
X83971Y-94168D01*
X83901Y-93555D02*
X83994Y-89828D01*
X77555Y-81965D02*
X83853Y-89426D01*
X61214Y-71076D02*
X77429Y-81853D01*
X82200Y-96900D02*
X83862Y-94592D01*
X60964Y-70981D02*
X60966Y-70982D01*
X77429Y-81853D02*
X77431Y-81854D01*
X24676Y-102169D02*
X24679Y-102168D01*
X90202Y-101111D02*
X90399Y-102098D01*
X85872Y-87394D02*
X85881Y-87629D01*
X90399Y-102098D02*
X90400Y-102100D01*
X31583Y-124416D02*
X90020Y-102778D01*
X80045Y-103892D02*
X86200Y-99300D01*
X80045Y-103892D02*
X80045Y-103892D01*
X26079Y-106896D02*
X26082Y-106896D01*
X79722Y-104010D01*
X18000Y-109600D02*
X25922Y-106926D01*
X48344Y-76627D02*
X48347Y-76627D01*
X41007Y-98947D02*
X47637Y-77040D01*
X-11308Y-78972D02*
X-11306Y-78974D01*
X10467Y-96029D02*
X10469Y-96030D01*
X-11306Y-78974D02*
X10343Y-95955D01*
X-34000Y-72600D02*
X-11515Y-78868D01*
X48347Y-76627D02*
X60593Y-79475D01*
X27670Y-64121D02*
X38021Y-66347D01*
X9192Y-65083D02*
X27575Y-64121D01*
X11300Y-67500D02*
X21196Y-65929D01*
X-34500Y-66800D02*
X11300Y-67500D01*
X22113Y-65857D02*
X23294D01*
X27575Y-64121D02*
X27591Y-64121D01*
X27670D01*
X66018Y-69242D02*
X66217Y-69262D01*
X38021Y-66347D02*
X38054Y-66353D01*
X66018Y-69242D01*
X66217Y-69262D02*
X85697Y-87220D01*
X-34000Y-61900D02*
X8968Y-65081D01*
X-55977Y-60507D02*
X-55975Y-60510D01*
X-70528Y-43043D02*
X-70525Y-43044D01*
X-52702Y-71164D02*
X-52701Y-71166D01*
X-125251Y34244D02*
X-122600Y36800D01*
X-125251Y34243D02*
X-125251Y34244D01*
X-112409Y-24396D02*
X-112407Y-24397D01*
X-131277Y-8331D02*
X-131276Y-8327D01*
X-125428Y33897D01*
X-126799Y-18383D02*
X-126798Y-18385D01*
X-52261Y-71575D02*
X-50800Y-71900D01*
X-55865Y-60716D02*
X-52702Y-71164D01*
X-70310Y-43208D02*
X-55977Y-60507D01*
X-112391Y-24404D02*
X-70528Y-43043D01*
X-126482Y-18689D02*
X-112409Y-24396D01*
X-131229Y-8655D02*
X-126799Y-18383D01*
X-126454Y-5235D02*
X-122588Y-16542D01*
X-126482Y-4962D02*
X-121600Y33600D01*
X-122245Y-16904D02*
X-67276Y-39328D01*
X-66997Y-39559D02*
X-50700Y-64900D01*
X-67276Y-39328D02*
X-67274Y-39329D01*
X-126483Y-4965D02*
X-126482Y-4962D01*
X-122588Y-16542D02*
X-122587Y-16545D01*
X-79222Y-12466D02*
X-79221Y-12468D01*
X-79172Y-12533D02*
X-45900Y-50800D01*
X-93944Y9944D02*
X-93942Y9941D01*
X-103715Y19713D02*
X-103713Y19711D01*
X-93866Y9849D02*
X-79222Y-12466D01*
X-103686Y19686D02*
X-93944Y9944D01*
X-118613Y32713D02*
X-103715Y19713D01*
X-129951Y53400D02*
X-120373Y43371D01*
X-120368Y43366D02*
X-120259Y43257D01*
X-113675Y41194D02*
X-113530Y41049D01*
X-113498Y41002D02*
X-109628Y35289D01*
X-113530Y41049D02*
X-113498Y41002D01*
X-120373Y43371D02*
X-120368Y43366D01*
X-120259Y43257D02*
X-113675Y41194D01*
X-112931Y35945D02*
X-105437Y25236D01*
X-113031Y36057D02*
X-112961Y35988D01*
X-112931Y35945D01*
X-132600Y50400D02*
X-113031Y36057D01*
X-105399Y25199D02*
X-84407Y4207D01*
X-105437Y25236D02*
X-105399Y25199D01*
X-109279Y35046D02*
X-109276Y35045D01*
X-102784Y33452D01*
X-84311Y4129D02*
X-75146Y-1870D01*
X-84407Y4207D02*
X-84311Y4129D01*
X-102784Y33452D02*
X-73801Y17610D01*
X-133405Y53400D02*
X-133405Y53400D01*
X-134399Y52509D02*
X-134399Y52510D01*
X-134747Y49393D02*
X-134399Y52509D01*
X-133405Y53400D02*
X-129951D01*
X-19559Y-44844D02*
X-19556Y-44847D01*
X-58165Y-18025D02*
X-58162Y-18026D01*
X-75062Y-1936D02*
X-75060Y-1938D01*
X-58231Y-17970D01*
X-58162Y-18026D02*
X-19653Y-44763D01*
X-19556Y-44847D02*
X-14000Y-50800D01*
X-73467Y17313D02*
X-43670Y-24494D01*
X-73469Y17315D02*
X-73467Y17313D01*
X-17988Y-42012D02*
X-10400Y-49600D01*
X-43031Y-25117D02*
X-18138Y-41888D01*
X-17990Y-42010D02*
X-17988Y-42012D01*
X-10400Y-49600D02*
X5300D01*
D190*
X86422Y-57161D02*
D03*
D215*
X-37500Y-9500D02*
D03*
D219*
X-97468Y-16213D02*
D03*
X22306Y130200D02*
D03*
D221*
X61936Y114079D02*
D03*
D223*
X96095Y88414D02*
D03*
D225*
X122513Y54291D02*
D03*
D228*
X-49194Y104446D02*
D03*
X-19700Y135500D02*
D03*
X32703Y-93200D02*
D03*
X-11495Y-36758D02*
D03*
X21005Y-36758D02*
D03*
D230*
X-134434Y21881D02*
D03*
D232*
X63254Y-92693D02*
D03*
D234*
X-46314Y-128186D02*
D03*
X-71053Y-63500D02*
D03*
X-79887Y-108724D02*
D03*
X-9938Y-97929D02*
D03*
X-9910Y-142441D02*
D03*
D236*
X-48891Y118377D02*
D03*
D237*
X99958Y-26376D02*
D03*
X95958Y-21376D02*
D03*
D238*
X-111500Y91500D02*
D03*
X-110565Y81148D02*
D03*
X121000Y-62500D02*
D03*
X117000Y-54500D02*
D03*
X115000Y-59000D02*
D03*
X119000Y-49500D02*
D03*
X-135000Y2500D02*
D03*
X83000Y-39000D02*
D03*
X-37500Y-40000D02*
D03*
X-86000Y-94000D02*
D03*
X-77000Y-49500D02*
D03*
X-94500Y-50000D02*
D03*
X-93000Y-41500D02*
D03*
X-57294Y-11328D02*
D03*
X-71800Y39100D02*
D03*
X106927Y-81389D02*
D03*
X103763Y-86868D02*
D03*
X104734Y-73206D02*
D03*
X101739Y-78394D02*
D03*
X98576Y-83873D02*
D03*
X95580Y-89061D02*
D03*
X99255Y-70043D02*
D03*
X96260Y-75230D02*
D03*
X93096Y-80710D02*
D03*
X90101Y-85897D02*
D03*
X91072Y-72235D02*
D03*
X87909Y-77715D02*
D03*
X114000Y27500D02*
D03*
X56000Y-66000D02*
D03*
X67000Y-87500D02*
D03*
X51000Y-131000D02*
D03*
X59000Y-130000D02*
D03*
X54500Y-129000D02*
D03*
X-101000Y-89000D02*
D03*
X-102000Y-84000D02*
D03*
X-69500Y-118500D02*
D03*
X-32500Y-137500D02*
D03*
X73000Y-44000D02*
D03*
X-119500Y-7000D02*
D03*
X-129000Y-25500D02*
D03*
X-134000Y-41500D02*
D03*
X-128500Y-55500D02*
D03*
X-88000Y89000D02*
D03*
X-49000Y1000D02*
D03*
X-82000Y114000D02*
D03*
X-80500Y101500D02*
D03*
X-81000Y97500D02*
D03*
X-89500Y97000D02*
D03*
X-97500Y102500D02*
D03*
X-103000Y104500D02*
D03*
X-101000Y99500D02*
D03*
X-99500Y91000D02*
D03*
X-100000Y82500D02*
D03*
X-102000Y85500D02*
D03*
X-85500Y80000D02*
D03*
X120000Y-28000D02*
D03*
X110500Y-26500D02*
D03*
X110000Y-32500D02*
D03*
X116500Y-34500D02*
D03*
X120000Y-39000D02*
D03*
X124500Y-36000D02*
D03*
X127000Y-31500D02*
D03*
X125500Y-26500D02*
D03*
X124500Y-20000D02*
D03*
X126000Y-13500D02*
D03*
X131500Y-14000D02*
D03*
X138500D02*
D03*
X144000Y-16500D02*
D03*
X138000Y-35000D02*
D03*
X135000Y-38500D02*
D03*
X132500Y-42500D02*
D03*
X134000Y-46500D02*
D03*
X132000Y-50500D02*
D03*
X129000Y-54000D02*
D03*
X125000Y-56000D02*
D03*
X123000Y-60000D02*
D03*
X124000Y-64000D02*
D03*
X125984Y-66929D02*
D03*
X79500Y-34200D02*
D03*
X82300Y-26700D02*
D03*
X82800Y-24800D02*
D03*
X73100Y-13600D02*
D03*
X75000Y-10200D02*
D03*
X76200Y-7900D02*
D03*
X80700Y-3600D02*
D03*
X33100Y-5300D02*
D03*
X31500Y-11200D02*
D03*
X30600Y-15100D02*
D03*
X35600Y-30600D02*
D03*
X113100Y-5100D02*
D03*
X107600Y24300D02*
D03*
X83400Y11300D02*
D03*
X93700Y50300D02*
D03*
X89200Y55900D02*
D03*
X93500Y58600D02*
D03*
X70300Y34300D02*
D03*
X7000Y107500D02*
D03*
X39900Y95400D02*
D03*
X70500Y76300D02*
D03*
X34800Y104600D02*
D03*
X68100Y86100D02*
D03*
X65600Y80800D02*
D03*
X50400Y56600D02*
D03*
X26400Y71800D02*
D03*
X33000Y98700D02*
D03*
X-1000Y80600D02*
D03*
X-700Y114000D02*
D03*
X-1800Y108500D02*
D03*
X-29800Y81500D02*
D03*
X-29200Y108200D02*
D03*
X-65200Y112200D02*
D03*
X-34000Y122500D02*
D03*
X-63000Y93900D02*
D03*
X-67500Y56600D02*
D03*
X-65200Y59700D02*
D03*
X-60800Y63400D02*
D03*
X-900Y33400D02*
D03*
Y43100D02*
D03*
X-33400Y13600D02*
D03*
X-28100Y19600D02*
D03*
X-27000Y21500D02*
D03*
X-17200Y40100D02*
D03*
X-15900Y44100D02*
D03*
X-16100Y46700D02*
D03*
X-16800Y49200D02*
D03*
X5500Y37100D02*
D03*
X-124505Y77805D02*
D03*
X108695Y15780D02*
D03*
X86100Y-93000D02*
D03*
X89300Y-95000D02*
D03*
X81700Y-93600D02*
D03*
X-34000Y-72600D02*
D03*
X-34500Y-66800D02*
D03*
X-34000Y-61900D02*
D03*
X86200Y-99300D02*
D03*
X86185Y-96500D02*
D03*
X82200Y-96900D02*
D03*
X-50800Y-71900D02*
D03*
X-50700Y-64900D02*
D03*
X-45900Y-50800D02*
D03*
X-118613Y32713D02*
D03*
X-121600Y33600D02*
D03*
X-14000Y-50800D02*
D03*
X5300Y-49600D02*
D03*
X-122600Y36800D02*
D03*
X102500Y-103500D02*
D03*
X-134747Y49393D02*
D03*
X-132600Y50400D02*
D03*
X-100914Y37700D02*
D03*
X-81440Y30860D02*
D03*
X-106646Y57863D02*
D03*
X-106646Y51537D02*
D03*
X-112637Y63854D02*
D03*
Y57863D02*
D03*
Y51537D02*
D03*
Y45546D02*
D03*
X-118963Y63854D02*
D03*
X-118963Y57863D02*
D03*
X-118963Y51537D02*
D03*
X-118963Y45546D02*
D03*
X-124954Y57863D02*
D03*
X-124953Y51537D02*
D03*
X82100Y-66100D02*
D03*
X-33000Y48700D02*
D03*
X-35900Y48800D02*
D03*
X-39600Y45100D02*
D03*
X-43400Y41200D02*
D03*
X-47300Y37400D02*
D03*
X61100Y-5200D02*
D03*
X56600Y-20700D02*
D03*
X63600Y-4500D02*
D03*
X57900Y-15600D02*
D03*
X59400Y-10200D02*
D03*
X31583Y-124416D02*
D03*
X18000Y-109600D02*
D03*
X53843Y-101329D02*
D03*
D239*
X-108231Y-37604D02*
D03*
X-107518Y-34942D02*
D03*
X-108944Y-40266D02*
D03*
X27843Y-119403D02*
D03*
Y-113891D02*
D03*
X27843Y-116647D02*
D03*
M02*
