G04*
G04 #@! TF.GenerationSoftware,Altium Limited,Altium Designer,21.1.1 (26)*
G04*
G04 Layer_Physical_Order=3*
G04 Layer_Color=16440176*
%FSLAX25Y25*%
%MOIN*%
G70*
G04*
G04 #@! TF.SameCoordinates,985859E8-4EFC-4F0D-9A30-7684DD2826E4*
G04*
G04*
G04 #@! TF.FilePolarity,Positive*
G04*
G01*
G75*
%ADD18C,0.00600*%
%ADD19C,0.00800*%
%ADD190C,0.00600*%
G04:AMPARAMS|DCode=236|XSize=40mil|YSize=60mil|CornerRadius=0mil|HoleSize=0mil|Usage=FLASHONLY|Rotation=105.000|XOffset=0mil|YOffset=0mil|HoleType=Round|Shape=Round|*
%AMOVALD236*
21,1,0.02000,0.04000,0.00000,0.00000,195.0*
1,1,0.04000,0.00966,0.00259*
1,1,0.04000,-0.00966,-0.00259*
%
%ADD236OVALD236*%

%ADD237O,0.06000X0.04000*%
%ADD238C,0.01772*%
G36*
X7919Y171291D02*
X15822Y170743D01*
X23690Y169830D01*
X31508Y168554D01*
X39259Y166919D01*
X46926Y164928D01*
X54493Y162585D01*
X61944Y159895D01*
X69262Y156863D01*
X76433Y153497D01*
X83440Y149804D01*
X90270Y145790D01*
X96906Y141466D01*
X103336Y136839D01*
X109546Y131921D01*
X115521Y126721D01*
X121250Y121250D01*
X126721Y115521D01*
X131921Y109546D01*
X136839Y103336D01*
X141466Y96906D01*
X145790Y90270D01*
X149804Y83440D01*
X153497Y76433D01*
X156863Y69262D01*
X159895Y61944D01*
X162585Y54493D01*
X164928Y46926D01*
X166919Y39259D01*
X168554Y31508D01*
X169830Y23690D01*
X170743Y15822D01*
X170877Y13882D01*
X169915Y13299D01*
X168603Y14103D01*
X166308Y15054D01*
X163893Y15633D01*
X161417Y15828D01*
X158941Y15633D01*
X156526Y15054D01*
X154231Y14103D01*
X152114Y12805D01*
X150225Y11192D01*
X148612Y9304D01*
X147314Y7186D01*
X146364Y4891D01*
X145784Y2476D01*
X145589Y0D01*
X145784Y-2476D01*
X146364Y-4891D01*
X147314Y-7186D01*
X148612Y-9304D01*
X150225Y-11192D01*
X152114Y-12805D01*
X154231Y-14103D01*
X156526Y-15054D01*
X158941Y-15633D01*
X161417Y-15828D01*
X163893Y-15633D01*
X166308Y-15054D01*
X168603Y-14103D01*
X169915Y-13299D01*
X170877Y-13882D01*
X170743Y-15822D01*
X169830Y-23690D01*
X168554Y-31508D01*
X166919Y-39259D01*
X164928Y-46926D01*
X162585Y-54493D01*
X159895Y-61944D01*
X156863Y-69262D01*
X153497Y-76433D01*
X149804Y-83440D01*
X145790Y-90270D01*
X141466Y-96906D01*
X136839Y-103336D01*
X131921Y-109546D01*
X126721Y-115521D01*
X121250Y-121250D01*
X115521Y-126721D01*
X109546Y-131921D01*
X103336Y-136839D01*
X96906Y-141466D01*
X90270Y-145790D01*
X83440Y-149804D01*
X76433Y-153497D01*
X69262Y-156863D01*
X61944Y-159895D01*
X54493Y-162585D01*
X46926Y-164928D01*
X39259Y-166919D01*
X31508Y-168554D01*
X23690Y-169830D01*
X15822Y-170743D01*
X7919Y-171291D01*
X0Y-171474D01*
X-7919Y-171291D01*
X-15822Y-170743D01*
X-23690Y-169830D01*
X-31508Y-168554D01*
X-39259Y-166919D01*
X-46926Y-164928D01*
X-54493Y-162585D01*
X-61944Y-159895D01*
X-69262Y-156863D01*
X-73545Y-154853D01*
X-73540Y-154632D01*
X-73397Y-153817D01*
X-71405Y-152597D01*
X-69516Y-150984D01*
X-67903Y-149095D01*
X-66606Y-146977D01*
X-65655Y-144683D01*
X-65075Y-142267D01*
X-64880Y-139791D01*
X-65075Y-137315D01*
X-65655Y-134900D01*
X-66606Y-132605D01*
X-67903Y-130488D01*
X-69516Y-128599D01*
X-71405Y-126986D01*
X-73523Y-125688D01*
X-75817Y-124738D01*
X-78233Y-124158D01*
X-80709Y-123963D01*
X-83185Y-124158D01*
X-85600Y-124738D01*
X-87895Y-125688D01*
X-90012Y-126986D01*
X-91901Y-128599D01*
X-93514Y-130488D01*
X-94812Y-132605D01*
X-95762Y-134900D01*
X-96342Y-137315D01*
X-96537Y-139791D01*
X-96478Y-140542D01*
X-97438Y-141083D01*
X-103336Y-136839D01*
X-109546Y-131921D01*
X-115521Y-126721D01*
X-121250Y-121250D01*
X-126721Y-115521D01*
X-131921Y-109546D01*
X-136839Y-103336D01*
X-141466Y-96906D01*
X-145790Y-90270D01*
X-149804Y-83440D01*
X-153497Y-76433D01*
X-156863Y-69262D01*
X-159895Y-61944D01*
X-162585Y-54493D01*
X-164928Y-46926D01*
X-166919Y-39259D01*
X-168554Y-31508D01*
X-169830Y-23690D01*
X-170743Y-15822D01*
X-171291Y-7919D01*
X-171474Y0D01*
X-171291Y7919D01*
X-170743Y15822D01*
X-169830Y23690D01*
X-168554Y31508D01*
X-166919Y39259D01*
X-164928Y46926D01*
X-162585Y54493D01*
X-159895Y61944D01*
X-156863Y69262D01*
X-153497Y76433D01*
X-149804Y83440D01*
X-145790Y90270D01*
X-141466Y96906D01*
X-136839Y103336D01*
X-131921Y109546D01*
X-126721Y115521D01*
X-121250Y121250D01*
X-115521Y126721D01*
X-109546Y131921D01*
X-103336Y136839D01*
X-97438Y141083D01*
X-96478Y140542D01*
X-96537Y139791D01*
X-96342Y137315D01*
X-95762Y134900D01*
X-94812Y132605D01*
X-93514Y130488D01*
X-91901Y128599D01*
X-90012Y126986D01*
X-87895Y125688D01*
X-85600Y124738D01*
X-83185Y124158D01*
X-80709Y123963D01*
X-78233Y124158D01*
X-75817Y124738D01*
X-73523Y125688D01*
X-71405Y126986D01*
X-69516Y128599D01*
X-67903Y130488D01*
X-66606Y132605D01*
X-65655Y134900D01*
X-65075Y137315D01*
X-64880Y139791D01*
X-65075Y142267D01*
X-65655Y144683D01*
X-66606Y146977D01*
X-67903Y149095D01*
X-69516Y150984D01*
X-71405Y152597D01*
X-73397Y153817D01*
X-73540Y154632D01*
X-73545Y154853D01*
X-69262Y156863D01*
X-61944Y159895D01*
X-54493Y162585D01*
X-46926Y164928D01*
X-39259Y166919D01*
X-31508Y168554D01*
X-23690Y169830D01*
X-15822Y170743D01*
X-7919Y171291D01*
X0Y171474D01*
X7919Y171291D01*
D02*
G37*
%LPC*%
G36*
X-19700Y141682D02*
X-21147Y141491D01*
X-22496Y140933D01*
X-23654Y140044D01*
X-24542Y138886D01*
X-25101Y137538D01*
X-25291Y136091D01*
Y134909D01*
X-25101Y133462D01*
X-24542Y132114D01*
X-23654Y130956D01*
X-22496Y130068D01*
X-21147Y129509D01*
X-19700Y129318D01*
X-18253Y129509D01*
X-16905Y130068D01*
X-16243Y130575D01*
X-15243Y130082D01*
Y129366D01*
X-4157D01*
Y141634D01*
X-15243D01*
Y140919D01*
X-16243Y140425D01*
X-16905Y140933D01*
X-18253Y141491D01*
X-19700Y141682D01*
D02*
G37*
G36*
X-50513Y131321D02*
X-51296Y131218D01*
X-51779Y131089D01*
X-51125Y128649D01*
X-47783Y129545D01*
X-47892Y129808D01*
X-48373Y130435D01*
X-49000Y130916D01*
X-49730Y131218D01*
X-50513Y131321D01*
D02*
G37*
G36*
X22459Y136362D02*
X21012Y136171D01*
X19663Y135612D01*
X18505Y134724D01*
X17617Y133566D01*
X17058Y132218D01*
X16752Y131077D01*
X16562Y129630D01*
X16752Y128182D01*
X17311Y126834D01*
X18199Y125676D01*
X19357Y124787D01*
X20706Y124229D01*
X22153Y124038D01*
X23600Y124229D01*
X24370Y124548D01*
X25208Y123813D01*
X25023Y123122D01*
X35732Y120252D01*
X38907Y132102D01*
X28198Y134971D01*
X28013Y134280D01*
X26919Y134063D01*
X26412Y134724D01*
X25254Y135612D01*
X23906Y136171D01*
X22459Y136362D01*
D02*
G37*
G36*
X-33524Y124894D02*
X-34476D01*
X-35356Y124529D01*
X-36029Y123856D01*
X-36394Y122976D01*
Y122024D01*
X-36029Y121144D01*
X-35356Y120471D01*
X-34476Y120106D01*
X-33524D01*
X-32644Y120471D01*
X-31971Y121144D01*
X-31606Y122024D01*
Y122976D01*
X-31971Y123856D01*
X-32644Y124529D01*
X-33524Y124894D01*
D02*
G37*
G36*
X-52745Y130830D02*
X-53228Y130701D01*
X-53958Y130398D01*
X-54584Y129918D01*
X-55065Y129291D01*
X-55367Y128561D01*
X-55471Y127778D01*
X-55367Y126995D01*
X-55947Y125840D01*
X-56059Y125810D01*
X-57032Y125407D01*
X-57867Y124766D01*
X-58508Y123930D01*
X-58911Y122957D01*
X-59049Y121913D01*
X-58944Y121120D01*
X-97974Y97938D01*
X-98770Y98628D01*
X-98606Y99024D01*
Y99285D01*
X-98012Y100060D01*
X-97682Y100106D01*
X-97024D01*
X-96144Y100471D01*
X-95471Y101144D01*
X-95106Y102024D01*
Y102976D01*
X-95471Y103856D01*
X-96144Y104529D01*
X-97024Y104894D01*
X-97976D01*
X-98856Y104529D01*
X-99529Y103856D01*
X-99894Y102976D01*
X-100335Y102846D01*
X-100750Y103677D01*
X-100606Y104024D01*
Y104976D01*
X-100971Y105856D01*
X-101644Y106529D01*
X-102524Y106894D01*
X-103223D01*
X-103668Y107639D01*
X-103714Y107818D01*
X-95236Y116295D01*
X-84504D01*
X-84029Y115356D01*
X-84394Y114476D01*
Y113524D01*
X-84029Y112644D01*
X-83356Y111971D01*
X-82476Y111606D01*
X-81524D01*
X-80644Y111971D01*
X-79971Y112644D01*
X-79606Y113524D01*
Y114476D01*
X-78895Y115372D01*
X-78364Y115591D01*
X-77691Y116264D01*
X-77327Y117144D01*
Y118097D01*
X-77691Y118976D01*
X-78364Y119650D01*
X-79244Y120014D01*
X-80197D01*
X-81076Y119650D01*
X-81750Y118976D01*
X-81762Y118946D01*
X-95785D01*
X-96293Y118845D01*
X-96723Y118558D01*
X-118493Y96787D01*
X-137319Y82693D01*
X-137380Y82624D01*
X-137534Y82521D01*
X-137954Y81893D01*
X-137996Y81684D01*
X-138041Y81584D01*
X-144559Y53341D01*
X-144563Y53193D01*
X-144620Y52905D01*
X-144560Y52602D01*
X-144553Y52443D01*
X-142286Y43284D01*
X-142245Y43195D01*
X-142206Y43002D01*
X-141786Y42374D01*
X-141158Y41954D01*
X-140814Y41886D01*
X-140658Y41833D01*
X-124305Y39767D01*
X-124104Y39228D01*
X-124058Y38728D01*
X-124629Y38156D01*
X-124994Y37276D01*
Y36324D01*
X-124629Y35444D01*
X-123956Y34771D01*
X-123743Y34682D01*
X-123994Y34076D01*
Y33124D01*
X-123629Y32244D01*
X-122956Y31571D01*
X-122076Y31206D01*
X-121960Y30990D01*
X-122417Y29730D01*
X-124584Y28855D01*
X-124588Y28863D01*
X-124605Y28859D01*
X-125231Y28441D01*
X-125233Y28439D01*
X-125330Y28295D01*
X-125653Y27811D01*
X-125710Y27526D01*
X-125726Y27484D01*
X-125763Y27386D01*
X-126795Y21196D01*
X-126791Y21087D01*
X-126832Y20879D01*
X-126806Y20748D01*
X-126812Y20693D01*
X-126812Y20693D01*
Y20693D01*
X-126812Y20692D01*
X-126812Y20692D01*
X-122422Y-24496D01*
X-122395Y-24586D01*
X-122395Y-24683D01*
X-120178Y-36007D01*
X-120181Y-36012D01*
X-121074Y-36636D01*
X-121584Y-36425D01*
X-122536D01*
X-122624Y-36461D01*
X-122878Y-36207D01*
X-123757Y-35843D01*
X-124710D01*
X-124797Y-35879D01*
X-125051Y-35625D01*
X-125931Y-35260D01*
X-126883D01*
X-127763Y-35625D01*
X-128436Y-36298D01*
X-128801Y-37178D01*
Y-38130D01*
X-128436Y-39010D01*
X-127763Y-39683D01*
X-126883Y-40048D01*
X-125931D01*
X-125844Y-40012D01*
X-125589Y-40266D01*
X-124710Y-40630D01*
X-123757D01*
X-123670Y-40594D01*
X-123416Y-40848D01*
X-122536Y-41212D01*
X-121584D01*
X-121155Y-41035D01*
X-120277Y-41727D01*
X-121255Y-46476D01*
X-121714Y-46666D01*
X-122388Y-47340D01*
X-122752Y-48219D01*
Y-49172D01*
X-122388Y-50051D01*
X-121714Y-50725D01*
X-120835Y-51089D01*
X-119882D01*
X-119003Y-50725D01*
X-118329Y-50051D01*
X-117965Y-49172D01*
Y-48219D01*
X-118329Y-47340D01*
X-118658Y-47011D01*
X-117026Y-39085D01*
X-117026Y-39082D01*
X-117025Y-39079D01*
X-117025Y-39077D01*
X-117024Y-38946D01*
X-116975Y-38697D01*
X-116995Y-38597D01*
X-116664Y-38165D01*
X-116540Y-38064D01*
X-116102Y-37825D01*
X-115293D01*
X-114413Y-37461D01*
X-113740Y-36787D01*
X-113375Y-35908D01*
Y-34955D01*
X-113740Y-34075D01*
X-114413Y-33402D01*
X-115293Y-33038D01*
X-116245D01*
X-116980Y-33342D01*
X-117515Y-33213D01*
X-118077Y-32940D01*
X-118577Y-30386D01*
X-117655Y-29895D01*
X-117271Y-30278D01*
X-116391Y-30643D01*
X-115439D01*
X-114559Y-30278D01*
X-113886Y-29605D01*
X-113521Y-28725D01*
Y-27773D01*
X-113886Y-26893D01*
X-114559Y-26220D01*
X-114610Y-26199D01*
X-114682Y-18810D01*
X-113688Y-18217D01*
X-103361Y-20985D01*
X-103175Y-20293D01*
X-102082Y-20076D01*
X-101575Y-20737D01*
X-100417Y-21626D01*
X-99068Y-22184D01*
X-97621Y-22375D01*
X-96174Y-22184D01*
X-94826Y-21626D01*
X-93668Y-20737D01*
X-92779Y-19579D01*
X-92220Y-18231D01*
X-91915Y-17090D01*
X-91724Y-15643D01*
X-91915Y-14196D01*
X-92473Y-12847D01*
X-93362Y-11689D01*
X-94520Y-10801D01*
X-95868Y-10242D01*
X-97315Y-10052D01*
X-98706Y-10235D01*
X-98776Y-10232D01*
X-99666Y-9534D01*
X-99661Y-9459D01*
X-99661D01*
X-96792Y1250D01*
X-97483Y1435D01*
X-97700Y2529D01*
X-97039Y3036D01*
X-96150Y4194D01*
X-95592Y5542D01*
X-95401Y6989D01*
X-95592Y8437D01*
X-96150Y9785D01*
X-96733Y10544D01*
X-95980Y11205D01*
X-89025Y4251D01*
Y-28900D01*
X-88925Y-29407D01*
X-88637Y-29837D01*
X-65139Y-53336D01*
X-64937Y-53637D01*
X-61027Y-57547D01*
X-61441Y-58547D01*
X-61705D01*
X-62964Y-58885D01*
X-64094Y-59537D01*
X-65016Y-60459D01*
X-65498Y-61295D01*
X-65706Y-61359D01*
X-66400Y-61359D01*
X-66607Y-61295D01*
X-67090Y-60459D01*
X-68012Y-59537D01*
X-69141Y-58885D01*
X-70401Y-58547D01*
X-71705D01*
X-72964Y-58885D01*
X-74094Y-59537D01*
X-75016Y-60459D01*
X-75100Y-60605D01*
X-76100Y-60337D01*
Y-58547D01*
X-86006D01*
Y-58595D01*
X-87006Y-59009D01*
X-87144Y-58871D01*
X-88024Y-58506D01*
X-88976D01*
X-89856Y-58871D01*
X-90529Y-59544D01*
X-90894Y-60424D01*
Y-61376D01*
X-90529Y-62256D01*
X-89856Y-62929D01*
X-89726Y-62983D01*
Y-71100D01*
X-89625Y-71607D01*
X-89337Y-72037D01*
X-72037Y-89337D01*
X-71607Y-89625D01*
X-71100Y-89726D01*
X-63542D01*
X-63529Y-89756D01*
X-62856Y-90429D01*
X-61976Y-90794D01*
X-61024D01*
X-60144Y-90429D01*
X-59471Y-89756D01*
X-59106Y-88876D01*
Y-87924D01*
X-59471Y-87044D01*
X-60144Y-86371D01*
X-61024Y-86006D01*
X-61976D01*
X-62856Y-86371D01*
X-63529Y-87044D01*
X-63542Y-87075D01*
X-70551D01*
X-87075Y-70551D01*
Y-63845D01*
X-87006Y-63798D01*
X-86006Y-64333D01*
Y-68453D01*
X-76100D01*
Y-66663D01*
X-75100Y-66395D01*
X-75016Y-66541D01*
X-74094Y-67463D01*
X-72964Y-68115D01*
X-71705Y-68453D01*
X-70401D01*
X-69141Y-68115D01*
X-68012Y-67463D01*
X-67090Y-66541D01*
X-66607Y-65705D01*
X-66400Y-65641D01*
X-65706Y-65641D01*
X-65498Y-65705D01*
X-65016Y-66541D01*
X-64094Y-67463D01*
X-62964Y-68115D01*
X-61705Y-68453D01*
X-60401D01*
X-59141Y-68115D01*
X-58012Y-67463D01*
X-57925Y-67377D01*
X-56925Y-67791D01*
Y-96100D01*
X-56825Y-96607D01*
X-56537Y-97037D01*
X-48237Y-105337D01*
X-47807Y-105625D01*
X-47300Y-105726D01*
X-16942D01*
X-16929Y-105756D01*
X-16256Y-106429D01*
X-15376Y-106794D01*
X-14424D01*
X-13544Y-106429D01*
X-12871Y-105756D01*
X-12506Y-104876D01*
Y-103924D01*
X-12835Y-103130D01*
X-12792Y-103051D01*
X-11850Y-102544D01*
X-10590Y-102882D01*
X-9286D01*
X-8026Y-102544D01*
X-6897Y-101892D01*
X-5975Y-100970D01*
X-5492Y-100135D01*
X-5285Y-100070D01*
X-4591D01*
X-4383Y-100135D01*
X-3901Y-100970D01*
X-2979Y-101892D01*
X-1850Y-102544D01*
X-590Y-102882D01*
X714D01*
X1974Y-102544D01*
X2675Y-102139D01*
X3736Y-102419D01*
X3875Y-102535D01*
X4056Y-103020D01*
X746Y-108665D01*
X717Y-108748D01*
X617Y-108898D01*
X470Y-109640D01*
X617Y-110381D01*
X1037Y-111009D01*
X1665Y-111429D01*
X1809Y-111458D01*
X1866Y-111487D01*
X3501Y-111964D01*
X3599Y-111973D01*
X3691Y-112009D01*
X17086Y-114472D01*
X17207Y-114470D01*
X17247Y-114478D01*
X17394Y-114614D01*
X17657Y-115025D01*
X17842Y-115455D01*
X17606Y-116024D01*
Y-116976D01*
X17971Y-117856D01*
X18644Y-118529D01*
X19524Y-118894D01*
X20476D01*
X21356Y-118529D01*
X22029Y-117856D01*
X22394Y-116976D01*
Y-116024D01*
X22029Y-115144D01*
X21356Y-114471D01*
X20970Y-114311D01*
X20975Y-113231D01*
X25076Y-111581D01*
X25585Y-112109D01*
X25711Y-112403D01*
X25429Y-112891D01*
X25253Y-113550D01*
Y-114232D01*
X25429Y-114891D01*
X25648Y-115269D01*
X25429Y-115647D01*
X25253Y-116306D01*
Y-116988D01*
X25429Y-117647D01*
X25648Y-118025D01*
X25429Y-118403D01*
X25253Y-119062D01*
Y-119744D01*
X25429Y-120403D01*
X25770Y-120994D01*
X26253Y-121476D01*
X26843Y-121817D01*
X27502Y-121994D01*
X28184D01*
X28843Y-121817D01*
X29434Y-121476D01*
X29916Y-120994D01*
X30257Y-120403D01*
X30434Y-119744D01*
Y-119062D01*
X30257Y-118403D01*
X30039Y-118025D01*
X30257Y-117647D01*
X30434Y-116988D01*
Y-116306D01*
X30257Y-115647D01*
X30039Y-115269D01*
X30257Y-114891D01*
X30434Y-114232D01*
Y-113550D01*
X30257Y-112891D01*
X29916Y-112301D01*
X29641Y-112025D01*
X29894Y-111163D01*
X29990Y-111026D01*
X44720D01*
X73440Y-113985D01*
X73509Y-113978D01*
X73576Y-113991D01*
X73618D01*
X73642Y-113987D01*
X73667Y-113991D01*
X73678Y-113990D01*
X73678Y-113990D01*
X73678Y-113990D01*
X77250Y-113858D01*
X77808Y-114838D01*
X77606Y-115324D01*
Y-116276D01*
X77971Y-117156D01*
X78644Y-117829D01*
X79524Y-118194D01*
X80476D01*
X81356Y-117829D01*
X81651Y-117534D01*
X82499Y-118101D01*
X82406Y-118324D01*
Y-119276D01*
X82771Y-120156D01*
X83444Y-120829D01*
X84324Y-121194D01*
X85276D01*
X86156Y-120829D01*
X86829Y-120156D01*
X87194Y-119276D01*
Y-118324D01*
X86829Y-117444D01*
X86156Y-116771D01*
X85276Y-116406D01*
X84324D01*
X83444Y-116771D01*
X83149Y-117066D01*
X82301Y-116499D01*
X82394Y-116276D01*
Y-115324D01*
X82126Y-114678D01*
X82441Y-113928D01*
X82657Y-113658D01*
X93538Y-113255D01*
X93704Y-113215D01*
X93874Y-113198D01*
X93949Y-113176D01*
X109073Y-108584D01*
X109123Y-108558D01*
X109257Y-108531D01*
X109885Y-108111D01*
X110305Y-107483D01*
X110453Y-106741D01*
X110305Y-106000D01*
X110225Y-105880D01*
X110207Y-105821D01*
X110205Y-105818D01*
X110202Y-105814D01*
X110200Y-105809D01*
X108053Y-101930D01*
X108316Y-101294D01*
Y-100794D01*
X108376D01*
X109256Y-100429D01*
X109929Y-99756D01*
X110162Y-99194D01*
X110276D01*
X111156Y-98829D01*
X111829Y-98156D01*
X112109Y-97480D01*
X112956Y-97129D01*
X113629Y-96456D01*
X113994Y-95576D01*
Y-95239D01*
X114742Y-94929D01*
X115415Y-94256D01*
X115779Y-93376D01*
Y-92424D01*
X115423Y-91562D01*
X115629Y-91356D01*
X115994Y-90476D01*
Y-89524D01*
X115629Y-88644D01*
X116229Y-87856D01*
X116594Y-86976D01*
Y-86024D01*
X116229Y-85144D01*
X115781Y-84696D01*
X115807Y-84670D01*
X116171Y-83790D01*
Y-82838D01*
X115807Y-81959D01*
X115133Y-81285D01*
X114253Y-80921D01*
X113301D01*
X112421Y-81285D01*
X111748Y-81959D01*
X111384Y-82838D01*
Y-83790D01*
X111748Y-84670D01*
X112196Y-85119D01*
X112171Y-85144D01*
X111806Y-86024D01*
Y-86511D01*
X110840Y-87057D01*
X107511Y-84738D01*
X107493Y-84586D01*
X107708Y-83656D01*
X108282Y-83418D01*
X108956Y-82745D01*
X109320Y-81865D01*
Y-80913D01*
X108956Y-80033D01*
X108282Y-79360D01*
X107403Y-78995D01*
X106450D01*
X105571Y-79360D01*
X104897Y-80033D01*
X104533Y-80913D01*
Y-81217D01*
X103647Y-81720D01*
X103163Y-81395D01*
X103151Y-80367D01*
X103768Y-79750D01*
X104132Y-78870D01*
Y-77918D01*
X103768Y-77038D01*
X103095Y-76364D01*
X102215Y-76000D01*
X101263D01*
X100383Y-76364D01*
X99709Y-77038D01*
X99345Y-77918D01*
Y-78032D01*
X98513Y-78518D01*
X97805Y-78129D01*
X97743Y-77133D01*
X98289Y-76586D01*
X98653Y-75707D01*
Y-74754D01*
X98289Y-73875D01*
X97616Y-73201D01*
X96736Y-72837D01*
X95784D01*
X94904Y-73201D01*
X94230Y-73875D01*
X94018Y-74388D01*
X93074Y-74836D01*
X93041Y-74839D01*
X92935Y-73757D01*
X93101Y-73591D01*
X93466Y-72711D01*
Y-71759D01*
X93101Y-70879D01*
X92428Y-70206D01*
X91548Y-69842D01*
X90596D01*
X89716Y-70206D01*
X89043Y-70879D01*
X88678Y-71759D01*
Y-71984D01*
X87678Y-72563D01*
X87107Y-72235D01*
X87100Y-72233D01*
X87094Y-72228D01*
X87093Y-72227D01*
X87024Y-72205D01*
X86889Y-72115D01*
X86889Y-72115D01*
X86148Y-71968D01*
X86091Y-71979D01*
X85104Y-72009D01*
X78266Y-72210D01*
X58107Y-68692D01*
X57767Y-67618D01*
X58029Y-67356D01*
X58394Y-66476D01*
Y-66269D01*
X58840Y-65739D01*
X59358Y-65437D01*
X76123Y-68264D01*
X76233Y-68261D01*
X76443Y-68302D01*
X77184Y-68155D01*
X77464Y-67968D01*
X77610Y-67896D01*
X78796Y-66992D01*
X80015Y-67321D01*
X80071Y-67456D01*
X80744Y-68129D01*
X81624Y-68494D01*
X82576D01*
X83456Y-68129D01*
X84129Y-67456D01*
X84494Y-66576D01*
Y-65624D01*
X84129Y-64744D01*
X83811Y-64426D01*
X83770Y-63201D01*
X85053Y-62222D01*
X86126Y-62662D01*
X86342Y-63183D01*
X87015Y-63856D01*
X87895Y-64221D01*
X88847D01*
X89727Y-63856D01*
X90400Y-63183D01*
X90765Y-62303D01*
X91510Y-61784D01*
X101828Y-65600D01*
X102059Y-65637D01*
X102288Y-65683D01*
X102481D01*
X102664Y-65646D01*
X102845Y-65631D01*
X103044Y-65829D01*
X103924Y-66194D01*
X104876D01*
X105756Y-65829D01*
X106429Y-65156D01*
X106794Y-64276D01*
Y-63324D01*
X106429Y-62444D01*
X105756Y-61771D01*
X104876Y-61406D01*
X104294D01*
Y-61124D01*
X103929Y-60244D01*
X103256Y-59571D01*
X102376Y-59206D01*
X101424D01*
X100544Y-59571D01*
X100453Y-59661D01*
X87857Y-55065D01*
X87792Y-55055D01*
X87197Y-54937D01*
X86456Y-55084D01*
X85988Y-54236D01*
X87559Y-52984D01*
X87824Y-53094D01*
X88776D01*
X89656Y-52729D01*
X90329Y-52056D01*
X90694Y-51176D01*
Y-50224D01*
X90329Y-49344D01*
X89656Y-48671D01*
X88776Y-48306D01*
X87824D01*
X86944Y-48671D01*
X85876Y-48391D01*
X85756Y-48271D01*
X84876Y-47906D01*
X83924D01*
X83044Y-48271D01*
X82677Y-48638D01*
X81876Y-48306D01*
X80924D01*
X80044Y-48671D01*
X79371Y-49344D01*
X79326Y-49451D01*
X78976Y-49306D01*
X78024D01*
X77144Y-49671D01*
X76471Y-50344D01*
X76106Y-51224D01*
Y-52176D01*
X76471Y-53056D01*
X77144Y-53729D01*
X78024Y-54094D01*
X78976D01*
X79856Y-53729D01*
X80529Y-53056D01*
X80574Y-52949D01*
X80924Y-53094D01*
X81561D01*
X81947Y-54064D01*
X76618Y-58308D01*
X76507Y-58280D01*
X75694Y-57765D01*
Y-57124D01*
X75329Y-56244D01*
X74656Y-55571D01*
X73776Y-55206D01*
X72824D01*
X71944Y-55571D01*
X71271Y-56244D01*
X70906Y-57124D01*
Y-58076D01*
X70974Y-58240D01*
X70371Y-58844D01*
X70006Y-59724D01*
Y-60300D01*
X69202Y-61148D01*
X47030Y-56328D01*
X46829Y-55844D01*
X46156Y-55171D01*
X45276Y-54806D01*
X44324D01*
X43444Y-55171D01*
X42771Y-55844D01*
X42406Y-56724D01*
X41435Y-56655D01*
X41038Y-56565D01*
X40994Y-56476D01*
Y-55524D01*
X40629Y-54644D01*
X39956Y-53971D01*
X39076Y-53606D01*
X38124D01*
X37244Y-53971D01*
X37105Y-54110D01*
X35925Y-53875D01*
X35829Y-53644D01*
X35156Y-52971D01*
X34276Y-52606D01*
X33324D01*
X32444Y-52971D01*
X31771Y-53644D01*
X31406Y-54524D01*
Y-55476D01*
X31771Y-56356D01*
X32125Y-56710D01*
X32099Y-56848D01*
Y-56849D01*
X32098Y-56849D01*
X32098Y-56852D01*
X32098Y-56865D01*
X32094Y-56876D01*
X31897Y-57990D01*
X31896Y-57993D01*
X31899Y-58110D01*
X31855Y-58328D01*
X32003Y-59069D01*
X32423Y-59697D01*
X33051Y-60117D01*
X33296Y-60166D01*
X33415Y-60216D01*
X36002Y-60737D01*
X36298Y-61817D01*
X35971Y-62144D01*
X35606Y-63024D01*
Y-63036D01*
X34606Y-63738D01*
X4871Y-52994D01*
X5046Y-51994D01*
X5776D01*
X6656Y-51629D01*
X7329Y-50956D01*
X7694Y-50076D01*
Y-49124D01*
X7329Y-48244D01*
X6656Y-47571D01*
X5776Y-47206D01*
X4824D01*
X3944Y-47571D01*
X3271Y-48244D01*
X2906Y-49124D01*
Y-50076D01*
X3271Y-50956D01*
X3944Y-51629D01*
X3510Y-52502D01*
X-17053Y-45072D01*
X-17279Y-45038D01*
X-17503Y-44993D01*
X-17742D01*
X-17773Y-44999D01*
X-17803Y-44994D01*
X-18025Y-45049D01*
X-18249Y-45094D01*
X-18275Y-45111D01*
X-18305Y-45118D01*
X-18426Y-45175D01*
X-19624Y-45737D01*
X-20424Y-45406D01*
X-21376D01*
X-22256Y-45771D01*
X-22929Y-46444D01*
X-23294Y-47324D01*
Y-48276D01*
X-22929Y-49156D01*
X-22256Y-49829D01*
X-21376Y-50194D01*
X-20424D01*
X-19544Y-49829D01*
X-18871Y-49156D01*
X-18506Y-48276D01*
Y-48141D01*
X-17572Y-47703D01*
X-16199Y-48199D01*
X-15941Y-49356D01*
X-16029Y-49444D01*
X-16394Y-50324D01*
Y-51276D01*
X-16029Y-52156D01*
X-15356Y-52829D01*
X-14476Y-53194D01*
X-13524D01*
X-12644Y-52829D01*
X-11971Y-52156D01*
X-11606Y-51276D01*
Y-50922D01*
X-10657Y-50202D01*
X6791Y-56506D01*
X6577Y-57492D01*
X-43706Y-53405D01*
X-44086Y-52371D01*
X-43871Y-52156D01*
X-43506Y-51276D01*
Y-50324D01*
X-43871Y-49444D01*
X-44544Y-48771D01*
X-45424Y-48406D01*
X-46376D01*
X-47256Y-48771D01*
X-47929Y-49444D01*
X-48294Y-50324D01*
Y-51276D01*
X-48020Y-51937D01*
X-48363Y-52584D01*
X-48639Y-52856D01*
X-50731Y-52545D01*
X-57169Y-47090D01*
X-56992Y-25849D01*
X-56944Y-25829D01*
X-56271Y-25156D01*
X-55906Y-24276D01*
Y-23324D01*
X-56271Y-22444D01*
X-56944Y-21771D01*
X-57824Y-21406D01*
X-58776D01*
X-59656Y-21771D01*
X-60329Y-22444D01*
X-60694Y-23324D01*
Y-24276D01*
X-60329Y-25156D01*
X-59656Y-25829D01*
X-59642Y-25835D01*
X-59823Y-47396D01*
X-59831Y-47404D01*
X-59835Y-47424D01*
X-59688Y-48164D01*
X-59687Y-48165D01*
X-59593Y-48307D01*
X-59267Y-48794D01*
X-59169Y-48860D01*
X-59142Y-48893D01*
X-52289Y-54699D01*
X-52154Y-54774D01*
X-51784Y-55022D01*
X-51476Y-55083D01*
X-51396Y-55111D01*
X-51326Y-55136D01*
X-46818Y-55808D01*
X-46753Y-55804D01*
X-46690Y-55823D01*
X-33736Y-56875D01*
X-33776Y-57875D01*
X-52651D01*
X-83775Y-26751D01*
Y-23227D01*
X-83276Y-22894D01*
X-82324D01*
X-81444Y-22529D01*
X-81006Y-22091D01*
X-80276Y-22394D01*
X-79324D01*
X-78444Y-22029D01*
X-77771Y-21356D01*
X-77406Y-20476D01*
Y-19524D01*
X-77771Y-18644D01*
X-78444Y-17971D01*
X-78474Y-17958D01*
Y-12425D01*
X-78258Y-12215D01*
X-77474Y-11846D01*
X-76876Y-12094D01*
X-75924D01*
X-75044Y-11729D01*
X-74923Y-11608D01*
X-74721Y-11810D01*
X-73841Y-12174D01*
X-72889D01*
X-72009Y-11810D01*
X-71335Y-11137D01*
X-70971Y-10257D01*
Y-9305D01*
X-70984Y-9274D01*
X-62963Y-1253D01*
X-62675Y-823D01*
X-62574Y-316D01*
Y10300D01*
X-62675Y10807D01*
X-62963Y11237D01*
X-80162Y28437D01*
X-80084Y28831D01*
X-79410Y29504D01*
X-79046Y30384D01*
Y31337D01*
X-79410Y32216D01*
X-80084Y32890D01*
X-80963Y33254D01*
X-81916D01*
X-82796Y32890D01*
X-83469Y32216D01*
X-83863Y32138D01*
X-84793Y33067D01*
X-84719Y34143D01*
X-84176Y34506D01*
X-83224D01*
X-82344Y34871D01*
X-81671Y35544D01*
X-81306Y36424D01*
Y37376D01*
X-81636Y38173D01*
X-81445Y38597D01*
X-81107Y39106D01*
X-80524D01*
X-80026Y39313D01*
X-79026Y38783D01*
Y34200D01*
X-78925Y33693D01*
X-78637Y33263D01*
X-54357Y8983D01*
X-54740Y8254D01*
X-54882Y8094D01*
X-55776D01*
X-56656Y7729D01*
X-57329Y7056D01*
X-57694Y6176D01*
X-58024Y5294D01*
X-58976Y5294D01*
X-59856Y4929D01*
X-60529Y4256D01*
X-60894Y3376D01*
Y2424D01*
X-60529Y1544D01*
X-59856Y871D01*
X-58976Y506D01*
X-58024D01*
X-57144Y871D01*
X-56471Y1544D01*
X-56458Y1575D01*
X-52600D01*
X-52331Y1628D01*
X-51614Y1172D01*
X-51394Y940D01*
Y524D01*
X-51029Y-356D01*
X-50356Y-1029D01*
X-49476Y-1394D01*
X-48524D01*
X-47644Y-1029D01*
X-46971Y-356D01*
X-46606Y524D01*
Y1476D01*
X-46971Y2356D01*
X-47644Y3029D01*
X-48524Y3394D01*
X-48818D01*
X-49232Y4394D01*
X-48863Y4763D01*
X-48575Y5193D01*
X-48474Y5700D01*
Y9100D01*
X-48575Y9607D01*
X-48863Y10037D01*
X-51432Y12606D01*
X-51018Y13606D01*
X-50524D01*
X-49644Y13971D01*
X-48971Y14644D01*
X-48606Y15524D01*
Y16476D01*
X-48971Y17356D01*
X-49644Y18029D01*
X-50524Y18394D01*
X-51476D01*
X-52356Y18029D01*
X-53029Y17356D01*
X-53394Y16476D01*
Y15982D01*
X-54394Y15568D01*
X-55932Y17106D01*
X-55518Y18106D01*
X-55424D01*
X-54544Y18471D01*
X-53871Y19144D01*
X-53506Y20024D01*
Y20976D01*
X-53871Y21856D01*
X-54544Y22529D01*
X-54908Y22680D01*
X-55806Y23124D01*
Y24076D01*
X-56171Y24956D01*
X-56844Y25629D01*
X-57724Y25994D01*
X-58555D01*
X-58871Y26756D01*
X-59544Y27429D01*
X-60206Y27704D01*
Y27776D01*
X-60571Y28656D01*
X-61244Y29329D01*
X-62124Y29694D01*
X-62806D01*
Y30076D01*
X-63171Y30956D01*
X-63844Y31629D01*
X-64724Y31994D01*
X-65676D01*
X-66556Y31629D01*
X-67229Y30956D01*
X-67594Y30076D01*
X-68594Y29768D01*
X-69743Y30917D01*
X-69360Y31646D01*
X-69218Y31806D01*
X-68324D01*
X-67444Y32171D01*
X-66771Y32844D01*
X-66406Y33724D01*
Y34676D01*
X-66771Y35556D01*
X-67444Y36229D01*
X-68324Y36594D01*
X-69276D01*
X-69516Y36494D01*
X-69670Y36431D01*
X-70236Y37278D01*
X-70095Y37420D01*
X-69771Y37744D01*
X-69406Y38624D01*
Y39377D01*
X-69406Y39576D01*
X-68482Y39872D01*
X-68429Y39744D01*
X-67756Y39071D01*
X-66876Y38706D01*
X-65924D01*
X-65044Y39071D01*
X-64371Y39744D01*
X-64106Y40382D01*
X-64006Y40624D01*
X-63095Y41306D01*
X-63024D01*
X-62144Y41671D01*
X-61471Y42344D01*
X-61106Y43224D01*
X-61106Y44176D01*
X-60224Y44506D01*
X-59344Y44871D01*
X-58671Y45544D01*
X-58306Y46424D01*
Y46819D01*
X-58176Y46906D01*
X-57224D01*
X-56344Y47271D01*
X-55671Y47944D01*
X-55306Y48824D01*
Y49776D01*
X-55671Y50656D01*
X-56344Y51329D01*
X-57224Y51694D01*
X-58176D01*
X-59056Y51329D01*
X-59729Y50656D01*
X-60094Y49776D01*
Y49381D01*
X-60224Y49294D01*
X-61176D01*
X-62056Y48929D01*
X-62729Y48256D01*
X-63094Y47376D01*
X-63094Y46424D01*
X-63976Y46094D01*
X-64856Y45729D01*
X-65529Y45056D01*
X-65794Y44418D01*
X-65894Y44176D01*
X-66805Y43494D01*
X-66876D01*
X-67756Y43129D01*
X-68429Y42456D01*
X-68794Y41576D01*
Y40823D01*
X-68794Y40624D01*
X-69718Y40328D01*
X-69771Y40456D01*
X-70444Y41129D01*
X-71324Y41494D01*
X-72276D01*
X-73075Y41163D01*
X-73493Y41311D01*
X-74075Y41625D01*
Y62100D01*
X-74175Y62607D01*
X-74463Y63037D01*
X-89163Y77737D01*
X-89593Y78025D01*
X-90100Y78126D01*
X-108994D01*
X-109202Y79085D01*
X-109203Y79125D01*
X-108536Y79792D01*
X-108171Y80672D01*
Y81624D01*
X-108536Y82504D01*
X-109209Y83177D01*
X-110089Y83542D01*
X-111041D01*
X-111921Y83177D01*
X-112594Y82504D01*
X-112959Y81624D01*
Y80672D01*
X-112594Y79792D01*
X-111928Y79125D01*
X-111928Y79085D01*
X-112137Y78126D01*
X-122111D01*
Y78281D01*
X-122475Y79161D01*
X-122303Y80403D01*
X-102752Y92016D01*
X-102238Y91692D01*
X-101894Y91363D01*
Y90524D01*
X-101529Y89644D01*
X-100856Y88971D01*
X-99976Y88606D01*
X-99024D01*
X-98144Y88971D01*
X-97471Y89644D01*
X-97106Y90524D01*
Y91476D01*
X-97471Y92356D01*
X-98144Y93029D01*
X-98700Y93260D01*
X-98871Y94277D01*
X-98862Y94327D01*
X-92786Y97936D01*
X-92354Y97714D01*
X-91894Y97303D01*
Y96524D01*
X-91529Y95644D01*
X-90856Y94971D01*
X-89976Y94606D01*
X-89024D01*
X-88144Y94971D01*
X-87471Y95644D01*
X-87106Y96524D01*
Y97476D01*
X-87471Y98356D01*
X-88144Y99029D01*
X-88641Y99235D01*
X-88776Y100318D01*
X-83126Y103674D01*
X-82507Y102878D01*
X-82529Y102856D01*
X-82894Y101976D01*
Y101024D01*
X-82669Y100482D01*
X-82356Y99529D01*
X-83029Y98856D01*
X-83394Y97976D01*
Y97024D01*
X-83029Y96144D01*
X-82356Y95471D01*
X-81476Y95106D01*
X-80524D01*
X-79644Y95471D01*
X-78971Y96144D01*
X-78606Y97024D01*
Y97976D01*
X-78831Y98518D01*
X-79144Y99471D01*
X-78471Y100144D01*
X-78106Y101024D01*
Y101976D01*
X-78471Y102856D01*
X-79144Y103529D01*
X-80024Y103894D01*
X-80797D01*
X-81108Y104440D01*
X-81200Y104818D01*
X-68594Y112305D01*
X-67594Y111736D01*
Y111724D01*
X-67229Y110844D01*
X-66556Y110171D01*
X-65676Y109806D01*
X-64737D01*
Y98313D01*
X-53650D01*
Y99028D01*
X-52650Y99521D01*
X-51989Y99014D01*
X-50641Y98455D01*
X-49194Y98265D01*
X-47747Y98455D01*
X-46398Y99014D01*
X-45240Y99902D01*
X-44590Y100750D01*
X-43716Y100245D01*
X-43994Y99576D01*
Y98624D01*
X-43629Y97744D01*
X-43062Y97176D01*
X-43421Y76776D01*
X-43427Y76770D01*
X-43437Y76720D01*
X-43288Y75970D01*
X-43273Y75894D01*
X-43268Y75857D01*
X-43307Y75675D01*
X-43747Y74781D01*
X-44356Y74529D01*
X-45029Y73856D01*
X-45394Y72976D01*
Y72024D01*
X-45029Y71144D01*
X-44356Y70471D01*
X-43476Y70106D01*
X-42524D01*
X-41644Y70471D01*
X-40971Y71144D01*
X-40758Y71659D01*
X-39682Y71990D01*
X-39156Y71452D01*
X-38547Y70827D01*
X-38547Y70816D01*
X-38547Y70816D01*
X-38527Y70786D01*
X-38469Y70748D01*
X-38469Y70748D01*
X-38465Y70748D01*
X-38457Y70740D01*
X-37824Y70152D01*
X-32734Y65411D01*
X-32939Y64332D01*
X-33091Y64276D01*
X-33344Y64529D01*
X-34224Y64894D01*
X-35176D01*
X-36056Y64529D01*
X-36729Y63856D01*
X-37094Y62976D01*
Y62024D01*
X-36729Y61144D01*
X-36056Y60471D01*
X-35176Y60106D01*
X-34224D01*
X-33344Y60471D01*
X-33300Y60515D01*
X-32229Y60544D01*
X-31556Y59871D01*
X-30676Y59506D01*
X-29998D01*
X-29566Y59301D01*
X-29094Y58685D01*
Y58124D01*
X-28729Y57244D01*
X-28056Y56571D01*
X-27176Y56206D01*
X-26224D01*
X-25344Y56571D01*
X-25248Y56666D01*
X-24096Y56665D01*
X-24340Y55743D01*
X-24856Y55529D01*
X-25529Y54856D01*
X-25894Y53976D01*
Y53024D01*
X-25529Y52144D01*
X-24856Y51471D01*
X-23976Y51106D01*
X-23194D01*
Y50924D01*
X-22829Y50044D01*
X-22156Y49371D01*
X-21276Y49006D01*
X-20324D01*
X-20194Y49060D01*
X-19194Y48724D01*
X-18829Y47844D01*
X-18396Y47411D01*
X-18494Y47176D01*
Y46224D01*
X-18129Y45344D01*
X-18021Y45235D01*
X-18294Y44576D01*
Y43624D01*
X-18186Y43365D01*
X-18556Y42129D01*
X-19229Y41456D01*
X-19594Y40576D01*
Y39624D01*
X-19229Y38744D01*
X-18556Y38071D01*
X-17676Y37706D01*
X-16724D01*
X-15844Y38071D01*
X-15171Y38744D01*
X-14254Y38354D01*
X-14494Y37776D01*
X-14494Y36824D01*
X-14129Y35944D01*
X-13456Y35271D01*
X-12576Y34906D01*
X-12560D01*
X-12423Y34785D01*
X-11974Y33906D01*
X-12194Y33376D01*
Y32424D01*
X-11829Y31544D01*
X-11156Y30871D01*
X-10276Y30506D01*
X-9802D01*
X-9661Y29506D01*
X-10264Y29333D01*
X-13484Y27999D01*
X-16534Y26313D01*
X-19376Y24296D01*
X-21974Y21974D01*
X-24117Y19577D01*
X-24845Y19701D01*
X-25160Y19888D01*
X-25167Y19948D01*
X-24971Y20144D01*
X-24606Y21024D01*
Y21976D01*
X-24971Y22856D01*
X-25644Y23529D01*
X-26524Y23894D01*
X-27476D01*
X-28356Y23529D01*
X-29029Y22856D01*
X-29394Y21976D01*
Y21655D01*
X-29456Y21629D01*
X-30129Y20956D01*
X-30494Y20076D01*
Y19124D01*
X-30129Y18244D01*
X-29456Y17571D01*
X-28576Y17206D01*
X-27624D01*
X-27137Y17408D01*
X-26393Y16665D01*
X-26336Y16492D01*
X-27999Y13484D01*
X-29333Y10264D01*
X-30297Y6915D01*
X-30881Y3480D01*
X-31076Y0D01*
X-30881Y-3480D01*
X-30297Y-6915D01*
X-29333Y-10264D01*
X-27999Y-13484D01*
X-26313Y-16534D01*
X-24296Y-19376D01*
X-21974Y-21974D01*
X-19376Y-24296D01*
X-16534Y-26313D01*
X-13484Y-27999D01*
X-10264Y-29333D01*
X-7798Y-30043D01*
X-7292Y-30430D01*
X-7337Y-31199D01*
X-8281Y-31647D01*
X-8699Y-31325D01*
X-10048Y-30767D01*
X-11495Y-30576D01*
X-12942Y-30767D01*
X-14290Y-31325D01*
X-15448Y-32214D01*
X-16337Y-33372D01*
X-16895Y-34720D01*
X-17086Y-36167D01*
Y-37348D01*
X-16895Y-38796D01*
X-16337Y-40144D01*
X-15448Y-41302D01*
X-14290Y-42191D01*
X-12942Y-42749D01*
X-11495Y-42940D01*
X-10048Y-42749D01*
X-8699Y-42191D01*
X-8038Y-41683D01*
X-7038Y-42176D01*
Y-42892D01*
X4048D01*
Y-31674D01*
X4501Y-31464D01*
X5462Y-32120D01*
Y-42892D01*
X16548D01*
Y-42176D01*
X17548Y-41683D01*
X18210Y-42191D01*
X19558Y-42749D01*
X21005Y-42940D01*
X22452Y-42749D01*
X23801Y-42191D01*
X24959Y-41302D01*
X25847Y-40144D01*
X26406Y-38796D01*
X26596Y-37348D01*
Y-36167D01*
X26406Y-34720D01*
X25847Y-33372D01*
X24959Y-32214D01*
X23801Y-31325D01*
X22452Y-30767D01*
X21005Y-30576D01*
X19558Y-30767D01*
X18210Y-31325D01*
X17548Y-31833D01*
X16548Y-31339D01*
Y-30624D01*
X9394D01*
X9252Y-29624D01*
X10264Y-29333D01*
X13484Y-27999D01*
X16534Y-26313D01*
X19376Y-24296D01*
X21974Y-21974D01*
X24296Y-19376D01*
X26313Y-16534D01*
X27206Y-14918D01*
X28206Y-15176D01*
Y-15576D01*
X28571Y-16456D01*
X29244Y-17129D01*
X30124Y-17494D01*
X31076D01*
X31956Y-17129D01*
X32629Y-16456D01*
X32994Y-15576D01*
Y-14624D01*
X32822Y-14209D01*
X32856Y-13229D01*
X33529Y-12556D01*
X33894Y-11676D01*
Y-10724D01*
X33529Y-9844D01*
X32856Y-9171D01*
X31976Y-8806D01*
X31024D01*
X30762Y-8915D01*
X29934Y-8175D01*
X30236Y-7128D01*
X30382Y-7045D01*
X30851Y-6907D01*
X31314Y-6899D01*
X31744Y-7329D01*
X32624Y-7694D01*
X33576D01*
X34456Y-7329D01*
X35129Y-6656D01*
X35494Y-5776D01*
Y-4824D01*
X35129Y-3944D01*
X35556Y-3029D01*
X36229Y-2356D01*
X36594Y-1476D01*
Y-524D01*
X36229Y356D01*
X35556Y1029D01*
X34676Y1394D01*
X33724D01*
X32844Y1029D01*
X32171Y356D01*
X32072Y116D01*
X31060Y288D01*
X30881Y3480D01*
X30297Y6915D01*
X29333Y10264D01*
X27999Y13484D01*
X26313Y16534D01*
X24296Y19376D01*
X21974Y21974D01*
X19376Y24296D01*
X16534Y26313D01*
X13484Y27999D01*
X10264Y29333D01*
X6915Y30297D01*
X3480Y30881D01*
X1492Y30993D01*
X1101Y32016D01*
X1129Y32044D01*
X1494Y32924D01*
Y33876D01*
X1129Y34756D01*
X456Y35429D01*
X-424Y35794D01*
X-1376D01*
X-2256Y35429D01*
X-2929Y34756D01*
X-3294Y33876D01*
Y32924D01*
X-2929Y32044D01*
X-2806Y31920D01*
X-3196Y30897D01*
X-3480Y30881D01*
X-6915Y30297D01*
X-8033Y29975D01*
X-8444Y30871D01*
X-7771Y31544D01*
X-7406Y32424D01*
Y33376D01*
X-7771Y34256D01*
X-8444Y34929D01*
X-9324Y35294D01*
X-9340D01*
X-9477Y35415D01*
X-9926Y36294D01*
X-9706Y36824D01*
Y37776D01*
X-10071Y38656D01*
X-10744Y39329D01*
X-11624Y39694D01*
X-12576D01*
X-13456Y39329D01*
X-14129Y38656D01*
X-15046Y39046D01*
X-14806Y39624D01*
X-14806Y40576D01*
X-14914Y40835D01*
X-14544Y42071D01*
X-13871Y42744D01*
X-13506Y43624D01*
Y44576D01*
X-13871Y45456D01*
X-13979Y45565D01*
X-13706Y46224D01*
Y47176D01*
X-14071Y48056D01*
X-14504Y48489D01*
X-14406Y48724D01*
Y49676D01*
X-14771Y50556D01*
X-15444Y51229D01*
X-16324Y51594D01*
X-17276D01*
X-17406Y51540D01*
X-18406Y51876D01*
X-18771Y52756D01*
X-19444Y53429D01*
X-19629Y53506D01*
X-20048Y56793D01*
X-20049Y56796D01*
X-20048Y56800D01*
X-20049Y56802D01*
X-20104Y56966D01*
X-20185Y57370D01*
X-20671Y58098D01*
X-20738Y58143D01*
X-20483Y59034D01*
X-20415Y59206D01*
X-19924D01*
X-19044Y59571D01*
X-18371Y60244D01*
X-18006Y61124D01*
Y62076D01*
X-18371Y62956D01*
X-19044Y63629D01*
X-19924Y63994D01*
X-20876D01*
X-21756Y63629D01*
X-22429Y62956D01*
X-22794Y62076D01*
Y61422D01*
X-23647Y60932D01*
X-23718Y60916D01*
X-35840Y72205D01*
X-36444Y72870D01*
X-36880Y73248D01*
X-36880Y73248D01*
X-37174Y73508D01*
X-37186Y73520D01*
X-37188Y73523D01*
X-37804Y74271D01*
X-37479Y75249D01*
X-36944Y75471D01*
X-36271Y76144D01*
X-35906Y77024D01*
Y77976D01*
X-36271Y78856D01*
X-36944Y79529D01*
X-37824Y79894D01*
X-38776D01*
X-39516Y79587D01*
X-40088Y79815D01*
X-40507Y80092D01*
X-40207Y97107D01*
X-39571Y97744D01*
X-39206Y98624D01*
Y99576D01*
X-39571Y100456D01*
X-40244Y101129D01*
X-41124Y101494D01*
X-42076D01*
X-42956Y101129D01*
X-43531Y100554D01*
X-44352Y101060D01*
X-44120Y101620D01*
X-43793Y102409D01*
X-43603Y103856D01*
Y105037D01*
X-43793Y106484D01*
X-44352Y107833D01*
X-45240Y108991D01*
X-46398Y109879D01*
X-47747Y110438D01*
X-49194Y110628D01*
X-50641Y110438D01*
X-51989Y109879D01*
X-52650Y109372D01*
X-53650Y109865D01*
Y110580D01*
X-62198D01*
X-62866Y111580D01*
X-62806Y111724D01*
Y112676D01*
X-63171Y113556D01*
X-63677Y114062D01*
X-63725Y114884D01*
X-63661Y115236D01*
X-57586Y118844D01*
X-57032Y118419D01*
X-56059Y118016D01*
X-55014Y117878D01*
X-53970Y118016D01*
X-53869Y117948D01*
X-53754Y117074D01*
X-53351Y116101D01*
X-52709Y115266D01*
X-51874Y114625D01*
X-50901Y114222D01*
X-49856Y114084D01*
X-48812Y114222D01*
X-46880Y114739D01*
X-45907Y115142D01*
X-45072Y115783D01*
X-44431Y116619D01*
X-44028Y117592D01*
X-43890Y118636D01*
X-44028Y119681D01*
X-44431Y120653D01*
X-45072Y121489D01*
X-45907Y122130D01*
X-46880Y122533D01*
X-47925Y122671D01*
X-48969Y122533D01*
X-49070Y122601D01*
X-49185Y123475D01*
X-49561Y124383D01*
X-49578Y124481D01*
X-49205Y125590D01*
X-49000Y125675D01*
X-48373Y126156D01*
X-47892Y126783D01*
X-47590Y127512D01*
X-47487Y128296D01*
X-47524Y128579D01*
X-51349Y127554D01*
X-51479Y128037D01*
X-51962Y127907D01*
X-52745Y130830D01*
D02*
G37*
G36*
X-224Y116394D02*
X-1176D01*
X-2056Y116029D01*
X-2729Y115356D01*
X-3094Y114476D01*
Y113524D01*
X-2729Y112644D01*
X-2056Y111971D01*
X-1870Y111894D01*
X-2069Y110894D01*
X-2276D01*
X-3156Y110529D01*
X-3829Y109856D01*
X-4194Y108976D01*
Y108024D01*
X-3829Y107144D01*
X-3156Y106471D01*
X-2276Y106106D01*
X-1324D01*
X-444Y106471D01*
X229Y107144D01*
X594Y108024D01*
Y108976D01*
X229Y109856D01*
X-444Y110529D01*
X-630Y110606D01*
X-431Y111606D01*
X-224D01*
X656Y111971D01*
X1329Y112644D01*
X1694Y113524D01*
Y114476D01*
X1329Y115356D01*
X656Y116029D01*
X-224Y116394D01*
D02*
G37*
G36*
X-28724Y110594D02*
X-29676D01*
X-30556Y110229D01*
X-31229Y109556D01*
X-31594Y108676D01*
Y107724D01*
X-31229Y106844D01*
X-30556Y106171D01*
X-29676Y105806D01*
X-28724D01*
X-27844Y106171D01*
X-27171Y106844D01*
X-26806Y107724D01*
Y108676D01*
X-27171Y109556D01*
X-27844Y110229D01*
X-28724Y110594D01*
D02*
G37*
G36*
X7476Y109894D02*
X6524D01*
X5644Y109529D01*
X4971Y108856D01*
X4606Y107976D01*
Y107024D01*
X4971Y106144D01*
X5644Y105471D01*
X6524Y105106D01*
X7476D01*
X8356Y105471D01*
X9029Y106144D01*
X9394Y107024D01*
Y107976D01*
X9029Y108856D01*
X8356Y109529D01*
X7476Y109894D01*
D02*
G37*
G36*
X35276Y106994D02*
X34324D01*
X33444Y106629D01*
X32771Y105956D01*
X32406Y105076D01*
Y104124D01*
X32771Y103244D01*
X33444Y102571D01*
X34324Y102206D01*
X35276D01*
X36156Y102571D01*
X36829Y103244D01*
X37194Y104124D01*
Y105076D01*
X36829Y105956D01*
X36156Y106629D01*
X35276Y106994D01*
D02*
G37*
G36*
X62231Y120182D02*
X60784Y119991D01*
X59435Y119433D01*
X58277Y118544D01*
X57389Y117386D01*
X56798Y116363D01*
X56240Y115015D01*
X56049Y113568D01*
X56240Y112121D01*
X56798Y110772D01*
X57687Y109614D01*
X58845Y108726D01*
X60193Y108167D01*
X61640Y107977D01*
X62467Y108085D01*
X63086Y107158D01*
X62728Y106539D01*
X72329Y100995D01*
X78463Y111619D01*
X68862Y117163D01*
X68504Y116543D01*
X67392Y116616D01*
X67073Y117386D01*
X66184Y118544D01*
X65026Y119433D01*
X63678Y119991D01*
X62231Y120182D01*
D02*
G37*
G36*
X33476Y101094D02*
X32524D01*
X31644Y100729D01*
X30971Y100056D01*
X30606Y99176D01*
Y98224D01*
X30971Y97344D01*
X31644Y96671D01*
X32524Y96306D01*
X33476D01*
X34356Y96671D01*
X35029Y97344D01*
X35394Y98224D01*
Y99176D01*
X35029Y100056D01*
X34356Y100729D01*
X33476Y101094D01*
D02*
G37*
G36*
X40376Y97794D02*
X39424D01*
X38544Y97429D01*
X37871Y96756D01*
X37506Y95876D01*
Y94924D01*
X37871Y94044D01*
X38544Y93371D01*
X39424Y93006D01*
X40376D01*
X41256Y93371D01*
X41929Y94044D01*
X42294Y94924D01*
Y95876D01*
X41929Y96756D01*
X41256Y97429D01*
X40376Y97794D01*
D02*
G37*
G36*
X-62524Y96294D02*
X-63476D01*
X-64356Y95929D01*
X-65029Y95256D01*
X-65394Y94376D01*
Y93424D01*
X-65029Y92544D01*
X-64356Y91871D01*
X-63476Y91506D01*
X-62524D01*
X-61644Y91871D01*
X-60971Y92544D01*
X-60606Y93424D01*
Y94376D01*
X-60971Y95256D01*
X-61644Y95929D01*
X-62524Y96294D01*
D02*
G37*
G36*
X-87524Y91394D02*
X-88476D01*
X-89356Y91029D01*
X-90029Y90356D01*
X-90394Y89476D01*
Y88524D01*
X-90029Y87644D01*
X-89356Y86971D01*
X-88476Y86606D01*
X-87524D01*
X-86644Y86971D01*
X-85971Y87644D01*
X-85606Y88524D01*
Y89476D01*
X-85971Y90356D01*
X-86644Y91029D01*
X-87524Y91394D01*
D02*
G37*
G36*
X68576Y88494D02*
X67624D01*
X66744Y88129D01*
X66071Y87456D01*
X65706Y86576D01*
Y85624D01*
X66071Y84744D01*
X66744Y84071D01*
X67624Y83706D01*
X68576D01*
X69456Y84071D01*
X70129Y84744D01*
X70494Y85624D01*
Y86576D01*
X70129Y87456D01*
X69456Y88129D01*
X68576Y88494D01*
D02*
G37*
G36*
X-101524Y87894D02*
X-102476D01*
X-103356Y87529D01*
X-104029Y86856D01*
X-104394Y85976D01*
Y85024D01*
X-104029Y84144D01*
X-103356Y83471D01*
X-102476Y83106D01*
X-102392Y82980D01*
X-102394Y82976D01*
Y82024D01*
X-102029Y81144D01*
X-101356Y80471D01*
X-100476Y80106D01*
X-99524D01*
X-98644Y80471D01*
X-97971Y81144D01*
X-97606Y82024D01*
Y82976D01*
X-97971Y83856D01*
X-98644Y84529D01*
X-99524Y84894D01*
X-99608Y85020D01*
X-99606Y85024D01*
Y85976D01*
X-99971Y86856D01*
X-100644Y87529D01*
X-101524Y87894D01*
D02*
G37*
G36*
X-29324Y83894D02*
X-30276D01*
X-31156Y83529D01*
X-31829Y82856D01*
X-32194Y81976D01*
Y81024D01*
X-31829Y80144D01*
X-31156Y79471D01*
X-30276Y79106D01*
X-29324D01*
X-28444Y79471D01*
X-27771Y80144D01*
X-27406Y81024D01*
Y81976D01*
X-27771Y82856D01*
X-28444Y83529D01*
X-29324Y83894D01*
D02*
G37*
G36*
X66076Y83194D02*
X65124D01*
X64244Y82829D01*
X63571Y82156D01*
X63206Y81276D01*
Y80324D01*
X63571Y79444D01*
X64244Y78771D01*
X65124Y78406D01*
X66076D01*
X66956Y78771D01*
X67629Y79444D01*
X67994Y80324D01*
Y81276D01*
X67629Y82156D01*
X66956Y82829D01*
X66076Y83194D01*
D02*
G37*
G36*
X-524Y82994D02*
X-1476D01*
X-2356Y82629D01*
X-3029Y81956D01*
X-3394Y81076D01*
Y80124D01*
X-3029Y79244D01*
X-2356Y78571D01*
X-1476Y78206D01*
X-524D01*
X356Y78571D01*
X1029Y79244D01*
X1394Y80124D01*
Y81076D01*
X1029Y81956D01*
X356Y82629D01*
X-524Y82994D01*
D02*
G37*
G36*
X-47024Y79394D02*
X-47976D01*
X-48856Y79029D01*
X-49529Y78356D01*
X-49537Y78337D01*
X-50644Y78029D01*
X-50662Y78036D01*
X-51524Y78394D01*
X-52476D01*
X-53356Y78029D01*
X-53930Y77456D01*
X-54500Y77401D01*
X-55070Y77456D01*
X-55644Y78029D01*
X-56524Y78394D01*
X-57476D01*
X-58356Y78029D01*
X-59029Y77356D01*
X-59394Y76476D01*
Y75524D01*
X-59029Y74644D01*
X-58356Y73971D01*
X-57476Y73606D01*
X-56524D01*
X-55644Y73971D01*
X-55070Y74544D01*
X-54500Y74599D01*
X-53930Y74544D01*
X-53356Y73971D01*
X-52476Y73606D01*
X-51524D01*
X-50644Y73971D01*
X-49971Y74644D01*
X-49963Y74663D01*
X-48856Y74971D01*
X-48838Y74963D01*
X-47976Y74606D01*
X-47024D01*
X-46144Y74971D01*
X-45471Y75644D01*
X-45106Y76524D01*
Y77476D01*
X-45471Y78356D01*
X-46144Y79029D01*
X-47024Y79394D01*
D02*
G37*
G36*
X-85024Y82394D02*
X-85976D01*
X-86856Y82029D01*
X-87529Y81356D01*
X-87894Y80476D01*
Y79524D01*
X-87529Y78644D01*
X-86856Y77971D01*
X-85976Y77606D01*
X-85024D01*
X-84144Y77971D01*
X-83471Y78644D01*
X-83106Y79524D01*
Y80476D01*
X-83471Y81356D01*
X-84144Y82029D01*
X-85024Y82394D01*
D02*
G37*
G36*
X70976Y78694D02*
X70024D01*
X69144Y78329D01*
X68471Y77656D01*
X68106Y76776D01*
Y75824D01*
X68471Y74944D01*
X69144Y74271D01*
X70024Y73906D01*
X70976D01*
X71856Y74271D01*
X72529Y74944D01*
X72894Y75824D01*
Y76776D01*
X72529Y77656D01*
X71856Y78329D01*
X70976Y78694D01*
D02*
G37*
G36*
X-64524Y77894D02*
X-65476D01*
X-66356Y77529D01*
X-67029Y76856D01*
X-67394Y75976D01*
Y75024D01*
X-67029Y74144D01*
X-66356Y73471D01*
X-65476Y73106D01*
X-64524D01*
X-63644Y73471D01*
X-62971Y74144D01*
X-62606Y75024D01*
Y75976D01*
X-62971Y76856D01*
X-63644Y77529D01*
X-64524Y77894D01*
D02*
G37*
G36*
X96513Y94423D02*
X95065Y94233D01*
X93717Y93674D01*
X92559Y92786D01*
X91724Y91950D01*
X90835Y90792D01*
X90277Y89444D01*
X90086Y87997D01*
X90277Y86550D01*
X90835Y85201D01*
X91724Y84043D01*
X92882Y83155D01*
X94230Y82596D01*
X95056Y82487D01*
X95415Y81432D01*
X94909Y80926D01*
X102749Y73086D01*
X111423Y81761D01*
X103584Y89600D01*
X103078Y89094D01*
X102022Y89453D01*
X101913Y90279D01*
X101355Y91628D01*
X100466Y92786D01*
X99308Y93674D01*
X97960Y94233D01*
X96513Y94423D01*
D02*
G37*
G36*
X26876Y74194D02*
X25924D01*
X25044Y73829D01*
X24371Y73156D01*
X24006Y72276D01*
Y71324D01*
X24371Y70444D01*
X25044Y69771D01*
X25924Y69406D01*
X26876D01*
X27756Y69771D01*
X28429Y70444D01*
X28794Y71324D01*
Y72276D01*
X28429Y73156D01*
X27756Y73829D01*
X26876Y74194D01*
D02*
G37*
G36*
X-28124Y73094D02*
X-29076D01*
X-29956Y72729D01*
X-30629Y72056D01*
X-30994Y71176D01*
Y70224D01*
X-30629Y69344D01*
X-29956Y68671D01*
X-29076Y68306D01*
X-28124D01*
X-27244Y68671D01*
X-26571Y69344D01*
X-26206Y70224D01*
Y71176D01*
X-26571Y72056D01*
X-27244Y72729D01*
X-28124Y73094D01*
D02*
G37*
G36*
X-65524Y69894D02*
X-66476D01*
X-67356Y69529D01*
X-68029Y68856D01*
X-68394Y67976D01*
Y67024D01*
X-68029Y66144D01*
X-67356Y65471D01*
X-66476Y65106D01*
X-65524D01*
X-64644Y65471D01*
X-63971Y66144D01*
X-63606Y67024D01*
Y67976D01*
X-63971Y68856D01*
X-64644Y69529D01*
X-65524Y69894D01*
D02*
G37*
G36*
X-55724Y69794D02*
X-56676D01*
X-57556Y69429D01*
X-58229Y68756D01*
X-58594Y67876D01*
Y66924D01*
X-58229Y66044D01*
X-57556Y65371D01*
X-56676Y65006D01*
X-55724D01*
X-54844Y65371D01*
X-54171Y66044D01*
X-53806Y66924D01*
Y67876D01*
X-54171Y68756D01*
X-54844Y69429D01*
X-55724Y69794D01*
D02*
G37*
G36*
X-13924Y67594D02*
X-14876D01*
X-15756Y67229D01*
X-16429Y66556D01*
X-16794Y65676D01*
Y64724D01*
X-16429Y63844D01*
X-15756Y63171D01*
X-14876Y62806D01*
X-13924D01*
X-13044Y63171D01*
X-12371Y63844D01*
X-12006Y64724D01*
Y65676D01*
X-12371Y66556D01*
X-13044Y67229D01*
X-13924Y67594D01*
D02*
G37*
G36*
X-60324Y65794D02*
X-61276D01*
X-62156Y65429D01*
X-62829Y64756D01*
X-63194Y63876D01*
Y62924D01*
X-62829Y62044D01*
X-63596Y61481D01*
X-63844Y61729D01*
X-64724Y62094D01*
X-65676D01*
X-66556Y61729D01*
X-67229Y61056D01*
X-67594Y60176D01*
Y59224D01*
X-67747Y58994D01*
X-67976D01*
X-68856Y58629D01*
X-69529Y57956D01*
X-69894Y57076D01*
Y56124D01*
X-69529Y55244D01*
X-68856Y54571D01*
X-67976Y54206D01*
X-67024D01*
X-66144Y54571D01*
X-65471Y55244D01*
X-65106Y56124D01*
Y57076D01*
X-64952Y57306D01*
X-64724D01*
X-63844Y57671D01*
X-63171Y58344D01*
X-62806Y59224D01*
Y60176D01*
X-63171Y61056D01*
X-62404Y61619D01*
X-62156Y61371D01*
X-61276Y61006D01*
X-60324D01*
X-59444Y61371D01*
X-58771Y62044D01*
X-58406Y62924D01*
Y63876D01*
X-58771Y64756D01*
X-59444Y65429D01*
X-60324Y65794D01*
D02*
G37*
G36*
X93976Y60994D02*
X93024D01*
X92144Y60629D01*
X91471Y59956D01*
X91106Y59076D01*
Y58701D01*
X91087Y58675D01*
X90110Y58114D01*
X89676Y58294D01*
X88724D01*
X87844Y57929D01*
X87171Y57256D01*
X86806Y56376D01*
Y55424D01*
X87171Y54544D01*
X87844Y53871D01*
X88724Y53506D01*
X89676D01*
X90556Y53871D01*
X91229Y54544D01*
X91594Y55424D01*
Y55799D01*
X91613Y55826D01*
X92589Y56386D01*
X93024Y56206D01*
X93976D01*
X94856Y56571D01*
X95529Y57244D01*
X95894Y58124D01*
Y59076D01*
X95529Y59956D01*
X94856Y60629D01*
X93976Y60994D01*
D02*
G37*
G36*
X50876Y58994D02*
X49924D01*
X49044Y58629D01*
X48371Y57956D01*
X48006Y57076D01*
Y56124D01*
X48371Y55244D01*
X49044Y54571D01*
X49924Y54206D01*
X50876D01*
X51756Y54571D01*
X52429Y55244D01*
X52794Y56124D01*
Y57076D01*
X52429Y57956D01*
X51756Y58629D01*
X50876Y58994D01*
D02*
G37*
G36*
X-14224Y57194D02*
X-15176D01*
X-16056Y56829D01*
X-16729Y56156D01*
X-17094Y55276D01*
Y54324D01*
X-16729Y53444D01*
X-16056Y52771D01*
X-15176Y52406D01*
X-14224D01*
X-13344Y52771D01*
X-12671Y53444D01*
X-12306Y54324D01*
Y55276D01*
X-12671Y56156D01*
X-13344Y56829D01*
X-14224Y57194D01*
D02*
G37*
G36*
X-50324Y61394D02*
X-51276D01*
X-52156Y61029D01*
X-52829Y60356D01*
X-53194Y59476D01*
Y58524D01*
X-52829Y57644D01*
X-52156Y56971D01*
X-51276Y56606D01*
X-50324D01*
X-49575Y56916D01*
X-49056Y56129D01*
X-49729Y55456D01*
X-50094Y54576D01*
Y54294D01*
X-50276D01*
X-51156Y53929D01*
X-51829Y53256D01*
X-52194Y52376D01*
Y51424D01*
X-51829Y50544D01*
X-51156Y49871D01*
X-50276Y49506D01*
X-49324D01*
X-48444Y49871D01*
X-47771Y50544D01*
X-47406Y51424D01*
Y51706D01*
X-47224D01*
X-46344Y52071D01*
X-45671Y52744D01*
X-45311Y53611D01*
X-44444Y53971D01*
X-43771Y54644D01*
X-43406Y55524D01*
Y56476D01*
X-43771Y57356D01*
X-44444Y58029D01*
X-45324Y58394D01*
X-46276D01*
X-47156Y58029D01*
X-47829Y57356D01*
X-48716Y57775D01*
X-48406Y58524D01*
Y59476D01*
X-48771Y60356D01*
X-49444Y61029D01*
X-50324Y61394D01*
D02*
G37*
G36*
X94176Y52694D02*
X93224D01*
X92344Y52329D01*
X91671Y51656D01*
X91306Y50776D01*
Y49824D01*
X91671Y48944D01*
X92344Y48271D01*
X93224Y47906D01*
X94176D01*
X95056Y48271D01*
X95729Y48944D01*
X96094Y49824D01*
Y50776D01*
X95729Y51656D01*
X95056Y52329D01*
X94176Y52694D01*
D02*
G37*
G36*
X-35424Y51194D02*
X-36376D01*
X-37256Y50829D01*
X-37929Y50156D01*
X-38294Y49276D01*
Y48324D01*
X-38248Y48213D01*
X-39013Y47448D01*
X-39124Y47494D01*
X-40076D01*
X-40956Y47129D01*
X-41629Y46456D01*
X-41994Y45576D01*
Y44624D01*
X-41827Y44222D01*
X-42592Y43457D01*
X-42924Y43594D01*
X-43876D01*
X-44756Y43229D01*
X-45429Y42556D01*
X-45794Y41676D01*
Y40724D01*
X-45656Y40393D01*
X-46422Y39627D01*
X-46824Y39794D01*
X-47776D01*
X-48656Y39429D01*
X-49329Y38756D01*
X-49694Y37876D01*
Y36924D01*
X-49329Y36044D01*
X-48656Y35371D01*
X-47776Y35006D01*
X-46824D01*
X-45944Y35371D01*
X-45271Y36044D01*
X-44906Y36924D01*
Y37876D01*
X-45044Y38208D01*
X-44278Y38973D01*
X-43876Y38806D01*
X-42924D01*
X-42044Y39171D01*
X-41371Y39844D01*
X-41006Y40724D01*
Y41676D01*
X-41173Y42078D01*
X-40407Y42843D01*
X-40076Y42706D01*
X-39124D01*
X-38244Y43071D01*
X-37571Y43744D01*
X-37206Y44624D01*
Y45576D01*
X-37252Y45687D01*
X-36487Y46452D01*
X-36376Y46406D01*
X-35424D01*
X-34544Y46771D01*
X-34500Y46815D01*
X-34356Y46671D01*
X-33476Y46306D01*
X-32524D01*
X-31644Y46671D01*
X-30971Y47344D01*
X-30606Y48224D01*
Y49176D01*
X-30971Y50056D01*
X-31644Y50729D01*
X-32524Y51094D01*
X-33476D01*
X-34356Y50729D01*
X-34400Y50685D01*
X-34544Y50829D01*
X-35424Y51194D01*
D02*
G37*
G36*
X-7824Y45694D02*
X-8776D01*
X-9656Y45329D01*
X-10329Y44656D01*
X-10694Y43776D01*
Y42824D01*
X-10329Y41944D01*
X-9656Y41271D01*
X-8776Y40906D01*
X-7824D01*
X-6944Y41271D01*
X-6271Y41944D01*
X-5906Y42824D01*
Y43776D01*
X-6271Y44656D01*
X-6944Y45329D01*
X-7824Y45694D01*
D02*
G37*
G36*
X-424Y45494D02*
X-1376D01*
X-2256Y45129D01*
X-2929Y44456D01*
X-3294Y43576D01*
Y42624D01*
X-2929Y41744D01*
X-2256Y41071D01*
X-1376Y40706D01*
X-424D01*
X456Y41071D01*
X1129Y41744D01*
X1494Y42624D01*
Y43576D01*
X1129Y44456D01*
X456Y45129D01*
X-424Y45494D01*
D02*
G37*
G36*
X123024Y60178D02*
X121577Y59987D01*
X120229Y59429D01*
X119206Y58838D01*
X118048Y57950D01*
X117159Y56792D01*
X116601Y55443D01*
X116410Y53996D01*
X116601Y52549D01*
X117159Y51201D01*
X118048Y50043D01*
X119206Y49154D01*
X119976Y48835D01*
X120049Y47723D01*
X119429Y47365D01*
X124973Y37764D01*
X135597Y43898D01*
X130053Y53499D01*
X129434Y53141D01*
X128507Y53761D01*
X128616Y54587D01*
X128425Y56034D01*
X127866Y57382D01*
X126978Y58540D01*
X125820Y59429D01*
X124472Y59987D01*
X123024Y60178D01*
D02*
G37*
G36*
X5976Y39494D02*
X5024D01*
X4144Y39129D01*
X3471Y38456D01*
X3106Y37576D01*
Y36624D01*
X3471Y35744D01*
X4144Y35071D01*
X5024Y34706D01*
X5976D01*
X6856Y35071D01*
X7529Y35744D01*
X7894Y36624D01*
Y37576D01*
X7529Y38456D01*
X6856Y39129D01*
X5976Y39494D01*
D02*
G37*
G36*
X70776Y36694D02*
X69824D01*
X68944Y36329D01*
X68271Y35656D01*
X67906Y34776D01*
Y33824D01*
X68271Y32944D01*
X68944Y32271D01*
X69824Y31906D01*
X70776D01*
X71656Y32271D01*
X72329Y32944D01*
X72694Y33824D01*
Y34776D01*
X72329Y35656D01*
X71656Y36329D01*
X70776Y36694D01*
D02*
G37*
G36*
X136297Y34005D02*
X134850Y33814D01*
X133501Y33256D01*
X132343Y32367D01*
X131455Y31209D01*
X131136Y30440D01*
X130023Y30367D01*
X129666Y30986D01*
X120064Y25443D01*
X126198Y14819D01*
X135799Y20362D01*
X135442Y20981D01*
X136061Y21909D01*
X136887Y21800D01*
X138334Y21990D01*
X139683Y22549D01*
X140841Y23437D01*
X141729Y24595D01*
X142288Y25944D01*
X142478Y27391D01*
X142288Y28838D01*
X141729Y30187D01*
X141139Y31209D01*
X140250Y32367D01*
X139092Y33256D01*
X137744Y33814D01*
X136297Y34005D01*
D02*
G37*
G36*
X16476Y33394D02*
X15524D01*
X14644Y33029D01*
X13971Y32356D01*
X13606Y31476D01*
Y30524D01*
X13971Y29644D01*
X14644Y28971D01*
X15524Y28606D01*
X16476D01*
X17202Y28907D01*
X17691Y28674D01*
X18106Y28307D01*
Y27524D01*
X18471Y26644D01*
X19144Y25971D01*
X20024Y25606D01*
X20976D01*
X21856Y25971D01*
X22529Y26644D01*
X22894Y27524D01*
Y28476D01*
X22529Y29356D01*
X21856Y30029D01*
X20976Y30394D01*
X20024D01*
X19298Y30093D01*
X18809Y30326D01*
X18394Y30693D01*
Y31476D01*
X18029Y32356D01*
X17356Y33029D01*
X16476Y33394D01*
D02*
G37*
G36*
X114476Y29894D02*
X113524D01*
X112644Y29529D01*
X111971Y28856D01*
X111606Y27976D01*
Y27024D01*
X111971Y26144D01*
X112644Y25471D01*
X113524Y25106D01*
X114476D01*
X115356Y25471D01*
X116029Y26144D01*
X116394Y27024D01*
Y27976D01*
X116029Y28856D01*
X115356Y29529D01*
X114476Y29894D01*
D02*
G37*
G36*
X108076Y26694D02*
X107124D01*
X106244Y26329D01*
X105571Y25656D01*
X105206Y24776D01*
Y23824D01*
X105571Y22944D01*
X106244Y22271D01*
X107124Y21906D01*
X108076D01*
X108956Y22271D01*
X109629Y22944D01*
X109994Y23824D01*
Y24776D01*
X109629Y25656D01*
X108956Y26329D01*
X108076Y26694D01*
D02*
G37*
G36*
X-31824Y31894D02*
X-32776D01*
X-33656Y31529D01*
X-34329Y30856D01*
X-34694Y29976D01*
Y29024D01*
X-34329Y28144D01*
X-34003Y27818D01*
X-34162Y27360D01*
X-34493Y26894D01*
X-35276D01*
X-36156Y26529D01*
X-36829Y25856D01*
X-37028Y25375D01*
X-37098D01*
X-37978Y25011D01*
X-38651Y24338D01*
X-39016Y23458D01*
Y22506D01*
X-38651Y21626D01*
X-37978Y20952D01*
X-37098Y20588D01*
X-36146D01*
X-35266Y20952D01*
X-34593Y21626D01*
X-34394Y22106D01*
X-34324D01*
X-33444Y22471D01*
X-32771Y23144D01*
X-32406Y24024D01*
Y24976D01*
X-32771Y25856D01*
X-33097Y26182D01*
X-32938Y26640D01*
X-32607Y27106D01*
X-31824D01*
X-30944Y27471D01*
X-30271Y28144D01*
X-29906Y29024D01*
Y29976D01*
X-30271Y30856D01*
X-30944Y31529D01*
X-31824Y31894D01*
D02*
G37*
G36*
X31476Y21394D02*
X30524D01*
X29644Y21029D01*
X28971Y20356D01*
X28606Y19476D01*
Y18524D01*
X28971Y17644D01*
X29644Y16971D01*
X30524Y16606D01*
X31476D01*
X32356Y16971D01*
X33029Y17644D01*
X33394Y18524D01*
Y19476D01*
X33029Y20356D01*
X32356Y21029D01*
X31476Y21394D01*
D02*
G37*
G36*
X37476Y16894D02*
X36524D01*
X35644Y16529D01*
X34971Y15856D01*
X34606Y14976D01*
Y14193D01*
X34191Y13826D01*
X33702Y13593D01*
X32976Y13894D01*
X32024D01*
X31144Y13529D01*
X30471Y12856D01*
X30106Y11976D01*
Y11024D01*
X30471Y10144D01*
X31144Y9471D01*
X32024Y9106D01*
X32976D01*
X33856Y9471D01*
X34529Y10144D01*
X34894Y11024D01*
Y11807D01*
X35309Y12174D01*
X35798Y12407D01*
X36524Y12106D01*
X37476D01*
X38356Y12471D01*
X39029Y13144D01*
X39916Y12724D01*
X39606Y11976D01*
X39606Y11024D01*
X39971Y10144D01*
X40644Y9471D01*
X41524Y9106D01*
X42476D01*
X43356Y9471D01*
X44029Y10144D01*
X44394Y11024D01*
Y11976D01*
X44029Y12856D01*
X43356Y13529D01*
X42476Y13894D01*
X41524D01*
X40644Y13529D01*
X39971Y12856D01*
X39084Y13275D01*
X39394Y14024D01*
X39394Y14976D01*
X39029Y15856D01*
X38356Y16529D01*
X37476Y16894D01*
D02*
G37*
G36*
X109172Y18174D02*
X108219D01*
X107340Y17809D01*
X106666Y17136D01*
X106302Y16256D01*
Y15304D01*
X106666Y14424D01*
X107340Y13751D01*
X108219Y13386D01*
X109172D01*
X110051Y13751D01*
X110725Y14424D01*
X111089Y15304D01*
Y16256D01*
X110725Y17136D01*
X110051Y17809D01*
X109172Y18174D01*
D02*
G37*
G36*
X51676Y12594D02*
X50724D01*
X49844Y12229D01*
X49511Y11896D01*
X49276Y11994D01*
X48324D01*
X47444Y11629D01*
X46771Y10956D01*
X46406Y10076D01*
Y9124D01*
X46771Y8244D01*
X47444Y7571D01*
X48324Y7206D01*
X49276D01*
X49670Y7369D01*
X50263Y7467D01*
X50875Y6876D01*
X50971Y6644D01*
X51644Y5971D01*
X52524Y5606D01*
X53476D01*
X53735Y5714D01*
X54378Y5943D01*
X54942Y5213D01*
X54971Y5144D01*
X55644Y4471D01*
X56524Y4106D01*
X57476D01*
X58356Y4471D01*
X59324Y4091D01*
X59444Y3971D01*
X60324Y3606D01*
X61276D01*
X61428Y3669D01*
X62471Y3644D01*
X63144Y2971D01*
X64024Y2606D01*
X64976D01*
X65856Y2971D01*
X66529Y3644D01*
X66894Y4524D01*
Y5476D01*
X66529Y6356D01*
X66092Y6793D01*
X65850Y7494D01*
X65842Y8117D01*
X66094Y8724D01*
Y9676D01*
X65729Y10556D01*
X65056Y11229D01*
X64176Y11594D01*
X63224D01*
X62344Y11229D01*
X61750Y10635D01*
X61156Y11229D01*
X60276Y11594D01*
X59324D01*
X58803Y11378D01*
X57729Y11356D01*
X57056Y12029D01*
X56176Y12394D01*
X55224D01*
X54344Y12029D01*
X54182Y11868D01*
X53332Y11589D01*
X52897Y11889D01*
X52556Y12229D01*
X51676Y12594D01*
D02*
G37*
G36*
X-32924Y15994D02*
X-33876D01*
X-34756Y15629D01*
X-35429Y14956D01*
X-35794Y14076D01*
Y13124D01*
X-35429Y12244D01*
X-34756Y11571D01*
X-33876Y11206D01*
X-32924D01*
X-32044Y11571D01*
X-31371Y12244D01*
X-31006Y13124D01*
Y14076D01*
X-31371Y14956D01*
X-32044Y15629D01*
X-32924Y15994D01*
D02*
G37*
G36*
X92276Y14194D02*
X91324D01*
X90444Y13829D01*
X89771Y13156D01*
X89406Y12276D01*
Y11324D01*
X89771Y10444D01*
X90444Y9771D01*
X91324Y9406D01*
X92276D01*
X93156Y9771D01*
X93829Y10444D01*
X94194Y11324D01*
Y12276D01*
X93829Y13156D01*
X93156Y13829D01*
X92276Y14194D01*
D02*
G37*
G36*
X139476Y13894D02*
X138524D01*
X137644Y13529D01*
X136971Y12856D01*
X136606Y11976D01*
Y11024D01*
X136971Y10144D01*
X137644Y9471D01*
X138524Y9106D01*
X139476D01*
X140356Y9471D01*
X141029Y10144D01*
X141394Y11024D01*
Y11976D01*
X141029Y12856D01*
X140356Y13529D01*
X139476Y13894D01*
D02*
G37*
G36*
X83876Y13694D02*
X82924D01*
X82044Y13329D01*
X81371Y12656D01*
X81006Y11776D01*
Y10824D01*
X81371Y9944D01*
X82044Y9271D01*
X82924Y8906D01*
X83876D01*
X84756Y9271D01*
X85429Y9944D01*
X85794Y10824D01*
Y11776D01*
X85429Y12656D01*
X84756Y13329D01*
X83876Y13694D01*
D02*
G37*
G36*
X-44024Y11894D02*
X-44976D01*
X-45856Y11529D01*
X-46529Y10856D01*
X-46894Y9976D01*
Y9024D01*
X-46529Y8144D01*
X-45856Y7471D01*
X-44976Y7106D01*
X-44024D01*
X-43144Y7471D01*
X-42471Y8144D01*
X-42106Y9024D01*
Y9976D01*
X-42471Y10856D01*
X-43144Y11529D01*
X-44024Y11894D01*
D02*
G37*
G36*
X-36024Y8894D02*
X-36976D01*
X-37856Y8529D01*
X-38529Y7856D01*
X-38894Y6976D01*
Y6024D01*
X-38529Y5144D01*
X-37856Y4471D01*
X-36976Y4106D01*
X-36024D01*
X-35144Y4471D01*
X-34471Y5144D01*
X-34106Y6024D01*
Y6976D01*
X-34471Y7856D01*
X-35144Y8529D01*
X-36024Y8894D01*
D02*
G37*
G36*
X-130662Y30377D02*
X-138206D01*
Y23227D01*
X-138206Y23227D01*
X-138191Y22228D01*
X-138236Y21881D01*
X-138113Y20948D01*
X-137753Y20078D01*
X-137249Y19421D01*
X-137753Y18763D01*
X-138114Y17893D01*
X-138236Y16960D01*
X-138114Y16027D01*
X-137753Y15157D01*
X-137249Y14499D01*
X-137753Y13841D01*
X-138113Y12972D01*
X-138236Y12039D01*
X-138113Y11105D01*
X-137753Y10236D01*
X-137249Y9578D01*
X-137753Y8920D01*
X-138114Y8050D01*
X-138236Y7117D01*
X-138114Y6184D01*
X-137753Y5314D01*
X-137180Y4568D01*
X-137070Y4483D01*
X-137029Y3856D01*
X-137394Y2976D01*
Y2024D01*
X-137029Y1144D01*
X-136356Y471D01*
X-135476Y106D01*
X-134524D01*
X-133644Y471D01*
X-132971Y1144D01*
X-132606Y2024D01*
Y2976D01*
X-132941Y3785D01*
X-132434Y3995D01*
X-131687Y4568D01*
X-131114Y5314D01*
X-130754Y6184D01*
X-130631Y7117D01*
X-130754Y8050D01*
X-131114Y8920D01*
X-131619Y9578D01*
X-131114Y10236D01*
X-130754Y11105D01*
X-130631Y12039D01*
X-130754Y12972D01*
X-131114Y13841D01*
X-131619Y14499D01*
X-131114Y15157D01*
X-130754Y16027D01*
X-130631Y16960D01*
X-130754Y17893D01*
X-131114Y18763D01*
X-131619Y19420D01*
X-131114Y20078D01*
X-130754Y20948D01*
X-130631Y21881D01*
X-130677Y22228D01*
X-130662Y23227D01*
X-130662Y23227D01*
X-130662Y23227D01*
Y30377D01*
D02*
G37*
G36*
X134976Y3894D02*
X134024D01*
X133144Y3529D01*
X132471Y2856D01*
X132106Y1976D01*
Y1024D01*
X132471Y144D01*
X133144Y-529D01*
X134024Y-894D01*
X134976D01*
X135856Y-529D01*
X136529Y144D01*
X136894Y1024D01*
Y1976D01*
X136529Y2856D01*
X135856Y3529D01*
X134976Y3894D01*
D02*
G37*
G36*
X46600Y-506D02*
X45648D01*
X44768Y-871D01*
X44095Y-1544D01*
X43012Y-1545D01*
X42676Y-1406D01*
X41724D01*
X40844Y-1771D01*
X40171Y-2444D01*
X39806Y-3324D01*
Y-4276D01*
X40171Y-5156D01*
X40844Y-5829D01*
X41724Y-6194D01*
X42676D01*
X42730Y-6171D01*
X43730Y-6676D01*
X44095Y-7556D01*
X44389Y-7850D01*
X44095Y-8144D01*
X43730Y-9024D01*
Y-9976D01*
X44095Y-10856D01*
X44768Y-11529D01*
X45648Y-11894D01*
X46600D01*
X47480Y-11529D01*
X48153Y-10856D01*
X48518Y-9976D01*
Y-9024D01*
X48153Y-8144D01*
X47859Y-7850D01*
X48153Y-7556D01*
X48518Y-6676D01*
Y-5724D01*
X48153Y-4844D01*
X47859Y-4550D01*
X48153Y-4256D01*
X48518Y-3376D01*
Y-2424D01*
X48153Y-1544D01*
X47480Y-871D01*
X46600Y-506D01*
D02*
G37*
G36*
X64076Y-2106D02*
X63124D01*
X62244Y-2471D01*
X61811Y-2904D01*
X61576Y-2806D01*
X60624D01*
X59744Y-3171D01*
X59071Y-3844D01*
X58706Y-4724D01*
Y-5676D01*
X59071Y-6556D01*
X59321Y-6806D01*
X58924Y-7806D01*
X58044Y-8171D01*
X57371Y-8844D01*
X57006Y-9724D01*
Y-10676D01*
X57371Y-11556D01*
X58021Y-12206D01*
X58017Y-12333D01*
X57790Y-13206D01*
X57424D01*
X56544Y-13571D01*
X55871Y-14244D01*
X55506Y-15124D01*
Y-16076D01*
X55871Y-16956D01*
X56221Y-17306D01*
X56182Y-17708D01*
X55944Y-18381D01*
X55244Y-18671D01*
X54571Y-19344D01*
X54206Y-20224D01*
Y-21176D01*
X54571Y-22056D01*
X55244Y-22729D01*
X56124Y-23094D01*
X57076D01*
X57956Y-22729D01*
X58629Y-22056D01*
X58994Y-21176D01*
Y-20224D01*
X58629Y-19344D01*
X58279Y-18994D01*
X58318Y-18592D01*
X58556Y-17919D01*
X59256Y-17629D01*
X59929Y-16956D01*
X60294Y-16076D01*
Y-15124D01*
X59929Y-14244D01*
X59279Y-13594D01*
X59283Y-13467D01*
X59510Y-12594D01*
X59876D01*
X60756Y-12229D01*
X61429Y-11556D01*
X61794Y-10676D01*
Y-9724D01*
X61429Y-8844D01*
X61179Y-8594D01*
X61576Y-7594D01*
X62456Y-7229D01*
X62889Y-6796D01*
X63124Y-6894D01*
X64076D01*
X64956Y-6529D01*
X65629Y-5856D01*
X65994Y-4976D01*
Y-4024D01*
X65629Y-3144D01*
X64956Y-2471D01*
X64076Y-2106D01*
D02*
G37*
G36*
X81176Y-1206D02*
X80224D01*
X79344Y-1571D01*
X78671Y-2244D01*
X78306Y-3124D01*
Y-4076D01*
X78671Y-4956D01*
X79344Y-5629D01*
X80224Y-5994D01*
X81176D01*
X82056Y-5629D01*
X82729Y-4956D01*
X83094Y-4076D01*
Y-3124D01*
X82729Y-2244D01*
X82056Y-1571D01*
X81176Y-1206D01*
D02*
G37*
G36*
X113576Y-2706D02*
X112624D01*
X111744Y-3071D01*
X111071Y-3744D01*
X110706Y-4624D01*
Y-5576D01*
X111071Y-6456D01*
X111744Y-7129D01*
X112624Y-7494D01*
X113576D01*
X114456Y-7129D01*
X115129Y-6456D01*
X115494Y-5576D01*
Y-4624D01*
X115129Y-3744D01*
X114456Y-3071D01*
X113576Y-2706D01*
D02*
G37*
G36*
X-56818Y-8935D02*
X-57770D01*
X-58650Y-9299D01*
X-59323Y-9972D01*
X-59688Y-10852D01*
Y-11804D01*
X-59323Y-12684D01*
X-58650Y-13358D01*
X-57770Y-13722D01*
X-56818D01*
X-55938Y-13358D01*
X-55265Y-12684D01*
X-54900Y-11804D01*
Y-10852D01*
X-55265Y-9972D01*
X-55938Y-9299D01*
X-56818Y-8935D01*
D02*
G37*
G36*
X100958Y-13350D02*
X100458D01*
Y-15876D01*
X103918D01*
X103881Y-15593D01*
X103578Y-14863D01*
X103097Y-14237D01*
X102471Y-13756D01*
X101741Y-13453D01*
X100958Y-13350D01*
D02*
G37*
G36*
X76676Y-5506D02*
X75724D01*
X74844Y-5871D01*
X74171Y-6544D01*
X73806Y-7424D01*
Y-8104D01*
X73644Y-8171D01*
X72971Y-8844D01*
X72606Y-9724D01*
Y-10676D01*
X71920Y-11498D01*
X71744Y-11571D01*
X71071Y-12244D01*
X70706Y-13124D01*
Y-14076D01*
X71071Y-14956D01*
X71744Y-15629D01*
X72624Y-15994D01*
X73576D01*
X74456Y-15629D01*
X75129Y-14956D01*
X75494Y-14076D01*
Y-13124D01*
X76180Y-12302D01*
X76356Y-12229D01*
X77029Y-11556D01*
X77394Y-10676D01*
Y-9996D01*
X77556Y-9929D01*
X78229Y-9256D01*
X78594Y-8376D01*
Y-7424D01*
X78229Y-6544D01*
X77556Y-5871D01*
X76676Y-5506D01*
D02*
G37*
G36*
X138976Y-11606D02*
X138024D01*
X137144Y-11971D01*
X136471Y-12644D01*
X136106Y-13524D01*
Y-14476D01*
X136471Y-15356D01*
X137144Y-16029D01*
X138024Y-16394D01*
X138976D01*
X139856Y-16029D01*
X140529Y-15356D01*
X140894Y-14476D01*
Y-13524D01*
X140529Y-12644D01*
X139856Y-11971D01*
X138976Y-11606D01*
D02*
G37*
G36*
X126476Y-11106D02*
X125524D01*
X124644Y-11471D01*
X123971Y-12144D01*
X123606Y-13024D01*
Y-13976D01*
X123971Y-14856D01*
X124644Y-15529D01*
X125524Y-15894D01*
X126476D01*
X127356Y-15529D01*
X128029Y-14856D01*
X128146Y-14573D01*
X128473Y-14540D01*
X129188Y-14672D01*
X129471Y-15356D01*
X130144Y-16029D01*
X131024Y-16394D01*
X131976D01*
X132856Y-16029D01*
X133529Y-15356D01*
X133894Y-14476D01*
Y-13524D01*
X133529Y-12644D01*
X132856Y-11971D01*
X131976Y-11606D01*
X131024D01*
X130144Y-11971D01*
X129471Y-12644D01*
X129354Y-12927D01*
X129027Y-12960D01*
X128312Y-12828D01*
X128029Y-12144D01*
X127356Y-11471D01*
X126476Y-11106D01*
D02*
G37*
G36*
X144476Y-14106D02*
X143524D01*
X142644Y-14471D01*
X141971Y-15144D01*
X141606Y-16024D01*
Y-16976D01*
X141971Y-17856D01*
X142644Y-18529D01*
X143524Y-18894D01*
X144476D01*
X145356Y-18529D01*
X146029Y-17856D01*
X146394Y-16976D01*
Y-16024D01*
X146029Y-15144D01*
X145356Y-14471D01*
X144476Y-14106D01*
D02*
G37*
G36*
X124976Y-17606D02*
X124024D01*
X123144Y-17971D01*
X122471Y-18644D01*
X122106Y-19524D01*
Y-20476D01*
X122471Y-21356D01*
X123144Y-22029D01*
X124024Y-22394D01*
X124976D01*
X125856Y-22029D01*
X126529Y-21356D01*
X126894Y-20476D01*
Y-19524D01*
X126529Y-18644D01*
X125856Y-17971D01*
X124976Y-17606D01*
D02*
G37*
G36*
X-36909Y-3909D02*
X-38091D01*
X-39538Y-4099D01*
X-40886Y-4658D01*
X-42044Y-5547D01*
X-42933Y-6704D01*
X-43491Y-8053D01*
X-43682Y-9500D01*
X-43491Y-10947D01*
X-42933Y-12296D01*
X-42425Y-12957D01*
X-42919Y-13957D01*
X-43634D01*
Y-25043D01*
X-31366D01*
Y-13957D01*
X-32081D01*
X-32575Y-12957D01*
X-32067Y-12296D01*
X-31509Y-10947D01*
X-31318Y-9500D01*
X-31509Y-8053D01*
X-32067Y-6704D01*
X-32956Y-5547D01*
X-34114Y-4658D01*
X-35462Y-4099D01*
X-36909Y-3909D01*
D02*
G37*
G36*
X125976Y-24106D02*
X125024D01*
X124144Y-24471D01*
X123471Y-25144D01*
X123106Y-26024D01*
Y-26631D01*
X122106Y-26830D01*
X122029Y-26644D01*
X121356Y-25971D01*
X120476Y-25606D01*
X119524D01*
X118644Y-25971D01*
X117971Y-26644D01*
X117606Y-27524D01*
Y-28476D01*
X117971Y-29356D01*
X118644Y-30029D01*
X119524Y-30394D01*
X120476D01*
X121356Y-30029D01*
X122029Y-29356D01*
X122394Y-28476D01*
Y-27869D01*
X123394Y-27670D01*
X123471Y-27856D01*
X124144Y-28529D01*
X124870Y-28830D01*
X125130Y-29430D01*
X125221Y-29894D01*
X124971Y-30144D01*
X124606Y-31024D01*
Y-31976D01*
X124867Y-32606D01*
X124527Y-33357D01*
X124307Y-33606D01*
X124024D01*
X123144Y-33971D01*
X122471Y-34644D01*
X122106Y-35524D01*
Y-36307D01*
X121691Y-36674D01*
X121202Y-36907D01*
X120476Y-36606D01*
X119524D01*
X118959Y-36840D01*
X118393Y-35992D01*
X118529Y-35856D01*
X118894Y-34976D01*
Y-34024D01*
X118529Y-33144D01*
X117856Y-32471D01*
X116976Y-32106D01*
X116024D01*
X115144Y-32471D01*
X114471Y-33144D01*
X114106Y-34024D01*
Y-34976D01*
X114471Y-35856D01*
X115144Y-36529D01*
X116024Y-36894D01*
X116976D01*
X117541Y-36660D01*
X118107Y-37508D01*
X117971Y-37644D01*
X117606Y-38524D01*
Y-39476D01*
X117971Y-40356D01*
X118644Y-41029D01*
X119524Y-41394D01*
X120476D01*
X121356Y-41029D01*
X122029Y-40356D01*
X122394Y-39476D01*
Y-38693D01*
X122809Y-38326D01*
X123298Y-38093D01*
X124024Y-38394D01*
X124976D01*
X125856Y-38029D01*
X126529Y-37356D01*
X126894Y-36476D01*
Y-35524D01*
X126633Y-34894D01*
X126973Y-34143D01*
X127193Y-33894D01*
X127476D01*
X128356Y-33529D01*
X129029Y-32856D01*
X129394Y-31976D01*
Y-31024D01*
X129029Y-30144D01*
X128356Y-29471D01*
X127630Y-29170D01*
X127370Y-28570D01*
X127279Y-28106D01*
X127529Y-27856D01*
X127894Y-26976D01*
Y-26024D01*
X127529Y-25144D01*
X126856Y-24471D01*
X125976Y-24106D01*
D02*
G37*
G36*
X-134924Y-22306D02*
X-135876D01*
X-136756Y-22671D01*
X-137429Y-23344D01*
X-137794Y-24224D01*
Y-25176D01*
X-137429Y-26056D01*
X-136756Y-26729D01*
X-135876Y-27094D01*
X-134924D01*
X-134044Y-26729D01*
X-133371Y-26056D01*
X-133006Y-25176D01*
Y-24224D01*
X-133371Y-23344D01*
X-134044Y-22671D01*
X-134924Y-22306D01*
D02*
G37*
G36*
X-128524Y-23106D02*
X-129476D01*
X-130356Y-23471D01*
X-131029Y-24144D01*
X-131394Y-25024D01*
Y-25976D01*
X-131029Y-26856D01*
X-130356Y-27529D01*
X-129476Y-27894D01*
X-128524D01*
X-127644Y-27529D01*
X-126971Y-26856D01*
X-126606Y-25976D01*
Y-25024D01*
X-126971Y-24144D01*
X-127644Y-23471D01*
X-128524Y-23106D01*
D02*
G37*
G36*
X110976Y-24106D02*
X110024D01*
X109144Y-24471D01*
X108471Y-25144D01*
X108106Y-26024D01*
Y-26976D01*
X108471Y-27856D01*
X109144Y-28529D01*
X110024Y-28894D01*
X110976D01*
X111856Y-28529D01*
X112529Y-27856D01*
X112894Y-26976D01*
Y-26024D01*
X112529Y-25144D01*
X111856Y-24471D01*
X110976Y-24106D01*
D02*
G37*
G36*
X27476D02*
X26524D01*
X25644Y-24471D01*
X24971Y-25144D01*
X24606Y-26024D01*
Y-26976D01*
X24971Y-27856D01*
X25644Y-28529D01*
X26524Y-28894D01*
X27476D01*
X28356Y-28529D01*
X29029Y-27856D01*
X29394Y-26976D01*
Y-26024D01*
X29029Y-25144D01*
X28356Y-24471D01*
X27476Y-24106D01*
D02*
G37*
G36*
X83276Y-22406D02*
X82324D01*
X81444Y-22771D01*
X80771Y-23444D01*
X80406Y-24324D01*
Y-25209D01*
X80271Y-25344D01*
X79906Y-26224D01*
Y-27176D01*
X80271Y-28056D01*
X80944Y-28729D01*
X81824Y-29094D01*
X82776D01*
X83656Y-28729D01*
X84329Y-28056D01*
X84694Y-27176D01*
Y-26291D01*
X84829Y-26156D01*
X85194Y-25276D01*
Y-24324D01*
X84829Y-23444D01*
X84156Y-22771D01*
X83276Y-22406D01*
D02*
G37*
G36*
X99458Y-13350D02*
X98958D01*
X98175Y-13453D01*
X97445Y-13756D01*
X96818Y-14237D01*
X96337Y-14863D01*
X96035Y-15593D01*
X95932Y-16376D01*
X95073Y-17342D01*
X94958D01*
X93914Y-17479D01*
X92940Y-17882D01*
X92105Y-18523D01*
X91464Y-19359D01*
X91061Y-20332D01*
X90923Y-21376D01*
X91061Y-22421D01*
X91464Y-23393D01*
X92105Y-24229D01*
X92940Y-24870D01*
X93914Y-25273D01*
X94057Y-25292D01*
X94923Y-26376D01*
X95061Y-27420D01*
X95464Y-28394D01*
X96105Y-29229D01*
X96940Y-29870D01*
X97913Y-30273D01*
X98958Y-30411D01*
X100958D01*
X102002Y-30273D01*
X102975Y-29870D01*
X103811Y-29229D01*
X104452Y-28394D01*
X104855Y-27420D01*
X104992Y-26376D01*
X104855Y-25332D01*
X104452Y-24359D01*
X103811Y-23523D01*
X102975Y-22882D01*
X102002Y-22479D01*
X101858Y-22460D01*
X100992Y-21376D01*
X100864Y-20402D01*
X100873Y-20303D01*
X101521Y-19328D01*
X101741Y-19299D01*
X102471Y-18997D01*
X103097Y-18516D01*
X103578Y-17889D01*
X103881Y-17159D01*
X103918Y-16876D01*
X99958D01*
Y-16376D01*
X99458D01*
Y-13350D01*
D02*
G37*
G36*
X74776Y-18106D02*
X73824D01*
X72944Y-18471D01*
X72271Y-19144D01*
X71906Y-20024D01*
Y-20976D01*
X72271Y-21856D01*
X72419Y-22004D01*
X72168Y-23167D01*
X71866Y-23292D01*
X71192Y-23966D01*
X70828Y-24845D01*
Y-25798D01*
X71192Y-26677D01*
X71746Y-27231D01*
X71387Y-28098D01*
Y-29050D01*
X71751Y-29930D01*
X72425Y-30603D01*
X73304Y-30967D01*
X74257D01*
X75137Y-30603D01*
X75810Y-29930D01*
X76174Y-29050D01*
Y-28098D01*
X75810Y-27218D01*
X75256Y-26664D01*
X75615Y-25798D01*
Y-24845D01*
X75251Y-23966D01*
X75103Y-23818D01*
X75354Y-22654D01*
X75656Y-22529D01*
X76329Y-21856D01*
X76694Y-20976D01*
Y-20024D01*
X76329Y-19144D01*
X75656Y-18471D01*
X74776Y-18106D01*
D02*
G37*
G36*
X110476Y-30106D02*
X109524D01*
X108644Y-30471D01*
X107971Y-31144D01*
X107606Y-32024D01*
Y-32976D01*
X107971Y-33856D01*
X108644Y-34529D01*
X109524Y-34894D01*
X110476D01*
X111356Y-34529D01*
X112029Y-33856D01*
X112394Y-32976D01*
Y-32024D01*
X112029Y-31144D01*
X111356Y-30471D01*
X110476Y-30106D01*
D02*
G37*
G36*
X41376Y-13306D02*
X40424D01*
X39544Y-13671D01*
X38871Y-14344D01*
X38506Y-15224D01*
Y-16176D01*
X38666Y-16562D01*
X38785Y-17233D01*
X38408Y-18007D01*
X38171Y-18244D01*
X37806Y-19124D01*
Y-20076D01*
X38171Y-20956D01*
X38110Y-21260D01*
X37844Y-21371D01*
X37171Y-22044D01*
X36806Y-22924D01*
Y-23876D01*
X36908Y-24121D01*
X36749Y-25233D01*
X36508Y-25507D01*
X36071Y-25944D01*
X35706Y-26824D01*
Y-27776D01*
X35419Y-28206D01*
X35124D01*
X34244Y-28571D01*
X33571Y-29244D01*
X33206Y-30124D01*
Y-31076D01*
X33571Y-31956D01*
X33815Y-32200D01*
X33571Y-32444D01*
X33206Y-33324D01*
Y-34276D01*
X33571Y-35156D01*
X34244Y-35829D01*
X35124Y-36194D01*
X36076D01*
X36956Y-35829D01*
X37629Y-35156D01*
X37994Y-34276D01*
Y-33324D01*
X37629Y-32444D01*
X37385Y-32200D01*
X37629Y-31956D01*
X37994Y-31076D01*
Y-30124D01*
X38281Y-29694D01*
X38576D01*
X39456Y-29329D01*
X40129Y-28656D01*
X40494Y-27776D01*
Y-26824D01*
X40392Y-26579D01*
X40551Y-25467D01*
X40792Y-25193D01*
X41229Y-24756D01*
X41594Y-23876D01*
Y-22924D01*
X41229Y-22044D01*
X41290Y-21739D01*
X41556Y-21629D01*
X42229Y-20956D01*
X42594Y-20076D01*
Y-19124D01*
X42434Y-18738D01*
X42316Y-18067D01*
X42692Y-17293D01*
X42929Y-17056D01*
X43294Y-16176D01*
Y-15224D01*
X42929Y-14344D01*
X42256Y-13671D01*
X41376Y-13306D01*
D02*
G37*
G36*
X79976Y-31806D02*
X79024D01*
X78144Y-32171D01*
X77471Y-32844D01*
X77106Y-33724D01*
Y-34676D01*
X77471Y-35556D01*
X78144Y-36229D01*
X79024Y-36594D01*
X79976D01*
X80856Y-36229D01*
X81529Y-35556D01*
X81894Y-34676D01*
Y-33724D01*
X81529Y-32844D01*
X80856Y-32171D01*
X79976Y-31806D01*
D02*
G37*
G36*
X83476Y-36606D02*
X82524D01*
X81644Y-36971D01*
X80971Y-37644D01*
X80606Y-38524D01*
Y-39476D01*
X80971Y-40356D01*
X81644Y-41029D01*
X82524Y-41394D01*
X83476D01*
X84356Y-41029D01*
X85029Y-40356D01*
X85394Y-39476D01*
Y-38524D01*
X85029Y-37644D01*
X84356Y-36971D01*
X83476Y-36606D01*
D02*
G37*
G36*
X45776Y-34306D02*
X44824D01*
X43944Y-34671D01*
X43271Y-35344D01*
X42906Y-36224D01*
Y-37176D01*
X43271Y-38056D01*
X43944Y-38729D01*
X44824Y-39094D01*
X45776D01*
X46453Y-38813D01*
X46471Y-38856D01*
X47144Y-39529D01*
X48024Y-39894D01*
X48976D01*
X49070Y-39855D01*
X49644Y-40429D01*
X50524Y-40794D01*
X51476D01*
X52065Y-40550D01*
X52444Y-40929D01*
X53324Y-41294D01*
X54276D01*
X54794Y-41079D01*
X55344Y-41629D01*
X56224Y-41994D01*
X57176D01*
X58056Y-41629D01*
X58729Y-40956D01*
X59094Y-40076D01*
Y-39124D01*
X58729Y-38244D01*
X58056Y-37571D01*
X57176Y-37206D01*
X56224D01*
X55706Y-37421D01*
X55156Y-36871D01*
X54276Y-36506D01*
X53324D01*
X52735Y-36750D01*
X52356Y-36371D01*
X51476Y-36006D01*
X50524D01*
X50430Y-36045D01*
X49856Y-35471D01*
X48976Y-35106D01*
X48024D01*
X47347Y-35387D01*
X47329Y-35344D01*
X46656Y-34671D01*
X45776Y-34306D01*
D02*
G37*
G36*
X-37024Y-37606D02*
X-37976D01*
X-38856Y-37971D01*
X-39529Y-38644D01*
X-39894Y-39524D01*
Y-40476D01*
X-39529Y-41356D01*
X-38856Y-42029D01*
X-37976Y-42394D01*
X-37024D01*
X-36144Y-42029D01*
X-35471Y-41356D01*
X-35106Y-40476D01*
Y-39524D01*
X-35471Y-38644D01*
X-36144Y-37971D01*
X-37024Y-37606D01*
D02*
G37*
G36*
X-99724Y-37806D02*
X-100676D01*
X-101556Y-38171D01*
X-102229Y-38844D01*
X-102594Y-39724D01*
Y-40676D01*
X-102229Y-41556D01*
X-101556Y-42229D01*
X-100676Y-42594D01*
X-99724D01*
X-98844Y-42229D01*
X-98171Y-41556D01*
X-97806Y-40676D01*
Y-39724D01*
X-98171Y-38844D01*
X-98844Y-38171D01*
X-99724Y-37806D01*
D02*
G37*
G36*
X-107177Y-32351D02*
X-107859D01*
X-108518Y-32528D01*
X-109108Y-32869D01*
X-109591Y-33351D01*
X-109932Y-33942D01*
X-110108Y-34601D01*
Y-35283D01*
X-109995Y-35704D01*
X-110304Y-36013D01*
X-110645Y-36604D01*
X-110822Y-37263D01*
Y-37945D01*
X-110709Y-38366D01*
X-111017Y-38675D01*
X-111358Y-39266D01*
X-111535Y-39925D01*
Y-40607D01*
X-111358Y-41266D01*
X-111017Y-41856D01*
X-110535Y-42339D01*
X-109944Y-42680D01*
X-109285Y-42856D01*
X-108603D01*
X-107945Y-42680D01*
X-107354Y-42339D01*
X-106871Y-41856D01*
X-106530Y-41266D01*
X-106354Y-40607D01*
Y-39925D01*
X-106467Y-39503D01*
X-106158Y-39194D01*
X-105817Y-38604D01*
X-105641Y-37945D01*
Y-37263D01*
X-105754Y-36841D01*
X-105445Y-36532D01*
X-105104Y-35942D01*
X-104927Y-35283D01*
Y-34601D01*
X-105104Y-33942D01*
X-105445Y-33351D01*
X-105927Y-32869D01*
X-106518Y-32528D01*
X-107177Y-32351D01*
D02*
G37*
G36*
X-92524Y-39106D02*
X-93476D01*
X-94356Y-39471D01*
X-95029Y-40144D01*
X-95394Y-41024D01*
Y-41976D01*
X-95029Y-42856D01*
X-94356Y-43529D01*
X-93476Y-43894D01*
X-92524D01*
X-91644Y-43529D01*
X-90971Y-42856D01*
X-90606Y-41976D01*
Y-41024D01*
X-90971Y-40144D01*
X-91644Y-39471D01*
X-92524Y-39106D01*
D02*
G37*
G36*
X-133524D02*
X-134476D01*
X-135356Y-39471D01*
X-136029Y-40144D01*
X-136394Y-41024D01*
Y-41976D01*
X-136029Y-42856D01*
X-135356Y-43529D01*
X-134476Y-43894D01*
X-133524D01*
X-132644Y-43529D01*
X-131971Y-42856D01*
X-131606Y-41976D01*
Y-41024D01*
X-131971Y-40144D01*
X-132644Y-39471D01*
X-133524Y-39106D01*
D02*
G37*
G36*
X64776Y-39206D02*
X63824D01*
X62944Y-39571D01*
X62271Y-40244D01*
X61906Y-41124D01*
Y-42076D01*
X62271Y-42956D01*
X62944Y-43629D01*
X63824Y-43994D01*
X64776D01*
X65656Y-43629D01*
X66329Y-42956D01*
X66694Y-42076D01*
Y-41124D01*
X66329Y-40244D01*
X65656Y-39571D01*
X64776Y-39206D01*
D02*
G37*
G36*
X73476Y-41606D02*
X72524D01*
X71644Y-41971D01*
X70971Y-42644D01*
X70606Y-43524D01*
Y-44476D01*
X70971Y-45356D01*
X71644Y-46029D01*
X72524Y-46394D01*
X73476D01*
X74356Y-46029D01*
X75029Y-45356D01*
X75394Y-44476D01*
Y-43524D01*
X75029Y-42644D01*
X74356Y-41971D01*
X73476Y-41606D01*
D02*
G37*
G36*
X-106153Y-43683D02*
X-107106D01*
X-107985Y-44047D01*
X-108659Y-44720D01*
X-109023Y-45600D01*
Y-46552D01*
X-108659Y-47432D01*
X-107985Y-48105D01*
X-107106Y-48470D01*
X-106153D01*
X-105273Y-48105D01*
X-104600Y-47432D01*
X-104236Y-46552D01*
Y-45600D01*
X-104600Y-44720D01*
X-105273Y-44047D01*
X-106153Y-43683D01*
D02*
G37*
G36*
X-76524Y-47106D02*
X-77476D01*
X-78356Y-47471D01*
X-79029Y-48144D01*
X-79394Y-49024D01*
Y-49976D01*
X-79029Y-50856D01*
X-78356Y-51529D01*
X-77476Y-51894D01*
X-76524D01*
X-75644Y-51529D01*
X-74971Y-50856D01*
X-74606Y-49976D01*
Y-49024D01*
X-74971Y-48144D01*
X-75644Y-47471D01*
X-76524Y-47106D01*
D02*
G37*
G36*
X-94024Y-47606D02*
X-94976D01*
X-95856Y-47971D01*
X-96529Y-48644D01*
X-96894Y-49524D01*
Y-50476D01*
X-96529Y-51356D01*
X-95856Y-52029D01*
X-94976Y-52394D01*
X-94024D01*
X-93144Y-52029D01*
X-92471Y-51356D01*
X-92106Y-50476D01*
Y-49524D01*
X-92471Y-48644D01*
X-93144Y-47971D01*
X-94024Y-47606D01*
D02*
G37*
G36*
X138476Y-32606D02*
X137524D01*
X136644Y-32971D01*
X135971Y-33644D01*
X135606Y-34524D01*
Y-35182D01*
X135560Y-35512D01*
X134785Y-36106D01*
X134524D01*
X133644Y-36471D01*
X132971Y-37144D01*
X132606Y-38024D01*
Y-38976D01*
X132660Y-39106D01*
X132024Y-40106D01*
X131144Y-40471D01*
X130471Y-41144D01*
X130106Y-42024D01*
Y-42976D01*
X130471Y-43856D01*
X131144Y-44529D01*
X131213Y-44558D01*
X131942Y-45122D01*
X131713Y-45765D01*
X131606Y-46024D01*
Y-46976D01*
X131660Y-47106D01*
X131528Y-48074D01*
X131140Y-48265D01*
X130644Y-48471D01*
X129971Y-49144D01*
X129606Y-50024D01*
Y-50682D01*
X129560Y-51012D01*
X128785Y-51606D01*
X128524D01*
X127644Y-51971D01*
X126971Y-52644D01*
X126765Y-53140D01*
X126574Y-53528D01*
X125606Y-53660D01*
X125476Y-53606D01*
X124524D01*
X123644Y-53971D01*
X122971Y-54644D01*
X122606Y-55524D01*
Y-56476D01*
X122660Y-56606D01*
X122528Y-57574D01*
X122140Y-57765D01*
X121644Y-57971D01*
X120971Y-58644D01*
X120606Y-59524D01*
Y-60106D01*
X120524D01*
X119644Y-60471D01*
X118971Y-61144D01*
X118606Y-62024D01*
Y-62976D01*
X118971Y-63856D01*
X119644Y-64529D01*
X120524Y-64894D01*
X121476D01*
X121735Y-64786D01*
X121971Y-65356D01*
X122644Y-66029D01*
X123524Y-66394D01*
X123551D01*
X123591Y-66453D01*
Y-67405D01*
X123955Y-68285D01*
X124628Y-68958D01*
X125508Y-69323D01*
X126460D01*
X127340Y-68958D01*
X128014Y-68285D01*
X128378Y-67405D01*
Y-66453D01*
X128014Y-65573D01*
X127340Y-64900D01*
X126460Y-64535D01*
X126433D01*
X126394Y-64476D01*
Y-63524D01*
X126029Y-62644D01*
X125592Y-62207D01*
X125342Y-61828D01*
X125242Y-60841D01*
X125394Y-60476D01*
Y-59524D01*
X125340Y-59394D01*
X125472Y-58426D01*
X125860Y-58235D01*
X126356Y-58029D01*
X127029Y-57356D01*
X127235Y-56860D01*
X127426Y-56472D01*
X128394Y-56340D01*
X128524Y-56394D01*
X129476D01*
X130356Y-56029D01*
X131029Y-55356D01*
X131394Y-54476D01*
Y-53818D01*
X131440Y-53488D01*
X132215Y-52894D01*
X132476D01*
X133356Y-52529D01*
X134029Y-51856D01*
X134394Y-50976D01*
Y-50024D01*
X134340Y-49894D01*
X134472Y-48926D01*
X134860Y-48735D01*
X135356Y-48529D01*
X136029Y-47856D01*
X136394Y-46976D01*
Y-46024D01*
X136029Y-45144D01*
X135356Y-44471D01*
X135286Y-44442D01*
X134557Y-43878D01*
X134786Y-43235D01*
X134894Y-42976D01*
Y-42024D01*
X134840Y-41894D01*
X135476Y-40894D01*
X136356Y-40529D01*
X137029Y-39856D01*
X137394Y-38976D01*
Y-38318D01*
X137440Y-37988D01*
X138215Y-37394D01*
X138476D01*
X139356Y-37029D01*
X140029Y-36356D01*
X140394Y-35476D01*
Y-34524D01*
X140029Y-33644D01*
X139356Y-32971D01*
X138476Y-32606D01*
D02*
G37*
G36*
X-128024Y-53106D02*
X-128976D01*
X-129856Y-53471D01*
X-130529Y-54144D01*
X-130894Y-55024D01*
Y-55976D01*
X-130529Y-56856D01*
X-129856Y-57529D01*
X-128976Y-57894D01*
X-128024D01*
X-127144Y-57529D01*
X-126471Y-56856D01*
X-126106Y-55976D01*
Y-55024D01*
X-126471Y-54144D01*
X-127144Y-53471D01*
X-128024Y-53106D01*
D02*
G37*
G36*
X119476Y-47106D02*
X118524D01*
X117644Y-47471D01*
X116971Y-48144D01*
X116606Y-49024D01*
Y-49976D01*
X116971Y-50856D01*
X117221Y-51106D01*
X116807Y-52106D01*
X116524D01*
X115644Y-52471D01*
X114971Y-53144D01*
X114606Y-54024D01*
Y-54976D01*
X114867Y-55606D01*
X114617Y-56336D01*
X114370Y-56670D01*
X113644Y-56971D01*
X112971Y-57644D01*
X112606Y-58524D01*
Y-59476D01*
X112971Y-60356D01*
X113644Y-61029D01*
X114524Y-61394D01*
X115476D01*
X116356Y-61029D01*
X117029Y-60356D01*
X117394Y-59476D01*
Y-58524D01*
X117133Y-57894D01*
X117383Y-57164D01*
X117630Y-56830D01*
X118356Y-56529D01*
X119029Y-55856D01*
X119394Y-54976D01*
Y-54024D01*
X119029Y-53144D01*
X118779Y-52894D01*
X119193Y-51894D01*
X119476D01*
X120356Y-51529D01*
X121029Y-50856D01*
X121394Y-49976D01*
Y-49024D01*
X121029Y-48144D01*
X120356Y-47471D01*
X119476Y-47106D01*
D02*
G37*
G36*
X99731Y-67649D02*
X98779D01*
X97899Y-68014D01*
X97225Y-68687D01*
X96861Y-69567D01*
Y-70519D01*
X97225Y-71399D01*
X97899Y-72072D01*
X98779Y-72436D01*
X99731D01*
X100611Y-72072D01*
X101284Y-71399D01*
X101648Y-70519D01*
Y-69567D01*
X101284Y-68687D01*
X100611Y-68014D01*
X99731Y-67649D01*
D02*
G37*
G36*
X105210Y-70812D02*
X104258D01*
X103378Y-71177D01*
X102705Y-71850D01*
X102340Y-72730D01*
Y-73682D01*
X102705Y-74562D01*
X103378Y-75235D01*
X104258Y-75600D01*
X105210D01*
X106090Y-75235D01*
X106763Y-74562D01*
X107128Y-73682D01*
Y-72730D01*
X106763Y-71850D01*
X106090Y-71177D01*
X105210Y-70812D01*
D02*
G37*
G36*
X118290Y-74035D02*
X117338D01*
X116458Y-74399D01*
X115785Y-75073D01*
X115420Y-75953D01*
Y-76905D01*
X115785Y-77785D01*
X116458Y-78458D01*
X117338Y-78822D01*
X118290D01*
X119170Y-78458D01*
X119843Y-77785D01*
X120208Y-76905D01*
Y-75953D01*
X119843Y-75073D01*
X119170Y-74399D01*
X118290Y-74035D01*
D02*
G37*
G36*
X-101524Y-81606D02*
X-102476D01*
X-103356Y-81971D01*
X-104029Y-82644D01*
X-104394Y-83524D01*
Y-84476D01*
X-104029Y-85356D01*
X-103356Y-86029D01*
X-102927Y-86207D01*
X-102703Y-87318D01*
X-103029Y-87644D01*
X-103394Y-88524D01*
Y-89476D01*
X-103029Y-90356D01*
X-102356Y-91029D01*
X-101476Y-91394D01*
X-100524D01*
X-99644Y-91029D01*
X-98971Y-90356D01*
X-98606Y-89476D01*
Y-88524D01*
X-98971Y-87644D01*
X-99644Y-86971D01*
X-100073Y-86793D01*
X-100297Y-85682D01*
X-99971Y-85356D01*
X-99606Y-84476D01*
Y-83524D01*
X-99971Y-82644D01*
X-100644Y-81971D01*
X-101524Y-81606D01*
D02*
G37*
G36*
X-85524Y-91606D02*
X-86476D01*
X-87356Y-91971D01*
X-88029Y-92644D01*
X-88394Y-93524D01*
Y-94476D01*
X-88029Y-95356D01*
X-87356Y-96029D01*
X-86476Y-96394D01*
X-85524D01*
X-84644Y-96029D01*
X-83971Y-95356D01*
X-83606Y-94476D01*
Y-93524D01*
X-83971Y-92644D01*
X-84644Y-91971D01*
X-85524Y-91606D01*
D02*
G37*
G36*
X-79235Y-103771D02*
X-80540D01*
X-81799Y-104109D01*
X-82929Y-104761D01*
X-83851Y-105683D01*
X-83935Y-105829D01*
X-84935Y-105561D01*
Y-103771D01*
X-94840D01*
Y-113677D01*
X-84935D01*
Y-111888D01*
X-83935Y-111620D01*
X-83851Y-111765D01*
X-82929Y-112687D01*
X-81799Y-113339D01*
X-80540Y-113677D01*
X-79235D01*
X-77976Y-113339D01*
X-76846Y-112687D01*
X-75924Y-111765D01*
X-75442Y-110930D01*
X-75235Y-110865D01*
X-74540Y-110865D01*
X-74333Y-110930D01*
X-73851Y-111765D01*
X-72929Y-112687D01*
X-71799Y-113339D01*
X-70539Y-113677D01*
X-69235D01*
X-67976Y-113339D01*
X-66846Y-112687D01*
X-65924Y-111765D01*
X-65272Y-110636D01*
X-64935Y-109376D01*
Y-108072D01*
X-65272Y-106813D01*
X-65924Y-105683D01*
X-66846Y-104761D01*
X-67976Y-104109D01*
X-69235Y-103771D01*
X-70539D01*
X-71799Y-104109D01*
X-72929Y-104761D01*
X-73851Y-105683D01*
X-74333Y-106519D01*
X-74540Y-106584D01*
X-75235Y-106584D01*
X-75442Y-106519D01*
X-75924Y-105683D01*
X-76846Y-104761D01*
X-77976Y-104109D01*
X-79235Y-103771D01*
D02*
G37*
G36*
X36776Y-114206D02*
X35824D01*
X34944Y-114571D01*
X34271Y-115244D01*
X33906Y-116124D01*
Y-117076D01*
X34271Y-117956D01*
X34944Y-118629D01*
X35824Y-118994D01*
X36776D01*
X37656Y-118629D01*
X38329Y-117956D01*
X38694Y-117076D01*
Y-116124D01*
X38329Y-115244D01*
X37656Y-114571D01*
X36776Y-114206D01*
D02*
G37*
G36*
X15276Y-119006D02*
X14324D01*
X13675Y-119275D01*
X13026Y-119006D01*
X12074D01*
X11425Y-119275D01*
X10776Y-119006D01*
X9824D01*
X8944Y-119371D01*
X8271Y-120044D01*
X7906Y-120924D01*
Y-121876D01*
X8271Y-122756D01*
X8944Y-123429D01*
X9824Y-123794D01*
X10776D01*
X11425Y-123525D01*
X12074Y-123794D01*
X13026D01*
X13675Y-123525D01*
X14324Y-123794D01*
X15276D01*
X16156Y-123429D01*
X16829Y-122756D01*
X17194Y-121876D01*
Y-120924D01*
X16829Y-120044D01*
X16156Y-119371D01*
X15276Y-119006D01*
D02*
G37*
G36*
X-69024Y-116106D02*
X-69976D01*
X-70856Y-116471D01*
X-71529Y-117144D01*
X-71894Y-118024D01*
Y-118976D01*
X-71529Y-119856D01*
X-70856Y-120529D01*
X-69976Y-120894D01*
X-69024D01*
X-68144Y-120529D01*
X-67471Y-119856D01*
X-67106Y-118976D01*
Y-118024D01*
X-67471Y-117144D01*
X-68144Y-116471D01*
X-69024Y-116106D01*
D02*
G37*
G36*
X-35662Y-123233D02*
X-36966D01*
X-38226Y-123571D01*
X-39355Y-124223D01*
X-40277Y-125145D01*
X-40760Y-125980D01*
X-40967Y-126045D01*
X-41661D01*
X-41869Y-125980D01*
X-42351Y-125145D01*
X-43273Y-124223D01*
X-44403Y-123571D01*
X-45662Y-123233D01*
X-46966D01*
X-48226Y-123571D01*
X-49355Y-124223D01*
X-50277Y-125145D01*
X-50362Y-125290D01*
X-51362Y-125022D01*
Y-123233D01*
X-61267D01*
Y-133139D01*
X-51362D01*
Y-131349D01*
X-50362Y-131081D01*
X-50277Y-131227D01*
X-49355Y-132149D01*
X-48226Y-132801D01*
X-46966Y-133139D01*
X-45662D01*
X-44403Y-132801D01*
X-43273Y-132149D01*
X-42351Y-131227D01*
X-41869Y-130391D01*
X-41661Y-130326D01*
X-40967D01*
X-40760Y-130391D01*
X-40277Y-131227D01*
X-39355Y-132149D01*
X-38226Y-132801D01*
X-36966Y-133139D01*
X-35662D01*
X-34402Y-132801D01*
X-33273Y-132149D01*
X-32351Y-131227D01*
X-31699Y-130097D01*
X-31361Y-128838D01*
Y-127534D01*
X-31699Y-126274D01*
X-32351Y-125145D01*
X-33273Y-124223D01*
X-34402Y-123571D01*
X-35662Y-123233D01*
D02*
G37*
G36*
X50876Y-121606D02*
X49924D01*
X49044Y-121971D01*
X48371Y-122644D01*
X48006Y-123524D01*
Y-124476D01*
X48371Y-125356D01*
X49044Y-126029D01*
X49924Y-126394D01*
X50876D01*
X51756Y-126029D01*
X52429Y-125356D01*
X52794Y-124476D01*
Y-123524D01*
X52429Y-122644D01*
X51756Y-121971D01*
X50876Y-121606D01*
D02*
G37*
G36*
X32060Y-122023D02*
X31107D01*
X30228Y-122387D01*
X29554Y-123061D01*
X29190Y-123940D01*
Y-124893D01*
X29554Y-125773D01*
X30228Y-126446D01*
X31107Y-126810D01*
X32060D01*
X32939Y-126446D01*
X33613Y-125773D01*
X33977Y-124893D01*
Y-123940D01*
X33613Y-123061D01*
X32939Y-122387D01*
X32060Y-122023D01*
D02*
G37*
G36*
X54976Y-126606D02*
X54024D01*
X53144Y-126971D01*
X52471Y-127644D01*
X52334Y-127974D01*
X51476Y-128606D01*
X50524D01*
X49644Y-128971D01*
X48971Y-129644D01*
X48606Y-130524D01*
Y-131476D01*
X48971Y-132356D01*
X49644Y-133029D01*
X50524Y-133394D01*
X51476D01*
X52356Y-133029D01*
X53029Y-132356D01*
X53166Y-132026D01*
X54024Y-131394D01*
X54976D01*
X55838Y-131036D01*
X55856Y-131029D01*
X56963Y-131337D01*
X56971Y-131356D01*
X57644Y-132029D01*
X58524Y-132394D01*
X59476D01*
X60356Y-132029D01*
X61029Y-131356D01*
X61394Y-130476D01*
Y-129524D01*
X61029Y-128644D01*
X60356Y-127971D01*
X59476Y-127606D01*
X58524D01*
X57662Y-127963D01*
X57644Y-127971D01*
X56537Y-127663D01*
X56529Y-127644D01*
X55856Y-126971D01*
X54976Y-126606D01*
D02*
G37*
G36*
X19476Y-128106D02*
X18524D01*
X17644Y-128471D01*
X16971Y-129144D01*
X16606Y-130024D01*
Y-130976D01*
X16971Y-131856D01*
X17644Y-132529D01*
X18524Y-132894D01*
X19476D01*
X20356Y-132529D01*
X21029Y-131856D01*
X21394Y-130976D01*
Y-130024D01*
X21029Y-129144D01*
X20356Y-128471D01*
X19476Y-128106D01*
D02*
G37*
G36*
X-9258Y-137488D02*
X-10562D01*
X-11822Y-137826D01*
X-12951Y-138478D01*
X-13873Y-139400D01*
X-13957Y-139546D01*
X-14957Y-139278D01*
Y-137488D01*
X-24863D01*
Y-147394D01*
X-14957D01*
Y-145604D01*
X-13957Y-145336D01*
X-13873Y-145482D01*
X-12951Y-146404D01*
X-11822Y-147056D01*
X-10562Y-147394D01*
X-9258D01*
X-7999Y-147056D01*
X-6869Y-146404D01*
X-5947Y-145482D01*
X-5464Y-144646D01*
X-5257Y-144582D01*
X-4563Y-144582D01*
X-4356Y-144646D01*
X-3873Y-145482D01*
X-2951Y-146404D01*
X-1822Y-147056D01*
X-562Y-147394D01*
X742D01*
X2001Y-147056D01*
X3131Y-146404D01*
X4053Y-145482D01*
X4705Y-144353D01*
X5043Y-143093D01*
Y-141789D01*
X4705Y-140529D01*
X4053Y-139400D01*
X3131Y-138478D01*
X2001Y-137826D01*
X742Y-137488D01*
X-562D01*
X-1822Y-137826D01*
X-2951Y-138478D01*
X-3873Y-139400D01*
X-4356Y-140235D01*
X-4563Y-140300D01*
X-5257Y-140300D01*
X-5464Y-140235D01*
X-5947Y-139400D01*
X-6869Y-138478D01*
X-7999Y-137826D01*
X-9258Y-137488D01*
D02*
G37*
G36*
X-32024Y-135106D02*
X-32976D01*
X-33856Y-135471D01*
X-34529Y-136144D01*
X-34894Y-137024D01*
Y-137976D01*
X-34529Y-138856D01*
X-33856Y-139529D01*
X-32976Y-139894D01*
X-32024D01*
X-31144Y-139529D01*
X-30471Y-138856D01*
X-30106Y-137976D01*
Y-137024D01*
X-30471Y-136144D01*
X-31144Y-135471D01*
X-32024Y-135106D01*
D02*
G37*
%LPD*%
G36*
X7627Y-60237D02*
X7786Y-61253D01*
X7744Y-61271D01*
X7071Y-61944D01*
X6706Y-62824D01*
Y-63776D01*
X7071Y-64656D01*
X7744Y-65329D01*
X7897Y-65393D01*
X9257Y-88258D01*
X8758Y-88757D01*
X8440Y-88833D01*
X7609Y-88793D01*
X4184Y-83161D01*
X4079Y-83047D01*
X3909Y-82792D01*
X3280Y-82372D01*
X2933Y-82302D01*
X2777Y-82251D01*
X2775Y-82250D01*
X2771Y-82251D01*
X2766Y-82249D01*
X-33656Y-77920D01*
X-33771Y-77644D01*
X-34444Y-76971D01*
X-35324Y-76606D01*
X-36276D01*
X-37156Y-76971D01*
X-37829Y-77644D01*
X-38194Y-78524D01*
Y-79476D01*
X-37829Y-80356D01*
X-37156Y-81029D01*
X-36276Y-81394D01*
X-35324D01*
X-34444Y-81029D01*
X-33967Y-80553D01*
X2103Y-84840D01*
X6130Y-91462D01*
X5297Y-92017D01*
X2321Y-87926D01*
X2246Y-87856D01*
X2134Y-87688D01*
X1505Y-87269D01*
X1194Y-87207D01*
X1045Y-87154D01*
X1042Y-87153D01*
X1039Y-87153D01*
X1035Y-87152D01*
X-30058Y-82738D01*
X-30148Y-82743D01*
X-30329Y-82707D01*
X-31070Y-82855D01*
X-31699Y-83275D01*
X-31808Y-83439D01*
X-31881Y-83506D01*
X-32761Y-84705D01*
X-32779Y-84745D01*
X-32810Y-84776D01*
X-33097Y-85206D01*
X-33576D01*
X-34456Y-85571D01*
X-35129Y-86244D01*
X-35494Y-87124D01*
Y-88076D01*
X-35129Y-88956D01*
X-34456Y-89629D01*
X-33576Y-89994D01*
X-32624D01*
X-31744Y-89629D01*
X-31071Y-88956D01*
X-30706Y-88076D01*
Y-87222D01*
X-30661Y-86880D01*
X-30585Y-86299D01*
X-30585Y-86299D01*
X-30031Y-85465D01*
X-30000Y-85424D01*
X358Y-89733D01*
X2293Y-92395D01*
X1665Y-93231D01*
X714Y-92976D01*
X-590D01*
X-1850Y-93314D01*
X-2979Y-93966D01*
X-3901Y-94888D01*
X-4383Y-95724D01*
X-4591Y-95789D01*
X-5285D01*
X-5492Y-95724D01*
X-5975Y-94888D01*
X-6897Y-93966D01*
X-8026Y-93314D01*
X-9286Y-92976D01*
X-10590D01*
X-11850Y-93314D01*
X-12979Y-93966D01*
X-13901Y-94888D01*
X-13985Y-95034D01*
X-14985Y-94766D01*
Y-92976D01*
X-24891D01*
Y-102882D01*
X-25811Y-103075D01*
X-46751D01*
X-54274Y-95551D01*
Y-61248D01*
X-54091Y-60982D01*
X-54067Y-60960D01*
X-53376Y-60490D01*
X-53200Y-60526D01*
X-37104D01*
X-36394Y-61424D01*
Y-62376D01*
X-36029Y-63256D01*
X-35673Y-63613D01*
X-35791Y-64690D01*
X-35831Y-64761D01*
X-35856Y-64771D01*
X-36529Y-65444D01*
X-36894Y-66324D01*
Y-67276D01*
X-36529Y-68156D01*
X-35856Y-68829D01*
X-34976Y-69194D01*
X-34024D01*
X-33144Y-68829D01*
X-32471Y-68156D01*
X-32106Y-67276D01*
Y-66324D01*
X-32471Y-65444D01*
X-32827Y-65087D01*
X-32709Y-64010D01*
X-32669Y-63939D01*
X-32644Y-63929D01*
X-31971Y-63256D01*
X-31606Y-62376D01*
Y-61424D01*
X-30896Y-60526D01*
X-19542D01*
X-19529Y-60556D01*
X-18856Y-61229D01*
X-17976Y-61594D01*
X-17024D01*
X-16144Y-61229D01*
X-15471Y-60556D01*
X-15106Y-59676D01*
Y-59393D01*
X-14215Y-58462D01*
X7627Y-60237D01*
D02*
G37*
G36*
X21562Y-65173D02*
X21432Y-66198D01*
X20666Y-66299D01*
X19317Y-66858D01*
X18159Y-67747D01*
X17271Y-68904D01*
X16712Y-70253D01*
X16522Y-71700D01*
X16712Y-73147D01*
X17271Y-74496D01*
X17778Y-75157D01*
X17285Y-76157D01*
X16569D01*
Y-87243D01*
X17160D01*
Y-98953D01*
X17142Y-98999D01*
X16274Y-99608D01*
X12958Y-97502D01*
X12914Y-97395D01*
X12815Y-97354D01*
X10528Y-93594D01*
X11091Y-92594D01*
X11176D01*
X12056Y-92229D01*
X12729Y-91556D01*
X13094Y-90676D01*
Y-89724D01*
X12729Y-88844D01*
X12056Y-88171D01*
X11903Y-88108D01*
X10543Y-65242D01*
X11129Y-64656D01*
X11494Y-63776D01*
Y-62824D01*
X11187Y-62083D01*
X11445Y-61650D01*
X11851Y-61272D01*
X21562Y-65173D01*
D02*
G37*
%LPC*%
G36*
X-50224Y-62506D02*
X-51176D01*
X-52056Y-62871D01*
X-52729Y-63544D01*
X-53094Y-64424D01*
Y-65376D01*
X-52729Y-66256D01*
X-52056Y-66929D01*
X-51176Y-67294D01*
X-50224D01*
X-49344Y-66929D01*
X-48671Y-66256D01*
X-48306Y-65376D01*
Y-64424D01*
X-48671Y-63544D01*
X-49344Y-62871D01*
X-50224Y-62506D01*
D02*
G37*
G36*
X-50324Y-69506D02*
X-51276D01*
X-52156Y-69871D01*
X-52829Y-70544D01*
X-53194Y-71424D01*
Y-72376D01*
X-52829Y-73256D01*
X-52156Y-73929D01*
X-51276Y-74294D01*
X-50324D01*
X-49444Y-73929D01*
X-48771Y-73256D01*
X-48406Y-72376D01*
Y-71424D01*
X-48771Y-70544D01*
X-49444Y-69871D01*
X-50324Y-69506D01*
D02*
G37*
G36*
X-33524Y-70206D02*
X-34476D01*
X-35356Y-70571D01*
X-36029Y-71244D01*
X-36394Y-72124D01*
Y-73076D01*
X-36029Y-73956D01*
X-35356Y-74629D01*
X-34476Y-74994D01*
X-33524D01*
X-32644Y-74629D01*
X-31971Y-73956D01*
X-31606Y-73076D01*
Y-72124D01*
X-31971Y-71244D01*
X-32644Y-70571D01*
X-33524Y-70206D01*
D02*
G37*
%LPD*%
D18*
X10082Y-59133D02*
G03*
X9909Y-59093I-221J-558D01*
G01*
X-46623Y-54497D02*
G03*
X-46583Y-54501I92J593D01*
G01*
X103105Y-93201D02*
G03*
X103093Y-93199I-129J-586D01*
G01*
X-136524Y81631D02*
G03*
X-136749Y81286I360J-480D01*
G01*
X-122562Y40776D02*
G03*
X-122887Y40924I-400J-448D01*
G01*
X-143267Y53043D02*
G03*
X-143266Y52764I584J-138D01*
G01*
X-140999Y43602D02*
G03*
X-140493Y43149I583J142D01*
G01*
X-124088Y27626D02*
G03*
X-124455Y27170I225J-556D01*
G01*
X-125487Y20978D02*
G03*
X-125492Y20822I592J-99D01*
G01*
X-118324Y-38816D02*
G03*
X-118323Y-38582I-588J119D01*
G01*
X-121103Y-24368D02*
G03*
X-121095Y-24425I598J55D01*
G01*
X-116398Y21210D02*
G03*
X-116514Y21556I-600J-9D01*
G01*
X108688Y-107316D02*
G03*
X109042Y-106453I-172J575D01*
G01*
X26316Y-109700D02*
G03*
X26092Y-109744I0J-600D01*
G01*
X1890Y-109335D02*
G03*
X2236Y-110215I517J-304D01*
G01*
X3872Y-110692D02*
G03*
X3929Y-110705I167J576D01*
G01*
X17326Y-113168D02*
G03*
X17661Y-113135I111J590D01*
G01*
X105312Y-104718D02*
G03*
X105303Y-104090I-516J306D01*
G01*
X103510Y-100817D02*
G03*
X103562Y-101355I559J-218D01*
G01*
X104533Y-97568D02*
G03*
X104502Y-97560I-433J-1733D01*
G01*
X7491Y-97287D02*
G03*
X7510Y-97312I485J354D01*
G01*
X62061Y-106603D02*
G03*
X62123Y-106605I70J1198D01*
G01*
X15926Y-103872D02*
G03*
X16104Y-103909I209J563D01*
G01*
X88715Y-106800D02*
G03*
X88885Y-106774I-5J600D01*
G01*
X102128Y-97004D02*
G03*
X101474Y-97283I-137J-584D01*
G01*
X97176Y-104268D02*
G03*
X97519Y-103998I-174J574D01*
G01*
X-30244Y-84051D02*
G03*
X-30812Y-84290I-84J-594D01*
G01*
X-31693Y-85490D02*
G03*
X-31708Y-85511I485J-354D01*
G01*
X-31692Y-85489D02*
G03*
X-31693Y-85490I484J-355D01*
G01*
X11400Y-102077D02*
G03*
X11653Y-102258I463J381D01*
G01*
X1249Y-88705D02*
G03*
X851Y-88465I-485J-353D01*
G01*
X3052Y-83850D02*
G03*
X2612Y-83566I-513J-312D01*
G01*
X11829Y-98283D02*
G03*
X12021Y-98477I511J314D01*
G01*
X-58498Y-47418D02*
G03*
X-58287Y-47880I600J-6D01*
G01*
X-51433Y-53688D02*
G03*
X-51133Y-53825I390J456D01*
G01*
X86446Y-73384D02*
G03*
X86131Y-73305I-298J-521D01*
G01*
D02*
G03*
X86130Y-73305I17J-600D01*
G01*
X-122630Y66324D02*
G03*
X-122633Y66322I424J-424D01*
G01*
X95306Y-85804D02*
G03*
X95291Y-85795I-311J-513D01*
G01*
X87310Y-81262D02*
G03*
X87070Y-81188I-293J-524D01*
G01*
X76344Y-66957D02*
G03*
X76807Y-66842I99J592D01*
G01*
X59393Y-64099D02*
G03*
X59412Y-64102I116J589D01*
G01*
X33400Y-57099D02*
G03*
X33399Y-57107I590J-109D01*
G01*
X33201Y-58226D02*
G03*
X33676Y-58916I591J-101D01*
G01*
X74249Y-65352D02*
G03*
X74707Y-65250I108J590D01*
G01*
X47583Y-60296D02*
G03*
X47617Y-60303I148J581D01*
G01*
X82498Y-59602D02*
G03*
X82502Y-59598I-352J486D01*
G01*
X72283Y-63175D02*
G03*
X72781Y-63057I124J587D01*
G01*
X39017Y-57751D02*
G03*
X39451Y-58191I583J141D01*
G01*
X87403Y-56311D02*
G03*
X86841Y-56392I-206J-564D01*
G01*
X-136605Y60955D02*
X-134848Y74493D01*
X-55014Y121913D01*
X-54048Y122172D01*
X-136480Y60550D02*
X-134400Y57850D01*
X-136605Y60712D02*
X-136480Y60550D01*
X-136605Y60712D02*
Y60955D01*
X10082Y-59133D02*
X86872Y-89980D01*
X-51131Y-53825D02*
X-46623Y-54497D01*
X-46583Y-54501D02*
X-46580Y-54502D01*
X86872Y-89980D02*
X103093Y-93199D01*
X-46580Y-54502D02*
X9909Y-59093D01*
X103107Y-93202D02*
X111600Y-95100D01*
X103105Y-93201D02*
X103107Y-93202D01*
X-117623Y95783D02*
X-95785Y117620D01*
X-79720D01*
X-136524Y81631D02*
X-117623Y95783D01*
X-122562Y40776D02*
X-122560Y40774D01*
X-143267Y53043D02*
X-136749Y81286D01*
X-143266Y52764D02*
X-143266Y52761D01*
X-140999Y43602D01*
X-140493Y43149D02*
X-140492Y43148D01*
X-122887Y40924D01*
X-122560Y40774D02*
X-116701Y35495D01*
X-124455Y27168D02*
X-124455Y27170D01*
X-125487Y20978D02*
X-124455Y27168D01*
X-125492Y20822D02*
X-125492Y20821D01*
X-118324Y-38818D02*
X-118324Y-38816D01*
X-125492Y20822D02*
X-125492Y20821D01*
X-121103Y-24368D01*
X-121095Y-24425D02*
X-121094Y-24429D01*
X-124088Y27626D02*
X-119200Y29600D01*
X-121094Y-24429D02*
X-118323Y-38582D01*
X-120359Y-48696D02*
X-118324Y-38818D01*
X-116398Y21210D02*
X-116398Y21207D01*
X-119700Y25900D02*
X-116514Y21556D01*
X-116398Y21207D02*
X-115915Y-28249D01*
X-135615Y53109D02*
X-135438Y53285D01*
X-122633Y66322D01*
X-136614Y53100D02*
X-135860Y53107D01*
X-137500Y49400D02*
X-125400Y61500D01*
X-135860Y53107D02*
X-135615Y53109D01*
X44788Y-109700D02*
X73576Y-112666D01*
X73618D01*
X26316Y-109700D02*
X44788D01*
X73629Y-112666D02*
X93489Y-111930D01*
X73618Y-112666D02*
X73629Y-112666D01*
X93489Y-111930D02*
X93564Y-111907D01*
X108688Y-107316D01*
X7200Y-105500D02*
X7345Y-105372D01*
X7589D02*
X84412Y-110216D01*
X84496D01*
X84560Y-110202D02*
X104609Y-105784D01*
X84496Y-110216D02*
X84560Y-110202D01*
X7345Y-105372D02*
X7589D01*
X104609Y-105784D02*
X104787Y-105607D01*
X104825Y-105541D01*
X105312Y-104718D01*
X109040Y-106451D02*
X109042Y-106453D01*
X26316Y-109700D02*
X26316Y-109700D01*
X1890Y-109335D02*
X6600Y-101300D01*
X2236Y-110215D02*
X2239Y-110215D01*
X3929Y-110705D02*
X3930Y-110705D01*
X2239Y-110215D02*
X3872Y-110692D01*
X9100Y-63300D02*
X10700Y-90200D01*
X3930Y-110705D02*
X17326Y-113168D01*
X17661Y-113135D02*
X26092Y-109744D01*
X105922Y-100818D02*
X109040Y-106451D01*
X87070Y-81188D02*
X87070D01*
X79200D02*
X87070D01*
X56500Y-73100D02*
X79200Y-81188D01*
X62847Y-104820D02*
X87468Y-103744D01*
X62834Y-104821D02*
X62847Y-104820D01*
X16216Y-101142D02*
X16342Y-101222D01*
X62797Y-104821D02*
X62834D01*
X12021Y-98477D02*
X16216Y-101142D01*
X16342Y-101222D02*
X62797Y-104821D01*
X87468Y-103744D02*
X87679Y-103533D01*
X87714Y-103478D01*
X92562Y-95899D01*
X105302Y-104089D02*
X105303Y-104090D01*
X103562Y-101355D02*
X105302Y-104089D01*
X88709Y-106800D02*
X88715Y-106800D01*
X7510Y-97312D02*
X11400Y-102077D01*
X11653Y-102258D02*
X15926Y-103872D01*
X7490Y-97286D02*
X7491Y-97287D01*
X102128Y-97004D02*
X104502Y-97560D01*
X16104Y-103909D02*
X62061Y-106603D01*
X104533Y-97568D02*
X107900Y-98400D01*
X62123Y-106605D02*
X88709Y-106800D01*
X88885Y-106774D02*
X97176Y-104268D01*
X103510Y-100817D02*
X104100Y-99300D01*
X97519Y-103998D02*
X101474Y-97283D01*
X-31692Y-85489D02*
X-30812Y-84290D01*
X-33100Y-87600D02*
X-31708Y-85511D01*
X848Y-88464D02*
X851Y-88465D01*
X3052Y-83850D02*
X11827Y-98280D01*
X-35800Y-79000D02*
X2610Y-83565D01*
X97976Y-94435D02*
X98034Y-94447D01*
X109800Y-96800D01*
X97842Y-94435D02*
X97976D01*
X2610Y-83565D02*
X2612Y-83566D01*
X92884Y-95696D02*
X97842Y-94435D01*
X92562Y-95899D02*
X92725Y-95736D01*
X1249Y-88705D02*
X7490Y-97286D01*
X-30244Y-84051D02*
X848Y-88464D01*
X92725Y-95736D02*
X92884Y-95696D01*
X11827Y-98280D02*
X11829Y-98283D01*
X-58498Y-47418D02*
X-58300Y-23800D01*
X-58287Y-47880D02*
X-58285Y-47882D01*
X-51433Y-53688D01*
X-51133Y-53825D02*
X-51131Y-53825D01*
X-85100Y-27300D02*
X-53200Y-59200D01*
X-17500D01*
X108986Y-91668D02*
X111306Y-92418D01*
X101582Y-89623D02*
X108986Y-91668D01*
X111306Y-92418D02*
X113386Y-92900D01*
X-17863Y-46375D02*
X-17742Y-46319D01*
X-17503D01*
X-20900Y-47800D02*
X-17863Y-46375D01*
X38881Y-66682D02*
X78161Y-73538D01*
X-17503Y-46319D02*
X38829Y-66673D01*
X38881Y-66682D01*
X78222Y-73538D02*
X78231Y-73537D01*
X86130Y-73305D01*
X78161Y-73538D02*
X78222D01*
X95309Y-85805D02*
X101426Y-89554D01*
X101582Y-89623D01*
X112781Y-90024D02*
X113576D01*
X113600Y-90000D01*
X100424Y-81417D02*
X112781Y-90024D01*
X100373Y-81384D02*
X100424Y-81417D01*
X86447Y-73384D02*
X100373Y-81384D01*
X-122630Y66324D02*
X-122455Y66500D01*
X-103400D01*
X-125400Y61500D02*
X-95900D01*
X95306Y-85804D02*
X95309Y-85805D01*
X87310Y-81262D02*
X87313Y-81264D01*
X95291Y-85795D01*
X86446Y-73384D02*
X86447Y-73384D01*
X102481Y-64357D02*
X102563Y-64333D01*
X102288Y-64357D02*
X102481D01*
X87224Y-58900D02*
X87534D01*
X102288Y-64357D01*
X87063Y-59023D02*
X87224Y-58900D01*
X76807Y-66842D02*
X87063Y-59023D01*
X102563Y-64333D02*
X104400Y-63800D01*
X76343Y-66957D02*
X76344Y-66957D01*
X59412Y-64102D02*
X76343Y-66957D01*
X59391Y-64098D02*
X59393Y-64099D01*
X33400Y-57099D02*
X33401Y-57096D01*
X33676Y-58916D02*
X59391Y-64098D01*
X33201Y-58226D02*
X33202Y-58223D01*
X74707Y-65250D02*
X82498Y-59602D01*
X74246Y-65352D02*
X74249Y-65352D01*
X47581Y-60295D02*
X47583Y-60296D01*
X39451Y-58191D02*
X47581Y-60295D01*
X47617Y-60303D02*
X74246Y-65352D01*
X44800Y-57200D02*
X72283Y-63175D01*
X72781Y-63057D02*
X88300Y-50700D01*
X33202Y-58223D02*
X33399Y-57107D01*
X33401Y-57096D02*
X33800Y-55000D01*
X39016Y-57749D02*
X39017Y-57751D01*
X87403Y-56311D02*
X101900Y-61600D01*
X82502Y-59598D02*
X86841Y-56392D01*
X38600Y-56000D02*
X39016Y-57749D01*
X-47300Y-104400D02*
X-14900D01*
X-55600Y-96100D02*
Y-61100D01*
Y-96100D02*
X-47300Y-104400D01*
X-87700Y-28900D02*
X-64000Y-52600D01*
Y-52700D02*
X-55600Y-61100D01*
X-64000Y-52700D02*
Y-52600D01*
X-87700Y-28900D02*
Y4800D01*
X-98300Y15400D02*
X-87700Y4800D01*
X-96514Y15914D02*
X-85100Y4500D01*
Y-27300D02*
Y4500D01*
X-98300Y15400D02*
Y35900D01*
X-94800Y16100D02*
Y36428D01*
X-96514Y15914D02*
Y38514D01*
X-94800Y16100D02*
X-82800Y4100D01*
X-94800Y36428D02*
X-94728Y36500D01*
X-98400Y40400D02*
X-96514Y38514D01*
X-92900Y22400D02*
Y40200D01*
X-94387Y41687D02*
X-92900Y40200D01*
Y22400D02*
X-79800Y9300D01*
X-94387Y41687D02*
Y41713D01*
X-88400Y-71100D02*
X-71100Y-88400D01*
X-88500Y-60900D02*
X-88400Y-61000D01*
Y-71100D02*
Y-61000D01*
X-71100Y-88400D02*
X-61500D01*
X-82800Y-20500D02*
Y4100D01*
X-79800Y-20000D02*
Y9300D01*
X-94700Y44800D02*
X-89900Y40000D01*
Y30500D02*
Y40000D01*
Y30500D02*
X-69400Y10000D01*
X-83700Y36900D02*
Y49300D01*
X-63900Y-316D02*
Y10300D01*
X-88000Y30900D02*
X-67300Y10200D01*
X-81000Y41500D02*
Y53500D01*
X-86300Y32700D02*
Y42000D01*
X-88000Y30900D02*
Y41000D01*
X-86300Y32700D02*
X-63900Y10300D01*
X-67300Y-500D02*
Y10200D01*
X-95900Y61500D02*
X-83700Y49300D01*
X-76400Y-9600D02*
X-67300Y-500D01*
X-76400Y-9700D02*
Y-9600D01*
X-97000Y52700D02*
X-86300Y42000D01*
X-69400Y2100D02*
Y10000D01*
X-73365Y-9781D02*
X-63900Y-316D01*
X-94500Y47500D02*
X-88000Y41000D01*
X-77700Y34200D02*
Y61300D01*
Y34200D02*
X-52000Y8500D01*
X-91300Y74900D02*
X-77700Y61300D01*
X-101100Y64200D02*
X-91700D01*
X-81000Y53500D01*
X-103400Y66500D02*
X-101100Y64200D01*
X-122700Y73200D02*
X-121000Y74900D01*
X-91300D01*
X-124700Y70900D02*
Y74800D01*
X-122700Y76800D01*
X-90100D01*
X-75400Y62100D01*
Y34700D02*
Y62100D01*
Y34700D02*
X-49800Y9100D01*
Y5700D02*
Y9100D01*
X-52600Y2900D02*
X-49800Y5700D01*
X-58500Y2900D02*
X-52600D01*
X-52000Y7000D02*
Y8500D01*
X-53300Y5700D02*
X-52000Y7000D01*
X-55300Y5700D02*
X-53300D01*
D19*
X-41994Y76738D02*
G03*
X-41769Y76164I800J-18D01*
G01*
X-37516Y71816D02*
G03*
X-37489Y71790I575J557D01*
G01*
X-21464Y56615D02*
G03*
X-21712Y57097I-793J-103D01*
G01*
X-41769Y76164D02*
X-41766Y76161D01*
X-41994Y76738D02*
X-41600Y99100D01*
X-41766Y76161D02*
X-37516Y71816D01*
X-37489Y71790D02*
X-37486Y71787D01*
X-21464Y56615D02*
X-21463Y56613D01*
X-37486Y71787D02*
X-21712Y57097D01*
X-21463Y56613D02*
X-20800Y51400D01*
D190*
X97176Y-104268D02*
D03*
D236*
X-51479Y128037D02*
D03*
X-54048Y122172D02*
D03*
D237*
X99958Y-16376D02*
D03*
D238*
X-26000Y-25100D02*
D03*
X-75538Y-21717D02*
D03*
X-53800Y-24900D02*
D03*
X-60000Y-80700D02*
D03*
X-52400Y-85400D02*
D03*
X-26900Y-98000D02*
D03*
X-22600Y-53100D02*
D03*
X12900Y-71200D02*
D03*
X124100Y-5400D02*
D03*
X72000Y10300D02*
D03*
X65700Y31600D02*
D03*
X47000Y51900D02*
D03*
X24000Y66400D02*
D03*
X-2700Y74300D02*
D03*
X-27000Y74200D02*
D03*
X-77900Y88400D02*
D03*
X-79720Y117620D02*
D03*
X-116701Y35495D02*
D03*
X-136614Y53100D02*
D03*
X-137500Y49400D02*
D03*
X-119700Y25900D02*
D03*
X-119200Y29600D02*
D03*
X9100Y-63300D02*
D03*
X10700Y-90200D02*
D03*
X6600Y-101300D02*
D03*
X56500Y-73100D02*
D03*
X7200Y-105500D02*
D03*
X-33100Y-87600D02*
D03*
X-35800Y-79000D02*
D03*
X-58300Y-23800D02*
D03*
X-17500Y-59200D02*
D03*
X18712Y-143338D02*
D03*
X19100Y-140500D02*
D03*
X16650D02*
D03*
X104100Y-99300D02*
D03*
X105922Y-100818D02*
D03*
X107900Y-98400D02*
D03*
X109800Y-96800D02*
D03*
X111600Y-95100D02*
D03*
X113386Y-92900D02*
D03*
X113600Y-90000D02*
D03*
X-134400Y57850D02*
D03*
X-20900Y-47800D02*
D03*
X104400Y-63800D02*
D03*
X101900Y-61600D02*
D03*
X88300Y-50700D02*
D03*
X-14900Y-104400D02*
D03*
X-98300Y35900D02*
D03*
X-94728Y36500D02*
D03*
X-88500Y-60900D02*
D03*
X-61500Y-88400D02*
D03*
X-82800Y-20500D02*
D03*
X-79800Y-20000D02*
D03*
X-94387Y41713D02*
D03*
X-83700Y36900D02*
D03*
X-81000Y41500D02*
D03*
X-76400Y-9700D02*
D03*
X-98400Y40400D02*
D03*
X-94700Y44800D02*
D03*
X-97000Y52700D02*
D03*
X-69400Y2100D02*
D03*
X-94500Y47500D02*
D03*
X-73365Y-9781D02*
D03*
X-122700Y73200D02*
D03*
X-58500Y2900D02*
D03*
X-55300Y5700D02*
D03*
X-124700Y70900D02*
D03*
X-115915Y-28249D02*
D03*
X44800Y-57200D02*
D03*
X38600Y-56000D02*
D03*
X33800Y-55000D02*
D03*
X-41600Y99100D02*
D03*
X-20800Y51400D02*
D03*
X-42700Y20100D02*
D03*
X-45000Y18200D02*
D03*
X-47100Y16800D02*
D03*
X67100Y-39000D02*
D03*
X67700Y-33100D02*
D03*
X66200Y-36700D02*
D03*
X-120359Y-48696D02*
D03*
X-123310Y-65504D02*
D03*
X-125676Y-64870D02*
D03*
X-128043Y-64236D02*
D03*
M02*
